%TF.GenerationSoftware,KiCad,Pcbnew,5.0.2+dfsg1-1*%
%TF.CreationDate,2022-01-02T19:08:51-08:00*%
%TF.ProjectId,keypad,6b657970-6164-42e6-9b69-6361645f7063,rev?*%
%TF.SameCoordinates,Original*%
%TF.FileFunction,Copper,L1,Top*%
%TF.FilePolarity,Positive*%
%FSLAX46Y46*%
G04 Gerber Fmt 4.6, Leading zero omitted, Abs format (unit mm)*
G04 Created by KiCad (PCBNEW 5.0.2+dfsg1-1) date Sun 02 Jan 2022 07:08:51 PM PST*
%MOMM*%
%LPD*%
G01*
G04 APERTURE LIST*
%ADD10C,2.200000*%
%ADD11R,1.800000X2.600000*%
%ADD12O,1.800000X2.600000*%
%ADD13C,3.000000*%
%ADD14R,1.700000X1.700000*%
%ADD15O,1.700000X1.700000*%
%ADD16C,8.600000*%
%ADD17C,0.900000*%
%ADD18O,1.400000X1.400000*%
%ADD19C,1.400000*%
%ADD20R,1.600000X2.400000*%
%ADD21O,1.600000X2.400000*%
%ADD22C,0.800000*%
%ADD23C,1.000000*%
%ADD24C,0.250000*%
%ADD25C,0.254000*%
G04 APERTURE END LIST*
D10*
X112650000Y-78540000D03*
X119000000Y-76000000D03*
D11*
X116000000Y-36000000D03*
D12*
X118540000Y-36000000D03*
X121080000Y-36000000D03*
X123620000Y-36000000D03*
X126160000Y-36000000D03*
X128700000Y-36000000D03*
X131240000Y-36000000D03*
X133780000Y-36000000D03*
X136320000Y-36000000D03*
X138860000Y-36000000D03*
X141400000Y-36000000D03*
X143940000Y-36000000D03*
X146480000Y-36000000D03*
X149020000Y-36000000D03*
X151560000Y-36000000D03*
X154100000Y-36000000D03*
D13*
X110500900Y-36000000D03*
X110500900Y-67000700D03*
X185499480Y-67000700D03*
X185500000Y-36000000D03*
D14*
X134000000Y-44000000D03*
D15*
X136540000Y-44000000D03*
X139080000Y-44000000D03*
X141620000Y-44000000D03*
X144160000Y-44000000D03*
X146700000Y-44000000D03*
X149240000Y-44000000D03*
X151780000Y-44000000D03*
X154320000Y-44000000D03*
X156860000Y-44000000D03*
X159400000Y-44000000D03*
X161940000Y-44000000D03*
D10*
X140000000Y-139000000D03*
X133650000Y-141540000D03*
X133650000Y-78540000D03*
X140000000Y-76000000D03*
X161000000Y-76000000D03*
X154650000Y-78540000D03*
X119000000Y-97000000D03*
X112650000Y-99540000D03*
X140000000Y-97000000D03*
X133650000Y-99540000D03*
X154650000Y-99540000D03*
X161000000Y-97000000D03*
X112650000Y-120540000D03*
X119000000Y-118000000D03*
X140000000Y-118000000D03*
X133650000Y-120540000D03*
X154650000Y-120540000D03*
X161000000Y-118000000D03*
X182000000Y-76000000D03*
X175650000Y-78540000D03*
X182000000Y-97000000D03*
X175650000Y-99540000D03*
X182000000Y-118000000D03*
X175650000Y-120540000D03*
X175650000Y-141540000D03*
X182000000Y-139000000D03*
X154650000Y-141540000D03*
X161000000Y-139000000D03*
X112650000Y-141540000D03*
X119000000Y-139000000D03*
D16*
X187000000Y-157000000D03*
D17*
X190225000Y-157000000D03*
X189280419Y-159280419D03*
X187000000Y-160225000D03*
X184719581Y-159280419D03*
X183775000Y-157000000D03*
X184719581Y-154719581D03*
X187000000Y-153775000D03*
X189280419Y-154719581D03*
X111280419Y-154719581D03*
X109000000Y-153775000D03*
X106719581Y-154719581D03*
X105775000Y-157000000D03*
X106719581Y-159280419D03*
X109000000Y-160225000D03*
X111280419Y-159280419D03*
X112225000Y-157000000D03*
D16*
X109000000Y-157000000D03*
D18*
X115620000Y-71000000D03*
D19*
X108000000Y-71000000D03*
X108000000Y-113000000D03*
D18*
X115620000Y-113000000D03*
D19*
X150000000Y-71000000D03*
D18*
X157620000Y-71000000D03*
X157620000Y-113000000D03*
D19*
X150000000Y-113000000D03*
X129000000Y-71000000D03*
D18*
X136620000Y-71000000D03*
X136620000Y-113000000D03*
D19*
X129000000Y-113000000D03*
X171000000Y-71000000D03*
D18*
X178620000Y-71000000D03*
X178620000Y-113000000D03*
D19*
X171000000Y-113000000D03*
D18*
X115620000Y-92000000D03*
D19*
X108000000Y-92000000D03*
X108000000Y-134000000D03*
D18*
X115620000Y-134000000D03*
X157620000Y-92000000D03*
D19*
X150000000Y-92000000D03*
D18*
X157620000Y-134000000D03*
D19*
X150000000Y-134000000D03*
X129000000Y-92000000D03*
D18*
X136620000Y-92000000D03*
X136620000Y-134000000D03*
D19*
X129000000Y-134000000D03*
X171000000Y-92000000D03*
D18*
X178620000Y-92000000D03*
D19*
X171000000Y-134000000D03*
D18*
X178620000Y-134000000D03*
X133620000Y-32000000D03*
D19*
X126000000Y-32000000D03*
X112000000Y-48030000D03*
D18*
X119620000Y-48030000D03*
X125000000Y-40380000D03*
D19*
X125000000Y-48000000D03*
X135000000Y-61000000D03*
D18*
X135000000Y-53380000D03*
X187120000Y-49000000D03*
D19*
X179500000Y-49000000D03*
X189500000Y-61000000D03*
D18*
X189500000Y-53380000D03*
D19*
X159000000Y-40000000D03*
D18*
X151380000Y-40000000D03*
D20*
X112000000Y-53000000D03*
D21*
X129780000Y-60620000D03*
X114540000Y-53000000D03*
X127240000Y-60620000D03*
X117080000Y-53000000D03*
X124700000Y-60620000D03*
X119620000Y-53000000D03*
X122160000Y-60620000D03*
X122160000Y-53000000D03*
X119620000Y-60620000D03*
X124700000Y-53000000D03*
X117080000Y-60620000D03*
X127240000Y-53000000D03*
X114540000Y-60620000D03*
X129780000Y-53000000D03*
X112000000Y-60620000D03*
X166500000Y-60620000D03*
X184280000Y-53000000D03*
X169040000Y-60620000D03*
X181740000Y-53000000D03*
X171580000Y-60620000D03*
X179200000Y-53000000D03*
X174120000Y-60620000D03*
X176660000Y-53000000D03*
X176660000Y-60620000D03*
X174120000Y-53000000D03*
X179200000Y-60620000D03*
X171580000Y-53000000D03*
X181740000Y-60620000D03*
X169040000Y-53000000D03*
X184280000Y-60620000D03*
D20*
X166500000Y-53000000D03*
D22*
X118140000Y-56190000D03*
X113030000Y-56630000D03*
X127000000Y-57100000D03*
X172910000Y-57240000D03*
X178850000Y-56480000D03*
X174610000Y-63160000D03*
X169920000Y-68810000D03*
X172180000Y-136650000D03*
X171210000Y-94220000D03*
X172730000Y-98720000D03*
X120040000Y-39870000D03*
X113880000Y-45730000D03*
X109000000Y-50410000D03*
X109070000Y-54750000D03*
X128010000Y-68030000D03*
X128710000Y-38680000D03*
X132950000Y-38450000D03*
X138490000Y-39050000D03*
X142780000Y-39160000D03*
X145430000Y-39080000D03*
X148060000Y-39080000D03*
X127803155Y-55626845D03*
X131512258Y-62583072D03*
X128088511Y-63908511D03*
X124010010Y-58170000D03*
X131440000Y-61345000D03*
X128475858Y-62495858D03*
X171020000Y-65695010D03*
X146096488Y-64633512D03*
D23*
X119000000Y-76000000D02*
X140000000Y-76000000D01*
X140000000Y-76000000D02*
X161000000Y-76000000D01*
X161000000Y-76000000D02*
X182000000Y-76000000D01*
X182000000Y-95444366D02*
X182000000Y-97000000D01*
X182160001Y-95284365D02*
X182000000Y-95444366D01*
X182160001Y-77715635D02*
X182160001Y-95284365D01*
X182000000Y-77555634D02*
X182160001Y-77715635D01*
X182000000Y-76000000D02*
X182000000Y-77555634D01*
X180444366Y-97000000D02*
X161000000Y-97000000D01*
X182000000Y-97000000D02*
X180444366Y-97000000D01*
X161000000Y-97000000D02*
X140000000Y-97000000D01*
X140000000Y-97000000D02*
X119000000Y-97000000D01*
X119000000Y-116444366D02*
X119000000Y-118000000D01*
X119160001Y-116284365D02*
X119000000Y-116444366D01*
X119160001Y-100783999D02*
X119160001Y-116284365D01*
X119000000Y-100623998D02*
X119160001Y-100783999D01*
X119000000Y-97000000D02*
X119000000Y-100623998D01*
X120555634Y-118000000D02*
X140000000Y-118000000D01*
X119000000Y-118000000D02*
X120555634Y-118000000D01*
X140000000Y-118000000D02*
X182000000Y-118000000D01*
X182000000Y-137444366D02*
X182000000Y-139000000D01*
X182160001Y-137284365D02*
X182000000Y-137444366D01*
X182160001Y-119715635D02*
X182160001Y-137284365D01*
X182000000Y-119555634D02*
X182160001Y-119715635D01*
X182000000Y-118000000D02*
X182000000Y-119555634D01*
X182000000Y-139000000D02*
X119000000Y-139000000D01*
X120440000Y-33700000D02*
X118540000Y-35600000D01*
X154462755Y-33700000D02*
X120440000Y-33700000D01*
X118540000Y-35600000D02*
X118540000Y-36000000D01*
X160249999Y-39487244D02*
X154462755Y-33700000D01*
X159400000Y-44000000D02*
X160249999Y-43150001D01*
X159000000Y-40000000D02*
X160069999Y-40000000D01*
X160069999Y-40000000D02*
X160249999Y-40180000D01*
X160249999Y-43150001D02*
X160249999Y-40180000D01*
X160249999Y-40180000D02*
X160249999Y-39487244D01*
X160249999Y-39487244D02*
X184097244Y-39487244D01*
X189500000Y-44890000D02*
X189500000Y-53380000D01*
X184097244Y-39487244D02*
X189500000Y-44890000D01*
X183099999Y-74900001D02*
X182000000Y-76000000D01*
X190900001Y-67099999D02*
X183099999Y-74900001D01*
X190900001Y-54780001D02*
X190900001Y-67099999D01*
X189500000Y-53380000D02*
X190900001Y-54780001D01*
X119000000Y-95444366D02*
X119000000Y-97000000D01*
X119160001Y-79783999D02*
X119160001Y-95284365D01*
X119000000Y-79623998D02*
X119160001Y-79783999D01*
X119160001Y-95284365D02*
X119000000Y-95444366D01*
X119000000Y-76000000D02*
X119000000Y-79623998D01*
X119000000Y-137444366D02*
X119000000Y-139000000D01*
X119160001Y-137284365D02*
X119000000Y-137444366D01*
X119160001Y-119715635D02*
X119160001Y-137284365D01*
X119000000Y-119555634D02*
X119160001Y-119715635D01*
X119000000Y-118000000D02*
X119000000Y-119555634D01*
X182160001Y-116284365D02*
X182000000Y-116444366D01*
X182000000Y-116444366D02*
X182000000Y-118000000D01*
X182160001Y-100783999D02*
X182160001Y-116284365D01*
X182000000Y-100623998D02*
X182160001Y-100783999D01*
X182000000Y-97000000D02*
X182000000Y-100623998D01*
X161000000Y-137444366D02*
X161000000Y-139000000D01*
X161160001Y-137284365D02*
X161000000Y-137444366D01*
X161160001Y-77715635D02*
X161160001Y-137284365D01*
X161000000Y-77555634D02*
X161160001Y-77715635D01*
X161000000Y-76000000D02*
X161000000Y-77555634D01*
X140160001Y-137284365D02*
X140000000Y-137444366D01*
X140160001Y-77715635D02*
X140160001Y-137284365D01*
X140000000Y-77555634D02*
X140160001Y-77715635D01*
X140000000Y-137444366D02*
X140000000Y-139000000D01*
X140000000Y-76000000D02*
X140000000Y-77555634D01*
D24*
X127240000Y-53000000D02*
X127240000Y-48210000D01*
X127240000Y-48210000D02*
X133594989Y-41855011D01*
X149635011Y-41855011D02*
X151780000Y-44000000D01*
X133594989Y-41855011D02*
X149635011Y-41855011D01*
X124507999Y-41405001D02*
X151725001Y-41405001D01*
X151725001Y-41405001D02*
X154320000Y-44000000D01*
X115954990Y-49958010D02*
X124507999Y-41405001D01*
X115954990Y-57755010D02*
X115954990Y-49958010D01*
X114540000Y-60620000D02*
X114540000Y-59170000D01*
X114540000Y-59170000D02*
X115954990Y-57755010D01*
X175245010Y-58044990D02*
X175245010Y-52134006D01*
X175245010Y-52134006D02*
X172831004Y-49720000D01*
X174120000Y-60620000D02*
X174120000Y-59170000D01*
X174120000Y-59170000D02*
X175245010Y-58044990D01*
X162580000Y-49720000D02*
X156860000Y-44000000D01*
X172831004Y-49720000D02*
X162580000Y-49720000D01*
X117080000Y-53400000D02*
X117080000Y-53000000D01*
X132165001Y-59988691D02*
X127803155Y-55626845D01*
X132165001Y-61930329D02*
X132165001Y-59988691D01*
X131512258Y-62583072D02*
X132165001Y-61930329D01*
X124800000Y-60620000D02*
X124700000Y-60620000D01*
X128088511Y-63908511D02*
X124800000Y-60620000D01*
X122160000Y-60220000D02*
X122160000Y-60620000D01*
X123210000Y-59170000D02*
X122160000Y-60220000D01*
X123610000Y-59170000D02*
X123210000Y-59170000D01*
X124010010Y-58769990D02*
X123610000Y-59170000D01*
X124010010Y-58170000D02*
X124010010Y-58769990D01*
X122160000Y-53400000D02*
X122160000Y-53000000D01*
X123285010Y-54525010D02*
X122160000Y-53400000D01*
X125676014Y-54525010D02*
X123285010Y-54525010D01*
X131440000Y-60288996D02*
X125676014Y-54525010D01*
X131440000Y-61345000D02*
X131440000Y-60288996D01*
X117080000Y-60220000D02*
X117080000Y-60620000D01*
X119855001Y-57444999D02*
X117080000Y-60220000D01*
X126056003Y-57444999D02*
X119855001Y-57444999D01*
X128475858Y-59864854D02*
X126056003Y-57444999D01*
X128475858Y-62495858D02*
X128475858Y-59864854D01*
X171020000Y-61180000D02*
X171580000Y-60620000D01*
X171020000Y-65695010D02*
X171020000Y-61180000D01*
X112000000Y-51550000D02*
X112000000Y-48030000D01*
X112000000Y-53000000D02*
X112000000Y-51550000D01*
X124700000Y-48300000D02*
X125000000Y-48000000D01*
X124700000Y-53000000D02*
X124700000Y-48300000D01*
X179200000Y-49300000D02*
X179500000Y-49000000D01*
X179200000Y-53000000D02*
X179200000Y-49300000D01*
X189120000Y-60620000D02*
X189500000Y-61000000D01*
X184280000Y-60620000D02*
X189120000Y-60620000D01*
X119620000Y-60620000D02*
X119620000Y-61020000D01*
X123233512Y-64633512D02*
X146096488Y-64633512D01*
X119620000Y-61020000D02*
X123233512Y-64633512D01*
D25*
G36*
X125243783Y-30868242D02*
X124868242Y-31243783D01*
X124665000Y-31734452D01*
X124665000Y-32265548D01*
X124789037Y-32565000D01*
X120551783Y-32565000D01*
X120440000Y-32542765D01*
X120006089Y-32629075D01*
X119997145Y-32630854D01*
X119621711Y-32881711D01*
X119558389Y-32976479D01*
X118489994Y-34044875D01*
X117941073Y-34154062D01*
X117486888Y-34457538D01*
X117438327Y-34340301D01*
X117259698Y-34161673D01*
X117026309Y-34065000D01*
X116285750Y-34065000D01*
X116127000Y-34223750D01*
X116127000Y-35873000D01*
X116147000Y-35873000D01*
X116147000Y-36127000D01*
X116127000Y-36127000D01*
X116127000Y-37776250D01*
X116285750Y-37935000D01*
X117026309Y-37935000D01*
X117259698Y-37838327D01*
X117438327Y-37659699D01*
X117486889Y-37542461D01*
X117941074Y-37845938D01*
X118540000Y-37965072D01*
X119138927Y-37845938D01*
X119646673Y-37506673D01*
X119810000Y-37262236D01*
X119973328Y-37506673D01*
X120481074Y-37845938D01*
X121080000Y-37965072D01*
X121678927Y-37845938D01*
X122186673Y-37506673D01*
X122350000Y-37262236D01*
X122513328Y-37506673D01*
X123021074Y-37845938D01*
X123620000Y-37965072D01*
X124218927Y-37845938D01*
X124726673Y-37506673D01*
X124890000Y-37262236D01*
X125053328Y-37506673D01*
X125561074Y-37845938D01*
X126160000Y-37965072D01*
X126758927Y-37845938D01*
X127266673Y-37506673D01*
X127430000Y-37262236D01*
X127593328Y-37506673D01*
X128101074Y-37845938D01*
X128700000Y-37965072D01*
X129298927Y-37845938D01*
X129806673Y-37506673D01*
X129970000Y-37262236D01*
X130133328Y-37506673D01*
X130641074Y-37845938D01*
X131240000Y-37965072D01*
X131838927Y-37845938D01*
X132346673Y-37506673D01*
X132510000Y-37262236D01*
X132673328Y-37506673D01*
X133181074Y-37845938D01*
X133780000Y-37965072D01*
X134378927Y-37845938D01*
X134886673Y-37506673D01*
X135050000Y-37262236D01*
X135213328Y-37506673D01*
X135721074Y-37845938D01*
X136320000Y-37965072D01*
X136918927Y-37845938D01*
X137426673Y-37506673D01*
X137590000Y-37262236D01*
X137753328Y-37506673D01*
X138261074Y-37845938D01*
X138860000Y-37965072D01*
X139458927Y-37845938D01*
X139966673Y-37506673D01*
X140130000Y-37262236D01*
X140293328Y-37506673D01*
X140801074Y-37845938D01*
X141400000Y-37965072D01*
X141998927Y-37845938D01*
X142506673Y-37506673D01*
X142670000Y-37262236D01*
X142833328Y-37506673D01*
X143341074Y-37845938D01*
X143940000Y-37965072D01*
X144538927Y-37845938D01*
X145046673Y-37506673D01*
X145210000Y-37262236D01*
X145373328Y-37506673D01*
X145881074Y-37845938D01*
X146480000Y-37965072D01*
X147078927Y-37845938D01*
X147586673Y-37506673D01*
X147750000Y-37262236D01*
X147913328Y-37506673D01*
X148421074Y-37845938D01*
X149020000Y-37965072D01*
X149618927Y-37845938D01*
X150126673Y-37506673D01*
X150290000Y-37262236D01*
X150453328Y-37506673D01*
X150961074Y-37845938D01*
X151560000Y-37965072D01*
X152158927Y-37845938D01*
X152666673Y-37506673D01*
X152841703Y-37244723D01*
X153104394Y-37575212D01*
X153629914Y-37866756D01*
X153735260Y-37891036D01*
X153973000Y-37770378D01*
X153973000Y-36127000D01*
X153953000Y-36127000D01*
X153953000Y-35873000D01*
X153973000Y-35873000D01*
X153973000Y-35853000D01*
X154227000Y-35853000D01*
X154227000Y-35873000D01*
X154247000Y-35873000D01*
X154247000Y-36127000D01*
X154227000Y-36127000D01*
X154227000Y-37770378D01*
X154464740Y-37891036D01*
X154570086Y-37866756D01*
X155095606Y-37575212D01*
X155469554Y-37104752D01*
X155635000Y-36527000D01*
X155635000Y-36477376D01*
X158134824Y-38977201D01*
X157868242Y-39243783D01*
X157665000Y-39734452D01*
X157665000Y-40265548D01*
X157868242Y-40756217D01*
X158243783Y-41131758D01*
X158734452Y-41335000D01*
X159115000Y-41335000D01*
X159114999Y-42542598D01*
X158820582Y-42601161D01*
X158329375Y-42929375D01*
X158130000Y-43227761D01*
X157930625Y-42929375D01*
X157439418Y-42601161D01*
X157006256Y-42515000D01*
X156713744Y-42515000D01*
X156280582Y-42601161D01*
X155789375Y-42929375D01*
X155590000Y-43227761D01*
X155390625Y-42929375D01*
X154899418Y-42601161D01*
X154466256Y-42515000D01*
X154173744Y-42515000D01*
X153953592Y-42558791D01*
X152348409Y-40953608D01*
X152637542Y-40520891D01*
X152741154Y-40000000D01*
X152637542Y-39479109D01*
X152342481Y-39037519D01*
X151900891Y-38742458D01*
X151511485Y-38665000D01*
X151248515Y-38665000D01*
X150859109Y-38742458D01*
X150417519Y-39037519D01*
X150122458Y-39479109D01*
X150018846Y-40000000D01*
X150122458Y-40520891D01*
X150205386Y-40645001D01*
X126252152Y-40645001D01*
X126170206Y-40507000D01*
X125127000Y-40507000D01*
X125127000Y-40527000D01*
X124873000Y-40527000D01*
X124873000Y-40507000D01*
X123829794Y-40507000D01*
X123707273Y-40713331D01*
X123842986Y-40995211D01*
X115470518Y-49367681D01*
X115407062Y-49410081D01*
X115364662Y-49473537D01*
X115364661Y-49473538D01*
X115239087Y-49661473D01*
X115180102Y-49958010D01*
X115194991Y-50032862D01*
X115194991Y-51311792D01*
X115099909Y-51248260D01*
X114540000Y-51136887D01*
X113980092Y-51248260D01*
X113505424Y-51565423D01*
X113424785Y-51686107D01*
X113398157Y-51552235D01*
X113257809Y-51342191D01*
X113047765Y-51201843D01*
X112800000Y-51152560D01*
X112760000Y-51152560D01*
X112760000Y-49157975D01*
X113131758Y-48786217D01*
X113335000Y-48295548D01*
X113335000Y-47764452D01*
X113131758Y-47273783D01*
X112756217Y-46898242D01*
X112265548Y-46695000D01*
X111734452Y-46695000D01*
X111243783Y-46898242D01*
X110868242Y-47273783D01*
X110665000Y-47764452D01*
X110665000Y-48295548D01*
X110868242Y-48786217D01*
X111240001Y-49157976D01*
X111240000Y-51152560D01*
X111200000Y-51152560D01*
X110952235Y-51201843D01*
X110742191Y-51342191D01*
X110601843Y-51552235D01*
X110552560Y-51800000D01*
X110552560Y-54200000D01*
X110601843Y-54447765D01*
X110742191Y-54657809D01*
X110952235Y-54798157D01*
X111200000Y-54847440D01*
X112800000Y-54847440D01*
X113047765Y-54798157D01*
X113257809Y-54657809D01*
X113398157Y-54447765D01*
X113424785Y-54313893D01*
X113505423Y-54434576D01*
X113980091Y-54751740D01*
X114540000Y-54863113D01*
X115099908Y-54751740D01*
X115194990Y-54688208D01*
X115194990Y-57440208D01*
X114055528Y-58579671D01*
X113992072Y-58622071D01*
X113949672Y-58685527D01*
X113949671Y-58685528D01*
X113824097Y-58873463D01*
X113801379Y-58987672D01*
X113505424Y-59185423D01*
X113270000Y-59537759D01*
X113034577Y-59185423D01*
X112559909Y-58868260D01*
X112000000Y-58756887D01*
X111440092Y-58868260D01*
X110965424Y-59185423D01*
X110648260Y-59660091D01*
X110565000Y-60078667D01*
X110565000Y-61161332D01*
X110648260Y-61579908D01*
X110965423Y-62054576D01*
X111440091Y-62371740D01*
X112000000Y-62483113D01*
X112559908Y-62371740D01*
X113034576Y-62054577D01*
X113270000Y-61702241D01*
X113505423Y-62054576D01*
X113980091Y-62371740D01*
X114540000Y-62483113D01*
X115099908Y-62371740D01*
X115574576Y-62054577D01*
X115810000Y-61702241D01*
X116045423Y-62054576D01*
X116520091Y-62371740D01*
X117080000Y-62483113D01*
X117639908Y-62371740D01*
X118114576Y-62054577D01*
X118350000Y-61702241D01*
X118585423Y-62054576D01*
X119060091Y-62371740D01*
X119620000Y-62483113D01*
X119943887Y-62418688D01*
X122643183Y-65117985D01*
X122685583Y-65181441D01*
X122749039Y-65223841D01*
X122936974Y-65349416D01*
X122985117Y-65358992D01*
X123158660Y-65393512D01*
X123158664Y-65393512D01*
X123233512Y-65408400D01*
X123308360Y-65393512D01*
X145392777Y-65393512D01*
X145510208Y-65510943D01*
X145890614Y-65668512D01*
X146302362Y-65668512D01*
X146682768Y-65510943D01*
X146973919Y-65219792D01*
X147131488Y-64839386D01*
X147131488Y-64427638D01*
X146973919Y-64047232D01*
X146682768Y-63756081D01*
X146302362Y-63598512D01*
X145890614Y-63598512D01*
X145510208Y-63756081D01*
X145392777Y-63873512D01*
X129123511Y-63873512D01*
X129123511Y-63702637D01*
X128998081Y-63399822D01*
X129062138Y-63373289D01*
X129353289Y-63082138D01*
X129510858Y-62701732D01*
X129510858Y-62429577D01*
X129780000Y-62483113D01*
X130339908Y-62371740D01*
X130532945Y-62242757D01*
X130477258Y-62377198D01*
X130477258Y-62788946D01*
X130634827Y-63169352D01*
X130925978Y-63460503D01*
X131306384Y-63618072D01*
X131718132Y-63618072D01*
X132098538Y-63460503D01*
X132389689Y-63169352D01*
X132547258Y-62788946D01*
X132547258Y-62622874D01*
X132649474Y-62520658D01*
X132712930Y-62478258D01*
X132880905Y-62226866D01*
X132925001Y-62005181D01*
X132925001Y-62005177D01*
X132939889Y-61930330D01*
X132925001Y-61855483D01*
X132925001Y-60734452D01*
X133665000Y-60734452D01*
X133665000Y-61265548D01*
X133868242Y-61756217D01*
X134243783Y-62131758D01*
X134734452Y-62335000D01*
X135265548Y-62335000D01*
X135756217Y-62131758D01*
X136131758Y-61756217D01*
X136335000Y-61265548D01*
X136335000Y-60734452D01*
X136131758Y-60243783D01*
X135756217Y-59868242D01*
X135265548Y-59665000D01*
X134734452Y-59665000D01*
X134243783Y-59868242D01*
X133868242Y-60243783D01*
X133665000Y-60734452D01*
X132925001Y-60734452D01*
X132925001Y-60063539D01*
X132939889Y-59988691D01*
X132925001Y-59913843D01*
X132925001Y-59913839D01*
X132880905Y-59692154D01*
X132880905Y-59692153D01*
X132755330Y-59504218D01*
X132712930Y-59440762D01*
X132649474Y-59398362D01*
X128838155Y-55587044D01*
X128838155Y-55420971D01*
X128680586Y-55040565D01*
X128389435Y-54749414D01*
X128027659Y-54599562D01*
X128274576Y-54434577D01*
X128512499Y-54078501D01*
X128855104Y-54504500D01*
X129348181Y-54774367D01*
X129430961Y-54791904D01*
X129653000Y-54669915D01*
X129653000Y-53127000D01*
X129907000Y-53127000D01*
X129907000Y-54669915D01*
X130129039Y-54791904D01*
X130211819Y-54774367D01*
X130704896Y-54504500D01*
X131057166Y-54066483D01*
X131215000Y-53527000D01*
X131215000Y-53380000D01*
X133638846Y-53380000D01*
X133742458Y-53900891D01*
X134037519Y-54342481D01*
X134479109Y-54637542D01*
X134868515Y-54715000D01*
X135131485Y-54715000D01*
X135520891Y-54637542D01*
X135962481Y-54342481D01*
X136257542Y-53900891D01*
X136361154Y-53380000D01*
X136257542Y-52859109D01*
X135962481Y-52417519D01*
X135520891Y-52122458D01*
X135131485Y-52045000D01*
X134868515Y-52045000D01*
X134479109Y-52122458D01*
X134037519Y-52417519D01*
X133742458Y-52859109D01*
X133638846Y-53380000D01*
X131215000Y-53380000D01*
X131215000Y-53127000D01*
X129907000Y-53127000D01*
X129653000Y-53127000D01*
X129633000Y-53127000D01*
X129633000Y-52873000D01*
X129653000Y-52873000D01*
X129653000Y-51330085D01*
X129907000Y-51330085D01*
X129907000Y-52873000D01*
X131215000Y-52873000D01*
X131215000Y-52473000D01*
X131057166Y-51933517D01*
X130704896Y-51495500D01*
X130211819Y-51225633D01*
X130129039Y-51208096D01*
X129907000Y-51330085D01*
X129653000Y-51330085D01*
X129430961Y-51208096D01*
X129348181Y-51225633D01*
X128855104Y-51495500D01*
X128512499Y-51921499D01*
X128274577Y-51565423D01*
X128000000Y-51381957D01*
X128000000Y-48524801D01*
X132515000Y-44009802D01*
X132515000Y-44127002D01*
X132673748Y-44127002D01*
X132515000Y-44285750D01*
X132515000Y-44976309D01*
X132611673Y-45209698D01*
X132790301Y-45388327D01*
X133023690Y-45485000D01*
X133714250Y-45485000D01*
X133873000Y-45326250D01*
X133873000Y-44127000D01*
X133853000Y-44127000D01*
X133853000Y-43873000D01*
X133873000Y-43873000D01*
X133873000Y-43853000D01*
X134127000Y-43853000D01*
X134127000Y-43873000D01*
X134147000Y-43873000D01*
X134147000Y-44127000D01*
X134127000Y-44127000D01*
X134127000Y-45326250D01*
X134285750Y-45485000D01*
X134976310Y-45485000D01*
X135209699Y-45388327D01*
X135388327Y-45209698D01*
X135454904Y-45048967D01*
X135469375Y-45070625D01*
X135960582Y-45398839D01*
X136393744Y-45485000D01*
X136686256Y-45485000D01*
X137119418Y-45398839D01*
X137610625Y-45070625D01*
X137810000Y-44772239D01*
X138009375Y-45070625D01*
X138500582Y-45398839D01*
X138933744Y-45485000D01*
X139226256Y-45485000D01*
X139659418Y-45398839D01*
X140150625Y-45070625D01*
X140350000Y-44772239D01*
X140549375Y-45070625D01*
X141040582Y-45398839D01*
X141473744Y-45485000D01*
X141766256Y-45485000D01*
X142199418Y-45398839D01*
X142690625Y-45070625D01*
X142890000Y-44772239D01*
X143089375Y-45070625D01*
X143580582Y-45398839D01*
X144013744Y-45485000D01*
X144306256Y-45485000D01*
X144739418Y-45398839D01*
X145230625Y-45070625D01*
X145430000Y-44772239D01*
X145629375Y-45070625D01*
X146120582Y-45398839D01*
X146553744Y-45485000D01*
X146846256Y-45485000D01*
X147279418Y-45398839D01*
X147770625Y-45070625D01*
X147970000Y-44772239D01*
X148169375Y-45070625D01*
X148660582Y-45398839D01*
X149093744Y-45485000D01*
X149386256Y-45485000D01*
X149819418Y-45398839D01*
X150310625Y-45070625D01*
X150510000Y-44772239D01*
X150709375Y-45070625D01*
X151200582Y-45398839D01*
X151633744Y-45485000D01*
X151926256Y-45485000D01*
X152359418Y-45398839D01*
X152850625Y-45070625D01*
X153050000Y-44772239D01*
X153249375Y-45070625D01*
X153740582Y-45398839D01*
X154173744Y-45485000D01*
X154466256Y-45485000D01*
X154899418Y-45398839D01*
X155390625Y-45070625D01*
X155590000Y-44772239D01*
X155789375Y-45070625D01*
X156280582Y-45398839D01*
X156713744Y-45485000D01*
X157006256Y-45485000D01*
X157226408Y-45441209D01*
X161989670Y-50204472D01*
X162032071Y-50267929D01*
X162283463Y-50435904D01*
X162505148Y-50480000D01*
X162505152Y-50480000D01*
X162580000Y-50494888D01*
X162654848Y-50480000D01*
X172516203Y-50480000D01*
X173394864Y-51358662D01*
X173085424Y-51565423D01*
X172850000Y-51917759D01*
X172614577Y-51565423D01*
X172139909Y-51248260D01*
X171580000Y-51136887D01*
X171020092Y-51248260D01*
X170545424Y-51565423D01*
X170310000Y-51917759D01*
X170074577Y-51565423D01*
X169599909Y-51248260D01*
X169040000Y-51136887D01*
X168480092Y-51248260D01*
X168005424Y-51565423D01*
X167924785Y-51686107D01*
X167898157Y-51552235D01*
X167757809Y-51342191D01*
X167547765Y-51201843D01*
X167300000Y-51152560D01*
X165700000Y-51152560D01*
X165452235Y-51201843D01*
X165242191Y-51342191D01*
X165101843Y-51552235D01*
X165052560Y-51800000D01*
X165052560Y-54200000D01*
X165101843Y-54447765D01*
X165242191Y-54657809D01*
X165452235Y-54798157D01*
X165700000Y-54847440D01*
X167300000Y-54847440D01*
X167547765Y-54798157D01*
X167757809Y-54657809D01*
X167898157Y-54447765D01*
X167924785Y-54313893D01*
X168005423Y-54434576D01*
X168480091Y-54751740D01*
X169040000Y-54863113D01*
X169599908Y-54751740D01*
X170074576Y-54434577D01*
X170310000Y-54082241D01*
X170545423Y-54434576D01*
X171020091Y-54751740D01*
X171580000Y-54863113D01*
X172139908Y-54751740D01*
X172614576Y-54434577D01*
X172850000Y-54082241D01*
X173085423Y-54434576D01*
X173560091Y-54751740D01*
X174120000Y-54863113D01*
X174485011Y-54790508D01*
X174485010Y-57730187D01*
X173635527Y-58579671D01*
X173572072Y-58622071D01*
X173529672Y-58685527D01*
X173529671Y-58685528D01*
X173404097Y-58873463D01*
X173381379Y-58987672D01*
X173085424Y-59185423D01*
X172850000Y-59537759D01*
X172614577Y-59185423D01*
X172139909Y-58868260D01*
X171580000Y-58756887D01*
X171020092Y-58868260D01*
X170545424Y-59185423D01*
X170310000Y-59537759D01*
X170074577Y-59185423D01*
X169599909Y-58868260D01*
X169040000Y-58756887D01*
X168480092Y-58868260D01*
X168005424Y-59185423D01*
X167770000Y-59537759D01*
X167534577Y-59185423D01*
X167059909Y-58868260D01*
X166500000Y-58756887D01*
X165940092Y-58868260D01*
X165465424Y-59185423D01*
X165148260Y-59660091D01*
X165065000Y-60078667D01*
X165065000Y-61161332D01*
X165148260Y-61579908D01*
X165465423Y-62054576D01*
X165940091Y-62371740D01*
X166500000Y-62483113D01*
X167059908Y-62371740D01*
X167534576Y-62054577D01*
X167770000Y-61702241D01*
X168005423Y-62054576D01*
X168480091Y-62371740D01*
X169040000Y-62483113D01*
X169599908Y-62371740D01*
X170074576Y-62054577D01*
X170260001Y-61777070D01*
X170260000Y-64991299D01*
X170142569Y-65108730D01*
X169985000Y-65489136D01*
X169985000Y-65900884D01*
X170142569Y-66281290D01*
X170433720Y-66572441D01*
X170814126Y-66730010D01*
X171225874Y-66730010D01*
X171597634Y-66576022D01*
X183364480Y-66576022D01*
X183364480Y-67425378D01*
X183689514Y-68210080D01*
X184290100Y-68810666D01*
X185074802Y-69135700D01*
X185924158Y-69135700D01*
X186708860Y-68810666D01*
X187309446Y-68210080D01*
X187634480Y-67425378D01*
X187634480Y-66576022D01*
X187309446Y-65791320D01*
X186708860Y-65190734D01*
X185924158Y-64865700D01*
X185074802Y-64865700D01*
X184290100Y-65190734D01*
X183689514Y-65791320D01*
X183364480Y-66576022D01*
X171597634Y-66576022D01*
X171606280Y-66572441D01*
X171897431Y-66281290D01*
X172055000Y-65900884D01*
X172055000Y-65489136D01*
X171897431Y-65108730D01*
X171780000Y-64991299D01*
X171780000Y-62443330D01*
X172139908Y-62371740D01*
X172614576Y-62054577D01*
X172850000Y-61702241D01*
X173085423Y-62054576D01*
X173560091Y-62371740D01*
X174120000Y-62483113D01*
X174679908Y-62371740D01*
X175154576Y-62054577D01*
X175390000Y-61702241D01*
X175625423Y-62054576D01*
X176100091Y-62371740D01*
X176660000Y-62483113D01*
X177219908Y-62371740D01*
X177694576Y-62054577D01*
X177930000Y-61702241D01*
X178165423Y-62054576D01*
X178640091Y-62371740D01*
X179200000Y-62483113D01*
X179759908Y-62371740D01*
X180234576Y-62054577D01*
X180470000Y-61702241D01*
X180705423Y-62054576D01*
X181180091Y-62371740D01*
X181740000Y-62483113D01*
X182299908Y-62371740D01*
X182774576Y-62054577D01*
X183010000Y-61702241D01*
X183245423Y-62054576D01*
X183720091Y-62371740D01*
X184280000Y-62483113D01*
X184839908Y-62371740D01*
X185314576Y-62054577D01*
X185631740Y-61579909D01*
X185671504Y-61380000D01*
X188212408Y-61380000D01*
X188368242Y-61756217D01*
X188743783Y-62131758D01*
X189234452Y-62335000D01*
X189765002Y-62335000D01*
X189765002Y-66629866D01*
X182376481Y-74018388D01*
X182376475Y-74018392D01*
X182129867Y-74265000D01*
X181654887Y-74265000D01*
X181017201Y-74529138D01*
X180681339Y-74865000D01*
X162318661Y-74865000D01*
X161982799Y-74529138D01*
X161345113Y-74265000D01*
X160654887Y-74265000D01*
X160017201Y-74529138D01*
X159681339Y-74865000D01*
X141318661Y-74865000D01*
X140982799Y-74529138D01*
X140345113Y-74265000D01*
X139654887Y-74265000D01*
X139017201Y-74529138D01*
X138681339Y-74865000D01*
X120318661Y-74865000D01*
X119982799Y-74529138D01*
X119345113Y-74265000D01*
X118654887Y-74265000D01*
X118017201Y-74529138D01*
X117529138Y-75017201D01*
X117265000Y-75654887D01*
X117265000Y-76345113D01*
X117529138Y-76982799D01*
X117865000Y-77318661D01*
X117865001Y-78809867D01*
X116984134Y-78445000D01*
X115935866Y-78445000D01*
X114967392Y-78846155D01*
X114226155Y-79587392D01*
X113825000Y-80555866D01*
X113825000Y-81604134D01*
X114226155Y-82572608D01*
X114967392Y-83313845D01*
X115935866Y-83715000D01*
X116984134Y-83715000D01*
X117952608Y-83313845D01*
X118025001Y-83241452D01*
X118025002Y-94860609D01*
X117930855Y-95001511D01*
X117930854Y-95001512D01*
X117842765Y-95444366D01*
X117865000Y-95556149D01*
X117865000Y-95681339D01*
X117529138Y-96017201D01*
X117265000Y-96654887D01*
X117265000Y-97345113D01*
X117529138Y-97982799D01*
X117865000Y-98318661D01*
X117865001Y-99809867D01*
X116984134Y-99445000D01*
X115935866Y-99445000D01*
X114967392Y-99846155D01*
X114226155Y-100587392D01*
X113825000Y-101555866D01*
X113825000Y-102604134D01*
X114226155Y-103572608D01*
X114967392Y-104313845D01*
X115935866Y-104715000D01*
X116984134Y-104715000D01*
X117952608Y-104313845D01*
X118025001Y-104241452D01*
X118025002Y-115860609D01*
X117930855Y-116001511D01*
X117930854Y-116001512D01*
X117842765Y-116444366D01*
X117865000Y-116556149D01*
X117865000Y-116681339D01*
X117529138Y-117017201D01*
X117265000Y-117654887D01*
X117265000Y-118345113D01*
X117529138Y-118982799D01*
X117865000Y-119318661D01*
X117865000Y-119443851D01*
X117842765Y-119555634D01*
X117930854Y-119998488D01*
X117930855Y-119998489D01*
X118025001Y-120139388D01*
X118025001Y-120918548D01*
X117952608Y-120846155D01*
X116984134Y-120445000D01*
X115935866Y-120445000D01*
X114967392Y-120846155D01*
X114226155Y-121587392D01*
X113825000Y-122555866D01*
X113825000Y-123604134D01*
X114226155Y-124572608D01*
X114967392Y-125313845D01*
X115935866Y-125715000D01*
X116984134Y-125715000D01*
X117952608Y-125313845D01*
X118025001Y-125241452D01*
X118025002Y-136860609D01*
X117930855Y-137001511D01*
X117930854Y-137001512D01*
X117842765Y-137444366D01*
X117865000Y-137556149D01*
X117865000Y-137681339D01*
X117529138Y-138017201D01*
X117265000Y-138654887D01*
X117265000Y-139345113D01*
X117529138Y-139982799D01*
X118017201Y-140470862D01*
X118654887Y-140735000D01*
X119345113Y-140735000D01*
X119982799Y-140470862D01*
X120318661Y-140135000D01*
X132601339Y-140135000D01*
X132179138Y-140557201D01*
X131915000Y-141194887D01*
X131915000Y-141885113D01*
X132179138Y-142522799D01*
X132251339Y-142595000D01*
X132084615Y-142595000D01*
X131538815Y-142821078D01*
X131121078Y-143238815D01*
X130895000Y-143784615D01*
X130895000Y-144375385D01*
X131121078Y-144921185D01*
X131538815Y-145338922D01*
X132084615Y-145565000D01*
X132675385Y-145565000D01*
X133221185Y-145338922D01*
X133638922Y-144921185D01*
X133865000Y-144375385D01*
X133865000Y-143784615D01*
X133770249Y-143555866D01*
X134825000Y-143555866D01*
X134825000Y-144604134D01*
X135226155Y-145572608D01*
X135967392Y-146313845D01*
X136935866Y-146715000D01*
X137984134Y-146715000D01*
X138952608Y-146313845D01*
X139693845Y-145572608D01*
X140095000Y-144604134D01*
X140095000Y-143784615D01*
X141055000Y-143784615D01*
X141055000Y-144375385D01*
X141281078Y-144921185D01*
X141698815Y-145338922D01*
X142244615Y-145565000D01*
X142835385Y-145565000D01*
X143381185Y-145338922D01*
X143798922Y-144921185D01*
X144025000Y-144375385D01*
X144025000Y-143784615D01*
X143798922Y-143238815D01*
X143381185Y-142821078D01*
X142835385Y-142595000D01*
X142244615Y-142595000D01*
X141698815Y-142821078D01*
X141281078Y-143238815D01*
X141055000Y-143784615D01*
X140095000Y-143784615D01*
X140095000Y-143555866D01*
X139693845Y-142587392D01*
X138952608Y-141846155D01*
X137984134Y-141445000D01*
X136935866Y-141445000D01*
X135967392Y-141846155D01*
X135226155Y-142587392D01*
X134825000Y-143555866D01*
X133770249Y-143555866D01*
X133653910Y-143275000D01*
X133995113Y-143275000D01*
X134632799Y-143010862D01*
X135120862Y-142522799D01*
X135385000Y-141885113D01*
X135385000Y-141194887D01*
X135120862Y-140557201D01*
X134698661Y-140135000D01*
X138681339Y-140135000D01*
X139017201Y-140470862D01*
X139654887Y-140735000D01*
X140345113Y-140735000D01*
X140982799Y-140470862D01*
X141318661Y-140135000D01*
X153601339Y-140135000D01*
X153179138Y-140557201D01*
X152915000Y-141194887D01*
X152915000Y-141885113D01*
X153179138Y-142522799D01*
X153251339Y-142595000D01*
X153084615Y-142595000D01*
X152538815Y-142821078D01*
X152121078Y-143238815D01*
X151895000Y-143784615D01*
X151895000Y-144375385D01*
X152121078Y-144921185D01*
X152538815Y-145338922D01*
X153084615Y-145565000D01*
X153675385Y-145565000D01*
X154221185Y-145338922D01*
X154638922Y-144921185D01*
X154865000Y-144375385D01*
X154865000Y-143784615D01*
X154770249Y-143555866D01*
X155825000Y-143555866D01*
X155825000Y-144604134D01*
X156226155Y-145572608D01*
X156967392Y-146313845D01*
X157935866Y-146715000D01*
X158984134Y-146715000D01*
X159952608Y-146313845D01*
X160693845Y-145572608D01*
X161095000Y-144604134D01*
X161095000Y-143784615D01*
X162055000Y-143784615D01*
X162055000Y-144375385D01*
X162281078Y-144921185D01*
X162698815Y-145338922D01*
X163244615Y-145565000D01*
X163835385Y-145565000D01*
X164381185Y-145338922D01*
X164798922Y-144921185D01*
X165025000Y-144375385D01*
X165025000Y-143784615D01*
X164798922Y-143238815D01*
X164381185Y-142821078D01*
X163835385Y-142595000D01*
X163244615Y-142595000D01*
X162698815Y-142821078D01*
X162281078Y-143238815D01*
X162055000Y-143784615D01*
X161095000Y-143784615D01*
X161095000Y-143555866D01*
X160693845Y-142587392D01*
X159952608Y-141846155D01*
X158984134Y-141445000D01*
X157935866Y-141445000D01*
X156967392Y-141846155D01*
X156226155Y-142587392D01*
X155825000Y-143555866D01*
X154770249Y-143555866D01*
X154653910Y-143275000D01*
X154995113Y-143275000D01*
X155632799Y-143010862D01*
X156120862Y-142522799D01*
X156385000Y-141885113D01*
X156385000Y-141194887D01*
X156120862Y-140557201D01*
X155698661Y-140135000D01*
X159681339Y-140135000D01*
X160017201Y-140470862D01*
X160654887Y-140735000D01*
X161345113Y-140735000D01*
X161982799Y-140470862D01*
X162318661Y-140135000D01*
X174601339Y-140135000D01*
X174179138Y-140557201D01*
X173915000Y-141194887D01*
X173915000Y-141885113D01*
X174179138Y-142522799D01*
X174251339Y-142595000D01*
X174084615Y-142595000D01*
X173538815Y-142821078D01*
X173121078Y-143238815D01*
X172895000Y-143784615D01*
X172895000Y-144375385D01*
X173121078Y-144921185D01*
X173538815Y-145338922D01*
X174084615Y-145565000D01*
X174675385Y-145565000D01*
X175221185Y-145338922D01*
X175638922Y-144921185D01*
X175865000Y-144375385D01*
X175865000Y-143784615D01*
X175770249Y-143555866D01*
X176825000Y-143555866D01*
X176825000Y-144604134D01*
X177226155Y-145572608D01*
X177967392Y-146313845D01*
X178935866Y-146715000D01*
X179984134Y-146715000D01*
X180952608Y-146313845D01*
X181693845Y-145572608D01*
X182095000Y-144604134D01*
X182095000Y-143784615D01*
X183055000Y-143784615D01*
X183055000Y-144375385D01*
X183281078Y-144921185D01*
X183698815Y-145338922D01*
X184244615Y-145565000D01*
X184835385Y-145565000D01*
X185381185Y-145338922D01*
X185798922Y-144921185D01*
X186025000Y-144375385D01*
X186025000Y-143784615D01*
X185798922Y-143238815D01*
X185381185Y-142821078D01*
X184835385Y-142595000D01*
X184244615Y-142595000D01*
X183698815Y-142821078D01*
X183281078Y-143238815D01*
X183055000Y-143784615D01*
X182095000Y-143784615D01*
X182095000Y-143555866D01*
X181693845Y-142587392D01*
X180952608Y-141846155D01*
X179984134Y-141445000D01*
X178935866Y-141445000D01*
X177967392Y-141846155D01*
X177226155Y-142587392D01*
X176825000Y-143555866D01*
X175770249Y-143555866D01*
X175653910Y-143275000D01*
X175995113Y-143275000D01*
X176632799Y-143010862D01*
X177120862Y-142522799D01*
X177385000Y-141885113D01*
X177385000Y-141194887D01*
X177120862Y-140557201D01*
X176698661Y-140135000D01*
X180681339Y-140135000D01*
X181017201Y-140470862D01*
X181654887Y-140735000D01*
X182345113Y-140735000D01*
X182982799Y-140470862D01*
X183470862Y-139982799D01*
X183735000Y-139345113D01*
X183735000Y-138654887D01*
X183470862Y-138017201D01*
X183209814Y-137756153D01*
X183229147Y-137727220D01*
X183295001Y-137396148D01*
X183317236Y-137284365D01*
X183295001Y-137172582D01*
X183295001Y-123935108D01*
X183698815Y-124338922D01*
X184244615Y-124565000D01*
X184835385Y-124565000D01*
X185381185Y-124338922D01*
X185798922Y-123921185D01*
X186025000Y-123375385D01*
X186025000Y-122784615D01*
X185798922Y-122238815D01*
X185381185Y-121821078D01*
X184835385Y-121595000D01*
X184244615Y-121595000D01*
X183698815Y-121821078D01*
X183295001Y-122224892D01*
X183295001Y-119827418D01*
X183317236Y-119715635D01*
X183229147Y-119272781D01*
X183229147Y-119272780D01*
X183209814Y-119243847D01*
X183470862Y-118982799D01*
X183735000Y-118345113D01*
X183735000Y-117654887D01*
X183470862Y-117017201D01*
X183209814Y-116756153D01*
X183229147Y-116727220D01*
X183295001Y-116396148D01*
X183317236Y-116284365D01*
X183295001Y-116172582D01*
X183295001Y-102935108D01*
X183698815Y-103338922D01*
X184244615Y-103565000D01*
X184835385Y-103565000D01*
X185381185Y-103338922D01*
X185798922Y-102921185D01*
X186025000Y-102375385D01*
X186025000Y-101784615D01*
X185798922Y-101238815D01*
X185381185Y-100821078D01*
X184835385Y-100595000D01*
X184244615Y-100595000D01*
X183698815Y-100821078D01*
X183295001Y-101224892D01*
X183295001Y-100895782D01*
X183317236Y-100783999D01*
X183279642Y-100595000D01*
X183229147Y-100341144D01*
X183135000Y-100200243D01*
X183135000Y-98318661D01*
X183470862Y-97982799D01*
X183735000Y-97345113D01*
X183735000Y-96654887D01*
X183470862Y-96017201D01*
X183209814Y-95756153D01*
X183229147Y-95727220D01*
X183295001Y-95396148D01*
X183317236Y-95284365D01*
X183295001Y-95172582D01*
X183295001Y-81935108D01*
X183698815Y-82338922D01*
X184244615Y-82565000D01*
X184835385Y-82565000D01*
X185381185Y-82338922D01*
X185798922Y-81921185D01*
X186025000Y-81375385D01*
X186025000Y-80784615D01*
X185798922Y-80238815D01*
X185381185Y-79821078D01*
X184835385Y-79595000D01*
X184244615Y-79595000D01*
X183698815Y-79821078D01*
X183295001Y-80224892D01*
X183295001Y-77827418D01*
X183317236Y-77715635D01*
X183229147Y-77272781D01*
X183229147Y-77272780D01*
X183209814Y-77243847D01*
X183470862Y-76982799D01*
X183735000Y-76345113D01*
X183735000Y-75870133D01*
X183981608Y-75623525D01*
X183981612Y-75623519D01*
X191315000Y-68290132D01*
X191315001Y-154496019D01*
X191222490Y-154263506D01*
X191144068Y-154146139D01*
X190534316Y-153645290D01*
X190034165Y-154145441D01*
X190034164Y-154145441D01*
X187179605Y-157000000D01*
X187193748Y-157014143D01*
X187014143Y-157193748D01*
X187000000Y-157179605D01*
X184145441Y-160034164D01*
X184145441Y-160034165D01*
X183645290Y-160534316D01*
X184146139Y-161144068D01*
X184542968Y-161315000D01*
X111503983Y-161315000D01*
X111736494Y-161222490D01*
X111853861Y-161144068D01*
X112354710Y-160534316D01*
X111854559Y-160034165D01*
X111854559Y-160034164D01*
X109000000Y-157179605D01*
X108985858Y-157193748D01*
X108806253Y-157014143D01*
X108820395Y-157000000D01*
X109179605Y-157000000D01*
X112034164Y-159854559D01*
X112034165Y-159854559D01*
X112534316Y-160354710D01*
X113144068Y-159853861D01*
X113920745Y-158050758D01*
X113922687Y-157912314D01*
X182051717Y-157912314D01*
X182777510Y-159736494D01*
X182855932Y-159853861D01*
X183465684Y-160354710D01*
X183965835Y-159854559D01*
X183965836Y-159854559D01*
X186820395Y-157000000D01*
X183965836Y-154145441D01*
X183965835Y-154145441D01*
X183465684Y-153645290D01*
X182855932Y-154146139D01*
X182079255Y-155949242D01*
X182051717Y-157912314D01*
X113922687Y-157912314D01*
X113948283Y-156087686D01*
X113222490Y-154263506D01*
X113144068Y-154146139D01*
X112534316Y-153645290D01*
X112034165Y-154145441D01*
X112034164Y-154145441D01*
X109179605Y-157000000D01*
X108820395Y-157000000D01*
X105965836Y-154145441D01*
X105965835Y-154145441D01*
X105465684Y-153645290D01*
X104855932Y-154146139D01*
X104685000Y-154542968D01*
X104685000Y-153465684D01*
X105645290Y-153465684D01*
X106145441Y-153965835D01*
X106145441Y-153965836D01*
X109000000Y-156820395D01*
X111854559Y-153965836D01*
X111854559Y-153965835D01*
X112354710Y-153465684D01*
X183645290Y-153465684D01*
X184145441Y-153965835D01*
X184145441Y-153965836D01*
X187000000Y-156820395D01*
X189854559Y-153965836D01*
X189854559Y-153965835D01*
X190354710Y-153465684D01*
X189853861Y-152855932D01*
X188050758Y-152079255D01*
X186087686Y-152051717D01*
X184263506Y-152777510D01*
X184146139Y-152855932D01*
X183645290Y-153465684D01*
X112354710Y-153465684D01*
X111853861Y-152855932D01*
X110050758Y-152079255D01*
X108087686Y-152051717D01*
X106263506Y-152777510D01*
X106146139Y-152855932D01*
X105645290Y-153465684D01*
X104685000Y-153465684D01*
X104685000Y-143784615D01*
X109895000Y-143784615D01*
X109895000Y-144375385D01*
X110121078Y-144921185D01*
X110538815Y-145338922D01*
X111084615Y-145565000D01*
X111675385Y-145565000D01*
X112221185Y-145338922D01*
X112638922Y-144921185D01*
X112865000Y-144375385D01*
X112865000Y-143784615D01*
X112770249Y-143555866D01*
X113825000Y-143555866D01*
X113825000Y-144604134D01*
X114226155Y-145572608D01*
X114967392Y-146313845D01*
X115935866Y-146715000D01*
X116984134Y-146715000D01*
X117952608Y-146313845D01*
X118693845Y-145572608D01*
X119095000Y-144604134D01*
X119095000Y-143784615D01*
X120055000Y-143784615D01*
X120055000Y-144375385D01*
X120281078Y-144921185D01*
X120698815Y-145338922D01*
X121244615Y-145565000D01*
X121835385Y-145565000D01*
X122381185Y-145338922D01*
X122798922Y-144921185D01*
X123025000Y-144375385D01*
X123025000Y-143784615D01*
X122798922Y-143238815D01*
X122381185Y-142821078D01*
X121835385Y-142595000D01*
X121244615Y-142595000D01*
X120698815Y-142821078D01*
X120281078Y-143238815D01*
X120055000Y-143784615D01*
X119095000Y-143784615D01*
X119095000Y-143555866D01*
X118693845Y-142587392D01*
X117952608Y-141846155D01*
X116984134Y-141445000D01*
X115935866Y-141445000D01*
X114967392Y-141846155D01*
X114226155Y-142587392D01*
X113825000Y-143555866D01*
X112770249Y-143555866D01*
X112653910Y-143275000D01*
X112995113Y-143275000D01*
X113632799Y-143010862D01*
X114120862Y-142522799D01*
X114385000Y-141885113D01*
X114385000Y-141194887D01*
X114120862Y-140557201D01*
X113632799Y-140069138D01*
X112995113Y-139805000D01*
X112304887Y-139805000D01*
X111667201Y-140069138D01*
X111179138Y-140557201D01*
X110915000Y-141194887D01*
X110915000Y-141885113D01*
X111179138Y-142522799D01*
X111251339Y-142595000D01*
X111084615Y-142595000D01*
X110538815Y-142821078D01*
X110121078Y-143238815D01*
X109895000Y-143784615D01*
X104685000Y-143784615D01*
X104685000Y-133734452D01*
X106665000Y-133734452D01*
X106665000Y-134265548D01*
X106868242Y-134756217D01*
X107243783Y-135131758D01*
X107734452Y-135335000D01*
X108265548Y-135335000D01*
X108756217Y-135131758D01*
X109131758Y-134756217D01*
X109306924Y-134333329D01*
X114327284Y-134333329D01*
X114470203Y-134678396D01*
X114817337Y-135066764D01*
X115286669Y-135292727D01*
X115493000Y-135170206D01*
X115493000Y-134127000D01*
X115747000Y-134127000D01*
X115747000Y-135170206D01*
X115953331Y-135292727D01*
X116422663Y-135066764D01*
X116769797Y-134678396D01*
X116912716Y-134333329D01*
X116789374Y-134127000D01*
X115747000Y-134127000D01*
X115493000Y-134127000D01*
X114450626Y-134127000D01*
X114327284Y-134333329D01*
X109306924Y-134333329D01*
X109335000Y-134265548D01*
X109335000Y-133734452D01*
X109306925Y-133666671D01*
X114327284Y-133666671D01*
X114450626Y-133873000D01*
X115493000Y-133873000D01*
X115493000Y-132829794D01*
X115747000Y-132829794D01*
X115747000Y-133873000D01*
X116789374Y-133873000D01*
X116912716Y-133666671D01*
X116769797Y-133321604D01*
X116422663Y-132933236D01*
X115953331Y-132707273D01*
X115747000Y-132829794D01*
X115493000Y-132829794D01*
X115286669Y-132707273D01*
X114817337Y-132933236D01*
X114470203Y-133321604D01*
X114327284Y-133666671D01*
X109306925Y-133666671D01*
X109131758Y-133243783D01*
X108756217Y-132868242D01*
X108265548Y-132665000D01*
X107734452Y-132665000D01*
X107243783Y-132868242D01*
X106868242Y-133243783D01*
X106665000Y-133734452D01*
X104685000Y-133734452D01*
X104685000Y-122784615D01*
X109895000Y-122784615D01*
X109895000Y-123375385D01*
X110121078Y-123921185D01*
X110538815Y-124338922D01*
X111084615Y-124565000D01*
X111675385Y-124565000D01*
X112221185Y-124338922D01*
X112638922Y-123921185D01*
X112865000Y-123375385D01*
X112865000Y-122784615D01*
X112653910Y-122275000D01*
X112995113Y-122275000D01*
X113632799Y-122010862D01*
X114120862Y-121522799D01*
X114385000Y-120885113D01*
X114385000Y-120194887D01*
X114120862Y-119557201D01*
X113632799Y-119069138D01*
X112995113Y-118805000D01*
X112304887Y-118805000D01*
X111667201Y-119069138D01*
X111179138Y-119557201D01*
X110915000Y-120194887D01*
X110915000Y-120885113D01*
X111179138Y-121522799D01*
X111251339Y-121595000D01*
X111084615Y-121595000D01*
X110538815Y-121821078D01*
X110121078Y-122238815D01*
X109895000Y-122784615D01*
X104685000Y-122784615D01*
X104685000Y-112734452D01*
X106665000Y-112734452D01*
X106665000Y-113265548D01*
X106868242Y-113756217D01*
X107243783Y-114131758D01*
X107734452Y-114335000D01*
X108265548Y-114335000D01*
X108756217Y-114131758D01*
X109131758Y-113756217D01*
X109306924Y-113333329D01*
X114327284Y-113333329D01*
X114470203Y-113678396D01*
X114817337Y-114066764D01*
X115286669Y-114292727D01*
X115493000Y-114170206D01*
X115493000Y-113127000D01*
X115747000Y-113127000D01*
X115747000Y-114170206D01*
X115953331Y-114292727D01*
X116422663Y-114066764D01*
X116769797Y-113678396D01*
X116912716Y-113333329D01*
X116789374Y-113127000D01*
X115747000Y-113127000D01*
X115493000Y-113127000D01*
X114450626Y-113127000D01*
X114327284Y-113333329D01*
X109306924Y-113333329D01*
X109335000Y-113265548D01*
X109335000Y-112734452D01*
X109306925Y-112666671D01*
X114327284Y-112666671D01*
X114450626Y-112873000D01*
X115493000Y-112873000D01*
X115493000Y-111829794D01*
X115747000Y-111829794D01*
X115747000Y-112873000D01*
X116789374Y-112873000D01*
X116912716Y-112666671D01*
X116769797Y-112321604D01*
X116422663Y-111933236D01*
X115953331Y-111707273D01*
X115747000Y-111829794D01*
X115493000Y-111829794D01*
X115286669Y-111707273D01*
X114817337Y-111933236D01*
X114470203Y-112321604D01*
X114327284Y-112666671D01*
X109306925Y-112666671D01*
X109131758Y-112243783D01*
X108756217Y-111868242D01*
X108265548Y-111665000D01*
X107734452Y-111665000D01*
X107243783Y-111868242D01*
X106868242Y-112243783D01*
X106665000Y-112734452D01*
X104685000Y-112734452D01*
X104685000Y-101784615D01*
X109895000Y-101784615D01*
X109895000Y-102375385D01*
X110121078Y-102921185D01*
X110538815Y-103338922D01*
X111084615Y-103565000D01*
X111675385Y-103565000D01*
X112221185Y-103338922D01*
X112638922Y-102921185D01*
X112865000Y-102375385D01*
X112865000Y-101784615D01*
X112653910Y-101275000D01*
X112995113Y-101275000D01*
X113632799Y-101010862D01*
X114120862Y-100522799D01*
X114385000Y-99885113D01*
X114385000Y-99194887D01*
X114120862Y-98557201D01*
X113632799Y-98069138D01*
X112995113Y-97805000D01*
X112304887Y-97805000D01*
X111667201Y-98069138D01*
X111179138Y-98557201D01*
X110915000Y-99194887D01*
X110915000Y-99885113D01*
X111179138Y-100522799D01*
X111251339Y-100595000D01*
X111084615Y-100595000D01*
X110538815Y-100821078D01*
X110121078Y-101238815D01*
X109895000Y-101784615D01*
X104685000Y-101784615D01*
X104685000Y-91734452D01*
X106665000Y-91734452D01*
X106665000Y-92265548D01*
X106868242Y-92756217D01*
X107243783Y-93131758D01*
X107734452Y-93335000D01*
X108265548Y-93335000D01*
X108756217Y-93131758D01*
X109131758Y-92756217D01*
X109306924Y-92333329D01*
X114327284Y-92333329D01*
X114470203Y-92678396D01*
X114817337Y-93066764D01*
X115286669Y-93292727D01*
X115493000Y-93170206D01*
X115493000Y-92127000D01*
X115747000Y-92127000D01*
X115747000Y-93170206D01*
X115953331Y-93292727D01*
X116422663Y-93066764D01*
X116769797Y-92678396D01*
X116912716Y-92333329D01*
X116789374Y-92127000D01*
X115747000Y-92127000D01*
X115493000Y-92127000D01*
X114450626Y-92127000D01*
X114327284Y-92333329D01*
X109306924Y-92333329D01*
X109335000Y-92265548D01*
X109335000Y-91734452D01*
X109306925Y-91666671D01*
X114327284Y-91666671D01*
X114450626Y-91873000D01*
X115493000Y-91873000D01*
X115493000Y-90829794D01*
X115747000Y-90829794D01*
X115747000Y-91873000D01*
X116789374Y-91873000D01*
X116912716Y-91666671D01*
X116769797Y-91321604D01*
X116422663Y-90933236D01*
X115953331Y-90707273D01*
X115747000Y-90829794D01*
X115493000Y-90829794D01*
X115286669Y-90707273D01*
X114817337Y-90933236D01*
X114470203Y-91321604D01*
X114327284Y-91666671D01*
X109306925Y-91666671D01*
X109131758Y-91243783D01*
X108756217Y-90868242D01*
X108265548Y-90665000D01*
X107734452Y-90665000D01*
X107243783Y-90868242D01*
X106868242Y-91243783D01*
X106665000Y-91734452D01*
X104685000Y-91734452D01*
X104685000Y-80784615D01*
X109895000Y-80784615D01*
X109895000Y-81375385D01*
X110121078Y-81921185D01*
X110538815Y-82338922D01*
X111084615Y-82565000D01*
X111675385Y-82565000D01*
X112221185Y-82338922D01*
X112638922Y-81921185D01*
X112865000Y-81375385D01*
X112865000Y-80784615D01*
X112653910Y-80275000D01*
X112995113Y-80275000D01*
X113632799Y-80010862D01*
X114120862Y-79522799D01*
X114385000Y-78885113D01*
X114385000Y-78194887D01*
X114120862Y-77557201D01*
X113632799Y-77069138D01*
X112995113Y-76805000D01*
X112304887Y-76805000D01*
X111667201Y-77069138D01*
X111179138Y-77557201D01*
X110915000Y-78194887D01*
X110915000Y-78885113D01*
X111179138Y-79522799D01*
X111251339Y-79595000D01*
X111084615Y-79595000D01*
X110538815Y-79821078D01*
X110121078Y-80238815D01*
X109895000Y-80784615D01*
X104685000Y-80784615D01*
X104685000Y-70734452D01*
X106665000Y-70734452D01*
X106665000Y-71265548D01*
X106868242Y-71756217D01*
X107243783Y-72131758D01*
X107734452Y-72335000D01*
X108265548Y-72335000D01*
X108756217Y-72131758D01*
X109131758Y-71756217D01*
X109306924Y-71333329D01*
X114327284Y-71333329D01*
X114470203Y-71678396D01*
X114817337Y-72066764D01*
X115286669Y-72292727D01*
X115493000Y-72170206D01*
X115493000Y-71127000D01*
X115747000Y-71127000D01*
X115747000Y-72170206D01*
X115953331Y-72292727D01*
X116422663Y-72066764D01*
X116769797Y-71678396D01*
X116912716Y-71333329D01*
X116789374Y-71127000D01*
X115747000Y-71127000D01*
X115493000Y-71127000D01*
X114450626Y-71127000D01*
X114327284Y-71333329D01*
X109306924Y-71333329D01*
X109335000Y-71265548D01*
X109335000Y-70734452D01*
X109306925Y-70666671D01*
X114327284Y-70666671D01*
X114450626Y-70873000D01*
X115493000Y-70873000D01*
X115493000Y-69829794D01*
X115747000Y-69829794D01*
X115747000Y-70873000D01*
X116789374Y-70873000D01*
X116872197Y-70734452D01*
X127665000Y-70734452D01*
X127665000Y-71265548D01*
X127868242Y-71756217D01*
X128243783Y-72131758D01*
X128734452Y-72335000D01*
X129265548Y-72335000D01*
X129756217Y-72131758D01*
X130131758Y-71756217D01*
X130306924Y-71333329D01*
X135327284Y-71333329D01*
X135470203Y-71678396D01*
X135817337Y-72066764D01*
X136286669Y-72292727D01*
X136493000Y-72170206D01*
X136493000Y-71127000D01*
X136747000Y-71127000D01*
X136747000Y-72170206D01*
X136953331Y-72292727D01*
X137422663Y-72066764D01*
X137769797Y-71678396D01*
X137912716Y-71333329D01*
X137789374Y-71127000D01*
X136747000Y-71127000D01*
X136493000Y-71127000D01*
X135450626Y-71127000D01*
X135327284Y-71333329D01*
X130306924Y-71333329D01*
X130335000Y-71265548D01*
X130335000Y-70734452D01*
X130306925Y-70666671D01*
X135327284Y-70666671D01*
X135450626Y-70873000D01*
X136493000Y-70873000D01*
X136493000Y-69829794D01*
X136747000Y-69829794D01*
X136747000Y-70873000D01*
X137789374Y-70873000D01*
X137872197Y-70734452D01*
X148665000Y-70734452D01*
X148665000Y-71265548D01*
X148868242Y-71756217D01*
X149243783Y-72131758D01*
X149734452Y-72335000D01*
X150265548Y-72335000D01*
X150756217Y-72131758D01*
X151131758Y-71756217D01*
X151306924Y-71333329D01*
X156327284Y-71333329D01*
X156470203Y-71678396D01*
X156817337Y-72066764D01*
X157286669Y-72292727D01*
X157493000Y-72170206D01*
X157493000Y-71127000D01*
X157747000Y-71127000D01*
X157747000Y-72170206D01*
X157953331Y-72292727D01*
X158422663Y-72066764D01*
X158769797Y-71678396D01*
X158912716Y-71333329D01*
X158789374Y-71127000D01*
X157747000Y-71127000D01*
X157493000Y-71127000D01*
X156450626Y-71127000D01*
X156327284Y-71333329D01*
X151306924Y-71333329D01*
X151335000Y-71265548D01*
X151335000Y-70734452D01*
X151306925Y-70666671D01*
X156327284Y-70666671D01*
X156450626Y-70873000D01*
X157493000Y-70873000D01*
X157493000Y-69829794D01*
X157747000Y-69829794D01*
X157747000Y-70873000D01*
X158789374Y-70873000D01*
X158872197Y-70734452D01*
X169665000Y-70734452D01*
X169665000Y-71265548D01*
X169868242Y-71756217D01*
X170243783Y-72131758D01*
X170734452Y-72335000D01*
X171265548Y-72335000D01*
X171756217Y-72131758D01*
X172131758Y-71756217D01*
X172306924Y-71333329D01*
X177327284Y-71333329D01*
X177470203Y-71678396D01*
X177817337Y-72066764D01*
X178286669Y-72292727D01*
X178493000Y-72170206D01*
X178493000Y-71127000D01*
X178747000Y-71127000D01*
X178747000Y-72170206D01*
X178953331Y-72292727D01*
X179422663Y-72066764D01*
X179769797Y-71678396D01*
X179912716Y-71333329D01*
X179789374Y-71127000D01*
X178747000Y-71127000D01*
X178493000Y-71127000D01*
X177450626Y-71127000D01*
X177327284Y-71333329D01*
X172306924Y-71333329D01*
X172335000Y-71265548D01*
X172335000Y-70734452D01*
X172306925Y-70666671D01*
X177327284Y-70666671D01*
X177450626Y-70873000D01*
X178493000Y-70873000D01*
X178493000Y-69829794D01*
X178747000Y-69829794D01*
X178747000Y-70873000D01*
X179789374Y-70873000D01*
X179912716Y-70666671D01*
X179769797Y-70321604D01*
X179422663Y-69933236D01*
X178953331Y-69707273D01*
X178747000Y-69829794D01*
X178493000Y-69829794D01*
X178286669Y-69707273D01*
X177817337Y-69933236D01*
X177470203Y-70321604D01*
X177327284Y-70666671D01*
X172306925Y-70666671D01*
X172131758Y-70243783D01*
X171756217Y-69868242D01*
X171265548Y-69665000D01*
X170734452Y-69665000D01*
X170243783Y-69868242D01*
X169868242Y-70243783D01*
X169665000Y-70734452D01*
X158872197Y-70734452D01*
X158912716Y-70666671D01*
X158769797Y-70321604D01*
X158422663Y-69933236D01*
X157953331Y-69707273D01*
X157747000Y-69829794D01*
X157493000Y-69829794D01*
X157286669Y-69707273D01*
X156817337Y-69933236D01*
X156470203Y-70321604D01*
X156327284Y-70666671D01*
X151306925Y-70666671D01*
X151131758Y-70243783D01*
X150756217Y-69868242D01*
X150265548Y-69665000D01*
X149734452Y-69665000D01*
X149243783Y-69868242D01*
X148868242Y-70243783D01*
X148665000Y-70734452D01*
X137872197Y-70734452D01*
X137912716Y-70666671D01*
X137769797Y-70321604D01*
X137422663Y-69933236D01*
X136953331Y-69707273D01*
X136747000Y-69829794D01*
X136493000Y-69829794D01*
X136286669Y-69707273D01*
X135817337Y-69933236D01*
X135470203Y-70321604D01*
X135327284Y-70666671D01*
X130306925Y-70666671D01*
X130131758Y-70243783D01*
X129756217Y-69868242D01*
X129265548Y-69665000D01*
X128734452Y-69665000D01*
X128243783Y-69868242D01*
X127868242Y-70243783D01*
X127665000Y-70734452D01*
X116872197Y-70734452D01*
X116912716Y-70666671D01*
X116769797Y-70321604D01*
X116422663Y-69933236D01*
X115953331Y-69707273D01*
X115747000Y-69829794D01*
X115493000Y-69829794D01*
X115286669Y-69707273D01*
X114817337Y-69933236D01*
X114470203Y-70321604D01*
X114327284Y-70666671D01*
X109306925Y-70666671D01*
X109131758Y-70243783D01*
X108756217Y-69868242D01*
X108265548Y-69665000D01*
X107734452Y-69665000D01*
X107243783Y-69868242D01*
X106868242Y-70243783D01*
X106665000Y-70734452D01*
X104685000Y-70734452D01*
X104685000Y-66576022D01*
X108365900Y-66576022D01*
X108365900Y-67425378D01*
X108690934Y-68210080D01*
X109291520Y-68810666D01*
X110076222Y-69135700D01*
X110925578Y-69135700D01*
X111710280Y-68810666D01*
X112310866Y-68210080D01*
X112635900Y-67425378D01*
X112635900Y-66576022D01*
X112310866Y-65791320D01*
X111710280Y-65190734D01*
X110925578Y-64865700D01*
X110076222Y-64865700D01*
X109291520Y-65190734D01*
X108690934Y-65791320D01*
X108365900Y-66576022D01*
X104685000Y-66576022D01*
X104685000Y-40046669D01*
X123707273Y-40046669D01*
X123829794Y-40253000D01*
X124873000Y-40253000D01*
X124873000Y-39210626D01*
X125127000Y-39210626D01*
X125127000Y-40253000D01*
X126170206Y-40253000D01*
X126292727Y-40046669D01*
X126066764Y-39577337D01*
X125678396Y-39230203D01*
X125333329Y-39087284D01*
X125127000Y-39210626D01*
X124873000Y-39210626D01*
X124666671Y-39087284D01*
X124321604Y-39230203D01*
X123933236Y-39577337D01*
X123707273Y-40046669D01*
X104685000Y-40046669D01*
X104685000Y-35575322D01*
X108365900Y-35575322D01*
X108365900Y-36424678D01*
X108690934Y-37209380D01*
X109291520Y-37809966D01*
X110076222Y-38135000D01*
X110925578Y-38135000D01*
X111710280Y-37809966D01*
X112310866Y-37209380D01*
X112635900Y-36424678D01*
X112635900Y-36285750D01*
X114465000Y-36285750D01*
X114465000Y-37426310D01*
X114561673Y-37659699D01*
X114740302Y-37838327D01*
X114973691Y-37935000D01*
X115714250Y-37935000D01*
X115873000Y-37776250D01*
X115873000Y-36127000D01*
X114623750Y-36127000D01*
X114465000Y-36285750D01*
X112635900Y-36285750D01*
X112635900Y-35575322D01*
X112310866Y-34790620D01*
X112093936Y-34573690D01*
X114465000Y-34573690D01*
X114465000Y-35714250D01*
X114623750Y-35873000D01*
X115873000Y-35873000D01*
X115873000Y-34223750D01*
X115714250Y-34065000D01*
X114973691Y-34065000D01*
X114740302Y-34161673D01*
X114561673Y-34340301D01*
X114465000Y-34573690D01*
X112093936Y-34573690D01*
X111710280Y-34190034D01*
X110925578Y-33865000D01*
X110076222Y-33865000D01*
X109291520Y-34190034D01*
X108690934Y-34790620D01*
X108365900Y-35575322D01*
X104685000Y-35575322D01*
X104685000Y-34034698D01*
X104756160Y-33334139D01*
X104956307Y-32695470D01*
X105280784Y-32110098D01*
X105716343Y-31601922D01*
X106245183Y-31191711D01*
X106845712Y-30896214D01*
X107501567Y-30725377D01*
X108026313Y-30685000D01*
X125686168Y-30685000D01*
X125243783Y-30868242D01*
X125243783Y-30868242D01*
G37*
X125243783Y-30868242D02*
X124868242Y-31243783D01*
X124665000Y-31734452D01*
X124665000Y-32265548D01*
X124789037Y-32565000D01*
X120551783Y-32565000D01*
X120440000Y-32542765D01*
X120006089Y-32629075D01*
X119997145Y-32630854D01*
X119621711Y-32881711D01*
X119558389Y-32976479D01*
X118489994Y-34044875D01*
X117941073Y-34154062D01*
X117486888Y-34457538D01*
X117438327Y-34340301D01*
X117259698Y-34161673D01*
X117026309Y-34065000D01*
X116285750Y-34065000D01*
X116127000Y-34223750D01*
X116127000Y-35873000D01*
X116147000Y-35873000D01*
X116147000Y-36127000D01*
X116127000Y-36127000D01*
X116127000Y-37776250D01*
X116285750Y-37935000D01*
X117026309Y-37935000D01*
X117259698Y-37838327D01*
X117438327Y-37659699D01*
X117486889Y-37542461D01*
X117941074Y-37845938D01*
X118540000Y-37965072D01*
X119138927Y-37845938D01*
X119646673Y-37506673D01*
X119810000Y-37262236D01*
X119973328Y-37506673D01*
X120481074Y-37845938D01*
X121080000Y-37965072D01*
X121678927Y-37845938D01*
X122186673Y-37506673D01*
X122350000Y-37262236D01*
X122513328Y-37506673D01*
X123021074Y-37845938D01*
X123620000Y-37965072D01*
X124218927Y-37845938D01*
X124726673Y-37506673D01*
X124890000Y-37262236D01*
X125053328Y-37506673D01*
X125561074Y-37845938D01*
X126160000Y-37965072D01*
X126758927Y-37845938D01*
X127266673Y-37506673D01*
X127430000Y-37262236D01*
X127593328Y-37506673D01*
X128101074Y-37845938D01*
X128700000Y-37965072D01*
X129298927Y-37845938D01*
X129806673Y-37506673D01*
X129970000Y-37262236D01*
X130133328Y-37506673D01*
X130641074Y-37845938D01*
X131240000Y-37965072D01*
X131838927Y-37845938D01*
X132346673Y-37506673D01*
X132510000Y-37262236D01*
X132673328Y-37506673D01*
X133181074Y-37845938D01*
X133780000Y-37965072D01*
X134378927Y-37845938D01*
X134886673Y-37506673D01*
X135050000Y-37262236D01*
X135213328Y-37506673D01*
X135721074Y-37845938D01*
X136320000Y-37965072D01*
X136918927Y-37845938D01*
X137426673Y-37506673D01*
X137590000Y-37262236D01*
X137753328Y-37506673D01*
X138261074Y-37845938D01*
X138860000Y-37965072D01*
X139458927Y-37845938D01*
X139966673Y-37506673D01*
X140130000Y-37262236D01*
X140293328Y-37506673D01*
X140801074Y-37845938D01*
X141400000Y-37965072D01*
X141998927Y-37845938D01*
X142506673Y-37506673D01*
X142670000Y-37262236D01*
X142833328Y-37506673D01*
X143341074Y-37845938D01*
X143940000Y-37965072D01*
X144538927Y-37845938D01*
X145046673Y-37506673D01*
X145210000Y-37262236D01*
X145373328Y-37506673D01*
X145881074Y-37845938D01*
X146480000Y-37965072D01*
X147078927Y-37845938D01*
X147586673Y-37506673D01*
X147750000Y-37262236D01*
X147913328Y-37506673D01*
X148421074Y-37845938D01*
X149020000Y-37965072D01*
X149618927Y-37845938D01*
X150126673Y-37506673D01*
X150290000Y-37262236D01*
X150453328Y-37506673D01*
X150961074Y-37845938D01*
X151560000Y-37965072D01*
X152158927Y-37845938D01*
X152666673Y-37506673D01*
X152841703Y-37244723D01*
X153104394Y-37575212D01*
X153629914Y-37866756D01*
X153735260Y-37891036D01*
X153973000Y-37770378D01*
X153973000Y-36127000D01*
X153953000Y-36127000D01*
X153953000Y-35873000D01*
X153973000Y-35873000D01*
X153973000Y-35853000D01*
X154227000Y-35853000D01*
X154227000Y-35873000D01*
X154247000Y-35873000D01*
X154247000Y-36127000D01*
X154227000Y-36127000D01*
X154227000Y-37770378D01*
X154464740Y-37891036D01*
X154570086Y-37866756D01*
X155095606Y-37575212D01*
X155469554Y-37104752D01*
X155635000Y-36527000D01*
X155635000Y-36477376D01*
X158134824Y-38977201D01*
X157868242Y-39243783D01*
X157665000Y-39734452D01*
X157665000Y-40265548D01*
X157868242Y-40756217D01*
X158243783Y-41131758D01*
X158734452Y-41335000D01*
X159115000Y-41335000D01*
X159114999Y-42542598D01*
X158820582Y-42601161D01*
X158329375Y-42929375D01*
X158130000Y-43227761D01*
X157930625Y-42929375D01*
X157439418Y-42601161D01*
X157006256Y-42515000D01*
X156713744Y-42515000D01*
X156280582Y-42601161D01*
X155789375Y-42929375D01*
X155590000Y-43227761D01*
X155390625Y-42929375D01*
X154899418Y-42601161D01*
X154466256Y-42515000D01*
X154173744Y-42515000D01*
X153953592Y-42558791D01*
X152348409Y-40953608D01*
X152637542Y-40520891D01*
X152741154Y-40000000D01*
X152637542Y-39479109D01*
X152342481Y-39037519D01*
X151900891Y-38742458D01*
X151511485Y-38665000D01*
X151248515Y-38665000D01*
X150859109Y-38742458D01*
X150417519Y-39037519D01*
X150122458Y-39479109D01*
X150018846Y-40000000D01*
X150122458Y-40520891D01*
X150205386Y-40645001D01*
X126252152Y-40645001D01*
X126170206Y-40507000D01*
X125127000Y-40507000D01*
X125127000Y-40527000D01*
X124873000Y-40527000D01*
X124873000Y-40507000D01*
X123829794Y-40507000D01*
X123707273Y-40713331D01*
X123842986Y-40995211D01*
X115470518Y-49367681D01*
X115407062Y-49410081D01*
X115364662Y-49473537D01*
X115364661Y-49473538D01*
X115239087Y-49661473D01*
X115180102Y-49958010D01*
X115194991Y-50032862D01*
X115194991Y-51311792D01*
X115099909Y-51248260D01*
X114540000Y-51136887D01*
X113980092Y-51248260D01*
X113505424Y-51565423D01*
X113424785Y-51686107D01*
X113398157Y-51552235D01*
X113257809Y-51342191D01*
X113047765Y-51201843D01*
X112800000Y-51152560D01*
X112760000Y-51152560D01*
X112760000Y-49157975D01*
X113131758Y-48786217D01*
X113335000Y-48295548D01*
X113335000Y-47764452D01*
X113131758Y-47273783D01*
X112756217Y-46898242D01*
X112265548Y-46695000D01*
X111734452Y-46695000D01*
X111243783Y-46898242D01*
X110868242Y-47273783D01*
X110665000Y-47764452D01*
X110665000Y-48295548D01*
X110868242Y-48786217D01*
X111240001Y-49157976D01*
X111240000Y-51152560D01*
X111200000Y-51152560D01*
X110952235Y-51201843D01*
X110742191Y-51342191D01*
X110601843Y-51552235D01*
X110552560Y-51800000D01*
X110552560Y-54200000D01*
X110601843Y-54447765D01*
X110742191Y-54657809D01*
X110952235Y-54798157D01*
X111200000Y-54847440D01*
X112800000Y-54847440D01*
X113047765Y-54798157D01*
X113257809Y-54657809D01*
X113398157Y-54447765D01*
X113424785Y-54313893D01*
X113505423Y-54434576D01*
X113980091Y-54751740D01*
X114540000Y-54863113D01*
X115099908Y-54751740D01*
X115194990Y-54688208D01*
X115194990Y-57440208D01*
X114055528Y-58579671D01*
X113992072Y-58622071D01*
X113949672Y-58685527D01*
X113949671Y-58685528D01*
X113824097Y-58873463D01*
X113801379Y-58987672D01*
X113505424Y-59185423D01*
X113270000Y-59537759D01*
X113034577Y-59185423D01*
X112559909Y-58868260D01*
X112000000Y-58756887D01*
X111440092Y-58868260D01*
X110965424Y-59185423D01*
X110648260Y-59660091D01*
X110565000Y-60078667D01*
X110565000Y-61161332D01*
X110648260Y-61579908D01*
X110965423Y-62054576D01*
X111440091Y-62371740D01*
X112000000Y-62483113D01*
X112559908Y-62371740D01*
X113034576Y-62054577D01*
X113270000Y-61702241D01*
X113505423Y-62054576D01*
X113980091Y-62371740D01*
X114540000Y-62483113D01*
X115099908Y-62371740D01*
X115574576Y-62054577D01*
X115810000Y-61702241D01*
X116045423Y-62054576D01*
X116520091Y-62371740D01*
X117080000Y-62483113D01*
X117639908Y-62371740D01*
X118114576Y-62054577D01*
X118350000Y-61702241D01*
X118585423Y-62054576D01*
X119060091Y-62371740D01*
X119620000Y-62483113D01*
X119943887Y-62418688D01*
X122643183Y-65117985D01*
X122685583Y-65181441D01*
X122749039Y-65223841D01*
X122936974Y-65349416D01*
X122985117Y-65358992D01*
X123158660Y-65393512D01*
X123158664Y-65393512D01*
X123233512Y-65408400D01*
X123308360Y-65393512D01*
X145392777Y-65393512D01*
X145510208Y-65510943D01*
X145890614Y-65668512D01*
X146302362Y-65668512D01*
X146682768Y-65510943D01*
X146973919Y-65219792D01*
X147131488Y-64839386D01*
X147131488Y-64427638D01*
X146973919Y-64047232D01*
X146682768Y-63756081D01*
X146302362Y-63598512D01*
X145890614Y-63598512D01*
X145510208Y-63756081D01*
X145392777Y-63873512D01*
X129123511Y-63873512D01*
X129123511Y-63702637D01*
X128998081Y-63399822D01*
X129062138Y-63373289D01*
X129353289Y-63082138D01*
X129510858Y-62701732D01*
X129510858Y-62429577D01*
X129780000Y-62483113D01*
X130339908Y-62371740D01*
X130532945Y-62242757D01*
X130477258Y-62377198D01*
X130477258Y-62788946D01*
X130634827Y-63169352D01*
X130925978Y-63460503D01*
X131306384Y-63618072D01*
X131718132Y-63618072D01*
X132098538Y-63460503D01*
X132389689Y-63169352D01*
X132547258Y-62788946D01*
X132547258Y-62622874D01*
X132649474Y-62520658D01*
X132712930Y-62478258D01*
X132880905Y-62226866D01*
X132925001Y-62005181D01*
X132925001Y-62005177D01*
X132939889Y-61930330D01*
X132925001Y-61855483D01*
X132925001Y-60734452D01*
X133665000Y-60734452D01*
X133665000Y-61265548D01*
X133868242Y-61756217D01*
X134243783Y-62131758D01*
X134734452Y-62335000D01*
X135265548Y-62335000D01*
X135756217Y-62131758D01*
X136131758Y-61756217D01*
X136335000Y-61265548D01*
X136335000Y-60734452D01*
X136131758Y-60243783D01*
X135756217Y-59868242D01*
X135265548Y-59665000D01*
X134734452Y-59665000D01*
X134243783Y-59868242D01*
X133868242Y-60243783D01*
X133665000Y-60734452D01*
X132925001Y-60734452D01*
X132925001Y-60063539D01*
X132939889Y-59988691D01*
X132925001Y-59913843D01*
X132925001Y-59913839D01*
X132880905Y-59692154D01*
X132880905Y-59692153D01*
X132755330Y-59504218D01*
X132712930Y-59440762D01*
X132649474Y-59398362D01*
X128838155Y-55587044D01*
X128838155Y-55420971D01*
X128680586Y-55040565D01*
X128389435Y-54749414D01*
X128027659Y-54599562D01*
X128274576Y-54434577D01*
X128512499Y-54078501D01*
X128855104Y-54504500D01*
X129348181Y-54774367D01*
X129430961Y-54791904D01*
X129653000Y-54669915D01*
X129653000Y-53127000D01*
X129907000Y-53127000D01*
X129907000Y-54669915D01*
X130129039Y-54791904D01*
X130211819Y-54774367D01*
X130704896Y-54504500D01*
X131057166Y-54066483D01*
X131215000Y-53527000D01*
X131215000Y-53380000D01*
X133638846Y-53380000D01*
X133742458Y-53900891D01*
X134037519Y-54342481D01*
X134479109Y-54637542D01*
X134868515Y-54715000D01*
X135131485Y-54715000D01*
X135520891Y-54637542D01*
X135962481Y-54342481D01*
X136257542Y-53900891D01*
X136361154Y-53380000D01*
X136257542Y-52859109D01*
X135962481Y-52417519D01*
X135520891Y-52122458D01*
X135131485Y-52045000D01*
X134868515Y-52045000D01*
X134479109Y-52122458D01*
X134037519Y-52417519D01*
X133742458Y-52859109D01*
X133638846Y-53380000D01*
X131215000Y-53380000D01*
X131215000Y-53127000D01*
X129907000Y-53127000D01*
X129653000Y-53127000D01*
X129633000Y-53127000D01*
X129633000Y-52873000D01*
X129653000Y-52873000D01*
X129653000Y-51330085D01*
X129907000Y-51330085D01*
X129907000Y-52873000D01*
X131215000Y-52873000D01*
X131215000Y-52473000D01*
X131057166Y-51933517D01*
X130704896Y-51495500D01*
X130211819Y-51225633D01*
X130129039Y-51208096D01*
X129907000Y-51330085D01*
X129653000Y-51330085D01*
X129430961Y-51208096D01*
X129348181Y-51225633D01*
X128855104Y-51495500D01*
X128512499Y-51921499D01*
X128274577Y-51565423D01*
X128000000Y-51381957D01*
X128000000Y-48524801D01*
X132515000Y-44009802D01*
X132515000Y-44127002D01*
X132673748Y-44127002D01*
X132515000Y-44285750D01*
X132515000Y-44976309D01*
X132611673Y-45209698D01*
X132790301Y-45388327D01*
X133023690Y-45485000D01*
X133714250Y-45485000D01*
X133873000Y-45326250D01*
X133873000Y-44127000D01*
X133853000Y-44127000D01*
X133853000Y-43873000D01*
X133873000Y-43873000D01*
X133873000Y-43853000D01*
X134127000Y-43853000D01*
X134127000Y-43873000D01*
X134147000Y-43873000D01*
X134147000Y-44127000D01*
X134127000Y-44127000D01*
X134127000Y-45326250D01*
X134285750Y-45485000D01*
X134976310Y-45485000D01*
X135209699Y-45388327D01*
X135388327Y-45209698D01*
X135454904Y-45048967D01*
X135469375Y-45070625D01*
X135960582Y-45398839D01*
X136393744Y-45485000D01*
X136686256Y-45485000D01*
X137119418Y-45398839D01*
X137610625Y-45070625D01*
X137810000Y-44772239D01*
X138009375Y-45070625D01*
X138500582Y-45398839D01*
X138933744Y-45485000D01*
X139226256Y-45485000D01*
X139659418Y-45398839D01*
X140150625Y-45070625D01*
X140350000Y-44772239D01*
X140549375Y-45070625D01*
X141040582Y-45398839D01*
X141473744Y-45485000D01*
X141766256Y-45485000D01*
X142199418Y-45398839D01*
X142690625Y-45070625D01*
X142890000Y-44772239D01*
X143089375Y-45070625D01*
X143580582Y-45398839D01*
X144013744Y-45485000D01*
X144306256Y-45485000D01*
X144739418Y-45398839D01*
X145230625Y-45070625D01*
X145430000Y-44772239D01*
X145629375Y-45070625D01*
X146120582Y-45398839D01*
X146553744Y-45485000D01*
X146846256Y-45485000D01*
X147279418Y-45398839D01*
X147770625Y-45070625D01*
X147970000Y-44772239D01*
X148169375Y-45070625D01*
X148660582Y-45398839D01*
X149093744Y-45485000D01*
X149386256Y-45485000D01*
X149819418Y-45398839D01*
X150310625Y-45070625D01*
X150510000Y-44772239D01*
X150709375Y-45070625D01*
X151200582Y-45398839D01*
X151633744Y-45485000D01*
X151926256Y-45485000D01*
X152359418Y-45398839D01*
X152850625Y-45070625D01*
X153050000Y-44772239D01*
X153249375Y-45070625D01*
X153740582Y-45398839D01*
X154173744Y-45485000D01*
X154466256Y-45485000D01*
X154899418Y-45398839D01*
X155390625Y-45070625D01*
X155590000Y-44772239D01*
X155789375Y-45070625D01*
X156280582Y-45398839D01*
X156713744Y-45485000D01*
X157006256Y-45485000D01*
X157226408Y-45441209D01*
X161989670Y-50204472D01*
X162032071Y-50267929D01*
X162283463Y-50435904D01*
X162505148Y-50480000D01*
X162505152Y-50480000D01*
X162580000Y-50494888D01*
X162654848Y-50480000D01*
X172516203Y-50480000D01*
X173394864Y-51358662D01*
X173085424Y-51565423D01*
X172850000Y-51917759D01*
X172614577Y-51565423D01*
X172139909Y-51248260D01*
X171580000Y-51136887D01*
X171020092Y-51248260D01*
X170545424Y-51565423D01*
X170310000Y-51917759D01*
X170074577Y-51565423D01*
X169599909Y-51248260D01*
X169040000Y-51136887D01*
X168480092Y-51248260D01*
X168005424Y-51565423D01*
X167924785Y-51686107D01*
X167898157Y-51552235D01*
X167757809Y-51342191D01*
X167547765Y-51201843D01*
X167300000Y-51152560D01*
X165700000Y-51152560D01*
X165452235Y-51201843D01*
X165242191Y-51342191D01*
X165101843Y-51552235D01*
X165052560Y-51800000D01*
X165052560Y-54200000D01*
X165101843Y-54447765D01*
X165242191Y-54657809D01*
X165452235Y-54798157D01*
X165700000Y-54847440D01*
X167300000Y-54847440D01*
X167547765Y-54798157D01*
X167757809Y-54657809D01*
X167898157Y-54447765D01*
X167924785Y-54313893D01*
X168005423Y-54434576D01*
X168480091Y-54751740D01*
X169040000Y-54863113D01*
X169599908Y-54751740D01*
X170074576Y-54434577D01*
X170310000Y-54082241D01*
X170545423Y-54434576D01*
X171020091Y-54751740D01*
X171580000Y-54863113D01*
X172139908Y-54751740D01*
X172614576Y-54434577D01*
X172850000Y-54082241D01*
X173085423Y-54434576D01*
X173560091Y-54751740D01*
X174120000Y-54863113D01*
X174485011Y-54790508D01*
X174485010Y-57730187D01*
X173635527Y-58579671D01*
X173572072Y-58622071D01*
X173529672Y-58685527D01*
X173529671Y-58685528D01*
X173404097Y-58873463D01*
X173381379Y-58987672D01*
X173085424Y-59185423D01*
X172850000Y-59537759D01*
X172614577Y-59185423D01*
X172139909Y-58868260D01*
X171580000Y-58756887D01*
X171020092Y-58868260D01*
X170545424Y-59185423D01*
X170310000Y-59537759D01*
X170074577Y-59185423D01*
X169599909Y-58868260D01*
X169040000Y-58756887D01*
X168480092Y-58868260D01*
X168005424Y-59185423D01*
X167770000Y-59537759D01*
X167534577Y-59185423D01*
X167059909Y-58868260D01*
X166500000Y-58756887D01*
X165940092Y-58868260D01*
X165465424Y-59185423D01*
X165148260Y-59660091D01*
X165065000Y-60078667D01*
X165065000Y-61161332D01*
X165148260Y-61579908D01*
X165465423Y-62054576D01*
X165940091Y-62371740D01*
X166500000Y-62483113D01*
X167059908Y-62371740D01*
X167534576Y-62054577D01*
X167770000Y-61702241D01*
X168005423Y-62054576D01*
X168480091Y-62371740D01*
X169040000Y-62483113D01*
X169599908Y-62371740D01*
X170074576Y-62054577D01*
X170260001Y-61777070D01*
X170260000Y-64991299D01*
X170142569Y-65108730D01*
X169985000Y-65489136D01*
X169985000Y-65900884D01*
X170142569Y-66281290D01*
X170433720Y-66572441D01*
X170814126Y-66730010D01*
X171225874Y-66730010D01*
X171597634Y-66576022D01*
X183364480Y-66576022D01*
X183364480Y-67425378D01*
X183689514Y-68210080D01*
X184290100Y-68810666D01*
X185074802Y-69135700D01*
X185924158Y-69135700D01*
X186708860Y-68810666D01*
X187309446Y-68210080D01*
X187634480Y-67425378D01*
X187634480Y-66576022D01*
X187309446Y-65791320D01*
X186708860Y-65190734D01*
X185924158Y-64865700D01*
X185074802Y-64865700D01*
X184290100Y-65190734D01*
X183689514Y-65791320D01*
X183364480Y-66576022D01*
X171597634Y-66576022D01*
X171606280Y-66572441D01*
X171897431Y-66281290D01*
X172055000Y-65900884D01*
X172055000Y-65489136D01*
X171897431Y-65108730D01*
X171780000Y-64991299D01*
X171780000Y-62443330D01*
X172139908Y-62371740D01*
X172614576Y-62054577D01*
X172850000Y-61702241D01*
X173085423Y-62054576D01*
X173560091Y-62371740D01*
X174120000Y-62483113D01*
X174679908Y-62371740D01*
X175154576Y-62054577D01*
X175390000Y-61702241D01*
X175625423Y-62054576D01*
X176100091Y-62371740D01*
X176660000Y-62483113D01*
X177219908Y-62371740D01*
X177694576Y-62054577D01*
X177930000Y-61702241D01*
X178165423Y-62054576D01*
X178640091Y-62371740D01*
X179200000Y-62483113D01*
X179759908Y-62371740D01*
X180234576Y-62054577D01*
X180470000Y-61702241D01*
X180705423Y-62054576D01*
X181180091Y-62371740D01*
X181740000Y-62483113D01*
X182299908Y-62371740D01*
X182774576Y-62054577D01*
X183010000Y-61702241D01*
X183245423Y-62054576D01*
X183720091Y-62371740D01*
X184280000Y-62483113D01*
X184839908Y-62371740D01*
X185314576Y-62054577D01*
X185631740Y-61579909D01*
X185671504Y-61380000D01*
X188212408Y-61380000D01*
X188368242Y-61756217D01*
X188743783Y-62131758D01*
X189234452Y-62335000D01*
X189765002Y-62335000D01*
X189765002Y-66629866D01*
X182376481Y-74018388D01*
X182376475Y-74018392D01*
X182129867Y-74265000D01*
X181654887Y-74265000D01*
X181017201Y-74529138D01*
X180681339Y-74865000D01*
X162318661Y-74865000D01*
X161982799Y-74529138D01*
X161345113Y-74265000D01*
X160654887Y-74265000D01*
X160017201Y-74529138D01*
X159681339Y-74865000D01*
X141318661Y-74865000D01*
X140982799Y-74529138D01*
X140345113Y-74265000D01*
X139654887Y-74265000D01*
X139017201Y-74529138D01*
X138681339Y-74865000D01*
X120318661Y-74865000D01*
X119982799Y-74529138D01*
X119345113Y-74265000D01*
X118654887Y-74265000D01*
X118017201Y-74529138D01*
X117529138Y-75017201D01*
X117265000Y-75654887D01*
X117265000Y-76345113D01*
X117529138Y-76982799D01*
X117865000Y-77318661D01*
X117865001Y-78809867D01*
X116984134Y-78445000D01*
X115935866Y-78445000D01*
X114967392Y-78846155D01*
X114226155Y-79587392D01*
X113825000Y-80555866D01*
X113825000Y-81604134D01*
X114226155Y-82572608D01*
X114967392Y-83313845D01*
X115935866Y-83715000D01*
X116984134Y-83715000D01*
X117952608Y-83313845D01*
X118025001Y-83241452D01*
X118025002Y-94860609D01*
X117930855Y-95001511D01*
X117930854Y-95001512D01*
X117842765Y-95444366D01*
X117865000Y-95556149D01*
X117865000Y-95681339D01*
X117529138Y-96017201D01*
X117265000Y-96654887D01*
X117265000Y-97345113D01*
X117529138Y-97982799D01*
X117865000Y-98318661D01*
X117865001Y-99809867D01*
X116984134Y-99445000D01*
X115935866Y-99445000D01*
X114967392Y-99846155D01*
X114226155Y-100587392D01*
X113825000Y-101555866D01*
X113825000Y-102604134D01*
X114226155Y-103572608D01*
X114967392Y-104313845D01*
X115935866Y-104715000D01*
X116984134Y-104715000D01*
X117952608Y-104313845D01*
X118025001Y-104241452D01*
X118025002Y-115860609D01*
X117930855Y-116001511D01*
X117930854Y-116001512D01*
X117842765Y-116444366D01*
X117865000Y-116556149D01*
X117865000Y-116681339D01*
X117529138Y-117017201D01*
X117265000Y-117654887D01*
X117265000Y-118345113D01*
X117529138Y-118982799D01*
X117865000Y-119318661D01*
X117865000Y-119443851D01*
X117842765Y-119555634D01*
X117930854Y-119998488D01*
X117930855Y-119998489D01*
X118025001Y-120139388D01*
X118025001Y-120918548D01*
X117952608Y-120846155D01*
X116984134Y-120445000D01*
X115935866Y-120445000D01*
X114967392Y-120846155D01*
X114226155Y-121587392D01*
X113825000Y-122555866D01*
X113825000Y-123604134D01*
X114226155Y-124572608D01*
X114967392Y-125313845D01*
X115935866Y-125715000D01*
X116984134Y-125715000D01*
X117952608Y-125313845D01*
X118025001Y-125241452D01*
X118025002Y-136860609D01*
X117930855Y-137001511D01*
X117930854Y-137001512D01*
X117842765Y-137444366D01*
X117865000Y-137556149D01*
X117865000Y-137681339D01*
X117529138Y-138017201D01*
X117265000Y-138654887D01*
X117265000Y-139345113D01*
X117529138Y-139982799D01*
X118017201Y-140470862D01*
X118654887Y-140735000D01*
X119345113Y-140735000D01*
X119982799Y-140470862D01*
X120318661Y-140135000D01*
X132601339Y-140135000D01*
X132179138Y-140557201D01*
X131915000Y-141194887D01*
X131915000Y-141885113D01*
X132179138Y-142522799D01*
X132251339Y-142595000D01*
X132084615Y-142595000D01*
X131538815Y-142821078D01*
X131121078Y-143238815D01*
X130895000Y-143784615D01*
X130895000Y-144375385D01*
X131121078Y-144921185D01*
X131538815Y-145338922D01*
X132084615Y-145565000D01*
X132675385Y-145565000D01*
X133221185Y-145338922D01*
X133638922Y-144921185D01*
X133865000Y-144375385D01*
X133865000Y-143784615D01*
X133770249Y-143555866D01*
X134825000Y-143555866D01*
X134825000Y-144604134D01*
X135226155Y-145572608D01*
X135967392Y-146313845D01*
X136935866Y-146715000D01*
X137984134Y-146715000D01*
X138952608Y-146313845D01*
X139693845Y-145572608D01*
X140095000Y-144604134D01*
X140095000Y-143784615D01*
X141055000Y-143784615D01*
X141055000Y-144375385D01*
X141281078Y-144921185D01*
X141698815Y-145338922D01*
X142244615Y-145565000D01*
X142835385Y-145565000D01*
X143381185Y-145338922D01*
X143798922Y-144921185D01*
X144025000Y-144375385D01*
X144025000Y-143784615D01*
X143798922Y-143238815D01*
X143381185Y-142821078D01*
X142835385Y-142595000D01*
X142244615Y-142595000D01*
X141698815Y-142821078D01*
X141281078Y-143238815D01*
X141055000Y-143784615D01*
X140095000Y-143784615D01*
X140095000Y-143555866D01*
X139693845Y-142587392D01*
X138952608Y-141846155D01*
X137984134Y-141445000D01*
X136935866Y-141445000D01*
X135967392Y-141846155D01*
X135226155Y-142587392D01*
X134825000Y-143555866D01*
X133770249Y-143555866D01*
X133653910Y-143275000D01*
X133995113Y-143275000D01*
X134632799Y-143010862D01*
X135120862Y-142522799D01*
X135385000Y-141885113D01*
X135385000Y-141194887D01*
X135120862Y-140557201D01*
X134698661Y-140135000D01*
X138681339Y-140135000D01*
X139017201Y-140470862D01*
X139654887Y-140735000D01*
X140345113Y-140735000D01*
X140982799Y-140470862D01*
X141318661Y-140135000D01*
X153601339Y-140135000D01*
X153179138Y-140557201D01*
X152915000Y-141194887D01*
X152915000Y-141885113D01*
X153179138Y-142522799D01*
X153251339Y-142595000D01*
X153084615Y-142595000D01*
X152538815Y-142821078D01*
X152121078Y-143238815D01*
X151895000Y-143784615D01*
X151895000Y-144375385D01*
X152121078Y-144921185D01*
X152538815Y-145338922D01*
X153084615Y-145565000D01*
X153675385Y-145565000D01*
X154221185Y-145338922D01*
X154638922Y-144921185D01*
X154865000Y-144375385D01*
X154865000Y-143784615D01*
X154770249Y-143555866D01*
X155825000Y-143555866D01*
X155825000Y-144604134D01*
X156226155Y-145572608D01*
X156967392Y-146313845D01*
X157935866Y-146715000D01*
X158984134Y-146715000D01*
X159952608Y-146313845D01*
X160693845Y-145572608D01*
X161095000Y-144604134D01*
X161095000Y-143784615D01*
X162055000Y-143784615D01*
X162055000Y-144375385D01*
X162281078Y-144921185D01*
X162698815Y-145338922D01*
X163244615Y-145565000D01*
X163835385Y-145565000D01*
X164381185Y-145338922D01*
X164798922Y-144921185D01*
X165025000Y-144375385D01*
X165025000Y-143784615D01*
X164798922Y-143238815D01*
X164381185Y-142821078D01*
X163835385Y-142595000D01*
X163244615Y-142595000D01*
X162698815Y-142821078D01*
X162281078Y-143238815D01*
X162055000Y-143784615D01*
X161095000Y-143784615D01*
X161095000Y-143555866D01*
X160693845Y-142587392D01*
X159952608Y-141846155D01*
X158984134Y-141445000D01*
X157935866Y-141445000D01*
X156967392Y-141846155D01*
X156226155Y-142587392D01*
X155825000Y-143555866D01*
X154770249Y-143555866D01*
X154653910Y-143275000D01*
X154995113Y-143275000D01*
X155632799Y-143010862D01*
X156120862Y-142522799D01*
X156385000Y-141885113D01*
X156385000Y-141194887D01*
X156120862Y-140557201D01*
X155698661Y-140135000D01*
X159681339Y-140135000D01*
X160017201Y-140470862D01*
X160654887Y-140735000D01*
X161345113Y-140735000D01*
X161982799Y-140470862D01*
X162318661Y-140135000D01*
X174601339Y-140135000D01*
X174179138Y-140557201D01*
X173915000Y-141194887D01*
X173915000Y-141885113D01*
X174179138Y-142522799D01*
X174251339Y-142595000D01*
X174084615Y-142595000D01*
X173538815Y-142821078D01*
X173121078Y-143238815D01*
X172895000Y-143784615D01*
X172895000Y-144375385D01*
X173121078Y-144921185D01*
X173538815Y-145338922D01*
X174084615Y-145565000D01*
X174675385Y-145565000D01*
X175221185Y-145338922D01*
X175638922Y-144921185D01*
X175865000Y-144375385D01*
X175865000Y-143784615D01*
X175770249Y-143555866D01*
X176825000Y-143555866D01*
X176825000Y-144604134D01*
X177226155Y-145572608D01*
X177967392Y-146313845D01*
X178935866Y-146715000D01*
X179984134Y-146715000D01*
X180952608Y-146313845D01*
X181693845Y-145572608D01*
X182095000Y-144604134D01*
X182095000Y-143784615D01*
X183055000Y-143784615D01*
X183055000Y-144375385D01*
X183281078Y-144921185D01*
X183698815Y-145338922D01*
X184244615Y-145565000D01*
X184835385Y-145565000D01*
X185381185Y-145338922D01*
X185798922Y-144921185D01*
X186025000Y-144375385D01*
X186025000Y-143784615D01*
X185798922Y-143238815D01*
X185381185Y-142821078D01*
X184835385Y-142595000D01*
X184244615Y-142595000D01*
X183698815Y-142821078D01*
X183281078Y-143238815D01*
X183055000Y-143784615D01*
X182095000Y-143784615D01*
X182095000Y-143555866D01*
X181693845Y-142587392D01*
X180952608Y-141846155D01*
X179984134Y-141445000D01*
X178935866Y-141445000D01*
X177967392Y-141846155D01*
X177226155Y-142587392D01*
X176825000Y-143555866D01*
X175770249Y-143555866D01*
X175653910Y-143275000D01*
X175995113Y-143275000D01*
X176632799Y-143010862D01*
X177120862Y-142522799D01*
X177385000Y-141885113D01*
X177385000Y-141194887D01*
X177120862Y-140557201D01*
X176698661Y-140135000D01*
X180681339Y-140135000D01*
X181017201Y-140470862D01*
X181654887Y-140735000D01*
X182345113Y-140735000D01*
X182982799Y-140470862D01*
X183470862Y-139982799D01*
X183735000Y-139345113D01*
X183735000Y-138654887D01*
X183470862Y-138017201D01*
X183209814Y-137756153D01*
X183229147Y-137727220D01*
X183295001Y-137396148D01*
X183317236Y-137284365D01*
X183295001Y-137172582D01*
X183295001Y-123935108D01*
X183698815Y-124338922D01*
X184244615Y-124565000D01*
X184835385Y-124565000D01*
X185381185Y-124338922D01*
X185798922Y-123921185D01*
X186025000Y-123375385D01*
X186025000Y-122784615D01*
X185798922Y-122238815D01*
X185381185Y-121821078D01*
X184835385Y-121595000D01*
X184244615Y-121595000D01*
X183698815Y-121821078D01*
X183295001Y-122224892D01*
X183295001Y-119827418D01*
X183317236Y-119715635D01*
X183229147Y-119272781D01*
X183229147Y-119272780D01*
X183209814Y-119243847D01*
X183470862Y-118982799D01*
X183735000Y-118345113D01*
X183735000Y-117654887D01*
X183470862Y-117017201D01*
X183209814Y-116756153D01*
X183229147Y-116727220D01*
X183295001Y-116396148D01*
X183317236Y-116284365D01*
X183295001Y-116172582D01*
X183295001Y-102935108D01*
X183698815Y-103338922D01*
X184244615Y-103565000D01*
X184835385Y-103565000D01*
X185381185Y-103338922D01*
X185798922Y-102921185D01*
X186025000Y-102375385D01*
X186025000Y-101784615D01*
X185798922Y-101238815D01*
X185381185Y-100821078D01*
X184835385Y-100595000D01*
X184244615Y-100595000D01*
X183698815Y-100821078D01*
X183295001Y-101224892D01*
X183295001Y-100895782D01*
X183317236Y-100783999D01*
X183279642Y-100595000D01*
X183229147Y-100341144D01*
X183135000Y-100200243D01*
X183135000Y-98318661D01*
X183470862Y-97982799D01*
X183735000Y-97345113D01*
X183735000Y-96654887D01*
X183470862Y-96017201D01*
X183209814Y-95756153D01*
X183229147Y-95727220D01*
X183295001Y-95396148D01*
X183317236Y-95284365D01*
X183295001Y-95172582D01*
X183295001Y-81935108D01*
X183698815Y-82338922D01*
X184244615Y-82565000D01*
X184835385Y-82565000D01*
X185381185Y-82338922D01*
X185798922Y-81921185D01*
X186025000Y-81375385D01*
X186025000Y-80784615D01*
X185798922Y-80238815D01*
X185381185Y-79821078D01*
X184835385Y-79595000D01*
X184244615Y-79595000D01*
X183698815Y-79821078D01*
X183295001Y-80224892D01*
X183295001Y-77827418D01*
X183317236Y-77715635D01*
X183229147Y-77272781D01*
X183229147Y-77272780D01*
X183209814Y-77243847D01*
X183470862Y-76982799D01*
X183735000Y-76345113D01*
X183735000Y-75870133D01*
X183981608Y-75623525D01*
X183981612Y-75623519D01*
X191315000Y-68290132D01*
X191315001Y-154496019D01*
X191222490Y-154263506D01*
X191144068Y-154146139D01*
X190534316Y-153645290D01*
X190034165Y-154145441D01*
X190034164Y-154145441D01*
X187179605Y-157000000D01*
X187193748Y-157014143D01*
X187014143Y-157193748D01*
X187000000Y-157179605D01*
X184145441Y-160034164D01*
X184145441Y-160034165D01*
X183645290Y-160534316D01*
X184146139Y-161144068D01*
X184542968Y-161315000D01*
X111503983Y-161315000D01*
X111736494Y-161222490D01*
X111853861Y-161144068D01*
X112354710Y-160534316D01*
X111854559Y-160034165D01*
X111854559Y-160034164D01*
X109000000Y-157179605D01*
X108985858Y-157193748D01*
X108806253Y-157014143D01*
X108820395Y-157000000D01*
X109179605Y-157000000D01*
X112034164Y-159854559D01*
X112034165Y-159854559D01*
X112534316Y-160354710D01*
X113144068Y-159853861D01*
X113920745Y-158050758D01*
X113922687Y-157912314D01*
X182051717Y-157912314D01*
X182777510Y-159736494D01*
X182855932Y-159853861D01*
X183465684Y-160354710D01*
X183965835Y-159854559D01*
X183965836Y-159854559D01*
X186820395Y-157000000D01*
X183965836Y-154145441D01*
X183965835Y-154145441D01*
X183465684Y-153645290D01*
X182855932Y-154146139D01*
X182079255Y-155949242D01*
X182051717Y-157912314D01*
X113922687Y-157912314D01*
X113948283Y-156087686D01*
X113222490Y-154263506D01*
X113144068Y-154146139D01*
X112534316Y-153645290D01*
X112034165Y-154145441D01*
X112034164Y-154145441D01*
X109179605Y-157000000D01*
X108820395Y-157000000D01*
X105965836Y-154145441D01*
X105965835Y-154145441D01*
X105465684Y-153645290D01*
X104855932Y-154146139D01*
X104685000Y-154542968D01*
X104685000Y-153465684D01*
X105645290Y-153465684D01*
X106145441Y-153965835D01*
X106145441Y-153965836D01*
X109000000Y-156820395D01*
X111854559Y-153965836D01*
X111854559Y-153965835D01*
X112354710Y-153465684D01*
X183645290Y-153465684D01*
X184145441Y-153965835D01*
X184145441Y-153965836D01*
X187000000Y-156820395D01*
X189854559Y-153965836D01*
X189854559Y-153965835D01*
X190354710Y-153465684D01*
X189853861Y-152855932D01*
X188050758Y-152079255D01*
X186087686Y-152051717D01*
X184263506Y-152777510D01*
X184146139Y-152855932D01*
X183645290Y-153465684D01*
X112354710Y-153465684D01*
X111853861Y-152855932D01*
X110050758Y-152079255D01*
X108087686Y-152051717D01*
X106263506Y-152777510D01*
X106146139Y-152855932D01*
X105645290Y-153465684D01*
X104685000Y-153465684D01*
X104685000Y-143784615D01*
X109895000Y-143784615D01*
X109895000Y-144375385D01*
X110121078Y-144921185D01*
X110538815Y-145338922D01*
X111084615Y-145565000D01*
X111675385Y-145565000D01*
X112221185Y-145338922D01*
X112638922Y-144921185D01*
X112865000Y-144375385D01*
X112865000Y-143784615D01*
X112770249Y-143555866D01*
X113825000Y-143555866D01*
X113825000Y-144604134D01*
X114226155Y-145572608D01*
X114967392Y-146313845D01*
X115935866Y-146715000D01*
X116984134Y-146715000D01*
X117952608Y-146313845D01*
X118693845Y-145572608D01*
X119095000Y-144604134D01*
X119095000Y-143784615D01*
X120055000Y-143784615D01*
X120055000Y-144375385D01*
X120281078Y-144921185D01*
X120698815Y-145338922D01*
X121244615Y-145565000D01*
X121835385Y-145565000D01*
X122381185Y-145338922D01*
X122798922Y-144921185D01*
X123025000Y-144375385D01*
X123025000Y-143784615D01*
X122798922Y-143238815D01*
X122381185Y-142821078D01*
X121835385Y-142595000D01*
X121244615Y-142595000D01*
X120698815Y-142821078D01*
X120281078Y-143238815D01*
X120055000Y-143784615D01*
X119095000Y-143784615D01*
X119095000Y-143555866D01*
X118693845Y-142587392D01*
X117952608Y-141846155D01*
X116984134Y-141445000D01*
X115935866Y-141445000D01*
X114967392Y-141846155D01*
X114226155Y-142587392D01*
X113825000Y-143555866D01*
X112770249Y-143555866D01*
X112653910Y-143275000D01*
X112995113Y-143275000D01*
X113632799Y-143010862D01*
X114120862Y-142522799D01*
X114385000Y-141885113D01*
X114385000Y-141194887D01*
X114120862Y-140557201D01*
X113632799Y-140069138D01*
X112995113Y-139805000D01*
X112304887Y-139805000D01*
X111667201Y-140069138D01*
X111179138Y-140557201D01*
X110915000Y-141194887D01*
X110915000Y-141885113D01*
X111179138Y-142522799D01*
X111251339Y-142595000D01*
X111084615Y-142595000D01*
X110538815Y-142821078D01*
X110121078Y-143238815D01*
X109895000Y-143784615D01*
X104685000Y-143784615D01*
X104685000Y-133734452D01*
X106665000Y-133734452D01*
X106665000Y-134265548D01*
X106868242Y-134756217D01*
X107243783Y-135131758D01*
X107734452Y-135335000D01*
X108265548Y-135335000D01*
X108756217Y-135131758D01*
X109131758Y-134756217D01*
X109306924Y-134333329D01*
X114327284Y-134333329D01*
X114470203Y-134678396D01*
X114817337Y-135066764D01*
X115286669Y-135292727D01*
X115493000Y-135170206D01*
X115493000Y-134127000D01*
X115747000Y-134127000D01*
X115747000Y-135170206D01*
X115953331Y-135292727D01*
X116422663Y-135066764D01*
X116769797Y-134678396D01*
X116912716Y-134333329D01*
X116789374Y-134127000D01*
X115747000Y-134127000D01*
X115493000Y-134127000D01*
X114450626Y-134127000D01*
X114327284Y-134333329D01*
X109306924Y-134333329D01*
X109335000Y-134265548D01*
X109335000Y-133734452D01*
X109306925Y-133666671D01*
X114327284Y-133666671D01*
X114450626Y-133873000D01*
X115493000Y-133873000D01*
X115493000Y-132829794D01*
X115747000Y-132829794D01*
X115747000Y-133873000D01*
X116789374Y-133873000D01*
X116912716Y-133666671D01*
X116769797Y-133321604D01*
X116422663Y-132933236D01*
X115953331Y-132707273D01*
X115747000Y-132829794D01*
X115493000Y-132829794D01*
X115286669Y-132707273D01*
X114817337Y-132933236D01*
X114470203Y-133321604D01*
X114327284Y-133666671D01*
X109306925Y-133666671D01*
X109131758Y-133243783D01*
X108756217Y-132868242D01*
X108265548Y-132665000D01*
X107734452Y-132665000D01*
X107243783Y-132868242D01*
X106868242Y-133243783D01*
X106665000Y-133734452D01*
X104685000Y-133734452D01*
X104685000Y-122784615D01*
X109895000Y-122784615D01*
X109895000Y-123375385D01*
X110121078Y-123921185D01*
X110538815Y-124338922D01*
X111084615Y-124565000D01*
X111675385Y-124565000D01*
X112221185Y-124338922D01*
X112638922Y-123921185D01*
X112865000Y-123375385D01*
X112865000Y-122784615D01*
X112653910Y-122275000D01*
X112995113Y-122275000D01*
X113632799Y-122010862D01*
X114120862Y-121522799D01*
X114385000Y-120885113D01*
X114385000Y-120194887D01*
X114120862Y-119557201D01*
X113632799Y-119069138D01*
X112995113Y-118805000D01*
X112304887Y-118805000D01*
X111667201Y-119069138D01*
X111179138Y-119557201D01*
X110915000Y-120194887D01*
X110915000Y-120885113D01*
X111179138Y-121522799D01*
X111251339Y-121595000D01*
X111084615Y-121595000D01*
X110538815Y-121821078D01*
X110121078Y-122238815D01*
X109895000Y-122784615D01*
X104685000Y-122784615D01*
X104685000Y-112734452D01*
X106665000Y-112734452D01*
X106665000Y-113265548D01*
X106868242Y-113756217D01*
X107243783Y-114131758D01*
X107734452Y-114335000D01*
X108265548Y-114335000D01*
X108756217Y-114131758D01*
X109131758Y-113756217D01*
X109306924Y-113333329D01*
X114327284Y-113333329D01*
X114470203Y-113678396D01*
X114817337Y-114066764D01*
X115286669Y-114292727D01*
X115493000Y-114170206D01*
X115493000Y-113127000D01*
X115747000Y-113127000D01*
X115747000Y-114170206D01*
X115953331Y-114292727D01*
X116422663Y-114066764D01*
X116769797Y-113678396D01*
X116912716Y-113333329D01*
X116789374Y-113127000D01*
X115747000Y-113127000D01*
X115493000Y-113127000D01*
X114450626Y-113127000D01*
X114327284Y-113333329D01*
X109306924Y-113333329D01*
X109335000Y-113265548D01*
X109335000Y-112734452D01*
X109306925Y-112666671D01*
X114327284Y-112666671D01*
X114450626Y-112873000D01*
X115493000Y-112873000D01*
X115493000Y-111829794D01*
X115747000Y-111829794D01*
X115747000Y-112873000D01*
X116789374Y-112873000D01*
X116912716Y-112666671D01*
X116769797Y-112321604D01*
X116422663Y-111933236D01*
X115953331Y-111707273D01*
X115747000Y-111829794D01*
X115493000Y-111829794D01*
X115286669Y-111707273D01*
X114817337Y-111933236D01*
X114470203Y-112321604D01*
X114327284Y-112666671D01*
X109306925Y-112666671D01*
X109131758Y-112243783D01*
X108756217Y-111868242D01*
X108265548Y-111665000D01*
X107734452Y-111665000D01*
X107243783Y-111868242D01*
X106868242Y-112243783D01*
X106665000Y-112734452D01*
X104685000Y-112734452D01*
X104685000Y-101784615D01*
X109895000Y-101784615D01*
X109895000Y-102375385D01*
X110121078Y-102921185D01*
X110538815Y-103338922D01*
X111084615Y-103565000D01*
X111675385Y-103565000D01*
X112221185Y-103338922D01*
X112638922Y-102921185D01*
X112865000Y-102375385D01*
X112865000Y-101784615D01*
X112653910Y-101275000D01*
X112995113Y-101275000D01*
X113632799Y-101010862D01*
X114120862Y-100522799D01*
X114385000Y-99885113D01*
X114385000Y-99194887D01*
X114120862Y-98557201D01*
X113632799Y-98069138D01*
X112995113Y-97805000D01*
X112304887Y-97805000D01*
X111667201Y-98069138D01*
X111179138Y-98557201D01*
X110915000Y-99194887D01*
X110915000Y-99885113D01*
X111179138Y-100522799D01*
X111251339Y-100595000D01*
X111084615Y-100595000D01*
X110538815Y-100821078D01*
X110121078Y-101238815D01*
X109895000Y-101784615D01*
X104685000Y-101784615D01*
X104685000Y-91734452D01*
X106665000Y-91734452D01*
X106665000Y-92265548D01*
X106868242Y-92756217D01*
X107243783Y-93131758D01*
X107734452Y-93335000D01*
X108265548Y-93335000D01*
X108756217Y-93131758D01*
X109131758Y-92756217D01*
X109306924Y-92333329D01*
X114327284Y-92333329D01*
X114470203Y-92678396D01*
X114817337Y-93066764D01*
X115286669Y-93292727D01*
X115493000Y-93170206D01*
X115493000Y-92127000D01*
X115747000Y-92127000D01*
X115747000Y-93170206D01*
X115953331Y-93292727D01*
X116422663Y-93066764D01*
X116769797Y-92678396D01*
X116912716Y-92333329D01*
X116789374Y-92127000D01*
X115747000Y-92127000D01*
X115493000Y-92127000D01*
X114450626Y-92127000D01*
X114327284Y-92333329D01*
X109306924Y-92333329D01*
X109335000Y-92265548D01*
X109335000Y-91734452D01*
X109306925Y-91666671D01*
X114327284Y-91666671D01*
X114450626Y-91873000D01*
X115493000Y-91873000D01*
X115493000Y-90829794D01*
X115747000Y-90829794D01*
X115747000Y-91873000D01*
X116789374Y-91873000D01*
X116912716Y-91666671D01*
X116769797Y-91321604D01*
X116422663Y-90933236D01*
X115953331Y-90707273D01*
X115747000Y-90829794D01*
X115493000Y-90829794D01*
X115286669Y-90707273D01*
X114817337Y-90933236D01*
X114470203Y-91321604D01*
X114327284Y-91666671D01*
X109306925Y-91666671D01*
X109131758Y-91243783D01*
X108756217Y-90868242D01*
X108265548Y-90665000D01*
X107734452Y-90665000D01*
X107243783Y-90868242D01*
X106868242Y-91243783D01*
X106665000Y-91734452D01*
X104685000Y-91734452D01*
X104685000Y-80784615D01*
X109895000Y-80784615D01*
X109895000Y-81375385D01*
X110121078Y-81921185D01*
X110538815Y-82338922D01*
X111084615Y-82565000D01*
X111675385Y-82565000D01*
X112221185Y-82338922D01*
X112638922Y-81921185D01*
X112865000Y-81375385D01*
X112865000Y-80784615D01*
X112653910Y-80275000D01*
X112995113Y-80275000D01*
X113632799Y-80010862D01*
X114120862Y-79522799D01*
X114385000Y-78885113D01*
X114385000Y-78194887D01*
X114120862Y-77557201D01*
X113632799Y-77069138D01*
X112995113Y-76805000D01*
X112304887Y-76805000D01*
X111667201Y-77069138D01*
X111179138Y-77557201D01*
X110915000Y-78194887D01*
X110915000Y-78885113D01*
X111179138Y-79522799D01*
X111251339Y-79595000D01*
X111084615Y-79595000D01*
X110538815Y-79821078D01*
X110121078Y-80238815D01*
X109895000Y-80784615D01*
X104685000Y-80784615D01*
X104685000Y-70734452D01*
X106665000Y-70734452D01*
X106665000Y-71265548D01*
X106868242Y-71756217D01*
X107243783Y-72131758D01*
X107734452Y-72335000D01*
X108265548Y-72335000D01*
X108756217Y-72131758D01*
X109131758Y-71756217D01*
X109306924Y-71333329D01*
X114327284Y-71333329D01*
X114470203Y-71678396D01*
X114817337Y-72066764D01*
X115286669Y-72292727D01*
X115493000Y-72170206D01*
X115493000Y-71127000D01*
X115747000Y-71127000D01*
X115747000Y-72170206D01*
X115953331Y-72292727D01*
X116422663Y-72066764D01*
X116769797Y-71678396D01*
X116912716Y-71333329D01*
X116789374Y-71127000D01*
X115747000Y-71127000D01*
X115493000Y-71127000D01*
X114450626Y-71127000D01*
X114327284Y-71333329D01*
X109306924Y-71333329D01*
X109335000Y-71265548D01*
X109335000Y-70734452D01*
X109306925Y-70666671D01*
X114327284Y-70666671D01*
X114450626Y-70873000D01*
X115493000Y-70873000D01*
X115493000Y-69829794D01*
X115747000Y-69829794D01*
X115747000Y-70873000D01*
X116789374Y-70873000D01*
X116872197Y-70734452D01*
X127665000Y-70734452D01*
X127665000Y-71265548D01*
X127868242Y-71756217D01*
X128243783Y-72131758D01*
X128734452Y-72335000D01*
X129265548Y-72335000D01*
X129756217Y-72131758D01*
X130131758Y-71756217D01*
X130306924Y-71333329D01*
X135327284Y-71333329D01*
X135470203Y-71678396D01*
X135817337Y-72066764D01*
X136286669Y-72292727D01*
X136493000Y-72170206D01*
X136493000Y-71127000D01*
X136747000Y-71127000D01*
X136747000Y-72170206D01*
X136953331Y-72292727D01*
X137422663Y-72066764D01*
X137769797Y-71678396D01*
X137912716Y-71333329D01*
X137789374Y-71127000D01*
X136747000Y-71127000D01*
X136493000Y-71127000D01*
X135450626Y-71127000D01*
X135327284Y-71333329D01*
X130306924Y-71333329D01*
X130335000Y-71265548D01*
X130335000Y-70734452D01*
X130306925Y-70666671D01*
X135327284Y-70666671D01*
X135450626Y-70873000D01*
X136493000Y-70873000D01*
X136493000Y-69829794D01*
X136747000Y-69829794D01*
X136747000Y-70873000D01*
X137789374Y-70873000D01*
X137872197Y-70734452D01*
X148665000Y-70734452D01*
X148665000Y-71265548D01*
X148868242Y-71756217D01*
X149243783Y-72131758D01*
X149734452Y-72335000D01*
X150265548Y-72335000D01*
X150756217Y-72131758D01*
X151131758Y-71756217D01*
X151306924Y-71333329D01*
X156327284Y-71333329D01*
X156470203Y-71678396D01*
X156817337Y-72066764D01*
X157286669Y-72292727D01*
X157493000Y-72170206D01*
X157493000Y-71127000D01*
X157747000Y-71127000D01*
X157747000Y-72170206D01*
X157953331Y-72292727D01*
X158422663Y-72066764D01*
X158769797Y-71678396D01*
X158912716Y-71333329D01*
X158789374Y-71127000D01*
X157747000Y-71127000D01*
X157493000Y-71127000D01*
X156450626Y-71127000D01*
X156327284Y-71333329D01*
X151306924Y-71333329D01*
X151335000Y-71265548D01*
X151335000Y-70734452D01*
X151306925Y-70666671D01*
X156327284Y-70666671D01*
X156450626Y-70873000D01*
X157493000Y-70873000D01*
X157493000Y-69829794D01*
X157747000Y-69829794D01*
X157747000Y-70873000D01*
X158789374Y-70873000D01*
X158872197Y-70734452D01*
X169665000Y-70734452D01*
X169665000Y-71265548D01*
X169868242Y-71756217D01*
X170243783Y-72131758D01*
X170734452Y-72335000D01*
X171265548Y-72335000D01*
X171756217Y-72131758D01*
X172131758Y-71756217D01*
X172306924Y-71333329D01*
X177327284Y-71333329D01*
X177470203Y-71678396D01*
X177817337Y-72066764D01*
X178286669Y-72292727D01*
X178493000Y-72170206D01*
X178493000Y-71127000D01*
X178747000Y-71127000D01*
X178747000Y-72170206D01*
X178953331Y-72292727D01*
X179422663Y-72066764D01*
X179769797Y-71678396D01*
X179912716Y-71333329D01*
X179789374Y-71127000D01*
X178747000Y-71127000D01*
X178493000Y-71127000D01*
X177450626Y-71127000D01*
X177327284Y-71333329D01*
X172306924Y-71333329D01*
X172335000Y-71265548D01*
X172335000Y-70734452D01*
X172306925Y-70666671D01*
X177327284Y-70666671D01*
X177450626Y-70873000D01*
X178493000Y-70873000D01*
X178493000Y-69829794D01*
X178747000Y-69829794D01*
X178747000Y-70873000D01*
X179789374Y-70873000D01*
X179912716Y-70666671D01*
X179769797Y-70321604D01*
X179422663Y-69933236D01*
X178953331Y-69707273D01*
X178747000Y-69829794D01*
X178493000Y-69829794D01*
X178286669Y-69707273D01*
X177817337Y-69933236D01*
X177470203Y-70321604D01*
X177327284Y-70666671D01*
X172306925Y-70666671D01*
X172131758Y-70243783D01*
X171756217Y-69868242D01*
X171265548Y-69665000D01*
X170734452Y-69665000D01*
X170243783Y-69868242D01*
X169868242Y-70243783D01*
X169665000Y-70734452D01*
X158872197Y-70734452D01*
X158912716Y-70666671D01*
X158769797Y-70321604D01*
X158422663Y-69933236D01*
X157953331Y-69707273D01*
X157747000Y-69829794D01*
X157493000Y-69829794D01*
X157286669Y-69707273D01*
X156817337Y-69933236D01*
X156470203Y-70321604D01*
X156327284Y-70666671D01*
X151306925Y-70666671D01*
X151131758Y-70243783D01*
X150756217Y-69868242D01*
X150265548Y-69665000D01*
X149734452Y-69665000D01*
X149243783Y-69868242D01*
X148868242Y-70243783D01*
X148665000Y-70734452D01*
X137872197Y-70734452D01*
X137912716Y-70666671D01*
X137769797Y-70321604D01*
X137422663Y-69933236D01*
X136953331Y-69707273D01*
X136747000Y-69829794D01*
X136493000Y-69829794D01*
X136286669Y-69707273D01*
X135817337Y-69933236D01*
X135470203Y-70321604D01*
X135327284Y-70666671D01*
X130306925Y-70666671D01*
X130131758Y-70243783D01*
X129756217Y-69868242D01*
X129265548Y-69665000D01*
X128734452Y-69665000D01*
X128243783Y-69868242D01*
X127868242Y-70243783D01*
X127665000Y-70734452D01*
X116872197Y-70734452D01*
X116912716Y-70666671D01*
X116769797Y-70321604D01*
X116422663Y-69933236D01*
X115953331Y-69707273D01*
X115747000Y-69829794D01*
X115493000Y-69829794D01*
X115286669Y-69707273D01*
X114817337Y-69933236D01*
X114470203Y-70321604D01*
X114327284Y-70666671D01*
X109306925Y-70666671D01*
X109131758Y-70243783D01*
X108756217Y-69868242D01*
X108265548Y-69665000D01*
X107734452Y-69665000D01*
X107243783Y-69868242D01*
X106868242Y-70243783D01*
X106665000Y-70734452D01*
X104685000Y-70734452D01*
X104685000Y-66576022D01*
X108365900Y-66576022D01*
X108365900Y-67425378D01*
X108690934Y-68210080D01*
X109291520Y-68810666D01*
X110076222Y-69135700D01*
X110925578Y-69135700D01*
X111710280Y-68810666D01*
X112310866Y-68210080D01*
X112635900Y-67425378D01*
X112635900Y-66576022D01*
X112310866Y-65791320D01*
X111710280Y-65190734D01*
X110925578Y-64865700D01*
X110076222Y-64865700D01*
X109291520Y-65190734D01*
X108690934Y-65791320D01*
X108365900Y-66576022D01*
X104685000Y-66576022D01*
X104685000Y-40046669D01*
X123707273Y-40046669D01*
X123829794Y-40253000D01*
X124873000Y-40253000D01*
X124873000Y-39210626D01*
X125127000Y-39210626D01*
X125127000Y-40253000D01*
X126170206Y-40253000D01*
X126292727Y-40046669D01*
X126066764Y-39577337D01*
X125678396Y-39230203D01*
X125333329Y-39087284D01*
X125127000Y-39210626D01*
X124873000Y-39210626D01*
X124666671Y-39087284D01*
X124321604Y-39230203D01*
X123933236Y-39577337D01*
X123707273Y-40046669D01*
X104685000Y-40046669D01*
X104685000Y-35575322D01*
X108365900Y-35575322D01*
X108365900Y-36424678D01*
X108690934Y-37209380D01*
X109291520Y-37809966D01*
X110076222Y-38135000D01*
X110925578Y-38135000D01*
X111710280Y-37809966D01*
X112310866Y-37209380D01*
X112635900Y-36424678D01*
X112635900Y-36285750D01*
X114465000Y-36285750D01*
X114465000Y-37426310D01*
X114561673Y-37659699D01*
X114740302Y-37838327D01*
X114973691Y-37935000D01*
X115714250Y-37935000D01*
X115873000Y-37776250D01*
X115873000Y-36127000D01*
X114623750Y-36127000D01*
X114465000Y-36285750D01*
X112635900Y-36285750D01*
X112635900Y-35575322D01*
X112310866Y-34790620D01*
X112093936Y-34573690D01*
X114465000Y-34573690D01*
X114465000Y-35714250D01*
X114623750Y-35873000D01*
X115873000Y-35873000D01*
X115873000Y-34223750D01*
X115714250Y-34065000D01*
X114973691Y-34065000D01*
X114740302Y-34161673D01*
X114561673Y-34340301D01*
X114465000Y-34573690D01*
X112093936Y-34573690D01*
X111710280Y-34190034D01*
X110925578Y-33865000D01*
X110076222Y-33865000D01*
X109291520Y-34190034D01*
X108690934Y-34790620D01*
X108365900Y-35575322D01*
X104685000Y-35575322D01*
X104685000Y-34034698D01*
X104756160Y-33334139D01*
X104956307Y-32695470D01*
X105280784Y-32110098D01*
X105716343Y-31601922D01*
X106245183Y-31191711D01*
X106845712Y-30896214D01*
X107501567Y-30725377D01*
X108026313Y-30685000D01*
X125686168Y-30685000D01*
X125243783Y-30868242D01*
G36*
X132179138Y-119557201D02*
X131915000Y-120194887D01*
X131915000Y-120885113D01*
X132179138Y-121522799D01*
X132251339Y-121595000D01*
X132084615Y-121595000D01*
X131538815Y-121821078D01*
X131121078Y-122238815D01*
X130895000Y-122784615D01*
X130895000Y-123375385D01*
X131121078Y-123921185D01*
X131538815Y-124338922D01*
X132084615Y-124565000D01*
X132675385Y-124565000D01*
X133221185Y-124338922D01*
X133638922Y-123921185D01*
X133865000Y-123375385D01*
X133865000Y-122784615D01*
X133653910Y-122275000D01*
X133995113Y-122275000D01*
X134632799Y-122010862D01*
X135120862Y-121522799D01*
X135385000Y-120885113D01*
X135385000Y-120194887D01*
X135120862Y-119557201D01*
X134698661Y-119135000D01*
X138681339Y-119135000D01*
X139017201Y-119470862D01*
X139025002Y-119474093D01*
X139025002Y-120918549D01*
X138952608Y-120846155D01*
X137984134Y-120445000D01*
X136935866Y-120445000D01*
X135967392Y-120846155D01*
X135226155Y-121587392D01*
X134825000Y-122555866D01*
X134825000Y-123604134D01*
X135226155Y-124572608D01*
X135967392Y-125313845D01*
X136935866Y-125715000D01*
X137984134Y-125715000D01*
X138952608Y-125313845D01*
X139025002Y-125241451D01*
X139025002Y-136860609D01*
X138930855Y-137001511D01*
X138930854Y-137001512D01*
X138842765Y-137444366D01*
X138865000Y-137556149D01*
X138865000Y-137681339D01*
X138681339Y-137865000D01*
X120318661Y-137865000D01*
X120209814Y-137756153D01*
X120229147Y-137727220D01*
X120295001Y-137396148D01*
X120317236Y-137284365D01*
X120295001Y-137172582D01*
X120295001Y-133734452D01*
X127665000Y-133734452D01*
X127665000Y-134265548D01*
X127868242Y-134756217D01*
X128243783Y-135131758D01*
X128734452Y-135335000D01*
X129265548Y-135335000D01*
X129756217Y-135131758D01*
X130131758Y-134756217D01*
X130306924Y-134333329D01*
X135327284Y-134333329D01*
X135470203Y-134678396D01*
X135817337Y-135066764D01*
X136286669Y-135292727D01*
X136493000Y-135170206D01*
X136493000Y-134127000D01*
X136747000Y-134127000D01*
X136747000Y-135170206D01*
X136953331Y-135292727D01*
X137422663Y-135066764D01*
X137769797Y-134678396D01*
X137912716Y-134333329D01*
X137789374Y-134127000D01*
X136747000Y-134127000D01*
X136493000Y-134127000D01*
X135450626Y-134127000D01*
X135327284Y-134333329D01*
X130306924Y-134333329D01*
X130335000Y-134265548D01*
X130335000Y-133734452D01*
X130306925Y-133666671D01*
X135327284Y-133666671D01*
X135450626Y-133873000D01*
X136493000Y-133873000D01*
X136493000Y-132829794D01*
X136747000Y-132829794D01*
X136747000Y-133873000D01*
X137789374Y-133873000D01*
X137912716Y-133666671D01*
X137769797Y-133321604D01*
X137422663Y-132933236D01*
X136953331Y-132707273D01*
X136747000Y-132829794D01*
X136493000Y-132829794D01*
X136286669Y-132707273D01*
X135817337Y-132933236D01*
X135470203Y-133321604D01*
X135327284Y-133666671D01*
X130306925Y-133666671D01*
X130131758Y-133243783D01*
X129756217Y-132868242D01*
X129265548Y-132665000D01*
X128734452Y-132665000D01*
X128243783Y-132868242D01*
X127868242Y-133243783D01*
X127665000Y-133734452D01*
X120295001Y-133734452D01*
X120295001Y-123935108D01*
X120698815Y-124338922D01*
X121244615Y-124565000D01*
X121835385Y-124565000D01*
X122381185Y-124338922D01*
X122798922Y-123921185D01*
X123025000Y-123375385D01*
X123025000Y-122784615D01*
X122798922Y-122238815D01*
X122381185Y-121821078D01*
X121835385Y-121595000D01*
X121244615Y-121595000D01*
X120698815Y-121821078D01*
X120295001Y-122224892D01*
X120295001Y-119827418D01*
X120317236Y-119715635D01*
X120229147Y-119272781D01*
X120229147Y-119272780D01*
X120209814Y-119243847D01*
X120318661Y-119135000D01*
X132601339Y-119135000D01*
X132179138Y-119557201D01*
X132179138Y-119557201D01*
G37*
X132179138Y-119557201D02*
X131915000Y-120194887D01*
X131915000Y-120885113D01*
X132179138Y-121522799D01*
X132251339Y-121595000D01*
X132084615Y-121595000D01*
X131538815Y-121821078D01*
X131121078Y-122238815D01*
X130895000Y-122784615D01*
X130895000Y-123375385D01*
X131121078Y-123921185D01*
X131538815Y-124338922D01*
X132084615Y-124565000D01*
X132675385Y-124565000D01*
X133221185Y-124338922D01*
X133638922Y-123921185D01*
X133865000Y-123375385D01*
X133865000Y-122784615D01*
X133653910Y-122275000D01*
X133995113Y-122275000D01*
X134632799Y-122010862D01*
X135120862Y-121522799D01*
X135385000Y-120885113D01*
X135385000Y-120194887D01*
X135120862Y-119557201D01*
X134698661Y-119135000D01*
X138681339Y-119135000D01*
X139017201Y-119470862D01*
X139025002Y-119474093D01*
X139025002Y-120918549D01*
X138952608Y-120846155D01*
X137984134Y-120445000D01*
X136935866Y-120445000D01*
X135967392Y-120846155D01*
X135226155Y-121587392D01*
X134825000Y-122555866D01*
X134825000Y-123604134D01*
X135226155Y-124572608D01*
X135967392Y-125313845D01*
X136935866Y-125715000D01*
X137984134Y-125715000D01*
X138952608Y-125313845D01*
X139025002Y-125241451D01*
X139025002Y-136860609D01*
X138930855Y-137001511D01*
X138930854Y-137001512D01*
X138842765Y-137444366D01*
X138865000Y-137556149D01*
X138865000Y-137681339D01*
X138681339Y-137865000D01*
X120318661Y-137865000D01*
X120209814Y-137756153D01*
X120229147Y-137727220D01*
X120295001Y-137396148D01*
X120317236Y-137284365D01*
X120295001Y-137172582D01*
X120295001Y-133734452D01*
X127665000Y-133734452D01*
X127665000Y-134265548D01*
X127868242Y-134756217D01*
X128243783Y-135131758D01*
X128734452Y-135335000D01*
X129265548Y-135335000D01*
X129756217Y-135131758D01*
X130131758Y-134756217D01*
X130306924Y-134333329D01*
X135327284Y-134333329D01*
X135470203Y-134678396D01*
X135817337Y-135066764D01*
X136286669Y-135292727D01*
X136493000Y-135170206D01*
X136493000Y-134127000D01*
X136747000Y-134127000D01*
X136747000Y-135170206D01*
X136953331Y-135292727D01*
X137422663Y-135066764D01*
X137769797Y-134678396D01*
X137912716Y-134333329D01*
X137789374Y-134127000D01*
X136747000Y-134127000D01*
X136493000Y-134127000D01*
X135450626Y-134127000D01*
X135327284Y-134333329D01*
X130306924Y-134333329D01*
X130335000Y-134265548D01*
X130335000Y-133734452D01*
X130306925Y-133666671D01*
X135327284Y-133666671D01*
X135450626Y-133873000D01*
X136493000Y-133873000D01*
X136493000Y-132829794D01*
X136747000Y-132829794D01*
X136747000Y-133873000D01*
X137789374Y-133873000D01*
X137912716Y-133666671D01*
X137769797Y-133321604D01*
X137422663Y-132933236D01*
X136953331Y-132707273D01*
X136747000Y-132829794D01*
X136493000Y-132829794D01*
X136286669Y-132707273D01*
X135817337Y-132933236D01*
X135470203Y-133321604D01*
X135327284Y-133666671D01*
X130306925Y-133666671D01*
X130131758Y-133243783D01*
X129756217Y-132868242D01*
X129265548Y-132665000D01*
X128734452Y-132665000D01*
X128243783Y-132868242D01*
X127868242Y-133243783D01*
X127665000Y-133734452D01*
X120295001Y-133734452D01*
X120295001Y-123935108D01*
X120698815Y-124338922D01*
X121244615Y-124565000D01*
X121835385Y-124565000D01*
X122381185Y-124338922D01*
X122798922Y-123921185D01*
X123025000Y-123375385D01*
X123025000Y-122784615D01*
X122798922Y-122238815D01*
X122381185Y-121821078D01*
X121835385Y-121595000D01*
X121244615Y-121595000D01*
X120698815Y-121821078D01*
X120295001Y-122224892D01*
X120295001Y-119827418D01*
X120317236Y-119715635D01*
X120229147Y-119272781D01*
X120229147Y-119272780D01*
X120209814Y-119243847D01*
X120318661Y-119135000D01*
X132601339Y-119135000D01*
X132179138Y-119557201D01*
G36*
X153179138Y-119557201D02*
X152915000Y-120194887D01*
X152915000Y-120885113D01*
X153179138Y-121522799D01*
X153251339Y-121595000D01*
X153084615Y-121595000D01*
X152538815Y-121821078D01*
X152121078Y-122238815D01*
X151895000Y-122784615D01*
X151895000Y-123375385D01*
X152121078Y-123921185D01*
X152538815Y-124338922D01*
X153084615Y-124565000D01*
X153675385Y-124565000D01*
X154221185Y-124338922D01*
X154638922Y-123921185D01*
X154865000Y-123375385D01*
X154865000Y-122784615D01*
X154653910Y-122275000D01*
X154995113Y-122275000D01*
X155632799Y-122010862D01*
X156120862Y-121522799D01*
X156385000Y-120885113D01*
X156385000Y-120194887D01*
X156120862Y-119557201D01*
X155698661Y-119135000D01*
X159681339Y-119135000D01*
X160017201Y-119470862D01*
X160025002Y-119474093D01*
X160025002Y-120918549D01*
X159952608Y-120846155D01*
X158984134Y-120445000D01*
X157935866Y-120445000D01*
X156967392Y-120846155D01*
X156226155Y-121587392D01*
X155825000Y-122555866D01*
X155825000Y-123604134D01*
X156226155Y-124572608D01*
X156967392Y-125313845D01*
X157935866Y-125715000D01*
X158984134Y-125715000D01*
X159952608Y-125313845D01*
X160025002Y-125241451D01*
X160025002Y-136860609D01*
X159930855Y-137001511D01*
X159930854Y-137001512D01*
X159842765Y-137444366D01*
X159865000Y-137556149D01*
X159865000Y-137681339D01*
X159681339Y-137865000D01*
X141318661Y-137865000D01*
X141209814Y-137756153D01*
X141229147Y-137727220D01*
X141295001Y-137396148D01*
X141317236Y-137284365D01*
X141295001Y-137172582D01*
X141295001Y-133734452D01*
X148665000Y-133734452D01*
X148665000Y-134265548D01*
X148868242Y-134756217D01*
X149243783Y-135131758D01*
X149734452Y-135335000D01*
X150265548Y-135335000D01*
X150756217Y-135131758D01*
X151131758Y-134756217D01*
X151306924Y-134333329D01*
X156327284Y-134333329D01*
X156470203Y-134678396D01*
X156817337Y-135066764D01*
X157286669Y-135292727D01*
X157493000Y-135170206D01*
X157493000Y-134127000D01*
X157747000Y-134127000D01*
X157747000Y-135170206D01*
X157953331Y-135292727D01*
X158422663Y-135066764D01*
X158769797Y-134678396D01*
X158912716Y-134333329D01*
X158789374Y-134127000D01*
X157747000Y-134127000D01*
X157493000Y-134127000D01*
X156450626Y-134127000D01*
X156327284Y-134333329D01*
X151306924Y-134333329D01*
X151335000Y-134265548D01*
X151335000Y-133734452D01*
X151306925Y-133666671D01*
X156327284Y-133666671D01*
X156450626Y-133873000D01*
X157493000Y-133873000D01*
X157493000Y-132829794D01*
X157747000Y-132829794D01*
X157747000Y-133873000D01*
X158789374Y-133873000D01*
X158912716Y-133666671D01*
X158769797Y-133321604D01*
X158422663Y-132933236D01*
X157953331Y-132707273D01*
X157747000Y-132829794D01*
X157493000Y-132829794D01*
X157286669Y-132707273D01*
X156817337Y-132933236D01*
X156470203Y-133321604D01*
X156327284Y-133666671D01*
X151306925Y-133666671D01*
X151131758Y-133243783D01*
X150756217Y-132868242D01*
X150265548Y-132665000D01*
X149734452Y-132665000D01*
X149243783Y-132868242D01*
X148868242Y-133243783D01*
X148665000Y-133734452D01*
X141295001Y-133734452D01*
X141295001Y-123935108D01*
X141698815Y-124338922D01*
X142244615Y-124565000D01*
X142835385Y-124565000D01*
X143381185Y-124338922D01*
X143798922Y-123921185D01*
X144025000Y-123375385D01*
X144025000Y-122784615D01*
X143798922Y-122238815D01*
X143381185Y-121821078D01*
X142835385Y-121595000D01*
X142244615Y-121595000D01*
X141698815Y-121821078D01*
X141295001Y-122224892D01*
X141295001Y-119158660D01*
X141318661Y-119135000D01*
X153601339Y-119135000D01*
X153179138Y-119557201D01*
X153179138Y-119557201D01*
G37*
X153179138Y-119557201D02*
X152915000Y-120194887D01*
X152915000Y-120885113D01*
X153179138Y-121522799D01*
X153251339Y-121595000D01*
X153084615Y-121595000D01*
X152538815Y-121821078D01*
X152121078Y-122238815D01*
X151895000Y-122784615D01*
X151895000Y-123375385D01*
X152121078Y-123921185D01*
X152538815Y-124338922D01*
X153084615Y-124565000D01*
X153675385Y-124565000D01*
X154221185Y-124338922D01*
X154638922Y-123921185D01*
X154865000Y-123375385D01*
X154865000Y-122784615D01*
X154653910Y-122275000D01*
X154995113Y-122275000D01*
X155632799Y-122010862D01*
X156120862Y-121522799D01*
X156385000Y-120885113D01*
X156385000Y-120194887D01*
X156120862Y-119557201D01*
X155698661Y-119135000D01*
X159681339Y-119135000D01*
X160017201Y-119470862D01*
X160025002Y-119474093D01*
X160025002Y-120918549D01*
X159952608Y-120846155D01*
X158984134Y-120445000D01*
X157935866Y-120445000D01*
X156967392Y-120846155D01*
X156226155Y-121587392D01*
X155825000Y-122555866D01*
X155825000Y-123604134D01*
X156226155Y-124572608D01*
X156967392Y-125313845D01*
X157935866Y-125715000D01*
X158984134Y-125715000D01*
X159952608Y-125313845D01*
X160025002Y-125241451D01*
X160025002Y-136860609D01*
X159930855Y-137001511D01*
X159930854Y-137001512D01*
X159842765Y-137444366D01*
X159865000Y-137556149D01*
X159865000Y-137681339D01*
X159681339Y-137865000D01*
X141318661Y-137865000D01*
X141209814Y-137756153D01*
X141229147Y-137727220D01*
X141295001Y-137396148D01*
X141317236Y-137284365D01*
X141295001Y-137172582D01*
X141295001Y-133734452D01*
X148665000Y-133734452D01*
X148665000Y-134265548D01*
X148868242Y-134756217D01*
X149243783Y-135131758D01*
X149734452Y-135335000D01*
X150265548Y-135335000D01*
X150756217Y-135131758D01*
X151131758Y-134756217D01*
X151306924Y-134333329D01*
X156327284Y-134333329D01*
X156470203Y-134678396D01*
X156817337Y-135066764D01*
X157286669Y-135292727D01*
X157493000Y-135170206D01*
X157493000Y-134127000D01*
X157747000Y-134127000D01*
X157747000Y-135170206D01*
X157953331Y-135292727D01*
X158422663Y-135066764D01*
X158769797Y-134678396D01*
X158912716Y-134333329D01*
X158789374Y-134127000D01*
X157747000Y-134127000D01*
X157493000Y-134127000D01*
X156450626Y-134127000D01*
X156327284Y-134333329D01*
X151306924Y-134333329D01*
X151335000Y-134265548D01*
X151335000Y-133734452D01*
X151306925Y-133666671D01*
X156327284Y-133666671D01*
X156450626Y-133873000D01*
X157493000Y-133873000D01*
X157493000Y-132829794D01*
X157747000Y-132829794D01*
X157747000Y-133873000D01*
X158789374Y-133873000D01*
X158912716Y-133666671D01*
X158769797Y-133321604D01*
X158422663Y-132933236D01*
X157953331Y-132707273D01*
X157747000Y-132829794D01*
X157493000Y-132829794D01*
X157286669Y-132707273D01*
X156817337Y-132933236D01*
X156470203Y-133321604D01*
X156327284Y-133666671D01*
X151306925Y-133666671D01*
X151131758Y-133243783D01*
X150756217Y-132868242D01*
X150265548Y-132665000D01*
X149734452Y-132665000D01*
X149243783Y-132868242D01*
X148868242Y-133243783D01*
X148665000Y-133734452D01*
X141295001Y-133734452D01*
X141295001Y-123935108D01*
X141698815Y-124338922D01*
X142244615Y-124565000D01*
X142835385Y-124565000D01*
X143381185Y-124338922D01*
X143798922Y-123921185D01*
X144025000Y-123375385D01*
X144025000Y-122784615D01*
X143798922Y-122238815D01*
X143381185Y-121821078D01*
X142835385Y-121595000D01*
X142244615Y-121595000D01*
X141698815Y-121821078D01*
X141295001Y-122224892D01*
X141295001Y-119158660D01*
X141318661Y-119135000D01*
X153601339Y-119135000D01*
X153179138Y-119557201D01*
G36*
X174179138Y-119557201D02*
X173915000Y-120194887D01*
X173915000Y-120885113D01*
X174179138Y-121522799D01*
X174251339Y-121595000D01*
X174084615Y-121595000D01*
X173538815Y-121821078D01*
X173121078Y-122238815D01*
X172895000Y-122784615D01*
X172895000Y-123375385D01*
X173121078Y-123921185D01*
X173538815Y-124338922D01*
X174084615Y-124565000D01*
X174675385Y-124565000D01*
X175221185Y-124338922D01*
X175638922Y-123921185D01*
X175865000Y-123375385D01*
X175865000Y-122784615D01*
X175653910Y-122275000D01*
X175995113Y-122275000D01*
X176632799Y-122010862D01*
X177120862Y-121522799D01*
X177385000Y-120885113D01*
X177385000Y-120194887D01*
X177120862Y-119557201D01*
X176698661Y-119135000D01*
X180681339Y-119135000D01*
X180865000Y-119318661D01*
X180865000Y-119443851D01*
X180842765Y-119555634D01*
X180930854Y-119998488D01*
X180930855Y-119998489D01*
X181025001Y-120139388D01*
X181025001Y-120918548D01*
X180952608Y-120846155D01*
X179984134Y-120445000D01*
X178935866Y-120445000D01*
X177967392Y-120846155D01*
X177226155Y-121587392D01*
X176825000Y-122555866D01*
X176825000Y-123604134D01*
X177226155Y-124572608D01*
X177967392Y-125313845D01*
X178935866Y-125715000D01*
X179984134Y-125715000D01*
X180952608Y-125313845D01*
X181025001Y-125241452D01*
X181025002Y-136860609D01*
X180930855Y-137001511D01*
X180930854Y-137001512D01*
X180842765Y-137444366D01*
X180865000Y-137556149D01*
X180865000Y-137681339D01*
X180681339Y-137865000D01*
X162318661Y-137865000D01*
X162209814Y-137756153D01*
X162229147Y-137727220D01*
X162295001Y-137396148D01*
X162317236Y-137284365D01*
X162295001Y-137172582D01*
X162295001Y-133734452D01*
X169665000Y-133734452D01*
X169665000Y-134265548D01*
X169868242Y-134756217D01*
X170243783Y-135131758D01*
X170734452Y-135335000D01*
X171265548Y-135335000D01*
X171756217Y-135131758D01*
X172131758Y-134756217D01*
X172306924Y-134333329D01*
X177327284Y-134333329D01*
X177470203Y-134678396D01*
X177817337Y-135066764D01*
X178286669Y-135292727D01*
X178493000Y-135170206D01*
X178493000Y-134127000D01*
X178747000Y-134127000D01*
X178747000Y-135170206D01*
X178953331Y-135292727D01*
X179422663Y-135066764D01*
X179769797Y-134678396D01*
X179912716Y-134333329D01*
X179789374Y-134127000D01*
X178747000Y-134127000D01*
X178493000Y-134127000D01*
X177450626Y-134127000D01*
X177327284Y-134333329D01*
X172306924Y-134333329D01*
X172335000Y-134265548D01*
X172335000Y-133734452D01*
X172306925Y-133666671D01*
X177327284Y-133666671D01*
X177450626Y-133873000D01*
X178493000Y-133873000D01*
X178493000Y-132829794D01*
X178747000Y-132829794D01*
X178747000Y-133873000D01*
X179789374Y-133873000D01*
X179912716Y-133666671D01*
X179769797Y-133321604D01*
X179422663Y-132933236D01*
X178953331Y-132707273D01*
X178747000Y-132829794D01*
X178493000Y-132829794D01*
X178286669Y-132707273D01*
X177817337Y-132933236D01*
X177470203Y-133321604D01*
X177327284Y-133666671D01*
X172306925Y-133666671D01*
X172131758Y-133243783D01*
X171756217Y-132868242D01*
X171265548Y-132665000D01*
X170734452Y-132665000D01*
X170243783Y-132868242D01*
X169868242Y-133243783D01*
X169665000Y-133734452D01*
X162295001Y-133734452D01*
X162295001Y-123935108D01*
X162698815Y-124338922D01*
X163244615Y-124565000D01*
X163835385Y-124565000D01*
X164381185Y-124338922D01*
X164798922Y-123921185D01*
X165025000Y-123375385D01*
X165025000Y-122784615D01*
X164798922Y-122238815D01*
X164381185Y-121821078D01*
X163835385Y-121595000D01*
X163244615Y-121595000D01*
X162698815Y-121821078D01*
X162295001Y-122224892D01*
X162295001Y-119158660D01*
X162318661Y-119135000D01*
X174601339Y-119135000D01*
X174179138Y-119557201D01*
X174179138Y-119557201D01*
G37*
X174179138Y-119557201D02*
X173915000Y-120194887D01*
X173915000Y-120885113D01*
X174179138Y-121522799D01*
X174251339Y-121595000D01*
X174084615Y-121595000D01*
X173538815Y-121821078D01*
X173121078Y-122238815D01*
X172895000Y-122784615D01*
X172895000Y-123375385D01*
X173121078Y-123921185D01*
X173538815Y-124338922D01*
X174084615Y-124565000D01*
X174675385Y-124565000D01*
X175221185Y-124338922D01*
X175638922Y-123921185D01*
X175865000Y-123375385D01*
X175865000Y-122784615D01*
X175653910Y-122275000D01*
X175995113Y-122275000D01*
X176632799Y-122010862D01*
X177120862Y-121522799D01*
X177385000Y-120885113D01*
X177385000Y-120194887D01*
X177120862Y-119557201D01*
X176698661Y-119135000D01*
X180681339Y-119135000D01*
X180865000Y-119318661D01*
X180865000Y-119443851D01*
X180842765Y-119555634D01*
X180930854Y-119998488D01*
X180930855Y-119998489D01*
X181025001Y-120139388D01*
X181025001Y-120918548D01*
X180952608Y-120846155D01*
X179984134Y-120445000D01*
X178935866Y-120445000D01*
X177967392Y-120846155D01*
X177226155Y-121587392D01*
X176825000Y-122555866D01*
X176825000Y-123604134D01*
X177226155Y-124572608D01*
X177967392Y-125313845D01*
X178935866Y-125715000D01*
X179984134Y-125715000D01*
X180952608Y-125313845D01*
X181025001Y-125241452D01*
X181025002Y-136860609D01*
X180930855Y-137001511D01*
X180930854Y-137001512D01*
X180842765Y-137444366D01*
X180865000Y-137556149D01*
X180865000Y-137681339D01*
X180681339Y-137865000D01*
X162318661Y-137865000D01*
X162209814Y-137756153D01*
X162229147Y-137727220D01*
X162295001Y-137396148D01*
X162317236Y-137284365D01*
X162295001Y-137172582D01*
X162295001Y-133734452D01*
X169665000Y-133734452D01*
X169665000Y-134265548D01*
X169868242Y-134756217D01*
X170243783Y-135131758D01*
X170734452Y-135335000D01*
X171265548Y-135335000D01*
X171756217Y-135131758D01*
X172131758Y-134756217D01*
X172306924Y-134333329D01*
X177327284Y-134333329D01*
X177470203Y-134678396D01*
X177817337Y-135066764D01*
X178286669Y-135292727D01*
X178493000Y-135170206D01*
X178493000Y-134127000D01*
X178747000Y-134127000D01*
X178747000Y-135170206D01*
X178953331Y-135292727D01*
X179422663Y-135066764D01*
X179769797Y-134678396D01*
X179912716Y-134333329D01*
X179789374Y-134127000D01*
X178747000Y-134127000D01*
X178493000Y-134127000D01*
X177450626Y-134127000D01*
X177327284Y-134333329D01*
X172306924Y-134333329D01*
X172335000Y-134265548D01*
X172335000Y-133734452D01*
X172306925Y-133666671D01*
X177327284Y-133666671D01*
X177450626Y-133873000D01*
X178493000Y-133873000D01*
X178493000Y-132829794D01*
X178747000Y-132829794D01*
X178747000Y-133873000D01*
X179789374Y-133873000D01*
X179912716Y-133666671D01*
X179769797Y-133321604D01*
X179422663Y-132933236D01*
X178953331Y-132707273D01*
X178747000Y-132829794D01*
X178493000Y-132829794D01*
X178286669Y-132707273D01*
X177817337Y-132933236D01*
X177470203Y-133321604D01*
X177327284Y-133666671D01*
X172306925Y-133666671D01*
X172131758Y-133243783D01*
X171756217Y-132868242D01*
X171265548Y-132665000D01*
X170734452Y-132665000D01*
X170243783Y-132868242D01*
X169868242Y-133243783D01*
X169665000Y-133734452D01*
X162295001Y-133734452D01*
X162295001Y-123935108D01*
X162698815Y-124338922D01*
X163244615Y-124565000D01*
X163835385Y-124565000D01*
X164381185Y-124338922D01*
X164798922Y-123921185D01*
X165025000Y-123375385D01*
X165025000Y-122784615D01*
X164798922Y-122238815D01*
X164381185Y-121821078D01*
X163835385Y-121595000D01*
X163244615Y-121595000D01*
X162698815Y-121821078D01*
X162295001Y-122224892D01*
X162295001Y-119158660D01*
X162318661Y-119135000D01*
X174601339Y-119135000D01*
X174179138Y-119557201D01*
G36*
X174179138Y-98557201D02*
X173915000Y-99194887D01*
X173915000Y-99885113D01*
X174179138Y-100522799D01*
X174251339Y-100595000D01*
X174084615Y-100595000D01*
X173538815Y-100821078D01*
X173121078Y-101238815D01*
X172895000Y-101784615D01*
X172895000Y-102375385D01*
X173121078Y-102921185D01*
X173538815Y-103338922D01*
X174084615Y-103565000D01*
X174675385Y-103565000D01*
X175221185Y-103338922D01*
X175638922Y-102921185D01*
X175865000Y-102375385D01*
X175865000Y-101784615D01*
X175653910Y-101275000D01*
X175995113Y-101275000D01*
X176632799Y-101010862D01*
X177120862Y-100522799D01*
X177385000Y-99885113D01*
X177385000Y-99194887D01*
X177120862Y-98557201D01*
X176698661Y-98135000D01*
X180681339Y-98135000D01*
X180865000Y-98318661D01*
X180865001Y-99809867D01*
X179984134Y-99445000D01*
X178935866Y-99445000D01*
X177967392Y-99846155D01*
X177226155Y-100587392D01*
X176825000Y-101555866D01*
X176825000Y-102604134D01*
X177226155Y-103572608D01*
X177967392Y-104313845D01*
X178935866Y-104715000D01*
X179984134Y-104715000D01*
X180952608Y-104313845D01*
X181025001Y-104241452D01*
X181025002Y-115860609D01*
X180930855Y-116001511D01*
X180930854Y-116001512D01*
X180842765Y-116444366D01*
X180865000Y-116556149D01*
X180865000Y-116681339D01*
X180681339Y-116865000D01*
X162318661Y-116865000D01*
X162295001Y-116841340D01*
X162295001Y-112734452D01*
X169665000Y-112734452D01*
X169665000Y-113265548D01*
X169868242Y-113756217D01*
X170243783Y-114131758D01*
X170734452Y-114335000D01*
X171265548Y-114335000D01*
X171756217Y-114131758D01*
X172131758Y-113756217D01*
X172306924Y-113333329D01*
X177327284Y-113333329D01*
X177470203Y-113678396D01*
X177817337Y-114066764D01*
X178286669Y-114292727D01*
X178493000Y-114170206D01*
X178493000Y-113127000D01*
X178747000Y-113127000D01*
X178747000Y-114170206D01*
X178953331Y-114292727D01*
X179422663Y-114066764D01*
X179769797Y-113678396D01*
X179912716Y-113333329D01*
X179789374Y-113127000D01*
X178747000Y-113127000D01*
X178493000Y-113127000D01*
X177450626Y-113127000D01*
X177327284Y-113333329D01*
X172306924Y-113333329D01*
X172335000Y-113265548D01*
X172335000Y-112734452D01*
X172306925Y-112666671D01*
X177327284Y-112666671D01*
X177450626Y-112873000D01*
X178493000Y-112873000D01*
X178493000Y-111829794D01*
X178747000Y-111829794D01*
X178747000Y-112873000D01*
X179789374Y-112873000D01*
X179912716Y-112666671D01*
X179769797Y-112321604D01*
X179422663Y-111933236D01*
X178953331Y-111707273D01*
X178747000Y-111829794D01*
X178493000Y-111829794D01*
X178286669Y-111707273D01*
X177817337Y-111933236D01*
X177470203Y-112321604D01*
X177327284Y-112666671D01*
X172306925Y-112666671D01*
X172131758Y-112243783D01*
X171756217Y-111868242D01*
X171265548Y-111665000D01*
X170734452Y-111665000D01*
X170243783Y-111868242D01*
X169868242Y-112243783D01*
X169665000Y-112734452D01*
X162295001Y-112734452D01*
X162295001Y-102935108D01*
X162698815Y-103338922D01*
X163244615Y-103565000D01*
X163835385Y-103565000D01*
X164381185Y-103338922D01*
X164798922Y-102921185D01*
X165025000Y-102375385D01*
X165025000Y-101784615D01*
X164798922Y-101238815D01*
X164381185Y-100821078D01*
X163835385Y-100595000D01*
X163244615Y-100595000D01*
X162698815Y-100821078D01*
X162295001Y-101224892D01*
X162295001Y-98158660D01*
X162318661Y-98135000D01*
X174601339Y-98135000D01*
X174179138Y-98557201D01*
X174179138Y-98557201D01*
G37*
X174179138Y-98557201D02*
X173915000Y-99194887D01*
X173915000Y-99885113D01*
X174179138Y-100522799D01*
X174251339Y-100595000D01*
X174084615Y-100595000D01*
X173538815Y-100821078D01*
X173121078Y-101238815D01*
X172895000Y-101784615D01*
X172895000Y-102375385D01*
X173121078Y-102921185D01*
X173538815Y-103338922D01*
X174084615Y-103565000D01*
X174675385Y-103565000D01*
X175221185Y-103338922D01*
X175638922Y-102921185D01*
X175865000Y-102375385D01*
X175865000Y-101784615D01*
X175653910Y-101275000D01*
X175995113Y-101275000D01*
X176632799Y-101010862D01*
X177120862Y-100522799D01*
X177385000Y-99885113D01*
X177385000Y-99194887D01*
X177120862Y-98557201D01*
X176698661Y-98135000D01*
X180681339Y-98135000D01*
X180865000Y-98318661D01*
X180865001Y-99809867D01*
X179984134Y-99445000D01*
X178935866Y-99445000D01*
X177967392Y-99846155D01*
X177226155Y-100587392D01*
X176825000Y-101555866D01*
X176825000Y-102604134D01*
X177226155Y-103572608D01*
X177967392Y-104313845D01*
X178935866Y-104715000D01*
X179984134Y-104715000D01*
X180952608Y-104313845D01*
X181025001Y-104241452D01*
X181025002Y-115860609D01*
X180930855Y-116001511D01*
X180930854Y-116001512D01*
X180842765Y-116444366D01*
X180865000Y-116556149D01*
X180865000Y-116681339D01*
X180681339Y-116865000D01*
X162318661Y-116865000D01*
X162295001Y-116841340D01*
X162295001Y-112734452D01*
X169665000Y-112734452D01*
X169665000Y-113265548D01*
X169868242Y-113756217D01*
X170243783Y-114131758D01*
X170734452Y-114335000D01*
X171265548Y-114335000D01*
X171756217Y-114131758D01*
X172131758Y-113756217D01*
X172306924Y-113333329D01*
X177327284Y-113333329D01*
X177470203Y-113678396D01*
X177817337Y-114066764D01*
X178286669Y-114292727D01*
X178493000Y-114170206D01*
X178493000Y-113127000D01*
X178747000Y-113127000D01*
X178747000Y-114170206D01*
X178953331Y-114292727D01*
X179422663Y-114066764D01*
X179769797Y-113678396D01*
X179912716Y-113333329D01*
X179789374Y-113127000D01*
X178747000Y-113127000D01*
X178493000Y-113127000D01*
X177450626Y-113127000D01*
X177327284Y-113333329D01*
X172306924Y-113333329D01*
X172335000Y-113265548D01*
X172335000Y-112734452D01*
X172306925Y-112666671D01*
X177327284Y-112666671D01*
X177450626Y-112873000D01*
X178493000Y-112873000D01*
X178493000Y-111829794D01*
X178747000Y-111829794D01*
X178747000Y-112873000D01*
X179789374Y-112873000D01*
X179912716Y-112666671D01*
X179769797Y-112321604D01*
X179422663Y-111933236D01*
X178953331Y-111707273D01*
X178747000Y-111829794D01*
X178493000Y-111829794D01*
X178286669Y-111707273D01*
X177817337Y-111933236D01*
X177470203Y-112321604D01*
X177327284Y-112666671D01*
X172306925Y-112666671D01*
X172131758Y-112243783D01*
X171756217Y-111868242D01*
X171265548Y-111665000D01*
X170734452Y-111665000D01*
X170243783Y-111868242D01*
X169868242Y-112243783D01*
X169665000Y-112734452D01*
X162295001Y-112734452D01*
X162295001Y-102935108D01*
X162698815Y-103338922D01*
X163244615Y-103565000D01*
X163835385Y-103565000D01*
X164381185Y-103338922D01*
X164798922Y-102921185D01*
X165025000Y-102375385D01*
X165025000Y-101784615D01*
X164798922Y-101238815D01*
X164381185Y-100821078D01*
X163835385Y-100595000D01*
X163244615Y-100595000D01*
X162698815Y-100821078D01*
X162295001Y-101224892D01*
X162295001Y-98158660D01*
X162318661Y-98135000D01*
X174601339Y-98135000D01*
X174179138Y-98557201D01*
G36*
X132179138Y-98557201D02*
X131915000Y-99194887D01*
X131915000Y-99885113D01*
X132179138Y-100522799D01*
X132251339Y-100595000D01*
X132084615Y-100595000D01*
X131538815Y-100821078D01*
X131121078Y-101238815D01*
X130895000Y-101784615D01*
X130895000Y-102375385D01*
X131121078Y-102921185D01*
X131538815Y-103338922D01*
X132084615Y-103565000D01*
X132675385Y-103565000D01*
X133221185Y-103338922D01*
X133638922Y-102921185D01*
X133865000Y-102375385D01*
X133865000Y-101784615D01*
X133653910Y-101275000D01*
X133995113Y-101275000D01*
X134632799Y-101010862D01*
X135120862Y-100522799D01*
X135385000Y-99885113D01*
X135385000Y-99194887D01*
X135120862Y-98557201D01*
X134698661Y-98135000D01*
X138681339Y-98135000D01*
X139017201Y-98470862D01*
X139025001Y-98474093D01*
X139025001Y-99918548D01*
X138952608Y-99846155D01*
X137984134Y-99445000D01*
X136935866Y-99445000D01*
X135967392Y-99846155D01*
X135226155Y-100587392D01*
X134825000Y-101555866D01*
X134825000Y-102604134D01*
X135226155Y-103572608D01*
X135967392Y-104313845D01*
X136935866Y-104715000D01*
X137984134Y-104715000D01*
X138952608Y-104313845D01*
X139025001Y-104241452D01*
X139025002Y-116525907D01*
X139017201Y-116529138D01*
X138681339Y-116865000D01*
X120318661Y-116865000D01*
X120209814Y-116756153D01*
X120229147Y-116727220D01*
X120295001Y-116396148D01*
X120317236Y-116284365D01*
X120295001Y-116172582D01*
X120295001Y-112734452D01*
X127665000Y-112734452D01*
X127665000Y-113265548D01*
X127868242Y-113756217D01*
X128243783Y-114131758D01*
X128734452Y-114335000D01*
X129265548Y-114335000D01*
X129756217Y-114131758D01*
X130131758Y-113756217D01*
X130306924Y-113333329D01*
X135327284Y-113333329D01*
X135470203Y-113678396D01*
X135817337Y-114066764D01*
X136286669Y-114292727D01*
X136493000Y-114170206D01*
X136493000Y-113127000D01*
X136747000Y-113127000D01*
X136747000Y-114170206D01*
X136953331Y-114292727D01*
X137422663Y-114066764D01*
X137769797Y-113678396D01*
X137912716Y-113333329D01*
X137789374Y-113127000D01*
X136747000Y-113127000D01*
X136493000Y-113127000D01*
X135450626Y-113127000D01*
X135327284Y-113333329D01*
X130306924Y-113333329D01*
X130335000Y-113265548D01*
X130335000Y-112734452D01*
X130306925Y-112666671D01*
X135327284Y-112666671D01*
X135450626Y-112873000D01*
X136493000Y-112873000D01*
X136493000Y-111829794D01*
X136747000Y-111829794D01*
X136747000Y-112873000D01*
X137789374Y-112873000D01*
X137912716Y-112666671D01*
X137769797Y-112321604D01*
X137422663Y-111933236D01*
X136953331Y-111707273D01*
X136747000Y-111829794D01*
X136493000Y-111829794D01*
X136286669Y-111707273D01*
X135817337Y-111933236D01*
X135470203Y-112321604D01*
X135327284Y-112666671D01*
X130306925Y-112666671D01*
X130131758Y-112243783D01*
X129756217Y-111868242D01*
X129265548Y-111665000D01*
X128734452Y-111665000D01*
X128243783Y-111868242D01*
X127868242Y-112243783D01*
X127665000Y-112734452D01*
X120295001Y-112734452D01*
X120295001Y-102935108D01*
X120698815Y-103338922D01*
X121244615Y-103565000D01*
X121835385Y-103565000D01*
X122381185Y-103338922D01*
X122798922Y-102921185D01*
X123025000Y-102375385D01*
X123025000Y-101784615D01*
X122798922Y-101238815D01*
X122381185Y-100821078D01*
X121835385Y-100595000D01*
X121244615Y-100595000D01*
X120698815Y-100821078D01*
X120295001Y-101224892D01*
X120295001Y-100895782D01*
X120317236Y-100783999D01*
X120279642Y-100595000D01*
X120229147Y-100341144D01*
X120135000Y-100200243D01*
X120135000Y-98318661D01*
X120318661Y-98135000D01*
X132601339Y-98135000D01*
X132179138Y-98557201D01*
X132179138Y-98557201D01*
G37*
X132179138Y-98557201D02*
X131915000Y-99194887D01*
X131915000Y-99885113D01*
X132179138Y-100522799D01*
X132251339Y-100595000D01*
X132084615Y-100595000D01*
X131538815Y-100821078D01*
X131121078Y-101238815D01*
X130895000Y-101784615D01*
X130895000Y-102375385D01*
X131121078Y-102921185D01*
X131538815Y-103338922D01*
X132084615Y-103565000D01*
X132675385Y-103565000D01*
X133221185Y-103338922D01*
X133638922Y-102921185D01*
X133865000Y-102375385D01*
X133865000Y-101784615D01*
X133653910Y-101275000D01*
X133995113Y-101275000D01*
X134632799Y-101010862D01*
X135120862Y-100522799D01*
X135385000Y-99885113D01*
X135385000Y-99194887D01*
X135120862Y-98557201D01*
X134698661Y-98135000D01*
X138681339Y-98135000D01*
X139017201Y-98470862D01*
X139025001Y-98474093D01*
X139025001Y-99918548D01*
X138952608Y-99846155D01*
X137984134Y-99445000D01*
X136935866Y-99445000D01*
X135967392Y-99846155D01*
X135226155Y-100587392D01*
X134825000Y-101555866D01*
X134825000Y-102604134D01*
X135226155Y-103572608D01*
X135967392Y-104313845D01*
X136935866Y-104715000D01*
X137984134Y-104715000D01*
X138952608Y-104313845D01*
X139025001Y-104241452D01*
X139025002Y-116525907D01*
X139017201Y-116529138D01*
X138681339Y-116865000D01*
X120318661Y-116865000D01*
X120209814Y-116756153D01*
X120229147Y-116727220D01*
X120295001Y-116396148D01*
X120317236Y-116284365D01*
X120295001Y-116172582D01*
X120295001Y-112734452D01*
X127665000Y-112734452D01*
X127665000Y-113265548D01*
X127868242Y-113756217D01*
X128243783Y-114131758D01*
X128734452Y-114335000D01*
X129265548Y-114335000D01*
X129756217Y-114131758D01*
X130131758Y-113756217D01*
X130306924Y-113333329D01*
X135327284Y-113333329D01*
X135470203Y-113678396D01*
X135817337Y-114066764D01*
X136286669Y-114292727D01*
X136493000Y-114170206D01*
X136493000Y-113127000D01*
X136747000Y-113127000D01*
X136747000Y-114170206D01*
X136953331Y-114292727D01*
X137422663Y-114066764D01*
X137769797Y-113678396D01*
X137912716Y-113333329D01*
X137789374Y-113127000D01*
X136747000Y-113127000D01*
X136493000Y-113127000D01*
X135450626Y-113127000D01*
X135327284Y-113333329D01*
X130306924Y-113333329D01*
X130335000Y-113265548D01*
X130335000Y-112734452D01*
X130306925Y-112666671D01*
X135327284Y-112666671D01*
X135450626Y-112873000D01*
X136493000Y-112873000D01*
X136493000Y-111829794D01*
X136747000Y-111829794D01*
X136747000Y-112873000D01*
X137789374Y-112873000D01*
X137912716Y-112666671D01*
X137769797Y-112321604D01*
X137422663Y-111933236D01*
X136953331Y-111707273D01*
X136747000Y-111829794D01*
X136493000Y-111829794D01*
X136286669Y-111707273D01*
X135817337Y-111933236D01*
X135470203Y-112321604D01*
X135327284Y-112666671D01*
X130306925Y-112666671D01*
X130131758Y-112243783D01*
X129756217Y-111868242D01*
X129265548Y-111665000D01*
X128734452Y-111665000D01*
X128243783Y-111868242D01*
X127868242Y-112243783D01*
X127665000Y-112734452D01*
X120295001Y-112734452D01*
X120295001Y-102935108D01*
X120698815Y-103338922D01*
X121244615Y-103565000D01*
X121835385Y-103565000D01*
X122381185Y-103338922D01*
X122798922Y-102921185D01*
X123025000Y-102375385D01*
X123025000Y-101784615D01*
X122798922Y-101238815D01*
X122381185Y-100821078D01*
X121835385Y-100595000D01*
X121244615Y-100595000D01*
X120698815Y-100821078D01*
X120295001Y-101224892D01*
X120295001Y-100895782D01*
X120317236Y-100783999D01*
X120279642Y-100595000D01*
X120229147Y-100341144D01*
X120135000Y-100200243D01*
X120135000Y-98318661D01*
X120318661Y-98135000D01*
X132601339Y-98135000D01*
X132179138Y-98557201D01*
G36*
X153179138Y-98557201D02*
X152915000Y-99194887D01*
X152915000Y-99885113D01*
X153179138Y-100522799D01*
X153251339Y-100595000D01*
X153084615Y-100595000D01*
X152538815Y-100821078D01*
X152121078Y-101238815D01*
X151895000Y-101784615D01*
X151895000Y-102375385D01*
X152121078Y-102921185D01*
X152538815Y-103338922D01*
X153084615Y-103565000D01*
X153675385Y-103565000D01*
X154221185Y-103338922D01*
X154638922Y-102921185D01*
X154865000Y-102375385D01*
X154865000Y-101784615D01*
X154653910Y-101275000D01*
X154995113Y-101275000D01*
X155632799Y-101010862D01*
X156120862Y-100522799D01*
X156385000Y-99885113D01*
X156385000Y-99194887D01*
X156120862Y-98557201D01*
X155698661Y-98135000D01*
X159681339Y-98135000D01*
X160017201Y-98470862D01*
X160025001Y-98474093D01*
X160025001Y-99918548D01*
X159952608Y-99846155D01*
X158984134Y-99445000D01*
X157935866Y-99445000D01*
X156967392Y-99846155D01*
X156226155Y-100587392D01*
X155825000Y-101555866D01*
X155825000Y-102604134D01*
X156226155Y-103572608D01*
X156967392Y-104313845D01*
X157935866Y-104715000D01*
X158984134Y-104715000D01*
X159952608Y-104313845D01*
X160025001Y-104241452D01*
X160025002Y-116525907D01*
X160017201Y-116529138D01*
X159681339Y-116865000D01*
X141318661Y-116865000D01*
X141295001Y-116841340D01*
X141295001Y-112734452D01*
X148665000Y-112734452D01*
X148665000Y-113265548D01*
X148868242Y-113756217D01*
X149243783Y-114131758D01*
X149734452Y-114335000D01*
X150265548Y-114335000D01*
X150756217Y-114131758D01*
X151131758Y-113756217D01*
X151306924Y-113333329D01*
X156327284Y-113333329D01*
X156470203Y-113678396D01*
X156817337Y-114066764D01*
X157286669Y-114292727D01*
X157493000Y-114170206D01*
X157493000Y-113127000D01*
X157747000Y-113127000D01*
X157747000Y-114170206D01*
X157953331Y-114292727D01*
X158422663Y-114066764D01*
X158769797Y-113678396D01*
X158912716Y-113333329D01*
X158789374Y-113127000D01*
X157747000Y-113127000D01*
X157493000Y-113127000D01*
X156450626Y-113127000D01*
X156327284Y-113333329D01*
X151306924Y-113333329D01*
X151335000Y-113265548D01*
X151335000Y-112734452D01*
X151306925Y-112666671D01*
X156327284Y-112666671D01*
X156450626Y-112873000D01*
X157493000Y-112873000D01*
X157493000Y-111829794D01*
X157747000Y-111829794D01*
X157747000Y-112873000D01*
X158789374Y-112873000D01*
X158912716Y-112666671D01*
X158769797Y-112321604D01*
X158422663Y-111933236D01*
X157953331Y-111707273D01*
X157747000Y-111829794D01*
X157493000Y-111829794D01*
X157286669Y-111707273D01*
X156817337Y-111933236D01*
X156470203Y-112321604D01*
X156327284Y-112666671D01*
X151306925Y-112666671D01*
X151131758Y-112243783D01*
X150756217Y-111868242D01*
X150265548Y-111665000D01*
X149734452Y-111665000D01*
X149243783Y-111868242D01*
X148868242Y-112243783D01*
X148665000Y-112734452D01*
X141295001Y-112734452D01*
X141295001Y-102935108D01*
X141698815Y-103338922D01*
X142244615Y-103565000D01*
X142835385Y-103565000D01*
X143381185Y-103338922D01*
X143798922Y-102921185D01*
X144025000Y-102375385D01*
X144025000Y-101784615D01*
X143798922Y-101238815D01*
X143381185Y-100821078D01*
X142835385Y-100595000D01*
X142244615Y-100595000D01*
X141698815Y-100821078D01*
X141295001Y-101224892D01*
X141295001Y-98158660D01*
X141318661Y-98135000D01*
X153601339Y-98135000D01*
X153179138Y-98557201D01*
X153179138Y-98557201D01*
G37*
X153179138Y-98557201D02*
X152915000Y-99194887D01*
X152915000Y-99885113D01*
X153179138Y-100522799D01*
X153251339Y-100595000D01*
X153084615Y-100595000D01*
X152538815Y-100821078D01*
X152121078Y-101238815D01*
X151895000Y-101784615D01*
X151895000Y-102375385D01*
X152121078Y-102921185D01*
X152538815Y-103338922D01*
X153084615Y-103565000D01*
X153675385Y-103565000D01*
X154221185Y-103338922D01*
X154638922Y-102921185D01*
X154865000Y-102375385D01*
X154865000Y-101784615D01*
X154653910Y-101275000D01*
X154995113Y-101275000D01*
X155632799Y-101010862D01*
X156120862Y-100522799D01*
X156385000Y-99885113D01*
X156385000Y-99194887D01*
X156120862Y-98557201D01*
X155698661Y-98135000D01*
X159681339Y-98135000D01*
X160017201Y-98470862D01*
X160025001Y-98474093D01*
X160025001Y-99918548D01*
X159952608Y-99846155D01*
X158984134Y-99445000D01*
X157935866Y-99445000D01*
X156967392Y-99846155D01*
X156226155Y-100587392D01*
X155825000Y-101555866D01*
X155825000Y-102604134D01*
X156226155Y-103572608D01*
X156967392Y-104313845D01*
X157935866Y-104715000D01*
X158984134Y-104715000D01*
X159952608Y-104313845D01*
X160025001Y-104241452D01*
X160025002Y-116525907D01*
X160017201Y-116529138D01*
X159681339Y-116865000D01*
X141318661Y-116865000D01*
X141295001Y-116841340D01*
X141295001Y-112734452D01*
X148665000Y-112734452D01*
X148665000Y-113265548D01*
X148868242Y-113756217D01*
X149243783Y-114131758D01*
X149734452Y-114335000D01*
X150265548Y-114335000D01*
X150756217Y-114131758D01*
X151131758Y-113756217D01*
X151306924Y-113333329D01*
X156327284Y-113333329D01*
X156470203Y-113678396D01*
X156817337Y-114066764D01*
X157286669Y-114292727D01*
X157493000Y-114170206D01*
X157493000Y-113127000D01*
X157747000Y-113127000D01*
X157747000Y-114170206D01*
X157953331Y-114292727D01*
X158422663Y-114066764D01*
X158769797Y-113678396D01*
X158912716Y-113333329D01*
X158789374Y-113127000D01*
X157747000Y-113127000D01*
X157493000Y-113127000D01*
X156450626Y-113127000D01*
X156327284Y-113333329D01*
X151306924Y-113333329D01*
X151335000Y-113265548D01*
X151335000Y-112734452D01*
X151306925Y-112666671D01*
X156327284Y-112666671D01*
X156450626Y-112873000D01*
X157493000Y-112873000D01*
X157493000Y-111829794D01*
X157747000Y-111829794D01*
X157747000Y-112873000D01*
X158789374Y-112873000D01*
X158912716Y-112666671D01*
X158769797Y-112321604D01*
X158422663Y-111933236D01*
X157953331Y-111707273D01*
X157747000Y-111829794D01*
X157493000Y-111829794D01*
X157286669Y-111707273D01*
X156817337Y-111933236D01*
X156470203Y-112321604D01*
X156327284Y-112666671D01*
X151306925Y-112666671D01*
X151131758Y-112243783D01*
X150756217Y-111868242D01*
X150265548Y-111665000D01*
X149734452Y-111665000D01*
X149243783Y-111868242D01*
X148868242Y-112243783D01*
X148665000Y-112734452D01*
X141295001Y-112734452D01*
X141295001Y-102935108D01*
X141698815Y-103338922D01*
X142244615Y-103565000D01*
X142835385Y-103565000D01*
X143381185Y-103338922D01*
X143798922Y-102921185D01*
X144025000Y-102375385D01*
X144025000Y-101784615D01*
X143798922Y-101238815D01*
X143381185Y-100821078D01*
X142835385Y-100595000D01*
X142244615Y-100595000D01*
X141698815Y-100821078D01*
X141295001Y-101224892D01*
X141295001Y-98158660D01*
X141318661Y-98135000D01*
X153601339Y-98135000D01*
X153179138Y-98557201D01*
G36*
X153179138Y-77557201D02*
X152915000Y-78194887D01*
X152915000Y-78885113D01*
X153179138Y-79522799D01*
X153251339Y-79595000D01*
X153084615Y-79595000D01*
X152538815Y-79821078D01*
X152121078Y-80238815D01*
X151895000Y-80784615D01*
X151895000Y-81375385D01*
X152121078Y-81921185D01*
X152538815Y-82338922D01*
X153084615Y-82565000D01*
X153675385Y-82565000D01*
X154221185Y-82338922D01*
X154638922Y-81921185D01*
X154865000Y-81375385D01*
X154865000Y-80784615D01*
X154653910Y-80275000D01*
X154995113Y-80275000D01*
X155632799Y-80010862D01*
X156120862Y-79522799D01*
X156385000Y-78885113D01*
X156385000Y-78194887D01*
X156120862Y-77557201D01*
X155698661Y-77135000D01*
X159681339Y-77135000D01*
X159865000Y-77318661D01*
X159865000Y-77443851D01*
X159842765Y-77555634D01*
X159930854Y-77998488D01*
X159930855Y-77998489D01*
X160025001Y-78139388D01*
X160025001Y-78918548D01*
X159952608Y-78846155D01*
X158984134Y-78445000D01*
X157935866Y-78445000D01*
X156967392Y-78846155D01*
X156226155Y-79587392D01*
X155825000Y-80555866D01*
X155825000Y-81604134D01*
X156226155Y-82572608D01*
X156967392Y-83313845D01*
X157935866Y-83715000D01*
X158984134Y-83715000D01*
X159952608Y-83313845D01*
X160025001Y-83241452D01*
X160025001Y-95525907D01*
X160017201Y-95529138D01*
X159681339Y-95865000D01*
X141318661Y-95865000D01*
X141295001Y-95841340D01*
X141295001Y-91734452D01*
X148665000Y-91734452D01*
X148665000Y-92265548D01*
X148868242Y-92756217D01*
X149243783Y-93131758D01*
X149734452Y-93335000D01*
X150265548Y-93335000D01*
X150756217Y-93131758D01*
X151131758Y-92756217D01*
X151306924Y-92333329D01*
X156327284Y-92333329D01*
X156470203Y-92678396D01*
X156817337Y-93066764D01*
X157286669Y-93292727D01*
X157493000Y-93170206D01*
X157493000Y-92127000D01*
X157747000Y-92127000D01*
X157747000Y-93170206D01*
X157953331Y-93292727D01*
X158422663Y-93066764D01*
X158769797Y-92678396D01*
X158912716Y-92333329D01*
X158789374Y-92127000D01*
X157747000Y-92127000D01*
X157493000Y-92127000D01*
X156450626Y-92127000D01*
X156327284Y-92333329D01*
X151306924Y-92333329D01*
X151335000Y-92265548D01*
X151335000Y-91734452D01*
X151306925Y-91666671D01*
X156327284Y-91666671D01*
X156450626Y-91873000D01*
X157493000Y-91873000D01*
X157493000Y-90829794D01*
X157747000Y-90829794D01*
X157747000Y-91873000D01*
X158789374Y-91873000D01*
X158912716Y-91666671D01*
X158769797Y-91321604D01*
X158422663Y-90933236D01*
X157953331Y-90707273D01*
X157747000Y-90829794D01*
X157493000Y-90829794D01*
X157286669Y-90707273D01*
X156817337Y-90933236D01*
X156470203Y-91321604D01*
X156327284Y-91666671D01*
X151306925Y-91666671D01*
X151131758Y-91243783D01*
X150756217Y-90868242D01*
X150265548Y-90665000D01*
X149734452Y-90665000D01*
X149243783Y-90868242D01*
X148868242Y-91243783D01*
X148665000Y-91734452D01*
X141295001Y-91734452D01*
X141295001Y-81935108D01*
X141698815Y-82338922D01*
X142244615Y-82565000D01*
X142835385Y-82565000D01*
X143381185Y-82338922D01*
X143798922Y-81921185D01*
X144025000Y-81375385D01*
X144025000Y-80784615D01*
X143798922Y-80238815D01*
X143381185Y-79821078D01*
X142835385Y-79595000D01*
X142244615Y-79595000D01*
X141698815Y-79821078D01*
X141295001Y-80224892D01*
X141295001Y-77827418D01*
X141317236Y-77715635D01*
X141229147Y-77272781D01*
X141229147Y-77272780D01*
X141209814Y-77243847D01*
X141318661Y-77135000D01*
X153601339Y-77135000D01*
X153179138Y-77557201D01*
X153179138Y-77557201D01*
G37*
X153179138Y-77557201D02*
X152915000Y-78194887D01*
X152915000Y-78885113D01*
X153179138Y-79522799D01*
X153251339Y-79595000D01*
X153084615Y-79595000D01*
X152538815Y-79821078D01*
X152121078Y-80238815D01*
X151895000Y-80784615D01*
X151895000Y-81375385D01*
X152121078Y-81921185D01*
X152538815Y-82338922D01*
X153084615Y-82565000D01*
X153675385Y-82565000D01*
X154221185Y-82338922D01*
X154638922Y-81921185D01*
X154865000Y-81375385D01*
X154865000Y-80784615D01*
X154653910Y-80275000D01*
X154995113Y-80275000D01*
X155632799Y-80010862D01*
X156120862Y-79522799D01*
X156385000Y-78885113D01*
X156385000Y-78194887D01*
X156120862Y-77557201D01*
X155698661Y-77135000D01*
X159681339Y-77135000D01*
X159865000Y-77318661D01*
X159865000Y-77443851D01*
X159842765Y-77555634D01*
X159930854Y-77998488D01*
X159930855Y-77998489D01*
X160025001Y-78139388D01*
X160025001Y-78918548D01*
X159952608Y-78846155D01*
X158984134Y-78445000D01*
X157935866Y-78445000D01*
X156967392Y-78846155D01*
X156226155Y-79587392D01*
X155825000Y-80555866D01*
X155825000Y-81604134D01*
X156226155Y-82572608D01*
X156967392Y-83313845D01*
X157935866Y-83715000D01*
X158984134Y-83715000D01*
X159952608Y-83313845D01*
X160025001Y-83241452D01*
X160025001Y-95525907D01*
X160017201Y-95529138D01*
X159681339Y-95865000D01*
X141318661Y-95865000D01*
X141295001Y-95841340D01*
X141295001Y-91734452D01*
X148665000Y-91734452D01*
X148665000Y-92265548D01*
X148868242Y-92756217D01*
X149243783Y-93131758D01*
X149734452Y-93335000D01*
X150265548Y-93335000D01*
X150756217Y-93131758D01*
X151131758Y-92756217D01*
X151306924Y-92333329D01*
X156327284Y-92333329D01*
X156470203Y-92678396D01*
X156817337Y-93066764D01*
X157286669Y-93292727D01*
X157493000Y-93170206D01*
X157493000Y-92127000D01*
X157747000Y-92127000D01*
X157747000Y-93170206D01*
X157953331Y-93292727D01*
X158422663Y-93066764D01*
X158769797Y-92678396D01*
X158912716Y-92333329D01*
X158789374Y-92127000D01*
X157747000Y-92127000D01*
X157493000Y-92127000D01*
X156450626Y-92127000D01*
X156327284Y-92333329D01*
X151306924Y-92333329D01*
X151335000Y-92265548D01*
X151335000Y-91734452D01*
X151306925Y-91666671D01*
X156327284Y-91666671D01*
X156450626Y-91873000D01*
X157493000Y-91873000D01*
X157493000Y-90829794D01*
X157747000Y-90829794D01*
X157747000Y-91873000D01*
X158789374Y-91873000D01*
X158912716Y-91666671D01*
X158769797Y-91321604D01*
X158422663Y-90933236D01*
X157953331Y-90707273D01*
X157747000Y-90829794D01*
X157493000Y-90829794D01*
X157286669Y-90707273D01*
X156817337Y-90933236D01*
X156470203Y-91321604D01*
X156327284Y-91666671D01*
X151306925Y-91666671D01*
X151131758Y-91243783D01*
X150756217Y-90868242D01*
X150265548Y-90665000D01*
X149734452Y-90665000D01*
X149243783Y-90868242D01*
X148868242Y-91243783D01*
X148665000Y-91734452D01*
X141295001Y-91734452D01*
X141295001Y-81935108D01*
X141698815Y-82338922D01*
X142244615Y-82565000D01*
X142835385Y-82565000D01*
X143381185Y-82338922D01*
X143798922Y-81921185D01*
X144025000Y-81375385D01*
X144025000Y-80784615D01*
X143798922Y-80238815D01*
X143381185Y-79821078D01*
X142835385Y-79595000D01*
X142244615Y-79595000D01*
X141698815Y-79821078D01*
X141295001Y-80224892D01*
X141295001Y-77827418D01*
X141317236Y-77715635D01*
X141229147Y-77272781D01*
X141229147Y-77272780D01*
X141209814Y-77243847D01*
X141318661Y-77135000D01*
X153601339Y-77135000D01*
X153179138Y-77557201D01*
G36*
X174179138Y-77557201D02*
X173915000Y-78194887D01*
X173915000Y-78885113D01*
X174179138Y-79522799D01*
X174251339Y-79595000D01*
X174084615Y-79595000D01*
X173538815Y-79821078D01*
X173121078Y-80238815D01*
X172895000Y-80784615D01*
X172895000Y-81375385D01*
X173121078Y-81921185D01*
X173538815Y-82338922D01*
X174084615Y-82565000D01*
X174675385Y-82565000D01*
X175221185Y-82338922D01*
X175638922Y-81921185D01*
X175865000Y-81375385D01*
X175865000Y-80784615D01*
X175653910Y-80275000D01*
X175995113Y-80275000D01*
X176632799Y-80010862D01*
X177120862Y-79522799D01*
X177385000Y-78885113D01*
X177385000Y-78194887D01*
X177120862Y-77557201D01*
X176698661Y-77135000D01*
X180681339Y-77135000D01*
X180865000Y-77318661D01*
X180865000Y-77443851D01*
X180842765Y-77555634D01*
X180930854Y-77998488D01*
X180930855Y-77998489D01*
X181025001Y-78139388D01*
X181025001Y-78918548D01*
X180952608Y-78846155D01*
X179984134Y-78445000D01*
X178935866Y-78445000D01*
X177967392Y-78846155D01*
X177226155Y-79587392D01*
X176825000Y-80555866D01*
X176825000Y-81604134D01*
X177226155Y-82572608D01*
X177967392Y-83313845D01*
X178935866Y-83715000D01*
X179984134Y-83715000D01*
X180952608Y-83313845D01*
X181025001Y-83241452D01*
X181025002Y-94860609D01*
X180930855Y-95001511D01*
X180930854Y-95001512D01*
X180842765Y-95444366D01*
X180865000Y-95556149D01*
X180865000Y-95681339D01*
X180681339Y-95865000D01*
X162318661Y-95865000D01*
X162295001Y-95841340D01*
X162295001Y-91734452D01*
X169665000Y-91734452D01*
X169665000Y-92265548D01*
X169868242Y-92756217D01*
X170243783Y-93131758D01*
X170734452Y-93335000D01*
X171265548Y-93335000D01*
X171756217Y-93131758D01*
X172131758Y-92756217D01*
X172306924Y-92333329D01*
X177327284Y-92333329D01*
X177470203Y-92678396D01*
X177817337Y-93066764D01*
X178286669Y-93292727D01*
X178493000Y-93170206D01*
X178493000Y-92127000D01*
X178747000Y-92127000D01*
X178747000Y-93170206D01*
X178953331Y-93292727D01*
X179422663Y-93066764D01*
X179769797Y-92678396D01*
X179912716Y-92333329D01*
X179789374Y-92127000D01*
X178747000Y-92127000D01*
X178493000Y-92127000D01*
X177450626Y-92127000D01*
X177327284Y-92333329D01*
X172306924Y-92333329D01*
X172335000Y-92265548D01*
X172335000Y-91734452D01*
X172306925Y-91666671D01*
X177327284Y-91666671D01*
X177450626Y-91873000D01*
X178493000Y-91873000D01*
X178493000Y-90829794D01*
X178747000Y-90829794D01*
X178747000Y-91873000D01*
X179789374Y-91873000D01*
X179912716Y-91666671D01*
X179769797Y-91321604D01*
X179422663Y-90933236D01*
X178953331Y-90707273D01*
X178747000Y-90829794D01*
X178493000Y-90829794D01*
X178286669Y-90707273D01*
X177817337Y-90933236D01*
X177470203Y-91321604D01*
X177327284Y-91666671D01*
X172306925Y-91666671D01*
X172131758Y-91243783D01*
X171756217Y-90868242D01*
X171265548Y-90665000D01*
X170734452Y-90665000D01*
X170243783Y-90868242D01*
X169868242Y-91243783D01*
X169665000Y-91734452D01*
X162295001Y-91734452D01*
X162295001Y-81935108D01*
X162698815Y-82338922D01*
X163244615Y-82565000D01*
X163835385Y-82565000D01*
X164381185Y-82338922D01*
X164798922Y-81921185D01*
X165025000Y-81375385D01*
X165025000Y-80784615D01*
X164798922Y-80238815D01*
X164381185Y-79821078D01*
X163835385Y-79595000D01*
X163244615Y-79595000D01*
X162698815Y-79821078D01*
X162295001Y-80224892D01*
X162295001Y-77827418D01*
X162317236Y-77715635D01*
X162229147Y-77272781D01*
X162229147Y-77272780D01*
X162209814Y-77243847D01*
X162318661Y-77135000D01*
X174601339Y-77135000D01*
X174179138Y-77557201D01*
X174179138Y-77557201D01*
G37*
X174179138Y-77557201D02*
X173915000Y-78194887D01*
X173915000Y-78885113D01*
X174179138Y-79522799D01*
X174251339Y-79595000D01*
X174084615Y-79595000D01*
X173538815Y-79821078D01*
X173121078Y-80238815D01*
X172895000Y-80784615D01*
X172895000Y-81375385D01*
X173121078Y-81921185D01*
X173538815Y-82338922D01*
X174084615Y-82565000D01*
X174675385Y-82565000D01*
X175221185Y-82338922D01*
X175638922Y-81921185D01*
X175865000Y-81375385D01*
X175865000Y-80784615D01*
X175653910Y-80275000D01*
X175995113Y-80275000D01*
X176632799Y-80010862D01*
X177120862Y-79522799D01*
X177385000Y-78885113D01*
X177385000Y-78194887D01*
X177120862Y-77557201D01*
X176698661Y-77135000D01*
X180681339Y-77135000D01*
X180865000Y-77318661D01*
X180865000Y-77443851D01*
X180842765Y-77555634D01*
X180930854Y-77998488D01*
X180930855Y-77998489D01*
X181025001Y-78139388D01*
X181025001Y-78918548D01*
X180952608Y-78846155D01*
X179984134Y-78445000D01*
X178935866Y-78445000D01*
X177967392Y-78846155D01*
X177226155Y-79587392D01*
X176825000Y-80555866D01*
X176825000Y-81604134D01*
X177226155Y-82572608D01*
X177967392Y-83313845D01*
X178935866Y-83715000D01*
X179984134Y-83715000D01*
X180952608Y-83313845D01*
X181025001Y-83241452D01*
X181025002Y-94860609D01*
X180930855Y-95001511D01*
X180930854Y-95001512D01*
X180842765Y-95444366D01*
X180865000Y-95556149D01*
X180865000Y-95681339D01*
X180681339Y-95865000D01*
X162318661Y-95865000D01*
X162295001Y-95841340D01*
X162295001Y-91734452D01*
X169665000Y-91734452D01*
X169665000Y-92265548D01*
X169868242Y-92756217D01*
X170243783Y-93131758D01*
X170734452Y-93335000D01*
X171265548Y-93335000D01*
X171756217Y-93131758D01*
X172131758Y-92756217D01*
X172306924Y-92333329D01*
X177327284Y-92333329D01*
X177470203Y-92678396D01*
X177817337Y-93066764D01*
X178286669Y-93292727D01*
X178493000Y-93170206D01*
X178493000Y-92127000D01*
X178747000Y-92127000D01*
X178747000Y-93170206D01*
X178953331Y-93292727D01*
X179422663Y-93066764D01*
X179769797Y-92678396D01*
X179912716Y-92333329D01*
X179789374Y-92127000D01*
X178747000Y-92127000D01*
X178493000Y-92127000D01*
X177450626Y-92127000D01*
X177327284Y-92333329D01*
X172306924Y-92333329D01*
X172335000Y-92265548D01*
X172335000Y-91734452D01*
X172306925Y-91666671D01*
X177327284Y-91666671D01*
X177450626Y-91873000D01*
X178493000Y-91873000D01*
X178493000Y-90829794D01*
X178747000Y-90829794D01*
X178747000Y-91873000D01*
X179789374Y-91873000D01*
X179912716Y-91666671D01*
X179769797Y-91321604D01*
X179422663Y-90933236D01*
X178953331Y-90707273D01*
X178747000Y-90829794D01*
X178493000Y-90829794D01*
X178286669Y-90707273D01*
X177817337Y-90933236D01*
X177470203Y-91321604D01*
X177327284Y-91666671D01*
X172306925Y-91666671D01*
X172131758Y-91243783D01*
X171756217Y-90868242D01*
X171265548Y-90665000D01*
X170734452Y-90665000D01*
X170243783Y-90868242D01*
X169868242Y-91243783D01*
X169665000Y-91734452D01*
X162295001Y-91734452D01*
X162295001Y-81935108D01*
X162698815Y-82338922D01*
X163244615Y-82565000D01*
X163835385Y-82565000D01*
X164381185Y-82338922D01*
X164798922Y-81921185D01*
X165025000Y-81375385D01*
X165025000Y-80784615D01*
X164798922Y-80238815D01*
X164381185Y-79821078D01*
X163835385Y-79595000D01*
X163244615Y-79595000D01*
X162698815Y-79821078D01*
X162295001Y-80224892D01*
X162295001Y-77827418D01*
X162317236Y-77715635D01*
X162229147Y-77272781D01*
X162229147Y-77272780D01*
X162209814Y-77243847D01*
X162318661Y-77135000D01*
X174601339Y-77135000D01*
X174179138Y-77557201D01*
G36*
X132179138Y-77557201D02*
X131915000Y-78194887D01*
X131915000Y-78885113D01*
X132179138Y-79522799D01*
X132251339Y-79595000D01*
X132084615Y-79595000D01*
X131538815Y-79821078D01*
X131121078Y-80238815D01*
X130895000Y-80784615D01*
X130895000Y-81375385D01*
X131121078Y-81921185D01*
X131538815Y-82338922D01*
X132084615Y-82565000D01*
X132675385Y-82565000D01*
X133221185Y-82338922D01*
X133638922Y-81921185D01*
X133865000Y-81375385D01*
X133865000Y-80784615D01*
X133653910Y-80275000D01*
X133995113Y-80275000D01*
X134632799Y-80010862D01*
X135120862Y-79522799D01*
X135385000Y-78885113D01*
X135385000Y-78194887D01*
X135120862Y-77557201D01*
X134698661Y-77135000D01*
X138681339Y-77135000D01*
X138865000Y-77318661D01*
X138865000Y-77443851D01*
X138842765Y-77555634D01*
X138930854Y-77998488D01*
X138930855Y-77998489D01*
X139025001Y-78139388D01*
X139025001Y-78918548D01*
X138952608Y-78846155D01*
X137984134Y-78445000D01*
X136935866Y-78445000D01*
X135967392Y-78846155D01*
X135226155Y-79587392D01*
X134825000Y-80555866D01*
X134825000Y-81604134D01*
X135226155Y-82572608D01*
X135967392Y-83313845D01*
X136935866Y-83715000D01*
X137984134Y-83715000D01*
X138952608Y-83313845D01*
X139025001Y-83241452D01*
X139025001Y-95525907D01*
X139017201Y-95529138D01*
X138681339Y-95865000D01*
X120318661Y-95865000D01*
X120209814Y-95756153D01*
X120229147Y-95727220D01*
X120295001Y-95396148D01*
X120317236Y-95284365D01*
X120295001Y-95172582D01*
X120295001Y-91734452D01*
X127665000Y-91734452D01*
X127665000Y-92265548D01*
X127868242Y-92756217D01*
X128243783Y-93131758D01*
X128734452Y-93335000D01*
X129265548Y-93335000D01*
X129756217Y-93131758D01*
X130131758Y-92756217D01*
X130306924Y-92333329D01*
X135327284Y-92333329D01*
X135470203Y-92678396D01*
X135817337Y-93066764D01*
X136286669Y-93292727D01*
X136493000Y-93170206D01*
X136493000Y-92127000D01*
X136747000Y-92127000D01*
X136747000Y-93170206D01*
X136953331Y-93292727D01*
X137422663Y-93066764D01*
X137769797Y-92678396D01*
X137912716Y-92333329D01*
X137789374Y-92127000D01*
X136747000Y-92127000D01*
X136493000Y-92127000D01*
X135450626Y-92127000D01*
X135327284Y-92333329D01*
X130306924Y-92333329D01*
X130335000Y-92265548D01*
X130335000Y-91734452D01*
X130306925Y-91666671D01*
X135327284Y-91666671D01*
X135450626Y-91873000D01*
X136493000Y-91873000D01*
X136493000Y-90829794D01*
X136747000Y-90829794D01*
X136747000Y-91873000D01*
X137789374Y-91873000D01*
X137912716Y-91666671D01*
X137769797Y-91321604D01*
X137422663Y-90933236D01*
X136953331Y-90707273D01*
X136747000Y-90829794D01*
X136493000Y-90829794D01*
X136286669Y-90707273D01*
X135817337Y-90933236D01*
X135470203Y-91321604D01*
X135327284Y-91666671D01*
X130306925Y-91666671D01*
X130131758Y-91243783D01*
X129756217Y-90868242D01*
X129265548Y-90665000D01*
X128734452Y-90665000D01*
X128243783Y-90868242D01*
X127868242Y-91243783D01*
X127665000Y-91734452D01*
X120295001Y-91734452D01*
X120295001Y-81935108D01*
X120698815Y-82338922D01*
X121244615Y-82565000D01*
X121835385Y-82565000D01*
X122381185Y-82338922D01*
X122798922Y-81921185D01*
X123025000Y-81375385D01*
X123025000Y-80784615D01*
X122798922Y-80238815D01*
X122381185Y-79821078D01*
X121835385Y-79595000D01*
X121244615Y-79595000D01*
X120698815Y-79821078D01*
X120295001Y-80224892D01*
X120295001Y-79895782D01*
X120317236Y-79783999D01*
X120279642Y-79595000D01*
X120229147Y-79341144D01*
X120135000Y-79200243D01*
X120135000Y-77318661D01*
X120318661Y-77135000D01*
X132601339Y-77135000D01*
X132179138Y-77557201D01*
X132179138Y-77557201D01*
G37*
X132179138Y-77557201D02*
X131915000Y-78194887D01*
X131915000Y-78885113D01*
X132179138Y-79522799D01*
X132251339Y-79595000D01*
X132084615Y-79595000D01*
X131538815Y-79821078D01*
X131121078Y-80238815D01*
X130895000Y-80784615D01*
X130895000Y-81375385D01*
X131121078Y-81921185D01*
X131538815Y-82338922D01*
X132084615Y-82565000D01*
X132675385Y-82565000D01*
X133221185Y-82338922D01*
X133638922Y-81921185D01*
X133865000Y-81375385D01*
X133865000Y-80784615D01*
X133653910Y-80275000D01*
X133995113Y-80275000D01*
X134632799Y-80010862D01*
X135120862Y-79522799D01*
X135385000Y-78885113D01*
X135385000Y-78194887D01*
X135120862Y-77557201D01*
X134698661Y-77135000D01*
X138681339Y-77135000D01*
X138865000Y-77318661D01*
X138865000Y-77443851D01*
X138842765Y-77555634D01*
X138930854Y-77998488D01*
X138930855Y-77998489D01*
X139025001Y-78139388D01*
X139025001Y-78918548D01*
X138952608Y-78846155D01*
X137984134Y-78445000D01*
X136935866Y-78445000D01*
X135967392Y-78846155D01*
X135226155Y-79587392D01*
X134825000Y-80555866D01*
X134825000Y-81604134D01*
X135226155Y-82572608D01*
X135967392Y-83313845D01*
X136935866Y-83715000D01*
X137984134Y-83715000D01*
X138952608Y-83313845D01*
X139025001Y-83241452D01*
X139025001Y-95525907D01*
X139017201Y-95529138D01*
X138681339Y-95865000D01*
X120318661Y-95865000D01*
X120209814Y-95756153D01*
X120229147Y-95727220D01*
X120295001Y-95396148D01*
X120317236Y-95284365D01*
X120295001Y-95172582D01*
X120295001Y-91734452D01*
X127665000Y-91734452D01*
X127665000Y-92265548D01*
X127868242Y-92756217D01*
X128243783Y-93131758D01*
X128734452Y-93335000D01*
X129265548Y-93335000D01*
X129756217Y-93131758D01*
X130131758Y-92756217D01*
X130306924Y-92333329D01*
X135327284Y-92333329D01*
X135470203Y-92678396D01*
X135817337Y-93066764D01*
X136286669Y-93292727D01*
X136493000Y-93170206D01*
X136493000Y-92127000D01*
X136747000Y-92127000D01*
X136747000Y-93170206D01*
X136953331Y-93292727D01*
X137422663Y-93066764D01*
X137769797Y-92678396D01*
X137912716Y-92333329D01*
X137789374Y-92127000D01*
X136747000Y-92127000D01*
X136493000Y-92127000D01*
X135450626Y-92127000D01*
X135327284Y-92333329D01*
X130306924Y-92333329D01*
X130335000Y-92265548D01*
X130335000Y-91734452D01*
X130306925Y-91666671D01*
X135327284Y-91666671D01*
X135450626Y-91873000D01*
X136493000Y-91873000D01*
X136493000Y-90829794D01*
X136747000Y-90829794D01*
X136747000Y-91873000D01*
X137789374Y-91873000D01*
X137912716Y-91666671D01*
X137769797Y-91321604D01*
X137422663Y-90933236D01*
X136953331Y-90707273D01*
X136747000Y-90829794D01*
X136493000Y-90829794D01*
X136286669Y-90707273D01*
X135817337Y-90933236D01*
X135470203Y-91321604D01*
X135327284Y-91666671D01*
X130306925Y-91666671D01*
X130131758Y-91243783D01*
X129756217Y-90868242D01*
X129265548Y-90665000D01*
X128734452Y-90665000D01*
X128243783Y-90868242D01*
X127868242Y-91243783D01*
X127665000Y-91734452D01*
X120295001Y-91734452D01*
X120295001Y-81935108D01*
X120698815Y-82338922D01*
X121244615Y-82565000D01*
X121835385Y-82565000D01*
X122381185Y-82338922D01*
X122798922Y-81921185D01*
X123025000Y-81375385D01*
X123025000Y-80784615D01*
X122798922Y-80238815D01*
X122381185Y-79821078D01*
X121835385Y-79595000D01*
X121244615Y-79595000D01*
X120698815Y-79821078D01*
X120295001Y-80224892D01*
X120295001Y-79895782D01*
X120317236Y-79783999D01*
X120279642Y-79595000D01*
X120229147Y-79341144D01*
X120135000Y-79200243D01*
X120135000Y-77318661D01*
X120318661Y-77135000D01*
X132601339Y-77135000D01*
X132179138Y-77557201D01*
G36*
X188365000Y-45360132D02*
X188365000Y-48551465D01*
X188269797Y-48321604D01*
X187922663Y-47933236D01*
X187453331Y-47707273D01*
X187247000Y-47829794D01*
X187247000Y-48873000D01*
X187267000Y-48873000D01*
X187267000Y-49127000D01*
X187247000Y-49127000D01*
X187247000Y-50170206D01*
X187453331Y-50292727D01*
X187922663Y-50066764D01*
X188269797Y-49678396D01*
X188365001Y-49448534D01*
X188365001Y-52675711D01*
X188242458Y-52859109D01*
X188138846Y-53380000D01*
X188242458Y-53900891D01*
X188537519Y-54342481D01*
X188979109Y-54637542D01*
X189195442Y-54680574D01*
X189765001Y-55250133D01*
X189765001Y-59665000D01*
X189234452Y-59665000D01*
X188763681Y-59860000D01*
X185671504Y-59860000D01*
X185631740Y-59660091D01*
X185314577Y-59185423D01*
X184839909Y-58868260D01*
X184280000Y-58756887D01*
X183720092Y-58868260D01*
X183245424Y-59185423D01*
X183010000Y-59537759D01*
X182774577Y-59185423D01*
X182299909Y-58868260D01*
X181740000Y-58756887D01*
X181180092Y-58868260D01*
X180705424Y-59185423D01*
X180470000Y-59537759D01*
X180234577Y-59185423D01*
X179759909Y-58868260D01*
X179200000Y-58756887D01*
X178640092Y-58868260D01*
X178165424Y-59185423D01*
X177930000Y-59537759D01*
X177694577Y-59185423D01*
X177219909Y-58868260D01*
X176660000Y-58756887D01*
X176100092Y-58868260D01*
X175625424Y-59185423D01*
X175390000Y-59537759D01*
X175164511Y-59200291D01*
X175729486Y-58635317D01*
X175792939Y-58592919D01*
X175835337Y-58529466D01*
X175835339Y-58529464D01*
X175960913Y-58341528D01*
X175960914Y-58341527D01*
X176005010Y-58119842D01*
X176005010Y-58119838D01*
X176019898Y-58044991D01*
X176005010Y-57970144D01*
X176005010Y-54688209D01*
X176100091Y-54751740D01*
X176660000Y-54863113D01*
X177219908Y-54751740D01*
X177694576Y-54434577D01*
X177930000Y-54082241D01*
X178165423Y-54434576D01*
X178640091Y-54751740D01*
X179200000Y-54863113D01*
X179759908Y-54751740D01*
X180234576Y-54434577D01*
X180470000Y-54082241D01*
X180705423Y-54434576D01*
X181180091Y-54751740D01*
X181740000Y-54863113D01*
X182299908Y-54751740D01*
X182774576Y-54434577D01*
X183012499Y-54078501D01*
X183355104Y-54504500D01*
X183848181Y-54774367D01*
X183930961Y-54791904D01*
X184153000Y-54669915D01*
X184153000Y-53127000D01*
X184407000Y-53127000D01*
X184407000Y-54669915D01*
X184629039Y-54791904D01*
X184711819Y-54774367D01*
X185204896Y-54504500D01*
X185557166Y-54066483D01*
X185715000Y-53527000D01*
X185715000Y-53127000D01*
X184407000Y-53127000D01*
X184153000Y-53127000D01*
X184133000Y-53127000D01*
X184133000Y-52873000D01*
X184153000Y-52873000D01*
X184153000Y-51330085D01*
X184407000Y-51330085D01*
X184407000Y-52873000D01*
X185715000Y-52873000D01*
X185715000Y-52473000D01*
X185557166Y-51933517D01*
X185204896Y-51495500D01*
X184711819Y-51225633D01*
X184629039Y-51208096D01*
X184407000Y-51330085D01*
X184153000Y-51330085D01*
X183930961Y-51208096D01*
X183848181Y-51225633D01*
X183355104Y-51495500D01*
X183012499Y-51921499D01*
X182774577Y-51565423D01*
X182299909Y-51248260D01*
X181740000Y-51136887D01*
X181180092Y-51248260D01*
X180705424Y-51565423D01*
X180470000Y-51917759D01*
X180234577Y-51565423D01*
X179960000Y-51381957D01*
X179960000Y-50254455D01*
X180256217Y-50131758D01*
X180631758Y-49756217D01*
X180806924Y-49333329D01*
X185827284Y-49333329D01*
X185970203Y-49678396D01*
X186317337Y-50066764D01*
X186786669Y-50292727D01*
X186993000Y-50170206D01*
X186993000Y-49127000D01*
X185950626Y-49127000D01*
X185827284Y-49333329D01*
X180806924Y-49333329D01*
X180835000Y-49265548D01*
X180835000Y-48734452D01*
X180806925Y-48666671D01*
X185827284Y-48666671D01*
X185950626Y-48873000D01*
X186993000Y-48873000D01*
X186993000Y-47829794D01*
X186786669Y-47707273D01*
X186317337Y-47933236D01*
X185970203Y-48321604D01*
X185827284Y-48666671D01*
X180806925Y-48666671D01*
X180631758Y-48243783D01*
X180256217Y-47868242D01*
X179765548Y-47665000D01*
X179234452Y-47665000D01*
X178743783Y-47868242D01*
X178368242Y-48243783D01*
X178165000Y-48734452D01*
X178165000Y-49265548D01*
X178368242Y-49756217D01*
X178440001Y-49827976D01*
X178440000Y-51381957D01*
X178165424Y-51565423D01*
X177930000Y-51917759D01*
X177694577Y-51565423D01*
X177219909Y-51248260D01*
X176660000Y-51136887D01*
X176100092Y-51248260D01*
X175700839Y-51515033D01*
X173421335Y-49235530D01*
X173378933Y-49172071D01*
X173127541Y-49004096D01*
X172905856Y-48960000D01*
X172905851Y-48960000D01*
X172831004Y-48945112D01*
X172756157Y-48960000D01*
X162894802Y-48960000D01*
X159419801Y-45485000D01*
X159546256Y-45485000D01*
X159979418Y-45398839D01*
X160470625Y-45070625D01*
X160683843Y-44751522D01*
X160744817Y-44881358D01*
X161173076Y-45271645D01*
X161583110Y-45441476D01*
X161813000Y-45320155D01*
X161813000Y-44127000D01*
X162067000Y-44127000D01*
X162067000Y-45320155D01*
X162296890Y-45441476D01*
X162706924Y-45271645D01*
X163135183Y-44881358D01*
X163381486Y-44356892D01*
X163260819Y-44127000D01*
X162067000Y-44127000D01*
X161813000Y-44127000D01*
X161793000Y-44127000D01*
X161793000Y-43873000D01*
X161813000Y-43873000D01*
X161813000Y-42679845D01*
X162067000Y-42679845D01*
X162067000Y-43873000D01*
X163260819Y-43873000D01*
X163381486Y-43643108D01*
X163135183Y-43118642D01*
X162706924Y-42728355D01*
X162296890Y-42558524D01*
X162067000Y-42679845D01*
X161813000Y-42679845D01*
X161583110Y-42558524D01*
X161384999Y-42640579D01*
X161384999Y-40622244D01*
X183627113Y-40622244D01*
X188365000Y-45360132D01*
X188365000Y-45360132D01*
G37*
X188365000Y-45360132D02*
X188365000Y-48551465D01*
X188269797Y-48321604D01*
X187922663Y-47933236D01*
X187453331Y-47707273D01*
X187247000Y-47829794D01*
X187247000Y-48873000D01*
X187267000Y-48873000D01*
X187267000Y-49127000D01*
X187247000Y-49127000D01*
X187247000Y-50170206D01*
X187453331Y-50292727D01*
X187922663Y-50066764D01*
X188269797Y-49678396D01*
X188365001Y-49448534D01*
X188365001Y-52675711D01*
X188242458Y-52859109D01*
X188138846Y-53380000D01*
X188242458Y-53900891D01*
X188537519Y-54342481D01*
X188979109Y-54637542D01*
X189195442Y-54680574D01*
X189765001Y-55250133D01*
X189765001Y-59665000D01*
X189234452Y-59665000D01*
X188763681Y-59860000D01*
X185671504Y-59860000D01*
X185631740Y-59660091D01*
X185314577Y-59185423D01*
X184839909Y-58868260D01*
X184280000Y-58756887D01*
X183720092Y-58868260D01*
X183245424Y-59185423D01*
X183010000Y-59537759D01*
X182774577Y-59185423D01*
X182299909Y-58868260D01*
X181740000Y-58756887D01*
X181180092Y-58868260D01*
X180705424Y-59185423D01*
X180470000Y-59537759D01*
X180234577Y-59185423D01*
X179759909Y-58868260D01*
X179200000Y-58756887D01*
X178640092Y-58868260D01*
X178165424Y-59185423D01*
X177930000Y-59537759D01*
X177694577Y-59185423D01*
X177219909Y-58868260D01*
X176660000Y-58756887D01*
X176100092Y-58868260D01*
X175625424Y-59185423D01*
X175390000Y-59537759D01*
X175164511Y-59200291D01*
X175729486Y-58635317D01*
X175792939Y-58592919D01*
X175835337Y-58529466D01*
X175835339Y-58529464D01*
X175960913Y-58341528D01*
X175960914Y-58341527D01*
X176005010Y-58119842D01*
X176005010Y-58119838D01*
X176019898Y-58044991D01*
X176005010Y-57970144D01*
X176005010Y-54688209D01*
X176100091Y-54751740D01*
X176660000Y-54863113D01*
X177219908Y-54751740D01*
X177694576Y-54434577D01*
X177930000Y-54082241D01*
X178165423Y-54434576D01*
X178640091Y-54751740D01*
X179200000Y-54863113D01*
X179759908Y-54751740D01*
X180234576Y-54434577D01*
X180470000Y-54082241D01*
X180705423Y-54434576D01*
X181180091Y-54751740D01*
X181740000Y-54863113D01*
X182299908Y-54751740D01*
X182774576Y-54434577D01*
X183012499Y-54078501D01*
X183355104Y-54504500D01*
X183848181Y-54774367D01*
X183930961Y-54791904D01*
X184153000Y-54669915D01*
X184153000Y-53127000D01*
X184407000Y-53127000D01*
X184407000Y-54669915D01*
X184629039Y-54791904D01*
X184711819Y-54774367D01*
X185204896Y-54504500D01*
X185557166Y-54066483D01*
X185715000Y-53527000D01*
X185715000Y-53127000D01*
X184407000Y-53127000D01*
X184153000Y-53127000D01*
X184133000Y-53127000D01*
X184133000Y-52873000D01*
X184153000Y-52873000D01*
X184153000Y-51330085D01*
X184407000Y-51330085D01*
X184407000Y-52873000D01*
X185715000Y-52873000D01*
X185715000Y-52473000D01*
X185557166Y-51933517D01*
X185204896Y-51495500D01*
X184711819Y-51225633D01*
X184629039Y-51208096D01*
X184407000Y-51330085D01*
X184153000Y-51330085D01*
X183930961Y-51208096D01*
X183848181Y-51225633D01*
X183355104Y-51495500D01*
X183012499Y-51921499D01*
X182774577Y-51565423D01*
X182299909Y-51248260D01*
X181740000Y-51136887D01*
X181180092Y-51248260D01*
X180705424Y-51565423D01*
X180470000Y-51917759D01*
X180234577Y-51565423D01*
X179960000Y-51381957D01*
X179960000Y-50254455D01*
X180256217Y-50131758D01*
X180631758Y-49756217D01*
X180806924Y-49333329D01*
X185827284Y-49333329D01*
X185970203Y-49678396D01*
X186317337Y-50066764D01*
X186786669Y-50292727D01*
X186993000Y-50170206D01*
X186993000Y-49127000D01*
X185950626Y-49127000D01*
X185827284Y-49333329D01*
X180806924Y-49333329D01*
X180835000Y-49265548D01*
X180835000Y-48734452D01*
X180806925Y-48666671D01*
X185827284Y-48666671D01*
X185950626Y-48873000D01*
X186993000Y-48873000D01*
X186993000Y-47829794D01*
X186786669Y-47707273D01*
X186317337Y-47933236D01*
X185970203Y-48321604D01*
X185827284Y-48666671D01*
X180806925Y-48666671D01*
X180631758Y-48243783D01*
X180256217Y-47868242D01*
X179765548Y-47665000D01*
X179234452Y-47665000D01*
X178743783Y-47868242D01*
X178368242Y-48243783D01*
X178165000Y-48734452D01*
X178165000Y-49265548D01*
X178368242Y-49756217D01*
X178440001Y-49827976D01*
X178440000Y-51381957D01*
X178165424Y-51565423D01*
X177930000Y-51917759D01*
X177694577Y-51565423D01*
X177219909Y-51248260D01*
X176660000Y-51136887D01*
X176100092Y-51248260D01*
X175700839Y-51515033D01*
X173421335Y-49235530D01*
X173378933Y-49172071D01*
X173127541Y-49004096D01*
X172905856Y-48960000D01*
X172905851Y-48960000D01*
X172831004Y-48945112D01*
X172756157Y-48960000D01*
X162894802Y-48960000D01*
X159419801Y-45485000D01*
X159546256Y-45485000D01*
X159979418Y-45398839D01*
X160470625Y-45070625D01*
X160683843Y-44751522D01*
X160744817Y-44881358D01*
X161173076Y-45271645D01*
X161583110Y-45441476D01*
X161813000Y-45320155D01*
X161813000Y-44127000D01*
X162067000Y-44127000D01*
X162067000Y-45320155D01*
X162296890Y-45441476D01*
X162706924Y-45271645D01*
X163135183Y-44881358D01*
X163381486Y-44356892D01*
X163260819Y-44127000D01*
X162067000Y-44127000D01*
X161813000Y-44127000D01*
X161793000Y-44127000D01*
X161793000Y-43873000D01*
X161813000Y-43873000D01*
X161813000Y-42679845D01*
X162067000Y-42679845D01*
X162067000Y-43873000D01*
X163260819Y-43873000D01*
X163381486Y-43643108D01*
X163135183Y-43118642D01*
X162706924Y-42728355D01*
X162296890Y-42558524D01*
X162067000Y-42679845D01*
X161813000Y-42679845D01*
X161583110Y-42558524D01*
X161384999Y-42640579D01*
X161384999Y-40622244D01*
X183627113Y-40622244D01*
X188365000Y-45360132D01*
G36*
X121125423Y-54434576D02*
X121600091Y-54751740D01*
X122160000Y-54863113D01*
X122483885Y-54798688D01*
X122694683Y-55009485D01*
X122737081Y-55072939D01*
X122800534Y-55115337D01*
X122800536Y-55115339D01*
X122925912Y-55199112D01*
X122988473Y-55240914D01*
X123210158Y-55285010D01*
X123210162Y-55285010D01*
X123285009Y-55299898D01*
X123359856Y-55285010D01*
X125361213Y-55285010D01*
X129054864Y-58978662D01*
X128820839Y-59135033D01*
X126646334Y-56960529D01*
X126603932Y-56897070D01*
X126352540Y-56729095D01*
X126130855Y-56684999D01*
X126130850Y-56684999D01*
X126056003Y-56670111D01*
X125981156Y-56684999D01*
X119929847Y-56684999D01*
X119855000Y-56670111D01*
X119780153Y-56684999D01*
X119780149Y-56684999D01*
X119558464Y-56729095D01*
X119307072Y-56897070D01*
X119264672Y-56960526D01*
X117403887Y-58821312D01*
X117080000Y-58756887D01*
X116520092Y-58868260D01*
X116045424Y-59185423D01*
X115810000Y-59537759D01*
X115584511Y-59200290D01*
X116439463Y-58345339D01*
X116502919Y-58302939D01*
X116670894Y-58051547D01*
X116714990Y-57829862D01*
X116714990Y-57829858D01*
X116729878Y-57755011D01*
X116714990Y-57680164D01*
X116714990Y-54790508D01*
X117080000Y-54863113D01*
X117639908Y-54751740D01*
X118114576Y-54434577D01*
X118350000Y-54082241D01*
X118585423Y-54434576D01*
X119060091Y-54751740D01*
X119620000Y-54863113D01*
X120179908Y-54751740D01*
X120654576Y-54434577D01*
X120890000Y-54082241D01*
X121125423Y-54434576D01*
X121125423Y-54434576D01*
G37*
X121125423Y-54434576D02*
X121600091Y-54751740D01*
X122160000Y-54863113D01*
X122483885Y-54798688D01*
X122694683Y-55009485D01*
X122737081Y-55072939D01*
X122800534Y-55115337D01*
X122800536Y-55115339D01*
X122925912Y-55199112D01*
X122988473Y-55240914D01*
X123210158Y-55285010D01*
X123210162Y-55285010D01*
X123285009Y-55299898D01*
X123359856Y-55285010D01*
X125361213Y-55285010D01*
X129054864Y-58978662D01*
X128820839Y-59135033D01*
X126646334Y-56960529D01*
X126603932Y-56897070D01*
X126352540Y-56729095D01*
X126130855Y-56684999D01*
X126130850Y-56684999D01*
X126056003Y-56670111D01*
X125981156Y-56684999D01*
X119929847Y-56684999D01*
X119855000Y-56670111D01*
X119780153Y-56684999D01*
X119780149Y-56684999D01*
X119558464Y-56729095D01*
X119307072Y-56897070D01*
X119264672Y-56960526D01*
X117403887Y-58821312D01*
X117080000Y-58756887D01*
X116520092Y-58868260D01*
X116045424Y-59185423D01*
X115810000Y-59537759D01*
X115584511Y-59200290D01*
X116439463Y-58345339D01*
X116502919Y-58302939D01*
X116670894Y-58051547D01*
X116714990Y-57829862D01*
X116714990Y-57829858D01*
X116729878Y-57755011D01*
X116714990Y-57680164D01*
X116714990Y-54790508D01*
X117080000Y-54863113D01*
X117639908Y-54751740D01*
X118114576Y-54434577D01*
X118350000Y-54082241D01*
X118585423Y-54434576D01*
X119060091Y-54751740D01*
X119620000Y-54863113D01*
X120179908Y-54751740D01*
X120654576Y-54434577D01*
X120890000Y-54082241D01*
X121125423Y-54434576D01*
G36*
X133492998Y-30829793D02*
X133286669Y-30707273D01*
X132817337Y-30933236D01*
X132470203Y-31321604D01*
X132327284Y-31666671D01*
X132450626Y-31873000D01*
X133493000Y-31873000D01*
X133493000Y-31853000D01*
X133747000Y-31853000D01*
X133747000Y-31873000D01*
X134789374Y-31873000D01*
X134912716Y-31666671D01*
X134769797Y-31321604D01*
X134422663Y-30933236D01*
X133953331Y-30707273D01*
X133747002Y-30829793D01*
X133747002Y-30685000D01*
X187965302Y-30685000D01*
X188665861Y-30756160D01*
X189304530Y-30956307D01*
X189889902Y-31280784D01*
X190398078Y-31716343D01*
X190808289Y-32245183D01*
X191103786Y-32845712D01*
X191274623Y-33501567D01*
X191315000Y-34026313D01*
X191315000Y-53589868D01*
X190800573Y-53075442D01*
X190757542Y-52859109D01*
X190635000Y-52675712D01*
X190635000Y-45001783D01*
X190657235Y-44890000D01*
X190569146Y-44447145D01*
X190508841Y-44356892D01*
X190318289Y-44071711D01*
X190223522Y-44008390D01*
X184978857Y-38763726D01*
X184915533Y-38668955D01*
X184540099Y-38418098D01*
X184209027Y-38352244D01*
X184097244Y-38330009D01*
X183985461Y-38352244D01*
X160720131Y-38352244D01*
X157943209Y-35575322D01*
X183365000Y-35575322D01*
X183365000Y-36424678D01*
X183690034Y-37209380D01*
X184290620Y-37809966D01*
X185075322Y-38135000D01*
X185924678Y-38135000D01*
X186709380Y-37809966D01*
X187309966Y-37209380D01*
X187635000Y-36424678D01*
X187635000Y-35575322D01*
X187309966Y-34790620D01*
X186709380Y-34190034D01*
X185924678Y-33865000D01*
X185075322Y-33865000D01*
X184290620Y-34190034D01*
X183690034Y-34790620D01*
X183365000Y-35575322D01*
X157943209Y-35575322D01*
X155344368Y-32976482D01*
X155281044Y-32881711D01*
X154905610Y-32630854D01*
X154574538Y-32565000D01*
X154462755Y-32542765D01*
X154350972Y-32565000D01*
X134816763Y-32565000D01*
X134912716Y-32333329D01*
X134789374Y-32127000D01*
X133747000Y-32127000D01*
X133747000Y-32147000D01*
X133493000Y-32147000D01*
X133493000Y-32127000D01*
X132450626Y-32127000D01*
X132327284Y-32333329D01*
X132423237Y-32565000D01*
X127210963Y-32565000D01*
X127335000Y-32265548D01*
X127335000Y-31734452D01*
X127131758Y-31243783D01*
X126756217Y-30868242D01*
X126313832Y-30685000D01*
X133492998Y-30685000D01*
X133492998Y-30829793D01*
X133492998Y-30829793D01*
G37*
X133492998Y-30829793D02*
X133286669Y-30707273D01*
X132817337Y-30933236D01*
X132470203Y-31321604D01*
X132327284Y-31666671D01*
X132450626Y-31873000D01*
X133493000Y-31873000D01*
X133493000Y-31853000D01*
X133747000Y-31853000D01*
X133747000Y-31873000D01*
X134789374Y-31873000D01*
X134912716Y-31666671D01*
X134769797Y-31321604D01*
X134422663Y-30933236D01*
X133953331Y-30707273D01*
X133747002Y-30829793D01*
X133747002Y-30685000D01*
X187965302Y-30685000D01*
X188665861Y-30756160D01*
X189304530Y-30956307D01*
X189889902Y-31280784D01*
X190398078Y-31716343D01*
X190808289Y-32245183D01*
X191103786Y-32845712D01*
X191274623Y-33501567D01*
X191315000Y-34026313D01*
X191315000Y-53589868D01*
X190800573Y-53075442D01*
X190757542Y-52859109D01*
X190635000Y-52675712D01*
X190635000Y-45001783D01*
X190657235Y-44890000D01*
X190569146Y-44447145D01*
X190508841Y-44356892D01*
X190318289Y-44071711D01*
X190223522Y-44008390D01*
X184978857Y-38763726D01*
X184915533Y-38668955D01*
X184540099Y-38418098D01*
X184209027Y-38352244D01*
X184097244Y-38330009D01*
X183985461Y-38352244D01*
X160720131Y-38352244D01*
X157943209Y-35575322D01*
X183365000Y-35575322D01*
X183365000Y-36424678D01*
X183690034Y-37209380D01*
X184290620Y-37809966D01*
X185075322Y-38135000D01*
X185924678Y-38135000D01*
X186709380Y-37809966D01*
X187309966Y-37209380D01*
X187635000Y-36424678D01*
X187635000Y-35575322D01*
X187309966Y-34790620D01*
X186709380Y-34190034D01*
X185924678Y-33865000D01*
X185075322Y-33865000D01*
X184290620Y-34190034D01*
X183690034Y-34790620D01*
X183365000Y-35575322D01*
X157943209Y-35575322D01*
X155344368Y-32976482D01*
X155281044Y-32881711D01*
X154905610Y-32630854D01*
X154574538Y-32565000D01*
X154462755Y-32542765D01*
X154350972Y-32565000D01*
X134816763Y-32565000D01*
X134912716Y-32333329D01*
X134789374Y-32127000D01*
X133747000Y-32127000D01*
X133747000Y-32147000D01*
X133493000Y-32147000D01*
X133493000Y-32127000D01*
X132450626Y-32127000D01*
X132327284Y-32333329D01*
X132423237Y-32565000D01*
X127210963Y-32565000D01*
X127335000Y-32265548D01*
X127335000Y-31734452D01*
X127131758Y-31243783D01*
X126756217Y-30868242D01*
X126313832Y-30685000D01*
X133492998Y-30685000D01*
X133492998Y-30829793D01*
G36*
X126755528Y-47619671D02*
X126692072Y-47662071D01*
X126649672Y-47725527D01*
X126649671Y-47725528D01*
X126524097Y-47913463D01*
X126465112Y-48210000D01*
X126480001Y-48284852D01*
X126480000Y-51381957D01*
X126205424Y-51565423D01*
X125970000Y-51917759D01*
X125734577Y-51565423D01*
X125460000Y-51381957D01*
X125460000Y-49254455D01*
X125756217Y-49131758D01*
X126131758Y-48756217D01*
X126335000Y-48265548D01*
X126335000Y-47734452D01*
X126131758Y-47243783D01*
X125756217Y-46868242D01*
X125265548Y-46665000D01*
X124734452Y-46665000D01*
X124243783Y-46868242D01*
X123868242Y-47243783D01*
X123665000Y-47734452D01*
X123665000Y-48265548D01*
X123868242Y-48756217D01*
X123940001Y-48827976D01*
X123940000Y-51381957D01*
X123665424Y-51565423D01*
X123430000Y-51917759D01*
X123194577Y-51565423D01*
X122719909Y-51248260D01*
X122160000Y-51136887D01*
X121600092Y-51248260D01*
X121125424Y-51565423D01*
X120890000Y-51917759D01*
X120654577Y-51565423D01*
X120179909Y-51248260D01*
X119620000Y-51136887D01*
X119060092Y-51248260D01*
X118585424Y-51565423D01*
X118350000Y-51917759D01*
X118114577Y-51565423D01*
X117639909Y-51248260D01*
X117080000Y-51136887D01*
X116714990Y-51209492D01*
X116714990Y-50272811D01*
X118414323Y-48573478D01*
X118470203Y-48708396D01*
X118817337Y-49096764D01*
X119286669Y-49322727D01*
X119493000Y-49200206D01*
X119493000Y-48157000D01*
X119747000Y-48157000D01*
X119747000Y-49200206D01*
X119953331Y-49322727D01*
X120422663Y-49096764D01*
X120769797Y-48708396D01*
X120912716Y-48363329D01*
X120789374Y-48157000D01*
X119747000Y-48157000D01*
X119493000Y-48157000D01*
X119473000Y-48157000D01*
X119473000Y-47903000D01*
X119493000Y-47903000D01*
X119493000Y-47883000D01*
X119747000Y-47883000D01*
X119747000Y-47903000D01*
X120789374Y-47903000D01*
X120912716Y-47696671D01*
X120769797Y-47351604D01*
X120422663Y-46963236D01*
X120153943Y-46833859D01*
X124822802Y-42165001D01*
X132210197Y-42165001D01*
X126755528Y-47619671D01*
X126755528Y-47619671D01*
G37*
X126755528Y-47619671D02*
X126692072Y-47662071D01*
X126649672Y-47725527D01*
X126649671Y-47725528D01*
X126524097Y-47913463D01*
X126465112Y-48210000D01*
X126480001Y-48284852D01*
X126480000Y-51381957D01*
X126205424Y-51565423D01*
X125970000Y-51917759D01*
X125734577Y-51565423D01*
X125460000Y-51381957D01*
X125460000Y-49254455D01*
X125756217Y-49131758D01*
X126131758Y-48756217D01*
X126335000Y-48265548D01*
X126335000Y-47734452D01*
X126131758Y-47243783D01*
X125756217Y-46868242D01*
X125265548Y-46665000D01*
X124734452Y-46665000D01*
X124243783Y-46868242D01*
X123868242Y-47243783D01*
X123665000Y-47734452D01*
X123665000Y-48265548D01*
X123868242Y-48756217D01*
X123940001Y-48827976D01*
X123940000Y-51381957D01*
X123665424Y-51565423D01*
X123430000Y-51917759D01*
X123194577Y-51565423D01*
X122719909Y-51248260D01*
X122160000Y-51136887D01*
X121600092Y-51248260D01*
X121125424Y-51565423D01*
X120890000Y-51917759D01*
X120654577Y-51565423D01*
X120179909Y-51248260D01*
X119620000Y-51136887D01*
X119060092Y-51248260D01*
X118585424Y-51565423D01*
X118350000Y-51917759D01*
X118114577Y-51565423D01*
X117639909Y-51248260D01*
X117080000Y-51136887D01*
X116714990Y-51209492D01*
X116714990Y-50272811D01*
X118414323Y-48573478D01*
X118470203Y-48708396D01*
X118817337Y-49096764D01*
X119286669Y-49322727D01*
X119493000Y-49200206D01*
X119493000Y-48157000D01*
X119747000Y-48157000D01*
X119747000Y-49200206D01*
X119953331Y-49322727D01*
X120422663Y-49096764D01*
X120769797Y-48708396D01*
X120912716Y-48363329D01*
X120789374Y-48157000D01*
X119747000Y-48157000D01*
X119493000Y-48157000D01*
X119473000Y-48157000D01*
X119473000Y-47903000D01*
X119493000Y-47903000D01*
X119493000Y-47883000D01*
X119747000Y-47883000D01*
X119747000Y-47903000D01*
X120789374Y-47903000D01*
X120912716Y-47696671D01*
X120769797Y-47351604D01*
X120422663Y-46963236D01*
X120153943Y-46833859D01*
X124822802Y-42165001D01*
X132210197Y-42165001D01*
X126755528Y-47619671D01*
M02*
