M48
;DRILL file {KiCad 5.0.2+dfsg1-1} date Sun 02 Jan 2022 07:08:44 PM PST
;FORMAT={-:-/ absolute / metric / decimal}
FMAT,2
METRIC,TZ
T1C0.400
T2C0.600
T3C0.700
T4C0.800
T5C1.000
T6C1.200
T7C1.500
T8C2.500
T9C4.300
%
G90
G05
T1
X109.Y-50.41
X109.07Y-54.75
X113.03Y-56.63
X113.88Y-45.73
X118.14Y-56.19
X120.04Y-39.87
X124.01Y-58.17
X127.Y-57.1
X127.803Y-55.627
X128.01Y-68.03
X128.089Y-63.909
X128.476Y-62.496
X128.71Y-38.68
X131.44Y-61.345
X131.512Y-62.583
X132.95Y-38.45
X138.49Y-39.05
X142.78Y-39.16
X145.43Y-39.08
X146.096Y-64.634
X148.06Y-39.08
X169.92Y-68.81
X171.02Y-65.695
X171.21Y-94.22
X172.18Y-136.65
X172.73Y-98.72
X172.91Y-57.24
X174.61Y-63.16
X178.85Y-56.48
T2
X105.775Y-157.
X106.72Y-154.72
X106.72Y-159.28
X109.Y-153.775
X109.Y-160.225
X111.28Y-154.72
X111.28Y-159.28
X112.225Y-157.
X183.775Y-157.
X184.72Y-154.72
X184.72Y-159.28
X187.Y-153.775
X187.Y-160.225
X189.28Y-154.72
X189.28Y-159.28
X190.225Y-157.
T3
X150.Y-92.
X157.62Y-92.
X171.Y-92.
X178.62Y-92.
X171.Y-71.
X178.62Y-71.
X108.Y-71.
X115.62Y-71.
X129.Y-134.
X136.62Y-134.
X151.38Y-40.
X159.Y-40.
X125.Y-40.38
X125.Y-48.
X150.Y-113.
X157.62Y-113.
X126.Y-32.
X133.62Y-32.
X171.Y-134.
X178.62Y-134.
X150.Y-134.
X157.62Y-134.
X129.Y-92.
X136.62Y-92.
X135.Y-53.38
X135.Y-61.
X129.Y-71.
X136.62Y-71.
X150.Y-71.
X157.62Y-71.
X108.Y-134.
X115.62Y-134.
X189.5Y-53.38
X189.5Y-61.
X171.Y-113.
X178.62Y-113.
X108.Y-113.
X115.62Y-113.
X112.Y-48.03
X119.62Y-48.03
X129.Y-113.
X136.62Y-113.
X108.Y-92.
X115.62Y-92.
X179.5Y-49.
X187.12Y-49.
T4
X112.Y-53.
X112.Y-60.62
X114.54Y-53.
X114.54Y-60.62
X117.08Y-53.
X117.08Y-60.62
X119.62Y-53.
X119.62Y-60.62
X122.16Y-53.
X122.16Y-60.62
X124.7Y-53.
X124.7Y-60.62
X127.24Y-53.
X127.24Y-60.62
X129.78Y-53.
X129.78Y-60.62
X166.5Y-53.
X166.5Y-60.62
X169.04Y-53.
X169.04Y-60.62
X171.58Y-53.
X171.58Y-60.62
X174.12Y-53.
X174.12Y-60.62
X176.66Y-53.
X176.66Y-60.62
X179.2Y-53.
X179.2Y-60.62
X181.74Y-53.
X181.74Y-60.62
X184.28Y-53.
X184.28Y-60.62
T5
X134.Y-44.
X136.54Y-44.
X139.08Y-44.
X141.62Y-44.
X144.16Y-44.
X146.7Y-44.
X149.24Y-44.
X151.78Y-44.
X154.32Y-44.
X156.86Y-44.
X159.4Y-44.
X161.94Y-44.
T6
X116.Y-36.
X118.54Y-36.
X121.08Y-36.
X123.62Y-36.
X126.16Y-36.
X128.7Y-36.
X131.24Y-36.
X133.78Y-36.
X136.32Y-36.
X138.86Y-36.
X141.4Y-36.
X143.94Y-36.
X146.48Y-36.
X149.02Y-36.
X151.56Y-36.
X154.1Y-36.
T7
X154.65Y-120.54
X161.Y-118.
X112.65Y-120.54
X119.Y-118.
X154.65Y-78.54
X161.Y-76.
X175.65Y-78.54
X182.Y-76.
X175.65Y-141.54
X182.Y-139.
X175.65Y-120.54
X182.Y-118.
X112.65Y-99.54
X119.Y-97.
X133.65Y-78.54
X140.Y-76.
X154.65Y-99.54
X161.Y-97.
X154.65Y-141.54
X161.Y-139.
X133.65Y-120.54
X140.Y-118.
X133.65Y-141.54
X140.Y-139.
X112.65Y-78.54
X119.Y-76.
X133.65Y-99.54
X140.Y-97.
X175.65Y-99.54
X182.Y-97.
X112.65Y-141.54
X119.Y-139.
T8
X110.501Y-36.
X110.501Y-67.001
X185.499Y-67.001
X185.5Y-36.
T9
X109.Y-157.
X187.Y-157.
T0
M30
