%FSLAX45Y45*%
G04 Gerber Fmt 4.5, Leading zero omitted, Abs format (unit mm)*
G04 Created by KiCad (PCBNEW 5.0.2+dfsg1-1) date Sun 02 Jan 2022 07:08:44 PM PST*
%MOMM*%
%LPD*%
G01*
G04 APERTURE LIST*
%ADD10C,0.100000*%
%ADD11C,0.200000*%
%ADD12C,0.300000*%
G04 APERTURE END LIST*
D10*
X10800000Y-3000000D02*
X18800000Y-3000000D01*
X10400000Y-15800000D02*
X10400000Y-3400000D01*
X18800000Y-16200000D02*
X10800000Y-16200000D01*
X19200000Y-3400000D02*
X19200000Y-15800000D01*
X10800000Y-16200000D02*
G75*
G02X10400000Y-15800000I0J400000D01*
G01*
X19200000Y-15800000D02*
G75*
G02X18800000Y-16200000I-400000J0D01*
G01*
X18800000Y-3000000D02*
G75*
G02X19200000Y-3400000I0J-400000D01*
G01*
X10400000Y-3400000D02*
G75*
G02X10800000Y-3000000I400000J0D01*
G01*
D11*
X15253000Y-12223000D02*
X15423000Y-12393000D01*
X15423000Y-12223000D02*
X15253000Y-12393000D01*
X16269000Y-12223000D02*
X16439000Y-12393000D01*
X16439000Y-12223000D02*
X16269000Y-12393000D01*
X11053000Y-12223000D02*
X11223000Y-12393000D01*
X11223000Y-12223000D02*
X11053000Y-12393000D01*
X12069000Y-12223000D02*
X12239000Y-12393000D01*
X12239000Y-12223000D02*
X12069000Y-12393000D01*
X15253000Y-8023000D02*
X15423000Y-8193000D01*
X15423000Y-8023000D02*
X15253000Y-8193000D01*
X16269000Y-8023000D02*
X16439000Y-8193000D01*
X16439000Y-8023000D02*
X16269000Y-8193000D01*
X17353000Y-8023000D02*
X17523000Y-8193000D01*
X17523000Y-8023000D02*
X17353000Y-8193000D01*
X18369000Y-8023000D02*
X18539000Y-8193000D01*
X18539000Y-8023000D02*
X18369000Y-8193000D01*
X17353000Y-14323000D02*
X17523000Y-14493000D01*
X17523000Y-14323000D02*
X17353000Y-14493000D01*
X18369000Y-14323000D02*
X18539000Y-14493000D01*
X18539000Y-14323000D02*
X18369000Y-14493000D01*
X17353000Y-12223000D02*
X17523000Y-12393000D01*
X17523000Y-12223000D02*
X17353000Y-12393000D01*
X18369000Y-12223000D02*
X18539000Y-12393000D01*
X18539000Y-12223000D02*
X18369000Y-12393000D01*
X11053000Y-10123000D02*
X11223000Y-10293000D01*
X11223000Y-10123000D02*
X11053000Y-10293000D01*
X12069000Y-10123000D02*
X12239000Y-10293000D01*
X12239000Y-10123000D02*
X12069000Y-10293000D01*
X13153000Y-8023000D02*
X13323000Y-8193000D01*
X13323000Y-8023000D02*
X13153000Y-8193000D01*
X14169000Y-8023000D02*
X14339000Y-8193000D01*
X14339000Y-8023000D02*
X14169000Y-8193000D01*
X15253000Y-10123000D02*
X15423000Y-10293000D01*
X15423000Y-10123000D02*
X15253000Y-10293000D01*
X16269000Y-10123000D02*
X16439000Y-10293000D01*
X16439000Y-10123000D02*
X16269000Y-10293000D01*
X15253000Y-14323000D02*
X15423000Y-14493000D01*
X15423000Y-14323000D02*
X15253000Y-14493000D01*
X16269000Y-14323000D02*
X16439000Y-14493000D01*
X16439000Y-14323000D02*
X16269000Y-14493000D01*
X13153000Y-12223000D02*
X13323000Y-12393000D01*
X13323000Y-12223000D02*
X13153000Y-12393000D01*
X14169000Y-12223000D02*
X14339000Y-12393000D01*
X14339000Y-12223000D02*
X14169000Y-12393000D01*
X13153000Y-14323000D02*
X13323000Y-14493000D01*
X13323000Y-14323000D02*
X13153000Y-14493000D01*
X14169000Y-14323000D02*
X14339000Y-14493000D01*
X14339000Y-14323000D02*
X14169000Y-14493000D01*
X11053000Y-8023000D02*
X11223000Y-8193000D01*
X11223000Y-8023000D02*
X11053000Y-8193000D01*
X12069000Y-8023000D02*
X12239000Y-8193000D01*
X12239000Y-8023000D02*
X12069000Y-8193000D01*
X13153000Y-10123000D02*
X13323000Y-10293000D01*
X13323000Y-10123000D02*
X13153000Y-10293000D01*
X14169000Y-10123000D02*
X14339000Y-10293000D01*
X14339000Y-10123000D02*
X14169000Y-10293000D01*
X17353000Y-10123000D02*
X17523000Y-10293000D01*
X17523000Y-10123000D02*
X17353000Y-10293000D01*
X18369000Y-10123000D02*
X18539000Y-10293000D01*
X18539000Y-10123000D02*
X18369000Y-10293000D01*
X11053000Y-14323000D02*
X11223000Y-14493000D01*
X11223000Y-14323000D02*
X11053000Y-14493000D01*
X12069000Y-14323000D02*
X12239000Y-14493000D01*
X12239000Y-14323000D02*
X12069000Y-14493000D01*
X18146000Y-14408000D02*
G75*
G03X18146000Y-14408000I-200000J0D01*
G01*
X18146000Y-12308000D02*
G75*
G03X18146000Y-12308000I-200000J0D01*
G01*
X11846000Y-10208000D02*
G75*
G03X11846000Y-10208000I-200000J0D01*
G01*
X13946000Y-8108000D02*
G75*
G03X13946000Y-8108000I-200000J0D01*
G01*
X16046000Y-10208000D02*
G75*
G03X16046000Y-10208000I-200000J0D01*
G01*
X16046000Y-14408000D02*
G75*
G03X16046000Y-14408000I-200000J0D01*
G01*
X13946000Y-12308000D02*
G75*
G03X13946000Y-12308000I-200000J0D01*
G01*
X13946000Y-14408000D02*
G75*
G03X13946000Y-14408000I-200000J0D01*
G01*
X11846000Y-8108000D02*
G75*
G03X11846000Y-8108000I-200000J0D01*
G01*
X13946000Y-10208000D02*
G75*
G03X13946000Y-10208000I-200000J0D01*
G01*
X18146000Y-10208000D02*
G75*
G03X18146000Y-10208000I-200000J0D01*
G01*
X11846000Y-14408000D02*
G75*
G03X11846000Y-14408000I-200000J0D01*
G01*
X16046000Y-12308000D02*
G75*
G03X16046000Y-12308000I-200000J0D01*
G01*
X11846000Y-12308000D02*
G75*
G03X11846000Y-12308000I-200000J0D01*
G01*
X16046000Y-8108000D02*
G75*
G03X16046000Y-8108000I-200000J0D01*
G01*
X18146000Y-8108000D02*
G75*
G03X18146000Y-8108000I-200000J0D01*
G01*
D12*
X10681428Y-16670714D02*
X10681428Y-16370714D01*
X10752857Y-16370714D01*
X10795714Y-16385000D01*
X10824286Y-16413571D01*
X10838571Y-16442143D01*
X10852857Y-16499286D01*
X10852857Y-16542143D01*
X10838571Y-16599286D01*
X10824286Y-16627857D01*
X10795714Y-16656429D01*
X10752857Y-16670714D01*
X10681428Y-16670714D01*
X10981428Y-16670714D02*
X10981428Y-16470714D01*
X10981428Y-16527857D02*
X10995714Y-16499286D01*
X11010000Y-16485000D01*
X11038571Y-16470714D01*
X11067143Y-16470714D01*
X11167143Y-16670714D02*
X11167143Y-16470714D01*
X11167143Y-16370714D02*
X11152857Y-16385000D01*
X11167143Y-16399286D01*
X11181428Y-16385000D01*
X11167143Y-16370714D01*
X11167143Y-16399286D01*
X11352857Y-16670714D02*
X11324286Y-16656429D01*
X11310000Y-16627857D01*
X11310000Y-16370714D01*
X11510000Y-16670714D02*
X11481428Y-16656429D01*
X11467143Y-16627857D01*
X11467143Y-16370714D01*
X11852857Y-16670714D02*
X11852857Y-16370714D01*
X11952857Y-16585000D01*
X12052857Y-16370714D01*
X12052857Y-16670714D01*
X12324286Y-16670714D02*
X12324286Y-16513571D01*
X12310000Y-16485000D01*
X12281428Y-16470714D01*
X12224286Y-16470714D01*
X12195714Y-16485000D01*
X12324286Y-16656429D02*
X12295714Y-16670714D01*
X12224286Y-16670714D01*
X12195714Y-16656429D01*
X12181428Y-16627857D01*
X12181428Y-16599286D01*
X12195714Y-16570714D01*
X12224286Y-16556429D01*
X12295714Y-16556429D01*
X12324286Y-16542143D01*
X12467143Y-16470714D02*
X12467143Y-16770714D01*
X12467143Y-16485000D02*
X12495714Y-16470714D01*
X12552857Y-16470714D01*
X12581428Y-16485000D01*
X12595714Y-16499286D01*
X12610000Y-16527857D01*
X12610000Y-16613571D01*
X12595714Y-16642143D01*
X12581428Y-16656429D01*
X12552857Y-16670714D01*
X12495714Y-16670714D01*
X12467143Y-16656429D01*
X12738571Y-16642143D02*
X12752857Y-16656429D01*
X12738571Y-16670714D01*
X12724286Y-16656429D01*
X12738571Y-16642143D01*
X12738571Y-16670714D01*
X12738571Y-16485000D02*
X12752857Y-16499286D01*
X12738571Y-16513571D01*
X12724286Y-16499286D01*
X12738571Y-16485000D01*
X12738571Y-16513571D01*
X10225000Y-17080000D02*
X10395000Y-17250000D01*
X10395000Y-17080000D02*
X10225000Y-17250000D01*
X10838571Y-17300714D02*
X10667143Y-17300714D01*
X10752857Y-17300714D02*
X10752857Y-17000714D01*
X10724286Y-17043572D01*
X10695714Y-17072143D01*
X10667143Y-17086429D01*
X10967143Y-17272143D02*
X10981428Y-17286429D01*
X10967143Y-17300714D01*
X10952857Y-17286429D01*
X10967143Y-17272143D01*
X10967143Y-17300714D01*
X11081428Y-17000714D02*
X11281428Y-17000714D01*
X11152857Y-17300714D01*
X11452857Y-17000714D02*
X11481428Y-17000714D01*
X11510000Y-17015000D01*
X11524286Y-17029286D01*
X11538571Y-17057857D01*
X11552857Y-17115000D01*
X11552857Y-17186429D01*
X11538571Y-17243572D01*
X11524286Y-17272143D01*
X11510000Y-17286429D01*
X11481428Y-17300714D01*
X11452857Y-17300714D01*
X11424286Y-17286429D01*
X11410000Y-17272143D01*
X11395714Y-17243572D01*
X11381428Y-17186429D01*
X11381428Y-17115000D01*
X11395714Y-17057857D01*
X11410000Y-17029286D01*
X11424286Y-17015000D01*
X11452857Y-17000714D01*
X11681428Y-17300714D02*
X11681428Y-17100714D01*
X11681428Y-17129286D02*
X11695714Y-17115000D01*
X11724286Y-17100714D01*
X11767143Y-17100714D01*
X11795714Y-17115000D01*
X11810000Y-17143572D01*
X11810000Y-17300714D01*
X11810000Y-17143572D02*
X11824286Y-17115000D01*
X11852857Y-17100714D01*
X11895714Y-17100714D01*
X11924286Y-17115000D01*
X11938571Y-17143572D01*
X11938571Y-17300714D01*
X12081428Y-17300714D02*
X12081428Y-17100714D01*
X12081428Y-17129286D02*
X12095714Y-17115000D01*
X12124286Y-17100714D01*
X12167143Y-17100714D01*
X12195714Y-17115000D01*
X12210000Y-17143572D01*
X12210000Y-17300714D01*
X12210000Y-17143572D02*
X12224286Y-17115000D01*
X12252857Y-17100714D01*
X12295714Y-17100714D01*
X12324286Y-17115000D01*
X12338571Y-17143572D01*
X12338571Y-17300714D01*
X12924286Y-16986429D02*
X12667143Y-17372143D01*
X13310000Y-17000714D02*
X13338571Y-17000714D01*
X13367143Y-17015000D01*
X13381428Y-17029286D01*
X13395714Y-17057857D01*
X13410000Y-17115000D01*
X13410000Y-17186429D01*
X13395714Y-17243572D01*
X13381428Y-17272143D01*
X13367143Y-17286429D01*
X13338571Y-17300714D01*
X13310000Y-17300714D01*
X13281428Y-17286429D01*
X13267143Y-17272143D01*
X13252857Y-17243572D01*
X13238571Y-17186429D01*
X13238571Y-17115000D01*
X13252857Y-17057857D01*
X13267143Y-17029286D01*
X13281428Y-17015000D01*
X13310000Y-17000714D01*
X13538571Y-17272143D02*
X13552857Y-17286429D01*
X13538571Y-17300714D01*
X13524286Y-17286429D01*
X13538571Y-17272143D01*
X13538571Y-17300714D01*
X13738571Y-17000714D02*
X13767143Y-17000714D01*
X13795714Y-17015000D01*
X13810000Y-17029286D01*
X13824286Y-17057857D01*
X13838571Y-17115000D01*
X13838571Y-17186429D01*
X13824286Y-17243572D01*
X13810000Y-17272143D01*
X13795714Y-17286429D01*
X13767143Y-17300714D01*
X13738571Y-17300714D01*
X13710000Y-17286429D01*
X13695714Y-17272143D01*
X13681428Y-17243572D01*
X13667143Y-17186429D01*
X13667143Y-17115000D01*
X13681428Y-17057857D01*
X13695714Y-17029286D01*
X13710000Y-17015000D01*
X13738571Y-17000714D01*
X14095714Y-17000714D02*
X14038571Y-17000714D01*
X14010000Y-17015000D01*
X13995714Y-17029286D01*
X13967143Y-17072143D01*
X13952857Y-17129286D01*
X13952857Y-17243572D01*
X13967143Y-17272143D01*
X13981428Y-17286429D01*
X14010000Y-17300714D01*
X14067143Y-17300714D01*
X14095714Y-17286429D01*
X14110000Y-17272143D01*
X14124286Y-17243572D01*
X14124286Y-17172143D01*
X14110000Y-17143572D01*
X14095714Y-17129286D01*
X14067143Y-17115000D01*
X14010000Y-17115000D01*
X13981428Y-17129286D01*
X13967143Y-17143572D01*
X13952857Y-17172143D01*
X14224286Y-17000714D02*
X14424286Y-17000714D01*
X14295714Y-17300714D01*
X14524286Y-17000714D02*
X14524286Y-17057857D01*
X14638571Y-17000714D02*
X14638571Y-17057857D01*
X15081428Y-17415000D02*
X15067143Y-17400714D01*
X15038571Y-17357857D01*
X15024286Y-17329286D01*
X15010000Y-17286429D01*
X14995714Y-17215000D01*
X14995714Y-17157857D01*
X15010000Y-17086429D01*
X15024286Y-17043572D01*
X15038571Y-17015000D01*
X15067143Y-16972143D01*
X15081428Y-16957857D01*
X15167143Y-17000714D02*
X15352857Y-17000714D01*
X15252857Y-17115000D01*
X15295714Y-17115000D01*
X15324286Y-17129286D01*
X15338571Y-17143572D01*
X15352857Y-17172143D01*
X15352857Y-17243572D01*
X15338571Y-17272143D01*
X15324286Y-17286429D01*
X15295714Y-17300714D01*
X15210000Y-17300714D01*
X15181428Y-17286429D01*
X15167143Y-17272143D01*
X15467143Y-17029286D02*
X15481428Y-17015000D01*
X15510000Y-17000714D01*
X15581428Y-17000714D01*
X15610000Y-17015000D01*
X15624286Y-17029286D01*
X15638571Y-17057857D01*
X15638571Y-17086429D01*
X15624286Y-17129286D01*
X15452857Y-17300714D01*
X15638571Y-17300714D01*
X15995714Y-17300714D02*
X15995714Y-17000714D01*
X16124286Y-17300714D02*
X16124286Y-17143572D01*
X16110000Y-17115000D01*
X16081428Y-17100714D01*
X16038571Y-17100714D01*
X16010000Y-17115000D01*
X15995714Y-17129286D01*
X16310000Y-17300714D02*
X16281428Y-17286429D01*
X16267143Y-17272143D01*
X16252857Y-17243572D01*
X16252857Y-17157857D01*
X16267143Y-17129286D01*
X16281428Y-17115000D01*
X16310000Y-17100714D01*
X16352857Y-17100714D01*
X16381428Y-17115000D01*
X16395714Y-17129286D01*
X16410000Y-17157857D01*
X16410000Y-17243572D01*
X16395714Y-17272143D01*
X16381428Y-17286429D01*
X16352857Y-17300714D01*
X16310000Y-17300714D01*
X16581428Y-17300714D02*
X16552857Y-17286429D01*
X16538571Y-17257857D01*
X16538571Y-17000714D01*
X16810000Y-17286429D02*
X16781428Y-17300714D01*
X16724286Y-17300714D01*
X16695714Y-17286429D01*
X16681428Y-17257857D01*
X16681428Y-17143572D01*
X16695714Y-17115000D01*
X16724286Y-17100714D01*
X16781428Y-17100714D01*
X16810000Y-17115000D01*
X16824286Y-17143572D01*
X16824286Y-17172143D01*
X16681428Y-17200714D01*
X16938571Y-17286429D02*
X16967143Y-17300714D01*
X17024286Y-17300714D01*
X17052857Y-17286429D01*
X17067143Y-17257857D01*
X17067143Y-17243572D01*
X17052857Y-17215000D01*
X17024286Y-17200714D01*
X16981428Y-17200714D01*
X16952857Y-17186429D01*
X16938571Y-17157857D01*
X16938571Y-17143572D01*
X16952857Y-17115000D01*
X16981428Y-17100714D01*
X17024286Y-17100714D01*
X17052857Y-17115000D01*
X17167143Y-17415000D02*
X17181428Y-17400714D01*
X17210000Y-17357857D01*
X17224286Y-17329286D01*
X17238571Y-17286429D01*
X17252857Y-17215000D01*
X17252857Y-17157857D01*
X17238571Y-17086429D01*
X17224286Y-17043572D01*
X17210000Y-17015000D01*
X17181428Y-16972143D01*
X17167143Y-16957857D01*
X17710000Y-17415000D02*
X17695714Y-17400714D01*
X17667143Y-17357857D01*
X17652857Y-17329286D01*
X17638571Y-17286429D01*
X17624286Y-17215000D01*
X17624286Y-17157857D01*
X17638571Y-17086429D01*
X17652857Y-17043572D01*
X17667143Y-17015000D01*
X17695714Y-16972143D01*
X17710000Y-16957857D01*
X17824286Y-17100714D02*
X17824286Y-17300714D01*
X17824286Y-17129286D02*
X17838571Y-17115000D01*
X17867143Y-17100714D01*
X17910000Y-17100714D01*
X17938571Y-17115000D01*
X17952857Y-17143572D01*
X17952857Y-17300714D01*
X18138571Y-17300714D02*
X18110000Y-17286429D01*
X18095714Y-17272143D01*
X18081428Y-17243572D01*
X18081428Y-17157857D01*
X18095714Y-17129286D01*
X18110000Y-17115000D01*
X18138571Y-17100714D01*
X18181428Y-17100714D01*
X18210000Y-17115000D01*
X18224286Y-17129286D01*
X18238571Y-17157857D01*
X18238571Y-17243572D01*
X18224286Y-17272143D01*
X18210000Y-17286429D01*
X18181428Y-17300714D01*
X18138571Y-17300714D01*
X18324286Y-17100714D02*
X18438571Y-17100714D01*
X18367143Y-17000714D02*
X18367143Y-17257857D01*
X18381428Y-17286429D01*
X18410000Y-17300714D01*
X18438571Y-17300714D01*
X18767143Y-17100714D02*
X18767143Y-17400714D01*
X18767143Y-17115000D02*
X18795714Y-17100714D01*
X18852857Y-17100714D01*
X18881428Y-17115000D01*
X18895714Y-17129286D01*
X18910000Y-17157857D01*
X18910000Y-17243572D01*
X18895714Y-17272143D01*
X18881428Y-17286429D01*
X18852857Y-17300714D01*
X18795714Y-17300714D01*
X18767143Y-17286429D01*
X19081428Y-17300714D02*
X19052857Y-17286429D01*
X19038571Y-17257857D01*
X19038571Y-17000714D01*
X19324286Y-17300714D02*
X19324286Y-17143572D01*
X19310000Y-17115000D01*
X19281428Y-17100714D01*
X19224286Y-17100714D01*
X19195714Y-17115000D01*
X19324286Y-17286429D02*
X19295714Y-17300714D01*
X19224286Y-17300714D01*
X19195714Y-17286429D01*
X19181428Y-17257857D01*
X19181428Y-17229286D01*
X19195714Y-17200714D01*
X19224286Y-17186429D01*
X19295714Y-17186429D01*
X19324286Y-17172143D01*
X19424286Y-17100714D02*
X19538571Y-17100714D01*
X19467143Y-17000714D02*
X19467143Y-17257857D01*
X19481428Y-17286429D01*
X19510000Y-17300714D01*
X19538571Y-17300714D01*
X19752857Y-17286429D02*
X19724286Y-17300714D01*
X19667143Y-17300714D01*
X19638571Y-17286429D01*
X19624286Y-17257857D01*
X19624286Y-17143572D01*
X19638571Y-17115000D01*
X19667143Y-17100714D01*
X19724286Y-17100714D01*
X19752857Y-17115000D01*
X19767143Y-17143572D01*
X19767143Y-17172143D01*
X19624286Y-17200714D01*
X20024286Y-17300714D02*
X20024286Y-17000714D01*
X20024286Y-17286429D02*
X19995714Y-17300714D01*
X19938571Y-17300714D01*
X19910000Y-17286429D01*
X19895714Y-17272143D01*
X19881428Y-17243572D01*
X19881428Y-17157857D01*
X19895714Y-17129286D01*
X19910000Y-17115000D01*
X19938571Y-17100714D01*
X19995714Y-17100714D01*
X20024286Y-17115000D01*
X20138571Y-17415000D02*
X20152857Y-17400714D01*
X20181428Y-17357857D01*
X20195714Y-17329286D01*
X20210000Y-17286429D01*
X20224286Y-17215000D01*
X20224286Y-17157857D01*
X20210000Y-17086429D01*
X20195714Y-17043572D01*
X20181428Y-17015000D01*
X20152857Y-16972143D01*
X20138571Y-16957857D01*
X10395000Y-17561000D02*
G75*
G03X10395000Y-17561000I-200000J0D01*
G01*
X10810000Y-17496714D02*
X10810000Y-17696714D01*
X10738571Y-17382429D02*
X10667143Y-17596714D01*
X10852857Y-17596714D01*
X10967143Y-17668143D02*
X10981428Y-17682429D01*
X10967143Y-17696714D01*
X10952857Y-17682429D01*
X10967143Y-17668143D01*
X10967143Y-17696714D01*
X11167143Y-17396714D02*
X11195714Y-17396714D01*
X11224286Y-17411000D01*
X11238571Y-17425286D01*
X11252857Y-17453857D01*
X11267143Y-17511000D01*
X11267143Y-17582429D01*
X11252857Y-17639572D01*
X11238571Y-17668143D01*
X11224286Y-17682429D01*
X11195714Y-17696714D01*
X11167143Y-17696714D01*
X11138571Y-17682429D01*
X11124286Y-17668143D01*
X11110000Y-17639572D01*
X11095714Y-17582429D01*
X11095714Y-17511000D01*
X11110000Y-17453857D01*
X11124286Y-17425286D01*
X11138571Y-17411000D01*
X11167143Y-17396714D01*
X11452857Y-17396714D02*
X11481428Y-17396714D01*
X11510000Y-17411000D01*
X11524286Y-17425286D01*
X11538571Y-17453857D01*
X11552857Y-17511000D01*
X11552857Y-17582429D01*
X11538571Y-17639572D01*
X11524286Y-17668143D01*
X11510000Y-17682429D01*
X11481428Y-17696714D01*
X11452857Y-17696714D01*
X11424286Y-17682429D01*
X11410000Y-17668143D01*
X11395714Y-17639572D01*
X11381428Y-17582429D01*
X11381428Y-17511000D01*
X11395714Y-17453857D01*
X11410000Y-17425286D01*
X11424286Y-17411000D01*
X11452857Y-17396714D01*
X11681428Y-17696714D02*
X11681428Y-17496714D01*
X11681428Y-17525286D02*
X11695714Y-17511000D01*
X11724286Y-17496714D01*
X11767143Y-17496714D01*
X11795714Y-17511000D01*
X11810000Y-17539572D01*
X11810000Y-17696714D01*
X11810000Y-17539572D02*
X11824286Y-17511000D01*
X11852857Y-17496714D01*
X11895714Y-17496714D01*
X11924286Y-17511000D01*
X11938571Y-17539572D01*
X11938571Y-17696714D01*
X12081428Y-17696714D02*
X12081428Y-17496714D01*
X12081428Y-17525286D02*
X12095714Y-17511000D01*
X12124286Y-17496714D01*
X12167143Y-17496714D01*
X12195714Y-17511000D01*
X12210000Y-17539572D01*
X12210000Y-17696714D01*
X12210000Y-17539572D02*
X12224286Y-17511000D01*
X12252857Y-17496714D01*
X12295714Y-17496714D01*
X12324286Y-17511000D01*
X12338571Y-17539572D01*
X12338571Y-17696714D01*
X12924286Y-17382429D02*
X12667143Y-17768143D01*
X13310000Y-17396714D02*
X13338571Y-17396714D01*
X13367143Y-17411000D01*
X13381428Y-17425286D01*
X13395714Y-17453857D01*
X13410000Y-17511000D01*
X13410000Y-17582429D01*
X13395714Y-17639572D01*
X13381428Y-17668143D01*
X13367143Y-17682429D01*
X13338571Y-17696714D01*
X13310000Y-17696714D01*
X13281428Y-17682429D01*
X13267143Y-17668143D01*
X13252857Y-17639572D01*
X13238571Y-17582429D01*
X13238571Y-17511000D01*
X13252857Y-17453857D01*
X13267143Y-17425286D01*
X13281428Y-17411000D01*
X13310000Y-17396714D01*
X13538571Y-17668143D02*
X13552857Y-17682429D01*
X13538571Y-17696714D01*
X13524286Y-17682429D01*
X13538571Y-17668143D01*
X13538571Y-17696714D01*
X13838571Y-17696714D02*
X13667143Y-17696714D01*
X13752857Y-17696714D02*
X13752857Y-17396714D01*
X13724286Y-17439572D01*
X13695714Y-17468143D01*
X13667143Y-17482429D01*
X14110000Y-17396714D02*
X13967143Y-17396714D01*
X13952857Y-17539572D01*
X13967143Y-17525286D01*
X13995714Y-17511000D01*
X14067143Y-17511000D01*
X14095714Y-17525286D01*
X14110000Y-17539572D01*
X14124286Y-17568143D01*
X14124286Y-17639572D01*
X14110000Y-17668143D01*
X14095714Y-17682429D01*
X14067143Y-17696714D01*
X13995714Y-17696714D01*
X13967143Y-17682429D01*
X13952857Y-17668143D01*
X14224286Y-17396714D02*
X14424286Y-17396714D01*
X14295714Y-17696714D01*
X14524286Y-17396714D02*
X14524286Y-17453857D01*
X14638571Y-17396714D02*
X14638571Y-17453857D01*
X15081428Y-17811000D02*
X15067143Y-17796714D01*
X15038571Y-17753857D01*
X15024286Y-17725286D01*
X15010000Y-17682429D01*
X14995714Y-17611000D01*
X14995714Y-17553857D01*
X15010000Y-17482429D01*
X15024286Y-17439572D01*
X15038571Y-17411000D01*
X15067143Y-17368143D01*
X15081428Y-17353857D01*
X15352857Y-17696714D02*
X15181428Y-17696714D01*
X15267143Y-17696714D02*
X15267143Y-17396714D01*
X15238571Y-17439572D01*
X15210000Y-17468143D01*
X15181428Y-17482429D01*
X15610000Y-17396714D02*
X15552857Y-17396714D01*
X15524286Y-17411000D01*
X15510000Y-17425286D01*
X15481428Y-17468143D01*
X15467143Y-17525286D01*
X15467143Y-17639572D01*
X15481428Y-17668143D01*
X15495714Y-17682429D01*
X15524286Y-17696714D01*
X15581428Y-17696714D01*
X15610000Y-17682429D01*
X15624286Y-17668143D01*
X15638571Y-17639572D01*
X15638571Y-17568143D01*
X15624286Y-17539572D01*
X15610000Y-17525286D01*
X15581428Y-17511000D01*
X15524286Y-17511000D01*
X15495714Y-17525286D01*
X15481428Y-17539572D01*
X15467143Y-17568143D01*
X15995714Y-17696714D02*
X15995714Y-17396714D01*
X16124286Y-17696714D02*
X16124286Y-17539572D01*
X16110000Y-17511000D01*
X16081428Y-17496714D01*
X16038571Y-17496714D01*
X16010000Y-17511000D01*
X15995714Y-17525286D01*
X16310000Y-17696714D02*
X16281428Y-17682429D01*
X16267143Y-17668143D01*
X16252857Y-17639572D01*
X16252857Y-17553857D01*
X16267143Y-17525286D01*
X16281428Y-17511000D01*
X16310000Y-17496714D01*
X16352857Y-17496714D01*
X16381428Y-17511000D01*
X16395714Y-17525286D01*
X16410000Y-17553857D01*
X16410000Y-17639572D01*
X16395714Y-17668143D01*
X16381428Y-17682429D01*
X16352857Y-17696714D01*
X16310000Y-17696714D01*
X16581428Y-17696714D02*
X16552857Y-17682429D01*
X16538571Y-17653857D01*
X16538571Y-17396714D01*
X16810000Y-17682429D02*
X16781428Y-17696714D01*
X16724286Y-17696714D01*
X16695714Y-17682429D01*
X16681428Y-17653857D01*
X16681428Y-17539572D01*
X16695714Y-17511000D01*
X16724286Y-17496714D01*
X16781428Y-17496714D01*
X16810000Y-17511000D01*
X16824286Y-17539572D01*
X16824286Y-17568143D01*
X16681428Y-17596714D01*
X16938571Y-17682429D02*
X16967143Y-17696714D01*
X17024286Y-17696714D01*
X17052857Y-17682429D01*
X17067143Y-17653857D01*
X17067143Y-17639572D01*
X17052857Y-17611000D01*
X17024286Y-17596714D01*
X16981428Y-17596714D01*
X16952857Y-17582429D01*
X16938571Y-17553857D01*
X16938571Y-17539572D01*
X16952857Y-17511000D01*
X16981428Y-17496714D01*
X17024286Y-17496714D01*
X17052857Y-17511000D01*
X17167143Y-17811000D02*
X17181428Y-17796714D01*
X17210000Y-17753857D01*
X17224286Y-17725286D01*
X17238571Y-17682429D01*
X17252857Y-17611000D01*
X17252857Y-17553857D01*
X17238571Y-17482429D01*
X17224286Y-17439572D01*
X17210000Y-17411000D01*
X17181428Y-17368143D01*
X17167143Y-17353857D01*
X17710000Y-17811000D02*
X17695714Y-17796714D01*
X17667143Y-17753857D01*
X17652857Y-17725286D01*
X17638571Y-17682429D01*
X17624286Y-17611000D01*
X17624286Y-17553857D01*
X17638571Y-17482429D01*
X17652857Y-17439572D01*
X17667143Y-17411000D01*
X17695714Y-17368143D01*
X17710000Y-17353857D01*
X17824286Y-17496714D02*
X17824286Y-17696714D01*
X17824286Y-17525286D02*
X17838571Y-17511000D01*
X17867143Y-17496714D01*
X17910000Y-17496714D01*
X17938571Y-17511000D01*
X17952857Y-17539572D01*
X17952857Y-17696714D01*
X18138571Y-17696714D02*
X18110000Y-17682429D01*
X18095714Y-17668143D01*
X18081428Y-17639572D01*
X18081428Y-17553857D01*
X18095714Y-17525286D01*
X18110000Y-17511000D01*
X18138571Y-17496714D01*
X18181428Y-17496714D01*
X18210000Y-17511000D01*
X18224286Y-17525286D01*
X18238571Y-17553857D01*
X18238571Y-17639572D01*
X18224286Y-17668143D01*
X18210000Y-17682429D01*
X18181428Y-17696714D01*
X18138571Y-17696714D01*
X18324286Y-17496714D02*
X18438571Y-17496714D01*
X18367143Y-17396714D02*
X18367143Y-17653857D01*
X18381428Y-17682429D01*
X18410000Y-17696714D01*
X18438571Y-17696714D01*
X18767143Y-17496714D02*
X18767143Y-17796714D01*
X18767143Y-17511000D02*
X18795714Y-17496714D01*
X18852857Y-17496714D01*
X18881428Y-17511000D01*
X18895714Y-17525286D01*
X18910000Y-17553857D01*
X18910000Y-17639572D01*
X18895714Y-17668143D01*
X18881428Y-17682429D01*
X18852857Y-17696714D01*
X18795714Y-17696714D01*
X18767143Y-17682429D01*
X19081428Y-17696714D02*
X19052857Y-17682429D01*
X19038571Y-17653857D01*
X19038571Y-17396714D01*
X19324286Y-17696714D02*
X19324286Y-17539572D01*
X19310000Y-17511000D01*
X19281428Y-17496714D01*
X19224286Y-17496714D01*
X19195714Y-17511000D01*
X19324286Y-17682429D02*
X19295714Y-17696714D01*
X19224286Y-17696714D01*
X19195714Y-17682429D01*
X19181428Y-17653857D01*
X19181428Y-17625286D01*
X19195714Y-17596714D01*
X19224286Y-17582429D01*
X19295714Y-17582429D01*
X19324286Y-17568143D01*
X19424286Y-17496714D02*
X19538571Y-17496714D01*
X19467143Y-17396714D02*
X19467143Y-17653857D01*
X19481428Y-17682429D01*
X19510000Y-17696714D01*
X19538571Y-17696714D01*
X19752857Y-17682429D02*
X19724286Y-17696714D01*
X19667143Y-17696714D01*
X19638571Y-17682429D01*
X19624286Y-17653857D01*
X19624286Y-17539572D01*
X19638571Y-17511000D01*
X19667143Y-17496714D01*
X19724286Y-17496714D01*
X19752857Y-17511000D01*
X19767143Y-17539572D01*
X19767143Y-17568143D01*
X19624286Y-17596714D01*
X20024286Y-17696714D02*
X20024286Y-17396714D01*
X20024286Y-17682429D02*
X19995714Y-17696714D01*
X19938571Y-17696714D01*
X19910000Y-17682429D01*
X19895714Y-17668143D01*
X19881428Y-17639572D01*
X19881428Y-17553857D01*
X19895714Y-17525286D01*
X19910000Y-17511000D01*
X19938571Y-17496714D01*
X19995714Y-17496714D01*
X20024286Y-17511000D01*
X20138571Y-17811000D02*
X20152857Y-17796714D01*
X20181428Y-17753857D01*
X20195714Y-17725286D01*
X20210000Y-17682429D01*
X20224286Y-17611000D01*
X20224286Y-17553857D01*
X20210000Y-17482429D01*
X20195714Y-17439572D01*
X20181428Y-17411000D01*
X20152857Y-17368143D01*
X20138571Y-17353857D01*
M02*
