%TF.GenerationSoftware,KiCad,Pcbnew,5.0.2+dfsg1-1*%
%TF.CreationDate,2022-01-02T19:08:51-08:00*%
%TF.ProjectId,keypad,6b657970-6164-42e6-9b69-6361645f7063,rev?*%
%TF.SameCoordinates,Original*%
%TF.FileFunction,Legend,Bot*%
%TF.FilePolarity,Positive*%
%FSLAX46Y46*%
G04 Gerber Fmt 4.6, Leading zero omitted, Abs format (unit mm)*
G04 Created by KiCad (PCBNEW 5.0.2+dfsg1-1) date Sun 02 Jan 2022 07:08:51 PM PST*
%MOMM*%
%LPD*%
G01*
G04 APERTURE LIST*
%ADD10C,0.500000*%
%ADD11C,0.300000*%
%ADD12C,0.127000*%
%ADD13C,0.200000*%
%ADD14C,0.120000*%
%ADD15C,0.150000*%
%ADD16C,1.700000*%
%ADD17C,4.000000*%
%ADD18C,2.200000*%
%ADD19R,1.800000X2.600000*%
%ADD20O,1.800000X2.600000*%
%ADD21C,3.000000*%
%ADD22R,1.700000X1.700000*%
%ADD23O,1.700000X1.700000*%
%ADD24R,1.600000X1.600000*%
%ADD25R,1.100000X1.600000*%
%ADD26C,8.600000*%
%ADD27C,0.900000*%
%ADD28O,1.400000X1.400000*%
%ADD29C,1.400000*%
%ADD30R,1.600000X2.400000*%
%ADD31O,1.600000X2.400000*%
G04 APERTURE END LIST*
D10*
X191000000Y-70500000D02*
X189000000Y-70500000D01*
X191000000Y-112500000D02*
X191000000Y-70500000D01*
X191000000Y-112500000D02*
X191000000Y-154000000D01*
X189000000Y-112500000D02*
X191000000Y-112500000D01*
D11*
X151678571Y-85128571D02*
X151678571Y-83628571D01*
X149607142Y-85128571D02*
X149750000Y-85057142D01*
X149821428Y-84985714D01*
X149892857Y-84842857D01*
X149892857Y-84414285D01*
X149821428Y-84271428D01*
X149750000Y-84200000D01*
X149607142Y-84128571D01*
X149392857Y-84128571D01*
X149250000Y-84200000D01*
X149178571Y-84271428D01*
X149107142Y-84414285D01*
X149107142Y-84842857D01*
X149178571Y-84985714D01*
X149250000Y-85057142D01*
X149392857Y-85128571D01*
X149607142Y-85128571D01*
X148464285Y-84128571D02*
X148464285Y-85128571D01*
X148464285Y-84271428D02*
X148392857Y-84200000D01*
X148250000Y-84128571D01*
X148035714Y-84128571D01*
X147892857Y-84200000D01*
X147821428Y-84342857D01*
X147821428Y-85128571D01*
X146892857Y-85128571D02*
X147035714Y-85057142D01*
X147107142Y-84914285D01*
X147107142Y-83628571D01*
X146464285Y-84128571D02*
X146107142Y-85128571D01*
X145750000Y-84128571D02*
X146107142Y-85128571D01*
X146250000Y-85485714D01*
X146321428Y-85557142D01*
X146464285Y-85628571D01*
X143392857Y-85057142D02*
X143535714Y-85128571D01*
X143821428Y-85128571D01*
X143964285Y-85057142D01*
X144035714Y-84985714D01*
X144107142Y-84842857D01*
X144107142Y-84414285D01*
X144035714Y-84271428D01*
X143964285Y-84200000D01*
X143821428Y-84128571D01*
X143535714Y-84128571D01*
X143392857Y-84200000D01*
X142107142Y-85128571D02*
X142107142Y-84342857D01*
X142178571Y-84200000D01*
X142321428Y-84128571D01*
X142607142Y-84128571D01*
X142750000Y-84200000D01*
X142107142Y-85057142D02*
X142250000Y-85128571D01*
X142607142Y-85128571D01*
X142750000Y-85057142D01*
X142821428Y-84914285D01*
X142821428Y-84771428D01*
X142750000Y-84628571D01*
X142607142Y-84557142D01*
X142250000Y-84557142D01*
X142107142Y-84485714D01*
X141392857Y-85128571D02*
X141392857Y-84128571D01*
X141392857Y-84271428D02*
X141321428Y-84200000D01*
X141178571Y-84128571D01*
X140964285Y-84128571D01*
X140821428Y-84200000D01*
X140750000Y-84342857D01*
X140750000Y-85128571D01*
X140750000Y-84342857D02*
X140678571Y-84200000D01*
X140535714Y-84128571D01*
X140321428Y-84128571D01*
X140178571Y-84200000D01*
X140107142Y-84342857D01*
X140107142Y-85128571D01*
X138821428Y-85057142D02*
X138964285Y-85128571D01*
X139250000Y-85128571D01*
X139392857Y-85057142D01*
X139464285Y-84914285D01*
X139464285Y-84342857D01*
X139392857Y-84200000D01*
X139250000Y-84128571D01*
X138964285Y-84128571D01*
X138821428Y-84200000D01*
X138750000Y-84342857D01*
X138750000Y-84485714D01*
X139464285Y-84628571D01*
X137178571Y-84128571D02*
X136607142Y-84128571D01*
X136964285Y-83628571D02*
X136964285Y-84914285D01*
X136892857Y-85057142D01*
X136750000Y-85128571D01*
X136607142Y-85128571D01*
X135892857Y-85128571D02*
X136035714Y-85057142D01*
X136107142Y-84985714D01*
X136178571Y-84842857D01*
X136178571Y-84414285D01*
X136107142Y-84271428D01*
X136035714Y-84200000D01*
X135892857Y-84128571D01*
X135678571Y-84128571D01*
X135535714Y-84200000D01*
X135464285Y-84271428D01*
X135392857Y-84414285D01*
X135392857Y-84842857D01*
X135464285Y-84985714D01*
X135535714Y-85057142D01*
X135678571Y-85128571D01*
X135892857Y-85128571D01*
X148250000Y-86178571D02*
X147750000Y-87678571D01*
X147250000Y-86178571D01*
X146178571Y-87607142D02*
X146321428Y-87678571D01*
X146607142Y-87678571D01*
X146750000Y-87607142D01*
X146821428Y-87464285D01*
X146821428Y-86892857D01*
X146750000Y-86750000D01*
X146607142Y-86678571D01*
X146321428Y-86678571D01*
X146178571Y-86750000D01*
X146107142Y-86892857D01*
X146107142Y-87035714D01*
X146821428Y-87178571D01*
X144821428Y-86678571D02*
X144821428Y-87892857D01*
X144892857Y-88035714D01*
X144964285Y-88107142D01*
X145107142Y-88178571D01*
X145321428Y-88178571D01*
X145464285Y-88107142D01*
X144821428Y-87607142D02*
X144964285Y-87678571D01*
X145250000Y-87678571D01*
X145392857Y-87607142D01*
X145464285Y-87535714D01*
X145535714Y-87392857D01*
X145535714Y-86964285D01*
X145464285Y-86821428D01*
X145392857Y-86750000D01*
X145250000Y-86678571D01*
X144964285Y-86678571D01*
X144821428Y-86750000D01*
X143464285Y-87678571D02*
X143464285Y-86892857D01*
X143535714Y-86750000D01*
X143678571Y-86678571D01*
X143964285Y-86678571D01*
X144107142Y-86750000D01*
X143464285Y-87607142D02*
X143607142Y-87678571D01*
X143964285Y-87678571D01*
X144107142Y-87607142D01*
X144178571Y-87464285D01*
X144178571Y-87321428D01*
X144107142Y-87178571D01*
X143964285Y-87107142D01*
X143607142Y-87107142D01*
X143464285Y-87035714D01*
X142821428Y-87607142D02*
X142678571Y-87678571D01*
X142392857Y-87678571D01*
X142250000Y-87607142D01*
X142178571Y-87464285D01*
X142178571Y-87392857D01*
X142250000Y-87250000D01*
X142392857Y-87178571D01*
X142607142Y-87178571D01*
X142750000Y-87107142D01*
X142821428Y-86964285D01*
X142821428Y-86892857D01*
X142750000Y-86750000D01*
X142607142Y-86678571D01*
X142392857Y-86678571D01*
X142250000Y-86750000D01*
X140607142Y-86678571D02*
X140035714Y-86678571D01*
X140392857Y-87678571D02*
X140392857Y-86392857D01*
X140321428Y-86250000D01*
X140178571Y-86178571D01*
X140035714Y-86178571D01*
X139321428Y-87678571D02*
X139464285Y-87607142D01*
X139535714Y-87535714D01*
X139607142Y-87392857D01*
X139607142Y-86964285D01*
X139535714Y-86821428D01*
X139464285Y-86750000D01*
X139321428Y-86678571D01*
X139107142Y-86678571D01*
X138964285Y-86750000D01*
X138892857Y-86821428D01*
X138821428Y-86964285D01*
X138821428Y-87392857D01*
X138892857Y-87535714D01*
X138964285Y-87607142D01*
X139107142Y-87678571D01*
X139321428Y-87678571D01*
X138178571Y-87678571D02*
X138178571Y-86678571D01*
X138178571Y-86964285D02*
X138107142Y-86821428D01*
X138035714Y-86750000D01*
X137892857Y-86678571D01*
X137750000Y-86678571D01*
X149821428Y-88728571D02*
X149464285Y-90228571D01*
X149178571Y-89157142D01*
X148892857Y-90228571D01*
X148535714Y-88728571D01*
X147964285Y-90228571D02*
X147964285Y-88728571D01*
X147321428Y-90228571D02*
X147321428Y-89442857D01*
X147392857Y-89300000D01*
X147535714Y-89228571D01*
X147750000Y-89228571D01*
X147892857Y-89300000D01*
X147964285Y-89371428D01*
X146607142Y-90228571D02*
X146607142Y-89228571D01*
X146607142Y-88728571D02*
X146678571Y-88800000D01*
X146607142Y-88871428D01*
X146535714Y-88800000D01*
X146607142Y-88728571D01*
X146607142Y-88871428D01*
X146107142Y-89228571D02*
X145535714Y-89228571D01*
X145892857Y-88728571D02*
X145892857Y-90014285D01*
X145821428Y-90157142D01*
X145678571Y-90228571D01*
X145535714Y-90228571D01*
X144464285Y-90157142D02*
X144607142Y-90228571D01*
X144892857Y-90228571D01*
X145035714Y-90157142D01*
X145107142Y-90014285D01*
X145107142Y-89442857D01*
X145035714Y-89300000D01*
X144892857Y-89228571D01*
X144607142Y-89228571D01*
X144464285Y-89300000D01*
X144392857Y-89442857D01*
X144392857Y-89585714D01*
X145107142Y-89728571D01*
X141750000Y-90085714D02*
X141821428Y-90157142D01*
X142035714Y-90228571D01*
X142178571Y-90228571D01*
X142392857Y-90157142D01*
X142535714Y-90014285D01*
X142607142Y-89871428D01*
X142678571Y-89585714D01*
X142678571Y-89371428D01*
X142607142Y-89085714D01*
X142535714Y-88942857D01*
X142392857Y-88800000D01*
X142178571Y-88728571D01*
X142035714Y-88728571D01*
X141821428Y-88800000D01*
X141750000Y-88871428D01*
X140464285Y-90228571D02*
X140464285Y-89442857D01*
X140535714Y-89300000D01*
X140678571Y-89228571D01*
X140964285Y-89228571D01*
X141107142Y-89300000D01*
X140464285Y-90157142D02*
X140607142Y-90228571D01*
X140964285Y-90228571D01*
X141107142Y-90157142D01*
X141178571Y-90014285D01*
X141178571Y-89871428D01*
X141107142Y-89728571D01*
X140964285Y-89657142D01*
X140607142Y-89657142D01*
X140464285Y-89585714D01*
X139821428Y-90157142D02*
X139678571Y-90228571D01*
X139392857Y-90228571D01*
X139250000Y-90157142D01*
X139178571Y-90014285D01*
X139178571Y-89942857D01*
X139250000Y-89800000D01*
X139392857Y-89728571D01*
X139607142Y-89728571D01*
X139750000Y-89657142D01*
X139821428Y-89514285D01*
X139821428Y-89442857D01*
X139750000Y-89300000D01*
X139607142Y-89228571D01*
X139392857Y-89228571D01*
X139250000Y-89300000D01*
X138750000Y-89228571D02*
X138178571Y-89228571D01*
X138535714Y-88728571D02*
X138535714Y-90014285D01*
X138464285Y-90157142D01*
X138321428Y-90228571D01*
X138178571Y-90228571D01*
X137464285Y-90228571D02*
X137607142Y-90157142D01*
X137678571Y-90014285D01*
X137678571Y-88728571D01*
X136321428Y-90157142D02*
X136464285Y-90228571D01*
X136750000Y-90228571D01*
X136892857Y-90157142D01*
X136964285Y-90014285D01*
X136964285Y-89442857D01*
X136892857Y-89300000D01*
X136750000Y-89228571D01*
X136464285Y-89228571D01*
X136321428Y-89300000D01*
X136250000Y-89442857D01*
X136250000Y-89585714D01*
X136964285Y-89728571D01*
X135635714Y-130003571D02*
X135635714Y-128503571D01*
X133778571Y-129003571D02*
X133778571Y-130289285D01*
X133850000Y-130432142D01*
X133992857Y-130503571D01*
X134064285Y-130503571D01*
X133778571Y-128503571D02*
X133850000Y-128575000D01*
X133778571Y-128646428D01*
X133707142Y-128575000D01*
X133778571Y-128503571D01*
X133778571Y-128646428D01*
X132421428Y-129003571D02*
X132421428Y-130003571D01*
X133064285Y-129003571D02*
X133064285Y-129789285D01*
X132992857Y-129932142D01*
X132850000Y-130003571D01*
X132635714Y-130003571D01*
X132492857Y-129932142D01*
X132421428Y-129860714D01*
X131778571Y-129932142D02*
X131635714Y-130003571D01*
X131350000Y-130003571D01*
X131207142Y-129932142D01*
X131135714Y-129789285D01*
X131135714Y-129717857D01*
X131207142Y-129575000D01*
X131350000Y-129503571D01*
X131564285Y-129503571D01*
X131707142Y-129432142D01*
X131778571Y-129289285D01*
X131778571Y-129217857D01*
X131707142Y-129075000D01*
X131564285Y-129003571D01*
X131350000Y-129003571D01*
X131207142Y-129075000D01*
X130707142Y-129003571D02*
X130135714Y-129003571D01*
X130492857Y-128503571D02*
X130492857Y-129789285D01*
X130421428Y-129932142D01*
X130278571Y-130003571D01*
X130135714Y-130003571D01*
X128635714Y-129003571D02*
X128350000Y-130003571D01*
X128064285Y-129289285D01*
X127778571Y-130003571D01*
X127492857Y-129003571D01*
X126278571Y-130003571D02*
X126278571Y-129217857D01*
X126350000Y-129075000D01*
X126492857Y-129003571D01*
X126778571Y-129003571D01*
X126921428Y-129075000D01*
X126278571Y-129932142D02*
X126421428Y-130003571D01*
X126778571Y-130003571D01*
X126921428Y-129932142D01*
X126992857Y-129789285D01*
X126992857Y-129646428D01*
X126921428Y-129503571D01*
X126778571Y-129432142D01*
X126421428Y-129432142D01*
X126278571Y-129360714D01*
X125564285Y-129003571D02*
X125564285Y-130003571D01*
X125564285Y-129146428D02*
X125492857Y-129075000D01*
X125350000Y-129003571D01*
X125135714Y-129003571D01*
X124992857Y-129075000D01*
X124921428Y-129217857D01*
X124921428Y-130003571D01*
X124421428Y-129003571D02*
X123850000Y-129003571D01*
X124207142Y-128503571D02*
X124207142Y-129789285D01*
X124135714Y-129932142D01*
X123992857Y-130003571D01*
X123850000Y-130003571D01*
X122421428Y-129003571D02*
X121850000Y-129003571D01*
X122207142Y-128503571D02*
X122207142Y-129789285D01*
X122135714Y-129932142D01*
X121992857Y-130003571D01*
X121850000Y-130003571D01*
X121135714Y-130003571D02*
X121278571Y-129932142D01*
X121350000Y-129860714D01*
X121421428Y-129717857D01*
X121421428Y-129289285D01*
X121350000Y-129146428D01*
X121278571Y-129075000D01*
X121135714Y-129003571D01*
X120921428Y-129003571D01*
X120778571Y-129075000D01*
X120707142Y-129146428D01*
X120635714Y-129289285D01*
X120635714Y-129717857D01*
X120707142Y-129860714D01*
X120778571Y-129932142D01*
X120921428Y-130003571D01*
X121135714Y-130003571D01*
X134314285Y-132553571D02*
X134314285Y-131053571D01*
X134314285Y-131625000D02*
X134171428Y-131553571D01*
X133885714Y-131553571D01*
X133742857Y-131625000D01*
X133671428Y-131696428D01*
X133600000Y-131839285D01*
X133600000Y-132267857D01*
X133671428Y-132410714D01*
X133742857Y-132482142D01*
X133885714Y-132553571D01*
X134171428Y-132553571D01*
X134314285Y-132482142D01*
X132957142Y-132553571D02*
X132957142Y-131553571D01*
X132957142Y-131839285D02*
X132885714Y-131696428D01*
X132814285Y-131625000D01*
X132671428Y-131553571D01*
X132528571Y-131553571D01*
X131457142Y-132482142D02*
X131600000Y-132553571D01*
X131885714Y-132553571D01*
X132028571Y-132482142D01*
X132100000Y-132339285D01*
X132100000Y-131767857D01*
X132028571Y-131625000D01*
X131885714Y-131553571D01*
X131600000Y-131553571D01*
X131457142Y-131625000D01*
X131385714Y-131767857D01*
X131385714Y-131910714D01*
X132100000Y-132053571D01*
X130100000Y-132553571D02*
X130100000Y-131767857D01*
X130171428Y-131625000D01*
X130314285Y-131553571D01*
X130600000Y-131553571D01*
X130742857Y-131625000D01*
X130100000Y-132482142D02*
X130242857Y-132553571D01*
X130600000Y-132553571D01*
X130742857Y-132482142D01*
X130814285Y-132339285D01*
X130814285Y-132196428D01*
X130742857Y-132053571D01*
X130600000Y-131982142D01*
X130242857Y-131982142D01*
X130100000Y-131910714D01*
X129385714Y-132553571D02*
X129385714Y-131053571D01*
X129242857Y-131982142D02*
X128814285Y-132553571D01*
X128814285Y-131553571D02*
X129385714Y-132125000D01*
X127242857Y-131553571D02*
X126671428Y-131553571D01*
X127028571Y-131053571D02*
X127028571Y-132339285D01*
X126957142Y-132482142D01*
X126814285Y-132553571D01*
X126671428Y-132553571D01*
X126171428Y-132553571D02*
X126171428Y-131053571D01*
X125528571Y-132553571D02*
X125528571Y-131767857D01*
X125600000Y-131625000D01*
X125742857Y-131553571D01*
X125957142Y-131553571D01*
X126100000Y-131625000D01*
X126171428Y-131696428D01*
X124814285Y-132553571D02*
X124814285Y-131553571D01*
X124814285Y-131053571D02*
X124885714Y-131125000D01*
X124814285Y-131196428D01*
X124742857Y-131125000D01*
X124814285Y-131053571D01*
X124814285Y-131196428D01*
X124100000Y-131553571D02*
X124100000Y-132553571D01*
X124100000Y-131696428D02*
X124028571Y-131625000D01*
X123885714Y-131553571D01*
X123671428Y-131553571D01*
X123528571Y-131625000D01*
X123457142Y-131767857D01*
X123457142Y-132553571D01*
X122100000Y-131553571D02*
X122100000Y-132767857D01*
X122171428Y-132910714D01*
X122242857Y-132982142D01*
X122385714Y-133053571D01*
X122600000Y-133053571D01*
X122742857Y-132982142D01*
X122100000Y-132482142D02*
X122242857Y-132553571D01*
X122528571Y-132553571D01*
X122671428Y-132482142D01*
X122742857Y-132410714D01*
X122814285Y-132267857D01*
X122814285Y-131839285D01*
X122742857Y-131696428D01*
X122671428Y-131625000D01*
X122528571Y-131553571D01*
X122242857Y-131553571D01*
X122100000Y-131625000D01*
X121457142Y-132482142D02*
X121314285Y-132553571D01*
X121028571Y-132553571D01*
X120885714Y-132482142D01*
X120814285Y-132339285D01*
X120814285Y-132267857D01*
X120885714Y-132125000D01*
X121028571Y-132053571D01*
X121242857Y-132053571D01*
X121385714Y-131982142D01*
X121457142Y-131839285D01*
X121457142Y-131767857D01*
X121385714Y-131625000D01*
X121242857Y-131553571D01*
X121028571Y-131553571D01*
X120885714Y-131625000D01*
X106735714Y-64900000D02*
X106807142Y-64828571D01*
X106878571Y-64614285D01*
X106878571Y-64471428D01*
X106807142Y-64257142D01*
X106664285Y-64114285D01*
X106521428Y-64042857D01*
X106235714Y-63971428D01*
X106021428Y-63971428D01*
X105735714Y-64042857D01*
X105592857Y-64114285D01*
X105450000Y-64257142D01*
X105378571Y-64471428D01*
X105378571Y-64614285D01*
X105450000Y-64828571D01*
X105521428Y-64900000D01*
X106878571Y-65757142D02*
X106807142Y-65614285D01*
X106735714Y-65542857D01*
X106592857Y-65471428D01*
X106164285Y-65471428D01*
X106021428Y-65542857D01*
X105950000Y-65614285D01*
X105878571Y-65757142D01*
X105878571Y-65971428D01*
X105950000Y-66114285D01*
X106021428Y-66185714D01*
X106164285Y-66257142D01*
X106592857Y-66257142D01*
X106735714Y-66185714D01*
X106807142Y-66114285D01*
X106878571Y-65971428D01*
X106878571Y-65757142D01*
X105878571Y-66900000D02*
X106878571Y-66900000D01*
X106021428Y-66900000D02*
X105950000Y-66971428D01*
X105878571Y-67114285D01*
X105878571Y-67328571D01*
X105950000Y-67471428D01*
X106092857Y-67542857D01*
X106878571Y-67542857D01*
X105878571Y-68042857D02*
X105878571Y-68614285D01*
X105378571Y-68257142D02*
X106664285Y-68257142D01*
X106807142Y-68328571D01*
X106878571Y-68471428D01*
X106878571Y-68614285D01*
X106878571Y-69114285D02*
X105878571Y-69114285D01*
X106164285Y-69114285D02*
X106021428Y-69185714D01*
X105950000Y-69257142D01*
X105878571Y-69400000D01*
X105878571Y-69542857D01*
X106878571Y-70685714D02*
X106092857Y-70685714D01*
X105950000Y-70614285D01*
X105878571Y-70471428D01*
X105878571Y-70185714D01*
X105950000Y-70042857D01*
X106807142Y-70685714D02*
X106878571Y-70542857D01*
X106878571Y-70185714D01*
X106807142Y-70042857D01*
X106664285Y-69971428D01*
X106521428Y-69971428D01*
X106378571Y-70042857D01*
X106307142Y-70185714D01*
X106307142Y-70542857D01*
X106235714Y-70685714D01*
X106807142Y-71328571D02*
X106878571Y-71471428D01*
X106878571Y-71757142D01*
X106807142Y-71900000D01*
X106664285Y-71971428D01*
X106592857Y-71971428D01*
X106450000Y-71900000D01*
X106378571Y-71757142D01*
X106378571Y-71542857D01*
X106307142Y-71400000D01*
X106164285Y-71328571D01*
X106092857Y-71328571D01*
X105950000Y-71400000D01*
X105878571Y-71542857D01*
X105878571Y-71757142D01*
X105950000Y-71900000D01*
X105878571Y-72400000D02*
X105878571Y-72971428D01*
X105378571Y-72614285D02*
X106664285Y-72614285D01*
X106807142Y-72685714D01*
X106878571Y-72828571D01*
X106878571Y-72971428D01*
D12*
X105400000Y-59250000D02*
X105400000Y-61336500D01*
X106713500Y-62750000D02*
X107286500Y-62750000D01*
X108600000Y-61336500D02*
X108600000Y-59250000D01*
X108600000Y-59250000D02*
X108120000Y-59250000D01*
X105880000Y-59250000D02*
X105400000Y-59250000D01*
D13*
X104850000Y-62450000D02*
G75*
G03X104850000Y-62450000I-100000J0D01*
G01*
D14*
X109890000Y-71920000D02*
X109890000Y-70080000D01*
X109890000Y-70080000D02*
X113730000Y-70080000D01*
X113730000Y-70080000D02*
X113730000Y-71920000D01*
X113730000Y-71920000D02*
X109890000Y-71920000D01*
X108940000Y-71000000D02*
X109890000Y-71000000D01*
X114680000Y-71000000D02*
X113730000Y-71000000D01*
X114680000Y-113000000D02*
X113730000Y-113000000D01*
X108940000Y-113000000D02*
X109890000Y-113000000D01*
X113730000Y-113920000D02*
X109890000Y-113920000D01*
X113730000Y-112080000D02*
X113730000Y-113920000D01*
X109890000Y-112080000D02*
X113730000Y-112080000D01*
X109890000Y-113920000D02*
X109890000Y-112080000D01*
X156680000Y-71000000D02*
X155730000Y-71000000D01*
X150940000Y-71000000D02*
X151890000Y-71000000D01*
X155730000Y-71920000D02*
X151890000Y-71920000D01*
X155730000Y-70080000D02*
X155730000Y-71920000D01*
X151890000Y-70080000D02*
X155730000Y-70080000D01*
X151890000Y-71920000D02*
X151890000Y-70080000D01*
X151890000Y-113920000D02*
X151890000Y-112080000D01*
X151890000Y-112080000D02*
X155730000Y-112080000D01*
X155730000Y-112080000D02*
X155730000Y-113920000D01*
X155730000Y-113920000D02*
X151890000Y-113920000D01*
X150940000Y-113000000D02*
X151890000Y-113000000D01*
X156680000Y-113000000D02*
X155730000Y-113000000D01*
X135680000Y-71000000D02*
X134730000Y-71000000D01*
X129940000Y-71000000D02*
X130890000Y-71000000D01*
X134730000Y-71920000D02*
X130890000Y-71920000D01*
X134730000Y-70080000D02*
X134730000Y-71920000D01*
X130890000Y-70080000D02*
X134730000Y-70080000D01*
X130890000Y-71920000D02*
X130890000Y-70080000D01*
X130890000Y-113920000D02*
X130890000Y-112080000D01*
X130890000Y-112080000D02*
X134730000Y-112080000D01*
X134730000Y-112080000D02*
X134730000Y-113920000D01*
X134730000Y-113920000D02*
X130890000Y-113920000D01*
X129940000Y-113000000D02*
X130890000Y-113000000D01*
X135680000Y-113000000D02*
X134730000Y-113000000D01*
X177680000Y-71000000D02*
X176730000Y-71000000D01*
X171940000Y-71000000D02*
X172890000Y-71000000D01*
X176730000Y-71920000D02*
X172890000Y-71920000D01*
X176730000Y-70080000D02*
X176730000Y-71920000D01*
X172890000Y-70080000D02*
X176730000Y-70080000D01*
X172890000Y-71920000D02*
X172890000Y-70080000D01*
X172890000Y-113920000D02*
X172890000Y-112080000D01*
X172890000Y-112080000D02*
X176730000Y-112080000D01*
X176730000Y-112080000D02*
X176730000Y-113920000D01*
X176730000Y-113920000D02*
X172890000Y-113920000D01*
X171940000Y-113000000D02*
X172890000Y-113000000D01*
X177680000Y-113000000D02*
X176730000Y-113000000D01*
X109890000Y-92920000D02*
X109890000Y-91080000D01*
X109890000Y-91080000D02*
X113730000Y-91080000D01*
X113730000Y-91080000D02*
X113730000Y-92920000D01*
X113730000Y-92920000D02*
X109890000Y-92920000D01*
X108940000Y-92000000D02*
X109890000Y-92000000D01*
X114680000Y-92000000D02*
X113730000Y-92000000D01*
X114680000Y-134000000D02*
X113730000Y-134000000D01*
X108940000Y-134000000D02*
X109890000Y-134000000D01*
X113730000Y-134920000D02*
X109890000Y-134920000D01*
X113730000Y-133080000D02*
X113730000Y-134920000D01*
X109890000Y-133080000D02*
X113730000Y-133080000D01*
X109890000Y-134920000D02*
X109890000Y-133080000D01*
X151890000Y-92920000D02*
X151890000Y-91080000D01*
X151890000Y-91080000D02*
X155730000Y-91080000D01*
X155730000Y-91080000D02*
X155730000Y-92920000D01*
X155730000Y-92920000D02*
X151890000Y-92920000D01*
X150940000Y-92000000D02*
X151890000Y-92000000D01*
X156680000Y-92000000D02*
X155730000Y-92000000D01*
X151890000Y-134920000D02*
X151890000Y-133080000D01*
X151890000Y-133080000D02*
X155730000Y-133080000D01*
X155730000Y-133080000D02*
X155730000Y-134920000D01*
X155730000Y-134920000D02*
X151890000Y-134920000D01*
X150940000Y-134000000D02*
X151890000Y-134000000D01*
X156680000Y-134000000D02*
X155730000Y-134000000D01*
X135680000Y-92000000D02*
X134730000Y-92000000D01*
X129940000Y-92000000D02*
X130890000Y-92000000D01*
X134730000Y-92920000D02*
X130890000Y-92920000D01*
X134730000Y-91080000D02*
X134730000Y-92920000D01*
X130890000Y-91080000D02*
X134730000Y-91080000D01*
X130890000Y-92920000D02*
X130890000Y-91080000D01*
X130890000Y-134920000D02*
X130890000Y-133080000D01*
X130890000Y-133080000D02*
X134730000Y-133080000D01*
X134730000Y-133080000D02*
X134730000Y-134920000D01*
X134730000Y-134920000D02*
X130890000Y-134920000D01*
X129940000Y-134000000D02*
X130890000Y-134000000D01*
X135680000Y-134000000D02*
X134730000Y-134000000D01*
X177680000Y-92000000D02*
X176730000Y-92000000D01*
X171940000Y-92000000D02*
X172890000Y-92000000D01*
X176730000Y-92920000D02*
X172890000Y-92920000D01*
X176730000Y-91080000D02*
X176730000Y-92920000D01*
X172890000Y-91080000D02*
X176730000Y-91080000D01*
X172890000Y-92920000D02*
X172890000Y-91080000D01*
X177680000Y-134000000D02*
X176730000Y-134000000D01*
X171940000Y-134000000D02*
X172890000Y-134000000D01*
X176730000Y-134920000D02*
X172890000Y-134920000D01*
X176730000Y-133080000D02*
X176730000Y-134920000D01*
X172890000Y-133080000D02*
X176730000Y-133080000D01*
X172890000Y-134920000D02*
X172890000Y-133080000D01*
X127890000Y-32920000D02*
X127890000Y-31080000D01*
X127890000Y-31080000D02*
X131730000Y-31080000D01*
X131730000Y-31080000D02*
X131730000Y-32920000D01*
X131730000Y-32920000D02*
X127890000Y-32920000D01*
X126940000Y-32000000D02*
X127890000Y-32000000D01*
X132680000Y-32000000D02*
X131730000Y-32000000D01*
X118680000Y-48030000D02*
X117730000Y-48030000D01*
X112940000Y-48030000D02*
X113890000Y-48030000D01*
X117730000Y-48950000D02*
X113890000Y-48950000D01*
X117730000Y-47110000D02*
X117730000Y-48950000D01*
X113890000Y-47110000D02*
X117730000Y-47110000D01*
X113890000Y-48950000D02*
X113890000Y-47110000D01*
X125920000Y-46110000D02*
X124080000Y-46110000D01*
X124080000Y-46110000D02*
X124080000Y-42270000D01*
X124080000Y-42270000D02*
X125920000Y-42270000D01*
X125920000Y-42270000D02*
X125920000Y-46110000D01*
X125000000Y-47060000D02*
X125000000Y-46110000D01*
X125000000Y-41320000D02*
X125000000Y-42270000D01*
X135000000Y-54320000D02*
X135000000Y-55270000D01*
X135000000Y-60060000D02*
X135000000Y-59110000D01*
X135920000Y-55270000D02*
X135920000Y-59110000D01*
X134080000Y-55270000D02*
X135920000Y-55270000D01*
X134080000Y-59110000D02*
X134080000Y-55270000D01*
X135920000Y-59110000D02*
X134080000Y-59110000D01*
X181390000Y-49920000D02*
X181390000Y-48080000D01*
X181390000Y-48080000D02*
X185230000Y-48080000D01*
X185230000Y-48080000D02*
X185230000Y-49920000D01*
X185230000Y-49920000D02*
X181390000Y-49920000D01*
X180440000Y-49000000D02*
X181390000Y-49000000D01*
X186180000Y-49000000D02*
X185230000Y-49000000D01*
X189500000Y-54320000D02*
X189500000Y-55270000D01*
X189500000Y-60060000D02*
X189500000Y-59110000D01*
X190420000Y-55270000D02*
X190420000Y-59110000D01*
X188580000Y-55270000D02*
X190420000Y-55270000D01*
X188580000Y-59110000D02*
X188580000Y-55270000D01*
X190420000Y-59110000D02*
X188580000Y-59110000D01*
X152320000Y-40000000D02*
X153270000Y-40000000D01*
X158060000Y-40000000D02*
X157110000Y-40000000D01*
X153270000Y-39080000D02*
X157110000Y-39080000D01*
X153270000Y-40920000D02*
X153270000Y-39080000D01*
X157110000Y-40920000D02*
X153270000Y-40920000D01*
X157110000Y-39080000D02*
X157110000Y-40920000D01*
X110670000Y-59060000D02*
X110670000Y-57810000D01*
X131110000Y-59060000D02*
X110670000Y-59060000D01*
X131110000Y-54560000D02*
X131110000Y-59060000D01*
X110670000Y-54560000D02*
X131110000Y-54560000D01*
X110670000Y-55810000D02*
X110670000Y-54560000D01*
X110670000Y-57810000D02*
G75*
G03X110670000Y-55810000I0J1000000D01*
G01*
X165170000Y-55810000D02*
X165170000Y-54560000D01*
X165170000Y-54560000D02*
X185610000Y-54560000D01*
X185610000Y-54560000D02*
X185610000Y-59060000D01*
X185610000Y-59060000D02*
X165170000Y-59060000D01*
X165170000Y-59060000D02*
X165170000Y-57810000D01*
X165170000Y-57810000D02*
G75*
G03X165170000Y-55810000I0J1000000D01*
G01*
D15*
X110695238Y-60252380D02*
X111028571Y-59776190D01*
X111266666Y-60252380D02*
X111266666Y-59252380D01*
X110885714Y-59252380D01*
X110790476Y-59300000D01*
X110742857Y-59347619D01*
X110695238Y-59442857D01*
X110695238Y-59585714D01*
X110742857Y-59680952D01*
X110790476Y-59728571D01*
X110885714Y-59776190D01*
X111266666Y-59776190D01*
X110409523Y-59252380D02*
X110076190Y-60252380D01*
X109742857Y-59252380D01*
X108885714Y-60252380D02*
X109457142Y-60252380D01*
X109171428Y-60252380D02*
X109171428Y-59252380D01*
X109266666Y-59395238D01*
X109361904Y-59490476D01*
X109457142Y-59538095D01*
X111976666Y-73372380D02*
X112310000Y-72896190D01*
X112548095Y-73372380D02*
X112548095Y-72372380D01*
X112167142Y-72372380D01*
X112071904Y-72420000D01*
X112024285Y-72467619D01*
X111976666Y-72562857D01*
X111976666Y-72705714D01*
X112024285Y-72800952D01*
X112071904Y-72848571D01*
X112167142Y-72896190D01*
X112548095Y-72896190D01*
X111024285Y-73372380D02*
X111595714Y-73372380D01*
X111310000Y-73372380D02*
X111310000Y-72372380D01*
X111405238Y-72515238D01*
X111500476Y-72610476D01*
X111595714Y-72658095D01*
X114119047Y-69452380D02*
X114690476Y-69452380D01*
X114404761Y-69452380D02*
X114404761Y-68452380D01*
X114500000Y-68595238D01*
X114595238Y-68690476D01*
X114690476Y-68738095D01*
X113690476Y-69452380D02*
X113690476Y-68452380D01*
X113595238Y-69071428D02*
X113309523Y-69452380D01*
X113309523Y-68785714D02*
X113690476Y-69166666D01*
X111976666Y-115372380D02*
X112310000Y-114896190D01*
X112548095Y-115372380D02*
X112548095Y-114372380D01*
X112167142Y-114372380D01*
X112071904Y-114420000D01*
X112024285Y-114467619D01*
X111976666Y-114562857D01*
X111976666Y-114705714D01*
X112024285Y-114800952D01*
X112071904Y-114848571D01*
X112167142Y-114896190D01*
X112548095Y-114896190D01*
X111595714Y-114467619D02*
X111548095Y-114420000D01*
X111452857Y-114372380D01*
X111214761Y-114372380D01*
X111119523Y-114420000D01*
X111071904Y-114467619D01*
X111024285Y-114562857D01*
X111024285Y-114658095D01*
X111071904Y-114800952D01*
X111643333Y-115372380D01*
X111024285Y-115372380D01*
X111929047Y-111532380D02*
X112500476Y-111532380D01*
X112214761Y-111532380D02*
X112214761Y-110532380D01*
X112310000Y-110675238D01*
X112405238Y-110770476D01*
X112500476Y-110818095D01*
X111500476Y-111532380D02*
X111500476Y-110532380D01*
X111405238Y-111151428D02*
X111119523Y-111532380D01*
X111119523Y-110865714D02*
X111500476Y-111246666D01*
X153976666Y-73372380D02*
X154310000Y-72896190D01*
X154548095Y-73372380D02*
X154548095Y-72372380D01*
X154167142Y-72372380D01*
X154071904Y-72420000D01*
X154024285Y-72467619D01*
X153976666Y-72562857D01*
X153976666Y-72705714D01*
X154024285Y-72800952D01*
X154071904Y-72848571D01*
X154167142Y-72896190D01*
X154548095Y-72896190D01*
X153643333Y-72372380D02*
X153024285Y-72372380D01*
X153357619Y-72753333D01*
X153214761Y-72753333D01*
X153119523Y-72800952D01*
X153071904Y-72848571D01*
X153024285Y-72943809D01*
X153024285Y-73181904D01*
X153071904Y-73277142D01*
X153119523Y-73324761D01*
X153214761Y-73372380D01*
X153500476Y-73372380D01*
X153595714Y-73324761D01*
X153643333Y-73277142D01*
X153929047Y-69532380D02*
X154500476Y-69532380D01*
X154214761Y-69532380D02*
X154214761Y-68532380D01*
X154310000Y-68675238D01*
X154405238Y-68770476D01*
X154500476Y-68818095D01*
X153500476Y-69532380D02*
X153500476Y-68532380D01*
X153405238Y-69151428D02*
X153119523Y-69532380D01*
X153119523Y-68865714D02*
X153500476Y-69246666D01*
X153976666Y-115372380D02*
X154310000Y-114896190D01*
X154548095Y-115372380D02*
X154548095Y-114372380D01*
X154167142Y-114372380D01*
X154071904Y-114420000D01*
X154024285Y-114467619D01*
X153976666Y-114562857D01*
X153976666Y-114705714D01*
X154024285Y-114800952D01*
X154071904Y-114848571D01*
X154167142Y-114896190D01*
X154548095Y-114896190D01*
X153119523Y-114705714D02*
X153119523Y-115372380D01*
X153357619Y-114324761D02*
X153595714Y-115039047D01*
X152976666Y-115039047D01*
X153929047Y-111532380D02*
X154500476Y-111532380D01*
X154214761Y-111532380D02*
X154214761Y-110532380D01*
X154310000Y-110675238D01*
X154405238Y-110770476D01*
X154500476Y-110818095D01*
X153500476Y-111532380D02*
X153500476Y-110532380D01*
X153405238Y-111151428D02*
X153119523Y-111532380D01*
X153119523Y-110865714D02*
X153500476Y-111246666D01*
X132976666Y-73372380D02*
X133310000Y-72896190D01*
X133548095Y-73372380D02*
X133548095Y-72372380D01*
X133167142Y-72372380D01*
X133071904Y-72420000D01*
X133024285Y-72467619D01*
X132976666Y-72562857D01*
X132976666Y-72705714D01*
X133024285Y-72800952D01*
X133071904Y-72848571D01*
X133167142Y-72896190D01*
X133548095Y-72896190D01*
X132071904Y-72372380D02*
X132548095Y-72372380D01*
X132595714Y-72848571D01*
X132548095Y-72800952D01*
X132452857Y-72753333D01*
X132214761Y-72753333D01*
X132119523Y-72800952D01*
X132071904Y-72848571D01*
X132024285Y-72943809D01*
X132024285Y-73181904D01*
X132071904Y-73277142D01*
X132119523Y-73324761D01*
X132214761Y-73372380D01*
X132452857Y-73372380D01*
X132548095Y-73324761D01*
X132595714Y-73277142D01*
X132929047Y-69532380D02*
X133500476Y-69532380D01*
X133214761Y-69532380D02*
X133214761Y-68532380D01*
X133310000Y-68675238D01*
X133405238Y-68770476D01*
X133500476Y-68818095D01*
X132500476Y-69532380D02*
X132500476Y-68532380D01*
X132405238Y-69151428D02*
X132119523Y-69532380D01*
X132119523Y-68865714D02*
X132500476Y-69246666D01*
X132976666Y-115372380D02*
X133310000Y-114896190D01*
X133548095Y-115372380D02*
X133548095Y-114372380D01*
X133167142Y-114372380D01*
X133071904Y-114420000D01*
X133024285Y-114467619D01*
X132976666Y-114562857D01*
X132976666Y-114705714D01*
X133024285Y-114800952D01*
X133071904Y-114848571D01*
X133167142Y-114896190D01*
X133548095Y-114896190D01*
X132119523Y-114372380D02*
X132310000Y-114372380D01*
X132405238Y-114420000D01*
X132452857Y-114467619D01*
X132548095Y-114610476D01*
X132595714Y-114800952D01*
X132595714Y-115181904D01*
X132548095Y-115277142D01*
X132500476Y-115324761D01*
X132405238Y-115372380D01*
X132214761Y-115372380D01*
X132119523Y-115324761D01*
X132071904Y-115277142D01*
X132024285Y-115181904D01*
X132024285Y-114943809D01*
X132071904Y-114848571D01*
X132119523Y-114800952D01*
X132214761Y-114753333D01*
X132405238Y-114753333D01*
X132500476Y-114800952D01*
X132548095Y-114848571D01*
X132595714Y-114943809D01*
X132929047Y-111532380D02*
X133500476Y-111532380D01*
X133214761Y-111532380D02*
X133214761Y-110532380D01*
X133310000Y-110675238D01*
X133405238Y-110770476D01*
X133500476Y-110818095D01*
X132500476Y-111532380D02*
X132500476Y-110532380D01*
X132405238Y-111151428D02*
X132119523Y-111532380D01*
X132119523Y-110865714D02*
X132500476Y-111246666D01*
X174976666Y-73372380D02*
X175310000Y-72896190D01*
X175548095Y-73372380D02*
X175548095Y-72372380D01*
X175167142Y-72372380D01*
X175071904Y-72420000D01*
X175024285Y-72467619D01*
X174976666Y-72562857D01*
X174976666Y-72705714D01*
X175024285Y-72800952D01*
X175071904Y-72848571D01*
X175167142Y-72896190D01*
X175548095Y-72896190D01*
X174643333Y-72372380D02*
X173976666Y-72372380D01*
X174405238Y-73372380D01*
X174929047Y-69532380D02*
X175500476Y-69532380D01*
X175214761Y-69532380D02*
X175214761Y-68532380D01*
X175310000Y-68675238D01*
X175405238Y-68770476D01*
X175500476Y-68818095D01*
X174500476Y-69532380D02*
X174500476Y-68532380D01*
X174405238Y-69151428D02*
X174119523Y-69532380D01*
X174119523Y-68865714D02*
X174500476Y-69246666D01*
X174976666Y-115372380D02*
X175310000Y-114896190D01*
X175548095Y-115372380D02*
X175548095Y-114372380D01*
X175167142Y-114372380D01*
X175071904Y-114420000D01*
X175024285Y-114467619D01*
X174976666Y-114562857D01*
X174976666Y-114705714D01*
X175024285Y-114800952D01*
X175071904Y-114848571D01*
X175167142Y-114896190D01*
X175548095Y-114896190D01*
X174405238Y-114800952D02*
X174500476Y-114753333D01*
X174548095Y-114705714D01*
X174595714Y-114610476D01*
X174595714Y-114562857D01*
X174548095Y-114467619D01*
X174500476Y-114420000D01*
X174405238Y-114372380D01*
X174214761Y-114372380D01*
X174119523Y-114420000D01*
X174071904Y-114467619D01*
X174024285Y-114562857D01*
X174024285Y-114610476D01*
X174071904Y-114705714D01*
X174119523Y-114753333D01*
X174214761Y-114800952D01*
X174405238Y-114800952D01*
X174500476Y-114848571D01*
X174548095Y-114896190D01*
X174595714Y-114991428D01*
X174595714Y-115181904D01*
X174548095Y-115277142D01*
X174500476Y-115324761D01*
X174405238Y-115372380D01*
X174214761Y-115372380D01*
X174119523Y-115324761D01*
X174071904Y-115277142D01*
X174024285Y-115181904D01*
X174024285Y-114991428D01*
X174071904Y-114896190D01*
X174119523Y-114848571D01*
X174214761Y-114800952D01*
X174929047Y-111532380D02*
X175500476Y-111532380D01*
X175214761Y-111532380D02*
X175214761Y-110532380D01*
X175310000Y-110675238D01*
X175405238Y-110770476D01*
X175500476Y-110818095D01*
X174500476Y-111532380D02*
X174500476Y-110532380D01*
X174405238Y-111151428D02*
X174119523Y-111532380D01*
X174119523Y-110865714D02*
X174500476Y-111246666D01*
X111976666Y-94372380D02*
X112310000Y-93896190D01*
X112548095Y-94372380D02*
X112548095Y-93372380D01*
X112167142Y-93372380D01*
X112071904Y-93420000D01*
X112024285Y-93467619D01*
X111976666Y-93562857D01*
X111976666Y-93705714D01*
X112024285Y-93800952D01*
X112071904Y-93848571D01*
X112167142Y-93896190D01*
X112548095Y-93896190D01*
X111500476Y-94372380D02*
X111310000Y-94372380D01*
X111214761Y-94324761D01*
X111167142Y-94277142D01*
X111071904Y-94134285D01*
X111024285Y-93943809D01*
X111024285Y-93562857D01*
X111071904Y-93467619D01*
X111119523Y-93420000D01*
X111214761Y-93372380D01*
X111405238Y-93372380D01*
X111500476Y-93420000D01*
X111548095Y-93467619D01*
X111595714Y-93562857D01*
X111595714Y-93800952D01*
X111548095Y-93896190D01*
X111500476Y-93943809D01*
X111405238Y-93991428D01*
X111214761Y-93991428D01*
X111119523Y-93943809D01*
X111071904Y-93896190D01*
X111024285Y-93800952D01*
X111929047Y-90532380D02*
X112500476Y-90532380D01*
X112214761Y-90532380D02*
X112214761Y-89532380D01*
X112310000Y-89675238D01*
X112405238Y-89770476D01*
X112500476Y-89818095D01*
X111500476Y-90532380D02*
X111500476Y-89532380D01*
X111405238Y-90151428D02*
X111119523Y-90532380D01*
X111119523Y-89865714D02*
X111500476Y-90246666D01*
X112452857Y-136372380D02*
X112786190Y-135896190D01*
X113024285Y-136372380D02*
X113024285Y-135372380D01*
X112643333Y-135372380D01*
X112548095Y-135420000D01*
X112500476Y-135467619D01*
X112452857Y-135562857D01*
X112452857Y-135705714D01*
X112500476Y-135800952D01*
X112548095Y-135848571D01*
X112643333Y-135896190D01*
X113024285Y-135896190D01*
X111500476Y-136372380D02*
X112071904Y-136372380D01*
X111786190Y-136372380D02*
X111786190Y-135372380D01*
X111881428Y-135515238D01*
X111976666Y-135610476D01*
X112071904Y-135658095D01*
X110881428Y-135372380D02*
X110786190Y-135372380D01*
X110690952Y-135420000D01*
X110643333Y-135467619D01*
X110595714Y-135562857D01*
X110548095Y-135753333D01*
X110548095Y-135991428D01*
X110595714Y-136181904D01*
X110643333Y-136277142D01*
X110690952Y-136324761D01*
X110786190Y-136372380D01*
X110881428Y-136372380D01*
X110976666Y-136324761D01*
X111024285Y-136277142D01*
X111071904Y-136181904D01*
X111119523Y-135991428D01*
X111119523Y-135753333D01*
X111071904Y-135562857D01*
X111024285Y-135467619D01*
X110976666Y-135420000D01*
X110881428Y-135372380D01*
X111929047Y-132532380D02*
X112500476Y-132532380D01*
X112214761Y-132532380D02*
X112214761Y-131532380D01*
X112310000Y-131675238D01*
X112405238Y-131770476D01*
X112500476Y-131818095D01*
X111500476Y-132532380D02*
X111500476Y-131532380D01*
X111405238Y-132151428D02*
X111119523Y-132532380D01*
X111119523Y-131865714D02*
X111500476Y-132246666D01*
X154452857Y-94372380D02*
X154786190Y-93896190D01*
X155024285Y-94372380D02*
X155024285Y-93372380D01*
X154643333Y-93372380D01*
X154548095Y-93420000D01*
X154500476Y-93467619D01*
X154452857Y-93562857D01*
X154452857Y-93705714D01*
X154500476Y-93800952D01*
X154548095Y-93848571D01*
X154643333Y-93896190D01*
X155024285Y-93896190D01*
X153500476Y-94372380D02*
X154071904Y-94372380D01*
X153786190Y-94372380D02*
X153786190Y-93372380D01*
X153881428Y-93515238D01*
X153976666Y-93610476D01*
X154071904Y-93658095D01*
X152548095Y-94372380D02*
X153119523Y-94372380D01*
X152833809Y-94372380D02*
X152833809Y-93372380D01*
X152929047Y-93515238D01*
X153024285Y-93610476D01*
X153119523Y-93658095D01*
X153929047Y-90532380D02*
X154500476Y-90532380D01*
X154214761Y-90532380D02*
X154214761Y-89532380D01*
X154310000Y-89675238D01*
X154405238Y-89770476D01*
X154500476Y-89818095D01*
X153500476Y-90532380D02*
X153500476Y-89532380D01*
X153405238Y-90151428D02*
X153119523Y-90532380D01*
X153119523Y-89865714D02*
X153500476Y-90246666D01*
X154452857Y-136372380D02*
X154786190Y-135896190D01*
X155024285Y-136372380D02*
X155024285Y-135372380D01*
X154643333Y-135372380D01*
X154548095Y-135420000D01*
X154500476Y-135467619D01*
X154452857Y-135562857D01*
X154452857Y-135705714D01*
X154500476Y-135800952D01*
X154548095Y-135848571D01*
X154643333Y-135896190D01*
X155024285Y-135896190D01*
X153500476Y-136372380D02*
X154071904Y-136372380D01*
X153786190Y-136372380D02*
X153786190Y-135372380D01*
X153881428Y-135515238D01*
X153976666Y-135610476D01*
X154071904Y-135658095D01*
X153119523Y-135467619D02*
X153071904Y-135420000D01*
X152976666Y-135372380D01*
X152738571Y-135372380D01*
X152643333Y-135420000D01*
X152595714Y-135467619D01*
X152548095Y-135562857D01*
X152548095Y-135658095D01*
X152595714Y-135800952D01*
X153167142Y-136372380D01*
X152548095Y-136372380D01*
X153929047Y-132532380D02*
X154500476Y-132532380D01*
X154214761Y-132532380D02*
X154214761Y-131532380D01*
X154310000Y-131675238D01*
X154405238Y-131770476D01*
X154500476Y-131818095D01*
X153500476Y-132532380D02*
X153500476Y-131532380D01*
X153405238Y-132151428D02*
X153119523Y-132532380D01*
X153119523Y-131865714D02*
X153500476Y-132246666D01*
X133452857Y-94372380D02*
X133786190Y-93896190D01*
X134024285Y-94372380D02*
X134024285Y-93372380D01*
X133643333Y-93372380D01*
X133548095Y-93420000D01*
X133500476Y-93467619D01*
X133452857Y-93562857D01*
X133452857Y-93705714D01*
X133500476Y-93800952D01*
X133548095Y-93848571D01*
X133643333Y-93896190D01*
X134024285Y-93896190D01*
X132500476Y-94372380D02*
X133071904Y-94372380D01*
X132786190Y-94372380D02*
X132786190Y-93372380D01*
X132881428Y-93515238D01*
X132976666Y-93610476D01*
X133071904Y-93658095D01*
X132167142Y-93372380D02*
X131548095Y-93372380D01*
X131881428Y-93753333D01*
X131738571Y-93753333D01*
X131643333Y-93800952D01*
X131595714Y-93848571D01*
X131548095Y-93943809D01*
X131548095Y-94181904D01*
X131595714Y-94277142D01*
X131643333Y-94324761D01*
X131738571Y-94372380D01*
X132024285Y-94372380D01*
X132119523Y-94324761D01*
X132167142Y-94277142D01*
X132929047Y-90532380D02*
X133500476Y-90532380D01*
X133214761Y-90532380D02*
X133214761Y-89532380D01*
X133310000Y-89675238D01*
X133405238Y-89770476D01*
X133500476Y-89818095D01*
X132500476Y-90532380D02*
X132500476Y-89532380D01*
X132405238Y-90151428D02*
X132119523Y-90532380D01*
X132119523Y-89865714D02*
X132500476Y-90246666D01*
X133452857Y-136372380D02*
X133786190Y-135896190D01*
X134024285Y-136372380D02*
X134024285Y-135372380D01*
X133643333Y-135372380D01*
X133548095Y-135420000D01*
X133500476Y-135467619D01*
X133452857Y-135562857D01*
X133452857Y-135705714D01*
X133500476Y-135800952D01*
X133548095Y-135848571D01*
X133643333Y-135896190D01*
X134024285Y-135896190D01*
X132500476Y-136372380D02*
X133071904Y-136372380D01*
X132786190Y-136372380D02*
X132786190Y-135372380D01*
X132881428Y-135515238D01*
X132976666Y-135610476D01*
X133071904Y-135658095D01*
X131643333Y-135705714D02*
X131643333Y-136372380D01*
X131881428Y-135324761D02*
X132119523Y-136039047D01*
X131500476Y-136039047D01*
X139119047Y-134452380D02*
X139690476Y-134452380D01*
X139404761Y-134452380D02*
X139404761Y-133452380D01*
X139500000Y-133595238D01*
X139595238Y-133690476D01*
X139690476Y-133738095D01*
X138690476Y-134452380D02*
X138690476Y-133452380D01*
X138595238Y-134071428D02*
X138309523Y-134452380D01*
X138309523Y-133785714D02*
X138690476Y-134166666D01*
X175452857Y-94372380D02*
X175786190Y-93896190D01*
X176024285Y-94372380D02*
X176024285Y-93372380D01*
X175643333Y-93372380D01*
X175548095Y-93420000D01*
X175500476Y-93467619D01*
X175452857Y-93562857D01*
X175452857Y-93705714D01*
X175500476Y-93800952D01*
X175548095Y-93848571D01*
X175643333Y-93896190D01*
X176024285Y-93896190D01*
X174500476Y-94372380D02*
X175071904Y-94372380D01*
X174786190Y-94372380D02*
X174786190Y-93372380D01*
X174881428Y-93515238D01*
X174976666Y-93610476D01*
X175071904Y-93658095D01*
X173595714Y-93372380D02*
X174071904Y-93372380D01*
X174119523Y-93848571D01*
X174071904Y-93800952D01*
X173976666Y-93753333D01*
X173738571Y-93753333D01*
X173643333Y-93800952D01*
X173595714Y-93848571D01*
X173548095Y-93943809D01*
X173548095Y-94181904D01*
X173595714Y-94277142D01*
X173643333Y-94324761D01*
X173738571Y-94372380D01*
X173976666Y-94372380D01*
X174071904Y-94324761D01*
X174119523Y-94277142D01*
X174929047Y-90532380D02*
X175500476Y-90532380D01*
X175214761Y-90532380D02*
X175214761Y-89532380D01*
X175310000Y-89675238D01*
X175405238Y-89770476D01*
X175500476Y-89818095D01*
X174500476Y-90532380D02*
X174500476Y-89532380D01*
X174405238Y-90151428D02*
X174119523Y-90532380D01*
X174119523Y-89865714D02*
X174500476Y-90246666D01*
X175452857Y-136372380D02*
X175786190Y-135896190D01*
X176024285Y-136372380D02*
X176024285Y-135372380D01*
X175643333Y-135372380D01*
X175548095Y-135420000D01*
X175500476Y-135467619D01*
X175452857Y-135562857D01*
X175452857Y-135705714D01*
X175500476Y-135800952D01*
X175548095Y-135848571D01*
X175643333Y-135896190D01*
X176024285Y-135896190D01*
X174500476Y-136372380D02*
X175071904Y-136372380D01*
X174786190Y-136372380D02*
X174786190Y-135372380D01*
X174881428Y-135515238D01*
X174976666Y-135610476D01*
X175071904Y-135658095D01*
X173643333Y-135372380D02*
X173833809Y-135372380D01*
X173929047Y-135420000D01*
X173976666Y-135467619D01*
X174071904Y-135610476D01*
X174119523Y-135800952D01*
X174119523Y-136181904D01*
X174071904Y-136277142D01*
X174024285Y-136324761D01*
X173929047Y-136372380D01*
X173738571Y-136372380D01*
X173643333Y-136324761D01*
X173595714Y-136277142D01*
X173548095Y-136181904D01*
X173548095Y-135943809D01*
X173595714Y-135848571D01*
X173643333Y-135800952D01*
X173738571Y-135753333D01*
X173929047Y-135753333D01*
X174024285Y-135800952D01*
X174071904Y-135848571D01*
X174119523Y-135943809D01*
X174929047Y-132532380D02*
X175500476Y-132532380D01*
X175214761Y-132532380D02*
X175214761Y-131532380D01*
X175310000Y-131675238D01*
X175405238Y-131770476D01*
X175500476Y-131818095D01*
X174500476Y-132532380D02*
X174500476Y-131532380D01*
X174405238Y-132151428D02*
X174119523Y-132532380D01*
X174119523Y-131865714D02*
X174500476Y-132246666D01*
X130452857Y-34372380D02*
X130786190Y-33896190D01*
X131024285Y-34372380D02*
X131024285Y-33372380D01*
X130643333Y-33372380D01*
X130548095Y-33420000D01*
X130500476Y-33467619D01*
X130452857Y-33562857D01*
X130452857Y-33705714D01*
X130500476Y-33800952D01*
X130548095Y-33848571D01*
X130643333Y-33896190D01*
X131024285Y-33896190D01*
X129500476Y-34372380D02*
X130071904Y-34372380D01*
X129786190Y-34372380D02*
X129786190Y-33372380D01*
X129881428Y-33515238D01*
X129976666Y-33610476D01*
X130071904Y-33658095D01*
X129167142Y-33372380D02*
X128500476Y-33372380D01*
X128929047Y-34372380D01*
X116452857Y-50402380D02*
X116786190Y-49926190D01*
X117024285Y-50402380D02*
X117024285Y-49402380D01*
X116643333Y-49402380D01*
X116548095Y-49450000D01*
X116500476Y-49497619D01*
X116452857Y-49592857D01*
X116452857Y-49735714D01*
X116500476Y-49830952D01*
X116548095Y-49878571D01*
X116643333Y-49926190D01*
X117024285Y-49926190D01*
X115500476Y-50402380D02*
X116071904Y-50402380D01*
X115786190Y-50402380D02*
X115786190Y-49402380D01*
X115881428Y-49545238D01*
X115976666Y-49640476D01*
X116071904Y-49688095D01*
X114929047Y-49830952D02*
X115024285Y-49783333D01*
X115071904Y-49735714D01*
X115119523Y-49640476D01*
X115119523Y-49592857D01*
X115071904Y-49497619D01*
X115024285Y-49450000D01*
X114929047Y-49402380D01*
X114738571Y-49402380D01*
X114643333Y-49450000D01*
X114595714Y-49497619D01*
X114548095Y-49592857D01*
X114548095Y-49640476D01*
X114595714Y-49735714D01*
X114643333Y-49783333D01*
X114738571Y-49830952D01*
X114929047Y-49830952D01*
X115024285Y-49878571D01*
X115071904Y-49926190D01*
X115119523Y-50021428D01*
X115119523Y-50211904D01*
X115071904Y-50307142D01*
X115024285Y-50354761D01*
X114929047Y-50402380D01*
X114738571Y-50402380D01*
X114643333Y-50354761D01*
X114595714Y-50307142D01*
X114548095Y-50211904D01*
X114548095Y-50021428D01*
X114595714Y-49926190D01*
X114643333Y-49878571D01*
X114738571Y-49830952D01*
X127372380Y-43547142D02*
X126896190Y-43213809D01*
X127372380Y-42975714D02*
X126372380Y-42975714D01*
X126372380Y-43356666D01*
X126420000Y-43451904D01*
X126467619Y-43499523D01*
X126562857Y-43547142D01*
X126705714Y-43547142D01*
X126800952Y-43499523D01*
X126848571Y-43451904D01*
X126896190Y-43356666D01*
X126896190Y-42975714D01*
X127372380Y-44499523D02*
X127372380Y-43928095D01*
X127372380Y-44213809D02*
X126372380Y-44213809D01*
X126515238Y-44118571D01*
X126610476Y-44023333D01*
X126658095Y-43928095D01*
X127372380Y-44975714D02*
X127372380Y-45166190D01*
X127324761Y-45261428D01*
X127277142Y-45309047D01*
X127134285Y-45404285D01*
X126943809Y-45451904D01*
X126562857Y-45451904D01*
X126467619Y-45404285D01*
X126420000Y-45356666D01*
X126372380Y-45261428D01*
X126372380Y-45070952D01*
X126420000Y-44975714D01*
X126467619Y-44928095D01*
X126562857Y-44880476D01*
X126800952Y-44880476D01*
X126896190Y-44928095D01*
X126943809Y-44975714D01*
X126991428Y-45070952D01*
X126991428Y-45261428D01*
X126943809Y-45356666D01*
X126896190Y-45404285D01*
X126800952Y-45451904D01*
X137372380Y-56547142D02*
X136896190Y-56213809D01*
X137372380Y-55975714D02*
X136372380Y-55975714D01*
X136372380Y-56356666D01*
X136420000Y-56451904D01*
X136467619Y-56499523D01*
X136562857Y-56547142D01*
X136705714Y-56547142D01*
X136800952Y-56499523D01*
X136848571Y-56451904D01*
X136896190Y-56356666D01*
X136896190Y-55975714D01*
X136467619Y-56928095D02*
X136420000Y-56975714D01*
X136372380Y-57070952D01*
X136372380Y-57309047D01*
X136420000Y-57404285D01*
X136467619Y-57451904D01*
X136562857Y-57499523D01*
X136658095Y-57499523D01*
X136800952Y-57451904D01*
X137372380Y-56880476D01*
X137372380Y-57499523D01*
X136372380Y-58118571D02*
X136372380Y-58213809D01*
X136420000Y-58309047D01*
X136467619Y-58356666D01*
X136562857Y-58404285D01*
X136753333Y-58451904D01*
X136991428Y-58451904D01*
X137181904Y-58404285D01*
X137277142Y-58356666D01*
X137324761Y-58309047D01*
X137372380Y-58213809D01*
X137372380Y-58118571D01*
X137324761Y-58023333D01*
X137277142Y-57975714D01*
X137181904Y-57928095D01*
X136991428Y-57880476D01*
X136753333Y-57880476D01*
X136562857Y-57928095D01*
X136467619Y-57975714D01*
X136420000Y-58023333D01*
X136372380Y-58118571D01*
X183952857Y-51372380D02*
X184286190Y-50896190D01*
X184524285Y-51372380D02*
X184524285Y-50372380D01*
X184143333Y-50372380D01*
X184048095Y-50420000D01*
X184000476Y-50467619D01*
X183952857Y-50562857D01*
X183952857Y-50705714D01*
X184000476Y-50800952D01*
X184048095Y-50848571D01*
X184143333Y-50896190D01*
X184524285Y-50896190D01*
X183571904Y-50467619D02*
X183524285Y-50420000D01*
X183429047Y-50372380D01*
X183190952Y-50372380D01*
X183095714Y-50420000D01*
X183048095Y-50467619D01*
X183000476Y-50562857D01*
X183000476Y-50658095D01*
X183048095Y-50800952D01*
X183619523Y-51372380D01*
X183000476Y-51372380D01*
X182048095Y-51372380D02*
X182619523Y-51372380D01*
X182333809Y-51372380D02*
X182333809Y-50372380D01*
X182429047Y-50515238D01*
X182524285Y-50610476D01*
X182619523Y-50658095D01*
X191872380Y-56547142D02*
X191396190Y-56213809D01*
X191872380Y-55975714D02*
X190872380Y-55975714D01*
X190872380Y-56356666D01*
X190920000Y-56451904D01*
X190967619Y-56499523D01*
X191062857Y-56547142D01*
X191205714Y-56547142D01*
X191300952Y-56499523D01*
X191348571Y-56451904D01*
X191396190Y-56356666D01*
X191396190Y-55975714D01*
X190967619Y-56928095D02*
X190920000Y-56975714D01*
X190872380Y-57070952D01*
X190872380Y-57309047D01*
X190920000Y-57404285D01*
X190967619Y-57451904D01*
X191062857Y-57499523D01*
X191158095Y-57499523D01*
X191300952Y-57451904D01*
X191872380Y-56880476D01*
X191872380Y-57499523D01*
X190967619Y-57880476D02*
X190920000Y-57928095D01*
X190872380Y-58023333D01*
X190872380Y-58261428D01*
X190920000Y-58356666D01*
X190967619Y-58404285D01*
X191062857Y-58451904D01*
X191158095Y-58451904D01*
X191300952Y-58404285D01*
X191872380Y-57832857D01*
X191872380Y-58451904D01*
X190452380Y-63880952D02*
X190452380Y-63309523D01*
X190452380Y-63595238D02*
X189452380Y-63595238D01*
X189595238Y-63500000D01*
X189690476Y-63404761D01*
X189738095Y-63309523D01*
X190452380Y-64309523D02*
X189452380Y-64309523D01*
X190071428Y-64404761D02*
X190452380Y-64690476D01*
X189785714Y-64690476D02*
X190166666Y-64309523D01*
X155832857Y-38532380D02*
X156166190Y-38056190D01*
X156404285Y-38532380D02*
X156404285Y-37532380D01*
X156023333Y-37532380D01*
X155928095Y-37580000D01*
X155880476Y-37627619D01*
X155832857Y-37722857D01*
X155832857Y-37865714D01*
X155880476Y-37960952D01*
X155928095Y-38008571D01*
X156023333Y-38056190D01*
X156404285Y-38056190D01*
X155451904Y-37627619D02*
X155404285Y-37580000D01*
X155309047Y-37532380D01*
X155070952Y-37532380D01*
X154975714Y-37580000D01*
X154928095Y-37627619D01*
X154880476Y-37722857D01*
X154880476Y-37818095D01*
X154928095Y-37960952D01*
X155499523Y-38532380D01*
X154880476Y-38532380D01*
X154547142Y-37532380D02*
X153928095Y-37532380D01*
X154261428Y-37913333D01*
X154118571Y-37913333D01*
X154023333Y-37960952D01*
X153975714Y-38008571D01*
X153928095Y-38103809D01*
X153928095Y-38341904D01*
X153975714Y-38437142D01*
X154023333Y-38484761D01*
X154118571Y-38532380D01*
X154404285Y-38532380D01*
X154499523Y-38484761D01*
X154547142Y-38437142D01*
X109122380Y-56048095D02*
X109931904Y-56048095D01*
X110027142Y-56095714D01*
X110074761Y-56143333D01*
X110122380Y-56238571D01*
X110122380Y-56429047D01*
X110074761Y-56524285D01*
X110027142Y-56571904D01*
X109931904Y-56619523D01*
X109122380Y-56619523D01*
X109217619Y-57048095D02*
X109170000Y-57095714D01*
X109122380Y-57190952D01*
X109122380Y-57429047D01*
X109170000Y-57524285D01*
X109217619Y-57571904D01*
X109312857Y-57619523D01*
X109408095Y-57619523D01*
X109550952Y-57571904D01*
X110122380Y-57000476D01*
X110122380Y-57619523D01*
X163622380Y-56048095D02*
X164431904Y-56048095D01*
X164527142Y-56095714D01*
X164574761Y-56143333D01*
X164622380Y-56238571D01*
X164622380Y-56429047D01*
X164574761Y-56524285D01*
X164527142Y-56571904D01*
X164431904Y-56619523D01*
X163622380Y-56619523D01*
X163622380Y-57000476D02*
X163622380Y-57619523D01*
X164003333Y-57286190D01*
X164003333Y-57429047D01*
X164050952Y-57524285D01*
X164098571Y-57571904D01*
X164193809Y-57619523D01*
X164431904Y-57619523D01*
X164527142Y-57571904D01*
X164574761Y-57524285D01*
X164622380Y-57429047D01*
X164622380Y-57143333D01*
X164574761Y-57048095D01*
X164527142Y-57000476D01*
%LPC*%
D16*
X121540000Y-81080000D03*
X111380000Y-81080000D03*
D17*
X116460000Y-81080000D03*
D18*
X112650000Y-78540000D03*
X119000000Y-76000000D03*
D19*
X116000000Y-36000000D03*
D20*
X118540000Y-36000000D03*
X121080000Y-36000000D03*
X123620000Y-36000000D03*
X126160000Y-36000000D03*
X128700000Y-36000000D03*
X131240000Y-36000000D03*
X133780000Y-36000000D03*
X136320000Y-36000000D03*
X138860000Y-36000000D03*
X141400000Y-36000000D03*
X143940000Y-36000000D03*
X146480000Y-36000000D03*
X149020000Y-36000000D03*
X151560000Y-36000000D03*
X154100000Y-36000000D03*
D21*
X110500900Y-36000000D03*
X110500900Y-67000700D03*
X185499480Y-67000700D03*
X185500000Y-36000000D03*
D22*
X134000000Y-44000000D03*
D23*
X136540000Y-44000000D03*
X139080000Y-44000000D03*
X141620000Y-44000000D03*
X144160000Y-44000000D03*
X146700000Y-44000000D03*
X149240000Y-44000000D03*
X151780000Y-44000000D03*
X154320000Y-44000000D03*
X156860000Y-44000000D03*
X159400000Y-44000000D03*
X161940000Y-44000000D03*
D18*
X140000000Y-139000000D03*
X133650000Y-141540000D03*
D17*
X137460000Y-144080000D03*
D16*
X132380000Y-144080000D03*
X142540000Y-144080000D03*
X142540000Y-81080000D03*
X132380000Y-81080000D03*
D17*
X137460000Y-81080000D03*
D18*
X133650000Y-78540000D03*
X140000000Y-76000000D03*
X161000000Y-76000000D03*
X154650000Y-78540000D03*
D17*
X158460000Y-81080000D03*
D16*
X153380000Y-81080000D03*
X163540000Y-81080000D03*
D18*
X119000000Y-97000000D03*
X112650000Y-99540000D03*
D17*
X116460000Y-102080000D03*
D16*
X111380000Y-102080000D03*
X121540000Y-102080000D03*
D18*
X140000000Y-97000000D03*
X133650000Y-99540000D03*
D17*
X137460000Y-102080000D03*
D16*
X132380000Y-102080000D03*
X142540000Y-102080000D03*
X163540000Y-102080000D03*
X153380000Y-102080000D03*
D17*
X158460000Y-102080000D03*
D18*
X154650000Y-99540000D03*
X161000000Y-97000000D03*
D16*
X121540000Y-123080000D03*
X111380000Y-123080000D03*
D17*
X116460000Y-123080000D03*
D18*
X112650000Y-120540000D03*
X119000000Y-118000000D03*
X140000000Y-118000000D03*
X133650000Y-120540000D03*
D17*
X137460000Y-123080000D03*
D16*
X132380000Y-123080000D03*
X142540000Y-123080000D03*
X163540000Y-123080000D03*
X153380000Y-123080000D03*
D17*
X158460000Y-123080000D03*
D18*
X154650000Y-120540000D03*
X161000000Y-118000000D03*
X182000000Y-76000000D03*
X175650000Y-78540000D03*
D17*
X179460000Y-81080000D03*
D16*
X174380000Y-81080000D03*
X184540000Y-81080000D03*
D18*
X182000000Y-97000000D03*
X175650000Y-99540000D03*
D17*
X179460000Y-102080000D03*
D16*
X174380000Y-102080000D03*
X184540000Y-102080000D03*
D18*
X182000000Y-118000000D03*
X175650000Y-120540000D03*
D17*
X179460000Y-123080000D03*
D16*
X174380000Y-123080000D03*
X184540000Y-123080000D03*
X184540000Y-144080000D03*
X174380000Y-144080000D03*
D17*
X179460000Y-144080000D03*
D18*
X175650000Y-141540000D03*
X182000000Y-139000000D03*
D16*
X163540000Y-144080000D03*
X153380000Y-144080000D03*
D17*
X158460000Y-144080000D03*
D18*
X154650000Y-141540000D03*
X161000000Y-139000000D03*
D16*
X121540000Y-144080000D03*
X111380000Y-144080000D03*
D17*
X116460000Y-144080000D03*
D18*
X112650000Y-141540000D03*
X119000000Y-139000000D03*
D24*
X107000000Y-59550000D03*
D25*
X108150000Y-62450000D03*
X105850000Y-62450000D03*
D26*
X187000000Y-157000000D03*
D27*
X190225000Y-157000000D03*
X189280419Y-159280419D03*
X187000000Y-160225000D03*
X184719581Y-159280419D03*
X183775000Y-157000000D03*
X184719581Y-154719581D03*
X187000000Y-153775000D03*
X189280419Y-154719581D03*
X111280419Y-154719581D03*
X109000000Y-153775000D03*
X106719581Y-154719581D03*
X105775000Y-157000000D03*
X106719581Y-159280419D03*
X109000000Y-160225000D03*
X111280419Y-159280419D03*
X112225000Y-157000000D03*
D26*
X109000000Y-157000000D03*
D28*
X115620000Y-71000000D03*
D29*
X108000000Y-71000000D03*
X108000000Y-113000000D03*
D28*
X115620000Y-113000000D03*
D29*
X150000000Y-71000000D03*
D28*
X157620000Y-71000000D03*
X157620000Y-113000000D03*
D29*
X150000000Y-113000000D03*
X129000000Y-71000000D03*
D28*
X136620000Y-71000000D03*
X136620000Y-113000000D03*
D29*
X129000000Y-113000000D03*
X171000000Y-71000000D03*
D28*
X178620000Y-71000000D03*
X178620000Y-113000000D03*
D29*
X171000000Y-113000000D03*
D28*
X115620000Y-92000000D03*
D29*
X108000000Y-92000000D03*
X108000000Y-134000000D03*
D28*
X115620000Y-134000000D03*
X157620000Y-92000000D03*
D29*
X150000000Y-92000000D03*
D28*
X157620000Y-134000000D03*
D29*
X150000000Y-134000000D03*
X129000000Y-92000000D03*
D28*
X136620000Y-92000000D03*
X136620000Y-134000000D03*
D29*
X129000000Y-134000000D03*
X171000000Y-92000000D03*
D28*
X178620000Y-92000000D03*
D29*
X171000000Y-134000000D03*
D28*
X178620000Y-134000000D03*
X133620000Y-32000000D03*
D29*
X126000000Y-32000000D03*
X112000000Y-48030000D03*
D28*
X119620000Y-48030000D03*
X125000000Y-40380000D03*
D29*
X125000000Y-48000000D03*
X135000000Y-61000000D03*
D28*
X135000000Y-53380000D03*
X187120000Y-49000000D03*
D29*
X179500000Y-49000000D03*
X189500000Y-61000000D03*
D28*
X189500000Y-53380000D03*
D29*
X159000000Y-40000000D03*
D28*
X151380000Y-40000000D03*
D30*
X112000000Y-53000000D03*
D31*
X129780000Y-60620000D03*
X114540000Y-53000000D03*
X127240000Y-60620000D03*
X117080000Y-53000000D03*
X124700000Y-60620000D03*
X119620000Y-53000000D03*
X122160000Y-60620000D03*
X122160000Y-53000000D03*
X119620000Y-60620000D03*
X124700000Y-53000000D03*
X117080000Y-60620000D03*
X127240000Y-53000000D03*
X114540000Y-60620000D03*
X129780000Y-53000000D03*
X112000000Y-60620000D03*
X166500000Y-60620000D03*
X184280000Y-53000000D03*
X169040000Y-60620000D03*
X181740000Y-53000000D03*
X171580000Y-60620000D03*
X179200000Y-53000000D03*
X174120000Y-60620000D03*
X176660000Y-53000000D03*
X176660000Y-60620000D03*
X174120000Y-53000000D03*
X179200000Y-60620000D03*
X171580000Y-53000000D03*
X181740000Y-60620000D03*
X169040000Y-53000000D03*
X184280000Y-60620000D03*
D30*
X166500000Y-53000000D03*
M02*
