%TF.GenerationSoftware,KiCad,Pcbnew,5.0.2+dfsg1-1*%
%TF.CreationDate,2022-01-02T19:08:51-08:00*%
%TF.ProjectId,keypad,6b657970-6164-42e6-9b69-6361645f7063,rev?*%
%TF.SameCoordinates,Original*%
%TF.FileFunction,Soldermask,Bot*%
%TF.FilePolarity,Negative*%
%FSLAX46Y46*%
G04 Gerber Fmt 4.6, Leading zero omitted, Abs format (unit mm)*
G04 Created by KiCad (PCBNEW 5.0.2+dfsg1-1) date Sun 02 Jan 2022 07:08:51 PM PST*
%MOMM*%
%LPD*%
G01*
G04 APERTURE LIST*
%ADD10C,0.100000*%
G04 APERTURE END LIST*
D10*
G36*
X110254264Y-152865246D02*
X111036814Y-153189389D01*
X111594233Y-153561845D01*
X111741093Y-153659974D01*
X112340026Y-154258907D01*
X112340028Y-154258910D01*
X112810611Y-154963186D01*
X113134754Y-155745736D01*
X113134754Y-155745737D01*
X113300000Y-156576486D01*
X113300000Y-157423514D01*
X113134754Y-158254264D01*
X112810611Y-159036814D01*
X112505413Y-159493574D01*
X112340026Y-159741093D01*
X111741093Y-160340026D01*
X111741090Y-160340028D01*
X111036814Y-160810611D01*
X110254264Y-161134754D01*
X109838888Y-161217377D01*
X109423514Y-161300000D01*
X108576486Y-161300000D01*
X108161112Y-161217377D01*
X107745736Y-161134754D01*
X106963186Y-160810611D01*
X106258910Y-160340028D01*
X106258907Y-160340026D01*
X105659974Y-159741093D01*
X105494587Y-159493574D01*
X105189389Y-159036814D01*
X104865246Y-158254264D01*
X104700000Y-157423514D01*
X104700000Y-156576486D01*
X104865246Y-155745737D01*
X104865246Y-155745736D01*
X105189389Y-154963186D01*
X105659972Y-154258910D01*
X105659974Y-154258907D01*
X106258907Y-153659974D01*
X106405767Y-153561845D01*
X106963186Y-153189389D01*
X107745736Y-152865246D01*
X108576486Y-152700000D01*
X109423514Y-152700000D01*
X110254264Y-152865246D01*
X110254264Y-152865246D01*
G37*
G36*
X188254264Y-152865246D02*
X189036814Y-153189389D01*
X189594233Y-153561845D01*
X189741093Y-153659974D01*
X190340026Y-154258907D01*
X190340028Y-154258910D01*
X190810611Y-154963186D01*
X191134754Y-155745736D01*
X191134754Y-155745737D01*
X191300000Y-156576486D01*
X191300000Y-157423514D01*
X191134754Y-158254264D01*
X190810611Y-159036814D01*
X190505413Y-159493574D01*
X190340026Y-159741093D01*
X189741093Y-160340026D01*
X189741090Y-160340028D01*
X189036814Y-160810611D01*
X188254264Y-161134754D01*
X187838888Y-161217377D01*
X187423514Y-161300000D01*
X186576486Y-161300000D01*
X186161112Y-161217377D01*
X185745736Y-161134754D01*
X184963186Y-160810611D01*
X184258910Y-160340028D01*
X184258907Y-160340026D01*
X183659974Y-159741093D01*
X183494587Y-159493574D01*
X183189389Y-159036814D01*
X182865246Y-158254264D01*
X182700000Y-157423514D01*
X182700000Y-156576486D01*
X182865246Y-155745737D01*
X182865246Y-155745736D01*
X183189389Y-154963186D01*
X183659972Y-154258910D01*
X183659974Y-154258907D01*
X184258907Y-153659974D01*
X184405767Y-153561845D01*
X184963186Y-153189389D01*
X185745736Y-152865246D01*
X186576486Y-152700000D01*
X187423514Y-152700000D01*
X188254264Y-152865246D01*
X188254264Y-152865246D01*
G37*
G36*
X180043378Y-142156859D02*
X180407354Y-142307622D01*
X180734929Y-142526501D01*
X181013499Y-142805071D01*
X181232378Y-143132646D01*
X181383141Y-143496622D01*
X181460000Y-143883016D01*
X181460000Y-144276984D01*
X181383141Y-144663378D01*
X181232378Y-145027354D01*
X181013499Y-145354929D01*
X180734929Y-145633499D01*
X180407354Y-145852378D01*
X180043378Y-146003141D01*
X179656984Y-146080000D01*
X179263016Y-146080000D01*
X178876622Y-146003141D01*
X178512646Y-145852378D01*
X178185071Y-145633499D01*
X177906501Y-145354929D01*
X177687622Y-145027354D01*
X177536859Y-144663378D01*
X177460000Y-144276984D01*
X177460000Y-143883016D01*
X177536859Y-143496622D01*
X177687622Y-143132646D01*
X177906501Y-142805071D01*
X178185071Y-142526501D01*
X178512646Y-142307622D01*
X178876622Y-142156859D01*
X179263016Y-142080000D01*
X179656984Y-142080000D01*
X180043378Y-142156859D01*
X180043378Y-142156859D01*
G37*
G36*
X159043378Y-142156859D02*
X159407354Y-142307622D01*
X159734929Y-142526501D01*
X160013499Y-142805071D01*
X160232378Y-143132646D01*
X160383141Y-143496622D01*
X160460000Y-143883016D01*
X160460000Y-144276984D01*
X160383141Y-144663378D01*
X160232378Y-145027354D01*
X160013499Y-145354929D01*
X159734929Y-145633499D01*
X159407354Y-145852378D01*
X159043378Y-146003141D01*
X158656984Y-146080000D01*
X158263016Y-146080000D01*
X157876622Y-146003141D01*
X157512646Y-145852378D01*
X157185071Y-145633499D01*
X156906501Y-145354929D01*
X156687622Y-145027354D01*
X156536859Y-144663378D01*
X156460000Y-144276984D01*
X156460000Y-143883016D01*
X156536859Y-143496622D01*
X156687622Y-143132646D01*
X156906501Y-142805071D01*
X157185071Y-142526501D01*
X157512646Y-142307622D01*
X157876622Y-142156859D01*
X158263016Y-142080000D01*
X158656984Y-142080000D01*
X159043378Y-142156859D01*
X159043378Y-142156859D01*
G37*
G36*
X117043378Y-142156859D02*
X117407354Y-142307622D01*
X117734929Y-142526501D01*
X118013499Y-142805071D01*
X118232378Y-143132646D01*
X118383141Y-143496622D01*
X118460000Y-143883016D01*
X118460000Y-144276984D01*
X118383141Y-144663378D01*
X118232378Y-145027354D01*
X118013499Y-145354929D01*
X117734929Y-145633499D01*
X117407354Y-145852378D01*
X117043378Y-146003141D01*
X116656984Y-146080000D01*
X116263016Y-146080000D01*
X115876622Y-146003141D01*
X115512646Y-145852378D01*
X115185071Y-145633499D01*
X114906501Y-145354929D01*
X114687622Y-145027354D01*
X114536859Y-144663378D01*
X114460000Y-144276984D01*
X114460000Y-143883016D01*
X114536859Y-143496622D01*
X114687622Y-143132646D01*
X114906501Y-142805071D01*
X115185071Y-142526501D01*
X115512646Y-142307622D01*
X115876622Y-142156859D01*
X116263016Y-142080000D01*
X116656984Y-142080000D01*
X117043378Y-142156859D01*
X117043378Y-142156859D01*
G37*
G36*
X138043378Y-142156859D02*
X138407354Y-142307622D01*
X138734929Y-142526501D01*
X139013499Y-142805071D01*
X139232378Y-143132646D01*
X139383141Y-143496622D01*
X139460000Y-143883016D01*
X139460000Y-144276984D01*
X139383141Y-144663378D01*
X139232378Y-145027354D01*
X139013499Y-145354929D01*
X138734929Y-145633499D01*
X138407354Y-145852378D01*
X138043378Y-146003141D01*
X137656984Y-146080000D01*
X137263016Y-146080000D01*
X136876622Y-146003141D01*
X136512646Y-145852378D01*
X136185071Y-145633499D01*
X135906501Y-145354929D01*
X135687622Y-145027354D01*
X135536859Y-144663378D01*
X135460000Y-144276984D01*
X135460000Y-143883016D01*
X135536859Y-143496622D01*
X135687622Y-143132646D01*
X135906501Y-142805071D01*
X136185071Y-142526501D01*
X136512646Y-142307622D01*
X136876622Y-142156859D01*
X137263016Y-142080000D01*
X137656984Y-142080000D01*
X138043378Y-142156859D01*
X138043378Y-142156859D01*
G37*
G36*
X132627934Y-143262664D02*
X132782627Y-143326740D01*
X132921847Y-143419764D01*
X133040236Y-143538153D01*
X133133260Y-143677373D01*
X133197336Y-143832066D01*
X133230000Y-143996281D01*
X133230000Y-144163719D01*
X133197336Y-144327934D01*
X133133260Y-144482627D01*
X133040236Y-144621847D01*
X132921847Y-144740236D01*
X132782627Y-144833260D01*
X132627934Y-144897336D01*
X132463719Y-144930000D01*
X132296281Y-144930000D01*
X132132066Y-144897336D01*
X131977373Y-144833260D01*
X131838153Y-144740236D01*
X131719764Y-144621847D01*
X131626740Y-144482627D01*
X131562664Y-144327934D01*
X131530000Y-144163719D01*
X131530000Y-143996281D01*
X131562664Y-143832066D01*
X131626740Y-143677373D01*
X131719764Y-143538153D01*
X131838153Y-143419764D01*
X131977373Y-143326740D01*
X132132066Y-143262664D01*
X132296281Y-143230000D01*
X132463719Y-143230000D01*
X132627934Y-143262664D01*
X132627934Y-143262664D01*
G37*
G36*
X142787934Y-143262664D02*
X142942627Y-143326740D01*
X143081847Y-143419764D01*
X143200236Y-143538153D01*
X143293260Y-143677373D01*
X143357336Y-143832066D01*
X143390000Y-143996281D01*
X143390000Y-144163719D01*
X143357336Y-144327934D01*
X143293260Y-144482627D01*
X143200236Y-144621847D01*
X143081847Y-144740236D01*
X142942627Y-144833260D01*
X142787934Y-144897336D01*
X142623719Y-144930000D01*
X142456281Y-144930000D01*
X142292066Y-144897336D01*
X142137373Y-144833260D01*
X141998153Y-144740236D01*
X141879764Y-144621847D01*
X141786740Y-144482627D01*
X141722664Y-144327934D01*
X141690000Y-144163719D01*
X141690000Y-143996281D01*
X141722664Y-143832066D01*
X141786740Y-143677373D01*
X141879764Y-143538153D01*
X141998153Y-143419764D01*
X142137373Y-143326740D01*
X142292066Y-143262664D01*
X142456281Y-143230000D01*
X142623719Y-143230000D01*
X142787934Y-143262664D01*
X142787934Y-143262664D01*
G37*
G36*
X121787934Y-143262664D02*
X121942627Y-143326740D01*
X122081847Y-143419764D01*
X122200236Y-143538153D01*
X122293260Y-143677373D01*
X122357336Y-143832066D01*
X122390000Y-143996281D01*
X122390000Y-144163719D01*
X122357336Y-144327934D01*
X122293260Y-144482627D01*
X122200236Y-144621847D01*
X122081847Y-144740236D01*
X121942627Y-144833260D01*
X121787934Y-144897336D01*
X121623719Y-144930000D01*
X121456281Y-144930000D01*
X121292066Y-144897336D01*
X121137373Y-144833260D01*
X120998153Y-144740236D01*
X120879764Y-144621847D01*
X120786740Y-144482627D01*
X120722664Y-144327934D01*
X120690000Y-144163719D01*
X120690000Y-143996281D01*
X120722664Y-143832066D01*
X120786740Y-143677373D01*
X120879764Y-143538153D01*
X120998153Y-143419764D01*
X121137373Y-143326740D01*
X121292066Y-143262664D01*
X121456281Y-143230000D01*
X121623719Y-143230000D01*
X121787934Y-143262664D01*
X121787934Y-143262664D01*
G37*
G36*
X111627934Y-143262664D02*
X111782627Y-143326740D01*
X111921847Y-143419764D01*
X112040236Y-143538153D01*
X112133260Y-143677373D01*
X112197336Y-143832066D01*
X112230000Y-143996281D01*
X112230000Y-144163719D01*
X112197336Y-144327934D01*
X112133260Y-144482627D01*
X112040236Y-144621847D01*
X111921847Y-144740236D01*
X111782627Y-144833260D01*
X111627934Y-144897336D01*
X111463719Y-144930000D01*
X111296281Y-144930000D01*
X111132066Y-144897336D01*
X110977373Y-144833260D01*
X110838153Y-144740236D01*
X110719764Y-144621847D01*
X110626740Y-144482627D01*
X110562664Y-144327934D01*
X110530000Y-144163719D01*
X110530000Y-143996281D01*
X110562664Y-143832066D01*
X110626740Y-143677373D01*
X110719764Y-143538153D01*
X110838153Y-143419764D01*
X110977373Y-143326740D01*
X111132066Y-143262664D01*
X111296281Y-143230000D01*
X111463719Y-143230000D01*
X111627934Y-143262664D01*
X111627934Y-143262664D01*
G37*
G36*
X153627934Y-143262664D02*
X153782627Y-143326740D01*
X153921847Y-143419764D01*
X154040236Y-143538153D01*
X154133260Y-143677373D01*
X154197336Y-143832066D01*
X154230000Y-143996281D01*
X154230000Y-144163719D01*
X154197336Y-144327934D01*
X154133260Y-144482627D01*
X154040236Y-144621847D01*
X153921847Y-144740236D01*
X153782627Y-144833260D01*
X153627934Y-144897336D01*
X153463719Y-144930000D01*
X153296281Y-144930000D01*
X153132066Y-144897336D01*
X152977373Y-144833260D01*
X152838153Y-144740236D01*
X152719764Y-144621847D01*
X152626740Y-144482627D01*
X152562664Y-144327934D01*
X152530000Y-144163719D01*
X152530000Y-143996281D01*
X152562664Y-143832066D01*
X152626740Y-143677373D01*
X152719764Y-143538153D01*
X152838153Y-143419764D01*
X152977373Y-143326740D01*
X153132066Y-143262664D01*
X153296281Y-143230000D01*
X153463719Y-143230000D01*
X153627934Y-143262664D01*
X153627934Y-143262664D01*
G37*
G36*
X163787934Y-143262664D02*
X163942627Y-143326740D01*
X164081847Y-143419764D01*
X164200236Y-143538153D01*
X164293260Y-143677373D01*
X164357336Y-143832066D01*
X164390000Y-143996281D01*
X164390000Y-144163719D01*
X164357336Y-144327934D01*
X164293260Y-144482627D01*
X164200236Y-144621847D01*
X164081847Y-144740236D01*
X163942627Y-144833260D01*
X163787934Y-144897336D01*
X163623719Y-144930000D01*
X163456281Y-144930000D01*
X163292066Y-144897336D01*
X163137373Y-144833260D01*
X162998153Y-144740236D01*
X162879764Y-144621847D01*
X162786740Y-144482627D01*
X162722664Y-144327934D01*
X162690000Y-144163719D01*
X162690000Y-143996281D01*
X162722664Y-143832066D01*
X162786740Y-143677373D01*
X162879764Y-143538153D01*
X162998153Y-143419764D01*
X163137373Y-143326740D01*
X163292066Y-143262664D01*
X163456281Y-143230000D01*
X163623719Y-143230000D01*
X163787934Y-143262664D01*
X163787934Y-143262664D01*
G37*
G36*
X174627934Y-143262664D02*
X174782627Y-143326740D01*
X174921847Y-143419764D01*
X175040236Y-143538153D01*
X175133260Y-143677373D01*
X175197336Y-143832066D01*
X175230000Y-143996281D01*
X175230000Y-144163719D01*
X175197336Y-144327934D01*
X175133260Y-144482627D01*
X175040236Y-144621847D01*
X174921847Y-144740236D01*
X174782627Y-144833260D01*
X174627934Y-144897336D01*
X174463719Y-144930000D01*
X174296281Y-144930000D01*
X174132066Y-144897336D01*
X173977373Y-144833260D01*
X173838153Y-144740236D01*
X173719764Y-144621847D01*
X173626740Y-144482627D01*
X173562664Y-144327934D01*
X173530000Y-144163719D01*
X173530000Y-143996281D01*
X173562664Y-143832066D01*
X173626740Y-143677373D01*
X173719764Y-143538153D01*
X173838153Y-143419764D01*
X173977373Y-143326740D01*
X174132066Y-143262664D01*
X174296281Y-143230000D01*
X174463719Y-143230000D01*
X174627934Y-143262664D01*
X174627934Y-143262664D01*
G37*
G36*
X184787934Y-143262664D02*
X184942627Y-143326740D01*
X185081847Y-143419764D01*
X185200236Y-143538153D01*
X185293260Y-143677373D01*
X185357336Y-143832066D01*
X185390000Y-143996281D01*
X185390000Y-144163719D01*
X185357336Y-144327934D01*
X185293260Y-144482627D01*
X185200236Y-144621847D01*
X185081847Y-144740236D01*
X184942627Y-144833260D01*
X184787934Y-144897336D01*
X184623719Y-144930000D01*
X184456281Y-144930000D01*
X184292066Y-144897336D01*
X184137373Y-144833260D01*
X183998153Y-144740236D01*
X183879764Y-144621847D01*
X183786740Y-144482627D01*
X183722664Y-144327934D01*
X183690000Y-144163719D01*
X183690000Y-143996281D01*
X183722664Y-143832066D01*
X183786740Y-143677373D01*
X183879764Y-143538153D01*
X183998153Y-143419764D01*
X184137373Y-143326740D01*
X184292066Y-143262664D01*
X184456281Y-143230000D01*
X184623719Y-143230000D01*
X184787934Y-143262664D01*
X184787934Y-143262664D01*
G37*
G36*
X133970857Y-140482272D02*
X134171042Y-140565191D01*
X134351213Y-140685578D01*
X134504422Y-140838787D01*
X134624809Y-141018958D01*
X134707728Y-141219143D01*
X134750000Y-141431658D01*
X134750000Y-141648342D01*
X134707728Y-141860857D01*
X134624809Y-142061042D01*
X134504422Y-142241213D01*
X134351213Y-142394422D01*
X134171042Y-142514809D01*
X133970857Y-142597728D01*
X133758342Y-142640000D01*
X133541658Y-142640000D01*
X133329143Y-142597728D01*
X133128958Y-142514809D01*
X132948787Y-142394422D01*
X132795578Y-142241213D01*
X132675191Y-142061042D01*
X132592272Y-141860857D01*
X132550000Y-141648342D01*
X132550000Y-141431658D01*
X132592272Y-141219143D01*
X132675191Y-141018958D01*
X132795578Y-140838787D01*
X132948787Y-140685578D01*
X133128958Y-140565191D01*
X133329143Y-140482272D01*
X133541658Y-140440000D01*
X133758342Y-140440000D01*
X133970857Y-140482272D01*
X133970857Y-140482272D01*
G37*
G36*
X175970857Y-140482272D02*
X176171042Y-140565191D01*
X176351213Y-140685578D01*
X176504422Y-140838787D01*
X176624809Y-141018958D01*
X176707728Y-141219143D01*
X176750000Y-141431658D01*
X176750000Y-141648342D01*
X176707728Y-141860857D01*
X176624809Y-142061042D01*
X176504422Y-142241213D01*
X176351213Y-142394422D01*
X176171042Y-142514809D01*
X175970857Y-142597728D01*
X175758342Y-142640000D01*
X175541658Y-142640000D01*
X175329143Y-142597728D01*
X175128958Y-142514809D01*
X174948787Y-142394422D01*
X174795578Y-142241213D01*
X174675191Y-142061042D01*
X174592272Y-141860857D01*
X174550000Y-141648342D01*
X174550000Y-141431658D01*
X174592272Y-141219143D01*
X174675191Y-141018958D01*
X174795578Y-140838787D01*
X174948787Y-140685578D01*
X175128958Y-140565191D01*
X175329143Y-140482272D01*
X175541658Y-140440000D01*
X175758342Y-140440000D01*
X175970857Y-140482272D01*
X175970857Y-140482272D01*
G37*
G36*
X112970857Y-140482272D02*
X113171042Y-140565191D01*
X113351213Y-140685578D01*
X113504422Y-140838787D01*
X113624809Y-141018958D01*
X113707728Y-141219143D01*
X113750000Y-141431658D01*
X113750000Y-141648342D01*
X113707728Y-141860857D01*
X113624809Y-142061042D01*
X113504422Y-142241213D01*
X113351213Y-142394422D01*
X113171042Y-142514809D01*
X112970857Y-142597728D01*
X112758342Y-142640000D01*
X112541658Y-142640000D01*
X112329143Y-142597728D01*
X112128958Y-142514809D01*
X111948787Y-142394422D01*
X111795578Y-142241213D01*
X111675191Y-142061042D01*
X111592272Y-141860857D01*
X111550000Y-141648342D01*
X111550000Y-141431658D01*
X111592272Y-141219143D01*
X111675191Y-141018958D01*
X111795578Y-140838787D01*
X111948787Y-140685578D01*
X112128958Y-140565191D01*
X112329143Y-140482272D01*
X112541658Y-140440000D01*
X112758342Y-140440000D01*
X112970857Y-140482272D01*
X112970857Y-140482272D01*
G37*
G36*
X154970857Y-140482272D02*
X155171042Y-140565191D01*
X155351213Y-140685578D01*
X155504422Y-140838787D01*
X155624809Y-141018958D01*
X155707728Y-141219143D01*
X155750000Y-141431658D01*
X155750000Y-141648342D01*
X155707728Y-141860857D01*
X155624809Y-142061042D01*
X155504422Y-142241213D01*
X155351213Y-142394422D01*
X155171042Y-142514809D01*
X154970857Y-142597728D01*
X154758342Y-142640000D01*
X154541658Y-142640000D01*
X154329143Y-142597728D01*
X154128958Y-142514809D01*
X153948787Y-142394422D01*
X153795578Y-142241213D01*
X153675191Y-142061042D01*
X153592272Y-141860857D01*
X153550000Y-141648342D01*
X153550000Y-141431658D01*
X153592272Y-141219143D01*
X153675191Y-141018958D01*
X153795578Y-140838787D01*
X153948787Y-140685578D01*
X154128958Y-140565191D01*
X154329143Y-140482272D01*
X154541658Y-140440000D01*
X154758342Y-140440000D01*
X154970857Y-140482272D01*
X154970857Y-140482272D01*
G37*
G36*
X140320857Y-137942272D02*
X140521042Y-138025191D01*
X140701213Y-138145578D01*
X140854422Y-138298787D01*
X140974809Y-138478958D01*
X141057728Y-138679143D01*
X141100000Y-138891658D01*
X141100000Y-139108342D01*
X141057728Y-139320857D01*
X140974809Y-139521042D01*
X140854422Y-139701213D01*
X140701213Y-139854422D01*
X140521042Y-139974809D01*
X140320857Y-140057728D01*
X140108342Y-140100000D01*
X139891658Y-140100000D01*
X139679143Y-140057728D01*
X139478958Y-139974809D01*
X139298787Y-139854422D01*
X139145578Y-139701213D01*
X139025191Y-139521042D01*
X138942272Y-139320857D01*
X138900000Y-139108342D01*
X138900000Y-138891658D01*
X138942272Y-138679143D01*
X139025191Y-138478958D01*
X139145578Y-138298787D01*
X139298787Y-138145578D01*
X139478958Y-138025191D01*
X139679143Y-137942272D01*
X139891658Y-137900000D01*
X140108342Y-137900000D01*
X140320857Y-137942272D01*
X140320857Y-137942272D01*
G37*
G36*
X161320857Y-137942272D02*
X161521042Y-138025191D01*
X161701213Y-138145578D01*
X161854422Y-138298787D01*
X161974809Y-138478958D01*
X162057728Y-138679143D01*
X162100000Y-138891658D01*
X162100000Y-139108342D01*
X162057728Y-139320857D01*
X161974809Y-139521042D01*
X161854422Y-139701213D01*
X161701213Y-139854422D01*
X161521042Y-139974809D01*
X161320857Y-140057728D01*
X161108342Y-140100000D01*
X160891658Y-140100000D01*
X160679143Y-140057728D01*
X160478958Y-139974809D01*
X160298787Y-139854422D01*
X160145578Y-139701213D01*
X160025191Y-139521042D01*
X159942272Y-139320857D01*
X159900000Y-139108342D01*
X159900000Y-138891658D01*
X159942272Y-138679143D01*
X160025191Y-138478958D01*
X160145578Y-138298787D01*
X160298787Y-138145578D01*
X160478958Y-138025191D01*
X160679143Y-137942272D01*
X160891658Y-137900000D01*
X161108342Y-137900000D01*
X161320857Y-137942272D01*
X161320857Y-137942272D01*
G37*
G36*
X119320857Y-137942272D02*
X119521042Y-138025191D01*
X119701213Y-138145578D01*
X119854422Y-138298787D01*
X119974809Y-138478958D01*
X120057728Y-138679143D01*
X120100000Y-138891658D01*
X120100000Y-139108342D01*
X120057728Y-139320857D01*
X119974809Y-139521042D01*
X119854422Y-139701213D01*
X119701213Y-139854422D01*
X119521042Y-139974809D01*
X119320857Y-140057728D01*
X119108342Y-140100000D01*
X118891658Y-140100000D01*
X118679143Y-140057728D01*
X118478958Y-139974809D01*
X118298787Y-139854422D01*
X118145578Y-139701213D01*
X118025191Y-139521042D01*
X117942272Y-139320857D01*
X117900000Y-139108342D01*
X117900000Y-138891658D01*
X117942272Y-138679143D01*
X118025191Y-138478958D01*
X118145578Y-138298787D01*
X118298787Y-138145578D01*
X118478958Y-138025191D01*
X118679143Y-137942272D01*
X118891658Y-137900000D01*
X119108342Y-137900000D01*
X119320857Y-137942272D01*
X119320857Y-137942272D01*
G37*
G36*
X182320857Y-137942272D02*
X182521042Y-138025191D01*
X182701213Y-138145578D01*
X182854422Y-138298787D01*
X182974809Y-138478958D01*
X183057728Y-138679143D01*
X183100000Y-138891658D01*
X183100000Y-139108342D01*
X183057728Y-139320857D01*
X182974809Y-139521042D01*
X182854422Y-139701213D01*
X182701213Y-139854422D01*
X182521042Y-139974809D01*
X182320857Y-140057728D01*
X182108342Y-140100000D01*
X181891658Y-140100000D01*
X181679143Y-140057728D01*
X181478958Y-139974809D01*
X181298787Y-139854422D01*
X181145578Y-139701213D01*
X181025191Y-139521042D01*
X180942272Y-139320857D01*
X180900000Y-139108342D01*
X180900000Y-138891658D01*
X180942272Y-138679143D01*
X181025191Y-138478958D01*
X181145578Y-138298787D01*
X181298787Y-138145578D01*
X181478958Y-138025191D01*
X181679143Y-137942272D01*
X181891658Y-137900000D01*
X182108342Y-137900000D01*
X182320857Y-137942272D01*
X182320857Y-137942272D01*
G37*
G36*
X171204183Y-133326900D02*
X171331574Y-133379668D01*
X171384685Y-133415155D01*
X171446225Y-133456275D01*
X171543725Y-133553775D01*
X171620332Y-133668426D01*
X171673100Y-133795817D01*
X171700000Y-133931055D01*
X171700000Y-134068945D01*
X171673100Y-134204183D01*
X171620332Y-134331574D01*
X171543726Y-134446224D01*
X171446224Y-134543726D01*
X171331574Y-134620332D01*
X171204183Y-134673100D01*
X171068945Y-134700000D01*
X170931055Y-134700000D01*
X170795817Y-134673100D01*
X170668426Y-134620332D01*
X170553776Y-134543726D01*
X170456274Y-134446224D01*
X170379668Y-134331574D01*
X170326900Y-134204183D01*
X170300000Y-134068945D01*
X170300000Y-133931055D01*
X170326900Y-133795817D01*
X170379668Y-133668426D01*
X170456275Y-133553775D01*
X170553775Y-133456275D01*
X170615316Y-133415155D01*
X170668426Y-133379668D01*
X170795817Y-133326900D01*
X170931055Y-133300000D01*
X171068945Y-133300000D01*
X171204183Y-133326900D01*
X171204183Y-133326900D01*
G37*
G36*
X108204183Y-133326900D02*
X108331574Y-133379668D01*
X108384685Y-133415155D01*
X108446225Y-133456275D01*
X108543725Y-133553775D01*
X108620332Y-133668426D01*
X108673100Y-133795817D01*
X108700000Y-133931055D01*
X108700000Y-134068945D01*
X108673100Y-134204183D01*
X108620332Y-134331574D01*
X108543726Y-134446224D01*
X108446224Y-134543726D01*
X108331574Y-134620332D01*
X108204183Y-134673100D01*
X108068945Y-134700000D01*
X107931055Y-134700000D01*
X107795817Y-134673100D01*
X107668426Y-134620332D01*
X107553776Y-134543726D01*
X107456274Y-134446224D01*
X107379668Y-134331574D01*
X107326900Y-134204183D01*
X107300000Y-134068945D01*
X107300000Y-133931055D01*
X107326900Y-133795817D01*
X107379668Y-133668426D01*
X107456275Y-133553775D01*
X107553775Y-133456275D01*
X107615316Y-133415155D01*
X107668426Y-133379668D01*
X107795817Y-133326900D01*
X107931055Y-133300000D01*
X108068945Y-133300000D01*
X108204183Y-133326900D01*
X108204183Y-133326900D01*
G37*
G36*
X129204183Y-133326900D02*
X129331574Y-133379668D01*
X129384685Y-133415155D01*
X129446225Y-133456275D01*
X129543725Y-133553775D01*
X129620332Y-133668426D01*
X129673100Y-133795817D01*
X129700000Y-133931055D01*
X129700000Y-134068945D01*
X129673100Y-134204183D01*
X129620332Y-134331574D01*
X129543726Y-134446224D01*
X129446224Y-134543726D01*
X129331574Y-134620332D01*
X129204183Y-134673100D01*
X129068945Y-134700000D01*
X128931055Y-134700000D01*
X128795817Y-134673100D01*
X128668426Y-134620332D01*
X128553776Y-134543726D01*
X128456274Y-134446224D01*
X128379668Y-134331574D01*
X128326900Y-134204183D01*
X128300000Y-134068945D01*
X128300000Y-133931055D01*
X128326900Y-133795817D01*
X128379668Y-133668426D01*
X128456275Y-133553775D01*
X128553775Y-133456275D01*
X128615316Y-133415155D01*
X128668426Y-133379668D01*
X128795817Y-133326900D01*
X128931055Y-133300000D01*
X129068945Y-133300000D01*
X129204183Y-133326900D01*
X129204183Y-133326900D01*
G37*
G36*
X136757224Y-133310128D02*
X136889175Y-133350155D01*
X137010781Y-133415155D01*
X137117370Y-133502630D01*
X137204845Y-133609219D01*
X137269845Y-133730825D01*
X137309872Y-133862776D01*
X137323387Y-134000000D01*
X137309872Y-134137224D01*
X137269845Y-134269175D01*
X137204845Y-134390781D01*
X137117370Y-134497370D01*
X137010781Y-134584845D01*
X136889175Y-134649845D01*
X136757224Y-134689872D01*
X136654390Y-134700000D01*
X136585610Y-134700000D01*
X136482776Y-134689872D01*
X136350825Y-134649845D01*
X136229219Y-134584845D01*
X136122630Y-134497370D01*
X136035155Y-134390781D01*
X135970155Y-134269175D01*
X135930128Y-134137224D01*
X135916613Y-134000000D01*
X135930128Y-133862776D01*
X135970155Y-133730825D01*
X136035155Y-133609219D01*
X136122630Y-133502630D01*
X136229219Y-133415155D01*
X136350825Y-133350155D01*
X136482776Y-133310128D01*
X136585610Y-133300000D01*
X136654390Y-133300000D01*
X136757224Y-133310128D01*
X136757224Y-133310128D01*
G37*
G36*
X157757224Y-133310128D02*
X157889175Y-133350155D01*
X158010781Y-133415155D01*
X158117370Y-133502630D01*
X158204845Y-133609219D01*
X158269845Y-133730825D01*
X158309872Y-133862776D01*
X158323387Y-134000000D01*
X158309872Y-134137224D01*
X158269845Y-134269175D01*
X158204845Y-134390781D01*
X158117370Y-134497370D01*
X158010781Y-134584845D01*
X157889175Y-134649845D01*
X157757224Y-134689872D01*
X157654390Y-134700000D01*
X157585610Y-134700000D01*
X157482776Y-134689872D01*
X157350825Y-134649845D01*
X157229219Y-134584845D01*
X157122630Y-134497370D01*
X157035155Y-134390781D01*
X156970155Y-134269175D01*
X156930128Y-134137224D01*
X156916613Y-134000000D01*
X156930128Y-133862776D01*
X156970155Y-133730825D01*
X157035155Y-133609219D01*
X157122630Y-133502630D01*
X157229219Y-133415155D01*
X157350825Y-133350155D01*
X157482776Y-133310128D01*
X157585610Y-133300000D01*
X157654390Y-133300000D01*
X157757224Y-133310128D01*
X157757224Y-133310128D01*
G37*
G36*
X115757224Y-133310128D02*
X115889175Y-133350155D01*
X116010781Y-133415155D01*
X116117370Y-133502630D01*
X116204845Y-133609219D01*
X116269845Y-133730825D01*
X116309872Y-133862776D01*
X116323387Y-134000000D01*
X116309872Y-134137224D01*
X116269845Y-134269175D01*
X116204845Y-134390781D01*
X116117370Y-134497370D01*
X116010781Y-134584845D01*
X115889175Y-134649845D01*
X115757224Y-134689872D01*
X115654390Y-134700000D01*
X115585610Y-134700000D01*
X115482776Y-134689872D01*
X115350825Y-134649845D01*
X115229219Y-134584845D01*
X115122630Y-134497370D01*
X115035155Y-134390781D01*
X114970155Y-134269175D01*
X114930128Y-134137224D01*
X114916613Y-134000000D01*
X114930128Y-133862776D01*
X114970155Y-133730825D01*
X115035155Y-133609219D01*
X115122630Y-133502630D01*
X115229219Y-133415155D01*
X115350825Y-133350155D01*
X115482776Y-133310128D01*
X115585610Y-133300000D01*
X115654390Y-133300000D01*
X115757224Y-133310128D01*
X115757224Y-133310128D01*
G37*
G36*
X178757224Y-133310128D02*
X178889175Y-133350155D01*
X179010781Y-133415155D01*
X179117370Y-133502630D01*
X179204845Y-133609219D01*
X179269845Y-133730825D01*
X179309872Y-133862776D01*
X179323387Y-134000000D01*
X179309872Y-134137224D01*
X179269845Y-134269175D01*
X179204845Y-134390781D01*
X179117370Y-134497370D01*
X179010781Y-134584845D01*
X178889175Y-134649845D01*
X178757224Y-134689872D01*
X178654390Y-134700000D01*
X178585610Y-134700000D01*
X178482776Y-134689872D01*
X178350825Y-134649845D01*
X178229219Y-134584845D01*
X178122630Y-134497370D01*
X178035155Y-134390781D01*
X177970155Y-134269175D01*
X177930128Y-134137224D01*
X177916613Y-134000000D01*
X177930128Y-133862776D01*
X177970155Y-133730825D01*
X178035155Y-133609219D01*
X178122630Y-133502630D01*
X178229219Y-133415155D01*
X178350825Y-133350155D01*
X178482776Y-133310128D01*
X178585610Y-133300000D01*
X178654390Y-133300000D01*
X178757224Y-133310128D01*
X178757224Y-133310128D01*
G37*
G36*
X150204183Y-133326900D02*
X150331574Y-133379668D01*
X150384685Y-133415155D01*
X150446225Y-133456275D01*
X150543725Y-133553775D01*
X150620332Y-133668426D01*
X150673100Y-133795817D01*
X150700000Y-133931055D01*
X150700000Y-134068945D01*
X150673100Y-134204183D01*
X150620332Y-134331574D01*
X150543726Y-134446224D01*
X150446224Y-134543726D01*
X150331574Y-134620332D01*
X150204183Y-134673100D01*
X150068945Y-134700000D01*
X149931055Y-134700000D01*
X149795817Y-134673100D01*
X149668426Y-134620332D01*
X149553776Y-134543726D01*
X149456274Y-134446224D01*
X149379668Y-134331574D01*
X149326900Y-134204183D01*
X149300000Y-134068945D01*
X149300000Y-133931055D01*
X149326900Y-133795817D01*
X149379668Y-133668426D01*
X149456275Y-133553775D01*
X149553775Y-133456275D01*
X149615316Y-133415155D01*
X149668426Y-133379668D01*
X149795817Y-133326900D01*
X149931055Y-133300000D01*
X150068945Y-133300000D01*
X150204183Y-133326900D01*
X150204183Y-133326900D01*
G37*
G36*
X180043378Y-121156859D02*
X180407354Y-121307622D01*
X180734929Y-121526501D01*
X181013499Y-121805071D01*
X181232378Y-122132646D01*
X181383141Y-122496622D01*
X181460000Y-122883016D01*
X181460000Y-123276984D01*
X181383141Y-123663378D01*
X181232378Y-124027354D01*
X181013499Y-124354929D01*
X180734929Y-124633499D01*
X180407354Y-124852378D01*
X180043378Y-125003141D01*
X179656984Y-125080000D01*
X179263016Y-125080000D01*
X178876622Y-125003141D01*
X178512646Y-124852378D01*
X178185071Y-124633499D01*
X177906501Y-124354929D01*
X177687622Y-124027354D01*
X177536859Y-123663378D01*
X177460000Y-123276984D01*
X177460000Y-122883016D01*
X177536859Y-122496622D01*
X177687622Y-122132646D01*
X177906501Y-121805071D01*
X178185071Y-121526501D01*
X178512646Y-121307622D01*
X178876622Y-121156859D01*
X179263016Y-121080000D01*
X179656984Y-121080000D01*
X180043378Y-121156859D01*
X180043378Y-121156859D01*
G37*
G36*
X117043378Y-121156859D02*
X117407354Y-121307622D01*
X117734929Y-121526501D01*
X118013499Y-121805071D01*
X118232378Y-122132646D01*
X118383141Y-122496622D01*
X118460000Y-122883016D01*
X118460000Y-123276984D01*
X118383141Y-123663378D01*
X118232378Y-124027354D01*
X118013499Y-124354929D01*
X117734929Y-124633499D01*
X117407354Y-124852378D01*
X117043378Y-125003141D01*
X116656984Y-125080000D01*
X116263016Y-125080000D01*
X115876622Y-125003141D01*
X115512646Y-124852378D01*
X115185071Y-124633499D01*
X114906501Y-124354929D01*
X114687622Y-124027354D01*
X114536859Y-123663378D01*
X114460000Y-123276984D01*
X114460000Y-122883016D01*
X114536859Y-122496622D01*
X114687622Y-122132646D01*
X114906501Y-121805071D01*
X115185071Y-121526501D01*
X115512646Y-121307622D01*
X115876622Y-121156859D01*
X116263016Y-121080000D01*
X116656984Y-121080000D01*
X117043378Y-121156859D01*
X117043378Y-121156859D01*
G37*
G36*
X159043378Y-121156859D02*
X159407354Y-121307622D01*
X159734929Y-121526501D01*
X160013499Y-121805071D01*
X160232378Y-122132646D01*
X160383141Y-122496622D01*
X160460000Y-122883016D01*
X160460000Y-123276984D01*
X160383141Y-123663378D01*
X160232378Y-124027354D01*
X160013499Y-124354929D01*
X159734929Y-124633499D01*
X159407354Y-124852378D01*
X159043378Y-125003141D01*
X158656984Y-125080000D01*
X158263016Y-125080000D01*
X157876622Y-125003141D01*
X157512646Y-124852378D01*
X157185071Y-124633499D01*
X156906501Y-124354929D01*
X156687622Y-124027354D01*
X156536859Y-123663378D01*
X156460000Y-123276984D01*
X156460000Y-122883016D01*
X156536859Y-122496622D01*
X156687622Y-122132646D01*
X156906501Y-121805071D01*
X157185071Y-121526501D01*
X157512646Y-121307622D01*
X157876622Y-121156859D01*
X158263016Y-121080000D01*
X158656984Y-121080000D01*
X159043378Y-121156859D01*
X159043378Y-121156859D01*
G37*
G36*
X138043378Y-121156859D02*
X138407354Y-121307622D01*
X138734929Y-121526501D01*
X139013499Y-121805071D01*
X139232378Y-122132646D01*
X139383141Y-122496622D01*
X139460000Y-122883016D01*
X139460000Y-123276984D01*
X139383141Y-123663378D01*
X139232378Y-124027354D01*
X139013499Y-124354929D01*
X138734929Y-124633499D01*
X138407354Y-124852378D01*
X138043378Y-125003141D01*
X137656984Y-125080000D01*
X137263016Y-125080000D01*
X136876622Y-125003141D01*
X136512646Y-124852378D01*
X136185071Y-124633499D01*
X135906501Y-124354929D01*
X135687622Y-124027354D01*
X135536859Y-123663378D01*
X135460000Y-123276984D01*
X135460000Y-122883016D01*
X135536859Y-122496622D01*
X135687622Y-122132646D01*
X135906501Y-121805071D01*
X136185071Y-121526501D01*
X136512646Y-121307622D01*
X136876622Y-121156859D01*
X137263016Y-121080000D01*
X137656984Y-121080000D01*
X138043378Y-121156859D01*
X138043378Y-121156859D01*
G37*
G36*
X163787934Y-122262664D02*
X163942627Y-122326740D01*
X164081847Y-122419764D01*
X164200236Y-122538153D01*
X164293260Y-122677373D01*
X164357336Y-122832066D01*
X164390000Y-122996281D01*
X164390000Y-123163719D01*
X164357336Y-123327934D01*
X164293260Y-123482627D01*
X164200236Y-123621847D01*
X164081847Y-123740236D01*
X163942627Y-123833260D01*
X163787934Y-123897336D01*
X163623719Y-123930000D01*
X163456281Y-123930000D01*
X163292066Y-123897336D01*
X163137373Y-123833260D01*
X162998153Y-123740236D01*
X162879764Y-123621847D01*
X162786740Y-123482627D01*
X162722664Y-123327934D01*
X162690000Y-123163719D01*
X162690000Y-122996281D01*
X162722664Y-122832066D01*
X162786740Y-122677373D01*
X162879764Y-122538153D01*
X162998153Y-122419764D01*
X163137373Y-122326740D01*
X163292066Y-122262664D01*
X163456281Y-122230000D01*
X163623719Y-122230000D01*
X163787934Y-122262664D01*
X163787934Y-122262664D01*
G37*
G36*
X184787934Y-122262664D02*
X184942627Y-122326740D01*
X185081847Y-122419764D01*
X185200236Y-122538153D01*
X185293260Y-122677373D01*
X185357336Y-122832066D01*
X185390000Y-122996281D01*
X185390000Y-123163719D01*
X185357336Y-123327934D01*
X185293260Y-123482627D01*
X185200236Y-123621847D01*
X185081847Y-123740236D01*
X184942627Y-123833260D01*
X184787934Y-123897336D01*
X184623719Y-123930000D01*
X184456281Y-123930000D01*
X184292066Y-123897336D01*
X184137373Y-123833260D01*
X183998153Y-123740236D01*
X183879764Y-123621847D01*
X183786740Y-123482627D01*
X183722664Y-123327934D01*
X183690000Y-123163719D01*
X183690000Y-122996281D01*
X183722664Y-122832066D01*
X183786740Y-122677373D01*
X183879764Y-122538153D01*
X183998153Y-122419764D01*
X184137373Y-122326740D01*
X184292066Y-122262664D01*
X184456281Y-122230000D01*
X184623719Y-122230000D01*
X184787934Y-122262664D01*
X184787934Y-122262664D01*
G37*
G36*
X121787934Y-122262664D02*
X121942627Y-122326740D01*
X122081847Y-122419764D01*
X122200236Y-122538153D01*
X122293260Y-122677373D01*
X122357336Y-122832066D01*
X122390000Y-122996281D01*
X122390000Y-123163719D01*
X122357336Y-123327934D01*
X122293260Y-123482627D01*
X122200236Y-123621847D01*
X122081847Y-123740236D01*
X121942627Y-123833260D01*
X121787934Y-123897336D01*
X121623719Y-123930000D01*
X121456281Y-123930000D01*
X121292066Y-123897336D01*
X121137373Y-123833260D01*
X120998153Y-123740236D01*
X120879764Y-123621847D01*
X120786740Y-123482627D01*
X120722664Y-123327934D01*
X120690000Y-123163719D01*
X120690000Y-122996281D01*
X120722664Y-122832066D01*
X120786740Y-122677373D01*
X120879764Y-122538153D01*
X120998153Y-122419764D01*
X121137373Y-122326740D01*
X121292066Y-122262664D01*
X121456281Y-122230000D01*
X121623719Y-122230000D01*
X121787934Y-122262664D01*
X121787934Y-122262664D01*
G37*
G36*
X111627934Y-122262664D02*
X111782627Y-122326740D01*
X111921847Y-122419764D01*
X112040236Y-122538153D01*
X112133260Y-122677373D01*
X112197336Y-122832066D01*
X112230000Y-122996281D01*
X112230000Y-123163719D01*
X112197336Y-123327934D01*
X112133260Y-123482627D01*
X112040236Y-123621847D01*
X111921847Y-123740236D01*
X111782627Y-123833260D01*
X111627934Y-123897336D01*
X111463719Y-123930000D01*
X111296281Y-123930000D01*
X111132066Y-123897336D01*
X110977373Y-123833260D01*
X110838153Y-123740236D01*
X110719764Y-123621847D01*
X110626740Y-123482627D01*
X110562664Y-123327934D01*
X110530000Y-123163719D01*
X110530000Y-122996281D01*
X110562664Y-122832066D01*
X110626740Y-122677373D01*
X110719764Y-122538153D01*
X110838153Y-122419764D01*
X110977373Y-122326740D01*
X111132066Y-122262664D01*
X111296281Y-122230000D01*
X111463719Y-122230000D01*
X111627934Y-122262664D01*
X111627934Y-122262664D01*
G37*
G36*
X153627934Y-122262664D02*
X153782627Y-122326740D01*
X153921847Y-122419764D01*
X154040236Y-122538153D01*
X154133260Y-122677373D01*
X154197336Y-122832066D01*
X154230000Y-122996281D01*
X154230000Y-123163719D01*
X154197336Y-123327934D01*
X154133260Y-123482627D01*
X154040236Y-123621847D01*
X153921847Y-123740236D01*
X153782627Y-123833260D01*
X153627934Y-123897336D01*
X153463719Y-123930000D01*
X153296281Y-123930000D01*
X153132066Y-123897336D01*
X152977373Y-123833260D01*
X152838153Y-123740236D01*
X152719764Y-123621847D01*
X152626740Y-123482627D01*
X152562664Y-123327934D01*
X152530000Y-123163719D01*
X152530000Y-122996281D01*
X152562664Y-122832066D01*
X152626740Y-122677373D01*
X152719764Y-122538153D01*
X152838153Y-122419764D01*
X152977373Y-122326740D01*
X153132066Y-122262664D01*
X153296281Y-122230000D01*
X153463719Y-122230000D01*
X153627934Y-122262664D01*
X153627934Y-122262664D01*
G37*
G36*
X142787934Y-122262664D02*
X142942627Y-122326740D01*
X143081847Y-122419764D01*
X143200236Y-122538153D01*
X143293260Y-122677373D01*
X143357336Y-122832066D01*
X143390000Y-122996281D01*
X143390000Y-123163719D01*
X143357336Y-123327934D01*
X143293260Y-123482627D01*
X143200236Y-123621847D01*
X143081847Y-123740236D01*
X142942627Y-123833260D01*
X142787934Y-123897336D01*
X142623719Y-123930000D01*
X142456281Y-123930000D01*
X142292066Y-123897336D01*
X142137373Y-123833260D01*
X141998153Y-123740236D01*
X141879764Y-123621847D01*
X141786740Y-123482627D01*
X141722664Y-123327934D01*
X141690000Y-123163719D01*
X141690000Y-122996281D01*
X141722664Y-122832066D01*
X141786740Y-122677373D01*
X141879764Y-122538153D01*
X141998153Y-122419764D01*
X142137373Y-122326740D01*
X142292066Y-122262664D01*
X142456281Y-122230000D01*
X142623719Y-122230000D01*
X142787934Y-122262664D01*
X142787934Y-122262664D01*
G37*
G36*
X132627934Y-122262664D02*
X132782627Y-122326740D01*
X132921847Y-122419764D01*
X133040236Y-122538153D01*
X133133260Y-122677373D01*
X133197336Y-122832066D01*
X133230000Y-122996281D01*
X133230000Y-123163719D01*
X133197336Y-123327934D01*
X133133260Y-123482627D01*
X133040236Y-123621847D01*
X132921847Y-123740236D01*
X132782627Y-123833260D01*
X132627934Y-123897336D01*
X132463719Y-123930000D01*
X132296281Y-123930000D01*
X132132066Y-123897336D01*
X131977373Y-123833260D01*
X131838153Y-123740236D01*
X131719764Y-123621847D01*
X131626740Y-123482627D01*
X131562664Y-123327934D01*
X131530000Y-123163719D01*
X131530000Y-122996281D01*
X131562664Y-122832066D01*
X131626740Y-122677373D01*
X131719764Y-122538153D01*
X131838153Y-122419764D01*
X131977373Y-122326740D01*
X132132066Y-122262664D01*
X132296281Y-122230000D01*
X132463719Y-122230000D01*
X132627934Y-122262664D01*
X132627934Y-122262664D01*
G37*
G36*
X174627934Y-122262664D02*
X174782627Y-122326740D01*
X174921847Y-122419764D01*
X175040236Y-122538153D01*
X175133260Y-122677373D01*
X175197336Y-122832066D01*
X175230000Y-122996281D01*
X175230000Y-123163719D01*
X175197336Y-123327934D01*
X175133260Y-123482627D01*
X175040236Y-123621847D01*
X174921847Y-123740236D01*
X174782627Y-123833260D01*
X174627934Y-123897336D01*
X174463719Y-123930000D01*
X174296281Y-123930000D01*
X174132066Y-123897336D01*
X173977373Y-123833260D01*
X173838153Y-123740236D01*
X173719764Y-123621847D01*
X173626740Y-123482627D01*
X173562664Y-123327934D01*
X173530000Y-123163719D01*
X173530000Y-122996281D01*
X173562664Y-122832066D01*
X173626740Y-122677373D01*
X173719764Y-122538153D01*
X173838153Y-122419764D01*
X173977373Y-122326740D01*
X174132066Y-122262664D01*
X174296281Y-122230000D01*
X174463719Y-122230000D01*
X174627934Y-122262664D01*
X174627934Y-122262664D01*
G37*
G36*
X154970857Y-119482272D02*
X155171042Y-119565191D01*
X155351213Y-119685578D01*
X155504422Y-119838787D01*
X155624809Y-120018958D01*
X155707728Y-120219143D01*
X155750000Y-120431658D01*
X155750000Y-120648342D01*
X155707728Y-120860857D01*
X155624809Y-121061042D01*
X155504422Y-121241213D01*
X155351213Y-121394422D01*
X155171042Y-121514809D01*
X154970857Y-121597728D01*
X154758342Y-121640000D01*
X154541658Y-121640000D01*
X154329143Y-121597728D01*
X154128958Y-121514809D01*
X153948787Y-121394422D01*
X153795578Y-121241213D01*
X153675191Y-121061042D01*
X153592272Y-120860857D01*
X153550000Y-120648342D01*
X153550000Y-120431658D01*
X153592272Y-120219143D01*
X153675191Y-120018958D01*
X153795578Y-119838787D01*
X153948787Y-119685578D01*
X154128958Y-119565191D01*
X154329143Y-119482272D01*
X154541658Y-119440000D01*
X154758342Y-119440000D01*
X154970857Y-119482272D01*
X154970857Y-119482272D01*
G37*
G36*
X175970857Y-119482272D02*
X176171042Y-119565191D01*
X176351213Y-119685578D01*
X176504422Y-119838787D01*
X176624809Y-120018958D01*
X176707728Y-120219143D01*
X176750000Y-120431658D01*
X176750000Y-120648342D01*
X176707728Y-120860857D01*
X176624809Y-121061042D01*
X176504422Y-121241213D01*
X176351213Y-121394422D01*
X176171042Y-121514809D01*
X175970857Y-121597728D01*
X175758342Y-121640000D01*
X175541658Y-121640000D01*
X175329143Y-121597728D01*
X175128958Y-121514809D01*
X174948787Y-121394422D01*
X174795578Y-121241213D01*
X174675191Y-121061042D01*
X174592272Y-120860857D01*
X174550000Y-120648342D01*
X174550000Y-120431658D01*
X174592272Y-120219143D01*
X174675191Y-120018958D01*
X174795578Y-119838787D01*
X174948787Y-119685578D01*
X175128958Y-119565191D01*
X175329143Y-119482272D01*
X175541658Y-119440000D01*
X175758342Y-119440000D01*
X175970857Y-119482272D01*
X175970857Y-119482272D01*
G37*
G36*
X112970857Y-119482272D02*
X113171042Y-119565191D01*
X113351213Y-119685578D01*
X113504422Y-119838787D01*
X113624809Y-120018958D01*
X113707728Y-120219143D01*
X113750000Y-120431658D01*
X113750000Y-120648342D01*
X113707728Y-120860857D01*
X113624809Y-121061042D01*
X113504422Y-121241213D01*
X113351213Y-121394422D01*
X113171042Y-121514809D01*
X112970857Y-121597728D01*
X112758342Y-121640000D01*
X112541658Y-121640000D01*
X112329143Y-121597728D01*
X112128958Y-121514809D01*
X111948787Y-121394422D01*
X111795578Y-121241213D01*
X111675191Y-121061042D01*
X111592272Y-120860857D01*
X111550000Y-120648342D01*
X111550000Y-120431658D01*
X111592272Y-120219143D01*
X111675191Y-120018958D01*
X111795578Y-119838787D01*
X111948787Y-119685578D01*
X112128958Y-119565191D01*
X112329143Y-119482272D01*
X112541658Y-119440000D01*
X112758342Y-119440000D01*
X112970857Y-119482272D01*
X112970857Y-119482272D01*
G37*
G36*
X133970857Y-119482272D02*
X134171042Y-119565191D01*
X134351213Y-119685578D01*
X134504422Y-119838787D01*
X134624809Y-120018958D01*
X134707728Y-120219143D01*
X134750000Y-120431658D01*
X134750000Y-120648342D01*
X134707728Y-120860857D01*
X134624809Y-121061042D01*
X134504422Y-121241213D01*
X134351213Y-121394422D01*
X134171042Y-121514809D01*
X133970857Y-121597728D01*
X133758342Y-121640000D01*
X133541658Y-121640000D01*
X133329143Y-121597728D01*
X133128958Y-121514809D01*
X132948787Y-121394422D01*
X132795578Y-121241213D01*
X132675191Y-121061042D01*
X132592272Y-120860857D01*
X132550000Y-120648342D01*
X132550000Y-120431658D01*
X132592272Y-120219143D01*
X132675191Y-120018958D01*
X132795578Y-119838787D01*
X132948787Y-119685578D01*
X133128958Y-119565191D01*
X133329143Y-119482272D01*
X133541658Y-119440000D01*
X133758342Y-119440000D01*
X133970857Y-119482272D01*
X133970857Y-119482272D01*
G37*
G36*
X161320857Y-116942272D02*
X161521042Y-117025191D01*
X161701213Y-117145578D01*
X161854422Y-117298787D01*
X161974809Y-117478958D01*
X162057728Y-117679143D01*
X162100000Y-117891658D01*
X162100000Y-118108342D01*
X162057728Y-118320857D01*
X161974809Y-118521042D01*
X161854422Y-118701213D01*
X161701213Y-118854422D01*
X161521042Y-118974809D01*
X161320857Y-119057728D01*
X161108342Y-119100000D01*
X160891658Y-119100000D01*
X160679143Y-119057728D01*
X160478958Y-118974809D01*
X160298787Y-118854422D01*
X160145578Y-118701213D01*
X160025191Y-118521042D01*
X159942272Y-118320857D01*
X159900000Y-118108342D01*
X159900000Y-117891658D01*
X159942272Y-117679143D01*
X160025191Y-117478958D01*
X160145578Y-117298787D01*
X160298787Y-117145578D01*
X160478958Y-117025191D01*
X160679143Y-116942272D01*
X160891658Y-116900000D01*
X161108342Y-116900000D01*
X161320857Y-116942272D01*
X161320857Y-116942272D01*
G37*
G36*
X182320857Y-116942272D02*
X182521042Y-117025191D01*
X182701213Y-117145578D01*
X182854422Y-117298787D01*
X182974809Y-117478958D01*
X183057728Y-117679143D01*
X183100000Y-117891658D01*
X183100000Y-118108342D01*
X183057728Y-118320857D01*
X182974809Y-118521042D01*
X182854422Y-118701213D01*
X182701213Y-118854422D01*
X182521042Y-118974809D01*
X182320857Y-119057728D01*
X182108342Y-119100000D01*
X181891658Y-119100000D01*
X181679143Y-119057728D01*
X181478958Y-118974809D01*
X181298787Y-118854422D01*
X181145578Y-118701213D01*
X181025191Y-118521042D01*
X180942272Y-118320857D01*
X180900000Y-118108342D01*
X180900000Y-117891658D01*
X180942272Y-117679143D01*
X181025191Y-117478958D01*
X181145578Y-117298787D01*
X181298787Y-117145578D01*
X181478958Y-117025191D01*
X181679143Y-116942272D01*
X181891658Y-116900000D01*
X182108342Y-116900000D01*
X182320857Y-116942272D01*
X182320857Y-116942272D01*
G37*
G36*
X119320857Y-116942272D02*
X119521042Y-117025191D01*
X119701213Y-117145578D01*
X119854422Y-117298787D01*
X119974809Y-117478958D01*
X120057728Y-117679143D01*
X120100000Y-117891658D01*
X120100000Y-118108342D01*
X120057728Y-118320857D01*
X119974809Y-118521042D01*
X119854422Y-118701213D01*
X119701213Y-118854422D01*
X119521042Y-118974809D01*
X119320857Y-119057728D01*
X119108342Y-119100000D01*
X118891658Y-119100000D01*
X118679143Y-119057728D01*
X118478958Y-118974809D01*
X118298787Y-118854422D01*
X118145578Y-118701213D01*
X118025191Y-118521042D01*
X117942272Y-118320857D01*
X117900000Y-118108342D01*
X117900000Y-117891658D01*
X117942272Y-117679143D01*
X118025191Y-117478958D01*
X118145578Y-117298787D01*
X118298787Y-117145578D01*
X118478958Y-117025191D01*
X118679143Y-116942272D01*
X118891658Y-116900000D01*
X119108342Y-116900000D01*
X119320857Y-116942272D01*
X119320857Y-116942272D01*
G37*
G36*
X140320857Y-116942272D02*
X140521042Y-117025191D01*
X140701213Y-117145578D01*
X140854422Y-117298787D01*
X140974809Y-117478958D01*
X141057728Y-117679143D01*
X141100000Y-117891658D01*
X141100000Y-118108342D01*
X141057728Y-118320857D01*
X140974809Y-118521042D01*
X140854422Y-118701213D01*
X140701213Y-118854422D01*
X140521042Y-118974809D01*
X140320857Y-119057728D01*
X140108342Y-119100000D01*
X139891658Y-119100000D01*
X139679143Y-119057728D01*
X139478958Y-118974809D01*
X139298787Y-118854422D01*
X139145578Y-118701213D01*
X139025191Y-118521042D01*
X138942272Y-118320857D01*
X138900000Y-118108342D01*
X138900000Y-117891658D01*
X138942272Y-117679143D01*
X139025191Y-117478958D01*
X139145578Y-117298787D01*
X139298787Y-117145578D01*
X139478958Y-117025191D01*
X139679143Y-116942272D01*
X139891658Y-116900000D01*
X140108342Y-116900000D01*
X140320857Y-116942272D01*
X140320857Y-116942272D01*
G37*
G36*
X178757224Y-112310128D02*
X178889175Y-112350155D01*
X179010781Y-112415155D01*
X179117370Y-112502630D01*
X179204845Y-112609219D01*
X179269845Y-112730825D01*
X179309872Y-112862776D01*
X179323387Y-113000000D01*
X179309872Y-113137224D01*
X179269845Y-113269175D01*
X179204845Y-113390781D01*
X179117370Y-113497370D01*
X179010781Y-113584845D01*
X178889175Y-113649845D01*
X178757224Y-113689872D01*
X178654390Y-113700000D01*
X178585610Y-113700000D01*
X178482776Y-113689872D01*
X178350825Y-113649845D01*
X178229219Y-113584845D01*
X178122630Y-113497370D01*
X178035155Y-113390781D01*
X177970155Y-113269175D01*
X177930128Y-113137224D01*
X177916613Y-113000000D01*
X177930128Y-112862776D01*
X177970155Y-112730825D01*
X178035155Y-112609219D01*
X178122630Y-112502630D01*
X178229219Y-112415155D01*
X178350825Y-112350155D01*
X178482776Y-112310128D01*
X178585610Y-112300000D01*
X178654390Y-112300000D01*
X178757224Y-112310128D01*
X178757224Y-112310128D01*
G37*
G36*
X171204183Y-112326900D02*
X171331574Y-112379668D01*
X171384685Y-112415155D01*
X171446225Y-112456275D01*
X171543725Y-112553775D01*
X171620332Y-112668426D01*
X171673100Y-112795817D01*
X171700000Y-112931055D01*
X171700000Y-113068945D01*
X171673100Y-113204183D01*
X171620332Y-113331574D01*
X171543726Y-113446224D01*
X171446224Y-113543726D01*
X171331574Y-113620332D01*
X171204183Y-113673100D01*
X171068945Y-113700000D01*
X170931055Y-113700000D01*
X170795817Y-113673100D01*
X170668426Y-113620332D01*
X170553776Y-113543726D01*
X170456274Y-113446224D01*
X170379668Y-113331574D01*
X170326900Y-113204183D01*
X170300000Y-113068945D01*
X170300000Y-112931055D01*
X170326900Y-112795817D01*
X170379668Y-112668426D01*
X170456275Y-112553775D01*
X170553775Y-112456275D01*
X170615316Y-112415155D01*
X170668426Y-112379668D01*
X170795817Y-112326900D01*
X170931055Y-112300000D01*
X171068945Y-112300000D01*
X171204183Y-112326900D01*
X171204183Y-112326900D01*
G37*
G36*
X157757224Y-112310128D02*
X157889175Y-112350155D01*
X158010781Y-112415155D01*
X158117370Y-112502630D01*
X158204845Y-112609219D01*
X158269845Y-112730825D01*
X158309872Y-112862776D01*
X158323387Y-113000000D01*
X158309872Y-113137224D01*
X158269845Y-113269175D01*
X158204845Y-113390781D01*
X158117370Y-113497370D01*
X158010781Y-113584845D01*
X157889175Y-113649845D01*
X157757224Y-113689872D01*
X157654390Y-113700000D01*
X157585610Y-113700000D01*
X157482776Y-113689872D01*
X157350825Y-113649845D01*
X157229219Y-113584845D01*
X157122630Y-113497370D01*
X157035155Y-113390781D01*
X156970155Y-113269175D01*
X156930128Y-113137224D01*
X156916613Y-113000000D01*
X156930128Y-112862776D01*
X156970155Y-112730825D01*
X157035155Y-112609219D01*
X157122630Y-112502630D01*
X157229219Y-112415155D01*
X157350825Y-112350155D01*
X157482776Y-112310128D01*
X157585610Y-112300000D01*
X157654390Y-112300000D01*
X157757224Y-112310128D01*
X157757224Y-112310128D01*
G37*
G36*
X150204183Y-112326900D02*
X150331574Y-112379668D01*
X150384685Y-112415155D01*
X150446225Y-112456275D01*
X150543725Y-112553775D01*
X150620332Y-112668426D01*
X150673100Y-112795817D01*
X150700000Y-112931055D01*
X150700000Y-113068945D01*
X150673100Y-113204183D01*
X150620332Y-113331574D01*
X150543726Y-113446224D01*
X150446224Y-113543726D01*
X150331574Y-113620332D01*
X150204183Y-113673100D01*
X150068945Y-113700000D01*
X149931055Y-113700000D01*
X149795817Y-113673100D01*
X149668426Y-113620332D01*
X149553776Y-113543726D01*
X149456274Y-113446224D01*
X149379668Y-113331574D01*
X149326900Y-113204183D01*
X149300000Y-113068945D01*
X149300000Y-112931055D01*
X149326900Y-112795817D01*
X149379668Y-112668426D01*
X149456275Y-112553775D01*
X149553775Y-112456275D01*
X149615316Y-112415155D01*
X149668426Y-112379668D01*
X149795817Y-112326900D01*
X149931055Y-112300000D01*
X150068945Y-112300000D01*
X150204183Y-112326900D01*
X150204183Y-112326900D01*
G37*
G36*
X136757224Y-112310128D02*
X136889175Y-112350155D01*
X137010781Y-112415155D01*
X137117370Y-112502630D01*
X137204845Y-112609219D01*
X137269845Y-112730825D01*
X137309872Y-112862776D01*
X137323387Y-113000000D01*
X137309872Y-113137224D01*
X137269845Y-113269175D01*
X137204845Y-113390781D01*
X137117370Y-113497370D01*
X137010781Y-113584845D01*
X136889175Y-113649845D01*
X136757224Y-113689872D01*
X136654390Y-113700000D01*
X136585610Y-113700000D01*
X136482776Y-113689872D01*
X136350825Y-113649845D01*
X136229219Y-113584845D01*
X136122630Y-113497370D01*
X136035155Y-113390781D01*
X135970155Y-113269175D01*
X135930128Y-113137224D01*
X135916613Y-113000000D01*
X135930128Y-112862776D01*
X135970155Y-112730825D01*
X136035155Y-112609219D01*
X136122630Y-112502630D01*
X136229219Y-112415155D01*
X136350825Y-112350155D01*
X136482776Y-112310128D01*
X136585610Y-112300000D01*
X136654390Y-112300000D01*
X136757224Y-112310128D01*
X136757224Y-112310128D01*
G37*
G36*
X129204183Y-112326900D02*
X129331574Y-112379668D01*
X129384685Y-112415155D01*
X129446225Y-112456275D01*
X129543725Y-112553775D01*
X129620332Y-112668426D01*
X129673100Y-112795817D01*
X129700000Y-112931055D01*
X129700000Y-113068945D01*
X129673100Y-113204183D01*
X129620332Y-113331574D01*
X129543726Y-113446224D01*
X129446224Y-113543726D01*
X129331574Y-113620332D01*
X129204183Y-113673100D01*
X129068945Y-113700000D01*
X128931055Y-113700000D01*
X128795817Y-113673100D01*
X128668426Y-113620332D01*
X128553776Y-113543726D01*
X128456274Y-113446224D01*
X128379668Y-113331574D01*
X128326900Y-113204183D01*
X128300000Y-113068945D01*
X128300000Y-112931055D01*
X128326900Y-112795817D01*
X128379668Y-112668426D01*
X128456275Y-112553775D01*
X128553775Y-112456275D01*
X128615316Y-112415155D01*
X128668426Y-112379668D01*
X128795817Y-112326900D01*
X128931055Y-112300000D01*
X129068945Y-112300000D01*
X129204183Y-112326900D01*
X129204183Y-112326900D01*
G37*
G36*
X115757224Y-112310128D02*
X115889175Y-112350155D01*
X116010781Y-112415155D01*
X116117370Y-112502630D01*
X116204845Y-112609219D01*
X116269845Y-112730825D01*
X116309872Y-112862776D01*
X116323387Y-113000000D01*
X116309872Y-113137224D01*
X116269845Y-113269175D01*
X116204845Y-113390781D01*
X116117370Y-113497370D01*
X116010781Y-113584845D01*
X115889175Y-113649845D01*
X115757224Y-113689872D01*
X115654390Y-113700000D01*
X115585610Y-113700000D01*
X115482776Y-113689872D01*
X115350825Y-113649845D01*
X115229219Y-113584845D01*
X115122630Y-113497370D01*
X115035155Y-113390781D01*
X114970155Y-113269175D01*
X114930128Y-113137224D01*
X114916613Y-113000000D01*
X114930128Y-112862776D01*
X114970155Y-112730825D01*
X115035155Y-112609219D01*
X115122630Y-112502630D01*
X115229219Y-112415155D01*
X115350825Y-112350155D01*
X115482776Y-112310128D01*
X115585610Y-112300000D01*
X115654390Y-112300000D01*
X115757224Y-112310128D01*
X115757224Y-112310128D01*
G37*
G36*
X108204183Y-112326900D02*
X108331574Y-112379668D01*
X108384685Y-112415155D01*
X108446225Y-112456275D01*
X108543725Y-112553775D01*
X108620332Y-112668426D01*
X108673100Y-112795817D01*
X108700000Y-112931055D01*
X108700000Y-113068945D01*
X108673100Y-113204183D01*
X108620332Y-113331574D01*
X108543726Y-113446224D01*
X108446224Y-113543726D01*
X108331574Y-113620332D01*
X108204183Y-113673100D01*
X108068945Y-113700000D01*
X107931055Y-113700000D01*
X107795817Y-113673100D01*
X107668426Y-113620332D01*
X107553776Y-113543726D01*
X107456274Y-113446224D01*
X107379668Y-113331574D01*
X107326900Y-113204183D01*
X107300000Y-113068945D01*
X107300000Y-112931055D01*
X107326900Y-112795817D01*
X107379668Y-112668426D01*
X107456275Y-112553775D01*
X107553775Y-112456275D01*
X107615316Y-112415155D01*
X107668426Y-112379668D01*
X107795817Y-112326900D01*
X107931055Y-112300000D01*
X108068945Y-112300000D01*
X108204183Y-112326900D01*
X108204183Y-112326900D01*
G37*
G36*
X138043378Y-100156859D02*
X138407354Y-100307622D01*
X138734929Y-100526501D01*
X139013499Y-100805071D01*
X139232378Y-101132646D01*
X139383141Y-101496622D01*
X139460000Y-101883016D01*
X139460000Y-102276984D01*
X139383141Y-102663378D01*
X139232378Y-103027354D01*
X139013499Y-103354929D01*
X138734929Y-103633499D01*
X138407354Y-103852378D01*
X138043378Y-104003141D01*
X137656984Y-104080000D01*
X137263016Y-104080000D01*
X136876622Y-104003141D01*
X136512646Y-103852378D01*
X136185071Y-103633499D01*
X135906501Y-103354929D01*
X135687622Y-103027354D01*
X135536859Y-102663378D01*
X135460000Y-102276984D01*
X135460000Y-101883016D01*
X135536859Y-101496622D01*
X135687622Y-101132646D01*
X135906501Y-100805071D01*
X136185071Y-100526501D01*
X136512646Y-100307622D01*
X136876622Y-100156859D01*
X137263016Y-100080000D01*
X137656984Y-100080000D01*
X138043378Y-100156859D01*
X138043378Y-100156859D01*
G37*
G36*
X117043378Y-100156859D02*
X117407354Y-100307622D01*
X117734929Y-100526501D01*
X118013499Y-100805071D01*
X118232378Y-101132646D01*
X118383141Y-101496622D01*
X118460000Y-101883016D01*
X118460000Y-102276984D01*
X118383141Y-102663378D01*
X118232378Y-103027354D01*
X118013499Y-103354929D01*
X117734929Y-103633499D01*
X117407354Y-103852378D01*
X117043378Y-104003141D01*
X116656984Y-104080000D01*
X116263016Y-104080000D01*
X115876622Y-104003141D01*
X115512646Y-103852378D01*
X115185071Y-103633499D01*
X114906501Y-103354929D01*
X114687622Y-103027354D01*
X114536859Y-102663378D01*
X114460000Y-102276984D01*
X114460000Y-101883016D01*
X114536859Y-101496622D01*
X114687622Y-101132646D01*
X114906501Y-100805071D01*
X115185071Y-100526501D01*
X115512646Y-100307622D01*
X115876622Y-100156859D01*
X116263016Y-100080000D01*
X116656984Y-100080000D01*
X117043378Y-100156859D01*
X117043378Y-100156859D01*
G37*
G36*
X159043378Y-100156859D02*
X159407354Y-100307622D01*
X159734929Y-100526501D01*
X160013499Y-100805071D01*
X160232378Y-101132646D01*
X160383141Y-101496622D01*
X160460000Y-101883016D01*
X160460000Y-102276984D01*
X160383141Y-102663378D01*
X160232378Y-103027354D01*
X160013499Y-103354929D01*
X159734929Y-103633499D01*
X159407354Y-103852378D01*
X159043378Y-104003141D01*
X158656984Y-104080000D01*
X158263016Y-104080000D01*
X157876622Y-104003141D01*
X157512646Y-103852378D01*
X157185071Y-103633499D01*
X156906501Y-103354929D01*
X156687622Y-103027354D01*
X156536859Y-102663378D01*
X156460000Y-102276984D01*
X156460000Y-101883016D01*
X156536859Y-101496622D01*
X156687622Y-101132646D01*
X156906501Y-100805071D01*
X157185071Y-100526501D01*
X157512646Y-100307622D01*
X157876622Y-100156859D01*
X158263016Y-100080000D01*
X158656984Y-100080000D01*
X159043378Y-100156859D01*
X159043378Y-100156859D01*
G37*
G36*
X180043378Y-100156859D02*
X180407354Y-100307622D01*
X180734929Y-100526501D01*
X181013499Y-100805071D01*
X181232378Y-101132646D01*
X181383141Y-101496622D01*
X181460000Y-101883016D01*
X181460000Y-102276984D01*
X181383141Y-102663378D01*
X181232378Y-103027354D01*
X181013499Y-103354929D01*
X180734929Y-103633499D01*
X180407354Y-103852378D01*
X180043378Y-104003141D01*
X179656984Y-104080000D01*
X179263016Y-104080000D01*
X178876622Y-104003141D01*
X178512646Y-103852378D01*
X178185071Y-103633499D01*
X177906501Y-103354929D01*
X177687622Y-103027354D01*
X177536859Y-102663378D01*
X177460000Y-102276984D01*
X177460000Y-101883016D01*
X177536859Y-101496622D01*
X177687622Y-101132646D01*
X177906501Y-100805071D01*
X178185071Y-100526501D01*
X178512646Y-100307622D01*
X178876622Y-100156859D01*
X179263016Y-100080000D01*
X179656984Y-100080000D01*
X180043378Y-100156859D01*
X180043378Y-100156859D01*
G37*
G36*
X132627934Y-101262664D02*
X132782627Y-101326740D01*
X132921847Y-101419764D01*
X133040236Y-101538153D01*
X133133260Y-101677373D01*
X133197336Y-101832066D01*
X133230000Y-101996281D01*
X133230000Y-102163719D01*
X133197336Y-102327934D01*
X133133260Y-102482627D01*
X133040236Y-102621847D01*
X132921847Y-102740236D01*
X132782627Y-102833260D01*
X132627934Y-102897336D01*
X132463719Y-102930000D01*
X132296281Y-102930000D01*
X132132066Y-102897336D01*
X131977373Y-102833260D01*
X131838153Y-102740236D01*
X131719764Y-102621847D01*
X131626740Y-102482627D01*
X131562664Y-102327934D01*
X131530000Y-102163719D01*
X131530000Y-101996281D01*
X131562664Y-101832066D01*
X131626740Y-101677373D01*
X131719764Y-101538153D01*
X131838153Y-101419764D01*
X131977373Y-101326740D01*
X132132066Y-101262664D01*
X132296281Y-101230000D01*
X132463719Y-101230000D01*
X132627934Y-101262664D01*
X132627934Y-101262664D01*
G37*
G36*
X111627934Y-101262664D02*
X111782627Y-101326740D01*
X111921847Y-101419764D01*
X112040236Y-101538153D01*
X112133260Y-101677373D01*
X112197336Y-101832066D01*
X112230000Y-101996281D01*
X112230000Y-102163719D01*
X112197336Y-102327934D01*
X112133260Y-102482627D01*
X112040236Y-102621847D01*
X111921847Y-102740236D01*
X111782627Y-102833260D01*
X111627934Y-102897336D01*
X111463719Y-102930000D01*
X111296281Y-102930000D01*
X111132066Y-102897336D01*
X110977373Y-102833260D01*
X110838153Y-102740236D01*
X110719764Y-102621847D01*
X110626740Y-102482627D01*
X110562664Y-102327934D01*
X110530000Y-102163719D01*
X110530000Y-101996281D01*
X110562664Y-101832066D01*
X110626740Y-101677373D01*
X110719764Y-101538153D01*
X110838153Y-101419764D01*
X110977373Y-101326740D01*
X111132066Y-101262664D01*
X111296281Y-101230000D01*
X111463719Y-101230000D01*
X111627934Y-101262664D01*
X111627934Y-101262664D01*
G37*
G36*
X121787934Y-101262664D02*
X121942627Y-101326740D01*
X122081847Y-101419764D01*
X122200236Y-101538153D01*
X122293260Y-101677373D01*
X122357336Y-101832066D01*
X122390000Y-101996281D01*
X122390000Y-102163719D01*
X122357336Y-102327934D01*
X122293260Y-102482627D01*
X122200236Y-102621847D01*
X122081847Y-102740236D01*
X121942627Y-102833260D01*
X121787934Y-102897336D01*
X121623719Y-102930000D01*
X121456281Y-102930000D01*
X121292066Y-102897336D01*
X121137373Y-102833260D01*
X120998153Y-102740236D01*
X120879764Y-102621847D01*
X120786740Y-102482627D01*
X120722664Y-102327934D01*
X120690000Y-102163719D01*
X120690000Y-101996281D01*
X120722664Y-101832066D01*
X120786740Y-101677373D01*
X120879764Y-101538153D01*
X120998153Y-101419764D01*
X121137373Y-101326740D01*
X121292066Y-101262664D01*
X121456281Y-101230000D01*
X121623719Y-101230000D01*
X121787934Y-101262664D01*
X121787934Y-101262664D01*
G37*
G36*
X142787934Y-101262664D02*
X142942627Y-101326740D01*
X143081847Y-101419764D01*
X143200236Y-101538153D01*
X143293260Y-101677373D01*
X143357336Y-101832066D01*
X143390000Y-101996281D01*
X143390000Y-102163719D01*
X143357336Y-102327934D01*
X143293260Y-102482627D01*
X143200236Y-102621847D01*
X143081847Y-102740236D01*
X142942627Y-102833260D01*
X142787934Y-102897336D01*
X142623719Y-102930000D01*
X142456281Y-102930000D01*
X142292066Y-102897336D01*
X142137373Y-102833260D01*
X141998153Y-102740236D01*
X141879764Y-102621847D01*
X141786740Y-102482627D01*
X141722664Y-102327934D01*
X141690000Y-102163719D01*
X141690000Y-101996281D01*
X141722664Y-101832066D01*
X141786740Y-101677373D01*
X141879764Y-101538153D01*
X141998153Y-101419764D01*
X142137373Y-101326740D01*
X142292066Y-101262664D01*
X142456281Y-101230000D01*
X142623719Y-101230000D01*
X142787934Y-101262664D01*
X142787934Y-101262664D01*
G37*
G36*
X153627934Y-101262664D02*
X153782627Y-101326740D01*
X153921847Y-101419764D01*
X154040236Y-101538153D01*
X154133260Y-101677373D01*
X154197336Y-101832066D01*
X154230000Y-101996281D01*
X154230000Y-102163719D01*
X154197336Y-102327934D01*
X154133260Y-102482627D01*
X154040236Y-102621847D01*
X153921847Y-102740236D01*
X153782627Y-102833260D01*
X153627934Y-102897336D01*
X153463719Y-102930000D01*
X153296281Y-102930000D01*
X153132066Y-102897336D01*
X152977373Y-102833260D01*
X152838153Y-102740236D01*
X152719764Y-102621847D01*
X152626740Y-102482627D01*
X152562664Y-102327934D01*
X152530000Y-102163719D01*
X152530000Y-101996281D01*
X152562664Y-101832066D01*
X152626740Y-101677373D01*
X152719764Y-101538153D01*
X152838153Y-101419764D01*
X152977373Y-101326740D01*
X153132066Y-101262664D01*
X153296281Y-101230000D01*
X153463719Y-101230000D01*
X153627934Y-101262664D01*
X153627934Y-101262664D01*
G37*
G36*
X163787934Y-101262664D02*
X163942627Y-101326740D01*
X164081847Y-101419764D01*
X164200236Y-101538153D01*
X164293260Y-101677373D01*
X164357336Y-101832066D01*
X164390000Y-101996281D01*
X164390000Y-102163719D01*
X164357336Y-102327934D01*
X164293260Y-102482627D01*
X164200236Y-102621847D01*
X164081847Y-102740236D01*
X163942627Y-102833260D01*
X163787934Y-102897336D01*
X163623719Y-102930000D01*
X163456281Y-102930000D01*
X163292066Y-102897336D01*
X163137373Y-102833260D01*
X162998153Y-102740236D01*
X162879764Y-102621847D01*
X162786740Y-102482627D01*
X162722664Y-102327934D01*
X162690000Y-102163719D01*
X162690000Y-101996281D01*
X162722664Y-101832066D01*
X162786740Y-101677373D01*
X162879764Y-101538153D01*
X162998153Y-101419764D01*
X163137373Y-101326740D01*
X163292066Y-101262664D01*
X163456281Y-101230000D01*
X163623719Y-101230000D01*
X163787934Y-101262664D01*
X163787934Y-101262664D01*
G37*
G36*
X174627934Y-101262664D02*
X174782627Y-101326740D01*
X174921847Y-101419764D01*
X175040236Y-101538153D01*
X175133260Y-101677373D01*
X175197336Y-101832066D01*
X175230000Y-101996281D01*
X175230000Y-102163719D01*
X175197336Y-102327934D01*
X175133260Y-102482627D01*
X175040236Y-102621847D01*
X174921847Y-102740236D01*
X174782627Y-102833260D01*
X174627934Y-102897336D01*
X174463719Y-102930000D01*
X174296281Y-102930000D01*
X174132066Y-102897336D01*
X173977373Y-102833260D01*
X173838153Y-102740236D01*
X173719764Y-102621847D01*
X173626740Y-102482627D01*
X173562664Y-102327934D01*
X173530000Y-102163719D01*
X173530000Y-101996281D01*
X173562664Y-101832066D01*
X173626740Y-101677373D01*
X173719764Y-101538153D01*
X173838153Y-101419764D01*
X173977373Y-101326740D01*
X174132066Y-101262664D01*
X174296281Y-101230000D01*
X174463719Y-101230000D01*
X174627934Y-101262664D01*
X174627934Y-101262664D01*
G37*
G36*
X184787934Y-101262664D02*
X184942627Y-101326740D01*
X185081847Y-101419764D01*
X185200236Y-101538153D01*
X185293260Y-101677373D01*
X185357336Y-101832066D01*
X185390000Y-101996281D01*
X185390000Y-102163719D01*
X185357336Y-102327934D01*
X185293260Y-102482627D01*
X185200236Y-102621847D01*
X185081847Y-102740236D01*
X184942627Y-102833260D01*
X184787934Y-102897336D01*
X184623719Y-102930000D01*
X184456281Y-102930000D01*
X184292066Y-102897336D01*
X184137373Y-102833260D01*
X183998153Y-102740236D01*
X183879764Y-102621847D01*
X183786740Y-102482627D01*
X183722664Y-102327934D01*
X183690000Y-102163719D01*
X183690000Y-101996281D01*
X183722664Y-101832066D01*
X183786740Y-101677373D01*
X183879764Y-101538153D01*
X183998153Y-101419764D01*
X184137373Y-101326740D01*
X184292066Y-101262664D01*
X184456281Y-101230000D01*
X184623719Y-101230000D01*
X184787934Y-101262664D01*
X184787934Y-101262664D01*
G37*
G36*
X154970857Y-98482272D02*
X155171042Y-98565191D01*
X155351213Y-98685578D01*
X155504422Y-98838787D01*
X155624809Y-99018958D01*
X155707728Y-99219143D01*
X155750000Y-99431658D01*
X155750000Y-99648342D01*
X155707728Y-99860857D01*
X155624809Y-100061042D01*
X155504422Y-100241213D01*
X155351213Y-100394422D01*
X155171042Y-100514809D01*
X154970857Y-100597728D01*
X154758342Y-100640000D01*
X154541658Y-100640000D01*
X154329143Y-100597728D01*
X154128958Y-100514809D01*
X153948787Y-100394422D01*
X153795578Y-100241213D01*
X153675191Y-100061042D01*
X153592272Y-99860857D01*
X153550000Y-99648342D01*
X153550000Y-99431658D01*
X153592272Y-99219143D01*
X153675191Y-99018958D01*
X153795578Y-98838787D01*
X153948787Y-98685578D01*
X154128958Y-98565191D01*
X154329143Y-98482272D01*
X154541658Y-98440000D01*
X154758342Y-98440000D01*
X154970857Y-98482272D01*
X154970857Y-98482272D01*
G37*
G36*
X112970857Y-98482272D02*
X113171042Y-98565191D01*
X113351213Y-98685578D01*
X113504422Y-98838787D01*
X113624809Y-99018958D01*
X113707728Y-99219143D01*
X113750000Y-99431658D01*
X113750000Y-99648342D01*
X113707728Y-99860857D01*
X113624809Y-100061042D01*
X113504422Y-100241213D01*
X113351213Y-100394422D01*
X113171042Y-100514809D01*
X112970857Y-100597728D01*
X112758342Y-100640000D01*
X112541658Y-100640000D01*
X112329143Y-100597728D01*
X112128958Y-100514809D01*
X111948787Y-100394422D01*
X111795578Y-100241213D01*
X111675191Y-100061042D01*
X111592272Y-99860857D01*
X111550000Y-99648342D01*
X111550000Y-99431658D01*
X111592272Y-99219143D01*
X111675191Y-99018958D01*
X111795578Y-98838787D01*
X111948787Y-98685578D01*
X112128958Y-98565191D01*
X112329143Y-98482272D01*
X112541658Y-98440000D01*
X112758342Y-98440000D01*
X112970857Y-98482272D01*
X112970857Y-98482272D01*
G37*
G36*
X175970857Y-98482272D02*
X176171042Y-98565191D01*
X176351213Y-98685578D01*
X176504422Y-98838787D01*
X176624809Y-99018958D01*
X176707728Y-99219143D01*
X176750000Y-99431658D01*
X176750000Y-99648342D01*
X176707728Y-99860857D01*
X176624809Y-100061042D01*
X176504422Y-100241213D01*
X176351213Y-100394422D01*
X176171042Y-100514809D01*
X175970857Y-100597728D01*
X175758342Y-100640000D01*
X175541658Y-100640000D01*
X175329143Y-100597728D01*
X175128958Y-100514809D01*
X174948787Y-100394422D01*
X174795578Y-100241213D01*
X174675191Y-100061042D01*
X174592272Y-99860857D01*
X174550000Y-99648342D01*
X174550000Y-99431658D01*
X174592272Y-99219143D01*
X174675191Y-99018958D01*
X174795578Y-98838787D01*
X174948787Y-98685578D01*
X175128958Y-98565191D01*
X175329143Y-98482272D01*
X175541658Y-98440000D01*
X175758342Y-98440000D01*
X175970857Y-98482272D01*
X175970857Y-98482272D01*
G37*
G36*
X133970857Y-98482272D02*
X134171042Y-98565191D01*
X134351213Y-98685578D01*
X134504422Y-98838787D01*
X134624809Y-99018958D01*
X134707728Y-99219143D01*
X134750000Y-99431658D01*
X134750000Y-99648342D01*
X134707728Y-99860857D01*
X134624809Y-100061042D01*
X134504422Y-100241213D01*
X134351213Y-100394422D01*
X134171042Y-100514809D01*
X133970857Y-100597728D01*
X133758342Y-100640000D01*
X133541658Y-100640000D01*
X133329143Y-100597728D01*
X133128958Y-100514809D01*
X132948787Y-100394422D01*
X132795578Y-100241213D01*
X132675191Y-100061042D01*
X132592272Y-99860857D01*
X132550000Y-99648342D01*
X132550000Y-99431658D01*
X132592272Y-99219143D01*
X132675191Y-99018958D01*
X132795578Y-98838787D01*
X132948787Y-98685578D01*
X133128958Y-98565191D01*
X133329143Y-98482272D01*
X133541658Y-98440000D01*
X133758342Y-98440000D01*
X133970857Y-98482272D01*
X133970857Y-98482272D01*
G37*
G36*
X119320857Y-95942272D02*
X119521042Y-96025191D01*
X119701213Y-96145578D01*
X119854422Y-96298787D01*
X119974809Y-96478958D01*
X120057728Y-96679143D01*
X120100000Y-96891658D01*
X120100000Y-97108342D01*
X120057728Y-97320857D01*
X119974809Y-97521042D01*
X119854422Y-97701213D01*
X119701213Y-97854422D01*
X119521042Y-97974809D01*
X119320857Y-98057728D01*
X119108342Y-98100000D01*
X118891658Y-98100000D01*
X118679143Y-98057728D01*
X118478958Y-97974809D01*
X118298787Y-97854422D01*
X118145578Y-97701213D01*
X118025191Y-97521042D01*
X117942272Y-97320857D01*
X117900000Y-97108342D01*
X117900000Y-96891658D01*
X117942272Y-96679143D01*
X118025191Y-96478958D01*
X118145578Y-96298787D01*
X118298787Y-96145578D01*
X118478958Y-96025191D01*
X118679143Y-95942272D01*
X118891658Y-95900000D01*
X119108342Y-95900000D01*
X119320857Y-95942272D01*
X119320857Y-95942272D01*
G37*
G36*
X161320857Y-95942272D02*
X161521042Y-96025191D01*
X161701213Y-96145578D01*
X161854422Y-96298787D01*
X161974809Y-96478958D01*
X162057728Y-96679143D01*
X162100000Y-96891658D01*
X162100000Y-97108342D01*
X162057728Y-97320857D01*
X161974809Y-97521042D01*
X161854422Y-97701213D01*
X161701213Y-97854422D01*
X161521042Y-97974809D01*
X161320857Y-98057728D01*
X161108342Y-98100000D01*
X160891658Y-98100000D01*
X160679143Y-98057728D01*
X160478958Y-97974809D01*
X160298787Y-97854422D01*
X160145578Y-97701213D01*
X160025191Y-97521042D01*
X159942272Y-97320857D01*
X159900000Y-97108342D01*
X159900000Y-96891658D01*
X159942272Y-96679143D01*
X160025191Y-96478958D01*
X160145578Y-96298787D01*
X160298787Y-96145578D01*
X160478958Y-96025191D01*
X160679143Y-95942272D01*
X160891658Y-95900000D01*
X161108342Y-95900000D01*
X161320857Y-95942272D01*
X161320857Y-95942272D01*
G37*
G36*
X140320857Y-95942272D02*
X140521042Y-96025191D01*
X140701213Y-96145578D01*
X140854422Y-96298787D01*
X140974809Y-96478958D01*
X141057728Y-96679143D01*
X141100000Y-96891658D01*
X141100000Y-97108342D01*
X141057728Y-97320857D01*
X140974809Y-97521042D01*
X140854422Y-97701213D01*
X140701213Y-97854422D01*
X140521042Y-97974809D01*
X140320857Y-98057728D01*
X140108342Y-98100000D01*
X139891658Y-98100000D01*
X139679143Y-98057728D01*
X139478958Y-97974809D01*
X139298787Y-97854422D01*
X139145578Y-97701213D01*
X139025191Y-97521042D01*
X138942272Y-97320857D01*
X138900000Y-97108342D01*
X138900000Y-96891658D01*
X138942272Y-96679143D01*
X139025191Y-96478958D01*
X139145578Y-96298787D01*
X139298787Y-96145578D01*
X139478958Y-96025191D01*
X139679143Y-95942272D01*
X139891658Y-95900000D01*
X140108342Y-95900000D01*
X140320857Y-95942272D01*
X140320857Y-95942272D01*
G37*
G36*
X182320857Y-95942272D02*
X182521042Y-96025191D01*
X182701213Y-96145578D01*
X182854422Y-96298787D01*
X182974809Y-96478958D01*
X183057728Y-96679143D01*
X183100000Y-96891658D01*
X183100000Y-97108342D01*
X183057728Y-97320857D01*
X182974809Y-97521042D01*
X182854422Y-97701213D01*
X182701213Y-97854422D01*
X182521042Y-97974809D01*
X182320857Y-98057728D01*
X182108342Y-98100000D01*
X181891658Y-98100000D01*
X181679143Y-98057728D01*
X181478958Y-97974809D01*
X181298787Y-97854422D01*
X181145578Y-97701213D01*
X181025191Y-97521042D01*
X180942272Y-97320857D01*
X180900000Y-97108342D01*
X180900000Y-96891658D01*
X180942272Y-96679143D01*
X181025191Y-96478958D01*
X181145578Y-96298787D01*
X181298787Y-96145578D01*
X181478958Y-96025191D01*
X181679143Y-95942272D01*
X181891658Y-95900000D01*
X182108342Y-95900000D01*
X182320857Y-95942272D01*
X182320857Y-95942272D01*
G37*
G36*
X171204183Y-91326900D02*
X171331574Y-91379668D01*
X171384685Y-91415155D01*
X171446225Y-91456275D01*
X171543725Y-91553775D01*
X171620332Y-91668426D01*
X171673100Y-91795817D01*
X171700000Y-91931055D01*
X171700000Y-92068945D01*
X171673100Y-92204183D01*
X171620332Y-92331574D01*
X171543726Y-92446224D01*
X171446224Y-92543726D01*
X171331574Y-92620332D01*
X171204183Y-92673100D01*
X171068945Y-92700000D01*
X170931055Y-92700000D01*
X170795817Y-92673100D01*
X170668426Y-92620332D01*
X170553776Y-92543726D01*
X170456274Y-92446224D01*
X170379668Y-92331574D01*
X170326900Y-92204183D01*
X170300000Y-92068945D01*
X170300000Y-91931055D01*
X170326900Y-91795817D01*
X170379668Y-91668426D01*
X170456275Y-91553775D01*
X170553775Y-91456275D01*
X170615316Y-91415155D01*
X170668426Y-91379668D01*
X170795817Y-91326900D01*
X170931055Y-91300000D01*
X171068945Y-91300000D01*
X171204183Y-91326900D01*
X171204183Y-91326900D01*
G37*
G36*
X157757224Y-91310128D02*
X157889175Y-91350155D01*
X158010781Y-91415155D01*
X158117370Y-91502630D01*
X158204845Y-91609219D01*
X158269845Y-91730825D01*
X158309872Y-91862776D01*
X158323387Y-92000000D01*
X158309872Y-92137224D01*
X158269845Y-92269175D01*
X158204845Y-92390781D01*
X158117370Y-92497370D01*
X158010781Y-92584845D01*
X157889175Y-92649845D01*
X157757224Y-92689872D01*
X157654390Y-92700000D01*
X157585610Y-92700000D01*
X157482776Y-92689872D01*
X157350825Y-92649845D01*
X157229219Y-92584845D01*
X157122630Y-92497370D01*
X157035155Y-92390781D01*
X156970155Y-92269175D01*
X156930128Y-92137224D01*
X156916613Y-92000000D01*
X156930128Y-91862776D01*
X156970155Y-91730825D01*
X157035155Y-91609219D01*
X157122630Y-91502630D01*
X157229219Y-91415155D01*
X157350825Y-91350155D01*
X157482776Y-91310128D01*
X157585610Y-91300000D01*
X157654390Y-91300000D01*
X157757224Y-91310128D01*
X157757224Y-91310128D01*
G37*
G36*
X150204183Y-91326900D02*
X150331574Y-91379668D01*
X150384685Y-91415155D01*
X150446225Y-91456275D01*
X150543725Y-91553775D01*
X150620332Y-91668426D01*
X150673100Y-91795817D01*
X150700000Y-91931055D01*
X150700000Y-92068945D01*
X150673100Y-92204183D01*
X150620332Y-92331574D01*
X150543726Y-92446224D01*
X150446224Y-92543726D01*
X150331574Y-92620332D01*
X150204183Y-92673100D01*
X150068945Y-92700000D01*
X149931055Y-92700000D01*
X149795817Y-92673100D01*
X149668426Y-92620332D01*
X149553776Y-92543726D01*
X149456274Y-92446224D01*
X149379668Y-92331574D01*
X149326900Y-92204183D01*
X149300000Y-92068945D01*
X149300000Y-91931055D01*
X149326900Y-91795817D01*
X149379668Y-91668426D01*
X149456275Y-91553775D01*
X149553775Y-91456275D01*
X149615316Y-91415155D01*
X149668426Y-91379668D01*
X149795817Y-91326900D01*
X149931055Y-91300000D01*
X150068945Y-91300000D01*
X150204183Y-91326900D01*
X150204183Y-91326900D01*
G37*
G36*
X108204183Y-91326900D02*
X108331574Y-91379668D01*
X108384685Y-91415155D01*
X108446225Y-91456275D01*
X108543725Y-91553775D01*
X108620332Y-91668426D01*
X108673100Y-91795817D01*
X108700000Y-91931055D01*
X108700000Y-92068945D01*
X108673100Y-92204183D01*
X108620332Y-92331574D01*
X108543726Y-92446224D01*
X108446224Y-92543726D01*
X108331574Y-92620332D01*
X108204183Y-92673100D01*
X108068945Y-92700000D01*
X107931055Y-92700000D01*
X107795817Y-92673100D01*
X107668426Y-92620332D01*
X107553776Y-92543726D01*
X107456274Y-92446224D01*
X107379668Y-92331574D01*
X107326900Y-92204183D01*
X107300000Y-92068945D01*
X107300000Y-91931055D01*
X107326900Y-91795817D01*
X107379668Y-91668426D01*
X107456275Y-91553775D01*
X107553775Y-91456275D01*
X107615316Y-91415155D01*
X107668426Y-91379668D01*
X107795817Y-91326900D01*
X107931055Y-91300000D01*
X108068945Y-91300000D01*
X108204183Y-91326900D01*
X108204183Y-91326900D01*
G37*
G36*
X115757224Y-91310128D02*
X115889175Y-91350155D01*
X116010781Y-91415155D01*
X116117370Y-91502630D01*
X116204845Y-91609219D01*
X116269845Y-91730825D01*
X116309872Y-91862776D01*
X116323387Y-92000000D01*
X116309872Y-92137224D01*
X116269845Y-92269175D01*
X116204845Y-92390781D01*
X116117370Y-92497370D01*
X116010781Y-92584845D01*
X115889175Y-92649845D01*
X115757224Y-92689872D01*
X115654390Y-92700000D01*
X115585610Y-92700000D01*
X115482776Y-92689872D01*
X115350825Y-92649845D01*
X115229219Y-92584845D01*
X115122630Y-92497370D01*
X115035155Y-92390781D01*
X114970155Y-92269175D01*
X114930128Y-92137224D01*
X114916613Y-92000000D01*
X114930128Y-91862776D01*
X114970155Y-91730825D01*
X115035155Y-91609219D01*
X115122630Y-91502630D01*
X115229219Y-91415155D01*
X115350825Y-91350155D01*
X115482776Y-91310128D01*
X115585610Y-91300000D01*
X115654390Y-91300000D01*
X115757224Y-91310128D01*
X115757224Y-91310128D01*
G37*
G36*
X129204183Y-91326900D02*
X129331574Y-91379668D01*
X129384685Y-91415155D01*
X129446225Y-91456275D01*
X129543725Y-91553775D01*
X129620332Y-91668426D01*
X129673100Y-91795817D01*
X129700000Y-91931055D01*
X129700000Y-92068945D01*
X129673100Y-92204183D01*
X129620332Y-92331574D01*
X129543726Y-92446224D01*
X129446224Y-92543726D01*
X129331574Y-92620332D01*
X129204183Y-92673100D01*
X129068945Y-92700000D01*
X128931055Y-92700000D01*
X128795817Y-92673100D01*
X128668426Y-92620332D01*
X128553776Y-92543726D01*
X128456274Y-92446224D01*
X128379668Y-92331574D01*
X128326900Y-92204183D01*
X128300000Y-92068945D01*
X128300000Y-91931055D01*
X128326900Y-91795817D01*
X128379668Y-91668426D01*
X128456275Y-91553775D01*
X128553775Y-91456275D01*
X128615316Y-91415155D01*
X128668426Y-91379668D01*
X128795817Y-91326900D01*
X128931055Y-91300000D01*
X129068945Y-91300000D01*
X129204183Y-91326900D01*
X129204183Y-91326900D01*
G37*
G36*
X178757224Y-91310128D02*
X178889175Y-91350155D01*
X179010781Y-91415155D01*
X179117370Y-91502630D01*
X179204845Y-91609219D01*
X179269845Y-91730825D01*
X179309872Y-91862776D01*
X179323387Y-92000000D01*
X179309872Y-92137224D01*
X179269845Y-92269175D01*
X179204845Y-92390781D01*
X179117370Y-92497370D01*
X179010781Y-92584845D01*
X178889175Y-92649845D01*
X178757224Y-92689872D01*
X178654390Y-92700000D01*
X178585610Y-92700000D01*
X178482776Y-92689872D01*
X178350825Y-92649845D01*
X178229219Y-92584845D01*
X178122630Y-92497370D01*
X178035155Y-92390781D01*
X177970155Y-92269175D01*
X177930128Y-92137224D01*
X177916613Y-92000000D01*
X177930128Y-91862776D01*
X177970155Y-91730825D01*
X178035155Y-91609219D01*
X178122630Y-91502630D01*
X178229219Y-91415155D01*
X178350825Y-91350155D01*
X178482776Y-91310128D01*
X178585610Y-91300000D01*
X178654390Y-91300000D01*
X178757224Y-91310128D01*
X178757224Y-91310128D01*
G37*
G36*
X136757224Y-91310128D02*
X136889175Y-91350155D01*
X137010781Y-91415155D01*
X137117370Y-91502630D01*
X137204845Y-91609219D01*
X137269845Y-91730825D01*
X137309872Y-91862776D01*
X137323387Y-92000000D01*
X137309872Y-92137224D01*
X137269845Y-92269175D01*
X137204845Y-92390781D01*
X137117370Y-92497370D01*
X137010781Y-92584845D01*
X136889175Y-92649845D01*
X136757224Y-92689872D01*
X136654390Y-92700000D01*
X136585610Y-92700000D01*
X136482776Y-92689872D01*
X136350825Y-92649845D01*
X136229219Y-92584845D01*
X136122630Y-92497370D01*
X136035155Y-92390781D01*
X135970155Y-92269175D01*
X135930128Y-92137224D01*
X135916613Y-92000000D01*
X135930128Y-91862776D01*
X135970155Y-91730825D01*
X136035155Y-91609219D01*
X136122630Y-91502630D01*
X136229219Y-91415155D01*
X136350825Y-91350155D01*
X136482776Y-91310128D01*
X136585610Y-91300000D01*
X136654390Y-91300000D01*
X136757224Y-91310128D01*
X136757224Y-91310128D01*
G37*
G36*
X180043378Y-79156859D02*
X180407354Y-79307622D01*
X180734929Y-79526501D01*
X181013499Y-79805071D01*
X181232378Y-80132646D01*
X181383141Y-80496622D01*
X181460000Y-80883016D01*
X181460000Y-81276984D01*
X181383141Y-81663378D01*
X181232378Y-82027354D01*
X181013499Y-82354929D01*
X180734929Y-82633499D01*
X180407354Y-82852378D01*
X180043378Y-83003141D01*
X179656984Y-83080000D01*
X179263016Y-83080000D01*
X178876622Y-83003141D01*
X178512646Y-82852378D01*
X178185071Y-82633499D01*
X177906501Y-82354929D01*
X177687622Y-82027354D01*
X177536859Y-81663378D01*
X177460000Y-81276984D01*
X177460000Y-80883016D01*
X177536859Y-80496622D01*
X177687622Y-80132646D01*
X177906501Y-79805071D01*
X178185071Y-79526501D01*
X178512646Y-79307622D01*
X178876622Y-79156859D01*
X179263016Y-79080000D01*
X179656984Y-79080000D01*
X180043378Y-79156859D01*
X180043378Y-79156859D01*
G37*
G36*
X138043378Y-79156859D02*
X138407354Y-79307622D01*
X138734929Y-79526501D01*
X139013499Y-79805071D01*
X139232378Y-80132646D01*
X139383141Y-80496622D01*
X139460000Y-80883016D01*
X139460000Y-81276984D01*
X139383141Y-81663378D01*
X139232378Y-82027354D01*
X139013499Y-82354929D01*
X138734929Y-82633499D01*
X138407354Y-82852378D01*
X138043378Y-83003141D01*
X137656984Y-83080000D01*
X137263016Y-83080000D01*
X136876622Y-83003141D01*
X136512646Y-82852378D01*
X136185071Y-82633499D01*
X135906501Y-82354929D01*
X135687622Y-82027354D01*
X135536859Y-81663378D01*
X135460000Y-81276984D01*
X135460000Y-80883016D01*
X135536859Y-80496622D01*
X135687622Y-80132646D01*
X135906501Y-79805071D01*
X136185071Y-79526501D01*
X136512646Y-79307622D01*
X136876622Y-79156859D01*
X137263016Y-79080000D01*
X137656984Y-79080000D01*
X138043378Y-79156859D01*
X138043378Y-79156859D01*
G37*
G36*
X159043378Y-79156859D02*
X159407354Y-79307622D01*
X159734929Y-79526501D01*
X160013499Y-79805071D01*
X160232378Y-80132646D01*
X160383141Y-80496622D01*
X160460000Y-80883016D01*
X160460000Y-81276984D01*
X160383141Y-81663378D01*
X160232378Y-82027354D01*
X160013499Y-82354929D01*
X159734929Y-82633499D01*
X159407354Y-82852378D01*
X159043378Y-83003141D01*
X158656984Y-83080000D01*
X158263016Y-83080000D01*
X157876622Y-83003141D01*
X157512646Y-82852378D01*
X157185071Y-82633499D01*
X156906501Y-82354929D01*
X156687622Y-82027354D01*
X156536859Y-81663378D01*
X156460000Y-81276984D01*
X156460000Y-80883016D01*
X156536859Y-80496622D01*
X156687622Y-80132646D01*
X156906501Y-79805071D01*
X157185071Y-79526501D01*
X157512646Y-79307622D01*
X157876622Y-79156859D01*
X158263016Y-79080000D01*
X158656984Y-79080000D01*
X159043378Y-79156859D01*
X159043378Y-79156859D01*
G37*
G36*
X117043378Y-79156859D02*
X117407354Y-79307622D01*
X117734929Y-79526501D01*
X118013499Y-79805071D01*
X118232378Y-80132646D01*
X118383141Y-80496622D01*
X118460000Y-80883016D01*
X118460000Y-81276984D01*
X118383141Y-81663378D01*
X118232378Y-82027354D01*
X118013499Y-82354929D01*
X117734929Y-82633499D01*
X117407354Y-82852378D01*
X117043378Y-83003141D01*
X116656984Y-83080000D01*
X116263016Y-83080000D01*
X115876622Y-83003141D01*
X115512646Y-82852378D01*
X115185071Y-82633499D01*
X114906501Y-82354929D01*
X114687622Y-82027354D01*
X114536859Y-81663378D01*
X114460000Y-81276984D01*
X114460000Y-80883016D01*
X114536859Y-80496622D01*
X114687622Y-80132646D01*
X114906501Y-79805071D01*
X115185071Y-79526501D01*
X115512646Y-79307622D01*
X115876622Y-79156859D01*
X116263016Y-79080000D01*
X116656984Y-79080000D01*
X117043378Y-79156859D01*
X117043378Y-79156859D01*
G37*
G36*
X163787934Y-80262664D02*
X163942627Y-80326740D01*
X164081847Y-80419764D01*
X164200236Y-80538153D01*
X164293260Y-80677373D01*
X164357336Y-80832066D01*
X164390000Y-80996281D01*
X164390000Y-81163719D01*
X164357336Y-81327934D01*
X164293260Y-81482627D01*
X164200236Y-81621847D01*
X164081847Y-81740236D01*
X163942627Y-81833260D01*
X163787934Y-81897336D01*
X163623719Y-81930000D01*
X163456281Y-81930000D01*
X163292066Y-81897336D01*
X163137373Y-81833260D01*
X162998153Y-81740236D01*
X162879764Y-81621847D01*
X162786740Y-81482627D01*
X162722664Y-81327934D01*
X162690000Y-81163719D01*
X162690000Y-80996281D01*
X162722664Y-80832066D01*
X162786740Y-80677373D01*
X162879764Y-80538153D01*
X162998153Y-80419764D01*
X163137373Y-80326740D01*
X163292066Y-80262664D01*
X163456281Y-80230000D01*
X163623719Y-80230000D01*
X163787934Y-80262664D01*
X163787934Y-80262664D01*
G37*
G36*
X174627934Y-80262664D02*
X174782627Y-80326740D01*
X174921847Y-80419764D01*
X175040236Y-80538153D01*
X175133260Y-80677373D01*
X175197336Y-80832066D01*
X175230000Y-80996281D01*
X175230000Y-81163719D01*
X175197336Y-81327934D01*
X175133260Y-81482627D01*
X175040236Y-81621847D01*
X174921847Y-81740236D01*
X174782627Y-81833260D01*
X174627934Y-81897336D01*
X174463719Y-81930000D01*
X174296281Y-81930000D01*
X174132066Y-81897336D01*
X173977373Y-81833260D01*
X173838153Y-81740236D01*
X173719764Y-81621847D01*
X173626740Y-81482627D01*
X173562664Y-81327934D01*
X173530000Y-81163719D01*
X173530000Y-80996281D01*
X173562664Y-80832066D01*
X173626740Y-80677373D01*
X173719764Y-80538153D01*
X173838153Y-80419764D01*
X173977373Y-80326740D01*
X174132066Y-80262664D01*
X174296281Y-80230000D01*
X174463719Y-80230000D01*
X174627934Y-80262664D01*
X174627934Y-80262664D01*
G37*
G36*
X184787934Y-80262664D02*
X184942627Y-80326740D01*
X185081847Y-80419764D01*
X185200236Y-80538153D01*
X185293260Y-80677373D01*
X185357336Y-80832066D01*
X185390000Y-80996281D01*
X185390000Y-81163719D01*
X185357336Y-81327934D01*
X185293260Y-81482627D01*
X185200236Y-81621847D01*
X185081847Y-81740236D01*
X184942627Y-81833260D01*
X184787934Y-81897336D01*
X184623719Y-81930000D01*
X184456281Y-81930000D01*
X184292066Y-81897336D01*
X184137373Y-81833260D01*
X183998153Y-81740236D01*
X183879764Y-81621847D01*
X183786740Y-81482627D01*
X183722664Y-81327934D01*
X183690000Y-81163719D01*
X183690000Y-80996281D01*
X183722664Y-80832066D01*
X183786740Y-80677373D01*
X183879764Y-80538153D01*
X183998153Y-80419764D01*
X184137373Y-80326740D01*
X184292066Y-80262664D01*
X184456281Y-80230000D01*
X184623719Y-80230000D01*
X184787934Y-80262664D01*
X184787934Y-80262664D01*
G37*
G36*
X111627934Y-80262664D02*
X111782627Y-80326740D01*
X111921847Y-80419764D01*
X112040236Y-80538153D01*
X112133260Y-80677373D01*
X112197336Y-80832066D01*
X112230000Y-80996281D01*
X112230000Y-81163719D01*
X112197336Y-81327934D01*
X112133260Y-81482627D01*
X112040236Y-81621847D01*
X111921847Y-81740236D01*
X111782627Y-81833260D01*
X111627934Y-81897336D01*
X111463719Y-81930000D01*
X111296281Y-81930000D01*
X111132066Y-81897336D01*
X110977373Y-81833260D01*
X110838153Y-81740236D01*
X110719764Y-81621847D01*
X110626740Y-81482627D01*
X110562664Y-81327934D01*
X110530000Y-81163719D01*
X110530000Y-80996281D01*
X110562664Y-80832066D01*
X110626740Y-80677373D01*
X110719764Y-80538153D01*
X110838153Y-80419764D01*
X110977373Y-80326740D01*
X111132066Y-80262664D01*
X111296281Y-80230000D01*
X111463719Y-80230000D01*
X111627934Y-80262664D01*
X111627934Y-80262664D01*
G37*
G36*
X142787934Y-80262664D02*
X142942627Y-80326740D01*
X143081847Y-80419764D01*
X143200236Y-80538153D01*
X143293260Y-80677373D01*
X143357336Y-80832066D01*
X143390000Y-80996281D01*
X143390000Y-81163719D01*
X143357336Y-81327934D01*
X143293260Y-81482627D01*
X143200236Y-81621847D01*
X143081847Y-81740236D01*
X142942627Y-81833260D01*
X142787934Y-81897336D01*
X142623719Y-81930000D01*
X142456281Y-81930000D01*
X142292066Y-81897336D01*
X142137373Y-81833260D01*
X141998153Y-81740236D01*
X141879764Y-81621847D01*
X141786740Y-81482627D01*
X141722664Y-81327934D01*
X141690000Y-81163719D01*
X141690000Y-80996281D01*
X141722664Y-80832066D01*
X141786740Y-80677373D01*
X141879764Y-80538153D01*
X141998153Y-80419764D01*
X142137373Y-80326740D01*
X142292066Y-80262664D01*
X142456281Y-80230000D01*
X142623719Y-80230000D01*
X142787934Y-80262664D01*
X142787934Y-80262664D01*
G37*
G36*
X153627934Y-80262664D02*
X153782627Y-80326740D01*
X153921847Y-80419764D01*
X154040236Y-80538153D01*
X154133260Y-80677373D01*
X154197336Y-80832066D01*
X154230000Y-80996281D01*
X154230000Y-81163719D01*
X154197336Y-81327934D01*
X154133260Y-81482627D01*
X154040236Y-81621847D01*
X153921847Y-81740236D01*
X153782627Y-81833260D01*
X153627934Y-81897336D01*
X153463719Y-81930000D01*
X153296281Y-81930000D01*
X153132066Y-81897336D01*
X152977373Y-81833260D01*
X152838153Y-81740236D01*
X152719764Y-81621847D01*
X152626740Y-81482627D01*
X152562664Y-81327934D01*
X152530000Y-81163719D01*
X152530000Y-80996281D01*
X152562664Y-80832066D01*
X152626740Y-80677373D01*
X152719764Y-80538153D01*
X152838153Y-80419764D01*
X152977373Y-80326740D01*
X153132066Y-80262664D01*
X153296281Y-80230000D01*
X153463719Y-80230000D01*
X153627934Y-80262664D01*
X153627934Y-80262664D01*
G37*
G36*
X121787934Y-80262664D02*
X121942627Y-80326740D01*
X122081847Y-80419764D01*
X122200236Y-80538153D01*
X122293260Y-80677373D01*
X122357336Y-80832066D01*
X122390000Y-80996281D01*
X122390000Y-81163719D01*
X122357336Y-81327934D01*
X122293260Y-81482627D01*
X122200236Y-81621847D01*
X122081847Y-81740236D01*
X121942627Y-81833260D01*
X121787934Y-81897336D01*
X121623719Y-81930000D01*
X121456281Y-81930000D01*
X121292066Y-81897336D01*
X121137373Y-81833260D01*
X120998153Y-81740236D01*
X120879764Y-81621847D01*
X120786740Y-81482627D01*
X120722664Y-81327934D01*
X120690000Y-81163719D01*
X120690000Y-80996281D01*
X120722664Y-80832066D01*
X120786740Y-80677373D01*
X120879764Y-80538153D01*
X120998153Y-80419764D01*
X121137373Y-80326740D01*
X121292066Y-80262664D01*
X121456281Y-80230000D01*
X121623719Y-80230000D01*
X121787934Y-80262664D01*
X121787934Y-80262664D01*
G37*
G36*
X132627934Y-80262664D02*
X132782627Y-80326740D01*
X132921847Y-80419764D01*
X133040236Y-80538153D01*
X133133260Y-80677373D01*
X133197336Y-80832066D01*
X133230000Y-80996281D01*
X133230000Y-81163719D01*
X133197336Y-81327934D01*
X133133260Y-81482627D01*
X133040236Y-81621847D01*
X132921847Y-81740236D01*
X132782627Y-81833260D01*
X132627934Y-81897336D01*
X132463719Y-81930000D01*
X132296281Y-81930000D01*
X132132066Y-81897336D01*
X131977373Y-81833260D01*
X131838153Y-81740236D01*
X131719764Y-81621847D01*
X131626740Y-81482627D01*
X131562664Y-81327934D01*
X131530000Y-81163719D01*
X131530000Y-80996281D01*
X131562664Y-80832066D01*
X131626740Y-80677373D01*
X131719764Y-80538153D01*
X131838153Y-80419764D01*
X131977373Y-80326740D01*
X132132066Y-80262664D01*
X132296281Y-80230000D01*
X132463719Y-80230000D01*
X132627934Y-80262664D01*
X132627934Y-80262664D01*
G37*
G36*
X175970857Y-77482272D02*
X176171042Y-77565191D01*
X176351213Y-77685578D01*
X176504422Y-77838787D01*
X176624809Y-78018958D01*
X176707728Y-78219143D01*
X176750000Y-78431658D01*
X176750000Y-78648342D01*
X176707728Y-78860857D01*
X176624809Y-79061042D01*
X176504422Y-79241213D01*
X176351213Y-79394422D01*
X176171042Y-79514809D01*
X175970857Y-79597728D01*
X175758342Y-79640000D01*
X175541658Y-79640000D01*
X175329143Y-79597728D01*
X175128958Y-79514809D01*
X174948787Y-79394422D01*
X174795578Y-79241213D01*
X174675191Y-79061042D01*
X174592272Y-78860857D01*
X174550000Y-78648342D01*
X174550000Y-78431658D01*
X174592272Y-78219143D01*
X174675191Y-78018958D01*
X174795578Y-77838787D01*
X174948787Y-77685578D01*
X175128958Y-77565191D01*
X175329143Y-77482272D01*
X175541658Y-77440000D01*
X175758342Y-77440000D01*
X175970857Y-77482272D01*
X175970857Y-77482272D01*
G37*
G36*
X112970857Y-77482272D02*
X113171042Y-77565191D01*
X113351213Y-77685578D01*
X113504422Y-77838787D01*
X113624809Y-78018958D01*
X113707728Y-78219143D01*
X113750000Y-78431658D01*
X113750000Y-78648342D01*
X113707728Y-78860857D01*
X113624809Y-79061042D01*
X113504422Y-79241213D01*
X113351213Y-79394422D01*
X113171042Y-79514809D01*
X112970857Y-79597728D01*
X112758342Y-79640000D01*
X112541658Y-79640000D01*
X112329143Y-79597728D01*
X112128958Y-79514809D01*
X111948787Y-79394422D01*
X111795578Y-79241213D01*
X111675191Y-79061042D01*
X111592272Y-78860857D01*
X111550000Y-78648342D01*
X111550000Y-78431658D01*
X111592272Y-78219143D01*
X111675191Y-78018958D01*
X111795578Y-77838787D01*
X111948787Y-77685578D01*
X112128958Y-77565191D01*
X112329143Y-77482272D01*
X112541658Y-77440000D01*
X112758342Y-77440000D01*
X112970857Y-77482272D01*
X112970857Y-77482272D01*
G37*
G36*
X133970857Y-77482272D02*
X134171042Y-77565191D01*
X134351213Y-77685578D01*
X134504422Y-77838787D01*
X134624809Y-78018958D01*
X134707728Y-78219143D01*
X134750000Y-78431658D01*
X134750000Y-78648342D01*
X134707728Y-78860857D01*
X134624809Y-79061042D01*
X134504422Y-79241213D01*
X134351213Y-79394422D01*
X134171042Y-79514809D01*
X133970857Y-79597728D01*
X133758342Y-79640000D01*
X133541658Y-79640000D01*
X133329143Y-79597728D01*
X133128958Y-79514809D01*
X132948787Y-79394422D01*
X132795578Y-79241213D01*
X132675191Y-79061042D01*
X132592272Y-78860857D01*
X132550000Y-78648342D01*
X132550000Y-78431658D01*
X132592272Y-78219143D01*
X132675191Y-78018958D01*
X132795578Y-77838787D01*
X132948787Y-77685578D01*
X133128958Y-77565191D01*
X133329143Y-77482272D01*
X133541658Y-77440000D01*
X133758342Y-77440000D01*
X133970857Y-77482272D01*
X133970857Y-77482272D01*
G37*
G36*
X154970857Y-77482272D02*
X155171042Y-77565191D01*
X155351213Y-77685578D01*
X155504422Y-77838787D01*
X155624809Y-78018958D01*
X155707728Y-78219143D01*
X155750000Y-78431658D01*
X155750000Y-78648342D01*
X155707728Y-78860857D01*
X155624809Y-79061042D01*
X155504422Y-79241213D01*
X155351213Y-79394422D01*
X155171042Y-79514809D01*
X154970857Y-79597728D01*
X154758342Y-79640000D01*
X154541658Y-79640000D01*
X154329143Y-79597728D01*
X154128958Y-79514809D01*
X153948787Y-79394422D01*
X153795578Y-79241213D01*
X153675191Y-79061042D01*
X153592272Y-78860857D01*
X153550000Y-78648342D01*
X153550000Y-78431658D01*
X153592272Y-78219143D01*
X153675191Y-78018958D01*
X153795578Y-77838787D01*
X153948787Y-77685578D01*
X154128958Y-77565191D01*
X154329143Y-77482272D01*
X154541658Y-77440000D01*
X154758342Y-77440000D01*
X154970857Y-77482272D01*
X154970857Y-77482272D01*
G37*
G36*
X161320857Y-74942272D02*
X161521042Y-75025191D01*
X161701213Y-75145578D01*
X161854422Y-75298787D01*
X161974809Y-75478958D01*
X162057728Y-75679143D01*
X162100000Y-75891658D01*
X162100000Y-76108342D01*
X162057728Y-76320857D01*
X161974809Y-76521042D01*
X161854422Y-76701213D01*
X161701213Y-76854422D01*
X161521042Y-76974809D01*
X161320857Y-77057728D01*
X161108342Y-77100000D01*
X160891658Y-77100000D01*
X160679143Y-77057728D01*
X160478958Y-76974809D01*
X160298787Y-76854422D01*
X160145578Y-76701213D01*
X160025191Y-76521042D01*
X159942272Y-76320857D01*
X159900000Y-76108342D01*
X159900000Y-75891658D01*
X159942272Y-75679143D01*
X160025191Y-75478958D01*
X160145578Y-75298787D01*
X160298787Y-75145578D01*
X160478958Y-75025191D01*
X160679143Y-74942272D01*
X160891658Y-74900000D01*
X161108342Y-74900000D01*
X161320857Y-74942272D01*
X161320857Y-74942272D01*
G37*
G36*
X140320857Y-74942272D02*
X140521042Y-75025191D01*
X140701213Y-75145578D01*
X140854422Y-75298787D01*
X140974809Y-75478958D01*
X141057728Y-75679143D01*
X141100000Y-75891658D01*
X141100000Y-76108342D01*
X141057728Y-76320857D01*
X140974809Y-76521042D01*
X140854422Y-76701213D01*
X140701213Y-76854422D01*
X140521042Y-76974809D01*
X140320857Y-77057728D01*
X140108342Y-77100000D01*
X139891658Y-77100000D01*
X139679143Y-77057728D01*
X139478958Y-76974809D01*
X139298787Y-76854422D01*
X139145578Y-76701213D01*
X139025191Y-76521042D01*
X138942272Y-76320857D01*
X138900000Y-76108342D01*
X138900000Y-75891658D01*
X138942272Y-75679143D01*
X139025191Y-75478958D01*
X139145578Y-75298787D01*
X139298787Y-75145578D01*
X139478958Y-75025191D01*
X139679143Y-74942272D01*
X139891658Y-74900000D01*
X140108342Y-74900000D01*
X140320857Y-74942272D01*
X140320857Y-74942272D01*
G37*
G36*
X182320857Y-74942272D02*
X182521042Y-75025191D01*
X182701213Y-75145578D01*
X182854422Y-75298787D01*
X182974809Y-75478958D01*
X183057728Y-75679143D01*
X183100000Y-75891658D01*
X183100000Y-76108342D01*
X183057728Y-76320857D01*
X182974809Y-76521042D01*
X182854422Y-76701213D01*
X182701213Y-76854422D01*
X182521042Y-76974809D01*
X182320857Y-77057728D01*
X182108342Y-77100000D01*
X181891658Y-77100000D01*
X181679143Y-77057728D01*
X181478958Y-76974809D01*
X181298787Y-76854422D01*
X181145578Y-76701213D01*
X181025191Y-76521042D01*
X180942272Y-76320857D01*
X180900000Y-76108342D01*
X180900000Y-75891658D01*
X180942272Y-75679143D01*
X181025191Y-75478958D01*
X181145578Y-75298787D01*
X181298787Y-75145578D01*
X181478958Y-75025191D01*
X181679143Y-74942272D01*
X181891658Y-74900000D01*
X182108342Y-74900000D01*
X182320857Y-74942272D01*
X182320857Y-74942272D01*
G37*
G36*
X119320857Y-74942272D02*
X119521042Y-75025191D01*
X119701213Y-75145578D01*
X119854422Y-75298787D01*
X119974809Y-75478958D01*
X120057728Y-75679143D01*
X120100000Y-75891658D01*
X120100000Y-76108342D01*
X120057728Y-76320857D01*
X119974809Y-76521042D01*
X119854422Y-76701213D01*
X119701213Y-76854422D01*
X119521042Y-76974809D01*
X119320857Y-77057728D01*
X119108342Y-77100000D01*
X118891658Y-77100000D01*
X118679143Y-77057728D01*
X118478958Y-76974809D01*
X118298787Y-76854422D01*
X118145578Y-76701213D01*
X118025191Y-76521042D01*
X117942272Y-76320857D01*
X117900000Y-76108342D01*
X117900000Y-75891658D01*
X117942272Y-75679143D01*
X118025191Y-75478958D01*
X118145578Y-75298787D01*
X118298787Y-75145578D01*
X118478958Y-75025191D01*
X118679143Y-74942272D01*
X118891658Y-74900000D01*
X119108342Y-74900000D01*
X119320857Y-74942272D01*
X119320857Y-74942272D01*
G37*
G36*
X115757224Y-70310128D02*
X115889175Y-70350155D01*
X116010781Y-70415155D01*
X116117370Y-70502630D01*
X116204845Y-70609219D01*
X116269845Y-70730825D01*
X116309872Y-70862776D01*
X116323387Y-71000000D01*
X116309872Y-71137224D01*
X116269845Y-71269175D01*
X116204845Y-71390781D01*
X116117370Y-71497370D01*
X116010781Y-71584845D01*
X115889175Y-71649845D01*
X115757224Y-71689872D01*
X115654390Y-71700000D01*
X115585610Y-71700000D01*
X115482776Y-71689872D01*
X115350825Y-71649845D01*
X115229219Y-71584845D01*
X115122630Y-71497370D01*
X115035155Y-71390781D01*
X114970155Y-71269175D01*
X114930128Y-71137224D01*
X114916613Y-71000000D01*
X114930128Y-70862776D01*
X114970155Y-70730825D01*
X115035155Y-70609219D01*
X115122630Y-70502630D01*
X115229219Y-70415155D01*
X115350825Y-70350155D01*
X115482776Y-70310128D01*
X115585610Y-70300000D01*
X115654390Y-70300000D01*
X115757224Y-70310128D01*
X115757224Y-70310128D01*
G37*
G36*
X178757224Y-70310128D02*
X178889175Y-70350155D01*
X179010781Y-70415155D01*
X179117370Y-70502630D01*
X179204845Y-70609219D01*
X179269845Y-70730825D01*
X179309872Y-70862776D01*
X179323387Y-71000000D01*
X179309872Y-71137224D01*
X179269845Y-71269175D01*
X179204845Y-71390781D01*
X179117370Y-71497370D01*
X179010781Y-71584845D01*
X178889175Y-71649845D01*
X178757224Y-71689872D01*
X178654390Y-71700000D01*
X178585610Y-71700000D01*
X178482776Y-71689872D01*
X178350825Y-71649845D01*
X178229219Y-71584845D01*
X178122630Y-71497370D01*
X178035155Y-71390781D01*
X177970155Y-71269175D01*
X177930128Y-71137224D01*
X177916613Y-71000000D01*
X177930128Y-70862776D01*
X177970155Y-70730825D01*
X178035155Y-70609219D01*
X178122630Y-70502630D01*
X178229219Y-70415155D01*
X178350825Y-70350155D01*
X178482776Y-70310128D01*
X178585610Y-70300000D01*
X178654390Y-70300000D01*
X178757224Y-70310128D01*
X178757224Y-70310128D01*
G37*
G36*
X150204183Y-70326900D02*
X150331574Y-70379668D01*
X150384685Y-70415155D01*
X150446225Y-70456275D01*
X150543725Y-70553775D01*
X150620332Y-70668426D01*
X150673100Y-70795817D01*
X150700000Y-70931055D01*
X150700000Y-71068945D01*
X150673100Y-71204183D01*
X150620332Y-71331574D01*
X150543726Y-71446224D01*
X150446224Y-71543726D01*
X150331574Y-71620332D01*
X150204183Y-71673100D01*
X150068945Y-71700000D01*
X149931055Y-71700000D01*
X149795817Y-71673100D01*
X149668426Y-71620332D01*
X149553776Y-71543726D01*
X149456274Y-71446224D01*
X149379668Y-71331574D01*
X149326900Y-71204183D01*
X149300000Y-71068945D01*
X149300000Y-70931055D01*
X149326900Y-70795817D01*
X149379668Y-70668426D01*
X149456275Y-70553775D01*
X149553775Y-70456275D01*
X149615316Y-70415155D01*
X149668426Y-70379668D01*
X149795817Y-70326900D01*
X149931055Y-70300000D01*
X150068945Y-70300000D01*
X150204183Y-70326900D01*
X150204183Y-70326900D01*
G37*
G36*
X157757224Y-70310128D02*
X157889175Y-70350155D01*
X158010781Y-70415155D01*
X158117370Y-70502630D01*
X158204845Y-70609219D01*
X158269845Y-70730825D01*
X158309872Y-70862776D01*
X158323387Y-71000000D01*
X158309872Y-71137224D01*
X158269845Y-71269175D01*
X158204845Y-71390781D01*
X158117370Y-71497370D01*
X158010781Y-71584845D01*
X157889175Y-71649845D01*
X157757224Y-71689872D01*
X157654390Y-71700000D01*
X157585610Y-71700000D01*
X157482776Y-71689872D01*
X157350825Y-71649845D01*
X157229219Y-71584845D01*
X157122630Y-71497370D01*
X157035155Y-71390781D01*
X156970155Y-71269175D01*
X156930128Y-71137224D01*
X156916613Y-71000000D01*
X156930128Y-70862776D01*
X156970155Y-70730825D01*
X157035155Y-70609219D01*
X157122630Y-70502630D01*
X157229219Y-70415155D01*
X157350825Y-70350155D01*
X157482776Y-70310128D01*
X157585610Y-70300000D01*
X157654390Y-70300000D01*
X157757224Y-70310128D01*
X157757224Y-70310128D01*
G37*
G36*
X129204183Y-70326900D02*
X129331574Y-70379668D01*
X129384685Y-70415155D01*
X129446225Y-70456275D01*
X129543725Y-70553775D01*
X129620332Y-70668426D01*
X129673100Y-70795817D01*
X129700000Y-70931055D01*
X129700000Y-71068945D01*
X129673100Y-71204183D01*
X129620332Y-71331574D01*
X129543726Y-71446224D01*
X129446224Y-71543726D01*
X129331574Y-71620332D01*
X129204183Y-71673100D01*
X129068945Y-71700000D01*
X128931055Y-71700000D01*
X128795817Y-71673100D01*
X128668426Y-71620332D01*
X128553776Y-71543726D01*
X128456274Y-71446224D01*
X128379668Y-71331574D01*
X128326900Y-71204183D01*
X128300000Y-71068945D01*
X128300000Y-70931055D01*
X128326900Y-70795817D01*
X128379668Y-70668426D01*
X128456275Y-70553775D01*
X128553775Y-70456275D01*
X128615316Y-70415155D01*
X128668426Y-70379668D01*
X128795817Y-70326900D01*
X128931055Y-70300000D01*
X129068945Y-70300000D01*
X129204183Y-70326900D01*
X129204183Y-70326900D01*
G37*
G36*
X136757224Y-70310128D02*
X136889175Y-70350155D01*
X137010781Y-70415155D01*
X137117370Y-70502630D01*
X137204845Y-70609219D01*
X137269845Y-70730825D01*
X137309872Y-70862776D01*
X137323387Y-71000000D01*
X137309872Y-71137224D01*
X137269845Y-71269175D01*
X137204845Y-71390781D01*
X137117370Y-71497370D01*
X137010781Y-71584845D01*
X136889175Y-71649845D01*
X136757224Y-71689872D01*
X136654390Y-71700000D01*
X136585610Y-71700000D01*
X136482776Y-71689872D01*
X136350825Y-71649845D01*
X136229219Y-71584845D01*
X136122630Y-71497370D01*
X136035155Y-71390781D01*
X135970155Y-71269175D01*
X135930128Y-71137224D01*
X135916613Y-71000000D01*
X135930128Y-70862776D01*
X135970155Y-70730825D01*
X136035155Y-70609219D01*
X136122630Y-70502630D01*
X136229219Y-70415155D01*
X136350825Y-70350155D01*
X136482776Y-70310128D01*
X136585610Y-70300000D01*
X136654390Y-70300000D01*
X136757224Y-70310128D01*
X136757224Y-70310128D01*
G37*
G36*
X171204183Y-70326900D02*
X171331574Y-70379668D01*
X171384685Y-70415155D01*
X171446225Y-70456275D01*
X171543725Y-70553775D01*
X171620332Y-70668426D01*
X171673100Y-70795817D01*
X171700000Y-70931055D01*
X171700000Y-71068945D01*
X171673100Y-71204183D01*
X171620332Y-71331574D01*
X171543726Y-71446224D01*
X171446224Y-71543726D01*
X171331574Y-71620332D01*
X171204183Y-71673100D01*
X171068945Y-71700000D01*
X170931055Y-71700000D01*
X170795817Y-71673100D01*
X170668426Y-71620332D01*
X170553776Y-71543726D01*
X170456274Y-71446224D01*
X170379668Y-71331574D01*
X170326900Y-71204183D01*
X170300000Y-71068945D01*
X170300000Y-70931055D01*
X170326900Y-70795817D01*
X170379668Y-70668426D01*
X170456275Y-70553775D01*
X170553775Y-70456275D01*
X170615316Y-70415155D01*
X170668426Y-70379668D01*
X170795817Y-70326900D01*
X170931055Y-70300000D01*
X171068945Y-70300000D01*
X171204183Y-70326900D01*
X171204183Y-70326900D01*
G37*
G36*
X108204183Y-70326900D02*
X108331574Y-70379668D01*
X108384685Y-70415155D01*
X108446225Y-70456275D01*
X108543725Y-70553775D01*
X108620332Y-70668426D01*
X108673100Y-70795817D01*
X108700000Y-70931055D01*
X108700000Y-71068945D01*
X108673100Y-71204183D01*
X108620332Y-71331574D01*
X108543726Y-71446224D01*
X108446224Y-71543726D01*
X108331574Y-71620332D01*
X108204183Y-71673100D01*
X108068945Y-71700000D01*
X107931055Y-71700000D01*
X107795817Y-71673100D01*
X107668426Y-71620332D01*
X107553776Y-71543726D01*
X107456274Y-71446224D01*
X107379668Y-71331574D01*
X107326900Y-71204183D01*
X107300000Y-71068945D01*
X107300000Y-70931055D01*
X107326900Y-70795817D01*
X107379668Y-70668426D01*
X107456275Y-70553775D01*
X107553775Y-70456275D01*
X107615316Y-70415155D01*
X107668426Y-70379668D01*
X107795817Y-70326900D01*
X107931055Y-70300000D01*
X108068945Y-70300000D01*
X108204183Y-70326900D01*
X108204183Y-70326900D01*
G37*
G36*
X110841835Y-65539129D02*
X110938434Y-65558344D01*
X111211417Y-65671417D01*
X111453820Y-65833387D01*
X111457097Y-65835576D01*
X111666024Y-66044503D01*
X111830184Y-66290185D01*
X111943256Y-66563167D01*
X112000900Y-66852961D01*
X112000900Y-67148439D01*
X111943256Y-67438233D01*
X111830184Y-67711215D01*
X111666024Y-67956897D01*
X111457097Y-68165824D01*
X111457094Y-68165826D01*
X111211417Y-68329983D01*
X110938434Y-68443056D01*
X110841835Y-68462271D01*
X110648639Y-68500700D01*
X110353161Y-68500700D01*
X110159965Y-68462271D01*
X110063366Y-68443056D01*
X109790383Y-68329983D01*
X109544706Y-68165826D01*
X109544703Y-68165824D01*
X109335776Y-67956897D01*
X109171616Y-67711215D01*
X109058544Y-67438233D01*
X109000900Y-67148439D01*
X109000900Y-66852961D01*
X109058544Y-66563167D01*
X109171616Y-66290185D01*
X109335776Y-66044503D01*
X109544703Y-65835576D01*
X109547980Y-65833387D01*
X109790383Y-65671417D01*
X110063366Y-65558344D01*
X110159965Y-65539129D01*
X110353161Y-65500700D01*
X110648639Y-65500700D01*
X110841835Y-65539129D01*
X110841835Y-65539129D01*
G37*
G36*
X185840415Y-65539129D02*
X185937014Y-65558344D01*
X186209997Y-65671417D01*
X186452400Y-65833387D01*
X186455677Y-65835576D01*
X186664604Y-66044503D01*
X186828764Y-66290185D01*
X186941836Y-66563167D01*
X186999480Y-66852961D01*
X186999480Y-67148439D01*
X186941836Y-67438233D01*
X186828764Y-67711215D01*
X186664604Y-67956897D01*
X186455677Y-68165824D01*
X186455674Y-68165826D01*
X186209997Y-68329983D01*
X185937014Y-68443056D01*
X185840415Y-68462271D01*
X185647219Y-68500700D01*
X185351741Y-68500700D01*
X185158545Y-68462271D01*
X185061946Y-68443056D01*
X184788963Y-68329983D01*
X184543286Y-68165826D01*
X184543283Y-68165824D01*
X184334356Y-67956897D01*
X184170196Y-67711215D01*
X184057124Y-67438233D01*
X183999480Y-67148439D01*
X183999480Y-66852961D01*
X184057124Y-66563167D01*
X184170196Y-66290185D01*
X184334356Y-66044503D01*
X184543283Y-65835576D01*
X184546560Y-65833387D01*
X184788963Y-65671417D01*
X185061946Y-65558344D01*
X185158545Y-65539129D01*
X185351741Y-65500700D01*
X185647219Y-65500700D01*
X185840415Y-65539129D01*
X185840415Y-65539129D01*
G37*
G36*
X108700000Y-63250000D02*
X107600000Y-63250000D01*
X107600000Y-61650000D01*
X108700000Y-61650000D01*
X108700000Y-63250000D01*
X108700000Y-63250000D01*
G37*
G36*
X106400000Y-63250000D02*
X105300000Y-63250000D01*
X105300000Y-61650000D01*
X106400000Y-61650000D01*
X106400000Y-63250000D01*
X106400000Y-63250000D01*
G37*
G36*
X184436827Y-59431576D02*
X184512227Y-59454448D01*
X184587629Y-59477321D01*
X184726608Y-59551608D01*
X184848422Y-59651578D01*
X184948392Y-59773392D01*
X185022679Y-59912371D01*
X185068424Y-60063174D01*
X185080000Y-60180705D01*
X185080000Y-61059295D01*
X185072283Y-61137649D01*
X185068424Y-61176827D01*
X185045551Y-61252228D01*
X185022679Y-61327629D01*
X184948392Y-61466608D01*
X184848425Y-61588419D01*
X184848423Y-61588420D01*
X184848422Y-61588422D01*
X184848418Y-61588425D01*
X184726604Y-61688394D01*
X184587628Y-61762679D01*
X184512226Y-61785552D01*
X184436826Y-61808424D01*
X184280000Y-61823870D01*
X184123173Y-61808424D01*
X184047773Y-61785552D01*
X183972371Y-61762679D01*
X183833392Y-61688392D01*
X183711581Y-61588425D01*
X183711580Y-61588423D01*
X183711578Y-61588422D01*
X183611607Y-61466605D01*
X183611606Y-61466604D01*
X183537321Y-61327628D01*
X183499875Y-61204183D01*
X183491576Y-61176826D01*
X183480951Y-61068945D01*
X183480000Y-61059294D01*
X183480000Y-60180706D01*
X183491577Y-60063174D01*
X183537322Y-59912371D01*
X183611609Y-59773392D01*
X183711579Y-59651578D01*
X183833393Y-59551608D01*
X183972372Y-59477321D01*
X184047774Y-59454448D01*
X184123174Y-59431576D01*
X184280000Y-59416130D01*
X184436827Y-59431576D01*
X184436827Y-59431576D01*
G37*
G36*
X122316827Y-59431576D02*
X122392227Y-59454448D01*
X122467629Y-59477321D01*
X122606608Y-59551608D01*
X122728422Y-59651578D01*
X122828392Y-59773392D01*
X122902679Y-59912371D01*
X122948424Y-60063174D01*
X122960000Y-60180705D01*
X122960000Y-61059295D01*
X122952283Y-61137649D01*
X122948424Y-61176827D01*
X122925551Y-61252228D01*
X122902679Y-61327629D01*
X122828392Y-61466608D01*
X122728425Y-61588419D01*
X122728423Y-61588420D01*
X122728422Y-61588422D01*
X122728418Y-61588425D01*
X122606604Y-61688394D01*
X122467628Y-61762679D01*
X122392226Y-61785552D01*
X122316826Y-61808424D01*
X122160000Y-61823870D01*
X122003173Y-61808424D01*
X121927773Y-61785552D01*
X121852371Y-61762679D01*
X121713392Y-61688392D01*
X121591581Y-61588425D01*
X121591580Y-61588423D01*
X121591578Y-61588422D01*
X121491607Y-61466605D01*
X121491606Y-61466604D01*
X121417321Y-61327628D01*
X121379875Y-61204183D01*
X121371576Y-61176826D01*
X121360951Y-61068945D01*
X121360000Y-61059294D01*
X121360000Y-60180706D01*
X121371577Y-60063174D01*
X121417322Y-59912371D01*
X121491609Y-59773392D01*
X121591579Y-59651578D01*
X121713393Y-59551608D01*
X121852372Y-59477321D01*
X121927774Y-59454448D01*
X122003174Y-59431576D01*
X122160000Y-59416130D01*
X122316827Y-59431576D01*
X122316827Y-59431576D01*
G37*
G36*
X119776827Y-59431576D02*
X119852227Y-59454448D01*
X119927629Y-59477321D01*
X120066608Y-59551608D01*
X120188422Y-59651578D01*
X120288392Y-59773392D01*
X120362679Y-59912371D01*
X120408424Y-60063174D01*
X120420000Y-60180705D01*
X120420000Y-61059295D01*
X120412283Y-61137649D01*
X120408424Y-61176827D01*
X120385551Y-61252228D01*
X120362679Y-61327629D01*
X120288392Y-61466608D01*
X120188425Y-61588419D01*
X120188423Y-61588420D01*
X120188422Y-61588422D01*
X120188418Y-61588425D01*
X120066604Y-61688394D01*
X119927628Y-61762679D01*
X119852226Y-61785552D01*
X119776826Y-61808424D01*
X119620000Y-61823870D01*
X119463173Y-61808424D01*
X119387773Y-61785552D01*
X119312371Y-61762679D01*
X119173392Y-61688392D01*
X119051581Y-61588425D01*
X119051580Y-61588423D01*
X119051578Y-61588422D01*
X118951607Y-61466605D01*
X118951606Y-61466604D01*
X118877321Y-61327628D01*
X118839875Y-61204183D01*
X118831576Y-61176826D01*
X118820951Y-61068945D01*
X118820000Y-61059294D01*
X118820000Y-60180706D01*
X118831577Y-60063174D01*
X118877322Y-59912371D01*
X118951609Y-59773392D01*
X119051579Y-59651578D01*
X119173393Y-59551608D01*
X119312372Y-59477321D01*
X119387774Y-59454448D01*
X119463174Y-59431576D01*
X119620000Y-59416130D01*
X119776827Y-59431576D01*
X119776827Y-59431576D01*
G37*
G36*
X124856827Y-59431576D02*
X124932227Y-59454448D01*
X125007629Y-59477321D01*
X125146608Y-59551608D01*
X125268422Y-59651578D01*
X125368392Y-59773392D01*
X125442679Y-59912371D01*
X125488424Y-60063174D01*
X125500000Y-60180705D01*
X125500000Y-61059295D01*
X125492283Y-61137649D01*
X125488424Y-61176827D01*
X125465551Y-61252228D01*
X125442679Y-61327629D01*
X125368392Y-61466608D01*
X125268425Y-61588419D01*
X125268423Y-61588420D01*
X125268422Y-61588422D01*
X125268418Y-61588425D01*
X125146604Y-61688394D01*
X125007628Y-61762679D01*
X124932226Y-61785552D01*
X124856826Y-61808424D01*
X124700000Y-61823870D01*
X124543173Y-61808424D01*
X124467773Y-61785552D01*
X124392371Y-61762679D01*
X124253392Y-61688392D01*
X124131581Y-61588425D01*
X124131580Y-61588423D01*
X124131578Y-61588422D01*
X124031607Y-61466605D01*
X124031606Y-61466604D01*
X123957321Y-61327628D01*
X123919875Y-61204183D01*
X123911576Y-61176826D01*
X123900951Y-61068945D01*
X123900000Y-61059294D01*
X123900000Y-60180706D01*
X123911577Y-60063174D01*
X123957322Y-59912371D01*
X124031609Y-59773392D01*
X124131579Y-59651578D01*
X124253393Y-59551608D01*
X124392372Y-59477321D01*
X124467774Y-59454448D01*
X124543174Y-59431576D01*
X124700000Y-59416130D01*
X124856827Y-59431576D01*
X124856827Y-59431576D01*
G37*
G36*
X117236827Y-59431576D02*
X117312227Y-59454448D01*
X117387629Y-59477321D01*
X117526608Y-59551608D01*
X117648422Y-59651578D01*
X117748392Y-59773392D01*
X117822679Y-59912371D01*
X117868424Y-60063174D01*
X117880000Y-60180705D01*
X117880000Y-61059295D01*
X117872283Y-61137649D01*
X117868424Y-61176827D01*
X117845551Y-61252228D01*
X117822679Y-61327629D01*
X117748392Y-61466608D01*
X117648425Y-61588419D01*
X117648423Y-61588420D01*
X117648422Y-61588422D01*
X117648418Y-61588425D01*
X117526604Y-61688394D01*
X117387628Y-61762679D01*
X117312226Y-61785552D01*
X117236826Y-61808424D01*
X117080000Y-61823870D01*
X116923173Y-61808424D01*
X116847773Y-61785552D01*
X116772371Y-61762679D01*
X116633392Y-61688392D01*
X116511581Y-61588425D01*
X116511580Y-61588423D01*
X116511578Y-61588422D01*
X116411607Y-61466605D01*
X116411606Y-61466604D01*
X116337321Y-61327628D01*
X116299875Y-61204183D01*
X116291576Y-61176826D01*
X116280951Y-61068945D01*
X116280000Y-61059294D01*
X116280000Y-60180706D01*
X116291577Y-60063174D01*
X116337322Y-59912371D01*
X116411609Y-59773392D01*
X116511579Y-59651578D01*
X116633393Y-59551608D01*
X116772372Y-59477321D01*
X116847774Y-59454448D01*
X116923174Y-59431576D01*
X117080000Y-59416130D01*
X117236827Y-59431576D01*
X117236827Y-59431576D01*
G37*
G36*
X127396827Y-59431576D02*
X127472227Y-59454448D01*
X127547629Y-59477321D01*
X127686608Y-59551608D01*
X127808422Y-59651578D01*
X127908392Y-59773392D01*
X127982679Y-59912371D01*
X128028424Y-60063174D01*
X128040000Y-60180705D01*
X128040000Y-61059295D01*
X128032283Y-61137649D01*
X128028424Y-61176827D01*
X128005551Y-61252228D01*
X127982679Y-61327629D01*
X127908392Y-61466608D01*
X127808425Y-61588419D01*
X127808423Y-61588420D01*
X127808422Y-61588422D01*
X127808418Y-61588425D01*
X127686604Y-61688394D01*
X127547628Y-61762679D01*
X127472226Y-61785552D01*
X127396826Y-61808424D01*
X127240000Y-61823870D01*
X127083173Y-61808424D01*
X127007773Y-61785552D01*
X126932371Y-61762679D01*
X126793392Y-61688392D01*
X126671581Y-61588425D01*
X126671580Y-61588423D01*
X126671578Y-61588422D01*
X126571607Y-61466605D01*
X126571606Y-61466604D01*
X126497321Y-61327628D01*
X126459875Y-61204183D01*
X126451576Y-61176826D01*
X126440951Y-61068945D01*
X126440000Y-61059294D01*
X126440000Y-60180706D01*
X126451577Y-60063174D01*
X126497322Y-59912371D01*
X126571609Y-59773392D01*
X126671579Y-59651578D01*
X126793393Y-59551608D01*
X126932372Y-59477321D01*
X127007774Y-59454448D01*
X127083174Y-59431576D01*
X127240000Y-59416130D01*
X127396827Y-59431576D01*
X127396827Y-59431576D01*
G37*
G36*
X129936827Y-59431576D02*
X130012227Y-59454448D01*
X130087629Y-59477321D01*
X130226608Y-59551608D01*
X130348422Y-59651578D01*
X130448392Y-59773392D01*
X130522679Y-59912371D01*
X130568424Y-60063174D01*
X130580000Y-60180705D01*
X130580000Y-61059295D01*
X130572283Y-61137649D01*
X130568424Y-61176827D01*
X130545551Y-61252228D01*
X130522679Y-61327629D01*
X130448392Y-61466608D01*
X130348425Y-61588419D01*
X130348423Y-61588420D01*
X130348422Y-61588422D01*
X130348418Y-61588425D01*
X130226604Y-61688394D01*
X130087628Y-61762679D01*
X130012226Y-61785552D01*
X129936826Y-61808424D01*
X129780000Y-61823870D01*
X129623173Y-61808424D01*
X129547773Y-61785552D01*
X129472371Y-61762679D01*
X129333392Y-61688392D01*
X129211581Y-61588425D01*
X129211580Y-61588423D01*
X129211578Y-61588422D01*
X129111607Y-61466605D01*
X129111606Y-61466604D01*
X129037321Y-61327628D01*
X128999875Y-61204183D01*
X128991576Y-61176826D01*
X128980951Y-61068945D01*
X128980000Y-61059294D01*
X128980000Y-60180706D01*
X128991577Y-60063174D01*
X129037322Y-59912371D01*
X129111609Y-59773392D01*
X129211579Y-59651578D01*
X129333393Y-59551608D01*
X129472372Y-59477321D01*
X129547774Y-59454448D01*
X129623174Y-59431576D01*
X129780000Y-59416130D01*
X129936827Y-59431576D01*
X129936827Y-59431576D01*
G37*
G36*
X112156827Y-59431576D02*
X112232227Y-59454448D01*
X112307629Y-59477321D01*
X112446608Y-59551608D01*
X112568422Y-59651578D01*
X112668392Y-59773392D01*
X112742679Y-59912371D01*
X112788424Y-60063174D01*
X112800000Y-60180705D01*
X112800000Y-61059295D01*
X112792283Y-61137649D01*
X112788424Y-61176827D01*
X112765551Y-61252228D01*
X112742679Y-61327629D01*
X112668392Y-61466608D01*
X112568425Y-61588419D01*
X112568423Y-61588420D01*
X112568422Y-61588422D01*
X112568418Y-61588425D01*
X112446604Y-61688394D01*
X112307628Y-61762679D01*
X112232226Y-61785552D01*
X112156826Y-61808424D01*
X112000000Y-61823870D01*
X111843173Y-61808424D01*
X111767773Y-61785552D01*
X111692371Y-61762679D01*
X111553392Y-61688392D01*
X111431581Y-61588425D01*
X111431580Y-61588423D01*
X111431578Y-61588422D01*
X111331607Y-61466605D01*
X111331606Y-61466604D01*
X111257321Y-61327628D01*
X111219875Y-61204183D01*
X111211576Y-61176826D01*
X111200951Y-61068945D01*
X111200000Y-61059294D01*
X111200000Y-60180706D01*
X111211577Y-60063174D01*
X111257322Y-59912371D01*
X111331609Y-59773392D01*
X111431579Y-59651578D01*
X111553393Y-59551608D01*
X111692372Y-59477321D01*
X111767774Y-59454448D01*
X111843174Y-59431576D01*
X112000000Y-59416130D01*
X112156827Y-59431576D01*
X112156827Y-59431576D01*
G37*
G36*
X171736827Y-59431576D02*
X171812227Y-59454448D01*
X171887629Y-59477321D01*
X172026608Y-59551608D01*
X172148422Y-59651578D01*
X172248392Y-59773392D01*
X172322679Y-59912371D01*
X172368424Y-60063174D01*
X172380000Y-60180705D01*
X172380000Y-61059295D01*
X172372283Y-61137649D01*
X172368424Y-61176827D01*
X172345551Y-61252228D01*
X172322679Y-61327629D01*
X172248392Y-61466608D01*
X172148425Y-61588419D01*
X172148423Y-61588420D01*
X172148422Y-61588422D01*
X172148418Y-61588425D01*
X172026604Y-61688394D01*
X171887628Y-61762679D01*
X171812226Y-61785552D01*
X171736826Y-61808424D01*
X171580000Y-61823870D01*
X171423173Y-61808424D01*
X171347773Y-61785552D01*
X171272371Y-61762679D01*
X171133392Y-61688392D01*
X171011581Y-61588425D01*
X171011580Y-61588423D01*
X171011578Y-61588422D01*
X170911607Y-61466605D01*
X170911606Y-61466604D01*
X170837321Y-61327628D01*
X170799875Y-61204183D01*
X170791576Y-61176826D01*
X170780951Y-61068945D01*
X170780000Y-61059294D01*
X170780000Y-60180706D01*
X170791577Y-60063174D01*
X170837322Y-59912371D01*
X170911609Y-59773392D01*
X171011579Y-59651578D01*
X171133393Y-59551608D01*
X171272372Y-59477321D01*
X171347774Y-59454448D01*
X171423174Y-59431576D01*
X171580000Y-59416130D01*
X171736827Y-59431576D01*
X171736827Y-59431576D01*
G37*
G36*
X174276827Y-59431576D02*
X174352227Y-59454448D01*
X174427629Y-59477321D01*
X174566608Y-59551608D01*
X174688422Y-59651578D01*
X174788392Y-59773392D01*
X174862679Y-59912371D01*
X174908424Y-60063174D01*
X174920000Y-60180705D01*
X174920000Y-61059295D01*
X174912283Y-61137649D01*
X174908424Y-61176827D01*
X174885551Y-61252228D01*
X174862679Y-61327629D01*
X174788392Y-61466608D01*
X174688425Y-61588419D01*
X174688423Y-61588420D01*
X174688422Y-61588422D01*
X174688418Y-61588425D01*
X174566604Y-61688394D01*
X174427628Y-61762679D01*
X174352226Y-61785552D01*
X174276826Y-61808424D01*
X174120000Y-61823870D01*
X173963173Y-61808424D01*
X173887773Y-61785552D01*
X173812371Y-61762679D01*
X173673392Y-61688392D01*
X173551581Y-61588425D01*
X173551580Y-61588423D01*
X173551578Y-61588422D01*
X173451607Y-61466605D01*
X173451606Y-61466604D01*
X173377321Y-61327628D01*
X173339875Y-61204183D01*
X173331576Y-61176826D01*
X173320951Y-61068945D01*
X173320000Y-61059294D01*
X173320000Y-60180706D01*
X173331577Y-60063174D01*
X173377322Y-59912371D01*
X173451609Y-59773392D01*
X173551579Y-59651578D01*
X173673393Y-59551608D01*
X173812372Y-59477321D01*
X173887774Y-59454448D01*
X173963174Y-59431576D01*
X174120000Y-59416130D01*
X174276827Y-59431576D01*
X174276827Y-59431576D01*
G37*
G36*
X176816827Y-59431576D02*
X176892227Y-59454448D01*
X176967629Y-59477321D01*
X177106608Y-59551608D01*
X177228422Y-59651578D01*
X177328392Y-59773392D01*
X177402679Y-59912371D01*
X177448424Y-60063174D01*
X177460000Y-60180705D01*
X177460000Y-61059295D01*
X177452283Y-61137649D01*
X177448424Y-61176827D01*
X177425551Y-61252228D01*
X177402679Y-61327629D01*
X177328392Y-61466608D01*
X177228425Y-61588419D01*
X177228423Y-61588420D01*
X177228422Y-61588422D01*
X177228418Y-61588425D01*
X177106604Y-61688394D01*
X176967628Y-61762679D01*
X176892226Y-61785552D01*
X176816826Y-61808424D01*
X176660000Y-61823870D01*
X176503173Y-61808424D01*
X176427773Y-61785552D01*
X176352371Y-61762679D01*
X176213392Y-61688392D01*
X176091581Y-61588425D01*
X176091580Y-61588423D01*
X176091578Y-61588422D01*
X175991607Y-61466605D01*
X175991606Y-61466604D01*
X175917321Y-61327628D01*
X175879875Y-61204183D01*
X175871576Y-61176826D01*
X175860951Y-61068945D01*
X175860000Y-61059294D01*
X175860000Y-60180706D01*
X175871577Y-60063174D01*
X175917322Y-59912371D01*
X175991609Y-59773392D01*
X176091579Y-59651578D01*
X176213393Y-59551608D01*
X176352372Y-59477321D01*
X176427774Y-59454448D01*
X176503174Y-59431576D01*
X176660000Y-59416130D01*
X176816827Y-59431576D01*
X176816827Y-59431576D01*
G37*
G36*
X179356827Y-59431576D02*
X179432227Y-59454448D01*
X179507629Y-59477321D01*
X179646608Y-59551608D01*
X179768422Y-59651578D01*
X179868392Y-59773392D01*
X179942679Y-59912371D01*
X179988424Y-60063174D01*
X180000000Y-60180705D01*
X180000000Y-61059295D01*
X179992283Y-61137649D01*
X179988424Y-61176827D01*
X179965551Y-61252228D01*
X179942679Y-61327629D01*
X179868392Y-61466608D01*
X179768425Y-61588419D01*
X179768423Y-61588420D01*
X179768422Y-61588422D01*
X179768418Y-61588425D01*
X179646604Y-61688394D01*
X179507628Y-61762679D01*
X179432226Y-61785552D01*
X179356826Y-61808424D01*
X179200000Y-61823870D01*
X179043173Y-61808424D01*
X178967773Y-61785552D01*
X178892371Y-61762679D01*
X178753392Y-61688392D01*
X178631581Y-61588425D01*
X178631580Y-61588423D01*
X178631578Y-61588422D01*
X178531607Y-61466605D01*
X178531606Y-61466604D01*
X178457321Y-61327628D01*
X178419875Y-61204183D01*
X178411576Y-61176826D01*
X178400951Y-61068945D01*
X178400000Y-61059294D01*
X178400000Y-60180706D01*
X178411577Y-60063174D01*
X178457322Y-59912371D01*
X178531609Y-59773392D01*
X178631579Y-59651578D01*
X178753393Y-59551608D01*
X178892372Y-59477321D01*
X178967774Y-59454448D01*
X179043174Y-59431576D01*
X179200000Y-59416130D01*
X179356827Y-59431576D01*
X179356827Y-59431576D01*
G37*
G36*
X181896827Y-59431576D02*
X181972227Y-59454448D01*
X182047629Y-59477321D01*
X182186608Y-59551608D01*
X182308422Y-59651578D01*
X182408392Y-59773392D01*
X182482679Y-59912371D01*
X182528424Y-60063174D01*
X182540000Y-60180705D01*
X182540000Y-61059295D01*
X182532283Y-61137649D01*
X182528424Y-61176827D01*
X182505551Y-61252228D01*
X182482679Y-61327629D01*
X182408392Y-61466608D01*
X182308425Y-61588419D01*
X182308423Y-61588420D01*
X182308422Y-61588422D01*
X182308418Y-61588425D01*
X182186604Y-61688394D01*
X182047628Y-61762679D01*
X181972226Y-61785552D01*
X181896826Y-61808424D01*
X181740000Y-61823870D01*
X181583173Y-61808424D01*
X181507773Y-61785552D01*
X181432371Y-61762679D01*
X181293392Y-61688392D01*
X181171581Y-61588425D01*
X181171580Y-61588423D01*
X181171578Y-61588422D01*
X181071607Y-61466605D01*
X181071606Y-61466604D01*
X180997321Y-61327628D01*
X180959875Y-61204183D01*
X180951576Y-61176826D01*
X180940951Y-61068945D01*
X180940000Y-61059294D01*
X180940000Y-60180706D01*
X180951577Y-60063174D01*
X180997322Y-59912371D01*
X181071609Y-59773392D01*
X181171579Y-59651578D01*
X181293393Y-59551608D01*
X181432372Y-59477321D01*
X181507774Y-59454448D01*
X181583174Y-59431576D01*
X181740000Y-59416130D01*
X181896827Y-59431576D01*
X181896827Y-59431576D01*
G37*
G36*
X166656827Y-59431576D02*
X166732227Y-59454448D01*
X166807629Y-59477321D01*
X166946608Y-59551608D01*
X167068422Y-59651578D01*
X167168392Y-59773392D01*
X167242679Y-59912371D01*
X167288424Y-60063174D01*
X167300000Y-60180705D01*
X167300000Y-61059295D01*
X167292283Y-61137649D01*
X167288424Y-61176827D01*
X167265551Y-61252228D01*
X167242679Y-61327629D01*
X167168392Y-61466608D01*
X167068425Y-61588419D01*
X167068423Y-61588420D01*
X167068422Y-61588422D01*
X167068418Y-61588425D01*
X166946604Y-61688394D01*
X166807628Y-61762679D01*
X166732226Y-61785552D01*
X166656826Y-61808424D01*
X166500000Y-61823870D01*
X166343173Y-61808424D01*
X166267773Y-61785552D01*
X166192371Y-61762679D01*
X166053392Y-61688392D01*
X165931581Y-61588425D01*
X165931580Y-61588423D01*
X165931578Y-61588422D01*
X165831607Y-61466605D01*
X165831606Y-61466604D01*
X165757321Y-61327628D01*
X165719875Y-61204183D01*
X165711576Y-61176826D01*
X165700951Y-61068945D01*
X165700000Y-61059294D01*
X165700000Y-60180706D01*
X165711577Y-60063174D01*
X165757322Y-59912371D01*
X165831609Y-59773392D01*
X165931579Y-59651578D01*
X166053393Y-59551608D01*
X166192372Y-59477321D01*
X166267774Y-59454448D01*
X166343174Y-59431576D01*
X166500000Y-59416130D01*
X166656827Y-59431576D01*
X166656827Y-59431576D01*
G37*
G36*
X114696827Y-59431576D02*
X114772227Y-59454448D01*
X114847629Y-59477321D01*
X114986608Y-59551608D01*
X115108422Y-59651578D01*
X115208392Y-59773392D01*
X115282679Y-59912371D01*
X115328424Y-60063174D01*
X115340000Y-60180705D01*
X115340000Y-61059295D01*
X115332283Y-61137649D01*
X115328424Y-61176827D01*
X115305551Y-61252228D01*
X115282679Y-61327629D01*
X115208392Y-61466608D01*
X115108425Y-61588419D01*
X115108423Y-61588420D01*
X115108422Y-61588422D01*
X115108418Y-61588425D01*
X114986604Y-61688394D01*
X114847628Y-61762679D01*
X114772226Y-61785552D01*
X114696826Y-61808424D01*
X114540000Y-61823870D01*
X114383173Y-61808424D01*
X114307773Y-61785552D01*
X114232371Y-61762679D01*
X114093392Y-61688392D01*
X113971581Y-61588425D01*
X113971580Y-61588423D01*
X113971578Y-61588422D01*
X113871607Y-61466605D01*
X113871606Y-61466604D01*
X113797321Y-61327628D01*
X113759875Y-61204183D01*
X113751576Y-61176826D01*
X113740951Y-61068945D01*
X113740000Y-61059294D01*
X113740000Y-60180706D01*
X113751577Y-60063174D01*
X113797322Y-59912371D01*
X113871609Y-59773392D01*
X113971579Y-59651578D01*
X114093393Y-59551608D01*
X114232372Y-59477321D01*
X114307774Y-59454448D01*
X114383174Y-59431576D01*
X114540000Y-59416130D01*
X114696827Y-59431576D01*
X114696827Y-59431576D01*
G37*
G36*
X169196827Y-59431576D02*
X169272227Y-59454448D01*
X169347629Y-59477321D01*
X169486608Y-59551608D01*
X169608422Y-59651578D01*
X169708392Y-59773392D01*
X169782679Y-59912371D01*
X169828424Y-60063174D01*
X169840000Y-60180705D01*
X169840000Y-61059295D01*
X169832283Y-61137649D01*
X169828424Y-61176827D01*
X169805551Y-61252228D01*
X169782679Y-61327629D01*
X169708392Y-61466608D01*
X169608425Y-61588419D01*
X169608423Y-61588420D01*
X169608422Y-61588422D01*
X169608418Y-61588425D01*
X169486604Y-61688394D01*
X169347628Y-61762679D01*
X169272226Y-61785552D01*
X169196826Y-61808424D01*
X169040000Y-61823870D01*
X168883173Y-61808424D01*
X168807773Y-61785552D01*
X168732371Y-61762679D01*
X168593392Y-61688392D01*
X168471581Y-61588425D01*
X168471580Y-61588423D01*
X168471578Y-61588422D01*
X168371607Y-61466605D01*
X168371606Y-61466604D01*
X168297321Y-61327628D01*
X168259875Y-61204183D01*
X168251576Y-61176826D01*
X168240951Y-61068945D01*
X168240000Y-61059294D01*
X168240000Y-60180706D01*
X168251577Y-60063174D01*
X168297322Y-59912371D01*
X168371609Y-59773392D01*
X168471579Y-59651578D01*
X168593393Y-59551608D01*
X168732372Y-59477321D01*
X168807774Y-59454448D01*
X168883174Y-59431576D01*
X169040000Y-59416130D01*
X169196827Y-59431576D01*
X169196827Y-59431576D01*
G37*
G36*
X189704183Y-60326900D02*
X189831574Y-60379668D01*
X189946225Y-60456275D01*
X190043725Y-60553775D01*
X190120332Y-60668426D01*
X190173100Y-60795817D01*
X190200000Y-60931055D01*
X190200000Y-61068945D01*
X190173100Y-61204183D01*
X190121966Y-61327629D01*
X190120332Y-61331574D01*
X190043726Y-61446224D01*
X189946224Y-61543726D01*
X189831574Y-61620332D01*
X189704183Y-61673100D01*
X189568945Y-61700000D01*
X189431055Y-61700000D01*
X189295817Y-61673100D01*
X189168426Y-61620332D01*
X189053776Y-61543726D01*
X188956274Y-61446224D01*
X188879668Y-61331574D01*
X188878034Y-61327629D01*
X188826900Y-61204183D01*
X188800000Y-61068945D01*
X188800000Y-60931055D01*
X188826900Y-60795817D01*
X188879668Y-60668426D01*
X188956275Y-60553775D01*
X189053775Y-60456275D01*
X189168426Y-60379668D01*
X189295817Y-60326900D01*
X189431055Y-60300000D01*
X189568945Y-60300000D01*
X189704183Y-60326900D01*
X189704183Y-60326900D01*
G37*
G36*
X135204183Y-60326900D02*
X135331574Y-60379668D01*
X135446225Y-60456275D01*
X135543725Y-60553775D01*
X135620332Y-60668426D01*
X135673100Y-60795817D01*
X135700000Y-60931055D01*
X135700000Y-61068945D01*
X135673100Y-61204183D01*
X135621966Y-61327629D01*
X135620332Y-61331574D01*
X135543726Y-61446224D01*
X135446224Y-61543726D01*
X135331574Y-61620332D01*
X135204183Y-61673100D01*
X135068945Y-61700000D01*
X134931055Y-61700000D01*
X134795817Y-61673100D01*
X134668426Y-61620332D01*
X134553776Y-61543726D01*
X134456274Y-61446224D01*
X134379668Y-61331574D01*
X134378034Y-61327629D01*
X134326900Y-61204183D01*
X134300000Y-61068945D01*
X134300000Y-60931055D01*
X134326900Y-60795817D01*
X134379668Y-60668426D01*
X134456275Y-60553775D01*
X134553775Y-60456275D01*
X134668426Y-60379668D01*
X134795817Y-60326900D01*
X134931055Y-60300000D01*
X135068945Y-60300000D01*
X135204183Y-60326900D01*
X135204183Y-60326900D01*
G37*
G36*
X107800000Y-60350000D02*
X106200000Y-60350000D01*
X106200000Y-58750000D01*
X107800000Y-58750000D01*
X107800000Y-60350000D01*
X107800000Y-60350000D01*
G37*
G36*
X169196827Y-51811576D02*
X169272227Y-51834448D01*
X169347629Y-51857321D01*
X169486608Y-51931608D01*
X169608422Y-52031578D01*
X169708392Y-52153392D01*
X169782679Y-52292371D01*
X169828424Y-52443174D01*
X169840000Y-52560705D01*
X169840000Y-53439295D01*
X169828424Y-53556826D01*
X169782679Y-53707629D01*
X169708392Y-53846608D01*
X169608425Y-53968419D01*
X169608423Y-53968420D01*
X169608422Y-53968422D01*
X169608418Y-53968425D01*
X169486604Y-54068394D01*
X169347628Y-54142679D01*
X169272226Y-54165552D01*
X169196826Y-54188424D01*
X169040000Y-54203870D01*
X168883173Y-54188424D01*
X168807773Y-54165552D01*
X168732371Y-54142679D01*
X168593392Y-54068392D01*
X168471581Y-53968425D01*
X168471580Y-53968423D01*
X168471578Y-53968422D01*
X168371607Y-53846605D01*
X168371606Y-53846604D01*
X168297321Y-53707628D01*
X168274448Y-53632226D01*
X168251576Y-53556826D01*
X168240000Y-53439292D01*
X168240000Y-52560707D01*
X168251577Y-52443173D01*
X168297322Y-52292372D01*
X168297322Y-52292371D01*
X168371609Y-52153392D01*
X168471579Y-52031578D01*
X168593393Y-51931608D01*
X168732372Y-51857321D01*
X168807773Y-51834449D01*
X168883174Y-51811576D01*
X169040000Y-51796130D01*
X169196827Y-51811576D01*
X169196827Y-51811576D01*
G37*
G36*
X171736827Y-51811576D02*
X171812227Y-51834448D01*
X171887629Y-51857321D01*
X172026608Y-51931608D01*
X172148422Y-52031578D01*
X172248392Y-52153392D01*
X172322679Y-52292371D01*
X172368424Y-52443174D01*
X172380000Y-52560705D01*
X172380000Y-53439295D01*
X172368424Y-53556826D01*
X172322679Y-53707629D01*
X172248392Y-53846608D01*
X172148425Y-53968419D01*
X172148423Y-53968420D01*
X172148422Y-53968422D01*
X172148418Y-53968425D01*
X172026604Y-54068394D01*
X171887628Y-54142679D01*
X171812226Y-54165552D01*
X171736826Y-54188424D01*
X171580000Y-54203870D01*
X171423173Y-54188424D01*
X171347773Y-54165552D01*
X171272371Y-54142679D01*
X171133392Y-54068392D01*
X171011581Y-53968425D01*
X171011580Y-53968423D01*
X171011578Y-53968422D01*
X170911607Y-53846605D01*
X170911606Y-53846604D01*
X170837321Y-53707628D01*
X170814448Y-53632226D01*
X170791576Y-53556826D01*
X170780000Y-53439292D01*
X170780000Y-52560707D01*
X170791577Y-52443173D01*
X170837322Y-52292372D01*
X170837322Y-52292371D01*
X170911609Y-52153392D01*
X171011579Y-52031578D01*
X171133393Y-51931608D01*
X171272372Y-51857321D01*
X171347773Y-51834449D01*
X171423174Y-51811576D01*
X171580000Y-51796130D01*
X171736827Y-51811576D01*
X171736827Y-51811576D01*
G37*
G36*
X174276827Y-51811576D02*
X174352227Y-51834448D01*
X174427629Y-51857321D01*
X174566608Y-51931608D01*
X174688422Y-52031578D01*
X174788392Y-52153392D01*
X174862679Y-52292371D01*
X174908424Y-52443174D01*
X174920000Y-52560705D01*
X174920000Y-53439295D01*
X174908424Y-53556826D01*
X174862679Y-53707629D01*
X174788392Y-53846608D01*
X174688425Y-53968419D01*
X174688423Y-53968420D01*
X174688422Y-53968422D01*
X174688418Y-53968425D01*
X174566604Y-54068394D01*
X174427628Y-54142679D01*
X174352226Y-54165552D01*
X174276826Y-54188424D01*
X174120000Y-54203870D01*
X173963173Y-54188424D01*
X173887773Y-54165552D01*
X173812371Y-54142679D01*
X173673392Y-54068392D01*
X173551581Y-53968425D01*
X173551580Y-53968423D01*
X173551578Y-53968422D01*
X173451607Y-53846605D01*
X173451606Y-53846604D01*
X173377321Y-53707628D01*
X173354448Y-53632226D01*
X173331576Y-53556826D01*
X173320000Y-53439292D01*
X173320000Y-52560707D01*
X173331577Y-52443173D01*
X173377322Y-52292372D01*
X173377322Y-52292371D01*
X173451609Y-52153392D01*
X173551579Y-52031578D01*
X173673393Y-51931608D01*
X173812372Y-51857321D01*
X173887773Y-51834449D01*
X173963174Y-51811576D01*
X174120000Y-51796130D01*
X174276827Y-51811576D01*
X174276827Y-51811576D01*
G37*
G36*
X176816827Y-51811576D02*
X176892227Y-51834448D01*
X176967629Y-51857321D01*
X177106608Y-51931608D01*
X177228422Y-52031578D01*
X177328392Y-52153392D01*
X177402679Y-52292371D01*
X177448424Y-52443174D01*
X177460000Y-52560705D01*
X177460000Y-53439295D01*
X177448424Y-53556826D01*
X177402679Y-53707629D01*
X177328392Y-53846608D01*
X177228425Y-53968419D01*
X177228423Y-53968420D01*
X177228422Y-53968422D01*
X177228418Y-53968425D01*
X177106604Y-54068394D01*
X176967628Y-54142679D01*
X176892226Y-54165552D01*
X176816826Y-54188424D01*
X176660000Y-54203870D01*
X176503173Y-54188424D01*
X176427773Y-54165552D01*
X176352371Y-54142679D01*
X176213392Y-54068392D01*
X176091581Y-53968425D01*
X176091580Y-53968423D01*
X176091578Y-53968422D01*
X175991607Y-53846605D01*
X175991606Y-53846604D01*
X175917321Y-53707628D01*
X175894448Y-53632226D01*
X175871576Y-53556826D01*
X175860000Y-53439292D01*
X175860000Y-52560707D01*
X175871577Y-52443173D01*
X175917322Y-52292372D01*
X175917322Y-52292371D01*
X175991609Y-52153392D01*
X176091579Y-52031578D01*
X176213393Y-51931608D01*
X176352372Y-51857321D01*
X176427773Y-51834449D01*
X176503174Y-51811576D01*
X176660000Y-51796130D01*
X176816827Y-51811576D01*
X176816827Y-51811576D01*
G37*
G36*
X179356827Y-51811576D02*
X179432227Y-51834448D01*
X179507629Y-51857321D01*
X179646608Y-51931608D01*
X179768422Y-52031578D01*
X179868392Y-52153392D01*
X179942679Y-52292371D01*
X179988424Y-52443174D01*
X180000000Y-52560705D01*
X180000000Y-53439295D01*
X179988424Y-53556826D01*
X179942679Y-53707629D01*
X179868392Y-53846608D01*
X179768425Y-53968419D01*
X179768423Y-53968420D01*
X179768422Y-53968422D01*
X179768418Y-53968425D01*
X179646604Y-54068394D01*
X179507628Y-54142679D01*
X179432226Y-54165552D01*
X179356826Y-54188424D01*
X179200000Y-54203870D01*
X179043173Y-54188424D01*
X178967773Y-54165552D01*
X178892371Y-54142679D01*
X178753392Y-54068392D01*
X178631581Y-53968425D01*
X178631580Y-53968423D01*
X178631578Y-53968422D01*
X178531607Y-53846605D01*
X178531606Y-53846604D01*
X178457321Y-53707628D01*
X178434448Y-53632226D01*
X178411576Y-53556826D01*
X178400000Y-53439292D01*
X178400000Y-52560707D01*
X178411577Y-52443173D01*
X178457322Y-52292372D01*
X178457322Y-52292371D01*
X178531609Y-52153392D01*
X178631579Y-52031578D01*
X178753393Y-51931608D01*
X178892372Y-51857321D01*
X178967773Y-51834449D01*
X179043174Y-51811576D01*
X179200000Y-51796130D01*
X179356827Y-51811576D01*
X179356827Y-51811576D01*
G37*
G36*
X184436827Y-51811576D02*
X184512227Y-51834448D01*
X184587629Y-51857321D01*
X184726608Y-51931608D01*
X184848422Y-52031578D01*
X184948392Y-52153392D01*
X185022679Y-52292371D01*
X185068424Y-52443174D01*
X185080000Y-52560705D01*
X185080000Y-53439295D01*
X185068424Y-53556826D01*
X185022679Y-53707629D01*
X184948392Y-53846608D01*
X184848425Y-53968419D01*
X184848423Y-53968420D01*
X184848422Y-53968422D01*
X184848418Y-53968425D01*
X184726604Y-54068394D01*
X184587628Y-54142679D01*
X184512226Y-54165552D01*
X184436826Y-54188424D01*
X184280000Y-54203870D01*
X184123173Y-54188424D01*
X184047773Y-54165552D01*
X183972371Y-54142679D01*
X183833392Y-54068392D01*
X183711581Y-53968425D01*
X183711580Y-53968423D01*
X183711578Y-53968422D01*
X183611607Y-53846605D01*
X183611606Y-53846604D01*
X183537321Y-53707628D01*
X183514448Y-53632226D01*
X183491576Y-53556826D01*
X183480000Y-53439292D01*
X183480000Y-52560707D01*
X183491577Y-52443173D01*
X183537322Y-52292372D01*
X183537322Y-52292371D01*
X183611609Y-52153392D01*
X183711579Y-52031578D01*
X183833393Y-51931608D01*
X183972372Y-51857321D01*
X184047773Y-51834449D01*
X184123174Y-51811576D01*
X184280000Y-51796130D01*
X184436827Y-51811576D01*
X184436827Y-51811576D01*
G37*
G36*
X129936827Y-51811576D02*
X130012227Y-51834448D01*
X130087629Y-51857321D01*
X130226608Y-51931608D01*
X130348422Y-52031578D01*
X130448392Y-52153392D01*
X130522679Y-52292371D01*
X130568424Y-52443174D01*
X130580000Y-52560705D01*
X130580000Y-53439295D01*
X130568424Y-53556826D01*
X130522679Y-53707629D01*
X130448392Y-53846608D01*
X130348425Y-53968419D01*
X130348423Y-53968420D01*
X130348422Y-53968422D01*
X130348418Y-53968425D01*
X130226604Y-54068394D01*
X130087628Y-54142679D01*
X130012226Y-54165552D01*
X129936826Y-54188424D01*
X129780000Y-54203870D01*
X129623173Y-54188424D01*
X129547773Y-54165552D01*
X129472371Y-54142679D01*
X129333392Y-54068392D01*
X129211581Y-53968425D01*
X129211580Y-53968423D01*
X129211578Y-53968422D01*
X129111607Y-53846605D01*
X129111606Y-53846604D01*
X129037321Y-53707628D01*
X129014448Y-53632226D01*
X128991576Y-53556826D01*
X128980000Y-53439292D01*
X128980000Y-52560707D01*
X128991577Y-52443173D01*
X129037322Y-52292372D01*
X129037322Y-52292371D01*
X129111609Y-52153392D01*
X129211579Y-52031578D01*
X129333393Y-51931608D01*
X129472372Y-51857321D01*
X129547773Y-51834449D01*
X129623174Y-51811576D01*
X129780000Y-51796130D01*
X129936827Y-51811576D01*
X129936827Y-51811576D01*
G37*
G36*
X127396827Y-51811576D02*
X127472227Y-51834448D01*
X127547629Y-51857321D01*
X127686608Y-51931608D01*
X127808422Y-52031578D01*
X127908392Y-52153392D01*
X127982679Y-52292371D01*
X128028424Y-52443174D01*
X128040000Y-52560705D01*
X128040000Y-53439295D01*
X128028424Y-53556826D01*
X127982679Y-53707629D01*
X127908392Y-53846608D01*
X127808425Y-53968419D01*
X127808423Y-53968420D01*
X127808422Y-53968422D01*
X127808418Y-53968425D01*
X127686604Y-54068394D01*
X127547628Y-54142679D01*
X127472226Y-54165552D01*
X127396826Y-54188424D01*
X127240000Y-54203870D01*
X127083173Y-54188424D01*
X127007773Y-54165552D01*
X126932371Y-54142679D01*
X126793392Y-54068392D01*
X126671581Y-53968425D01*
X126671580Y-53968423D01*
X126671578Y-53968422D01*
X126571607Y-53846605D01*
X126571606Y-53846604D01*
X126497321Y-53707628D01*
X126474448Y-53632226D01*
X126451576Y-53556826D01*
X126440000Y-53439292D01*
X126440000Y-52560707D01*
X126451577Y-52443173D01*
X126497322Y-52292372D01*
X126497322Y-52292371D01*
X126571609Y-52153392D01*
X126671579Y-52031578D01*
X126793393Y-51931608D01*
X126932372Y-51857321D01*
X127007773Y-51834449D01*
X127083174Y-51811576D01*
X127240000Y-51796130D01*
X127396827Y-51811576D01*
X127396827Y-51811576D01*
G37*
G36*
X122316827Y-51811576D02*
X122392227Y-51834448D01*
X122467629Y-51857321D01*
X122606608Y-51931608D01*
X122728422Y-52031578D01*
X122828392Y-52153392D01*
X122902679Y-52292371D01*
X122948424Y-52443174D01*
X122960000Y-52560705D01*
X122960000Y-53439295D01*
X122948424Y-53556826D01*
X122902679Y-53707629D01*
X122828392Y-53846608D01*
X122728425Y-53968419D01*
X122728423Y-53968420D01*
X122728422Y-53968422D01*
X122728418Y-53968425D01*
X122606604Y-54068394D01*
X122467628Y-54142679D01*
X122392226Y-54165552D01*
X122316826Y-54188424D01*
X122160000Y-54203870D01*
X122003173Y-54188424D01*
X121927773Y-54165552D01*
X121852371Y-54142679D01*
X121713392Y-54068392D01*
X121591581Y-53968425D01*
X121591580Y-53968423D01*
X121591578Y-53968422D01*
X121491607Y-53846605D01*
X121491606Y-53846604D01*
X121417321Y-53707628D01*
X121394448Y-53632226D01*
X121371576Y-53556826D01*
X121360000Y-53439292D01*
X121360000Y-52560707D01*
X121371577Y-52443173D01*
X121417322Y-52292372D01*
X121417322Y-52292371D01*
X121491609Y-52153392D01*
X121591579Y-52031578D01*
X121713393Y-51931608D01*
X121852372Y-51857321D01*
X121927773Y-51834449D01*
X122003174Y-51811576D01*
X122160000Y-51796130D01*
X122316827Y-51811576D01*
X122316827Y-51811576D01*
G37*
G36*
X119776827Y-51811576D02*
X119852227Y-51834448D01*
X119927629Y-51857321D01*
X120066608Y-51931608D01*
X120188422Y-52031578D01*
X120288392Y-52153392D01*
X120362679Y-52292371D01*
X120408424Y-52443174D01*
X120420000Y-52560705D01*
X120420000Y-53439295D01*
X120408424Y-53556826D01*
X120362679Y-53707629D01*
X120288392Y-53846608D01*
X120188425Y-53968419D01*
X120188423Y-53968420D01*
X120188422Y-53968422D01*
X120188418Y-53968425D01*
X120066604Y-54068394D01*
X119927628Y-54142679D01*
X119852226Y-54165552D01*
X119776826Y-54188424D01*
X119620000Y-54203870D01*
X119463173Y-54188424D01*
X119387773Y-54165552D01*
X119312371Y-54142679D01*
X119173392Y-54068392D01*
X119051581Y-53968425D01*
X119051580Y-53968423D01*
X119051578Y-53968422D01*
X118951607Y-53846605D01*
X118951606Y-53846604D01*
X118877321Y-53707628D01*
X118854448Y-53632226D01*
X118831576Y-53556826D01*
X118820000Y-53439292D01*
X118820000Y-52560707D01*
X118831577Y-52443173D01*
X118877322Y-52292372D01*
X118877322Y-52292371D01*
X118951609Y-52153392D01*
X119051579Y-52031578D01*
X119173393Y-51931608D01*
X119312372Y-51857321D01*
X119387773Y-51834449D01*
X119463174Y-51811576D01*
X119620000Y-51796130D01*
X119776827Y-51811576D01*
X119776827Y-51811576D01*
G37*
G36*
X117236827Y-51811576D02*
X117312227Y-51834448D01*
X117387629Y-51857321D01*
X117526608Y-51931608D01*
X117648422Y-52031578D01*
X117748392Y-52153392D01*
X117822679Y-52292371D01*
X117868424Y-52443174D01*
X117880000Y-52560705D01*
X117880000Y-53439295D01*
X117868424Y-53556826D01*
X117822679Y-53707629D01*
X117748392Y-53846608D01*
X117648425Y-53968419D01*
X117648423Y-53968420D01*
X117648422Y-53968422D01*
X117648418Y-53968425D01*
X117526604Y-54068394D01*
X117387628Y-54142679D01*
X117312226Y-54165552D01*
X117236826Y-54188424D01*
X117080000Y-54203870D01*
X116923173Y-54188424D01*
X116847773Y-54165552D01*
X116772371Y-54142679D01*
X116633392Y-54068392D01*
X116511581Y-53968425D01*
X116511580Y-53968423D01*
X116511578Y-53968422D01*
X116411607Y-53846605D01*
X116411606Y-53846604D01*
X116337321Y-53707628D01*
X116314448Y-53632226D01*
X116291576Y-53556826D01*
X116280000Y-53439292D01*
X116280000Y-52560707D01*
X116291577Y-52443173D01*
X116337322Y-52292372D01*
X116337322Y-52292371D01*
X116411609Y-52153392D01*
X116511579Y-52031578D01*
X116633393Y-51931608D01*
X116772372Y-51857321D01*
X116847773Y-51834449D01*
X116923174Y-51811576D01*
X117080000Y-51796130D01*
X117236827Y-51811576D01*
X117236827Y-51811576D01*
G37*
G36*
X114696827Y-51811576D02*
X114772227Y-51834448D01*
X114847629Y-51857321D01*
X114986608Y-51931608D01*
X115108422Y-52031578D01*
X115208392Y-52153392D01*
X115282679Y-52292371D01*
X115328424Y-52443174D01*
X115340000Y-52560705D01*
X115340000Y-53439295D01*
X115328424Y-53556826D01*
X115282679Y-53707629D01*
X115208392Y-53846608D01*
X115108425Y-53968419D01*
X115108423Y-53968420D01*
X115108422Y-53968422D01*
X115108418Y-53968425D01*
X114986604Y-54068394D01*
X114847628Y-54142679D01*
X114772226Y-54165552D01*
X114696826Y-54188424D01*
X114540000Y-54203870D01*
X114383173Y-54188424D01*
X114307773Y-54165552D01*
X114232371Y-54142679D01*
X114093392Y-54068392D01*
X113971581Y-53968425D01*
X113971580Y-53968423D01*
X113971578Y-53968422D01*
X113871607Y-53846605D01*
X113871606Y-53846604D01*
X113797321Y-53707628D01*
X113774448Y-53632226D01*
X113751576Y-53556826D01*
X113740000Y-53439292D01*
X113740000Y-52560707D01*
X113751577Y-52443173D01*
X113797322Y-52292372D01*
X113797322Y-52292371D01*
X113871609Y-52153392D01*
X113971579Y-52031578D01*
X114093393Y-51931608D01*
X114232372Y-51857321D01*
X114307773Y-51834449D01*
X114383174Y-51811576D01*
X114540000Y-51796130D01*
X114696827Y-51811576D01*
X114696827Y-51811576D01*
G37*
G36*
X181896827Y-51811576D02*
X181972227Y-51834448D01*
X182047629Y-51857321D01*
X182186608Y-51931608D01*
X182308422Y-52031578D01*
X182408392Y-52153392D01*
X182482679Y-52292371D01*
X182528424Y-52443174D01*
X182540000Y-52560705D01*
X182540000Y-53439295D01*
X182528424Y-53556826D01*
X182482679Y-53707629D01*
X182408392Y-53846608D01*
X182308425Y-53968419D01*
X182308423Y-53968420D01*
X182308422Y-53968422D01*
X182308418Y-53968425D01*
X182186604Y-54068394D01*
X182047628Y-54142679D01*
X181972226Y-54165552D01*
X181896826Y-54188424D01*
X181740000Y-54203870D01*
X181583173Y-54188424D01*
X181507773Y-54165552D01*
X181432371Y-54142679D01*
X181293392Y-54068392D01*
X181171581Y-53968425D01*
X181171580Y-53968423D01*
X181171578Y-53968422D01*
X181071607Y-53846605D01*
X181071606Y-53846604D01*
X180997321Y-53707628D01*
X180974448Y-53632226D01*
X180951576Y-53556826D01*
X180940000Y-53439292D01*
X180940000Y-52560707D01*
X180951577Y-52443173D01*
X180997322Y-52292372D01*
X180997322Y-52292371D01*
X181071609Y-52153392D01*
X181171579Y-52031578D01*
X181293393Y-51931608D01*
X181432372Y-51857321D01*
X181507773Y-51834449D01*
X181583174Y-51811576D01*
X181740000Y-51796130D01*
X181896827Y-51811576D01*
X181896827Y-51811576D01*
G37*
G36*
X124856827Y-51811576D02*
X124932227Y-51834448D01*
X125007629Y-51857321D01*
X125146608Y-51931608D01*
X125268422Y-52031578D01*
X125368392Y-52153392D01*
X125442679Y-52292371D01*
X125488424Y-52443174D01*
X125500000Y-52560705D01*
X125500000Y-53439295D01*
X125488424Y-53556826D01*
X125442679Y-53707629D01*
X125368392Y-53846608D01*
X125268425Y-53968419D01*
X125268423Y-53968420D01*
X125268422Y-53968422D01*
X125268418Y-53968425D01*
X125146604Y-54068394D01*
X125007628Y-54142679D01*
X124932226Y-54165552D01*
X124856826Y-54188424D01*
X124700000Y-54203870D01*
X124543173Y-54188424D01*
X124467773Y-54165552D01*
X124392371Y-54142679D01*
X124253392Y-54068392D01*
X124131581Y-53968425D01*
X124131580Y-53968423D01*
X124131578Y-53968422D01*
X124031607Y-53846605D01*
X124031606Y-53846604D01*
X123957321Y-53707628D01*
X123934448Y-53632226D01*
X123911576Y-53556826D01*
X123900000Y-53439292D01*
X123900000Y-52560707D01*
X123911577Y-52443173D01*
X123957322Y-52292372D01*
X123957322Y-52292371D01*
X124031609Y-52153392D01*
X124131579Y-52031578D01*
X124253393Y-51931608D01*
X124392372Y-51857321D01*
X124467773Y-51834449D01*
X124543174Y-51811576D01*
X124700000Y-51796130D01*
X124856827Y-51811576D01*
X124856827Y-51811576D01*
G37*
G36*
X112800000Y-54200000D02*
X111200000Y-54200000D01*
X111200000Y-51800000D01*
X112800000Y-51800000D01*
X112800000Y-54200000D01*
X112800000Y-54200000D01*
G37*
G36*
X167300000Y-54200000D02*
X165700000Y-54200000D01*
X165700000Y-51800000D01*
X167300000Y-51800000D01*
X167300000Y-54200000D01*
X167300000Y-54200000D01*
G37*
G36*
X189637224Y-52690128D02*
X189769175Y-52730155D01*
X189890781Y-52795155D01*
X189997370Y-52882630D01*
X190084845Y-52989219D01*
X190149845Y-53110825D01*
X190189872Y-53242776D01*
X190203387Y-53380000D01*
X190189872Y-53517224D01*
X190149845Y-53649175D01*
X190084845Y-53770781D01*
X189997370Y-53877370D01*
X189890781Y-53964845D01*
X189769175Y-54029845D01*
X189637224Y-54069872D01*
X189534390Y-54080000D01*
X189465610Y-54080000D01*
X189362776Y-54069872D01*
X189230825Y-54029845D01*
X189109219Y-53964845D01*
X189002630Y-53877370D01*
X188915155Y-53770781D01*
X188850155Y-53649175D01*
X188810128Y-53517224D01*
X188796613Y-53380000D01*
X188810128Y-53242776D01*
X188850155Y-53110825D01*
X188915155Y-52989219D01*
X189002630Y-52882630D01*
X189109219Y-52795155D01*
X189230825Y-52730155D01*
X189362776Y-52690128D01*
X189465610Y-52680000D01*
X189534390Y-52680000D01*
X189637224Y-52690128D01*
X189637224Y-52690128D01*
G37*
G36*
X135137224Y-52690128D02*
X135269175Y-52730155D01*
X135390781Y-52795155D01*
X135497370Y-52882630D01*
X135584845Y-52989219D01*
X135649845Y-53110825D01*
X135689872Y-53242776D01*
X135703387Y-53380000D01*
X135689872Y-53517224D01*
X135649845Y-53649175D01*
X135584845Y-53770781D01*
X135497370Y-53877370D01*
X135390781Y-53964845D01*
X135269175Y-54029845D01*
X135137224Y-54069872D01*
X135034390Y-54080000D01*
X134965610Y-54080000D01*
X134862776Y-54069872D01*
X134730825Y-54029845D01*
X134609219Y-53964845D01*
X134502630Y-53877370D01*
X134415155Y-53770781D01*
X134350155Y-53649175D01*
X134310128Y-53517224D01*
X134296613Y-53380000D01*
X134310128Y-53242776D01*
X134350155Y-53110825D01*
X134415155Y-52989219D01*
X134502630Y-52882630D01*
X134609219Y-52795155D01*
X134730825Y-52730155D01*
X134862776Y-52690128D01*
X134965610Y-52680000D01*
X135034390Y-52680000D01*
X135137224Y-52690128D01*
X135137224Y-52690128D01*
G37*
G36*
X187257224Y-48310128D02*
X187389175Y-48350155D01*
X187510781Y-48415155D01*
X187617370Y-48502630D01*
X187704845Y-48609219D01*
X187769845Y-48730825D01*
X187809872Y-48862776D01*
X187823387Y-49000000D01*
X187809872Y-49137224D01*
X187769845Y-49269175D01*
X187704845Y-49390781D01*
X187617370Y-49497370D01*
X187510781Y-49584845D01*
X187389175Y-49649845D01*
X187257224Y-49689872D01*
X187154390Y-49700000D01*
X187085610Y-49700000D01*
X186982776Y-49689872D01*
X186850825Y-49649845D01*
X186729219Y-49584845D01*
X186622630Y-49497370D01*
X186535155Y-49390781D01*
X186470155Y-49269175D01*
X186430128Y-49137224D01*
X186416613Y-49000000D01*
X186430128Y-48862776D01*
X186470155Y-48730825D01*
X186535155Y-48609219D01*
X186622630Y-48502630D01*
X186729219Y-48415155D01*
X186850825Y-48350155D01*
X186982776Y-48310128D01*
X187085610Y-48300000D01*
X187154390Y-48300000D01*
X187257224Y-48310128D01*
X187257224Y-48310128D01*
G37*
G36*
X179704183Y-48326900D02*
X179831574Y-48379668D01*
X179946224Y-48456274D01*
X180043726Y-48553776D01*
X180088197Y-48620332D01*
X180120332Y-48668426D01*
X180173100Y-48795817D01*
X180200000Y-48931055D01*
X180200000Y-49068945D01*
X180173100Y-49204183D01*
X180120332Y-49331574D01*
X180043726Y-49446224D01*
X179946224Y-49543726D01*
X179831574Y-49620332D01*
X179704183Y-49673100D01*
X179568945Y-49700000D01*
X179431055Y-49700000D01*
X179295817Y-49673100D01*
X179168426Y-49620332D01*
X179053776Y-49543726D01*
X178956274Y-49446224D01*
X178879668Y-49331574D01*
X178826900Y-49204183D01*
X178800000Y-49068945D01*
X178800000Y-48931055D01*
X178826900Y-48795817D01*
X178879668Y-48668426D01*
X178911803Y-48620332D01*
X178956274Y-48553776D01*
X179053776Y-48456274D01*
X179168426Y-48379668D01*
X179295817Y-48326900D01*
X179431055Y-48300000D01*
X179568945Y-48300000D01*
X179704183Y-48326900D01*
X179704183Y-48326900D01*
G37*
G36*
X119757224Y-47340128D02*
X119889175Y-47380155D01*
X120010781Y-47445155D01*
X120117370Y-47532630D01*
X120204845Y-47639219D01*
X120269845Y-47760825D01*
X120309872Y-47892776D01*
X120323387Y-48030000D01*
X120309872Y-48167224D01*
X120269845Y-48299175D01*
X120204845Y-48420781D01*
X120117370Y-48527370D01*
X120010781Y-48614845D01*
X119889175Y-48679845D01*
X119757224Y-48719872D01*
X119654390Y-48730000D01*
X119585610Y-48730000D01*
X119482776Y-48719872D01*
X119350825Y-48679845D01*
X119229219Y-48614845D01*
X119122630Y-48527370D01*
X119035155Y-48420781D01*
X118970155Y-48299175D01*
X118930128Y-48167224D01*
X118916613Y-48030000D01*
X118930128Y-47892776D01*
X118970155Y-47760825D01*
X119035155Y-47639219D01*
X119122630Y-47532630D01*
X119229219Y-47445155D01*
X119350825Y-47380155D01*
X119482776Y-47340128D01*
X119585610Y-47330000D01*
X119654390Y-47330000D01*
X119757224Y-47340128D01*
X119757224Y-47340128D01*
G37*
G36*
X112204183Y-47356900D02*
X112331574Y-47409668D01*
X112384685Y-47445155D01*
X112446225Y-47486275D01*
X112543725Y-47583775D01*
X112620332Y-47698426D01*
X112673100Y-47825817D01*
X112700000Y-47961055D01*
X112700000Y-48098945D01*
X112673100Y-48234183D01*
X112625062Y-48350155D01*
X112620332Y-48361574D01*
X112543726Y-48476224D01*
X112446224Y-48573726D01*
X112331574Y-48650332D01*
X112204183Y-48703100D01*
X112068945Y-48730000D01*
X111931055Y-48730000D01*
X111795817Y-48703100D01*
X111668426Y-48650332D01*
X111553776Y-48573726D01*
X111456274Y-48476224D01*
X111379668Y-48361574D01*
X111374938Y-48350155D01*
X111326900Y-48234183D01*
X111300000Y-48098945D01*
X111300000Y-47961055D01*
X111326900Y-47825817D01*
X111379668Y-47698426D01*
X111456275Y-47583775D01*
X111553775Y-47486275D01*
X111615316Y-47445155D01*
X111668426Y-47409668D01*
X111795817Y-47356900D01*
X111931055Y-47330000D01*
X112068945Y-47330000D01*
X112204183Y-47356900D01*
X112204183Y-47356900D01*
G37*
G36*
X125204183Y-47326900D02*
X125331574Y-47379668D01*
X125446224Y-47456274D01*
X125543726Y-47553776D01*
X125563771Y-47583776D01*
X125620332Y-47668426D01*
X125673100Y-47795817D01*
X125700000Y-47931055D01*
X125700000Y-48068945D01*
X125673100Y-48204183D01*
X125620332Y-48331574D01*
X125543725Y-48446225D01*
X125446225Y-48543725D01*
X125331574Y-48620332D01*
X125204183Y-48673100D01*
X125068945Y-48700000D01*
X124931055Y-48700000D01*
X124795817Y-48673100D01*
X124668426Y-48620332D01*
X124553775Y-48543725D01*
X124456275Y-48446225D01*
X124379668Y-48331574D01*
X124326900Y-48204183D01*
X124300000Y-48068945D01*
X124300000Y-47931055D01*
X124326900Y-47795817D01*
X124379668Y-47668426D01*
X124436229Y-47583776D01*
X124456274Y-47553776D01*
X124553776Y-47456274D01*
X124668426Y-47379668D01*
X124795817Y-47326900D01*
X124931055Y-47300000D01*
X125068945Y-47300000D01*
X125204183Y-47326900D01*
X125204183Y-47326900D01*
G37*
G36*
X151946630Y-43162299D02*
X152106855Y-43210903D01*
X152254520Y-43289831D01*
X152383949Y-43396051D01*
X152490169Y-43525480D01*
X152569097Y-43673145D01*
X152617701Y-43833370D01*
X152634112Y-44000000D01*
X152617701Y-44166630D01*
X152569097Y-44326855D01*
X152490169Y-44474520D01*
X152383949Y-44603949D01*
X152254520Y-44710169D01*
X152106855Y-44789097D01*
X151946630Y-44837701D01*
X151821752Y-44850000D01*
X151738248Y-44850000D01*
X151613370Y-44837701D01*
X151453145Y-44789097D01*
X151305480Y-44710169D01*
X151176051Y-44603949D01*
X151069831Y-44474520D01*
X150990903Y-44326855D01*
X150942299Y-44166630D01*
X150925888Y-44000000D01*
X150942299Y-43833370D01*
X150990903Y-43673145D01*
X151069831Y-43525480D01*
X151176051Y-43396051D01*
X151305480Y-43289831D01*
X151453145Y-43210903D01*
X151613370Y-43162299D01*
X151738248Y-43150000D01*
X151821752Y-43150000D01*
X151946630Y-43162299D01*
X151946630Y-43162299D01*
G37*
G36*
X157026630Y-43162299D02*
X157186855Y-43210903D01*
X157334520Y-43289831D01*
X157463949Y-43396051D01*
X157570169Y-43525480D01*
X157649097Y-43673145D01*
X157697701Y-43833370D01*
X157714112Y-44000000D01*
X157697701Y-44166630D01*
X157649097Y-44326855D01*
X157570169Y-44474520D01*
X157463949Y-44603949D01*
X157334520Y-44710169D01*
X157186855Y-44789097D01*
X157026630Y-44837701D01*
X156901752Y-44850000D01*
X156818248Y-44850000D01*
X156693370Y-44837701D01*
X156533145Y-44789097D01*
X156385480Y-44710169D01*
X156256051Y-44603949D01*
X156149831Y-44474520D01*
X156070903Y-44326855D01*
X156022299Y-44166630D01*
X156005888Y-44000000D01*
X156022299Y-43833370D01*
X156070903Y-43673145D01*
X156149831Y-43525480D01*
X156256051Y-43396051D01*
X156385480Y-43289831D01*
X156533145Y-43210903D01*
X156693370Y-43162299D01*
X156818248Y-43150000D01*
X156901752Y-43150000D01*
X157026630Y-43162299D01*
X157026630Y-43162299D01*
G37*
G36*
X154486630Y-43162299D02*
X154646855Y-43210903D01*
X154794520Y-43289831D01*
X154923949Y-43396051D01*
X155030169Y-43525480D01*
X155109097Y-43673145D01*
X155157701Y-43833370D01*
X155174112Y-44000000D01*
X155157701Y-44166630D01*
X155109097Y-44326855D01*
X155030169Y-44474520D01*
X154923949Y-44603949D01*
X154794520Y-44710169D01*
X154646855Y-44789097D01*
X154486630Y-44837701D01*
X154361752Y-44850000D01*
X154278248Y-44850000D01*
X154153370Y-44837701D01*
X153993145Y-44789097D01*
X153845480Y-44710169D01*
X153716051Y-44603949D01*
X153609831Y-44474520D01*
X153530903Y-44326855D01*
X153482299Y-44166630D01*
X153465888Y-44000000D01*
X153482299Y-43833370D01*
X153530903Y-43673145D01*
X153609831Y-43525480D01*
X153716051Y-43396051D01*
X153845480Y-43289831D01*
X153993145Y-43210903D01*
X154153370Y-43162299D01*
X154278248Y-43150000D01*
X154361752Y-43150000D01*
X154486630Y-43162299D01*
X154486630Y-43162299D01*
G37*
G36*
X149406630Y-43162299D02*
X149566855Y-43210903D01*
X149714520Y-43289831D01*
X149843949Y-43396051D01*
X149950169Y-43525480D01*
X150029097Y-43673145D01*
X150077701Y-43833370D01*
X150094112Y-44000000D01*
X150077701Y-44166630D01*
X150029097Y-44326855D01*
X149950169Y-44474520D01*
X149843949Y-44603949D01*
X149714520Y-44710169D01*
X149566855Y-44789097D01*
X149406630Y-44837701D01*
X149281752Y-44850000D01*
X149198248Y-44850000D01*
X149073370Y-44837701D01*
X148913145Y-44789097D01*
X148765480Y-44710169D01*
X148636051Y-44603949D01*
X148529831Y-44474520D01*
X148450903Y-44326855D01*
X148402299Y-44166630D01*
X148385888Y-44000000D01*
X148402299Y-43833370D01*
X148450903Y-43673145D01*
X148529831Y-43525480D01*
X148636051Y-43396051D01*
X148765480Y-43289831D01*
X148913145Y-43210903D01*
X149073370Y-43162299D01*
X149198248Y-43150000D01*
X149281752Y-43150000D01*
X149406630Y-43162299D01*
X149406630Y-43162299D01*
G37*
G36*
X146866630Y-43162299D02*
X147026855Y-43210903D01*
X147174520Y-43289831D01*
X147303949Y-43396051D01*
X147410169Y-43525480D01*
X147489097Y-43673145D01*
X147537701Y-43833370D01*
X147554112Y-44000000D01*
X147537701Y-44166630D01*
X147489097Y-44326855D01*
X147410169Y-44474520D01*
X147303949Y-44603949D01*
X147174520Y-44710169D01*
X147026855Y-44789097D01*
X146866630Y-44837701D01*
X146741752Y-44850000D01*
X146658248Y-44850000D01*
X146533370Y-44837701D01*
X146373145Y-44789097D01*
X146225480Y-44710169D01*
X146096051Y-44603949D01*
X145989831Y-44474520D01*
X145910903Y-44326855D01*
X145862299Y-44166630D01*
X145845888Y-44000000D01*
X145862299Y-43833370D01*
X145910903Y-43673145D01*
X145989831Y-43525480D01*
X146096051Y-43396051D01*
X146225480Y-43289831D01*
X146373145Y-43210903D01*
X146533370Y-43162299D01*
X146658248Y-43150000D01*
X146741752Y-43150000D01*
X146866630Y-43162299D01*
X146866630Y-43162299D01*
G37*
G36*
X144326630Y-43162299D02*
X144486855Y-43210903D01*
X144634520Y-43289831D01*
X144763949Y-43396051D01*
X144870169Y-43525480D01*
X144949097Y-43673145D01*
X144997701Y-43833370D01*
X145014112Y-44000000D01*
X144997701Y-44166630D01*
X144949097Y-44326855D01*
X144870169Y-44474520D01*
X144763949Y-44603949D01*
X144634520Y-44710169D01*
X144486855Y-44789097D01*
X144326630Y-44837701D01*
X144201752Y-44850000D01*
X144118248Y-44850000D01*
X143993370Y-44837701D01*
X143833145Y-44789097D01*
X143685480Y-44710169D01*
X143556051Y-44603949D01*
X143449831Y-44474520D01*
X143370903Y-44326855D01*
X143322299Y-44166630D01*
X143305888Y-44000000D01*
X143322299Y-43833370D01*
X143370903Y-43673145D01*
X143449831Y-43525480D01*
X143556051Y-43396051D01*
X143685480Y-43289831D01*
X143833145Y-43210903D01*
X143993370Y-43162299D01*
X144118248Y-43150000D01*
X144201752Y-43150000D01*
X144326630Y-43162299D01*
X144326630Y-43162299D01*
G37*
G36*
X162106630Y-43162299D02*
X162266855Y-43210903D01*
X162414520Y-43289831D01*
X162543949Y-43396051D01*
X162650169Y-43525480D01*
X162729097Y-43673145D01*
X162777701Y-43833370D01*
X162794112Y-44000000D01*
X162777701Y-44166630D01*
X162729097Y-44326855D01*
X162650169Y-44474520D01*
X162543949Y-44603949D01*
X162414520Y-44710169D01*
X162266855Y-44789097D01*
X162106630Y-44837701D01*
X161981752Y-44850000D01*
X161898248Y-44850000D01*
X161773370Y-44837701D01*
X161613145Y-44789097D01*
X161465480Y-44710169D01*
X161336051Y-44603949D01*
X161229831Y-44474520D01*
X161150903Y-44326855D01*
X161102299Y-44166630D01*
X161085888Y-44000000D01*
X161102299Y-43833370D01*
X161150903Y-43673145D01*
X161229831Y-43525480D01*
X161336051Y-43396051D01*
X161465480Y-43289831D01*
X161613145Y-43210903D01*
X161773370Y-43162299D01*
X161898248Y-43150000D01*
X161981752Y-43150000D01*
X162106630Y-43162299D01*
X162106630Y-43162299D01*
G37*
G36*
X134850000Y-44850000D02*
X133150000Y-44850000D01*
X133150000Y-43150000D01*
X134850000Y-43150000D01*
X134850000Y-44850000D01*
X134850000Y-44850000D01*
G37*
G36*
X136706630Y-43162299D02*
X136866855Y-43210903D01*
X137014520Y-43289831D01*
X137143949Y-43396051D01*
X137250169Y-43525480D01*
X137329097Y-43673145D01*
X137377701Y-43833370D01*
X137394112Y-44000000D01*
X137377701Y-44166630D01*
X137329097Y-44326855D01*
X137250169Y-44474520D01*
X137143949Y-44603949D01*
X137014520Y-44710169D01*
X136866855Y-44789097D01*
X136706630Y-44837701D01*
X136581752Y-44850000D01*
X136498248Y-44850000D01*
X136373370Y-44837701D01*
X136213145Y-44789097D01*
X136065480Y-44710169D01*
X135936051Y-44603949D01*
X135829831Y-44474520D01*
X135750903Y-44326855D01*
X135702299Y-44166630D01*
X135685888Y-44000000D01*
X135702299Y-43833370D01*
X135750903Y-43673145D01*
X135829831Y-43525480D01*
X135936051Y-43396051D01*
X136065480Y-43289831D01*
X136213145Y-43210903D01*
X136373370Y-43162299D01*
X136498248Y-43150000D01*
X136581752Y-43150000D01*
X136706630Y-43162299D01*
X136706630Y-43162299D01*
G37*
G36*
X139246630Y-43162299D02*
X139406855Y-43210903D01*
X139554520Y-43289831D01*
X139683949Y-43396051D01*
X139790169Y-43525480D01*
X139869097Y-43673145D01*
X139917701Y-43833370D01*
X139934112Y-44000000D01*
X139917701Y-44166630D01*
X139869097Y-44326855D01*
X139790169Y-44474520D01*
X139683949Y-44603949D01*
X139554520Y-44710169D01*
X139406855Y-44789097D01*
X139246630Y-44837701D01*
X139121752Y-44850000D01*
X139038248Y-44850000D01*
X138913370Y-44837701D01*
X138753145Y-44789097D01*
X138605480Y-44710169D01*
X138476051Y-44603949D01*
X138369831Y-44474520D01*
X138290903Y-44326855D01*
X138242299Y-44166630D01*
X138225888Y-44000000D01*
X138242299Y-43833370D01*
X138290903Y-43673145D01*
X138369831Y-43525480D01*
X138476051Y-43396051D01*
X138605480Y-43289831D01*
X138753145Y-43210903D01*
X138913370Y-43162299D01*
X139038248Y-43150000D01*
X139121752Y-43150000D01*
X139246630Y-43162299D01*
X139246630Y-43162299D01*
G37*
G36*
X159566630Y-43162299D02*
X159726855Y-43210903D01*
X159874520Y-43289831D01*
X160003949Y-43396051D01*
X160110169Y-43525480D01*
X160189097Y-43673145D01*
X160237701Y-43833370D01*
X160254112Y-44000000D01*
X160237701Y-44166630D01*
X160189097Y-44326855D01*
X160110169Y-44474520D01*
X160003949Y-44603949D01*
X159874520Y-44710169D01*
X159726855Y-44789097D01*
X159566630Y-44837701D01*
X159441752Y-44850000D01*
X159358248Y-44850000D01*
X159233370Y-44837701D01*
X159073145Y-44789097D01*
X158925480Y-44710169D01*
X158796051Y-44603949D01*
X158689831Y-44474520D01*
X158610903Y-44326855D01*
X158562299Y-44166630D01*
X158545888Y-44000000D01*
X158562299Y-43833370D01*
X158610903Y-43673145D01*
X158689831Y-43525480D01*
X158796051Y-43396051D01*
X158925480Y-43289831D01*
X159073145Y-43210903D01*
X159233370Y-43162299D01*
X159358248Y-43150000D01*
X159441752Y-43150000D01*
X159566630Y-43162299D01*
X159566630Y-43162299D01*
G37*
G36*
X141786630Y-43162299D02*
X141946855Y-43210903D01*
X142094520Y-43289831D01*
X142223949Y-43396051D01*
X142330169Y-43525480D01*
X142409097Y-43673145D01*
X142457701Y-43833370D01*
X142474112Y-44000000D01*
X142457701Y-44166630D01*
X142409097Y-44326855D01*
X142330169Y-44474520D01*
X142223949Y-44603949D01*
X142094520Y-44710169D01*
X141946855Y-44789097D01*
X141786630Y-44837701D01*
X141661752Y-44850000D01*
X141578248Y-44850000D01*
X141453370Y-44837701D01*
X141293145Y-44789097D01*
X141145480Y-44710169D01*
X141016051Y-44603949D01*
X140909831Y-44474520D01*
X140830903Y-44326855D01*
X140782299Y-44166630D01*
X140765888Y-44000000D01*
X140782299Y-43833370D01*
X140830903Y-43673145D01*
X140909831Y-43525480D01*
X141016051Y-43396051D01*
X141145480Y-43289831D01*
X141293145Y-43210903D01*
X141453370Y-43162299D01*
X141578248Y-43150000D01*
X141661752Y-43150000D01*
X141786630Y-43162299D01*
X141786630Y-43162299D01*
G37*
G36*
X125137224Y-39690128D02*
X125269175Y-39730155D01*
X125390781Y-39795155D01*
X125497370Y-39882630D01*
X125584845Y-39989219D01*
X125649845Y-40110825D01*
X125689872Y-40242776D01*
X125703387Y-40380000D01*
X125689872Y-40517224D01*
X125649845Y-40649175D01*
X125584845Y-40770781D01*
X125497370Y-40877370D01*
X125390781Y-40964845D01*
X125269175Y-41029845D01*
X125137224Y-41069872D01*
X125034390Y-41080000D01*
X124965610Y-41080000D01*
X124862776Y-41069872D01*
X124730825Y-41029845D01*
X124609219Y-40964845D01*
X124502630Y-40877370D01*
X124415155Y-40770781D01*
X124350155Y-40649175D01*
X124310128Y-40517224D01*
X124296613Y-40380000D01*
X124310128Y-40242776D01*
X124350155Y-40110825D01*
X124415155Y-39989219D01*
X124502630Y-39882630D01*
X124609219Y-39795155D01*
X124730825Y-39730155D01*
X124862776Y-39690128D01*
X124965610Y-39680000D01*
X125034390Y-39680000D01*
X125137224Y-39690128D01*
X125137224Y-39690128D01*
G37*
G36*
X159204183Y-39326900D02*
X159331574Y-39379668D01*
X159384685Y-39415155D01*
X159446225Y-39456275D01*
X159543725Y-39553775D01*
X159620332Y-39668426D01*
X159673100Y-39795817D01*
X159700000Y-39931055D01*
X159700000Y-40068945D01*
X159673100Y-40204183D01*
X159620332Y-40331574D01*
X159543726Y-40446224D01*
X159446224Y-40543726D01*
X159331574Y-40620332D01*
X159204183Y-40673100D01*
X159068945Y-40700000D01*
X158931055Y-40700000D01*
X158795817Y-40673100D01*
X158668426Y-40620332D01*
X158553776Y-40543726D01*
X158456274Y-40446224D01*
X158379668Y-40331574D01*
X158326900Y-40204183D01*
X158300000Y-40068945D01*
X158300000Y-39931055D01*
X158326900Y-39795817D01*
X158379668Y-39668426D01*
X158456275Y-39553775D01*
X158553775Y-39456275D01*
X158615316Y-39415155D01*
X158668426Y-39379668D01*
X158795817Y-39326900D01*
X158931055Y-39300000D01*
X159068945Y-39300000D01*
X159204183Y-39326900D01*
X159204183Y-39326900D01*
G37*
G36*
X151517224Y-39310128D02*
X151649175Y-39350155D01*
X151770781Y-39415155D01*
X151877370Y-39502630D01*
X151964845Y-39609219D01*
X152029845Y-39730825D01*
X152069872Y-39862776D01*
X152083387Y-40000000D01*
X152069872Y-40137224D01*
X152029845Y-40269175D01*
X151964845Y-40390781D01*
X151877370Y-40497370D01*
X151770781Y-40584845D01*
X151649175Y-40649845D01*
X151517224Y-40689872D01*
X151414390Y-40700000D01*
X151345610Y-40700000D01*
X151242776Y-40689872D01*
X151110825Y-40649845D01*
X150989219Y-40584845D01*
X150882630Y-40497370D01*
X150795155Y-40390781D01*
X150730155Y-40269175D01*
X150690128Y-40137224D01*
X150676613Y-40000000D01*
X150690128Y-39862776D01*
X150730155Y-39730825D01*
X150795155Y-39609219D01*
X150882630Y-39502630D01*
X150989219Y-39415155D01*
X151110825Y-39350155D01*
X151242776Y-39310128D01*
X151345610Y-39300000D01*
X151414390Y-39300000D01*
X151517224Y-39310128D01*
X151517224Y-39310128D01*
G37*
G36*
X110841835Y-34538429D02*
X110938434Y-34557644D01*
X111211417Y-34670717D01*
X111274732Y-34713023D01*
X111457097Y-34834876D01*
X111666024Y-35043803D01*
X111666026Y-35043806D01*
X111830183Y-35289483D01*
X111943256Y-35562466D01*
X112000900Y-35852263D01*
X112000900Y-36147737D01*
X111943256Y-36437534D01*
X111830183Y-36710517D01*
X111806416Y-36746086D01*
X111666024Y-36956197D01*
X111457097Y-37165124D01*
X111457094Y-37165126D01*
X111211417Y-37329283D01*
X110938434Y-37442356D01*
X110841835Y-37461571D01*
X110648639Y-37500000D01*
X110353161Y-37500000D01*
X110159965Y-37461571D01*
X110063366Y-37442356D01*
X109790383Y-37329283D01*
X109544706Y-37165126D01*
X109544703Y-37165124D01*
X109335776Y-36956197D01*
X109195384Y-36746086D01*
X109171617Y-36710517D01*
X109058544Y-36437534D01*
X109000900Y-36147737D01*
X109000900Y-35852263D01*
X109058544Y-35562466D01*
X109171617Y-35289483D01*
X109335774Y-35043806D01*
X109335776Y-35043803D01*
X109544703Y-34834876D01*
X109727068Y-34713023D01*
X109790383Y-34670717D01*
X110063366Y-34557644D01*
X110159965Y-34538429D01*
X110353161Y-34500000D01*
X110648639Y-34500000D01*
X110841835Y-34538429D01*
X110841835Y-34538429D01*
G37*
G36*
X185840935Y-34538429D02*
X185937534Y-34557644D01*
X186210517Y-34670717D01*
X186273832Y-34713023D01*
X186456197Y-34834876D01*
X186665124Y-35043803D01*
X186665126Y-35043806D01*
X186829283Y-35289483D01*
X186942356Y-35562466D01*
X187000000Y-35852263D01*
X187000000Y-36147737D01*
X186942356Y-36437534D01*
X186829283Y-36710517D01*
X186805516Y-36746086D01*
X186665124Y-36956197D01*
X186456197Y-37165124D01*
X186456194Y-37165126D01*
X186210517Y-37329283D01*
X185937534Y-37442356D01*
X185840935Y-37461571D01*
X185647739Y-37500000D01*
X185352261Y-37500000D01*
X185159065Y-37461571D01*
X185062466Y-37442356D01*
X184789483Y-37329283D01*
X184543806Y-37165126D01*
X184543803Y-37165124D01*
X184334876Y-36956197D01*
X184194484Y-36746086D01*
X184170717Y-36710517D01*
X184057644Y-36437534D01*
X184000000Y-36147737D01*
X184000000Y-35852263D01*
X184057644Y-35562466D01*
X184170717Y-35289483D01*
X184334874Y-35043806D01*
X184334876Y-35043803D01*
X184543803Y-34834876D01*
X184726168Y-34713023D01*
X184789483Y-34670717D01*
X185062466Y-34557644D01*
X185159065Y-34538429D01*
X185352261Y-34500000D01*
X185647739Y-34500000D01*
X185840935Y-34538429D01*
X185840935Y-34538429D01*
G37*
G36*
X154276431Y-34713022D02*
X154446076Y-34764484D01*
X154602436Y-34848059D01*
X154739475Y-34960525D01*
X154851944Y-35097567D01*
X154935515Y-35253919D01*
X154986978Y-35423568D01*
X155000000Y-35555789D01*
X155000000Y-36444210D01*
X154986978Y-36576426D01*
X154986977Y-36576428D01*
X154986977Y-36576431D01*
X154946302Y-36710517D01*
X154935512Y-36746086D01*
X154851944Y-36902433D01*
X154739475Y-37039475D01*
X154602433Y-37151944D01*
X154446081Y-37235515D01*
X154276432Y-37286978D01*
X154100000Y-37304354D01*
X153923569Y-37286978D01*
X153753920Y-37235515D01*
X153597568Y-37151944D01*
X153460526Y-37039475D01*
X153348057Y-36902433D01*
X153264486Y-36746081D01*
X153213023Y-36576432D01*
X153200000Y-36444210D01*
X153200000Y-35555790D01*
X153213022Y-35423569D01*
X153264484Y-35253924D01*
X153348059Y-35097564D01*
X153460525Y-34960525D01*
X153597567Y-34848056D01*
X153753919Y-34764485D01*
X153923568Y-34713022D01*
X154100000Y-34695646D01*
X154276431Y-34713022D01*
X154276431Y-34713022D01*
G37*
G36*
X128876431Y-34713022D02*
X129046076Y-34764484D01*
X129202436Y-34848059D01*
X129339475Y-34960525D01*
X129451944Y-35097567D01*
X129535515Y-35253919D01*
X129586978Y-35423568D01*
X129600000Y-35555789D01*
X129600000Y-36444210D01*
X129586978Y-36576426D01*
X129586977Y-36576428D01*
X129586977Y-36576431D01*
X129546302Y-36710517D01*
X129535512Y-36746086D01*
X129451944Y-36902433D01*
X129339475Y-37039475D01*
X129202433Y-37151944D01*
X129046081Y-37235515D01*
X128876432Y-37286978D01*
X128700000Y-37304354D01*
X128523569Y-37286978D01*
X128353920Y-37235515D01*
X128197568Y-37151944D01*
X128060526Y-37039475D01*
X127948057Y-36902433D01*
X127864486Y-36746081D01*
X127813023Y-36576432D01*
X127800000Y-36444210D01*
X127800000Y-35555790D01*
X127813022Y-35423569D01*
X127864484Y-35253924D01*
X127948059Y-35097564D01*
X128060525Y-34960525D01*
X128197567Y-34848056D01*
X128353919Y-34764485D01*
X128523568Y-34713022D01*
X128700000Y-34695646D01*
X128876431Y-34713022D01*
X128876431Y-34713022D01*
G37*
G36*
X136496431Y-34713022D02*
X136666076Y-34764484D01*
X136822436Y-34848059D01*
X136959475Y-34960525D01*
X137071944Y-35097567D01*
X137155515Y-35253919D01*
X137206978Y-35423568D01*
X137220000Y-35555789D01*
X137220000Y-36444210D01*
X137206978Y-36576426D01*
X137206977Y-36576428D01*
X137206977Y-36576431D01*
X137166302Y-36710517D01*
X137155512Y-36746086D01*
X137071944Y-36902433D01*
X136959475Y-37039475D01*
X136822433Y-37151944D01*
X136666081Y-37235515D01*
X136496432Y-37286978D01*
X136320000Y-37304354D01*
X136143569Y-37286978D01*
X135973920Y-37235515D01*
X135817568Y-37151944D01*
X135680526Y-37039475D01*
X135568057Y-36902433D01*
X135484486Y-36746081D01*
X135433023Y-36576432D01*
X135420000Y-36444210D01*
X135420000Y-35555790D01*
X135433022Y-35423569D01*
X135484484Y-35253924D01*
X135568059Y-35097564D01*
X135680525Y-34960525D01*
X135817567Y-34848056D01*
X135973919Y-34764485D01*
X136143568Y-34713022D01*
X136320000Y-34695646D01*
X136496431Y-34713022D01*
X136496431Y-34713022D01*
G37*
G36*
X121256431Y-34713022D02*
X121426076Y-34764484D01*
X121582436Y-34848059D01*
X121719475Y-34960525D01*
X121831944Y-35097567D01*
X121915515Y-35253919D01*
X121966978Y-35423568D01*
X121980000Y-35555789D01*
X121980000Y-36444210D01*
X121966978Y-36576426D01*
X121966977Y-36576428D01*
X121966977Y-36576431D01*
X121926302Y-36710517D01*
X121915512Y-36746086D01*
X121831944Y-36902433D01*
X121719475Y-37039475D01*
X121582433Y-37151944D01*
X121426081Y-37235515D01*
X121256432Y-37286978D01*
X121080000Y-37304354D01*
X120903569Y-37286978D01*
X120733920Y-37235515D01*
X120577568Y-37151944D01*
X120440526Y-37039475D01*
X120328057Y-36902433D01*
X120244486Y-36746081D01*
X120193023Y-36576432D01*
X120180000Y-36444210D01*
X120180000Y-35555790D01*
X120193022Y-35423569D01*
X120244484Y-35253924D01*
X120328059Y-35097564D01*
X120440525Y-34960525D01*
X120577567Y-34848056D01*
X120733919Y-34764485D01*
X120903568Y-34713022D01*
X121080000Y-34695646D01*
X121256431Y-34713022D01*
X121256431Y-34713022D01*
G37*
G36*
X139036431Y-34713022D02*
X139206076Y-34764484D01*
X139362436Y-34848059D01*
X139499475Y-34960525D01*
X139611944Y-35097567D01*
X139695515Y-35253919D01*
X139746978Y-35423568D01*
X139760000Y-35555789D01*
X139760000Y-36444210D01*
X139746978Y-36576426D01*
X139746977Y-36576428D01*
X139746977Y-36576431D01*
X139706302Y-36710517D01*
X139695512Y-36746086D01*
X139611944Y-36902433D01*
X139499475Y-37039475D01*
X139362433Y-37151944D01*
X139206081Y-37235515D01*
X139036432Y-37286978D01*
X138860000Y-37304354D01*
X138683569Y-37286978D01*
X138513920Y-37235515D01*
X138357568Y-37151944D01*
X138220526Y-37039475D01*
X138108057Y-36902433D01*
X138024486Y-36746081D01*
X137973023Y-36576432D01*
X137960000Y-36444210D01*
X137960000Y-35555790D01*
X137973022Y-35423569D01*
X138024484Y-35253924D01*
X138108059Y-35097564D01*
X138220525Y-34960525D01*
X138357567Y-34848056D01*
X138513919Y-34764485D01*
X138683568Y-34713022D01*
X138860000Y-34695646D01*
X139036431Y-34713022D01*
X139036431Y-34713022D01*
G37*
G36*
X141576431Y-34713022D02*
X141746076Y-34764484D01*
X141902436Y-34848059D01*
X142039475Y-34960525D01*
X142151944Y-35097567D01*
X142235515Y-35253919D01*
X142286978Y-35423568D01*
X142300000Y-35555789D01*
X142300000Y-36444210D01*
X142286978Y-36576426D01*
X142286977Y-36576428D01*
X142286977Y-36576431D01*
X142246302Y-36710517D01*
X142235512Y-36746086D01*
X142151944Y-36902433D01*
X142039475Y-37039475D01*
X141902433Y-37151944D01*
X141746081Y-37235515D01*
X141576432Y-37286978D01*
X141400000Y-37304354D01*
X141223569Y-37286978D01*
X141053920Y-37235515D01*
X140897568Y-37151944D01*
X140760526Y-37039475D01*
X140648057Y-36902433D01*
X140564486Y-36746081D01*
X140513023Y-36576432D01*
X140500000Y-36444210D01*
X140500000Y-35555790D01*
X140513022Y-35423569D01*
X140564484Y-35253924D01*
X140648059Y-35097564D01*
X140760525Y-34960525D01*
X140897567Y-34848056D01*
X141053919Y-34764485D01*
X141223568Y-34713022D01*
X141400000Y-34695646D01*
X141576431Y-34713022D01*
X141576431Y-34713022D01*
G37*
G36*
X144116431Y-34713022D02*
X144286076Y-34764484D01*
X144442436Y-34848059D01*
X144579475Y-34960525D01*
X144691944Y-35097567D01*
X144775515Y-35253919D01*
X144826978Y-35423568D01*
X144840000Y-35555789D01*
X144840000Y-36444210D01*
X144826978Y-36576426D01*
X144826977Y-36576428D01*
X144826977Y-36576431D01*
X144786302Y-36710517D01*
X144775512Y-36746086D01*
X144691944Y-36902433D01*
X144579475Y-37039475D01*
X144442433Y-37151944D01*
X144286081Y-37235515D01*
X144116432Y-37286978D01*
X143940000Y-37304354D01*
X143763569Y-37286978D01*
X143593920Y-37235515D01*
X143437568Y-37151944D01*
X143300526Y-37039475D01*
X143188057Y-36902433D01*
X143104486Y-36746081D01*
X143053023Y-36576432D01*
X143040000Y-36444210D01*
X143040000Y-35555790D01*
X143053022Y-35423569D01*
X143104484Y-35253924D01*
X143188059Y-35097564D01*
X143300525Y-34960525D01*
X143437567Y-34848056D01*
X143593919Y-34764485D01*
X143763568Y-34713022D01*
X143940000Y-34695646D01*
X144116431Y-34713022D01*
X144116431Y-34713022D01*
G37*
G36*
X146656431Y-34713022D02*
X146826076Y-34764484D01*
X146982436Y-34848059D01*
X147119475Y-34960525D01*
X147231944Y-35097567D01*
X147315515Y-35253919D01*
X147366978Y-35423568D01*
X147380000Y-35555789D01*
X147380000Y-36444210D01*
X147366978Y-36576426D01*
X147366977Y-36576428D01*
X147366977Y-36576431D01*
X147326302Y-36710517D01*
X147315512Y-36746086D01*
X147231944Y-36902433D01*
X147119475Y-37039475D01*
X146982433Y-37151944D01*
X146826081Y-37235515D01*
X146656432Y-37286978D01*
X146480000Y-37304354D01*
X146303569Y-37286978D01*
X146133920Y-37235515D01*
X145977568Y-37151944D01*
X145840526Y-37039475D01*
X145728057Y-36902433D01*
X145644486Y-36746081D01*
X145593023Y-36576432D01*
X145580000Y-36444210D01*
X145580000Y-35555790D01*
X145593022Y-35423569D01*
X145644484Y-35253924D01*
X145728059Y-35097564D01*
X145840525Y-34960525D01*
X145977567Y-34848056D01*
X146133919Y-34764485D01*
X146303568Y-34713022D01*
X146480000Y-34695646D01*
X146656431Y-34713022D01*
X146656431Y-34713022D01*
G37*
G36*
X149196431Y-34713022D02*
X149366076Y-34764484D01*
X149522436Y-34848059D01*
X149659475Y-34960525D01*
X149771944Y-35097567D01*
X149855515Y-35253919D01*
X149906978Y-35423568D01*
X149920000Y-35555789D01*
X149920000Y-36444210D01*
X149906978Y-36576426D01*
X149906977Y-36576428D01*
X149906977Y-36576431D01*
X149866302Y-36710517D01*
X149855512Y-36746086D01*
X149771944Y-36902433D01*
X149659475Y-37039475D01*
X149522433Y-37151944D01*
X149366081Y-37235515D01*
X149196432Y-37286978D01*
X149020000Y-37304354D01*
X148843569Y-37286978D01*
X148673920Y-37235515D01*
X148517568Y-37151944D01*
X148380526Y-37039475D01*
X148268057Y-36902433D01*
X148184486Y-36746081D01*
X148133023Y-36576432D01*
X148120000Y-36444210D01*
X148120000Y-35555790D01*
X148133022Y-35423569D01*
X148184484Y-35253924D01*
X148268059Y-35097564D01*
X148380525Y-34960525D01*
X148517567Y-34848056D01*
X148673919Y-34764485D01*
X148843568Y-34713022D01*
X149020000Y-34695646D01*
X149196431Y-34713022D01*
X149196431Y-34713022D01*
G37*
G36*
X151736431Y-34713022D02*
X151906076Y-34764484D01*
X152062436Y-34848059D01*
X152199475Y-34960525D01*
X152311944Y-35097567D01*
X152395515Y-35253919D01*
X152446978Y-35423568D01*
X152460000Y-35555789D01*
X152460000Y-36444210D01*
X152446978Y-36576426D01*
X152446977Y-36576428D01*
X152446977Y-36576431D01*
X152406302Y-36710517D01*
X152395512Y-36746086D01*
X152311944Y-36902433D01*
X152199475Y-37039475D01*
X152062433Y-37151944D01*
X151906081Y-37235515D01*
X151736432Y-37286978D01*
X151560000Y-37304354D01*
X151383569Y-37286978D01*
X151213920Y-37235515D01*
X151057568Y-37151944D01*
X150920526Y-37039475D01*
X150808057Y-36902433D01*
X150724486Y-36746081D01*
X150673023Y-36576432D01*
X150660000Y-36444210D01*
X150660000Y-35555790D01*
X150673022Y-35423569D01*
X150724484Y-35253924D01*
X150808059Y-35097564D01*
X150920525Y-34960525D01*
X151057567Y-34848056D01*
X151213919Y-34764485D01*
X151383568Y-34713022D01*
X151560000Y-34695646D01*
X151736431Y-34713022D01*
X151736431Y-34713022D01*
G37*
G36*
X131416431Y-34713022D02*
X131586076Y-34764484D01*
X131742436Y-34848059D01*
X131879475Y-34960525D01*
X131991944Y-35097567D01*
X132075515Y-35253919D01*
X132126978Y-35423568D01*
X132140000Y-35555789D01*
X132140000Y-36444210D01*
X132126978Y-36576426D01*
X132126977Y-36576428D01*
X132126977Y-36576431D01*
X132086302Y-36710517D01*
X132075512Y-36746086D01*
X131991944Y-36902433D01*
X131879475Y-37039475D01*
X131742433Y-37151944D01*
X131586081Y-37235515D01*
X131416432Y-37286978D01*
X131240000Y-37304354D01*
X131063569Y-37286978D01*
X130893920Y-37235515D01*
X130737568Y-37151944D01*
X130600526Y-37039475D01*
X130488057Y-36902433D01*
X130404486Y-36746081D01*
X130353023Y-36576432D01*
X130340000Y-36444210D01*
X130340000Y-35555790D01*
X130353022Y-35423569D01*
X130404484Y-35253924D01*
X130488059Y-35097564D01*
X130600525Y-34960525D01*
X130737567Y-34848056D01*
X130893919Y-34764485D01*
X131063568Y-34713022D01*
X131240000Y-34695646D01*
X131416431Y-34713022D01*
X131416431Y-34713022D01*
G37*
G36*
X118716431Y-34713022D02*
X118886076Y-34764484D01*
X119042436Y-34848059D01*
X119179475Y-34960525D01*
X119291944Y-35097567D01*
X119375515Y-35253919D01*
X119426978Y-35423568D01*
X119440000Y-35555789D01*
X119440000Y-36444210D01*
X119426978Y-36576426D01*
X119426977Y-36576428D01*
X119426977Y-36576431D01*
X119386302Y-36710517D01*
X119375512Y-36746086D01*
X119291944Y-36902433D01*
X119179475Y-37039475D01*
X119042433Y-37151944D01*
X118886081Y-37235515D01*
X118716432Y-37286978D01*
X118540000Y-37304354D01*
X118363569Y-37286978D01*
X118193920Y-37235515D01*
X118037568Y-37151944D01*
X117900526Y-37039475D01*
X117788057Y-36902433D01*
X117704486Y-36746081D01*
X117653023Y-36576432D01*
X117640000Y-36444210D01*
X117640000Y-35555790D01*
X117653022Y-35423569D01*
X117704484Y-35253924D01*
X117788059Y-35097564D01*
X117900525Y-34960525D01*
X118037567Y-34848056D01*
X118193919Y-34764485D01*
X118363568Y-34713022D01*
X118540000Y-34695646D01*
X118716431Y-34713022D01*
X118716431Y-34713022D01*
G37*
G36*
X123796431Y-34713022D02*
X123966076Y-34764484D01*
X124122436Y-34848059D01*
X124259475Y-34960525D01*
X124371944Y-35097567D01*
X124455515Y-35253919D01*
X124506978Y-35423568D01*
X124520000Y-35555789D01*
X124520000Y-36444210D01*
X124506978Y-36576426D01*
X124506977Y-36576428D01*
X124506977Y-36576431D01*
X124466302Y-36710517D01*
X124455512Y-36746086D01*
X124371944Y-36902433D01*
X124259475Y-37039475D01*
X124122433Y-37151944D01*
X123966081Y-37235515D01*
X123796432Y-37286978D01*
X123620000Y-37304354D01*
X123443569Y-37286978D01*
X123273920Y-37235515D01*
X123117568Y-37151944D01*
X122980526Y-37039475D01*
X122868057Y-36902433D01*
X122784486Y-36746081D01*
X122733023Y-36576432D01*
X122720000Y-36444210D01*
X122720000Y-35555790D01*
X122733022Y-35423569D01*
X122784484Y-35253924D01*
X122868059Y-35097564D01*
X122980525Y-34960525D01*
X123117567Y-34848056D01*
X123273919Y-34764485D01*
X123443568Y-34713022D01*
X123620000Y-34695646D01*
X123796431Y-34713022D01*
X123796431Y-34713022D01*
G37*
G36*
X133956431Y-34713022D02*
X134126076Y-34764484D01*
X134282436Y-34848059D01*
X134419475Y-34960525D01*
X134531944Y-35097567D01*
X134615515Y-35253919D01*
X134666978Y-35423568D01*
X134680000Y-35555789D01*
X134680000Y-36444210D01*
X134666978Y-36576426D01*
X134666977Y-36576428D01*
X134666977Y-36576431D01*
X134626302Y-36710517D01*
X134615512Y-36746086D01*
X134531944Y-36902433D01*
X134419475Y-37039475D01*
X134282433Y-37151944D01*
X134126081Y-37235515D01*
X133956432Y-37286978D01*
X133780000Y-37304354D01*
X133603569Y-37286978D01*
X133433920Y-37235515D01*
X133277568Y-37151944D01*
X133140526Y-37039475D01*
X133028057Y-36902433D01*
X132944486Y-36746081D01*
X132893023Y-36576432D01*
X132880000Y-36444210D01*
X132880000Y-35555790D01*
X132893022Y-35423569D01*
X132944484Y-35253924D01*
X133028059Y-35097564D01*
X133140525Y-34960525D01*
X133277567Y-34848056D01*
X133433919Y-34764485D01*
X133603568Y-34713022D01*
X133780000Y-34695646D01*
X133956431Y-34713022D01*
X133956431Y-34713022D01*
G37*
G36*
X126336431Y-34713022D02*
X126506076Y-34764484D01*
X126662436Y-34848059D01*
X126799475Y-34960525D01*
X126911944Y-35097567D01*
X126995515Y-35253919D01*
X127046978Y-35423568D01*
X127060000Y-35555789D01*
X127060000Y-36444210D01*
X127046978Y-36576426D01*
X127046977Y-36576428D01*
X127046977Y-36576431D01*
X127006302Y-36710517D01*
X126995512Y-36746086D01*
X126911944Y-36902433D01*
X126799475Y-37039475D01*
X126662433Y-37151944D01*
X126506081Y-37235515D01*
X126336432Y-37286978D01*
X126160000Y-37304354D01*
X125983569Y-37286978D01*
X125813920Y-37235515D01*
X125657568Y-37151944D01*
X125520526Y-37039475D01*
X125408057Y-36902433D01*
X125324486Y-36746081D01*
X125273023Y-36576432D01*
X125260000Y-36444210D01*
X125260000Y-35555790D01*
X125273022Y-35423569D01*
X125324484Y-35253924D01*
X125408059Y-35097564D01*
X125520525Y-34960525D01*
X125657567Y-34848056D01*
X125813919Y-34764485D01*
X125983568Y-34713022D01*
X126160000Y-34695646D01*
X126336431Y-34713022D01*
X126336431Y-34713022D01*
G37*
G36*
X116900000Y-37300000D02*
X115100000Y-37300000D01*
X115100000Y-34700000D01*
X116900000Y-34700000D01*
X116900000Y-37300000D01*
X116900000Y-37300000D01*
G37*
G36*
X126204183Y-31326900D02*
X126331574Y-31379668D01*
X126384685Y-31415155D01*
X126446225Y-31456275D01*
X126543725Y-31553775D01*
X126620332Y-31668426D01*
X126673100Y-31795817D01*
X126700000Y-31931055D01*
X126700000Y-32068945D01*
X126673100Y-32204183D01*
X126620332Y-32331574D01*
X126543726Y-32446224D01*
X126446224Y-32543726D01*
X126331574Y-32620332D01*
X126204183Y-32673100D01*
X126068945Y-32700000D01*
X125931055Y-32700000D01*
X125795817Y-32673100D01*
X125668426Y-32620332D01*
X125553776Y-32543726D01*
X125456274Y-32446224D01*
X125379668Y-32331574D01*
X125326900Y-32204183D01*
X125300000Y-32068945D01*
X125300000Y-31931055D01*
X125326900Y-31795817D01*
X125379668Y-31668426D01*
X125456275Y-31553775D01*
X125553775Y-31456275D01*
X125615316Y-31415155D01*
X125668426Y-31379668D01*
X125795817Y-31326900D01*
X125931055Y-31300000D01*
X126068945Y-31300000D01*
X126204183Y-31326900D01*
X126204183Y-31326900D01*
G37*
G36*
X133757224Y-31310128D02*
X133889175Y-31350155D01*
X134010781Y-31415155D01*
X134117370Y-31502630D01*
X134204845Y-31609219D01*
X134269845Y-31730825D01*
X134309872Y-31862776D01*
X134323387Y-32000000D01*
X134309872Y-32137224D01*
X134269845Y-32269175D01*
X134204845Y-32390781D01*
X134117370Y-32497370D01*
X134010781Y-32584845D01*
X133889175Y-32649845D01*
X133757224Y-32689872D01*
X133654390Y-32700000D01*
X133585610Y-32700000D01*
X133482776Y-32689872D01*
X133350825Y-32649845D01*
X133229219Y-32584845D01*
X133122630Y-32497370D01*
X133035155Y-32390781D01*
X132970155Y-32269175D01*
X132930128Y-32137224D01*
X132916613Y-32000000D01*
X132930128Y-31862776D01*
X132970155Y-31730825D01*
X133035155Y-31609219D01*
X133122630Y-31502630D01*
X133229219Y-31415155D01*
X133350825Y-31350155D01*
X133482776Y-31310128D01*
X133585610Y-31300000D01*
X133654390Y-31300000D01*
X133757224Y-31310128D01*
X133757224Y-31310128D01*
G37*
M02*
