M48
;DRILL file {KiCad 5.0.2+dfsg1-1} date Sun 02 Jan 2022 07:08:44 PM PST
;FORMAT={-:-/ absolute / metric / decimal}
FMAT,2
METRIC,TZ
T1C1.700
T2C4.000
%
G90
G05
T1
X153.38Y-123.08
X163.54Y-123.08
X111.38Y-123.08
X121.54Y-123.08
X153.38Y-81.08
X163.54Y-81.08
X174.38Y-81.08
X184.54Y-81.08
X174.38Y-144.08
X184.54Y-144.08
X174.38Y-123.08
X184.54Y-123.08
X111.38Y-102.08
X121.54Y-102.08
X132.38Y-81.08
X142.54Y-81.08
X153.38Y-102.08
X163.54Y-102.08
X153.38Y-144.08
X163.54Y-144.08
X132.38Y-123.08
X142.54Y-123.08
X132.38Y-144.08
X142.54Y-144.08
X111.38Y-81.08
X121.54Y-81.08
X132.38Y-102.08
X142.54Y-102.08
X174.38Y-102.08
X184.54Y-102.08
X111.38Y-144.08
X121.54Y-144.08
T2
X179.46Y-144.08
X179.46Y-123.08
X116.46Y-102.08
X137.46Y-81.08
X158.46Y-102.08
X158.46Y-144.08
X137.46Y-123.08
X137.46Y-144.08
X116.46Y-81.08
X137.46Y-102.08
X179.46Y-102.08
X116.46Y-144.08
X158.46Y-123.08
X116.46Y-123.08
X158.46Y-81.08
X179.46Y-81.08
T0
M30
