%TF.GenerationSoftware,KiCad,Pcbnew,5.0.2+dfsg1-1*%
%TF.CreationDate,2022-01-02T18:45:16-08:00*%
%TF.ProjectId,brains,62726169-6e73-42e6-9b69-6361645f7063,rev?*%
%TF.SameCoordinates,Original*%
%TF.FileFunction,Copper,L2,Bot*%
%TF.FilePolarity,Positive*%
%FSLAX46Y46*%
G04 Gerber Fmt 4.6, Leading zero omitted, Abs format (unit mm)*
G04 Created by KiCad (PCBNEW 5.0.2+dfsg1-1) date Sun 02 Jan 2022 06:45:16 PM PST*
%MOMM*%
%LPD*%
G01*
G04 APERTURE LIST*
%ADD10C,3.000000*%
%ADD11O,1.700000X1.700000*%
%ADD12R,1.700000X1.700000*%
%ADD13R,1.600000X1.600000*%
%ADD14O,1.600000X1.600000*%
%ADD15O,2.400000X1.600000*%
%ADD16R,2.400000X1.600000*%
%ADD17C,2.000000*%
%ADD18C,1.700000*%
%ADD19C,1.800000*%
%ADD20R,1.800000X1.800000*%
%ADD21C,8.600000*%
%ADD22C,0.900000*%
%ADD23O,1.524000X2.500000*%
%ADD24C,4.600000*%
%ADD25R,2.500000X2.500000*%
%ADD26C,2.500000*%
%ADD27R,4.000000X8.000000*%
%ADD28R,8.000000X1.000000*%
%ADD29R,5.000000X3.000000*%
%ADD30C,0.800000*%
%ADD31C,1.000000*%
%ADD32C,0.250000*%
%ADD33C,0.600000*%
%ADD34C,0.254000*%
G04 APERTURE END LIST*
D10*
X149530000Y-146690000D03*
X149530000Y-139810000D03*
X118470000Y-139810000D03*
X118470000Y-146690000D03*
D11*
X110460000Y-34000000D03*
D12*
X113000000Y-34000000D03*
X134000000Y-44000000D03*
D11*
X136540000Y-44000000D03*
X139080000Y-44000000D03*
X141620000Y-44000000D03*
X144160000Y-44000000D03*
X146700000Y-44000000D03*
X149240000Y-44000000D03*
X151780000Y-44000000D03*
X154320000Y-44000000D03*
X156860000Y-44000000D03*
X159400000Y-44000000D03*
X161940000Y-44000000D03*
D13*
X153000000Y-131000000D03*
D14*
X186020000Y-115760000D03*
X155540000Y-131000000D03*
X183480000Y-115760000D03*
X158080000Y-131000000D03*
X180940000Y-115760000D03*
X160620000Y-131000000D03*
X178400000Y-115760000D03*
X163160000Y-131000000D03*
X175860000Y-115760000D03*
X165700000Y-131000000D03*
X173320000Y-115760000D03*
X168240000Y-131000000D03*
X170780000Y-115760000D03*
X170780000Y-131000000D03*
X168240000Y-115760000D03*
X173320000Y-131000000D03*
X165700000Y-115760000D03*
X175860000Y-131000000D03*
X163160000Y-115760000D03*
X178400000Y-131000000D03*
X160620000Y-115760000D03*
X180940000Y-131000000D03*
X158080000Y-115760000D03*
X183480000Y-131000000D03*
X155540000Y-115760000D03*
X186020000Y-131000000D03*
X153000000Y-115760000D03*
X188560000Y-131000000D03*
X188560000Y-115760000D03*
D12*
X185000000Y-34000000D03*
D11*
X182460000Y-34000000D03*
D15*
X129640000Y-102570000D03*
X122020000Y-110190000D03*
X129640000Y-105110000D03*
X122020000Y-107650000D03*
X129640000Y-107650000D03*
X122020000Y-105110000D03*
X129640000Y-110190000D03*
D16*
X122020000Y-102570000D03*
X169940000Y-91810000D03*
D15*
X177560000Y-99430000D03*
X169940000Y-94350000D03*
X177560000Y-96890000D03*
X169940000Y-96890000D03*
X177560000Y-94350000D03*
X169940000Y-99430000D03*
X177560000Y-91810000D03*
D12*
X156540000Y-136040000D03*
D11*
X156540000Y-138580000D03*
D17*
X142000000Y-154250000D03*
X154000000Y-154250000D03*
X154000000Y-160250000D03*
X142000000Y-160250000D03*
D18*
X144000000Y-156000000D03*
X148000000Y-156000000D03*
X152000000Y-156000000D03*
D19*
X150460000Y-34000000D03*
D20*
X153000000Y-34000000D03*
X145500000Y-34000000D03*
D19*
X142960000Y-34000000D03*
D12*
X188500000Y-122500000D03*
D11*
X185960000Y-122500000D03*
X183420000Y-122500000D03*
X180880000Y-122500000D03*
X178340000Y-122500000D03*
X175800000Y-122500000D03*
D21*
X109000000Y-157000000D03*
D22*
X109000000Y-160225000D03*
X111280419Y-159280419D03*
X112225000Y-157000000D03*
X111280419Y-154719581D03*
X109000000Y-153775000D03*
X106719581Y-154719581D03*
X105775000Y-157000000D03*
X106719581Y-159280419D03*
X184719581Y-159280419D03*
X183775000Y-157000000D03*
X184719581Y-154719581D03*
X187000000Y-153775000D03*
X189280419Y-154719581D03*
X190225000Y-157000000D03*
X189280419Y-159280419D03*
X187000000Y-160225000D03*
D21*
X187000000Y-157000000D03*
D23*
X128500000Y-33500000D03*
X133500000Y-38500000D03*
X131040000Y-38500000D03*
X126000000Y-38420000D03*
X123420000Y-38420000D03*
X162420000Y-38420000D03*
X165000000Y-38420000D03*
X170040000Y-38500000D03*
X172500000Y-38500000D03*
X167500000Y-33500000D03*
D17*
X146558000Y-131826000D03*
X141478000Y-131816000D03*
D19*
X111252000Y-129460000D03*
X111252000Y-126960000D03*
X111252000Y-124460000D03*
D24*
X114552000Y-131960000D03*
X114552000Y-121960000D03*
X114298000Y-99608000D03*
X114298000Y-109608000D03*
D19*
X110998000Y-102108000D03*
X110998000Y-104608000D03*
X110998000Y-107108000D03*
D25*
X171710000Y-74480000D03*
D26*
X171710000Y-82100000D03*
X156470000Y-82100000D03*
X156470000Y-74480000D03*
D27*
X133858000Y-143764000D03*
D28*
X133858000Y-145764000D03*
X133858000Y-141764000D03*
D29*
X127358000Y-143764000D03*
X140358000Y-143764000D03*
D30*
X177000000Y-113000000D03*
X172000000Y-113750000D03*
X176500000Y-129500000D03*
X160620000Y-85330000D03*
X140915000Y-89440000D03*
X147850000Y-92490000D03*
X176130000Y-90010000D03*
X179510000Y-89550000D03*
X171140000Y-127700000D03*
X162600000Y-121600000D03*
X155900000Y-126710000D03*
X154160000Y-110720000D03*
X158000000Y-113220000D03*
X158020000Y-120350000D03*
X155620000Y-119570000D03*
X170930000Y-118770000D03*
X168300000Y-117920000D03*
X153110000Y-49350000D03*
X125430000Y-105020000D03*
X132000000Y-157000000D03*
X105000000Y-80000000D03*
X105000000Y-72750000D03*
X105000000Y-60000000D03*
X105000000Y-53000000D03*
X105500000Y-38000000D03*
X190750000Y-36000000D03*
X189750000Y-55250000D03*
X187750000Y-149750000D03*
X148000000Y-160000000D03*
X145250000Y-160000000D03*
X150750000Y-160000000D03*
X139000000Y-90250000D03*
X137500000Y-82500000D03*
X146000000Y-79250000D03*
X178000000Y-119250000D03*
X180750000Y-119250000D03*
X183250000Y-119250000D03*
X174570000Y-110380000D03*
X179680000Y-111840000D03*
X180250000Y-126500000D03*
X186000000Y-126500000D03*
X183250000Y-146500000D03*
X169926000Y-153416000D03*
X184500000Y-50250000D03*
X184500000Y-56750000D03*
X136500000Y-156750000D03*
X163800000Y-110400000D03*
X186000000Y-118500000D03*
X190500000Y-75750000D03*
X190500000Y-92500000D03*
X114000000Y-84000000D03*
X114000000Y-86000000D03*
X114000000Y-88000000D03*
X114000000Y-90000000D03*
X114000000Y-82000000D03*
X114000000Y-92000000D03*
X130000000Y-91000000D03*
X131000000Y-92000000D03*
X132000000Y-93000000D03*
X133000000Y-94000000D03*
X134000000Y-95000000D03*
X135000000Y-96000000D03*
X136000000Y-97000000D03*
X137000000Y-98000000D03*
X129000000Y-90000000D03*
X138000000Y-99000000D03*
X132000000Y-88000000D03*
X133000000Y-89000000D03*
X134000000Y-90000000D03*
X135000000Y-91000000D03*
X136000000Y-92000000D03*
X137000000Y-93000000D03*
X138000000Y-94000000D03*
X139000000Y-95000000D03*
X140000000Y-96000000D03*
X141000000Y-97000000D03*
X139000000Y-101000000D03*
X139000000Y-103000000D03*
X138990000Y-105710000D03*
X139000000Y-109000000D03*
X139000000Y-111000000D03*
X138000000Y-113000000D03*
X143000000Y-101000000D03*
X143000000Y-103000000D03*
X142940000Y-105590000D03*
X143000000Y-109000000D03*
X143000000Y-111000000D03*
X143000000Y-113000000D03*
X141000000Y-115000000D03*
X117000000Y-82000000D03*
X117000000Y-84000000D03*
X117000000Y-86000000D03*
X117000000Y-88000000D03*
X117000000Y-90000000D03*
X117000000Y-92000000D03*
X114000000Y-63000000D03*
X114000000Y-65000000D03*
X114000000Y-67000000D03*
X114000000Y-69000000D03*
X114000000Y-71000000D03*
X114000000Y-61000000D03*
X117000000Y-61000000D03*
X117000000Y-63000000D03*
X117000000Y-65000000D03*
X117000000Y-67000000D03*
X117000000Y-69000000D03*
X117000000Y-71000000D03*
X114000000Y-48000000D03*
X114000000Y-46000000D03*
X114000000Y-44000000D03*
X115000000Y-42000000D03*
X117000000Y-46000000D03*
X117000000Y-48000000D03*
X118000000Y-44000000D03*
X120000000Y-42000000D03*
X184000000Y-36000000D03*
X184000000Y-38000000D03*
X178000000Y-42000000D03*
X177000000Y-43000000D03*
X176000000Y-44000000D03*
X175000000Y-45000000D03*
X174000000Y-41000000D03*
X175000000Y-40000000D03*
X176000000Y-39000000D03*
X177000000Y-38000000D03*
X158820000Y-105330000D03*
X189960000Y-70950000D03*
X186020000Y-71530000D03*
X174370000Y-148490000D03*
X117000000Y-94000000D03*
X114000000Y-96000000D03*
X114000000Y-94000000D03*
X120000000Y-99000000D03*
X119000000Y-102000000D03*
X131000000Y-73000000D03*
X132000000Y-70000000D03*
X134000000Y-70000000D03*
X138000000Y-70000000D03*
X135000000Y-73000000D03*
X137000000Y-73000000D03*
X130000000Y-70000000D03*
X129000000Y-88000000D03*
X129000000Y-86000000D03*
X129000000Y-84000000D03*
X129000000Y-82000000D03*
X129000000Y-80000000D03*
X129000000Y-78000000D03*
X129000000Y-76000000D03*
X132000000Y-86000000D03*
X132000000Y-84000000D03*
X132000000Y-82000000D03*
X132000000Y-80000000D03*
X132000000Y-78000000D03*
X133000000Y-76000000D03*
X111252000Y-148590000D03*
X107000000Y-150000000D03*
X113000000Y-147000000D03*
X140320000Y-88210000D03*
X181630000Y-90690000D03*
X155000000Y-94000000D03*
X165000000Y-93000000D03*
X168000000Y-103000000D03*
X166000000Y-82000000D03*
X175545858Y-125854142D03*
X140895000Y-45850000D03*
X140425000Y-46797040D03*
X139965000Y-47766634D03*
X159220000Y-58830000D03*
X159260000Y-57730000D03*
X159346629Y-56733757D03*
X175503481Y-124786459D03*
X173022654Y-111982349D03*
X172010000Y-111995000D03*
X153850000Y-77070000D03*
X123240000Y-88690000D03*
X182630000Y-39270000D03*
X173730000Y-43750000D03*
X142840000Y-65740000D03*
X137940000Y-68470000D03*
X150150000Y-97076980D03*
X150520000Y-110990000D03*
X166762653Y-109987347D03*
X159250000Y-102499997D03*
X152750000Y-39500000D03*
X165750000Y-110000000D03*
X159250000Y-103500000D03*
X147000000Y-38000000D03*
X188040000Y-103030000D03*
D31*
X169960000Y-38420000D02*
X170040000Y-38500000D01*
X165000000Y-38420000D02*
X169960000Y-38420000D01*
X160620000Y-115760000D02*
X160620000Y-85330000D01*
X153799999Y-116559999D02*
X153000000Y-115760000D01*
X154500001Y-117260001D02*
X153799999Y-116559999D01*
X159119999Y-117260001D02*
X154500001Y-117260001D01*
X160620000Y-115760000D02*
X159119999Y-117260001D01*
D32*
X144800000Y-89440000D02*
X147850000Y-92490000D01*
X140915000Y-89440000D02*
X144800000Y-89440000D01*
D31*
X144890000Y-107650000D02*
X153000000Y-115760000D01*
X129640000Y-107650000D02*
X144890000Y-107650000D01*
X160620000Y-84764315D02*
X160620000Y-85330000D01*
X160590000Y-84734315D02*
X160620000Y-84764315D01*
X160590000Y-61828002D02*
X160590000Y-84734315D01*
X158000000Y-59238002D02*
X160590000Y-61828002D01*
X158000000Y-45400000D02*
X158000000Y-59238002D01*
X159400000Y-44000000D02*
X158000000Y-45400000D01*
X176130000Y-90010000D02*
X179050000Y-90010000D01*
X179050000Y-90010000D02*
X179510000Y-89550000D01*
D32*
X175545858Y-130685858D02*
X175860000Y-131000000D01*
X175545858Y-125854142D02*
X175545858Y-130685858D01*
X142310000Y-45850000D02*
X144160000Y-44000000D01*
X140895000Y-45850000D02*
X142310000Y-45850000D01*
X143902960Y-46797040D02*
X146700000Y-44000000D01*
X140425000Y-46797040D02*
X143902960Y-46797040D01*
X145473366Y-47766634D02*
X149240000Y-44000000D01*
X139965000Y-47766634D02*
X145473366Y-47766634D01*
X184605001Y-113980000D02*
X184605001Y-129585001D01*
X184605001Y-129585001D02*
X186020000Y-131000000D01*
X179365001Y-108740000D02*
X184605001Y-113980000D01*
X164210000Y-108740000D02*
X179365001Y-108740000D01*
X159220000Y-58830000D02*
X159619999Y-59229999D01*
X159619999Y-59229999D02*
X159629999Y-59229999D01*
X159629999Y-59229999D02*
X161430000Y-61030000D01*
X161430000Y-61030000D02*
X161430000Y-71350000D01*
X161445010Y-105975010D02*
X164210000Y-108740000D01*
X161430000Y-71350000D02*
X161445010Y-71365010D01*
X161445010Y-71365010D02*
X161445010Y-105975010D01*
X160130010Y-58600010D02*
X159260000Y-57730000D01*
X188560000Y-131000000D02*
X187250000Y-129690000D01*
X164396400Y-108289990D02*
X161895020Y-105788610D01*
X187250000Y-129690000D02*
X187250000Y-115320000D01*
X161895020Y-60365020D02*
X160130010Y-58600010D01*
X187250000Y-115320000D02*
X180219990Y-108289990D01*
X180219990Y-108289990D02*
X164396400Y-108289990D01*
X161895020Y-105788610D02*
X161895020Y-60365020D01*
X160580020Y-57967148D02*
X159346629Y-56733757D01*
X162345030Y-59732158D02*
X160580020Y-57967148D01*
X162345030Y-105602210D02*
X162345030Y-59732158D01*
X164582800Y-107839980D02*
X162345030Y-105602210D01*
X188560000Y-115760000D02*
X180639980Y-107839980D01*
X180639980Y-107839980D02*
X164582800Y-107839980D01*
X163959999Y-130200001D02*
X163160000Y-131000000D01*
X168690917Y-125469083D02*
X163959999Y-130200001D01*
X174820857Y-125469083D02*
X168690917Y-125469083D01*
X175503481Y-124786459D02*
X174820857Y-125469083D01*
X177789940Y-122500000D02*
X178340000Y-122500000D01*
X175503481Y-124786459D02*
X177789940Y-122500000D01*
X175860000Y-114819695D02*
X175860000Y-115760000D01*
X173022654Y-111982349D02*
X175860000Y-114819695D01*
X173320000Y-113305000D02*
X173320000Y-115760000D01*
X172010000Y-111995000D02*
X173320000Y-113305000D01*
D31*
X153850000Y-77070000D02*
X153284315Y-77070000D01*
X153284315Y-77070000D02*
X148044315Y-71830000D01*
X148044315Y-71830000D02*
X127930000Y-71830000D01*
X127930000Y-71830000D02*
X123240000Y-76520000D01*
X123240000Y-76520000D02*
X123240000Y-88690000D01*
X123240000Y-88690000D02*
X123240000Y-93640000D01*
X118899999Y-97980001D02*
X123240000Y-93640000D01*
X118899999Y-99446003D02*
X118899999Y-97980001D01*
X115338003Y-103007999D02*
X118899999Y-99446003D01*
X111897999Y-103007999D02*
X115338003Y-103007999D01*
X110998000Y-102108000D02*
X111897999Y-103007999D01*
X182630000Y-39270000D02*
X178210000Y-39270000D01*
X178210000Y-39270000D02*
X173730000Y-43750000D01*
X142840000Y-65740000D02*
X140670000Y-65740000D01*
X140670000Y-65740000D02*
X137940000Y-68470000D01*
D32*
X170340000Y-96890000D02*
X169940000Y-96890000D01*
D31*
X150150000Y-97076980D02*
X150150000Y-110620000D01*
X150150000Y-110620000D02*
X150520000Y-110990000D01*
X112270792Y-104608000D02*
X110998000Y-104608000D01*
X121620000Y-107650000D02*
X118578000Y-104608000D01*
X118578000Y-104608000D02*
X112270792Y-104608000D01*
X122020000Y-107650000D02*
X121620000Y-107650000D01*
D32*
X170780000Y-115760000D02*
X170780000Y-114004694D01*
X170780000Y-114004694D02*
X166762653Y-109987347D01*
X152750000Y-39500000D02*
X155500003Y-42250003D01*
X156610003Y-46020000D02*
X155500003Y-44910000D01*
X156670000Y-46020000D02*
X156610003Y-46020000D01*
X155500003Y-42250003D02*
X155500003Y-44910000D01*
X156670000Y-46020000D02*
X157150000Y-46500000D01*
X157150000Y-59220000D02*
X157150000Y-59554742D01*
X157150000Y-59554742D02*
X159740000Y-62144742D01*
X157150000Y-46500000D02*
X157150000Y-59220000D01*
X159740000Y-102009997D02*
X159250000Y-102499997D01*
X159740000Y-62144742D02*
X159740000Y-102009997D01*
X168240000Y-115760000D02*
X168240000Y-112490000D01*
X168240000Y-112490000D02*
X165750000Y-110000000D01*
X147519002Y-38000000D02*
X147000000Y-38000000D01*
X154160000Y-45579002D02*
X152955001Y-44374003D01*
X155532595Y-45579002D02*
X154160000Y-45579002D01*
X156690000Y-46736407D02*
X155532595Y-45579002D01*
X156690000Y-59731152D02*
X156690000Y-46736407D01*
X159280000Y-99360000D02*
X159280000Y-62321152D01*
X152955001Y-43435999D02*
X147519002Y-38000000D01*
X159280000Y-62321152D02*
X156690000Y-59731152D01*
X159250000Y-103500000D02*
X158684315Y-103500000D01*
X158684315Y-103500000D02*
X158524999Y-103340684D01*
X158524999Y-102175001D02*
X159290000Y-101410000D01*
X158524999Y-103340684D02*
X158524999Y-102175001D01*
X159290000Y-101410000D02*
X159290000Y-99370000D01*
X152955001Y-44374003D02*
X152955001Y-43435999D01*
X159290000Y-99370000D02*
X159280000Y-99360000D01*
D33*
X129640000Y-110190000D02*
X129240000Y-110190000D01*
D31*
X172500000Y-38500000D02*
X172500000Y-68380000D01*
X172500000Y-68380000D02*
X188050000Y-83930000D01*
X188050000Y-83930000D02*
X188050000Y-103020000D01*
X188050000Y-103020000D02*
X188040000Y-103030000D01*
X126000000Y-36170000D02*
X123830000Y-34000000D01*
X126000000Y-38420000D02*
X126000000Y-36170000D01*
X130960000Y-38420000D02*
X131040000Y-38500000D01*
X126000000Y-38420000D02*
X130960000Y-38420000D01*
X123830000Y-34000000D02*
X113000000Y-34000000D01*
D34*
G36*
X188665861Y-30756160D02*
X189304530Y-30956307D01*
X189889902Y-31280784D01*
X190398078Y-31716343D01*
X190808289Y-32245183D01*
X191103786Y-32845712D01*
X191274623Y-33501567D01*
X191315000Y-34026313D01*
X191315001Y-154496019D01*
X191222490Y-154263506D01*
X191144068Y-154146139D01*
X190534316Y-153645290D01*
X190034165Y-154145441D01*
X190034164Y-154145441D01*
X187179605Y-157000000D01*
X187193748Y-157014143D01*
X187014143Y-157193748D01*
X187000000Y-157179605D01*
X184145441Y-160034164D01*
X184145441Y-160034165D01*
X183645290Y-160534316D01*
X184146139Y-161144068D01*
X184542968Y-161315000D01*
X155247239Y-161315000D01*
X155386086Y-161176153D01*
X155635000Y-160575222D01*
X155635000Y-159924778D01*
X155386086Y-159323847D01*
X154926153Y-158863914D01*
X154325222Y-158615000D01*
X153674778Y-158615000D01*
X153073847Y-158863914D01*
X152613914Y-159323847D01*
X152365000Y-159924778D01*
X152365000Y-160575222D01*
X152613914Y-161176153D01*
X152752761Y-161315000D01*
X143247239Y-161315000D01*
X143386086Y-161176153D01*
X143635000Y-160575222D01*
X143635000Y-159924778D01*
X143386086Y-159323847D01*
X142926153Y-158863914D01*
X142325222Y-158615000D01*
X141674778Y-158615000D01*
X141073847Y-158863914D01*
X140613914Y-159323847D01*
X140365000Y-159924778D01*
X140365000Y-160575222D01*
X140613914Y-161176153D01*
X140752761Y-161315000D01*
X111503983Y-161315000D01*
X111736494Y-161222490D01*
X111853861Y-161144068D01*
X112354710Y-160534316D01*
X111854559Y-160034165D01*
X111854559Y-160034164D01*
X109000000Y-157179605D01*
X108985858Y-157193748D01*
X108806253Y-157014143D01*
X108820395Y-157000000D01*
X109179605Y-157000000D01*
X112034164Y-159854559D01*
X112034165Y-159854559D01*
X112534316Y-160354710D01*
X113144068Y-159853861D01*
X113920745Y-158050758D01*
X113922687Y-157912314D01*
X182051717Y-157912314D01*
X182777510Y-159736494D01*
X182855932Y-159853861D01*
X183465684Y-160354710D01*
X183965835Y-159854559D01*
X183965836Y-159854559D01*
X186820395Y-157000000D01*
X183965836Y-154145441D01*
X183965835Y-154145441D01*
X183465684Y-153645290D01*
X182855932Y-154146139D01*
X182079255Y-155949242D01*
X182051717Y-157912314D01*
X113922687Y-157912314D01*
X113948283Y-156087686D01*
X113222490Y-154263506D01*
X113144068Y-154146139D01*
X112874575Y-153924778D01*
X140365000Y-153924778D01*
X140365000Y-154575222D01*
X140613914Y-155176153D01*
X141073847Y-155636086D01*
X141674778Y-155885000D01*
X142325222Y-155885000D01*
X142515000Y-155806391D01*
X142515000Y-156295385D01*
X142741078Y-156841185D01*
X143158815Y-157258922D01*
X143704615Y-157485000D01*
X144295385Y-157485000D01*
X144841185Y-157258922D01*
X145258922Y-156841185D01*
X145485000Y-156295385D01*
X145485000Y-155704615D01*
X146515000Y-155704615D01*
X146515000Y-156295385D01*
X146741078Y-156841185D01*
X147158815Y-157258922D01*
X147704615Y-157485000D01*
X148295385Y-157485000D01*
X148841185Y-157258922D01*
X149258922Y-156841185D01*
X149485000Y-156295385D01*
X149485000Y-155704615D01*
X150515000Y-155704615D01*
X150515000Y-156295385D01*
X150741078Y-156841185D01*
X151158815Y-157258922D01*
X151704615Y-157485000D01*
X152295385Y-157485000D01*
X152841185Y-157258922D01*
X153258922Y-156841185D01*
X153485000Y-156295385D01*
X153485000Y-155806391D01*
X153674778Y-155885000D01*
X154325222Y-155885000D01*
X154926153Y-155636086D01*
X155386086Y-155176153D01*
X155635000Y-154575222D01*
X155635000Y-153924778D01*
X155444837Y-153465684D01*
X183645290Y-153465684D01*
X184145441Y-153965835D01*
X184145441Y-153965836D01*
X187000000Y-156820395D01*
X189854559Y-153965836D01*
X189854559Y-153965835D01*
X190354710Y-153465684D01*
X189853861Y-152855932D01*
X188050758Y-152079255D01*
X186087686Y-152051717D01*
X184263506Y-152777510D01*
X184146139Y-152855932D01*
X183645290Y-153465684D01*
X155444837Y-153465684D01*
X155386086Y-153323847D01*
X154926153Y-152863914D01*
X154325222Y-152615000D01*
X153674778Y-152615000D01*
X153073847Y-152863914D01*
X152613914Y-153323847D01*
X152365000Y-153924778D01*
X152365000Y-154543836D01*
X152295385Y-154515000D01*
X151704615Y-154515000D01*
X151158815Y-154741078D01*
X150741078Y-155158815D01*
X150515000Y-155704615D01*
X149485000Y-155704615D01*
X149258922Y-155158815D01*
X148841185Y-154741078D01*
X148295385Y-154515000D01*
X147704615Y-154515000D01*
X147158815Y-154741078D01*
X146741078Y-155158815D01*
X146515000Y-155704615D01*
X145485000Y-155704615D01*
X145258922Y-155158815D01*
X144841185Y-154741078D01*
X144295385Y-154515000D01*
X143704615Y-154515000D01*
X143635000Y-154543836D01*
X143635000Y-153924778D01*
X143386086Y-153323847D01*
X142926153Y-152863914D01*
X142325222Y-152615000D01*
X141674778Y-152615000D01*
X141073847Y-152863914D01*
X140613914Y-153323847D01*
X140365000Y-153924778D01*
X112874575Y-153924778D01*
X112534316Y-153645290D01*
X112034165Y-154145441D01*
X112034164Y-154145441D01*
X109179605Y-157000000D01*
X108820395Y-157000000D01*
X105965836Y-154145441D01*
X105965835Y-154145441D01*
X105465684Y-153645290D01*
X104855932Y-154146139D01*
X104685000Y-154542968D01*
X104685000Y-153465684D01*
X105645290Y-153465684D01*
X106145441Y-153965835D01*
X106145441Y-153965836D01*
X109000000Y-156820395D01*
X111854559Y-153965836D01*
X111854559Y-153965835D01*
X112354710Y-153465684D01*
X111853861Y-152855932D01*
X110050758Y-152079255D01*
X108087686Y-152051717D01*
X106263506Y-152777510D01*
X106146139Y-152855932D01*
X105645290Y-153465684D01*
X104685000Y-153465684D01*
X104685000Y-146265322D01*
X116335000Y-146265322D01*
X116335000Y-147114678D01*
X116660034Y-147899380D01*
X117260620Y-148499966D01*
X118045322Y-148825000D01*
X118894678Y-148825000D01*
X119679380Y-148499966D01*
X120279966Y-147899380D01*
X120605000Y-147114678D01*
X120605000Y-146265322D01*
X120279966Y-145480620D01*
X119679380Y-144880034D01*
X118894678Y-144555000D01*
X118045322Y-144555000D01*
X117260620Y-144880034D01*
X116660034Y-145480620D01*
X116335000Y-146265322D01*
X104685000Y-146265322D01*
X104685000Y-142264000D01*
X124210560Y-142264000D01*
X124210560Y-145264000D01*
X124259843Y-145511765D01*
X124400191Y-145721809D01*
X124610235Y-145862157D01*
X124858000Y-145911440D01*
X129210560Y-145911440D01*
X129210560Y-146264000D01*
X129259843Y-146511765D01*
X129400191Y-146721809D01*
X129610235Y-146862157D01*
X129858000Y-146911440D01*
X131210560Y-146911440D01*
X131210560Y-147764000D01*
X131259843Y-148011765D01*
X131400191Y-148221809D01*
X131610235Y-148362157D01*
X131858000Y-148411440D01*
X135858000Y-148411440D01*
X136105765Y-148362157D01*
X136315809Y-148221809D01*
X136327728Y-148203970D01*
X148195635Y-148203970D01*
X148355418Y-148522739D01*
X149146187Y-148832723D01*
X149995387Y-148816497D01*
X150704582Y-148522739D01*
X150864365Y-148203970D01*
X149530000Y-146869605D01*
X148195635Y-148203970D01*
X136327728Y-148203970D01*
X136456157Y-148011765D01*
X136505440Y-147764000D01*
X136505440Y-146911440D01*
X137858000Y-146911440D01*
X138105765Y-146862157D01*
X138315809Y-146721809D01*
X138456157Y-146511765D01*
X138497048Y-146306187D01*
X147387277Y-146306187D01*
X147403503Y-147155387D01*
X147697261Y-147864582D01*
X148016030Y-148024365D01*
X149350395Y-146690000D01*
X149709605Y-146690000D01*
X151043970Y-148024365D01*
X151362739Y-147864582D01*
X151672723Y-147073813D01*
X151656497Y-146224613D01*
X151362739Y-145515418D01*
X151043970Y-145355635D01*
X149709605Y-146690000D01*
X149350395Y-146690000D01*
X148016030Y-145355635D01*
X147697261Y-145515418D01*
X147387277Y-146306187D01*
X138497048Y-146306187D01*
X138505440Y-146264000D01*
X138505440Y-145911440D01*
X142858000Y-145911440D01*
X143105765Y-145862157D01*
X143315809Y-145721809D01*
X143456157Y-145511765D01*
X143505440Y-145264000D01*
X143505440Y-145176030D01*
X148195635Y-145176030D01*
X149530000Y-146510395D01*
X150864365Y-145176030D01*
X150704582Y-144857261D01*
X149913813Y-144547277D01*
X149064613Y-144563503D01*
X148355418Y-144857261D01*
X148195635Y-145176030D01*
X143505440Y-145176030D01*
X143505440Y-142264000D01*
X143456157Y-142016235D01*
X143315809Y-141806191D01*
X143105765Y-141665843D01*
X142858000Y-141616560D01*
X138505440Y-141616560D01*
X138505440Y-141264000D01*
X138456157Y-141016235D01*
X138315809Y-140806191D01*
X138105765Y-140665843D01*
X137858000Y-140616560D01*
X136505440Y-140616560D01*
X136505440Y-139764000D01*
X136456157Y-139516235D01*
X136368684Y-139385322D01*
X147395000Y-139385322D01*
X147395000Y-140234678D01*
X147720034Y-141019380D01*
X148320620Y-141619966D01*
X149105322Y-141945000D01*
X149954678Y-141945000D01*
X150739380Y-141619966D01*
X151339966Y-141019380D01*
X151665000Y-140234678D01*
X151665000Y-139385322D01*
X151479254Y-138936890D01*
X155098524Y-138936890D01*
X155268355Y-139346924D01*
X155658642Y-139775183D01*
X156183108Y-140021486D01*
X156413000Y-139900819D01*
X156413000Y-138707000D01*
X156667000Y-138707000D01*
X156667000Y-139900819D01*
X156896892Y-140021486D01*
X157421358Y-139775183D01*
X157811645Y-139346924D01*
X157981476Y-138936890D01*
X157860155Y-138707000D01*
X156667000Y-138707000D01*
X156413000Y-138707000D01*
X155219845Y-138707000D01*
X155098524Y-138936890D01*
X151479254Y-138936890D01*
X151339966Y-138600620D01*
X150739380Y-138000034D01*
X149954678Y-137675000D01*
X149105322Y-137675000D01*
X148320620Y-138000034D01*
X147720034Y-138600620D01*
X147395000Y-139385322D01*
X136368684Y-139385322D01*
X136315809Y-139306191D01*
X136105765Y-139165843D01*
X135858000Y-139116560D01*
X131858000Y-139116560D01*
X131610235Y-139165843D01*
X131400191Y-139306191D01*
X131259843Y-139516235D01*
X131210560Y-139764000D01*
X131210560Y-140616560D01*
X129858000Y-140616560D01*
X129610235Y-140665843D01*
X129400191Y-140806191D01*
X129259843Y-141016235D01*
X129210560Y-141264000D01*
X129210560Y-141616560D01*
X124858000Y-141616560D01*
X124610235Y-141665843D01*
X124400191Y-141806191D01*
X124259843Y-142016235D01*
X124210560Y-142264000D01*
X104685000Y-142264000D01*
X104685000Y-139385322D01*
X116335000Y-139385322D01*
X116335000Y-140234678D01*
X116660034Y-141019380D01*
X117260620Y-141619966D01*
X118045322Y-141945000D01*
X118894678Y-141945000D01*
X119679380Y-141619966D01*
X120279966Y-141019380D01*
X120605000Y-140234678D01*
X120605000Y-139385322D01*
X120279966Y-138600620D01*
X119679380Y-138000034D01*
X118894678Y-137675000D01*
X118045322Y-137675000D01*
X117260620Y-138000034D01*
X116660034Y-138600620D01*
X116335000Y-139385322D01*
X104685000Y-139385322D01*
X104685000Y-135190000D01*
X155042560Y-135190000D01*
X155042560Y-136890000D01*
X155091843Y-137137765D01*
X155232191Y-137347809D01*
X155442235Y-137488157D01*
X155545708Y-137508739D01*
X155268355Y-137813076D01*
X155098524Y-138223110D01*
X155219845Y-138453000D01*
X156413000Y-138453000D01*
X156413000Y-138433000D01*
X156667000Y-138433000D01*
X156667000Y-138453000D01*
X157860155Y-138453000D01*
X157981476Y-138223110D01*
X157811645Y-137813076D01*
X157534292Y-137508739D01*
X157637765Y-137488157D01*
X157847809Y-137347809D01*
X157988157Y-137137765D01*
X158037440Y-136890000D01*
X158037440Y-135190000D01*
X157988157Y-134942235D01*
X157847809Y-134732191D01*
X157637765Y-134591843D01*
X157390000Y-134542560D01*
X155690000Y-134542560D01*
X155442235Y-134591843D01*
X155232191Y-134732191D01*
X155091843Y-134942235D01*
X155042560Y-135190000D01*
X104685000Y-135190000D01*
X104685000Y-130540159D01*
X110351446Y-130540159D01*
X110437852Y-130796643D01*
X111011336Y-131006458D01*
X111621460Y-130980839D01*
X111813753Y-130901189D01*
X111617000Y-131376192D01*
X111617000Y-132543808D01*
X112063827Y-133622544D01*
X112889456Y-134448173D01*
X113968192Y-134895000D01*
X115135808Y-134895000D01*
X116214544Y-134448173D01*
X117040173Y-133622544D01*
X117487000Y-132543808D01*
X117487000Y-131490778D01*
X139843000Y-131490778D01*
X139843000Y-132141222D01*
X140091914Y-132742153D01*
X140551847Y-133202086D01*
X141152778Y-133451000D01*
X141803222Y-133451000D01*
X142404153Y-133202086D01*
X142864086Y-132742153D01*
X143113000Y-132141222D01*
X143113000Y-131500778D01*
X144923000Y-131500778D01*
X144923000Y-132151222D01*
X145171914Y-132752153D01*
X145631847Y-133212086D01*
X146232778Y-133461000D01*
X146883222Y-133461000D01*
X147484153Y-133212086D01*
X147944086Y-132752153D01*
X148193000Y-132151222D01*
X148193000Y-131500778D01*
X147944086Y-130899847D01*
X147484153Y-130439914D01*
X146904950Y-130200000D01*
X151552560Y-130200000D01*
X151552560Y-131800000D01*
X151601843Y-132047765D01*
X151742191Y-132257809D01*
X151952235Y-132398157D01*
X152200000Y-132447440D01*
X153800000Y-132447440D01*
X154047765Y-132398157D01*
X154257809Y-132257809D01*
X154398157Y-132047765D01*
X154424785Y-131913894D01*
X154505423Y-132034577D01*
X154980091Y-132351740D01*
X155398667Y-132435000D01*
X155681333Y-132435000D01*
X156099909Y-132351740D01*
X156574577Y-132034577D01*
X156810000Y-131682242D01*
X157045423Y-132034577D01*
X157520091Y-132351740D01*
X157938667Y-132435000D01*
X158221333Y-132435000D01*
X158639909Y-132351740D01*
X159114577Y-132034577D01*
X159370947Y-131650892D01*
X159467611Y-131855134D01*
X159882577Y-132231041D01*
X160270961Y-132391904D01*
X160493000Y-132269915D01*
X160493000Y-131127000D01*
X160473000Y-131127000D01*
X160473000Y-130873000D01*
X160493000Y-130873000D01*
X160493000Y-129730085D01*
X160270961Y-129608096D01*
X159882577Y-129768959D01*
X159467611Y-130144866D01*
X159370947Y-130349108D01*
X159114577Y-129965423D01*
X158639909Y-129648260D01*
X158221333Y-129565000D01*
X157938667Y-129565000D01*
X157520091Y-129648260D01*
X157045423Y-129965423D01*
X156810000Y-130317758D01*
X156574577Y-129965423D01*
X156099909Y-129648260D01*
X155681333Y-129565000D01*
X155398667Y-129565000D01*
X154980091Y-129648260D01*
X154505423Y-129965423D01*
X154424785Y-130086106D01*
X154398157Y-129952235D01*
X154257809Y-129742191D01*
X154047765Y-129601843D01*
X153800000Y-129552560D01*
X152200000Y-129552560D01*
X151952235Y-129601843D01*
X151742191Y-129742191D01*
X151601843Y-129952235D01*
X151552560Y-130200000D01*
X146904950Y-130200000D01*
X146883222Y-130191000D01*
X146232778Y-130191000D01*
X145631847Y-130439914D01*
X145171914Y-130899847D01*
X144923000Y-131500778D01*
X143113000Y-131500778D01*
X143113000Y-131490778D01*
X142864086Y-130889847D01*
X142404153Y-130429914D01*
X141803222Y-130181000D01*
X141152778Y-130181000D01*
X140551847Y-130429914D01*
X140091914Y-130889847D01*
X139843000Y-131490778D01*
X117487000Y-131490778D01*
X117487000Y-131376192D01*
X117040173Y-130297456D01*
X116214544Y-129471827D01*
X115135808Y-129025000D01*
X113968192Y-129025000D01*
X112889456Y-129471827D01*
X112792903Y-129568380D01*
X112772839Y-129090540D01*
X112588643Y-128645852D01*
X112332159Y-128559446D01*
X111431605Y-129460000D01*
X111445748Y-129474143D01*
X111266143Y-129653748D01*
X111252000Y-129639605D01*
X110351446Y-130540159D01*
X104685000Y-130540159D01*
X104685000Y-129219336D01*
X109705542Y-129219336D01*
X109731161Y-129829460D01*
X109915357Y-130274148D01*
X110171841Y-130360554D01*
X111072395Y-129460000D01*
X110171841Y-128559446D01*
X109915357Y-128645852D01*
X109705542Y-129219336D01*
X104685000Y-129219336D01*
X104685000Y-124154670D01*
X109717000Y-124154670D01*
X109717000Y-124765330D01*
X109950690Y-125329507D01*
X110331183Y-125710000D01*
X109950690Y-126090493D01*
X109717000Y-126654670D01*
X109717000Y-127265330D01*
X109950690Y-127829507D01*
X110382493Y-128261310D01*
X110390290Y-128264539D01*
X110351446Y-128379841D01*
X111252000Y-129280395D01*
X112152554Y-128379841D01*
X112113710Y-128264539D01*
X112121507Y-128261310D01*
X112553310Y-127829507D01*
X112787000Y-127265330D01*
X112787000Y-126654670D01*
X112553310Y-126090493D01*
X112172817Y-125710000D01*
X112553310Y-125329507D01*
X112787000Y-124765330D01*
X112787000Y-124345717D01*
X112889456Y-124448173D01*
X113968192Y-124895000D01*
X115135808Y-124895000D01*
X116214544Y-124448173D01*
X117040173Y-123622544D01*
X117487000Y-122543808D01*
X117487000Y-122143108D01*
X174358514Y-122143108D01*
X174479181Y-122373000D01*
X175673000Y-122373000D01*
X175673000Y-121179845D01*
X175443110Y-121058524D01*
X175033076Y-121228355D01*
X174604817Y-121618642D01*
X174358514Y-122143108D01*
X117487000Y-122143108D01*
X117487000Y-121376192D01*
X117040173Y-120297456D01*
X116214544Y-119471827D01*
X115135808Y-119025000D01*
X113968192Y-119025000D01*
X112889456Y-119471827D01*
X112063827Y-120297456D01*
X111617000Y-121376192D01*
X111617000Y-122543808D01*
X111819954Y-123033783D01*
X111557330Y-122925000D01*
X110946670Y-122925000D01*
X110382493Y-123158690D01*
X109950690Y-123590493D01*
X109717000Y-124154670D01*
X104685000Y-124154670D01*
X104685000Y-108188159D01*
X110097446Y-108188159D01*
X110183852Y-108444643D01*
X110757336Y-108654458D01*
X111367460Y-108628839D01*
X111559753Y-108549189D01*
X111363000Y-109024192D01*
X111363000Y-110191808D01*
X111809827Y-111270544D01*
X112635456Y-112096173D01*
X113714192Y-112543000D01*
X114881808Y-112543000D01*
X115960544Y-112096173D01*
X116786173Y-111270544D01*
X117233000Y-110191808D01*
X117233000Y-109024192D01*
X116786173Y-107945456D01*
X115960544Y-107119827D01*
X114881808Y-106673000D01*
X113714192Y-106673000D01*
X112635456Y-107119827D01*
X112538903Y-107216380D01*
X112518839Y-106738540D01*
X112334643Y-106293852D01*
X112078159Y-106207446D01*
X111177605Y-107108000D01*
X111191748Y-107122143D01*
X111012143Y-107301748D01*
X110998000Y-107287605D01*
X110097446Y-108188159D01*
X104685000Y-108188159D01*
X104685000Y-106867336D01*
X109451542Y-106867336D01*
X109477161Y-107477460D01*
X109661357Y-107922148D01*
X109917841Y-108008554D01*
X110818395Y-107108000D01*
X109917841Y-106207446D01*
X109661357Y-106293852D01*
X109451542Y-106867336D01*
X104685000Y-106867336D01*
X104685000Y-101802670D01*
X109463000Y-101802670D01*
X109463000Y-102413330D01*
X109696690Y-102977507D01*
X110077183Y-103358000D01*
X109696690Y-103738493D01*
X109463000Y-104302670D01*
X109463000Y-104913330D01*
X109696690Y-105477507D01*
X110128493Y-105909310D01*
X110136290Y-105912539D01*
X110097446Y-106027841D01*
X110998000Y-106928395D01*
X111898554Y-106027841D01*
X111859710Y-105912539D01*
X111867507Y-105909310D01*
X112033817Y-105743000D01*
X118107869Y-105743000D01*
X120192151Y-107827283D01*
X120268260Y-108209909D01*
X120585423Y-108684577D01*
X120937758Y-108920000D01*
X120585423Y-109155423D01*
X120268260Y-109630091D01*
X120156887Y-110190000D01*
X120268260Y-110749909D01*
X120585423Y-111224577D01*
X121060091Y-111541740D01*
X121478667Y-111625000D01*
X122561333Y-111625000D01*
X122979909Y-111541740D01*
X123454577Y-111224577D01*
X123771740Y-110749909D01*
X123883113Y-110190000D01*
X123771740Y-109630091D01*
X123454577Y-109155423D01*
X123102242Y-108920000D01*
X123454577Y-108684577D01*
X123771740Y-108209909D01*
X123883113Y-107650000D01*
X123771740Y-107090091D01*
X123454577Y-106615423D01*
X123102242Y-106380000D01*
X123454577Y-106144577D01*
X123771740Y-105669909D01*
X123883113Y-105110000D01*
X123771740Y-104550091D01*
X123454577Y-104075423D01*
X123333894Y-103994785D01*
X123467765Y-103968157D01*
X123677809Y-103827809D01*
X123818157Y-103617765D01*
X123867440Y-103370000D01*
X123867440Y-102570000D01*
X127776887Y-102570000D01*
X127888260Y-103129909D01*
X128205423Y-103604577D01*
X128557758Y-103840000D01*
X128205423Y-104075423D01*
X127888260Y-104550091D01*
X127776887Y-105110000D01*
X127888260Y-105669909D01*
X128205423Y-106144577D01*
X128557758Y-106380000D01*
X128205423Y-106615423D01*
X127888260Y-107090091D01*
X127776887Y-107650000D01*
X127888260Y-108209909D01*
X128205423Y-108684577D01*
X128557758Y-108920000D01*
X128205423Y-109155423D01*
X127888260Y-109630091D01*
X127776887Y-110190000D01*
X127888260Y-110749909D01*
X128205423Y-111224577D01*
X128680091Y-111541740D01*
X129098667Y-111625000D01*
X130181333Y-111625000D01*
X130599909Y-111541740D01*
X131074577Y-111224577D01*
X131391740Y-110749909D01*
X131503113Y-110190000D01*
X131391740Y-109630091D01*
X131074577Y-109155423D01*
X130722242Y-108920000D01*
X130924283Y-108785000D01*
X144419869Y-108785000D01*
X151572151Y-115937283D01*
X151648260Y-116319909D01*
X151965423Y-116794577D01*
X152440091Y-117111740D01*
X152822717Y-117187849D01*
X153076475Y-117441607D01*
X153076478Y-117441609D01*
X153618388Y-117983519D01*
X153681712Y-118078290D01*
X154057146Y-118329147D01*
X154388218Y-118395001D01*
X154500000Y-118417236D01*
X154611782Y-118395001D01*
X159008216Y-118395001D01*
X159119999Y-118417236D01*
X159231782Y-118395001D01*
X159562854Y-118329147D01*
X159938288Y-118078290D01*
X160001612Y-117983519D01*
X160797282Y-117187849D01*
X161179909Y-117111740D01*
X161654577Y-116794577D01*
X161890000Y-116442242D01*
X162125423Y-116794577D01*
X162600091Y-117111740D01*
X163018667Y-117195000D01*
X163301333Y-117195000D01*
X163719909Y-117111740D01*
X164194577Y-116794577D01*
X164430000Y-116442242D01*
X164665423Y-116794577D01*
X165140091Y-117111740D01*
X165558667Y-117195000D01*
X165841333Y-117195000D01*
X166259909Y-117111740D01*
X166734577Y-116794577D01*
X166970000Y-116442242D01*
X167205423Y-116794577D01*
X167680091Y-117111740D01*
X168098667Y-117195000D01*
X168381333Y-117195000D01*
X168799909Y-117111740D01*
X169274577Y-116794577D01*
X169510000Y-116442242D01*
X169745423Y-116794577D01*
X170220091Y-117111740D01*
X170638667Y-117195000D01*
X170921333Y-117195000D01*
X171339909Y-117111740D01*
X171814577Y-116794577D01*
X172050000Y-116442242D01*
X172285423Y-116794577D01*
X172760091Y-117111740D01*
X173178667Y-117195000D01*
X173461333Y-117195000D01*
X173879909Y-117111740D01*
X174354577Y-116794577D01*
X174590000Y-116442242D01*
X174825423Y-116794577D01*
X175300091Y-117111740D01*
X175718667Y-117195000D01*
X176001333Y-117195000D01*
X176419909Y-117111740D01*
X176894577Y-116794577D01*
X177130000Y-116442242D01*
X177365423Y-116794577D01*
X177840091Y-117111740D01*
X178258667Y-117195000D01*
X178541333Y-117195000D01*
X178959909Y-117111740D01*
X179434577Y-116794577D01*
X179670000Y-116442242D01*
X179905423Y-116794577D01*
X180380091Y-117111740D01*
X180798667Y-117195000D01*
X181081333Y-117195000D01*
X181499909Y-117111740D01*
X181974577Y-116794577D01*
X182210000Y-116442242D01*
X182445423Y-116794577D01*
X182920091Y-117111740D01*
X183338667Y-117195000D01*
X183621333Y-117195000D01*
X183845001Y-117150510D01*
X183845001Y-121070446D01*
X183566256Y-121015000D01*
X183273744Y-121015000D01*
X182840582Y-121101161D01*
X182349375Y-121429375D01*
X182150000Y-121727761D01*
X181950625Y-121429375D01*
X181459418Y-121101161D01*
X181026256Y-121015000D01*
X180733744Y-121015000D01*
X180300582Y-121101161D01*
X179809375Y-121429375D01*
X179610000Y-121727761D01*
X179410625Y-121429375D01*
X178919418Y-121101161D01*
X178486256Y-121015000D01*
X178193744Y-121015000D01*
X177760582Y-121101161D01*
X177269375Y-121429375D01*
X177056157Y-121748478D01*
X176995183Y-121618642D01*
X176566924Y-121228355D01*
X176156890Y-121058524D01*
X175927000Y-121179845D01*
X175927000Y-122373000D01*
X175947000Y-122373000D01*
X175947000Y-122627000D01*
X175927000Y-122627000D01*
X175927000Y-122647000D01*
X175673000Y-122647000D01*
X175673000Y-122627000D01*
X174479181Y-122627000D01*
X174358514Y-122856892D01*
X174604817Y-123381358D01*
X175033076Y-123771645D01*
X175140978Y-123816337D01*
X174917201Y-123909028D01*
X174626050Y-124200179D01*
X174468481Y-124580585D01*
X174468481Y-124709083D01*
X168765763Y-124709083D01*
X168690916Y-124694195D01*
X168616069Y-124709083D01*
X168616065Y-124709083D01*
X168394380Y-124753179D01*
X168394378Y-124753180D01*
X168394379Y-124753180D01*
X168206443Y-124878754D01*
X168206441Y-124878756D01*
X168142988Y-124921154D01*
X168100590Y-124984607D01*
X163483887Y-129601312D01*
X163301333Y-129565000D01*
X163018667Y-129565000D01*
X162600091Y-129648260D01*
X162125423Y-129965423D01*
X161869053Y-130349108D01*
X161772389Y-130144866D01*
X161357423Y-129768959D01*
X160969039Y-129608096D01*
X160747000Y-129730085D01*
X160747000Y-130873000D01*
X160767000Y-130873000D01*
X160767000Y-131127000D01*
X160747000Y-131127000D01*
X160747000Y-132269915D01*
X160969039Y-132391904D01*
X161357423Y-132231041D01*
X161772389Y-131855134D01*
X161869053Y-131650892D01*
X162125423Y-132034577D01*
X162600091Y-132351740D01*
X163018667Y-132435000D01*
X163301333Y-132435000D01*
X163719909Y-132351740D01*
X164194577Y-132034577D01*
X164430000Y-131682242D01*
X164665423Y-132034577D01*
X165140091Y-132351740D01*
X165558667Y-132435000D01*
X165841333Y-132435000D01*
X166259909Y-132351740D01*
X166734577Y-132034577D01*
X166970000Y-131682242D01*
X167205423Y-132034577D01*
X167680091Y-132351740D01*
X168098667Y-132435000D01*
X168381333Y-132435000D01*
X168799909Y-132351740D01*
X169274577Y-132034577D01*
X169510000Y-131682242D01*
X169745423Y-132034577D01*
X170220091Y-132351740D01*
X170638667Y-132435000D01*
X170921333Y-132435000D01*
X171339909Y-132351740D01*
X171814577Y-132034577D01*
X172050000Y-131682242D01*
X172285423Y-132034577D01*
X172760091Y-132351740D01*
X173178667Y-132435000D01*
X173461333Y-132435000D01*
X173879909Y-132351740D01*
X174354577Y-132034577D01*
X174590000Y-131682242D01*
X174825423Y-132034577D01*
X175300091Y-132351740D01*
X175718667Y-132435000D01*
X176001333Y-132435000D01*
X176419909Y-132351740D01*
X176894577Y-132034577D01*
X177130000Y-131682242D01*
X177365423Y-132034577D01*
X177840091Y-132351740D01*
X178258667Y-132435000D01*
X178541333Y-132435000D01*
X178959909Y-132351740D01*
X179434577Y-132034577D01*
X179670000Y-131682242D01*
X179905423Y-132034577D01*
X180380091Y-132351740D01*
X180798667Y-132435000D01*
X181081333Y-132435000D01*
X181499909Y-132351740D01*
X181974577Y-132034577D01*
X182210000Y-131682242D01*
X182445423Y-132034577D01*
X182920091Y-132351740D01*
X183338667Y-132435000D01*
X183621333Y-132435000D01*
X184039909Y-132351740D01*
X184514577Y-132034577D01*
X184750000Y-131682242D01*
X184985423Y-132034577D01*
X185460091Y-132351740D01*
X185878667Y-132435000D01*
X186161333Y-132435000D01*
X186579909Y-132351740D01*
X187054577Y-132034577D01*
X187290000Y-131682242D01*
X187525423Y-132034577D01*
X188000091Y-132351740D01*
X188418667Y-132435000D01*
X188701333Y-132435000D01*
X189119909Y-132351740D01*
X189594577Y-132034577D01*
X189911740Y-131559909D01*
X190023113Y-131000000D01*
X189911740Y-130440091D01*
X189594577Y-129965423D01*
X189119909Y-129648260D01*
X188701333Y-129565000D01*
X188418667Y-129565000D01*
X188236114Y-129601312D01*
X188010000Y-129375199D01*
X188010000Y-123997440D01*
X189350000Y-123997440D01*
X189597765Y-123948157D01*
X189807809Y-123807809D01*
X189948157Y-123597765D01*
X189997440Y-123350000D01*
X189997440Y-121650000D01*
X189948157Y-121402235D01*
X189807809Y-121192191D01*
X189597765Y-121051843D01*
X189350000Y-121002560D01*
X188010000Y-121002560D01*
X188010000Y-117113711D01*
X188418667Y-117195000D01*
X188701333Y-117195000D01*
X189119909Y-117111740D01*
X189594577Y-116794577D01*
X189911740Y-116319909D01*
X190023113Y-115760000D01*
X189911740Y-115200091D01*
X189594577Y-114725423D01*
X189119909Y-114408260D01*
X188701333Y-114325000D01*
X188418667Y-114325000D01*
X188236114Y-114361312D01*
X181230311Y-107355510D01*
X181187909Y-107292051D01*
X180936517Y-107124076D01*
X180714832Y-107079980D01*
X180714827Y-107079980D01*
X180639980Y-107065092D01*
X180565133Y-107079980D01*
X164897602Y-107079980D01*
X163105030Y-105287409D01*
X163105030Y-94350000D01*
X168076887Y-94350000D01*
X168188260Y-94909909D01*
X168505423Y-95384577D01*
X168857758Y-95620000D01*
X168505423Y-95855423D01*
X168188260Y-96330091D01*
X168076887Y-96890000D01*
X168188260Y-97449909D01*
X168505423Y-97924577D01*
X168857758Y-98160000D01*
X168505423Y-98395423D01*
X168188260Y-98870091D01*
X168076887Y-99430000D01*
X168188260Y-99989909D01*
X168505423Y-100464577D01*
X168980091Y-100781740D01*
X169398667Y-100865000D01*
X170481333Y-100865000D01*
X170899909Y-100781740D01*
X171374577Y-100464577D01*
X171691740Y-99989909D01*
X171803113Y-99430000D01*
X171691740Y-98870091D01*
X171374577Y-98395423D01*
X171022242Y-98160000D01*
X171374577Y-97924577D01*
X171691740Y-97449909D01*
X171803113Y-96890000D01*
X171691740Y-96330091D01*
X171374577Y-95855423D01*
X171022242Y-95620000D01*
X171374577Y-95384577D01*
X171691740Y-94909909D01*
X171803113Y-94350000D01*
X171691740Y-93790091D01*
X171374577Y-93315423D01*
X171253894Y-93234785D01*
X171387765Y-93208157D01*
X171597809Y-93067809D01*
X171738157Y-92857765D01*
X171787440Y-92610000D01*
X171787440Y-91010000D01*
X171738157Y-90762235D01*
X171597809Y-90552191D01*
X171387765Y-90411843D01*
X171140000Y-90362560D01*
X168740000Y-90362560D01*
X168492235Y-90411843D01*
X168282191Y-90552191D01*
X168141843Y-90762235D01*
X168092560Y-91010000D01*
X168092560Y-92610000D01*
X168141843Y-92857765D01*
X168282191Y-93067809D01*
X168492235Y-93208157D01*
X168626106Y-93234785D01*
X168505423Y-93315423D01*
X168188260Y-93790091D01*
X168076887Y-94350000D01*
X163105030Y-94350000D01*
X163105030Y-90010000D01*
X174972765Y-90010000D01*
X175060854Y-90452855D01*
X175311711Y-90828289D01*
X175687145Y-91079146D01*
X175894873Y-91120465D01*
X175808260Y-91250091D01*
X175696887Y-91810000D01*
X175808260Y-92369909D01*
X176125423Y-92844577D01*
X176477758Y-93080000D01*
X176125423Y-93315423D01*
X175808260Y-93790091D01*
X175696887Y-94350000D01*
X175808260Y-94909909D01*
X176125423Y-95384577D01*
X176477758Y-95620000D01*
X176125423Y-95855423D01*
X175808260Y-96330091D01*
X175696887Y-96890000D01*
X175808260Y-97449909D01*
X176125423Y-97924577D01*
X176477758Y-98160000D01*
X176125423Y-98395423D01*
X175808260Y-98870091D01*
X175696887Y-99430000D01*
X175808260Y-99989909D01*
X176125423Y-100464577D01*
X176600091Y-100781740D01*
X177018667Y-100865000D01*
X178101333Y-100865000D01*
X178519909Y-100781740D01*
X178994577Y-100464577D01*
X179311740Y-99989909D01*
X179423113Y-99430000D01*
X179311740Y-98870091D01*
X178994577Y-98395423D01*
X178642242Y-98160000D01*
X178994577Y-97924577D01*
X179311740Y-97449909D01*
X179423113Y-96890000D01*
X179311740Y-96330091D01*
X178994577Y-95855423D01*
X178642242Y-95620000D01*
X178994577Y-95384577D01*
X179311740Y-94909909D01*
X179423113Y-94350000D01*
X179311740Y-93790091D01*
X178994577Y-93315423D01*
X178642242Y-93080000D01*
X178994577Y-92844577D01*
X179311740Y-92369909D01*
X179423113Y-91810000D01*
X179311740Y-91250091D01*
X179232166Y-91131000D01*
X179492855Y-91079146D01*
X179868289Y-90828289D01*
X179931613Y-90733518D01*
X180391608Y-90273523D01*
X180579145Y-89992855D01*
X180667235Y-89550001D01*
X180579145Y-89107146D01*
X180328288Y-88731712D01*
X179952854Y-88480855D01*
X179509999Y-88392765D01*
X179067145Y-88480855D01*
X178786477Y-88668392D01*
X178579869Y-88875000D01*
X176018217Y-88875000D01*
X175687145Y-88940854D01*
X175311711Y-89191711D01*
X175060854Y-89567145D01*
X174972765Y-90010000D01*
X163105030Y-90010000D01*
X163105030Y-81725050D01*
X169825000Y-81725050D01*
X169825000Y-82474950D01*
X170111974Y-83167767D01*
X170642233Y-83698026D01*
X171335050Y-83985000D01*
X172084950Y-83985000D01*
X172777767Y-83698026D01*
X173308026Y-83167767D01*
X173595000Y-82474950D01*
X173595000Y-81725050D01*
X173308026Y-81032233D01*
X172777767Y-80501974D01*
X172084950Y-80215000D01*
X171335050Y-80215000D01*
X170642233Y-80501974D01*
X170111974Y-81032233D01*
X169825000Y-81725050D01*
X163105030Y-81725050D01*
X163105030Y-73230000D01*
X169812560Y-73230000D01*
X169812560Y-75730000D01*
X169861843Y-75977765D01*
X170002191Y-76187809D01*
X170212235Y-76328157D01*
X170460000Y-76377440D01*
X172960000Y-76377440D01*
X173207765Y-76328157D01*
X173417809Y-76187809D01*
X173558157Y-75977765D01*
X173607440Y-75730000D01*
X173607440Y-73230000D01*
X173558157Y-72982235D01*
X173417809Y-72772191D01*
X173207765Y-72631843D01*
X172960000Y-72582560D01*
X170460000Y-72582560D01*
X170212235Y-72631843D01*
X170002191Y-72772191D01*
X169861843Y-72982235D01*
X169812560Y-73230000D01*
X163105030Y-73230000D01*
X163105030Y-59807004D01*
X163119918Y-59732157D01*
X163105030Y-59657310D01*
X163105030Y-59657306D01*
X163060934Y-59435621D01*
X162892959Y-59184229D01*
X162829503Y-59141829D01*
X161170351Y-57482678D01*
X161170349Y-57482675D01*
X160381629Y-56693956D01*
X160381629Y-56527883D01*
X160224060Y-56147477D01*
X159932909Y-55856326D01*
X159552503Y-55698757D01*
X159140755Y-55698757D01*
X159135000Y-55701141D01*
X159135000Y-45870131D01*
X159520132Y-45485000D01*
X159546256Y-45485000D01*
X159979418Y-45398839D01*
X160470625Y-45070625D01*
X160683843Y-44751522D01*
X160744817Y-44881358D01*
X161173076Y-45271645D01*
X161583110Y-45441476D01*
X161813000Y-45320155D01*
X161813000Y-44127000D01*
X162067000Y-44127000D01*
X162067000Y-45320155D01*
X162296890Y-45441476D01*
X162706924Y-45271645D01*
X163135183Y-44881358D01*
X163381486Y-44356892D01*
X163260819Y-44127000D01*
X162067000Y-44127000D01*
X161813000Y-44127000D01*
X161793000Y-44127000D01*
X161793000Y-43873000D01*
X161813000Y-43873000D01*
X161813000Y-42679845D01*
X162067000Y-42679845D01*
X162067000Y-43873000D01*
X163260819Y-43873000D01*
X163381486Y-43643108D01*
X163135183Y-43118642D01*
X162706924Y-42728355D01*
X162296890Y-42558524D01*
X162067000Y-42679845D01*
X161813000Y-42679845D01*
X161583110Y-42558524D01*
X161173076Y-42728355D01*
X160744817Y-43118642D01*
X160683843Y-43248478D01*
X160470625Y-42929375D01*
X159979418Y-42601161D01*
X159546256Y-42515000D01*
X159253744Y-42515000D01*
X158820582Y-42601161D01*
X158329375Y-42929375D01*
X158130000Y-43227761D01*
X157930625Y-42929375D01*
X157439418Y-42601161D01*
X157006256Y-42515000D01*
X156713744Y-42515000D01*
X156280582Y-42601161D01*
X156260003Y-42614911D01*
X156260003Y-42324851D01*
X156274891Y-42250003D01*
X156260003Y-42175155D01*
X156260003Y-42175151D01*
X156215907Y-41953466D01*
X156047932Y-41702074D01*
X155984476Y-41659674D01*
X153785000Y-39460199D01*
X153785000Y-39294126D01*
X153627431Y-38913720D01*
X153336280Y-38622569D01*
X152955874Y-38465000D01*
X152544126Y-38465000D01*
X152163720Y-38622569D01*
X151872569Y-38913720D01*
X151715000Y-39294126D01*
X151715000Y-39705874D01*
X151872569Y-40086280D01*
X152163720Y-40377431D01*
X152544126Y-40535000D01*
X152710199Y-40535000D01*
X154740003Y-42564805D01*
X154740003Y-42569452D01*
X154466256Y-42515000D01*
X154173744Y-42515000D01*
X153740582Y-42601161D01*
X153413508Y-42819705D01*
X148388216Y-37794413D01*
X161023000Y-37794413D01*
X161023000Y-39045588D01*
X161104056Y-39453082D01*
X161412821Y-39915180D01*
X161874919Y-40223944D01*
X162420000Y-40332368D01*
X162965082Y-40223944D01*
X163427180Y-39915180D01*
X163710000Y-39491910D01*
X163992821Y-39915180D01*
X164454919Y-40223944D01*
X165000000Y-40332368D01*
X165545082Y-40223944D01*
X166007180Y-39915180D01*
X166247845Y-39555000D01*
X168738701Y-39555000D01*
X169032821Y-39995180D01*
X169494919Y-40303944D01*
X170040000Y-40412368D01*
X170585082Y-40303944D01*
X171047180Y-39995180D01*
X171270000Y-39661706D01*
X171365000Y-39803883D01*
X171365001Y-68268212D01*
X171342765Y-68380000D01*
X171430854Y-68822854D01*
X171430855Y-68822855D01*
X171681712Y-69198289D01*
X171776480Y-69261611D01*
X186915000Y-84400132D01*
X186915001Y-102867938D01*
X186882765Y-103030000D01*
X186970854Y-103472854D01*
X187221712Y-103848288D01*
X187597146Y-104099146D01*
X188040000Y-104187235D01*
X188482854Y-104099146D01*
X188763523Y-103911608D01*
X188773518Y-103901613D01*
X188868289Y-103838289D01*
X189119146Y-103462855D01*
X189185000Y-103131783D01*
X189207235Y-103020001D01*
X189185000Y-102908218D01*
X189185000Y-84041783D01*
X189207235Y-83930000D01*
X189119146Y-83487145D01*
X188868289Y-83111711D01*
X188773522Y-83048390D01*
X173635000Y-67909869D01*
X173635000Y-44888338D01*
X173730000Y-44907235D01*
X174172854Y-44819146D01*
X174453523Y-44631608D01*
X178680132Y-40405000D01*
X182741783Y-40405000D01*
X183072855Y-40339146D01*
X183448289Y-40088289D01*
X183699146Y-39712855D01*
X183787235Y-39270000D01*
X183699146Y-38827145D01*
X183448289Y-38451711D01*
X183072855Y-38200854D01*
X182741783Y-38135000D01*
X178321783Y-38135000D01*
X178210000Y-38112765D01*
X178098217Y-38135000D01*
X177767145Y-38200854D01*
X177391711Y-38451711D01*
X177328389Y-38546479D01*
X173635000Y-42239869D01*
X173635000Y-39803884D01*
X173815944Y-39533082D01*
X173897000Y-39125588D01*
X173897000Y-37874412D01*
X173815944Y-37466918D01*
X173507179Y-37004820D01*
X173045081Y-36696056D01*
X172500000Y-36587632D01*
X171954918Y-36696056D01*
X171492820Y-37004821D01*
X171270000Y-37338294D01*
X171047179Y-37004820D01*
X170585081Y-36696056D01*
X170040000Y-36587632D01*
X169494918Y-36696056D01*
X169032820Y-37004821D01*
X168845610Y-37285000D01*
X166247844Y-37285000D01*
X166007179Y-36924820D01*
X165545081Y-36616056D01*
X165000000Y-36507632D01*
X164454918Y-36616056D01*
X163992820Y-36924821D01*
X163710000Y-37348091D01*
X163427179Y-36924820D01*
X162965081Y-36616056D01*
X162420000Y-36507632D01*
X161874918Y-36616056D01*
X161412820Y-36924821D01*
X161104056Y-37386919D01*
X161023000Y-37794413D01*
X148388216Y-37794413D01*
X148109333Y-37515530D01*
X148066931Y-37452071D01*
X147815539Y-37284096D01*
X147730989Y-37267278D01*
X147586280Y-37122569D01*
X147205874Y-36965000D01*
X146794126Y-36965000D01*
X146413720Y-37122569D01*
X146122569Y-37413720D01*
X145965000Y-37794126D01*
X145965000Y-38205874D01*
X146122569Y-38586280D01*
X146413720Y-38877431D01*
X146794126Y-39035000D01*
X147205874Y-39035000D01*
X147399145Y-38954945D01*
X151107534Y-42663334D01*
X150709375Y-42929375D01*
X150510000Y-43227761D01*
X150310625Y-42929375D01*
X149819418Y-42601161D01*
X149386256Y-42515000D01*
X149093744Y-42515000D01*
X148660582Y-42601161D01*
X148169375Y-42929375D01*
X147970000Y-43227761D01*
X147770625Y-42929375D01*
X147279418Y-42601161D01*
X146846256Y-42515000D01*
X146553744Y-42515000D01*
X146120582Y-42601161D01*
X145629375Y-42929375D01*
X145430000Y-43227761D01*
X145230625Y-42929375D01*
X144739418Y-42601161D01*
X144306256Y-42515000D01*
X144013744Y-42515000D01*
X143580582Y-42601161D01*
X143089375Y-42929375D01*
X142890000Y-43227761D01*
X142690625Y-42929375D01*
X142199418Y-42601161D01*
X141766256Y-42515000D01*
X141473744Y-42515000D01*
X141040582Y-42601161D01*
X140549375Y-42929375D01*
X140350000Y-43227761D01*
X140150625Y-42929375D01*
X139659418Y-42601161D01*
X139226256Y-42515000D01*
X138933744Y-42515000D01*
X138500582Y-42601161D01*
X138009375Y-42929375D01*
X137810000Y-43227761D01*
X137610625Y-42929375D01*
X137119418Y-42601161D01*
X136686256Y-42515000D01*
X136393744Y-42515000D01*
X135960582Y-42601161D01*
X135469375Y-42929375D01*
X135454904Y-42951033D01*
X135388327Y-42790302D01*
X135209699Y-42611673D01*
X134976310Y-42515000D01*
X134285750Y-42515000D01*
X134127000Y-42673750D01*
X134127000Y-43873000D01*
X134147000Y-43873000D01*
X134147000Y-44127000D01*
X134127000Y-44127000D01*
X134127000Y-45326250D01*
X134285750Y-45485000D01*
X134976310Y-45485000D01*
X135209699Y-45388327D01*
X135388327Y-45209698D01*
X135454904Y-45048967D01*
X135469375Y-45070625D01*
X135960582Y-45398839D01*
X136393744Y-45485000D01*
X136686256Y-45485000D01*
X137119418Y-45398839D01*
X137610625Y-45070625D01*
X137810000Y-44772239D01*
X138009375Y-45070625D01*
X138500582Y-45398839D01*
X138933744Y-45485000D01*
X139226256Y-45485000D01*
X139659418Y-45398839D01*
X140150625Y-45070625D01*
X140350000Y-44772239D01*
X140445891Y-44915751D01*
X140308720Y-44972569D01*
X140017569Y-45263720D01*
X139860000Y-45644126D01*
X139860000Y-45910795D01*
X139838720Y-45919609D01*
X139547569Y-46210760D01*
X139390000Y-46591166D01*
X139390000Y-46884531D01*
X139378720Y-46889203D01*
X139087569Y-47180354D01*
X138930000Y-47560760D01*
X138930000Y-47972508D01*
X139087569Y-48352914D01*
X139378720Y-48644065D01*
X139759126Y-48801634D01*
X140170874Y-48801634D01*
X140551280Y-48644065D01*
X140668711Y-48526634D01*
X145398519Y-48526634D01*
X145473366Y-48541522D01*
X145548213Y-48526634D01*
X145548218Y-48526634D01*
X145769903Y-48482538D01*
X146021295Y-48314563D01*
X146063697Y-48251104D01*
X148873592Y-45441209D01*
X149093744Y-45485000D01*
X149386256Y-45485000D01*
X149819418Y-45398839D01*
X150310625Y-45070625D01*
X150510000Y-44772239D01*
X150709375Y-45070625D01*
X151200582Y-45398839D01*
X151633744Y-45485000D01*
X151926256Y-45485000D01*
X152359418Y-45398839D01*
X152686492Y-45180295D01*
X153569670Y-46063474D01*
X153612071Y-46126931D01*
X153863463Y-46294906D01*
X154085148Y-46339002D01*
X154085153Y-46339002D01*
X154160000Y-46353890D01*
X154234847Y-46339002D01*
X155217794Y-46339002D01*
X155930001Y-47051210D01*
X155930000Y-59656305D01*
X155915112Y-59731152D01*
X155930000Y-59805999D01*
X155930000Y-59806003D01*
X155974096Y-60027688D01*
X156142071Y-60279081D01*
X156205530Y-60321483D01*
X158520001Y-62635955D01*
X158520000Y-99285153D01*
X158505112Y-99360000D01*
X158520000Y-99434847D01*
X158520000Y-99434851D01*
X158530001Y-99485129D01*
X158530000Y-101095198D01*
X158040527Y-101584672D01*
X157977071Y-101627072D01*
X157934671Y-101690528D01*
X157934670Y-101690529D01*
X157809096Y-101878464D01*
X157750111Y-102175001D01*
X157765000Y-102249852D01*
X157764999Y-103265837D01*
X157750111Y-103340684D01*
X157764999Y-103415531D01*
X157764999Y-103415535D01*
X157809095Y-103637220D01*
X157977070Y-103888613D01*
X158040529Y-103931015D01*
X158093984Y-103984470D01*
X158136386Y-104047929D01*
X158387778Y-104215904D01*
X158530603Y-104244314D01*
X158663720Y-104377431D01*
X159044126Y-104535000D01*
X159455874Y-104535000D01*
X159485000Y-104522935D01*
X159485000Y-114875717D01*
X159350000Y-115077758D01*
X159114577Y-114725423D01*
X158639909Y-114408260D01*
X158221333Y-114325000D01*
X157938667Y-114325000D01*
X157520091Y-114408260D01*
X157045423Y-114725423D01*
X156789053Y-115109108D01*
X156692389Y-114904866D01*
X156277423Y-114528959D01*
X155889039Y-114368096D01*
X155667000Y-114490085D01*
X155667000Y-115633000D01*
X155687000Y-115633000D01*
X155687000Y-115887000D01*
X155667000Y-115887000D01*
X155667000Y-115907000D01*
X155413000Y-115907000D01*
X155413000Y-115887000D01*
X155393000Y-115887000D01*
X155393000Y-115633000D01*
X155413000Y-115633000D01*
X155413000Y-114490085D01*
X155190961Y-114368096D01*
X154802577Y-114528959D01*
X154387611Y-114904866D01*
X154290947Y-115109108D01*
X154034577Y-114725423D01*
X153559909Y-114408260D01*
X153177283Y-114332151D01*
X150913996Y-112068864D01*
X150962854Y-112059146D01*
X151338288Y-111808288D01*
X151589146Y-111432854D01*
X151677235Y-110989999D01*
X151589146Y-110547146D01*
X151401608Y-110266477D01*
X151285000Y-110149869D01*
X151285000Y-96965197D01*
X151219146Y-96634125D01*
X150968289Y-96258691D01*
X150592854Y-96007834D01*
X150150000Y-95919745D01*
X149707145Y-96007834D01*
X149331711Y-96258691D01*
X149080854Y-96634126D01*
X149015000Y-96965198D01*
X149015001Y-110169870D01*
X145771613Y-106926482D01*
X145708289Y-106831711D01*
X145332855Y-106580854D01*
X145001783Y-106515000D01*
X144890000Y-106492765D01*
X144778217Y-106515000D01*
X130924283Y-106515000D01*
X130722242Y-106380000D01*
X131074577Y-106144577D01*
X131391740Y-105669909D01*
X131503113Y-105110000D01*
X131391740Y-104550091D01*
X131074577Y-104075423D01*
X130722242Y-103840000D01*
X131074577Y-103604577D01*
X131391740Y-103129909D01*
X131503113Y-102570000D01*
X131391740Y-102010091D01*
X131074577Y-101535423D01*
X130599909Y-101218260D01*
X130181333Y-101135000D01*
X129098667Y-101135000D01*
X128680091Y-101218260D01*
X128205423Y-101535423D01*
X127888260Y-102010091D01*
X127776887Y-102570000D01*
X123867440Y-102570000D01*
X123867440Y-101770000D01*
X123818157Y-101522235D01*
X123677809Y-101312191D01*
X123467765Y-101171843D01*
X123220000Y-101122560D01*
X120820000Y-101122560D01*
X120572235Y-101171843D01*
X120362191Y-101312191D01*
X120221843Y-101522235D01*
X120172560Y-101770000D01*
X120172560Y-103370000D01*
X120221843Y-103617765D01*
X120362191Y-103827809D01*
X120572235Y-103968157D01*
X120706106Y-103994785D01*
X120585423Y-104075423D01*
X120268260Y-104550091D01*
X120244528Y-104669397D01*
X119459613Y-103884482D01*
X119396289Y-103789711D01*
X119020855Y-103538854D01*
X118689783Y-103473000D01*
X118578000Y-103450765D01*
X118466217Y-103473000D01*
X116478133Y-103473000D01*
X119623521Y-100327613D01*
X119718288Y-100264292D01*
X119969145Y-99888858D01*
X120015356Y-99656537D01*
X120057234Y-99446004D01*
X120034999Y-99334221D01*
X120034999Y-98450132D01*
X123963521Y-94521611D01*
X124058289Y-94458289D01*
X124309146Y-94082855D01*
X124375000Y-93751783D01*
X124397235Y-93640001D01*
X124375000Y-93528219D01*
X124375000Y-89234126D01*
X139880000Y-89234126D01*
X139880000Y-89645874D01*
X140037569Y-90026280D01*
X140328720Y-90317431D01*
X140709126Y-90475000D01*
X141120874Y-90475000D01*
X141501280Y-90317431D01*
X141618711Y-90200000D01*
X144485199Y-90200000D01*
X146815000Y-92529803D01*
X146815000Y-92695874D01*
X146972569Y-93076280D01*
X147263720Y-93367431D01*
X147644126Y-93525000D01*
X148055874Y-93525000D01*
X148436280Y-93367431D01*
X148727431Y-93076280D01*
X148885000Y-92695874D01*
X148885000Y-92284126D01*
X148727431Y-91903720D01*
X148436280Y-91612569D01*
X148055874Y-91455000D01*
X147889803Y-91455000D01*
X145390331Y-88955530D01*
X145347929Y-88892071D01*
X145096537Y-88724096D01*
X144874852Y-88680000D01*
X144874847Y-88680000D01*
X144800000Y-88665112D01*
X144725153Y-88680000D01*
X141618711Y-88680000D01*
X141501280Y-88562569D01*
X141120874Y-88405000D01*
X140709126Y-88405000D01*
X140328720Y-88562569D01*
X140037569Y-88853720D01*
X139880000Y-89234126D01*
X124375000Y-89234126D01*
X124375000Y-81725050D01*
X154585000Y-81725050D01*
X154585000Y-82474950D01*
X154871974Y-83167767D01*
X155402233Y-83698026D01*
X156095050Y-83985000D01*
X156844950Y-83985000D01*
X157537767Y-83698026D01*
X158068026Y-83167767D01*
X158355000Y-82474950D01*
X158355000Y-81725050D01*
X158068026Y-81032233D01*
X157537767Y-80501974D01*
X156844950Y-80215000D01*
X156095050Y-80215000D01*
X155402233Y-80501974D01*
X154871974Y-81032233D01*
X154585000Y-81725050D01*
X124375000Y-81725050D01*
X124375000Y-76990131D01*
X128400132Y-72965000D01*
X147574184Y-72965000D01*
X152402704Y-77793521D01*
X152466026Y-77888289D01*
X152790357Y-78105000D01*
X152841460Y-78139146D01*
X153284314Y-78227235D01*
X153396097Y-78205000D01*
X153961783Y-78205000D01*
X154292855Y-78139146D01*
X154668289Y-77888289D01*
X154919146Y-77512855D01*
X155007235Y-77070000D01*
X154919146Y-76627145D01*
X154668289Y-76251711D01*
X154292855Y-76000854D01*
X153961783Y-75935000D01*
X153754447Y-75935000D01*
X153632767Y-75813320D01*
X155316285Y-75813320D01*
X155445533Y-76106123D01*
X156145806Y-76374388D01*
X156895435Y-76354250D01*
X157494467Y-76106123D01*
X157623715Y-75813320D01*
X156470000Y-74659605D01*
X155316285Y-75813320D01*
X153632767Y-75813320D01*
X151975253Y-74155806D01*
X154575612Y-74155806D01*
X154595750Y-74905435D01*
X154843877Y-75504467D01*
X155136680Y-75633715D01*
X156290395Y-74480000D01*
X156649605Y-74480000D01*
X157803320Y-75633715D01*
X158096123Y-75504467D01*
X158364388Y-74804194D01*
X158344250Y-74054565D01*
X158096123Y-73455533D01*
X157803320Y-73326285D01*
X156649605Y-74480000D01*
X156290395Y-74480000D01*
X155136680Y-73326285D01*
X154843877Y-73455533D01*
X154575612Y-74155806D01*
X151975253Y-74155806D01*
X150966127Y-73146680D01*
X155316285Y-73146680D01*
X156470000Y-74300395D01*
X157623715Y-73146680D01*
X157494467Y-72853877D01*
X156794194Y-72585612D01*
X156044565Y-72605750D01*
X155445533Y-72853877D01*
X155316285Y-73146680D01*
X150966127Y-73146680D01*
X148925928Y-71106482D01*
X148862604Y-71011711D01*
X148487170Y-70760854D01*
X148156098Y-70695000D01*
X148044315Y-70672765D01*
X147932532Y-70695000D01*
X128041783Y-70695000D01*
X127930000Y-70672765D01*
X127818217Y-70695000D01*
X127487145Y-70760854D01*
X127111711Y-71011711D01*
X127048389Y-71106479D01*
X122516482Y-75638387D01*
X122421711Y-75701711D01*
X122221831Y-76000854D01*
X122170854Y-76077146D01*
X122082765Y-76520000D01*
X122105000Y-76631783D01*
X122105001Y-88578213D01*
X122105000Y-88578218D01*
X122105001Y-93169867D01*
X118176479Y-97098390D01*
X118081711Y-97161712D01*
X117897149Y-97437929D01*
X117830853Y-97537147D01*
X117742764Y-97980001D01*
X117764999Y-98091784D01*
X117764999Y-98975871D01*
X117233000Y-99507870D01*
X117233000Y-99024192D01*
X116786173Y-97945456D01*
X115960544Y-97119827D01*
X114881808Y-96673000D01*
X113714192Y-96673000D01*
X112635456Y-97119827D01*
X111809827Y-97945456D01*
X111363000Y-99024192D01*
X111363000Y-100191808D01*
X111565954Y-100681783D01*
X111303330Y-100573000D01*
X110692670Y-100573000D01*
X110128493Y-100806690D01*
X109696690Y-101238493D01*
X109463000Y-101802670D01*
X104685000Y-101802670D01*
X104685000Y-68470000D01*
X136782765Y-68470000D01*
X136870854Y-68912854D01*
X137121712Y-69288288D01*
X137497146Y-69539146D01*
X137940000Y-69627235D01*
X138382854Y-69539146D01*
X138663523Y-69351608D01*
X141140132Y-66875000D01*
X142951783Y-66875000D01*
X143282855Y-66809146D01*
X143658289Y-66558289D01*
X143909146Y-66182855D01*
X143997235Y-65740000D01*
X143909146Y-65297145D01*
X143658289Y-64921711D01*
X143282855Y-64670854D01*
X142951783Y-64605000D01*
X140781782Y-64605000D01*
X140669999Y-64582765D01*
X140227145Y-64670854D01*
X139851711Y-64921711D01*
X139788389Y-65016479D01*
X137058392Y-67746477D01*
X136870854Y-68027146D01*
X136782765Y-68470000D01*
X104685000Y-68470000D01*
X104685000Y-44285750D01*
X132515000Y-44285750D01*
X132515000Y-44976309D01*
X132611673Y-45209698D01*
X132790301Y-45388327D01*
X133023690Y-45485000D01*
X133714250Y-45485000D01*
X133873000Y-45326250D01*
X133873000Y-44127000D01*
X132673750Y-44127000D01*
X132515000Y-44285750D01*
X104685000Y-44285750D01*
X104685000Y-43023691D01*
X132515000Y-43023691D01*
X132515000Y-43714250D01*
X132673750Y-43873000D01*
X133873000Y-43873000D01*
X133873000Y-42673750D01*
X133714250Y-42515000D01*
X133023690Y-42515000D01*
X132790301Y-42611673D01*
X132611673Y-42790302D01*
X132515000Y-43023691D01*
X104685000Y-43023691D01*
X104685000Y-34356892D01*
X109018514Y-34356892D01*
X109264817Y-34881358D01*
X109693076Y-35271645D01*
X110103110Y-35441476D01*
X110333000Y-35320155D01*
X110333000Y-34127000D01*
X109139181Y-34127000D01*
X109018514Y-34356892D01*
X104685000Y-34356892D01*
X104685000Y-34034698D01*
X104724776Y-33643108D01*
X109018514Y-33643108D01*
X109139181Y-33873000D01*
X110333000Y-33873000D01*
X110333000Y-32679845D01*
X110587000Y-32679845D01*
X110587000Y-33873000D01*
X110607000Y-33873000D01*
X110607000Y-34127000D01*
X110587000Y-34127000D01*
X110587000Y-35320155D01*
X110816890Y-35441476D01*
X111226924Y-35271645D01*
X111531261Y-34994292D01*
X111551843Y-35097765D01*
X111692191Y-35307809D01*
X111902235Y-35448157D01*
X112150000Y-35497440D01*
X113850000Y-35497440D01*
X114097765Y-35448157D01*
X114307809Y-35307809D01*
X114423277Y-35135000D01*
X123359869Y-35135000D01*
X124865001Y-36640133D01*
X124865001Y-37116116D01*
X124710000Y-37348091D01*
X124427179Y-36924820D01*
X123965081Y-36616056D01*
X123420000Y-36507632D01*
X122874918Y-36616056D01*
X122412820Y-36924821D01*
X122104056Y-37386919D01*
X122023000Y-37794413D01*
X122023000Y-39045588D01*
X122104056Y-39453082D01*
X122412821Y-39915180D01*
X122874919Y-40223944D01*
X123420000Y-40332368D01*
X123965082Y-40223944D01*
X124427180Y-39915180D01*
X124710000Y-39491910D01*
X124992821Y-39915180D01*
X125454919Y-40223944D01*
X126000000Y-40332368D01*
X126545082Y-40223944D01*
X127007180Y-39915180D01*
X127247845Y-39555000D01*
X129738701Y-39555000D01*
X130032821Y-39995180D01*
X130494919Y-40303944D01*
X131040000Y-40412368D01*
X131585082Y-40303944D01*
X132047180Y-39995180D01*
X132270000Y-39661706D01*
X132492821Y-39995180D01*
X132954919Y-40303944D01*
X133500000Y-40412368D01*
X134045082Y-40303944D01*
X134507180Y-39995180D01*
X134815944Y-39533082D01*
X134897000Y-39125588D01*
X134897000Y-37874412D01*
X134815944Y-37466918D01*
X134507179Y-37004820D01*
X134045081Y-36696056D01*
X133500000Y-36587632D01*
X132954918Y-36696056D01*
X132492820Y-37004821D01*
X132270000Y-37338294D01*
X132047179Y-37004820D01*
X131585081Y-36696056D01*
X131040000Y-36587632D01*
X130494918Y-36696056D01*
X130032820Y-37004821D01*
X129845610Y-37285000D01*
X127247844Y-37285000D01*
X127135000Y-37116117D01*
X127135000Y-36281781D01*
X127157235Y-36169999D01*
X127135000Y-36058217D01*
X127069146Y-35727145D01*
X126818289Y-35351711D01*
X126723521Y-35288389D01*
X125062132Y-33627000D01*
X127103000Y-33627000D01*
X127103000Y-34115000D01*
X127257941Y-34639941D01*
X127601974Y-35065630D01*
X128082723Y-35327260D01*
X128156930Y-35342220D01*
X128373000Y-35219720D01*
X128373000Y-33627000D01*
X128627000Y-33627000D01*
X128627000Y-35219720D01*
X128843070Y-35342220D01*
X128917277Y-35327260D01*
X129398026Y-35065630D01*
X129742059Y-34639941D01*
X129897000Y-34115000D01*
X129897000Y-33694670D01*
X141425000Y-33694670D01*
X141425000Y-34305330D01*
X141658690Y-34869507D01*
X142090493Y-35301310D01*
X142654670Y-35535000D01*
X143265330Y-35535000D01*
X143829507Y-35301310D01*
X144005861Y-35124956D01*
X144061673Y-35259699D01*
X144240302Y-35438327D01*
X144473691Y-35535000D01*
X145214250Y-35535000D01*
X145373000Y-35376250D01*
X145373000Y-34127000D01*
X145627000Y-34127000D01*
X145627000Y-35376250D01*
X145785750Y-35535000D01*
X146526309Y-35535000D01*
X146759698Y-35438327D01*
X146938327Y-35259699D01*
X147035000Y-35026310D01*
X147035000Y-34285750D01*
X146876250Y-34127000D01*
X145627000Y-34127000D01*
X145373000Y-34127000D01*
X145353000Y-34127000D01*
X145353000Y-33873000D01*
X145373000Y-33873000D01*
X145373000Y-32623750D01*
X145627000Y-32623750D01*
X145627000Y-33873000D01*
X146876250Y-33873000D01*
X147035000Y-33714250D01*
X147035000Y-33694670D01*
X148925000Y-33694670D01*
X148925000Y-34305330D01*
X149158690Y-34869507D01*
X149590493Y-35301310D01*
X150154670Y-35535000D01*
X150765330Y-35535000D01*
X151329507Y-35301310D01*
X151505861Y-35124956D01*
X151561673Y-35259699D01*
X151740302Y-35438327D01*
X151973691Y-35535000D01*
X152714250Y-35535000D01*
X152873000Y-35376250D01*
X152873000Y-34127000D01*
X153127000Y-34127000D01*
X153127000Y-35376250D01*
X153285750Y-35535000D01*
X154026309Y-35535000D01*
X154259698Y-35438327D01*
X154438327Y-35259699D01*
X154535000Y-35026310D01*
X154535000Y-34285750D01*
X154376250Y-34127000D01*
X153127000Y-34127000D01*
X152873000Y-34127000D01*
X152853000Y-34127000D01*
X152853000Y-33873000D01*
X152873000Y-33873000D01*
X152873000Y-32623750D01*
X153127000Y-32623750D01*
X153127000Y-33873000D01*
X154376250Y-33873000D01*
X154535000Y-33714250D01*
X154535000Y-33627000D01*
X166103000Y-33627000D01*
X166103000Y-34115000D01*
X166257941Y-34639941D01*
X166601974Y-35065630D01*
X167082723Y-35327260D01*
X167156930Y-35342220D01*
X167373000Y-35219720D01*
X167373000Y-33627000D01*
X167627000Y-33627000D01*
X167627000Y-35219720D01*
X167843070Y-35342220D01*
X167917277Y-35327260D01*
X168398026Y-35065630D01*
X168742059Y-34639941D01*
X168897000Y-34115000D01*
X168897000Y-34000000D01*
X180945908Y-34000000D01*
X181061161Y-34579418D01*
X181389375Y-35070625D01*
X181880582Y-35398839D01*
X182313744Y-35485000D01*
X182606256Y-35485000D01*
X183039418Y-35398839D01*
X183530625Y-35070625D01*
X183545096Y-35048967D01*
X183611673Y-35209698D01*
X183790301Y-35388327D01*
X184023690Y-35485000D01*
X184714250Y-35485000D01*
X184873000Y-35326250D01*
X184873000Y-34127000D01*
X185127000Y-34127000D01*
X185127000Y-35326250D01*
X185285750Y-35485000D01*
X185976310Y-35485000D01*
X186209699Y-35388327D01*
X186388327Y-35209698D01*
X186485000Y-34976309D01*
X186485000Y-34285750D01*
X186326250Y-34127000D01*
X185127000Y-34127000D01*
X184873000Y-34127000D01*
X184853000Y-34127000D01*
X184853000Y-33873000D01*
X184873000Y-33873000D01*
X184873000Y-32673750D01*
X185127000Y-32673750D01*
X185127000Y-33873000D01*
X186326250Y-33873000D01*
X186485000Y-33714250D01*
X186485000Y-33023691D01*
X186388327Y-32790302D01*
X186209699Y-32611673D01*
X185976310Y-32515000D01*
X185285750Y-32515000D01*
X185127000Y-32673750D01*
X184873000Y-32673750D01*
X184714250Y-32515000D01*
X184023690Y-32515000D01*
X183790301Y-32611673D01*
X183611673Y-32790302D01*
X183545096Y-32951033D01*
X183530625Y-32929375D01*
X183039418Y-32601161D01*
X182606256Y-32515000D01*
X182313744Y-32515000D01*
X181880582Y-32601161D01*
X181389375Y-32929375D01*
X181061161Y-33420582D01*
X180945908Y-34000000D01*
X168897000Y-34000000D01*
X168897000Y-33627000D01*
X167627000Y-33627000D01*
X167373000Y-33627000D01*
X166103000Y-33627000D01*
X154535000Y-33627000D01*
X154535000Y-32973690D01*
X154498264Y-32885000D01*
X166103000Y-32885000D01*
X166103000Y-33373000D01*
X167373000Y-33373000D01*
X167373000Y-31780280D01*
X167627000Y-31780280D01*
X167627000Y-33373000D01*
X168897000Y-33373000D01*
X168897000Y-32885000D01*
X168742059Y-32360059D01*
X168398026Y-31934370D01*
X167917277Y-31672740D01*
X167843070Y-31657780D01*
X167627000Y-31780280D01*
X167373000Y-31780280D01*
X167156930Y-31657780D01*
X167082723Y-31672740D01*
X166601974Y-31934370D01*
X166257941Y-32360059D01*
X166103000Y-32885000D01*
X154498264Y-32885000D01*
X154438327Y-32740301D01*
X154259698Y-32561673D01*
X154026309Y-32465000D01*
X153285750Y-32465000D01*
X153127000Y-32623750D01*
X152873000Y-32623750D01*
X152714250Y-32465000D01*
X151973691Y-32465000D01*
X151740302Y-32561673D01*
X151561673Y-32740301D01*
X151505861Y-32875044D01*
X151329507Y-32698690D01*
X150765330Y-32465000D01*
X150154670Y-32465000D01*
X149590493Y-32698690D01*
X149158690Y-33130493D01*
X148925000Y-33694670D01*
X147035000Y-33694670D01*
X147035000Y-32973690D01*
X146938327Y-32740301D01*
X146759698Y-32561673D01*
X146526309Y-32465000D01*
X145785750Y-32465000D01*
X145627000Y-32623750D01*
X145373000Y-32623750D01*
X145214250Y-32465000D01*
X144473691Y-32465000D01*
X144240302Y-32561673D01*
X144061673Y-32740301D01*
X144005861Y-32875044D01*
X143829507Y-32698690D01*
X143265330Y-32465000D01*
X142654670Y-32465000D01*
X142090493Y-32698690D01*
X141658690Y-33130493D01*
X141425000Y-33694670D01*
X129897000Y-33694670D01*
X129897000Y-33627000D01*
X128627000Y-33627000D01*
X128373000Y-33627000D01*
X127103000Y-33627000D01*
X125062132Y-33627000D01*
X124711613Y-33276482D01*
X124648289Y-33181711D01*
X124272855Y-32930854D01*
X124042331Y-32885000D01*
X127103000Y-32885000D01*
X127103000Y-33373000D01*
X128373000Y-33373000D01*
X128373000Y-31780280D01*
X128627000Y-31780280D01*
X128627000Y-33373000D01*
X129897000Y-33373000D01*
X129897000Y-32885000D01*
X129742059Y-32360059D01*
X129398026Y-31934370D01*
X128917277Y-31672740D01*
X128843070Y-31657780D01*
X128627000Y-31780280D01*
X128373000Y-31780280D01*
X128156930Y-31657780D01*
X128082723Y-31672740D01*
X127601974Y-31934370D01*
X127257941Y-32360059D01*
X127103000Y-32885000D01*
X124042331Y-32885000D01*
X123941783Y-32865000D01*
X123830000Y-32842765D01*
X123718217Y-32865000D01*
X114423277Y-32865000D01*
X114307809Y-32692191D01*
X114097765Y-32551843D01*
X113850000Y-32502560D01*
X112150000Y-32502560D01*
X111902235Y-32551843D01*
X111692191Y-32692191D01*
X111551843Y-32902235D01*
X111531261Y-33005708D01*
X111226924Y-32728355D01*
X110816890Y-32558524D01*
X110587000Y-32679845D01*
X110333000Y-32679845D01*
X110103110Y-32558524D01*
X109693076Y-32728355D01*
X109264817Y-33118642D01*
X109018514Y-33643108D01*
X104724776Y-33643108D01*
X104756160Y-33334139D01*
X104956307Y-32695470D01*
X105280784Y-32110098D01*
X105716343Y-31601922D01*
X106245183Y-31191711D01*
X106845712Y-30896214D01*
X107501567Y-30725377D01*
X108026313Y-30685000D01*
X187965302Y-30685000D01*
X188665861Y-30756160D01*
X188665861Y-30756160D01*
G37*
X188665861Y-30756160D02*
X189304530Y-30956307D01*
X189889902Y-31280784D01*
X190398078Y-31716343D01*
X190808289Y-32245183D01*
X191103786Y-32845712D01*
X191274623Y-33501567D01*
X191315000Y-34026313D01*
X191315001Y-154496019D01*
X191222490Y-154263506D01*
X191144068Y-154146139D01*
X190534316Y-153645290D01*
X190034165Y-154145441D01*
X190034164Y-154145441D01*
X187179605Y-157000000D01*
X187193748Y-157014143D01*
X187014143Y-157193748D01*
X187000000Y-157179605D01*
X184145441Y-160034164D01*
X184145441Y-160034165D01*
X183645290Y-160534316D01*
X184146139Y-161144068D01*
X184542968Y-161315000D01*
X155247239Y-161315000D01*
X155386086Y-161176153D01*
X155635000Y-160575222D01*
X155635000Y-159924778D01*
X155386086Y-159323847D01*
X154926153Y-158863914D01*
X154325222Y-158615000D01*
X153674778Y-158615000D01*
X153073847Y-158863914D01*
X152613914Y-159323847D01*
X152365000Y-159924778D01*
X152365000Y-160575222D01*
X152613914Y-161176153D01*
X152752761Y-161315000D01*
X143247239Y-161315000D01*
X143386086Y-161176153D01*
X143635000Y-160575222D01*
X143635000Y-159924778D01*
X143386086Y-159323847D01*
X142926153Y-158863914D01*
X142325222Y-158615000D01*
X141674778Y-158615000D01*
X141073847Y-158863914D01*
X140613914Y-159323847D01*
X140365000Y-159924778D01*
X140365000Y-160575222D01*
X140613914Y-161176153D01*
X140752761Y-161315000D01*
X111503983Y-161315000D01*
X111736494Y-161222490D01*
X111853861Y-161144068D01*
X112354710Y-160534316D01*
X111854559Y-160034165D01*
X111854559Y-160034164D01*
X109000000Y-157179605D01*
X108985858Y-157193748D01*
X108806253Y-157014143D01*
X108820395Y-157000000D01*
X109179605Y-157000000D01*
X112034164Y-159854559D01*
X112034165Y-159854559D01*
X112534316Y-160354710D01*
X113144068Y-159853861D01*
X113920745Y-158050758D01*
X113922687Y-157912314D01*
X182051717Y-157912314D01*
X182777510Y-159736494D01*
X182855932Y-159853861D01*
X183465684Y-160354710D01*
X183965835Y-159854559D01*
X183965836Y-159854559D01*
X186820395Y-157000000D01*
X183965836Y-154145441D01*
X183965835Y-154145441D01*
X183465684Y-153645290D01*
X182855932Y-154146139D01*
X182079255Y-155949242D01*
X182051717Y-157912314D01*
X113922687Y-157912314D01*
X113948283Y-156087686D01*
X113222490Y-154263506D01*
X113144068Y-154146139D01*
X112874575Y-153924778D01*
X140365000Y-153924778D01*
X140365000Y-154575222D01*
X140613914Y-155176153D01*
X141073847Y-155636086D01*
X141674778Y-155885000D01*
X142325222Y-155885000D01*
X142515000Y-155806391D01*
X142515000Y-156295385D01*
X142741078Y-156841185D01*
X143158815Y-157258922D01*
X143704615Y-157485000D01*
X144295385Y-157485000D01*
X144841185Y-157258922D01*
X145258922Y-156841185D01*
X145485000Y-156295385D01*
X145485000Y-155704615D01*
X146515000Y-155704615D01*
X146515000Y-156295385D01*
X146741078Y-156841185D01*
X147158815Y-157258922D01*
X147704615Y-157485000D01*
X148295385Y-157485000D01*
X148841185Y-157258922D01*
X149258922Y-156841185D01*
X149485000Y-156295385D01*
X149485000Y-155704615D01*
X150515000Y-155704615D01*
X150515000Y-156295385D01*
X150741078Y-156841185D01*
X151158815Y-157258922D01*
X151704615Y-157485000D01*
X152295385Y-157485000D01*
X152841185Y-157258922D01*
X153258922Y-156841185D01*
X153485000Y-156295385D01*
X153485000Y-155806391D01*
X153674778Y-155885000D01*
X154325222Y-155885000D01*
X154926153Y-155636086D01*
X155386086Y-155176153D01*
X155635000Y-154575222D01*
X155635000Y-153924778D01*
X155444837Y-153465684D01*
X183645290Y-153465684D01*
X184145441Y-153965835D01*
X184145441Y-153965836D01*
X187000000Y-156820395D01*
X189854559Y-153965836D01*
X189854559Y-153965835D01*
X190354710Y-153465684D01*
X189853861Y-152855932D01*
X188050758Y-152079255D01*
X186087686Y-152051717D01*
X184263506Y-152777510D01*
X184146139Y-152855932D01*
X183645290Y-153465684D01*
X155444837Y-153465684D01*
X155386086Y-153323847D01*
X154926153Y-152863914D01*
X154325222Y-152615000D01*
X153674778Y-152615000D01*
X153073847Y-152863914D01*
X152613914Y-153323847D01*
X152365000Y-153924778D01*
X152365000Y-154543836D01*
X152295385Y-154515000D01*
X151704615Y-154515000D01*
X151158815Y-154741078D01*
X150741078Y-155158815D01*
X150515000Y-155704615D01*
X149485000Y-155704615D01*
X149258922Y-155158815D01*
X148841185Y-154741078D01*
X148295385Y-154515000D01*
X147704615Y-154515000D01*
X147158815Y-154741078D01*
X146741078Y-155158815D01*
X146515000Y-155704615D01*
X145485000Y-155704615D01*
X145258922Y-155158815D01*
X144841185Y-154741078D01*
X144295385Y-154515000D01*
X143704615Y-154515000D01*
X143635000Y-154543836D01*
X143635000Y-153924778D01*
X143386086Y-153323847D01*
X142926153Y-152863914D01*
X142325222Y-152615000D01*
X141674778Y-152615000D01*
X141073847Y-152863914D01*
X140613914Y-153323847D01*
X140365000Y-153924778D01*
X112874575Y-153924778D01*
X112534316Y-153645290D01*
X112034165Y-154145441D01*
X112034164Y-154145441D01*
X109179605Y-157000000D01*
X108820395Y-157000000D01*
X105965836Y-154145441D01*
X105965835Y-154145441D01*
X105465684Y-153645290D01*
X104855932Y-154146139D01*
X104685000Y-154542968D01*
X104685000Y-153465684D01*
X105645290Y-153465684D01*
X106145441Y-153965835D01*
X106145441Y-153965836D01*
X109000000Y-156820395D01*
X111854559Y-153965836D01*
X111854559Y-153965835D01*
X112354710Y-153465684D01*
X111853861Y-152855932D01*
X110050758Y-152079255D01*
X108087686Y-152051717D01*
X106263506Y-152777510D01*
X106146139Y-152855932D01*
X105645290Y-153465684D01*
X104685000Y-153465684D01*
X104685000Y-146265322D01*
X116335000Y-146265322D01*
X116335000Y-147114678D01*
X116660034Y-147899380D01*
X117260620Y-148499966D01*
X118045322Y-148825000D01*
X118894678Y-148825000D01*
X119679380Y-148499966D01*
X120279966Y-147899380D01*
X120605000Y-147114678D01*
X120605000Y-146265322D01*
X120279966Y-145480620D01*
X119679380Y-144880034D01*
X118894678Y-144555000D01*
X118045322Y-144555000D01*
X117260620Y-144880034D01*
X116660034Y-145480620D01*
X116335000Y-146265322D01*
X104685000Y-146265322D01*
X104685000Y-142264000D01*
X124210560Y-142264000D01*
X124210560Y-145264000D01*
X124259843Y-145511765D01*
X124400191Y-145721809D01*
X124610235Y-145862157D01*
X124858000Y-145911440D01*
X129210560Y-145911440D01*
X129210560Y-146264000D01*
X129259843Y-146511765D01*
X129400191Y-146721809D01*
X129610235Y-146862157D01*
X129858000Y-146911440D01*
X131210560Y-146911440D01*
X131210560Y-147764000D01*
X131259843Y-148011765D01*
X131400191Y-148221809D01*
X131610235Y-148362157D01*
X131858000Y-148411440D01*
X135858000Y-148411440D01*
X136105765Y-148362157D01*
X136315809Y-148221809D01*
X136327728Y-148203970D01*
X148195635Y-148203970D01*
X148355418Y-148522739D01*
X149146187Y-148832723D01*
X149995387Y-148816497D01*
X150704582Y-148522739D01*
X150864365Y-148203970D01*
X149530000Y-146869605D01*
X148195635Y-148203970D01*
X136327728Y-148203970D01*
X136456157Y-148011765D01*
X136505440Y-147764000D01*
X136505440Y-146911440D01*
X137858000Y-146911440D01*
X138105765Y-146862157D01*
X138315809Y-146721809D01*
X138456157Y-146511765D01*
X138497048Y-146306187D01*
X147387277Y-146306187D01*
X147403503Y-147155387D01*
X147697261Y-147864582D01*
X148016030Y-148024365D01*
X149350395Y-146690000D01*
X149709605Y-146690000D01*
X151043970Y-148024365D01*
X151362739Y-147864582D01*
X151672723Y-147073813D01*
X151656497Y-146224613D01*
X151362739Y-145515418D01*
X151043970Y-145355635D01*
X149709605Y-146690000D01*
X149350395Y-146690000D01*
X148016030Y-145355635D01*
X147697261Y-145515418D01*
X147387277Y-146306187D01*
X138497048Y-146306187D01*
X138505440Y-146264000D01*
X138505440Y-145911440D01*
X142858000Y-145911440D01*
X143105765Y-145862157D01*
X143315809Y-145721809D01*
X143456157Y-145511765D01*
X143505440Y-145264000D01*
X143505440Y-145176030D01*
X148195635Y-145176030D01*
X149530000Y-146510395D01*
X150864365Y-145176030D01*
X150704582Y-144857261D01*
X149913813Y-144547277D01*
X149064613Y-144563503D01*
X148355418Y-144857261D01*
X148195635Y-145176030D01*
X143505440Y-145176030D01*
X143505440Y-142264000D01*
X143456157Y-142016235D01*
X143315809Y-141806191D01*
X143105765Y-141665843D01*
X142858000Y-141616560D01*
X138505440Y-141616560D01*
X138505440Y-141264000D01*
X138456157Y-141016235D01*
X138315809Y-140806191D01*
X138105765Y-140665843D01*
X137858000Y-140616560D01*
X136505440Y-140616560D01*
X136505440Y-139764000D01*
X136456157Y-139516235D01*
X136368684Y-139385322D01*
X147395000Y-139385322D01*
X147395000Y-140234678D01*
X147720034Y-141019380D01*
X148320620Y-141619966D01*
X149105322Y-141945000D01*
X149954678Y-141945000D01*
X150739380Y-141619966D01*
X151339966Y-141019380D01*
X151665000Y-140234678D01*
X151665000Y-139385322D01*
X151479254Y-138936890D01*
X155098524Y-138936890D01*
X155268355Y-139346924D01*
X155658642Y-139775183D01*
X156183108Y-140021486D01*
X156413000Y-139900819D01*
X156413000Y-138707000D01*
X156667000Y-138707000D01*
X156667000Y-139900819D01*
X156896892Y-140021486D01*
X157421358Y-139775183D01*
X157811645Y-139346924D01*
X157981476Y-138936890D01*
X157860155Y-138707000D01*
X156667000Y-138707000D01*
X156413000Y-138707000D01*
X155219845Y-138707000D01*
X155098524Y-138936890D01*
X151479254Y-138936890D01*
X151339966Y-138600620D01*
X150739380Y-138000034D01*
X149954678Y-137675000D01*
X149105322Y-137675000D01*
X148320620Y-138000034D01*
X147720034Y-138600620D01*
X147395000Y-139385322D01*
X136368684Y-139385322D01*
X136315809Y-139306191D01*
X136105765Y-139165843D01*
X135858000Y-139116560D01*
X131858000Y-139116560D01*
X131610235Y-139165843D01*
X131400191Y-139306191D01*
X131259843Y-139516235D01*
X131210560Y-139764000D01*
X131210560Y-140616560D01*
X129858000Y-140616560D01*
X129610235Y-140665843D01*
X129400191Y-140806191D01*
X129259843Y-141016235D01*
X129210560Y-141264000D01*
X129210560Y-141616560D01*
X124858000Y-141616560D01*
X124610235Y-141665843D01*
X124400191Y-141806191D01*
X124259843Y-142016235D01*
X124210560Y-142264000D01*
X104685000Y-142264000D01*
X104685000Y-139385322D01*
X116335000Y-139385322D01*
X116335000Y-140234678D01*
X116660034Y-141019380D01*
X117260620Y-141619966D01*
X118045322Y-141945000D01*
X118894678Y-141945000D01*
X119679380Y-141619966D01*
X120279966Y-141019380D01*
X120605000Y-140234678D01*
X120605000Y-139385322D01*
X120279966Y-138600620D01*
X119679380Y-138000034D01*
X118894678Y-137675000D01*
X118045322Y-137675000D01*
X117260620Y-138000034D01*
X116660034Y-138600620D01*
X116335000Y-139385322D01*
X104685000Y-139385322D01*
X104685000Y-135190000D01*
X155042560Y-135190000D01*
X155042560Y-136890000D01*
X155091843Y-137137765D01*
X155232191Y-137347809D01*
X155442235Y-137488157D01*
X155545708Y-137508739D01*
X155268355Y-137813076D01*
X155098524Y-138223110D01*
X155219845Y-138453000D01*
X156413000Y-138453000D01*
X156413000Y-138433000D01*
X156667000Y-138433000D01*
X156667000Y-138453000D01*
X157860155Y-138453000D01*
X157981476Y-138223110D01*
X157811645Y-137813076D01*
X157534292Y-137508739D01*
X157637765Y-137488157D01*
X157847809Y-137347809D01*
X157988157Y-137137765D01*
X158037440Y-136890000D01*
X158037440Y-135190000D01*
X157988157Y-134942235D01*
X157847809Y-134732191D01*
X157637765Y-134591843D01*
X157390000Y-134542560D01*
X155690000Y-134542560D01*
X155442235Y-134591843D01*
X155232191Y-134732191D01*
X155091843Y-134942235D01*
X155042560Y-135190000D01*
X104685000Y-135190000D01*
X104685000Y-130540159D01*
X110351446Y-130540159D01*
X110437852Y-130796643D01*
X111011336Y-131006458D01*
X111621460Y-130980839D01*
X111813753Y-130901189D01*
X111617000Y-131376192D01*
X111617000Y-132543808D01*
X112063827Y-133622544D01*
X112889456Y-134448173D01*
X113968192Y-134895000D01*
X115135808Y-134895000D01*
X116214544Y-134448173D01*
X117040173Y-133622544D01*
X117487000Y-132543808D01*
X117487000Y-131490778D01*
X139843000Y-131490778D01*
X139843000Y-132141222D01*
X140091914Y-132742153D01*
X140551847Y-133202086D01*
X141152778Y-133451000D01*
X141803222Y-133451000D01*
X142404153Y-133202086D01*
X142864086Y-132742153D01*
X143113000Y-132141222D01*
X143113000Y-131500778D01*
X144923000Y-131500778D01*
X144923000Y-132151222D01*
X145171914Y-132752153D01*
X145631847Y-133212086D01*
X146232778Y-133461000D01*
X146883222Y-133461000D01*
X147484153Y-133212086D01*
X147944086Y-132752153D01*
X148193000Y-132151222D01*
X148193000Y-131500778D01*
X147944086Y-130899847D01*
X147484153Y-130439914D01*
X146904950Y-130200000D01*
X151552560Y-130200000D01*
X151552560Y-131800000D01*
X151601843Y-132047765D01*
X151742191Y-132257809D01*
X151952235Y-132398157D01*
X152200000Y-132447440D01*
X153800000Y-132447440D01*
X154047765Y-132398157D01*
X154257809Y-132257809D01*
X154398157Y-132047765D01*
X154424785Y-131913894D01*
X154505423Y-132034577D01*
X154980091Y-132351740D01*
X155398667Y-132435000D01*
X155681333Y-132435000D01*
X156099909Y-132351740D01*
X156574577Y-132034577D01*
X156810000Y-131682242D01*
X157045423Y-132034577D01*
X157520091Y-132351740D01*
X157938667Y-132435000D01*
X158221333Y-132435000D01*
X158639909Y-132351740D01*
X159114577Y-132034577D01*
X159370947Y-131650892D01*
X159467611Y-131855134D01*
X159882577Y-132231041D01*
X160270961Y-132391904D01*
X160493000Y-132269915D01*
X160493000Y-131127000D01*
X160473000Y-131127000D01*
X160473000Y-130873000D01*
X160493000Y-130873000D01*
X160493000Y-129730085D01*
X160270961Y-129608096D01*
X159882577Y-129768959D01*
X159467611Y-130144866D01*
X159370947Y-130349108D01*
X159114577Y-129965423D01*
X158639909Y-129648260D01*
X158221333Y-129565000D01*
X157938667Y-129565000D01*
X157520091Y-129648260D01*
X157045423Y-129965423D01*
X156810000Y-130317758D01*
X156574577Y-129965423D01*
X156099909Y-129648260D01*
X155681333Y-129565000D01*
X155398667Y-129565000D01*
X154980091Y-129648260D01*
X154505423Y-129965423D01*
X154424785Y-130086106D01*
X154398157Y-129952235D01*
X154257809Y-129742191D01*
X154047765Y-129601843D01*
X153800000Y-129552560D01*
X152200000Y-129552560D01*
X151952235Y-129601843D01*
X151742191Y-129742191D01*
X151601843Y-129952235D01*
X151552560Y-130200000D01*
X146904950Y-130200000D01*
X146883222Y-130191000D01*
X146232778Y-130191000D01*
X145631847Y-130439914D01*
X145171914Y-130899847D01*
X144923000Y-131500778D01*
X143113000Y-131500778D01*
X143113000Y-131490778D01*
X142864086Y-130889847D01*
X142404153Y-130429914D01*
X141803222Y-130181000D01*
X141152778Y-130181000D01*
X140551847Y-130429914D01*
X140091914Y-130889847D01*
X139843000Y-131490778D01*
X117487000Y-131490778D01*
X117487000Y-131376192D01*
X117040173Y-130297456D01*
X116214544Y-129471827D01*
X115135808Y-129025000D01*
X113968192Y-129025000D01*
X112889456Y-129471827D01*
X112792903Y-129568380D01*
X112772839Y-129090540D01*
X112588643Y-128645852D01*
X112332159Y-128559446D01*
X111431605Y-129460000D01*
X111445748Y-129474143D01*
X111266143Y-129653748D01*
X111252000Y-129639605D01*
X110351446Y-130540159D01*
X104685000Y-130540159D01*
X104685000Y-129219336D01*
X109705542Y-129219336D01*
X109731161Y-129829460D01*
X109915357Y-130274148D01*
X110171841Y-130360554D01*
X111072395Y-129460000D01*
X110171841Y-128559446D01*
X109915357Y-128645852D01*
X109705542Y-129219336D01*
X104685000Y-129219336D01*
X104685000Y-124154670D01*
X109717000Y-124154670D01*
X109717000Y-124765330D01*
X109950690Y-125329507D01*
X110331183Y-125710000D01*
X109950690Y-126090493D01*
X109717000Y-126654670D01*
X109717000Y-127265330D01*
X109950690Y-127829507D01*
X110382493Y-128261310D01*
X110390290Y-128264539D01*
X110351446Y-128379841D01*
X111252000Y-129280395D01*
X112152554Y-128379841D01*
X112113710Y-128264539D01*
X112121507Y-128261310D01*
X112553310Y-127829507D01*
X112787000Y-127265330D01*
X112787000Y-126654670D01*
X112553310Y-126090493D01*
X112172817Y-125710000D01*
X112553310Y-125329507D01*
X112787000Y-124765330D01*
X112787000Y-124345717D01*
X112889456Y-124448173D01*
X113968192Y-124895000D01*
X115135808Y-124895000D01*
X116214544Y-124448173D01*
X117040173Y-123622544D01*
X117487000Y-122543808D01*
X117487000Y-122143108D01*
X174358514Y-122143108D01*
X174479181Y-122373000D01*
X175673000Y-122373000D01*
X175673000Y-121179845D01*
X175443110Y-121058524D01*
X175033076Y-121228355D01*
X174604817Y-121618642D01*
X174358514Y-122143108D01*
X117487000Y-122143108D01*
X117487000Y-121376192D01*
X117040173Y-120297456D01*
X116214544Y-119471827D01*
X115135808Y-119025000D01*
X113968192Y-119025000D01*
X112889456Y-119471827D01*
X112063827Y-120297456D01*
X111617000Y-121376192D01*
X111617000Y-122543808D01*
X111819954Y-123033783D01*
X111557330Y-122925000D01*
X110946670Y-122925000D01*
X110382493Y-123158690D01*
X109950690Y-123590493D01*
X109717000Y-124154670D01*
X104685000Y-124154670D01*
X104685000Y-108188159D01*
X110097446Y-108188159D01*
X110183852Y-108444643D01*
X110757336Y-108654458D01*
X111367460Y-108628839D01*
X111559753Y-108549189D01*
X111363000Y-109024192D01*
X111363000Y-110191808D01*
X111809827Y-111270544D01*
X112635456Y-112096173D01*
X113714192Y-112543000D01*
X114881808Y-112543000D01*
X115960544Y-112096173D01*
X116786173Y-111270544D01*
X117233000Y-110191808D01*
X117233000Y-109024192D01*
X116786173Y-107945456D01*
X115960544Y-107119827D01*
X114881808Y-106673000D01*
X113714192Y-106673000D01*
X112635456Y-107119827D01*
X112538903Y-107216380D01*
X112518839Y-106738540D01*
X112334643Y-106293852D01*
X112078159Y-106207446D01*
X111177605Y-107108000D01*
X111191748Y-107122143D01*
X111012143Y-107301748D01*
X110998000Y-107287605D01*
X110097446Y-108188159D01*
X104685000Y-108188159D01*
X104685000Y-106867336D01*
X109451542Y-106867336D01*
X109477161Y-107477460D01*
X109661357Y-107922148D01*
X109917841Y-108008554D01*
X110818395Y-107108000D01*
X109917841Y-106207446D01*
X109661357Y-106293852D01*
X109451542Y-106867336D01*
X104685000Y-106867336D01*
X104685000Y-101802670D01*
X109463000Y-101802670D01*
X109463000Y-102413330D01*
X109696690Y-102977507D01*
X110077183Y-103358000D01*
X109696690Y-103738493D01*
X109463000Y-104302670D01*
X109463000Y-104913330D01*
X109696690Y-105477507D01*
X110128493Y-105909310D01*
X110136290Y-105912539D01*
X110097446Y-106027841D01*
X110998000Y-106928395D01*
X111898554Y-106027841D01*
X111859710Y-105912539D01*
X111867507Y-105909310D01*
X112033817Y-105743000D01*
X118107869Y-105743000D01*
X120192151Y-107827283D01*
X120268260Y-108209909D01*
X120585423Y-108684577D01*
X120937758Y-108920000D01*
X120585423Y-109155423D01*
X120268260Y-109630091D01*
X120156887Y-110190000D01*
X120268260Y-110749909D01*
X120585423Y-111224577D01*
X121060091Y-111541740D01*
X121478667Y-111625000D01*
X122561333Y-111625000D01*
X122979909Y-111541740D01*
X123454577Y-111224577D01*
X123771740Y-110749909D01*
X123883113Y-110190000D01*
X123771740Y-109630091D01*
X123454577Y-109155423D01*
X123102242Y-108920000D01*
X123454577Y-108684577D01*
X123771740Y-108209909D01*
X123883113Y-107650000D01*
X123771740Y-107090091D01*
X123454577Y-106615423D01*
X123102242Y-106380000D01*
X123454577Y-106144577D01*
X123771740Y-105669909D01*
X123883113Y-105110000D01*
X123771740Y-104550091D01*
X123454577Y-104075423D01*
X123333894Y-103994785D01*
X123467765Y-103968157D01*
X123677809Y-103827809D01*
X123818157Y-103617765D01*
X123867440Y-103370000D01*
X123867440Y-102570000D01*
X127776887Y-102570000D01*
X127888260Y-103129909D01*
X128205423Y-103604577D01*
X128557758Y-103840000D01*
X128205423Y-104075423D01*
X127888260Y-104550091D01*
X127776887Y-105110000D01*
X127888260Y-105669909D01*
X128205423Y-106144577D01*
X128557758Y-106380000D01*
X128205423Y-106615423D01*
X127888260Y-107090091D01*
X127776887Y-107650000D01*
X127888260Y-108209909D01*
X128205423Y-108684577D01*
X128557758Y-108920000D01*
X128205423Y-109155423D01*
X127888260Y-109630091D01*
X127776887Y-110190000D01*
X127888260Y-110749909D01*
X128205423Y-111224577D01*
X128680091Y-111541740D01*
X129098667Y-111625000D01*
X130181333Y-111625000D01*
X130599909Y-111541740D01*
X131074577Y-111224577D01*
X131391740Y-110749909D01*
X131503113Y-110190000D01*
X131391740Y-109630091D01*
X131074577Y-109155423D01*
X130722242Y-108920000D01*
X130924283Y-108785000D01*
X144419869Y-108785000D01*
X151572151Y-115937283D01*
X151648260Y-116319909D01*
X151965423Y-116794577D01*
X152440091Y-117111740D01*
X152822717Y-117187849D01*
X153076475Y-117441607D01*
X153076478Y-117441609D01*
X153618388Y-117983519D01*
X153681712Y-118078290D01*
X154057146Y-118329147D01*
X154388218Y-118395001D01*
X154500000Y-118417236D01*
X154611782Y-118395001D01*
X159008216Y-118395001D01*
X159119999Y-118417236D01*
X159231782Y-118395001D01*
X159562854Y-118329147D01*
X159938288Y-118078290D01*
X160001612Y-117983519D01*
X160797282Y-117187849D01*
X161179909Y-117111740D01*
X161654577Y-116794577D01*
X161890000Y-116442242D01*
X162125423Y-116794577D01*
X162600091Y-117111740D01*
X163018667Y-117195000D01*
X163301333Y-117195000D01*
X163719909Y-117111740D01*
X164194577Y-116794577D01*
X164430000Y-116442242D01*
X164665423Y-116794577D01*
X165140091Y-117111740D01*
X165558667Y-117195000D01*
X165841333Y-117195000D01*
X166259909Y-117111740D01*
X166734577Y-116794577D01*
X166970000Y-116442242D01*
X167205423Y-116794577D01*
X167680091Y-117111740D01*
X168098667Y-117195000D01*
X168381333Y-117195000D01*
X168799909Y-117111740D01*
X169274577Y-116794577D01*
X169510000Y-116442242D01*
X169745423Y-116794577D01*
X170220091Y-117111740D01*
X170638667Y-117195000D01*
X170921333Y-117195000D01*
X171339909Y-117111740D01*
X171814577Y-116794577D01*
X172050000Y-116442242D01*
X172285423Y-116794577D01*
X172760091Y-117111740D01*
X173178667Y-117195000D01*
X173461333Y-117195000D01*
X173879909Y-117111740D01*
X174354577Y-116794577D01*
X174590000Y-116442242D01*
X174825423Y-116794577D01*
X175300091Y-117111740D01*
X175718667Y-117195000D01*
X176001333Y-117195000D01*
X176419909Y-117111740D01*
X176894577Y-116794577D01*
X177130000Y-116442242D01*
X177365423Y-116794577D01*
X177840091Y-117111740D01*
X178258667Y-117195000D01*
X178541333Y-117195000D01*
X178959909Y-117111740D01*
X179434577Y-116794577D01*
X179670000Y-116442242D01*
X179905423Y-116794577D01*
X180380091Y-117111740D01*
X180798667Y-117195000D01*
X181081333Y-117195000D01*
X181499909Y-117111740D01*
X181974577Y-116794577D01*
X182210000Y-116442242D01*
X182445423Y-116794577D01*
X182920091Y-117111740D01*
X183338667Y-117195000D01*
X183621333Y-117195000D01*
X183845001Y-117150510D01*
X183845001Y-121070446D01*
X183566256Y-121015000D01*
X183273744Y-121015000D01*
X182840582Y-121101161D01*
X182349375Y-121429375D01*
X182150000Y-121727761D01*
X181950625Y-121429375D01*
X181459418Y-121101161D01*
X181026256Y-121015000D01*
X180733744Y-121015000D01*
X180300582Y-121101161D01*
X179809375Y-121429375D01*
X179610000Y-121727761D01*
X179410625Y-121429375D01*
X178919418Y-121101161D01*
X178486256Y-121015000D01*
X178193744Y-121015000D01*
X177760582Y-121101161D01*
X177269375Y-121429375D01*
X177056157Y-121748478D01*
X176995183Y-121618642D01*
X176566924Y-121228355D01*
X176156890Y-121058524D01*
X175927000Y-121179845D01*
X175927000Y-122373000D01*
X175947000Y-122373000D01*
X175947000Y-122627000D01*
X175927000Y-122627000D01*
X175927000Y-122647000D01*
X175673000Y-122647000D01*
X175673000Y-122627000D01*
X174479181Y-122627000D01*
X174358514Y-122856892D01*
X174604817Y-123381358D01*
X175033076Y-123771645D01*
X175140978Y-123816337D01*
X174917201Y-123909028D01*
X174626050Y-124200179D01*
X174468481Y-124580585D01*
X174468481Y-124709083D01*
X168765763Y-124709083D01*
X168690916Y-124694195D01*
X168616069Y-124709083D01*
X168616065Y-124709083D01*
X168394380Y-124753179D01*
X168394378Y-124753180D01*
X168394379Y-124753180D01*
X168206443Y-124878754D01*
X168206441Y-124878756D01*
X168142988Y-124921154D01*
X168100590Y-124984607D01*
X163483887Y-129601312D01*
X163301333Y-129565000D01*
X163018667Y-129565000D01*
X162600091Y-129648260D01*
X162125423Y-129965423D01*
X161869053Y-130349108D01*
X161772389Y-130144866D01*
X161357423Y-129768959D01*
X160969039Y-129608096D01*
X160747000Y-129730085D01*
X160747000Y-130873000D01*
X160767000Y-130873000D01*
X160767000Y-131127000D01*
X160747000Y-131127000D01*
X160747000Y-132269915D01*
X160969039Y-132391904D01*
X161357423Y-132231041D01*
X161772389Y-131855134D01*
X161869053Y-131650892D01*
X162125423Y-132034577D01*
X162600091Y-132351740D01*
X163018667Y-132435000D01*
X163301333Y-132435000D01*
X163719909Y-132351740D01*
X164194577Y-132034577D01*
X164430000Y-131682242D01*
X164665423Y-132034577D01*
X165140091Y-132351740D01*
X165558667Y-132435000D01*
X165841333Y-132435000D01*
X166259909Y-132351740D01*
X166734577Y-132034577D01*
X166970000Y-131682242D01*
X167205423Y-132034577D01*
X167680091Y-132351740D01*
X168098667Y-132435000D01*
X168381333Y-132435000D01*
X168799909Y-132351740D01*
X169274577Y-132034577D01*
X169510000Y-131682242D01*
X169745423Y-132034577D01*
X170220091Y-132351740D01*
X170638667Y-132435000D01*
X170921333Y-132435000D01*
X171339909Y-132351740D01*
X171814577Y-132034577D01*
X172050000Y-131682242D01*
X172285423Y-132034577D01*
X172760091Y-132351740D01*
X173178667Y-132435000D01*
X173461333Y-132435000D01*
X173879909Y-132351740D01*
X174354577Y-132034577D01*
X174590000Y-131682242D01*
X174825423Y-132034577D01*
X175300091Y-132351740D01*
X175718667Y-132435000D01*
X176001333Y-132435000D01*
X176419909Y-132351740D01*
X176894577Y-132034577D01*
X177130000Y-131682242D01*
X177365423Y-132034577D01*
X177840091Y-132351740D01*
X178258667Y-132435000D01*
X178541333Y-132435000D01*
X178959909Y-132351740D01*
X179434577Y-132034577D01*
X179670000Y-131682242D01*
X179905423Y-132034577D01*
X180380091Y-132351740D01*
X180798667Y-132435000D01*
X181081333Y-132435000D01*
X181499909Y-132351740D01*
X181974577Y-132034577D01*
X182210000Y-131682242D01*
X182445423Y-132034577D01*
X182920091Y-132351740D01*
X183338667Y-132435000D01*
X183621333Y-132435000D01*
X184039909Y-132351740D01*
X184514577Y-132034577D01*
X184750000Y-131682242D01*
X184985423Y-132034577D01*
X185460091Y-132351740D01*
X185878667Y-132435000D01*
X186161333Y-132435000D01*
X186579909Y-132351740D01*
X187054577Y-132034577D01*
X187290000Y-131682242D01*
X187525423Y-132034577D01*
X188000091Y-132351740D01*
X188418667Y-132435000D01*
X188701333Y-132435000D01*
X189119909Y-132351740D01*
X189594577Y-132034577D01*
X189911740Y-131559909D01*
X190023113Y-131000000D01*
X189911740Y-130440091D01*
X189594577Y-129965423D01*
X189119909Y-129648260D01*
X188701333Y-129565000D01*
X188418667Y-129565000D01*
X188236114Y-129601312D01*
X188010000Y-129375199D01*
X188010000Y-123997440D01*
X189350000Y-123997440D01*
X189597765Y-123948157D01*
X189807809Y-123807809D01*
X189948157Y-123597765D01*
X189997440Y-123350000D01*
X189997440Y-121650000D01*
X189948157Y-121402235D01*
X189807809Y-121192191D01*
X189597765Y-121051843D01*
X189350000Y-121002560D01*
X188010000Y-121002560D01*
X188010000Y-117113711D01*
X188418667Y-117195000D01*
X188701333Y-117195000D01*
X189119909Y-117111740D01*
X189594577Y-116794577D01*
X189911740Y-116319909D01*
X190023113Y-115760000D01*
X189911740Y-115200091D01*
X189594577Y-114725423D01*
X189119909Y-114408260D01*
X188701333Y-114325000D01*
X188418667Y-114325000D01*
X188236114Y-114361312D01*
X181230311Y-107355510D01*
X181187909Y-107292051D01*
X180936517Y-107124076D01*
X180714832Y-107079980D01*
X180714827Y-107079980D01*
X180639980Y-107065092D01*
X180565133Y-107079980D01*
X164897602Y-107079980D01*
X163105030Y-105287409D01*
X163105030Y-94350000D01*
X168076887Y-94350000D01*
X168188260Y-94909909D01*
X168505423Y-95384577D01*
X168857758Y-95620000D01*
X168505423Y-95855423D01*
X168188260Y-96330091D01*
X168076887Y-96890000D01*
X168188260Y-97449909D01*
X168505423Y-97924577D01*
X168857758Y-98160000D01*
X168505423Y-98395423D01*
X168188260Y-98870091D01*
X168076887Y-99430000D01*
X168188260Y-99989909D01*
X168505423Y-100464577D01*
X168980091Y-100781740D01*
X169398667Y-100865000D01*
X170481333Y-100865000D01*
X170899909Y-100781740D01*
X171374577Y-100464577D01*
X171691740Y-99989909D01*
X171803113Y-99430000D01*
X171691740Y-98870091D01*
X171374577Y-98395423D01*
X171022242Y-98160000D01*
X171374577Y-97924577D01*
X171691740Y-97449909D01*
X171803113Y-96890000D01*
X171691740Y-96330091D01*
X171374577Y-95855423D01*
X171022242Y-95620000D01*
X171374577Y-95384577D01*
X171691740Y-94909909D01*
X171803113Y-94350000D01*
X171691740Y-93790091D01*
X171374577Y-93315423D01*
X171253894Y-93234785D01*
X171387765Y-93208157D01*
X171597809Y-93067809D01*
X171738157Y-92857765D01*
X171787440Y-92610000D01*
X171787440Y-91010000D01*
X171738157Y-90762235D01*
X171597809Y-90552191D01*
X171387765Y-90411843D01*
X171140000Y-90362560D01*
X168740000Y-90362560D01*
X168492235Y-90411843D01*
X168282191Y-90552191D01*
X168141843Y-90762235D01*
X168092560Y-91010000D01*
X168092560Y-92610000D01*
X168141843Y-92857765D01*
X168282191Y-93067809D01*
X168492235Y-93208157D01*
X168626106Y-93234785D01*
X168505423Y-93315423D01*
X168188260Y-93790091D01*
X168076887Y-94350000D01*
X163105030Y-94350000D01*
X163105030Y-90010000D01*
X174972765Y-90010000D01*
X175060854Y-90452855D01*
X175311711Y-90828289D01*
X175687145Y-91079146D01*
X175894873Y-91120465D01*
X175808260Y-91250091D01*
X175696887Y-91810000D01*
X175808260Y-92369909D01*
X176125423Y-92844577D01*
X176477758Y-93080000D01*
X176125423Y-93315423D01*
X175808260Y-93790091D01*
X175696887Y-94350000D01*
X175808260Y-94909909D01*
X176125423Y-95384577D01*
X176477758Y-95620000D01*
X176125423Y-95855423D01*
X175808260Y-96330091D01*
X175696887Y-96890000D01*
X175808260Y-97449909D01*
X176125423Y-97924577D01*
X176477758Y-98160000D01*
X176125423Y-98395423D01*
X175808260Y-98870091D01*
X175696887Y-99430000D01*
X175808260Y-99989909D01*
X176125423Y-100464577D01*
X176600091Y-100781740D01*
X177018667Y-100865000D01*
X178101333Y-100865000D01*
X178519909Y-100781740D01*
X178994577Y-100464577D01*
X179311740Y-99989909D01*
X179423113Y-99430000D01*
X179311740Y-98870091D01*
X178994577Y-98395423D01*
X178642242Y-98160000D01*
X178994577Y-97924577D01*
X179311740Y-97449909D01*
X179423113Y-96890000D01*
X179311740Y-96330091D01*
X178994577Y-95855423D01*
X178642242Y-95620000D01*
X178994577Y-95384577D01*
X179311740Y-94909909D01*
X179423113Y-94350000D01*
X179311740Y-93790091D01*
X178994577Y-93315423D01*
X178642242Y-93080000D01*
X178994577Y-92844577D01*
X179311740Y-92369909D01*
X179423113Y-91810000D01*
X179311740Y-91250091D01*
X179232166Y-91131000D01*
X179492855Y-91079146D01*
X179868289Y-90828289D01*
X179931613Y-90733518D01*
X180391608Y-90273523D01*
X180579145Y-89992855D01*
X180667235Y-89550001D01*
X180579145Y-89107146D01*
X180328288Y-88731712D01*
X179952854Y-88480855D01*
X179509999Y-88392765D01*
X179067145Y-88480855D01*
X178786477Y-88668392D01*
X178579869Y-88875000D01*
X176018217Y-88875000D01*
X175687145Y-88940854D01*
X175311711Y-89191711D01*
X175060854Y-89567145D01*
X174972765Y-90010000D01*
X163105030Y-90010000D01*
X163105030Y-81725050D01*
X169825000Y-81725050D01*
X169825000Y-82474950D01*
X170111974Y-83167767D01*
X170642233Y-83698026D01*
X171335050Y-83985000D01*
X172084950Y-83985000D01*
X172777767Y-83698026D01*
X173308026Y-83167767D01*
X173595000Y-82474950D01*
X173595000Y-81725050D01*
X173308026Y-81032233D01*
X172777767Y-80501974D01*
X172084950Y-80215000D01*
X171335050Y-80215000D01*
X170642233Y-80501974D01*
X170111974Y-81032233D01*
X169825000Y-81725050D01*
X163105030Y-81725050D01*
X163105030Y-73230000D01*
X169812560Y-73230000D01*
X169812560Y-75730000D01*
X169861843Y-75977765D01*
X170002191Y-76187809D01*
X170212235Y-76328157D01*
X170460000Y-76377440D01*
X172960000Y-76377440D01*
X173207765Y-76328157D01*
X173417809Y-76187809D01*
X173558157Y-75977765D01*
X173607440Y-75730000D01*
X173607440Y-73230000D01*
X173558157Y-72982235D01*
X173417809Y-72772191D01*
X173207765Y-72631843D01*
X172960000Y-72582560D01*
X170460000Y-72582560D01*
X170212235Y-72631843D01*
X170002191Y-72772191D01*
X169861843Y-72982235D01*
X169812560Y-73230000D01*
X163105030Y-73230000D01*
X163105030Y-59807004D01*
X163119918Y-59732157D01*
X163105030Y-59657310D01*
X163105030Y-59657306D01*
X163060934Y-59435621D01*
X162892959Y-59184229D01*
X162829503Y-59141829D01*
X161170351Y-57482678D01*
X161170349Y-57482675D01*
X160381629Y-56693956D01*
X160381629Y-56527883D01*
X160224060Y-56147477D01*
X159932909Y-55856326D01*
X159552503Y-55698757D01*
X159140755Y-55698757D01*
X159135000Y-55701141D01*
X159135000Y-45870131D01*
X159520132Y-45485000D01*
X159546256Y-45485000D01*
X159979418Y-45398839D01*
X160470625Y-45070625D01*
X160683843Y-44751522D01*
X160744817Y-44881358D01*
X161173076Y-45271645D01*
X161583110Y-45441476D01*
X161813000Y-45320155D01*
X161813000Y-44127000D01*
X162067000Y-44127000D01*
X162067000Y-45320155D01*
X162296890Y-45441476D01*
X162706924Y-45271645D01*
X163135183Y-44881358D01*
X163381486Y-44356892D01*
X163260819Y-44127000D01*
X162067000Y-44127000D01*
X161813000Y-44127000D01*
X161793000Y-44127000D01*
X161793000Y-43873000D01*
X161813000Y-43873000D01*
X161813000Y-42679845D01*
X162067000Y-42679845D01*
X162067000Y-43873000D01*
X163260819Y-43873000D01*
X163381486Y-43643108D01*
X163135183Y-43118642D01*
X162706924Y-42728355D01*
X162296890Y-42558524D01*
X162067000Y-42679845D01*
X161813000Y-42679845D01*
X161583110Y-42558524D01*
X161173076Y-42728355D01*
X160744817Y-43118642D01*
X160683843Y-43248478D01*
X160470625Y-42929375D01*
X159979418Y-42601161D01*
X159546256Y-42515000D01*
X159253744Y-42515000D01*
X158820582Y-42601161D01*
X158329375Y-42929375D01*
X158130000Y-43227761D01*
X157930625Y-42929375D01*
X157439418Y-42601161D01*
X157006256Y-42515000D01*
X156713744Y-42515000D01*
X156280582Y-42601161D01*
X156260003Y-42614911D01*
X156260003Y-42324851D01*
X156274891Y-42250003D01*
X156260003Y-42175155D01*
X156260003Y-42175151D01*
X156215907Y-41953466D01*
X156047932Y-41702074D01*
X155984476Y-41659674D01*
X153785000Y-39460199D01*
X153785000Y-39294126D01*
X153627431Y-38913720D01*
X153336280Y-38622569D01*
X152955874Y-38465000D01*
X152544126Y-38465000D01*
X152163720Y-38622569D01*
X151872569Y-38913720D01*
X151715000Y-39294126D01*
X151715000Y-39705874D01*
X151872569Y-40086280D01*
X152163720Y-40377431D01*
X152544126Y-40535000D01*
X152710199Y-40535000D01*
X154740003Y-42564805D01*
X154740003Y-42569452D01*
X154466256Y-42515000D01*
X154173744Y-42515000D01*
X153740582Y-42601161D01*
X153413508Y-42819705D01*
X148388216Y-37794413D01*
X161023000Y-37794413D01*
X161023000Y-39045588D01*
X161104056Y-39453082D01*
X161412821Y-39915180D01*
X161874919Y-40223944D01*
X162420000Y-40332368D01*
X162965082Y-40223944D01*
X163427180Y-39915180D01*
X163710000Y-39491910D01*
X163992821Y-39915180D01*
X164454919Y-40223944D01*
X165000000Y-40332368D01*
X165545082Y-40223944D01*
X166007180Y-39915180D01*
X166247845Y-39555000D01*
X168738701Y-39555000D01*
X169032821Y-39995180D01*
X169494919Y-40303944D01*
X170040000Y-40412368D01*
X170585082Y-40303944D01*
X171047180Y-39995180D01*
X171270000Y-39661706D01*
X171365000Y-39803883D01*
X171365001Y-68268212D01*
X171342765Y-68380000D01*
X171430854Y-68822854D01*
X171430855Y-68822855D01*
X171681712Y-69198289D01*
X171776480Y-69261611D01*
X186915000Y-84400132D01*
X186915001Y-102867938D01*
X186882765Y-103030000D01*
X186970854Y-103472854D01*
X187221712Y-103848288D01*
X187597146Y-104099146D01*
X188040000Y-104187235D01*
X188482854Y-104099146D01*
X188763523Y-103911608D01*
X188773518Y-103901613D01*
X188868289Y-103838289D01*
X189119146Y-103462855D01*
X189185000Y-103131783D01*
X189207235Y-103020001D01*
X189185000Y-102908218D01*
X189185000Y-84041783D01*
X189207235Y-83930000D01*
X189119146Y-83487145D01*
X188868289Y-83111711D01*
X188773522Y-83048390D01*
X173635000Y-67909869D01*
X173635000Y-44888338D01*
X173730000Y-44907235D01*
X174172854Y-44819146D01*
X174453523Y-44631608D01*
X178680132Y-40405000D01*
X182741783Y-40405000D01*
X183072855Y-40339146D01*
X183448289Y-40088289D01*
X183699146Y-39712855D01*
X183787235Y-39270000D01*
X183699146Y-38827145D01*
X183448289Y-38451711D01*
X183072855Y-38200854D01*
X182741783Y-38135000D01*
X178321783Y-38135000D01*
X178210000Y-38112765D01*
X178098217Y-38135000D01*
X177767145Y-38200854D01*
X177391711Y-38451711D01*
X177328389Y-38546479D01*
X173635000Y-42239869D01*
X173635000Y-39803884D01*
X173815944Y-39533082D01*
X173897000Y-39125588D01*
X173897000Y-37874412D01*
X173815944Y-37466918D01*
X173507179Y-37004820D01*
X173045081Y-36696056D01*
X172500000Y-36587632D01*
X171954918Y-36696056D01*
X171492820Y-37004821D01*
X171270000Y-37338294D01*
X171047179Y-37004820D01*
X170585081Y-36696056D01*
X170040000Y-36587632D01*
X169494918Y-36696056D01*
X169032820Y-37004821D01*
X168845610Y-37285000D01*
X166247844Y-37285000D01*
X166007179Y-36924820D01*
X165545081Y-36616056D01*
X165000000Y-36507632D01*
X164454918Y-36616056D01*
X163992820Y-36924821D01*
X163710000Y-37348091D01*
X163427179Y-36924820D01*
X162965081Y-36616056D01*
X162420000Y-36507632D01*
X161874918Y-36616056D01*
X161412820Y-36924821D01*
X161104056Y-37386919D01*
X161023000Y-37794413D01*
X148388216Y-37794413D01*
X148109333Y-37515530D01*
X148066931Y-37452071D01*
X147815539Y-37284096D01*
X147730989Y-37267278D01*
X147586280Y-37122569D01*
X147205874Y-36965000D01*
X146794126Y-36965000D01*
X146413720Y-37122569D01*
X146122569Y-37413720D01*
X145965000Y-37794126D01*
X145965000Y-38205874D01*
X146122569Y-38586280D01*
X146413720Y-38877431D01*
X146794126Y-39035000D01*
X147205874Y-39035000D01*
X147399145Y-38954945D01*
X151107534Y-42663334D01*
X150709375Y-42929375D01*
X150510000Y-43227761D01*
X150310625Y-42929375D01*
X149819418Y-42601161D01*
X149386256Y-42515000D01*
X149093744Y-42515000D01*
X148660582Y-42601161D01*
X148169375Y-42929375D01*
X147970000Y-43227761D01*
X147770625Y-42929375D01*
X147279418Y-42601161D01*
X146846256Y-42515000D01*
X146553744Y-42515000D01*
X146120582Y-42601161D01*
X145629375Y-42929375D01*
X145430000Y-43227761D01*
X145230625Y-42929375D01*
X144739418Y-42601161D01*
X144306256Y-42515000D01*
X144013744Y-42515000D01*
X143580582Y-42601161D01*
X143089375Y-42929375D01*
X142890000Y-43227761D01*
X142690625Y-42929375D01*
X142199418Y-42601161D01*
X141766256Y-42515000D01*
X141473744Y-42515000D01*
X141040582Y-42601161D01*
X140549375Y-42929375D01*
X140350000Y-43227761D01*
X140150625Y-42929375D01*
X139659418Y-42601161D01*
X139226256Y-42515000D01*
X138933744Y-42515000D01*
X138500582Y-42601161D01*
X138009375Y-42929375D01*
X137810000Y-43227761D01*
X137610625Y-42929375D01*
X137119418Y-42601161D01*
X136686256Y-42515000D01*
X136393744Y-42515000D01*
X135960582Y-42601161D01*
X135469375Y-42929375D01*
X135454904Y-42951033D01*
X135388327Y-42790302D01*
X135209699Y-42611673D01*
X134976310Y-42515000D01*
X134285750Y-42515000D01*
X134127000Y-42673750D01*
X134127000Y-43873000D01*
X134147000Y-43873000D01*
X134147000Y-44127000D01*
X134127000Y-44127000D01*
X134127000Y-45326250D01*
X134285750Y-45485000D01*
X134976310Y-45485000D01*
X135209699Y-45388327D01*
X135388327Y-45209698D01*
X135454904Y-45048967D01*
X135469375Y-45070625D01*
X135960582Y-45398839D01*
X136393744Y-45485000D01*
X136686256Y-45485000D01*
X137119418Y-45398839D01*
X137610625Y-45070625D01*
X137810000Y-44772239D01*
X138009375Y-45070625D01*
X138500582Y-45398839D01*
X138933744Y-45485000D01*
X139226256Y-45485000D01*
X139659418Y-45398839D01*
X140150625Y-45070625D01*
X140350000Y-44772239D01*
X140445891Y-44915751D01*
X140308720Y-44972569D01*
X140017569Y-45263720D01*
X139860000Y-45644126D01*
X139860000Y-45910795D01*
X139838720Y-45919609D01*
X139547569Y-46210760D01*
X139390000Y-46591166D01*
X139390000Y-46884531D01*
X139378720Y-46889203D01*
X139087569Y-47180354D01*
X138930000Y-47560760D01*
X138930000Y-47972508D01*
X139087569Y-48352914D01*
X139378720Y-48644065D01*
X139759126Y-48801634D01*
X140170874Y-48801634D01*
X140551280Y-48644065D01*
X140668711Y-48526634D01*
X145398519Y-48526634D01*
X145473366Y-48541522D01*
X145548213Y-48526634D01*
X145548218Y-48526634D01*
X145769903Y-48482538D01*
X146021295Y-48314563D01*
X146063697Y-48251104D01*
X148873592Y-45441209D01*
X149093744Y-45485000D01*
X149386256Y-45485000D01*
X149819418Y-45398839D01*
X150310625Y-45070625D01*
X150510000Y-44772239D01*
X150709375Y-45070625D01*
X151200582Y-45398839D01*
X151633744Y-45485000D01*
X151926256Y-45485000D01*
X152359418Y-45398839D01*
X152686492Y-45180295D01*
X153569670Y-46063474D01*
X153612071Y-46126931D01*
X153863463Y-46294906D01*
X154085148Y-46339002D01*
X154085153Y-46339002D01*
X154160000Y-46353890D01*
X154234847Y-46339002D01*
X155217794Y-46339002D01*
X155930001Y-47051210D01*
X155930000Y-59656305D01*
X155915112Y-59731152D01*
X155930000Y-59805999D01*
X155930000Y-59806003D01*
X155974096Y-60027688D01*
X156142071Y-60279081D01*
X156205530Y-60321483D01*
X158520001Y-62635955D01*
X158520000Y-99285153D01*
X158505112Y-99360000D01*
X158520000Y-99434847D01*
X158520000Y-99434851D01*
X158530001Y-99485129D01*
X158530000Y-101095198D01*
X158040527Y-101584672D01*
X157977071Y-101627072D01*
X157934671Y-101690528D01*
X157934670Y-101690529D01*
X157809096Y-101878464D01*
X157750111Y-102175001D01*
X157765000Y-102249852D01*
X157764999Y-103265837D01*
X157750111Y-103340684D01*
X157764999Y-103415531D01*
X157764999Y-103415535D01*
X157809095Y-103637220D01*
X157977070Y-103888613D01*
X158040529Y-103931015D01*
X158093984Y-103984470D01*
X158136386Y-104047929D01*
X158387778Y-104215904D01*
X158530603Y-104244314D01*
X158663720Y-104377431D01*
X159044126Y-104535000D01*
X159455874Y-104535000D01*
X159485000Y-104522935D01*
X159485000Y-114875717D01*
X159350000Y-115077758D01*
X159114577Y-114725423D01*
X158639909Y-114408260D01*
X158221333Y-114325000D01*
X157938667Y-114325000D01*
X157520091Y-114408260D01*
X157045423Y-114725423D01*
X156789053Y-115109108D01*
X156692389Y-114904866D01*
X156277423Y-114528959D01*
X155889039Y-114368096D01*
X155667000Y-114490085D01*
X155667000Y-115633000D01*
X155687000Y-115633000D01*
X155687000Y-115887000D01*
X155667000Y-115887000D01*
X155667000Y-115907000D01*
X155413000Y-115907000D01*
X155413000Y-115887000D01*
X155393000Y-115887000D01*
X155393000Y-115633000D01*
X155413000Y-115633000D01*
X155413000Y-114490085D01*
X155190961Y-114368096D01*
X154802577Y-114528959D01*
X154387611Y-114904866D01*
X154290947Y-115109108D01*
X154034577Y-114725423D01*
X153559909Y-114408260D01*
X153177283Y-114332151D01*
X150913996Y-112068864D01*
X150962854Y-112059146D01*
X151338288Y-111808288D01*
X151589146Y-111432854D01*
X151677235Y-110989999D01*
X151589146Y-110547146D01*
X151401608Y-110266477D01*
X151285000Y-110149869D01*
X151285000Y-96965197D01*
X151219146Y-96634125D01*
X150968289Y-96258691D01*
X150592854Y-96007834D01*
X150150000Y-95919745D01*
X149707145Y-96007834D01*
X149331711Y-96258691D01*
X149080854Y-96634126D01*
X149015000Y-96965198D01*
X149015001Y-110169870D01*
X145771613Y-106926482D01*
X145708289Y-106831711D01*
X145332855Y-106580854D01*
X145001783Y-106515000D01*
X144890000Y-106492765D01*
X144778217Y-106515000D01*
X130924283Y-106515000D01*
X130722242Y-106380000D01*
X131074577Y-106144577D01*
X131391740Y-105669909D01*
X131503113Y-105110000D01*
X131391740Y-104550091D01*
X131074577Y-104075423D01*
X130722242Y-103840000D01*
X131074577Y-103604577D01*
X131391740Y-103129909D01*
X131503113Y-102570000D01*
X131391740Y-102010091D01*
X131074577Y-101535423D01*
X130599909Y-101218260D01*
X130181333Y-101135000D01*
X129098667Y-101135000D01*
X128680091Y-101218260D01*
X128205423Y-101535423D01*
X127888260Y-102010091D01*
X127776887Y-102570000D01*
X123867440Y-102570000D01*
X123867440Y-101770000D01*
X123818157Y-101522235D01*
X123677809Y-101312191D01*
X123467765Y-101171843D01*
X123220000Y-101122560D01*
X120820000Y-101122560D01*
X120572235Y-101171843D01*
X120362191Y-101312191D01*
X120221843Y-101522235D01*
X120172560Y-101770000D01*
X120172560Y-103370000D01*
X120221843Y-103617765D01*
X120362191Y-103827809D01*
X120572235Y-103968157D01*
X120706106Y-103994785D01*
X120585423Y-104075423D01*
X120268260Y-104550091D01*
X120244528Y-104669397D01*
X119459613Y-103884482D01*
X119396289Y-103789711D01*
X119020855Y-103538854D01*
X118689783Y-103473000D01*
X118578000Y-103450765D01*
X118466217Y-103473000D01*
X116478133Y-103473000D01*
X119623521Y-100327613D01*
X119718288Y-100264292D01*
X119969145Y-99888858D01*
X120015356Y-99656537D01*
X120057234Y-99446004D01*
X120034999Y-99334221D01*
X120034999Y-98450132D01*
X123963521Y-94521611D01*
X124058289Y-94458289D01*
X124309146Y-94082855D01*
X124375000Y-93751783D01*
X124397235Y-93640001D01*
X124375000Y-93528219D01*
X124375000Y-89234126D01*
X139880000Y-89234126D01*
X139880000Y-89645874D01*
X140037569Y-90026280D01*
X140328720Y-90317431D01*
X140709126Y-90475000D01*
X141120874Y-90475000D01*
X141501280Y-90317431D01*
X141618711Y-90200000D01*
X144485199Y-90200000D01*
X146815000Y-92529803D01*
X146815000Y-92695874D01*
X146972569Y-93076280D01*
X147263720Y-93367431D01*
X147644126Y-93525000D01*
X148055874Y-93525000D01*
X148436280Y-93367431D01*
X148727431Y-93076280D01*
X148885000Y-92695874D01*
X148885000Y-92284126D01*
X148727431Y-91903720D01*
X148436280Y-91612569D01*
X148055874Y-91455000D01*
X147889803Y-91455000D01*
X145390331Y-88955530D01*
X145347929Y-88892071D01*
X145096537Y-88724096D01*
X144874852Y-88680000D01*
X144874847Y-88680000D01*
X144800000Y-88665112D01*
X144725153Y-88680000D01*
X141618711Y-88680000D01*
X141501280Y-88562569D01*
X141120874Y-88405000D01*
X140709126Y-88405000D01*
X140328720Y-88562569D01*
X140037569Y-88853720D01*
X139880000Y-89234126D01*
X124375000Y-89234126D01*
X124375000Y-81725050D01*
X154585000Y-81725050D01*
X154585000Y-82474950D01*
X154871974Y-83167767D01*
X155402233Y-83698026D01*
X156095050Y-83985000D01*
X156844950Y-83985000D01*
X157537767Y-83698026D01*
X158068026Y-83167767D01*
X158355000Y-82474950D01*
X158355000Y-81725050D01*
X158068026Y-81032233D01*
X157537767Y-80501974D01*
X156844950Y-80215000D01*
X156095050Y-80215000D01*
X155402233Y-80501974D01*
X154871974Y-81032233D01*
X154585000Y-81725050D01*
X124375000Y-81725050D01*
X124375000Y-76990131D01*
X128400132Y-72965000D01*
X147574184Y-72965000D01*
X152402704Y-77793521D01*
X152466026Y-77888289D01*
X152790357Y-78105000D01*
X152841460Y-78139146D01*
X153284314Y-78227235D01*
X153396097Y-78205000D01*
X153961783Y-78205000D01*
X154292855Y-78139146D01*
X154668289Y-77888289D01*
X154919146Y-77512855D01*
X155007235Y-77070000D01*
X154919146Y-76627145D01*
X154668289Y-76251711D01*
X154292855Y-76000854D01*
X153961783Y-75935000D01*
X153754447Y-75935000D01*
X153632767Y-75813320D01*
X155316285Y-75813320D01*
X155445533Y-76106123D01*
X156145806Y-76374388D01*
X156895435Y-76354250D01*
X157494467Y-76106123D01*
X157623715Y-75813320D01*
X156470000Y-74659605D01*
X155316285Y-75813320D01*
X153632767Y-75813320D01*
X151975253Y-74155806D01*
X154575612Y-74155806D01*
X154595750Y-74905435D01*
X154843877Y-75504467D01*
X155136680Y-75633715D01*
X156290395Y-74480000D01*
X156649605Y-74480000D01*
X157803320Y-75633715D01*
X158096123Y-75504467D01*
X158364388Y-74804194D01*
X158344250Y-74054565D01*
X158096123Y-73455533D01*
X157803320Y-73326285D01*
X156649605Y-74480000D01*
X156290395Y-74480000D01*
X155136680Y-73326285D01*
X154843877Y-73455533D01*
X154575612Y-74155806D01*
X151975253Y-74155806D01*
X150966127Y-73146680D01*
X155316285Y-73146680D01*
X156470000Y-74300395D01*
X157623715Y-73146680D01*
X157494467Y-72853877D01*
X156794194Y-72585612D01*
X156044565Y-72605750D01*
X155445533Y-72853877D01*
X155316285Y-73146680D01*
X150966127Y-73146680D01*
X148925928Y-71106482D01*
X148862604Y-71011711D01*
X148487170Y-70760854D01*
X148156098Y-70695000D01*
X148044315Y-70672765D01*
X147932532Y-70695000D01*
X128041783Y-70695000D01*
X127930000Y-70672765D01*
X127818217Y-70695000D01*
X127487145Y-70760854D01*
X127111711Y-71011711D01*
X127048389Y-71106479D01*
X122516482Y-75638387D01*
X122421711Y-75701711D01*
X122221831Y-76000854D01*
X122170854Y-76077146D01*
X122082765Y-76520000D01*
X122105000Y-76631783D01*
X122105001Y-88578213D01*
X122105000Y-88578218D01*
X122105001Y-93169867D01*
X118176479Y-97098390D01*
X118081711Y-97161712D01*
X117897149Y-97437929D01*
X117830853Y-97537147D01*
X117742764Y-97980001D01*
X117764999Y-98091784D01*
X117764999Y-98975871D01*
X117233000Y-99507870D01*
X117233000Y-99024192D01*
X116786173Y-97945456D01*
X115960544Y-97119827D01*
X114881808Y-96673000D01*
X113714192Y-96673000D01*
X112635456Y-97119827D01*
X111809827Y-97945456D01*
X111363000Y-99024192D01*
X111363000Y-100191808D01*
X111565954Y-100681783D01*
X111303330Y-100573000D01*
X110692670Y-100573000D01*
X110128493Y-100806690D01*
X109696690Y-101238493D01*
X109463000Y-101802670D01*
X104685000Y-101802670D01*
X104685000Y-68470000D01*
X136782765Y-68470000D01*
X136870854Y-68912854D01*
X137121712Y-69288288D01*
X137497146Y-69539146D01*
X137940000Y-69627235D01*
X138382854Y-69539146D01*
X138663523Y-69351608D01*
X141140132Y-66875000D01*
X142951783Y-66875000D01*
X143282855Y-66809146D01*
X143658289Y-66558289D01*
X143909146Y-66182855D01*
X143997235Y-65740000D01*
X143909146Y-65297145D01*
X143658289Y-64921711D01*
X143282855Y-64670854D01*
X142951783Y-64605000D01*
X140781782Y-64605000D01*
X140669999Y-64582765D01*
X140227145Y-64670854D01*
X139851711Y-64921711D01*
X139788389Y-65016479D01*
X137058392Y-67746477D01*
X136870854Y-68027146D01*
X136782765Y-68470000D01*
X104685000Y-68470000D01*
X104685000Y-44285750D01*
X132515000Y-44285750D01*
X132515000Y-44976309D01*
X132611673Y-45209698D01*
X132790301Y-45388327D01*
X133023690Y-45485000D01*
X133714250Y-45485000D01*
X133873000Y-45326250D01*
X133873000Y-44127000D01*
X132673750Y-44127000D01*
X132515000Y-44285750D01*
X104685000Y-44285750D01*
X104685000Y-43023691D01*
X132515000Y-43023691D01*
X132515000Y-43714250D01*
X132673750Y-43873000D01*
X133873000Y-43873000D01*
X133873000Y-42673750D01*
X133714250Y-42515000D01*
X133023690Y-42515000D01*
X132790301Y-42611673D01*
X132611673Y-42790302D01*
X132515000Y-43023691D01*
X104685000Y-43023691D01*
X104685000Y-34356892D01*
X109018514Y-34356892D01*
X109264817Y-34881358D01*
X109693076Y-35271645D01*
X110103110Y-35441476D01*
X110333000Y-35320155D01*
X110333000Y-34127000D01*
X109139181Y-34127000D01*
X109018514Y-34356892D01*
X104685000Y-34356892D01*
X104685000Y-34034698D01*
X104724776Y-33643108D01*
X109018514Y-33643108D01*
X109139181Y-33873000D01*
X110333000Y-33873000D01*
X110333000Y-32679845D01*
X110587000Y-32679845D01*
X110587000Y-33873000D01*
X110607000Y-33873000D01*
X110607000Y-34127000D01*
X110587000Y-34127000D01*
X110587000Y-35320155D01*
X110816890Y-35441476D01*
X111226924Y-35271645D01*
X111531261Y-34994292D01*
X111551843Y-35097765D01*
X111692191Y-35307809D01*
X111902235Y-35448157D01*
X112150000Y-35497440D01*
X113850000Y-35497440D01*
X114097765Y-35448157D01*
X114307809Y-35307809D01*
X114423277Y-35135000D01*
X123359869Y-35135000D01*
X124865001Y-36640133D01*
X124865001Y-37116116D01*
X124710000Y-37348091D01*
X124427179Y-36924820D01*
X123965081Y-36616056D01*
X123420000Y-36507632D01*
X122874918Y-36616056D01*
X122412820Y-36924821D01*
X122104056Y-37386919D01*
X122023000Y-37794413D01*
X122023000Y-39045588D01*
X122104056Y-39453082D01*
X122412821Y-39915180D01*
X122874919Y-40223944D01*
X123420000Y-40332368D01*
X123965082Y-40223944D01*
X124427180Y-39915180D01*
X124710000Y-39491910D01*
X124992821Y-39915180D01*
X125454919Y-40223944D01*
X126000000Y-40332368D01*
X126545082Y-40223944D01*
X127007180Y-39915180D01*
X127247845Y-39555000D01*
X129738701Y-39555000D01*
X130032821Y-39995180D01*
X130494919Y-40303944D01*
X131040000Y-40412368D01*
X131585082Y-40303944D01*
X132047180Y-39995180D01*
X132270000Y-39661706D01*
X132492821Y-39995180D01*
X132954919Y-40303944D01*
X133500000Y-40412368D01*
X134045082Y-40303944D01*
X134507180Y-39995180D01*
X134815944Y-39533082D01*
X134897000Y-39125588D01*
X134897000Y-37874412D01*
X134815944Y-37466918D01*
X134507179Y-37004820D01*
X134045081Y-36696056D01*
X133500000Y-36587632D01*
X132954918Y-36696056D01*
X132492820Y-37004821D01*
X132270000Y-37338294D01*
X132047179Y-37004820D01*
X131585081Y-36696056D01*
X131040000Y-36587632D01*
X130494918Y-36696056D01*
X130032820Y-37004821D01*
X129845610Y-37285000D01*
X127247844Y-37285000D01*
X127135000Y-37116117D01*
X127135000Y-36281781D01*
X127157235Y-36169999D01*
X127135000Y-36058217D01*
X127069146Y-35727145D01*
X126818289Y-35351711D01*
X126723521Y-35288389D01*
X125062132Y-33627000D01*
X127103000Y-33627000D01*
X127103000Y-34115000D01*
X127257941Y-34639941D01*
X127601974Y-35065630D01*
X128082723Y-35327260D01*
X128156930Y-35342220D01*
X128373000Y-35219720D01*
X128373000Y-33627000D01*
X128627000Y-33627000D01*
X128627000Y-35219720D01*
X128843070Y-35342220D01*
X128917277Y-35327260D01*
X129398026Y-35065630D01*
X129742059Y-34639941D01*
X129897000Y-34115000D01*
X129897000Y-33694670D01*
X141425000Y-33694670D01*
X141425000Y-34305330D01*
X141658690Y-34869507D01*
X142090493Y-35301310D01*
X142654670Y-35535000D01*
X143265330Y-35535000D01*
X143829507Y-35301310D01*
X144005861Y-35124956D01*
X144061673Y-35259699D01*
X144240302Y-35438327D01*
X144473691Y-35535000D01*
X145214250Y-35535000D01*
X145373000Y-35376250D01*
X145373000Y-34127000D01*
X145627000Y-34127000D01*
X145627000Y-35376250D01*
X145785750Y-35535000D01*
X146526309Y-35535000D01*
X146759698Y-35438327D01*
X146938327Y-35259699D01*
X147035000Y-35026310D01*
X147035000Y-34285750D01*
X146876250Y-34127000D01*
X145627000Y-34127000D01*
X145373000Y-34127000D01*
X145353000Y-34127000D01*
X145353000Y-33873000D01*
X145373000Y-33873000D01*
X145373000Y-32623750D01*
X145627000Y-32623750D01*
X145627000Y-33873000D01*
X146876250Y-33873000D01*
X147035000Y-33714250D01*
X147035000Y-33694670D01*
X148925000Y-33694670D01*
X148925000Y-34305330D01*
X149158690Y-34869507D01*
X149590493Y-35301310D01*
X150154670Y-35535000D01*
X150765330Y-35535000D01*
X151329507Y-35301310D01*
X151505861Y-35124956D01*
X151561673Y-35259699D01*
X151740302Y-35438327D01*
X151973691Y-35535000D01*
X152714250Y-35535000D01*
X152873000Y-35376250D01*
X152873000Y-34127000D01*
X153127000Y-34127000D01*
X153127000Y-35376250D01*
X153285750Y-35535000D01*
X154026309Y-35535000D01*
X154259698Y-35438327D01*
X154438327Y-35259699D01*
X154535000Y-35026310D01*
X154535000Y-34285750D01*
X154376250Y-34127000D01*
X153127000Y-34127000D01*
X152873000Y-34127000D01*
X152853000Y-34127000D01*
X152853000Y-33873000D01*
X152873000Y-33873000D01*
X152873000Y-32623750D01*
X153127000Y-32623750D01*
X153127000Y-33873000D01*
X154376250Y-33873000D01*
X154535000Y-33714250D01*
X154535000Y-33627000D01*
X166103000Y-33627000D01*
X166103000Y-34115000D01*
X166257941Y-34639941D01*
X166601974Y-35065630D01*
X167082723Y-35327260D01*
X167156930Y-35342220D01*
X167373000Y-35219720D01*
X167373000Y-33627000D01*
X167627000Y-33627000D01*
X167627000Y-35219720D01*
X167843070Y-35342220D01*
X167917277Y-35327260D01*
X168398026Y-35065630D01*
X168742059Y-34639941D01*
X168897000Y-34115000D01*
X168897000Y-34000000D01*
X180945908Y-34000000D01*
X181061161Y-34579418D01*
X181389375Y-35070625D01*
X181880582Y-35398839D01*
X182313744Y-35485000D01*
X182606256Y-35485000D01*
X183039418Y-35398839D01*
X183530625Y-35070625D01*
X183545096Y-35048967D01*
X183611673Y-35209698D01*
X183790301Y-35388327D01*
X184023690Y-35485000D01*
X184714250Y-35485000D01*
X184873000Y-35326250D01*
X184873000Y-34127000D01*
X185127000Y-34127000D01*
X185127000Y-35326250D01*
X185285750Y-35485000D01*
X185976310Y-35485000D01*
X186209699Y-35388327D01*
X186388327Y-35209698D01*
X186485000Y-34976309D01*
X186485000Y-34285750D01*
X186326250Y-34127000D01*
X185127000Y-34127000D01*
X184873000Y-34127000D01*
X184853000Y-34127000D01*
X184853000Y-33873000D01*
X184873000Y-33873000D01*
X184873000Y-32673750D01*
X185127000Y-32673750D01*
X185127000Y-33873000D01*
X186326250Y-33873000D01*
X186485000Y-33714250D01*
X186485000Y-33023691D01*
X186388327Y-32790302D01*
X186209699Y-32611673D01*
X185976310Y-32515000D01*
X185285750Y-32515000D01*
X185127000Y-32673750D01*
X184873000Y-32673750D01*
X184714250Y-32515000D01*
X184023690Y-32515000D01*
X183790301Y-32611673D01*
X183611673Y-32790302D01*
X183545096Y-32951033D01*
X183530625Y-32929375D01*
X183039418Y-32601161D01*
X182606256Y-32515000D01*
X182313744Y-32515000D01*
X181880582Y-32601161D01*
X181389375Y-32929375D01*
X181061161Y-33420582D01*
X180945908Y-34000000D01*
X168897000Y-34000000D01*
X168897000Y-33627000D01*
X167627000Y-33627000D01*
X167373000Y-33627000D01*
X166103000Y-33627000D01*
X154535000Y-33627000D01*
X154535000Y-32973690D01*
X154498264Y-32885000D01*
X166103000Y-32885000D01*
X166103000Y-33373000D01*
X167373000Y-33373000D01*
X167373000Y-31780280D01*
X167627000Y-31780280D01*
X167627000Y-33373000D01*
X168897000Y-33373000D01*
X168897000Y-32885000D01*
X168742059Y-32360059D01*
X168398026Y-31934370D01*
X167917277Y-31672740D01*
X167843070Y-31657780D01*
X167627000Y-31780280D01*
X167373000Y-31780280D01*
X167156930Y-31657780D01*
X167082723Y-31672740D01*
X166601974Y-31934370D01*
X166257941Y-32360059D01*
X166103000Y-32885000D01*
X154498264Y-32885000D01*
X154438327Y-32740301D01*
X154259698Y-32561673D01*
X154026309Y-32465000D01*
X153285750Y-32465000D01*
X153127000Y-32623750D01*
X152873000Y-32623750D01*
X152714250Y-32465000D01*
X151973691Y-32465000D01*
X151740302Y-32561673D01*
X151561673Y-32740301D01*
X151505861Y-32875044D01*
X151329507Y-32698690D01*
X150765330Y-32465000D01*
X150154670Y-32465000D01*
X149590493Y-32698690D01*
X149158690Y-33130493D01*
X148925000Y-33694670D01*
X147035000Y-33694670D01*
X147035000Y-32973690D01*
X146938327Y-32740301D01*
X146759698Y-32561673D01*
X146526309Y-32465000D01*
X145785750Y-32465000D01*
X145627000Y-32623750D01*
X145373000Y-32623750D01*
X145214250Y-32465000D01*
X144473691Y-32465000D01*
X144240302Y-32561673D01*
X144061673Y-32740301D01*
X144005861Y-32875044D01*
X143829507Y-32698690D01*
X143265330Y-32465000D01*
X142654670Y-32465000D01*
X142090493Y-32698690D01*
X141658690Y-33130493D01*
X141425000Y-33694670D01*
X129897000Y-33694670D01*
X129897000Y-33627000D01*
X128627000Y-33627000D01*
X128373000Y-33627000D01*
X127103000Y-33627000D01*
X125062132Y-33627000D01*
X124711613Y-33276482D01*
X124648289Y-33181711D01*
X124272855Y-32930854D01*
X124042331Y-32885000D01*
X127103000Y-32885000D01*
X127103000Y-33373000D01*
X128373000Y-33373000D01*
X128373000Y-31780280D01*
X128627000Y-31780280D01*
X128627000Y-33373000D01*
X129897000Y-33373000D01*
X129897000Y-32885000D01*
X129742059Y-32360059D01*
X129398026Y-31934370D01*
X128917277Y-31672740D01*
X128843070Y-31657780D01*
X128627000Y-31780280D01*
X128373000Y-31780280D01*
X128156930Y-31657780D01*
X128082723Y-31672740D01*
X127601974Y-31934370D01*
X127257941Y-32360059D01*
X127103000Y-32885000D01*
X124042331Y-32885000D01*
X123941783Y-32865000D01*
X123830000Y-32842765D01*
X123718217Y-32865000D01*
X114423277Y-32865000D01*
X114307809Y-32692191D01*
X114097765Y-32551843D01*
X113850000Y-32502560D01*
X112150000Y-32502560D01*
X111902235Y-32551843D01*
X111692191Y-32692191D01*
X111551843Y-32902235D01*
X111531261Y-33005708D01*
X111226924Y-32728355D01*
X110816890Y-32558524D01*
X110587000Y-32679845D01*
X110333000Y-32679845D01*
X110103110Y-32558524D01*
X109693076Y-32728355D01*
X109264817Y-33118642D01*
X109018514Y-33643108D01*
X104724776Y-33643108D01*
X104756160Y-33334139D01*
X104956307Y-32695470D01*
X105280784Y-32110098D01*
X105716343Y-31601922D01*
X106245183Y-31191711D01*
X106845712Y-30896214D01*
X107501567Y-30725377D01*
X108026313Y-30685000D01*
X187965302Y-30685000D01*
X188665861Y-30756160D01*
G36*
X174668427Y-126440422D02*
X174785858Y-126557853D01*
X174785859Y-130024635D01*
X174590000Y-130317758D01*
X174354577Y-129965423D01*
X173879909Y-129648260D01*
X173461333Y-129565000D01*
X173178667Y-129565000D01*
X172760091Y-129648260D01*
X172285423Y-129965423D01*
X172050000Y-130317758D01*
X171814577Y-129965423D01*
X171339909Y-129648260D01*
X170921333Y-129565000D01*
X170638667Y-129565000D01*
X170220091Y-129648260D01*
X169745423Y-129965423D01*
X169510000Y-130317758D01*
X169274577Y-129965423D01*
X168799909Y-129648260D01*
X168381333Y-129565000D01*
X168098667Y-129565000D01*
X167680091Y-129648260D01*
X167205423Y-129965423D01*
X166970000Y-130317758D01*
X166734577Y-129965423D01*
X166259909Y-129648260D01*
X165841333Y-129565000D01*
X165669802Y-129565000D01*
X169005720Y-126229083D01*
X174580888Y-126229083D01*
X174668427Y-126440422D01*
X174668427Y-126440422D01*
G37*
X174668427Y-126440422D02*
X174785858Y-126557853D01*
X174785859Y-130024635D01*
X174590000Y-130317758D01*
X174354577Y-129965423D01*
X173879909Y-129648260D01*
X173461333Y-129565000D01*
X173178667Y-129565000D01*
X172760091Y-129648260D01*
X172285423Y-129965423D01*
X172050000Y-130317758D01*
X171814577Y-129965423D01*
X171339909Y-129648260D01*
X170921333Y-129565000D01*
X170638667Y-129565000D01*
X170220091Y-129648260D01*
X169745423Y-129965423D01*
X169510000Y-130317758D01*
X169274577Y-129965423D01*
X168799909Y-129648260D01*
X168381333Y-129565000D01*
X168098667Y-129565000D01*
X167680091Y-129648260D01*
X167205423Y-129965423D01*
X166970000Y-130317758D01*
X166734577Y-129965423D01*
X166259909Y-129648260D01*
X165841333Y-129565000D01*
X165669802Y-129565000D01*
X169005720Y-126229083D01*
X174580888Y-126229083D01*
X174668427Y-126440422D01*
G36*
X182349375Y-123570625D02*
X182840582Y-123898839D01*
X183273744Y-123985000D01*
X183566256Y-123985000D01*
X183845002Y-123929554D01*
X183845002Y-129510149D01*
X183830113Y-129585001D01*
X183834572Y-129607416D01*
X183621333Y-129565000D01*
X183338667Y-129565000D01*
X182920091Y-129648260D01*
X182445423Y-129965423D01*
X182210000Y-130317758D01*
X181974577Y-129965423D01*
X181499909Y-129648260D01*
X181081333Y-129565000D01*
X180798667Y-129565000D01*
X180380091Y-129648260D01*
X179905423Y-129965423D01*
X179670000Y-130317758D01*
X179434577Y-129965423D01*
X178959909Y-129648260D01*
X178541333Y-129565000D01*
X178258667Y-129565000D01*
X177840091Y-129648260D01*
X177451244Y-129908079D01*
X177535000Y-129705874D01*
X177535000Y-129294126D01*
X177377431Y-128913720D01*
X177086280Y-128622569D01*
X176705874Y-128465000D01*
X176305858Y-128465000D01*
X176305858Y-126557853D01*
X176423289Y-126440422D01*
X176580858Y-126060016D01*
X176580858Y-125648268D01*
X176423821Y-125269147D01*
X176538481Y-124992333D01*
X176538481Y-124826260D01*
X177583935Y-123780807D01*
X177760582Y-123898839D01*
X178193744Y-123985000D01*
X178486256Y-123985000D01*
X178919418Y-123898839D01*
X179410625Y-123570625D01*
X179610000Y-123272239D01*
X179809375Y-123570625D01*
X180300582Y-123898839D01*
X180733744Y-123985000D01*
X181026256Y-123985000D01*
X181459418Y-123898839D01*
X181950625Y-123570625D01*
X182150000Y-123272239D01*
X182349375Y-123570625D01*
X182349375Y-123570625D01*
G37*
X182349375Y-123570625D02*
X182840582Y-123898839D01*
X183273744Y-123985000D01*
X183566256Y-123985000D01*
X183845002Y-123929554D01*
X183845002Y-129510149D01*
X183830113Y-129585001D01*
X183834572Y-129607416D01*
X183621333Y-129565000D01*
X183338667Y-129565000D01*
X182920091Y-129648260D01*
X182445423Y-129965423D01*
X182210000Y-130317758D01*
X181974577Y-129965423D01*
X181499909Y-129648260D01*
X181081333Y-129565000D01*
X180798667Y-129565000D01*
X180380091Y-129648260D01*
X179905423Y-129965423D01*
X179670000Y-130317758D01*
X179434577Y-129965423D01*
X178959909Y-129648260D01*
X178541333Y-129565000D01*
X178258667Y-129565000D01*
X177840091Y-129648260D01*
X177451244Y-129908079D01*
X177535000Y-129705874D01*
X177535000Y-129294126D01*
X177377431Y-128913720D01*
X177086280Y-128622569D01*
X176705874Y-128465000D01*
X176305858Y-128465000D01*
X176305858Y-126557853D01*
X176423289Y-126440422D01*
X176580858Y-126060016D01*
X176580858Y-125648268D01*
X176423821Y-125269147D01*
X176538481Y-124992333D01*
X176538481Y-124826260D01*
X177583935Y-123780807D01*
X177760582Y-123898839D01*
X178193744Y-123985000D01*
X178486256Y-123985000D01*
X178919418Y-123898839D01*
X179410625Y-123570625D01*
X179610000Y-123272239D01*
X179809375Y-123570625D01*
X180300582Y-123898839D01*
X180733744Y-123985000D01*
X181026256Y-123985000D01*
X181459418Y-123898839D01*
X181950625Y-123570625D01*
X182150000Y-123272239D01*
X182349375Y-123570625D01*
G36*
X185380582Y-123898839D02*
X185813744Y-123985000D01*
X186106256Y-123985000D01*
X186490000Y-123908669D01*
X186490000Y-129615153D01*
X186487087Y-129629797D01*
X186161333Y-129565000D01*
X185878667Y-129565000D01*
X185696114Y-129601312D01*
X185365001Y-129270200D01*
X185365001Y-123888428D01*
X185380582Y-123898839D01*
X185380582Y-123898839D01*
G37*
X185380582Y-123898839D02*
X185813744Y-123985000D01*
X186106256Y-123985000D01*
X186490000Y-123908669D01*
X186490000Y-129615153D01*
X186487087Y-129629797D01*
X186161333Y-129565000D01*
X185878667Y-129565000D01*
X185696114Y-129601312D01*
X185365001Y-129270200D01*
X185365001Y-123888428D01*
X185380582Y-123898839D01*
G36*
X185460091Y-117111740D02*
X185878667Y-117195000D01*
X186161333Y-117195000D01*
X186490001Y-117129624D01*
X186490001Y-121091331D01*
X186106256Y-121015000D01*
X185813744Y-121015000D01*
X185380582Y-121101161D01*
X185365001Y-121111572D01*
X185365001Y-117048203D01*
X185460091Y-117111740D01*
X185460091Y-117111740D01*
G37*
X185460091Y-117111740D02*
X185878667Y-117195000D01*
X186161333Y-117195000D01*
X186490001Y-117129624D01*
X186490001Y-121091331D01*
X186106256Y-121015000D01*
X185813744Y-121015000D01*
X185380582Y-121101161D01*
X185365001Y-121111572D01*
X185365001Y-117048203D01*
X185460091Y-117111740D01*
G36*
X163619673Y-109224476D02*
X163662071Y-109287929D01*
X163725524Y-109330327D01*
X163725526Y-109330329D01*
X163850330Y-109413720D01*
X163913463Y-109455904D01*
X164135148Y-109500000D01*
X164135152Y-109500000D01*
X164209999Y-109514888D01*
X164284846Y-109500000D01*
X164836831Y-109500000D01*
X164715000Y-109794126D01*
X164715000Y-110205874D01*
X164872569Y-110586280D01*
X165163720Y-110877431D01*
X165544126Y-111035000D01*
X165710199Y-111035000D01*
X167480001Y-112804803D01*
X167480000Y-114541956D01*
X167205423Y-114725423D01*
X166970000Y-115077758D01*
X166734577Y-114725423D01*
X166259909Y-114408260D01*
X165841333Y-114325000D01*
X165558667Y-114325000D01*
X165140091Y-114408260D01*
X164665423Y-114725423D01*
X164430000Y-115077758D01*
X164194577Y-114725423D01*
X163719909Y-114408260D01*
X163301333Y-114325000D01*
X163018667Y-114325000D01*
X162600091Y-114408260D01*
X162125423Y-114725423D01*
X161890000Y-115077758D01*
X161755000Y-114875717D01*
X161755000Y-107359802D01*
X163619673Y-109224476D01*
X163619673Y-109224476D01*
G37*
X163619673Y-109224476D02*
X163662071Y-109287929D01*
X163725524Y-109330327D01*
X163725526Y-109330329D01*
X163850330Y-109413720D01*
X163913463Y-109455904D01*
X164135148Y-109500000D01*
X164135152Y-109500000D01*
X164209999Y-109514888D01*
X164284846Y-109500000D01*
X164836831Y-109500000D01*
X164715000Y-109794126D01*
X164715000Y-110205874D01*
X164872569Y-110586280D01*
X165163720Y-110877431D01*
X165544126Y-111035000D01*
X165710199Y-111035000D01*
X167480001Y-112804803D01*
X167480000Y-114541956D01*
X167205423Y-114725423D01*
X166970000Y-115077758D01*
X166734577Y-114725423D01*
X166259909Y-114408260D01*
X165841333Y-114325000D01*
X165558667Y-114325000D01*
X165140091Y-114408260D01*
X164665423Y-114725423D01*
X164430000Y-115077758D01*
X164194577Y-114725423D01*
X163719909Y-114408260D01*
X163301333Y-114325000D01*
X163018667Y-114325000D01*
X162600091Y-114408260D01*
X162125423Y-114725423D01*
X161890000Y-115077758D01*
X161755000Y-114875717D01*
X161755000Y-107359802D01*
X163619673Y-109224476D01*
G36*
X183845001Y-114294802D02*
X183845001Y-114369490D01*
X183621333Y-114325000D01*
X183338667Y-114325000D01*
X182920091Y-114408260D01*
X182445423Y-114725423D01*
X182210000Y-115077758D01*
X181974577Y-114725423D01*
X181499909Y-114408260D01*
X181081333Y-114325000D01*
X180798667Y-114325000D01*
X180380091Y-114408260D01*
X179905423Y-114725423D01*
X179670000Y-115077758D01*
X179434577Y-114725423D01*
X178959909Y-114408260D01*
X178541333Y-114325000D01*
X178258667Y-114325000D01*
X177840091Y-114408260D01*
X177365423Y-114725423D01*
X177130000Y-115077758D01*
X176894577Y-114725423D01*
X176563030Y-114503890D01*
X176407929Y-114271766D01*
X176344473Y-114229366D01*
X174909233Y-112794126D01*
X175965000Y-112794126D01*
X175965000Y-113205874D01*
X176122569Y-113586280D01*
X176413720Y-113877431D01*
X176794126Y-114035000D01*
X177205874Y-114035000D01*
X177586280Y-113877431D01*
X177877431Y-113586280D01*
X178035000Y-113205874D01*
X178035000Y-112794126D01*
X177877431Y-112413720D01*
X177586280Y-112122569D01*
X177205874Y-111965000D01*
X176794126Y-111965000D01*
X176413720Y-112122569D01*
X176122569Y-112413720D01*
X175965000Y-112794126D01*
X174909233Y-112794126D01*
X174057654Y-111942548D01*
X174057654Y-111776475D01*
X173900085Y-111396069D01*
X173608934Y-111104918D01*
X173228528Y-110947349D01*
X172816780Y-110947349D01*
X172501056Y-111078126D01*
X172215874Y-110960000D01*
X171804126Y-110960000D01*
X171423720Y-111117569D01*
X171132569Y-111408720D01*
X170975000Y-111789126D01*
X170975000Y-112200874D01*
X171132569Y-112581280D01*
X171420889Y-112869600D01*
X171413720Y-112872569D01*
X171122569Y-113163720D01*
X171090720Y-113240612D01*
X167797653Y-109947546D01*
X167797653Y-109781473D01*
X167681063Y-109500000D01*
X179050200Y-109500000D01*
X183845001Y-114294802D01*
X183845001Y-114294802D01*
G37*
X183845001Y-114294802D02*
X183845001Y-114369490D01*
X183621333Y-114325000D01*
X183338667Y-114325000D01*
X182920091Y-114408260D01*
X182445423Y-114725423D01*
X182210000Y-115077758D01*
X181974577Y-114725423D01*
X181499909Y-114408260D01*
X181081333Y-114325000D01*
X180798667Y-114325000D01*
X180380091Y-114408260D01*
X179905423Y-114725423D01*
X179670000Y-115077758D01*
X179434577Y-114725423D01*
X178959909Y-114408260D01*
X178541333Y-114325000D01*
X178258667Y-114325000D01*
X177840091Y-114408260D01*
X177365423Y-114725423D01*
X177130000Y-115077758D01*
X176894577Y-114725423D01*
X176563030Y-114503890D01*
X176407929Y-114271766D01*
X176344473Y-114229366D01*
X174909233Y-112794126D01*
X175965000Y-112794126D01*
X175965000Y-113205874D01*
X176122569Y-113586280D01*
X176413720Y-113877431D01*
X176794126Y-114035000D01*
X177205874Y-114035000D01*
X177586280Y-113877431D01*
X177877431Y-113586280D01*
X178035000Y-113205874D01*
X178035000Y-112794126D01*
X177877431Y-112413720D01*
X177586280Y-112122569D01*
X177205874Y-111965000D01*
X176794126Y-111965000D01*
X176413720Y-112122569D01*
X176122569Y-112413720D01*
X175965000Y-112794126D01*
X174909233Y-112794126D01*
X174057654Y-111942548D01*
X174057654Y-111776475D01*
X173900085Y-111396069D01*
X173608934Y-111104918D01*
X173228528Y-110947349D01*
X172816780Y-110947349D01*
X172501056Y-111078126D01*
X172215874Y-110960000D01*
X171804126Y-110960000D01*
X171423720Y-111117569D01*
X171132569Y-111408720D01*
X170975000Y-111789126D01*
X170975000Y-112200874D01*
X171132569Y-112581280D01*
X171420889Y-112869600D01*
X171413720Y-112872569D01*
X171122569Y-113163720D01*
X171090720Y-113240612D01*
X167797653Y-109947546D01*
X167797653Y-109781473D01*
X167681063Y-109500000D01*
X179050200Y-109500000D01*
X183845001Y-114294802D01*
M02*
