%TF.GenerationSoftware,KiCad,Pcbnew,5.0.2+dfsg1-1*%
%TF.CreationDate,2022-01-02T18:45:16-08:00*%
%TF.ProjectId,brains,62726169-6e73-42e6-9b69-6361645f7063,rev?*%
%TF.SameCoordinates,Original*%
%TF.FileFunction,Paste,Top*%
%TF.FilePolarity,Positive*%
%FSLAX46Y46*%
G04 Gerber Fmt 4.6, Leading zero omitted, Abs format (unit mm)*
G04 Created by KiCad (PCBNEW 5.0.2+dfsg1-1) date Sun 02 Jan 2022 06:45:16 PM PST*
%MOMM*%
%LPD*%
G01*
G04 APERTURE LIST*
%ADD10C,0.100000*%
%ADD11C,1.150000*%
%ADD12R,1.750000X0.450000*%
%ADD13R,1.500000X1.000000*%
%ADD14R,1.500000X0.400000*%
%ADD15C,1.325000*%
G04 APERTURE END LIST*
D10*
G36*
X182474505Y-142951204D02*
X182498773Y-142954804D01*
X182522572Y-142960765D01*
X182545671Y-142969030D01*
X182567850Y-142979520D01*
X182588893Y-142992132D01*
X182608599Y-143006747D01*
X182626777Y-143023223D01*
X182643253Y-143041401D01*
X182657868Y-143061107D01*
X182670480Y-143082150D01*
X182680970Y-143104329D01*
X182689235Y-143127428D01*
X182695196Y-143151227D01*
X182698796Y-143175495D01*
X182700000Y-143199999D01*
X182700000Y-143850001D01*
X182698796Y-143874505D01*
X182695196Y-143898773D01*
X182689235Y-143922572D01*
X182680970Y-143945671D01*
X182670480Y-143967850D01*
X182657868Y-143988893D01*
X182643253Y-144008599D01*
X182626777Y-144026777D01*
X182608599Y-144043253D01*
X182588893Y-144057868D01*
X182567850Y-144070480D01*
X182545671Y-144080970D01*
X182522572Y-144089235D01*
X182498773Y-144095196D01*
X182474505Y-144098796D01*
X182450001Y-144100000D01*
X181549999Y-144100000D01*
X181525495Y-144098796D01*
X181501227Y-144095196D01*
X181477428Y-144089235D01*
X181454329Y-144080970D01*
X181432150Y-144070480D01*
X181411107Y-144057868D01*
X181391401Y-144043253D01*
X181373223Y-144026777D01*
X181356747Y-144008599D01*
X181342132Y-143988893D01*
X181329520Y-143967850D01*
X181319030Y-143945671D01*
X181310765Y-143922572D01*
X181304804Y-143898773D01*
X181301204Y-143874505D01*
X181300000Y-143850001D01*
X181300000Y-143199999D01*
X181301204Y-143175495D01*
X181304804Y-143151227D01*
X181310765Y-143127428D01*
X181319030Y-143104329D01*
X181329520Y-143082150D01*
X181342132Y-143061107D01*
X181356747Y-143041401D01*
X181373223Y-143023223D01*
X181391401Y-143006747D01*
X181411107Y-142992132D01*
X181432150Y-142979520D01*
X181454329Y-142969030D01*
X181477428Y-142960765D01*
X181501227Y-142954804D01*
X181525495Y-142951204D01*
X181549999Y-142950000D01*
X182450001Y-142950000D01*
X182474505Y-142951204D01*
X182474505Y-142951204D01*
G37*
D11*
X182000000Y-143525000D03*
D10*
G36*
X182474505Y-140901204D02*
X182498773Y-140904804D01*
X182522572Y-140910765D01*
X182545671Y-140919030D01*
X182567850Y-140929520D01*
X182588893Y-140942132D01*
X182608599Y-140956747D01*
X182626777Y-140973223D01*
X182643253Y-140991401D01*
X182657868Y-141011107D01*
X182670480Y-141032150D01*
X182680970Y-141054329D01*
X182689235Y-141077428D01*
X182695196Y-141101227D01*
X182698796Y-141125495D01*
X182700000Y-141149999D01*
X182700000Y-141800001D01*
X182698796Y-141824505D01*
X182695196Y-141848773D01*
X182689235Y-141872572D01*
X182680970Y-141895671D01*
X182670480Y-141917850D01*
X182657868Y-141938893D01*
X182643253Y-141958599D01*
X182626777Y-141976777D01*
X182608599Y-141993253D01*
X182588893Y-142007868D01*
X182567850Y-142020480D01*
X182545671Y-142030970D01*
X182522572Y-142039235D01*
X182498773Y-142045196D01*
X182474505Y-142048796D01*
X182450001Y-142050000D01*
X181549999Y-142050000D01*
X181525495Y-142048796D01*
X181501227Y-142045196D01*
X181477428Y-142039235D01*
X181454329Y-142030970D01*
X181432150Y-142020480D01*
X181411107Y-142007868D01*
X181391401Y-141993253D01*
X181373223Y-141976777D01*
X181356747Y-141958599D01*
X181342132Y-141938893D01*
X181329520Y-141917850D01*
X181319030Y-141895671D01*
X181310765Y-141872572D01*
X181304804Y-141848773D01*
X181301204Y-141824505D01*
X181300000Y-141800001D01*
X181300000Y-141149999D01*
X181301204Y-141125495D01*
X181304804Y-141101227D01*
X181310765Y-141077428D01*
X181319030Y-141054329D01*
X181329520Y-141032150D01*
X181342132Y-141011107D01*
X181356747Y-140991401D01*
X181373223Y-140973223D01*
X181391401Y-140956747D01*
X181411107Y-140942132D01*
X181432150Y-140929520D01*
X181454329Y-140919030D01*
X181477428Y-140910765D01*
X181501227Y-140904804D01*
X181525495Y-140901204D01*
X181549999Y-140900000D01*
X182450001Y-140900000D01*
X182474505Y-140901204D01*
X182474505Y-140901204D01*
G37*
D11*
X182000000Y-141475000D03*
D12*
X147600000Y-83575000D03*
X147600000Y-82925000D03*
X147600000Y-82275000D03*
X147600000Y-81625000D03*
X147600000Y-80975000D03*
X147600000Y-80325000D03*
X147600000Y-79675000D03*
X147600000Y-79025000D03*
X147600000Y-78375000D03*
X147600000Y-77725000D03*
X147600000Y-77075000D03*
X147600000Y-76425000D03*
X140400000Y-76425000D03*
X140400000Y-77075000D03*
X140400000Y-77725000D03*
X140400000Y-78375000D03*
X140400000Y-79025000D03*
X140400000Y-79675000D03*
X140400000Y-80325000D03*
X140400000Y-80975000D03*
X140400000Y-81625000D03*
X140400000Y-82275000D03*
X140400000Y-82925000D03*
X140400000Y-83575000D03*
D10*
G36*
X150299505Y-83301204D02*
X150323773Y-83304804D01*
X150347572Y-83310765D01*
X150370671Y-83319030D01*
X150392850Y-83329520D01*
X150413893Y-83342132D01*
X150433599Y-83356747D01*
X150451777Y-83373223D01*
X150468253Y-83391401D01*
X150482868Y-83411107D01*
X150495480Y-83432150D01*
X150505970Y-83454329D01*
X150514235Y-83477428D01*
X150520196Y-83501227D01*
X150523796Y-83525495D01*
X150525000Y-83549999D01*
X150525000Y-84450001D01*
X150523796Y-84474505D01*
X150520196Y-84498773D01*
X150514235Y-84522572D01*
X150505970Y-84545671D01*
X150495480Y-84567850D01*
X150482868Y-84588893D01*
X150468253Y-84608599D01*
X150451777Y-84626777D01*
X150433599Y-84643253D01*
X150413893Y-84657868D01*
X150392850Y-84670480D01*
X150370671Y-84680970D01*
X150347572Y-84689235D01*
X150323773Y-84695196D01*
X150299505Y-84698796D01*
X150275001Y-84700000D01*
X149624999Y-84700000D01*
X149600495Y-84698796D01*
X149576227Y-84695196D01*
X149552428Y-84689235D01*
X149529329Y-84680970D01*
X149507150Y-84670480D01*
X149486107Y-84657868D01*
X149466401Y-84643253D01*
X149448223Y-84626777D01*
X149431747Y-84608599D01*
X149417132Y-84588893D01*
X149404520Y-84567850D01*
X149394030Y-84545671D01*
X149385765Y-84522572D01*
X149379804Y-84498773D01*
X149376204Y-84474505D01*
X149375000Y-84450001D01*
X149375000Y-83549999D01*
X149376204Y-83525495D01*
X149379804Y-83501227D01*
X149385765Y-83477428D01*
X149394030Y-83454329D01*
X149404520Y-83432150D01*
X149417132Y-83411107D01*
X149431747Y-83391401D01*
X149448223Y-83373223D01*
X149466401Y-83356747D01*
X149486107Y-83342132D01*
X149507150Y-83329520D01*
X149529329Y-83319030D01*
X149552428Y-83310765D01*
X149576227Y-83304804D01*
X149600495Y-83301204D01*
X149624999Y-83300000D01*
X150275001Y-83300000D01*
X150299505Y-83301204D01*
X150299505Y-83301204D01*
G37*
D11*
X149950000Y-84000000D03*
D10*
G36*
X152349505Y-83301204D02*
X152373773Y-83304804D01*
X152397572Y-83310765D01*
X152420671Y-83319030D01*
X152442850Y-83329520D01*
X152463893Y-83342132D01*
X152483599Y-83356747D01*
X152501777Y-83373223D01*
X152518253Y-83391401D01*
X152532868Y-83411107D01*
X152545480Y-83432150D01*
X152555970Y-83454329D01*
X152564235Y-83477428D01*
X152570196Y-83501227D01*
X152573796Y-83525495D01*
X152575000Y-83549999D01*
X152575000Y-84450001D01*
X152573796Y-84474505D01*
X152570196Y-84498773D01*
X152564235Y-84522572D01*
X152555970Y-84545671D01*
X152545480Y-84567850D01*
X152532868Y-84588893D01*
X152518253Y-84608599D01*
X152501777Y-84626777D01*
X152483599Y-84643253D01*
X152463893Y-84657868D01*
X152442850Y-84670480D01*
X152420671Y-84680970D01*
X152397572Y-84689235D01*
X152373773Y-84695196D01*
X152349505Y-84698796D01*
X152325001Y-84700000D01*
X151674999Y-84700000D01*
X151650495Y-84698796D01*
X151626227Y-84695196D01*
X151602428Y-84689235D01*
X151579329Y-84680970D01*
X151557150Y-84670480D01*
X151536107Y-84657868D01*
X151516401Y-84643253D01*
X151498223Y-84626777D01*
X151481747Y-84608599D01*
X151467132Y-84588893D01*
X151454520Y-84567850D01*
X151444030Y-84545671D01*
X151435765Y-84522572D01*
X151429804Y-84498773D01*
X151426204Y-84474505D01*
X151425000Y-84450001D01*
X151425000Y-83549999D01*
X151426204Y-83525495D01*
X151429804Y-83501227D01*
X151435765Y-83477428D01*
X151444030Y-83454329D01*
X151454520Y-83432150D01*
X151467132Y-83411107D01*
X151481747Y-83391401D01*
X151498223Y-83373223D01*
X151516401Y-83356747D01*
X151536107Y-83342132D01*
X151557150Y-83329520D01*
X151579329Y-83319030D01*
X151602428Y-83310765D01*
X151626227Y-83304804D01*
X151650495Y-83301204D01*
X151674999Y-83300000D01*
X152325001Y-83300000D01*
X152349505Y-83301204D01*
X152349505Y-83301204D01*
G37*
D11*
X152000000Y-84000000D03*
D10*
G36*
X152474505Y-77451204D02*
X152498773Y-77454804D01*
X152522572Y-77460765D01*
X152545671Y-77469030D01*
X152567850Y-77479520D01*
X152588893Y-77492132D01*
X152608599Y-77506747D01*
X152626777Y-77523223D01*
X152643253Y-77541401D01*
X152657868Y-77561107D01*
X152670480Y-77582150D01*
X152680970Y-77604329D01*
X152689235Y-77627428D01*
X152695196Y-77651227D01*
X152698796Y-77675495D01*
X152700000Y-77699999D01*
X152700000Y-78350001D01*
X152698796Y-78374505D01*
X152695196Y-78398773D01*
X152689235Y-78422572D01*
X152680970Y-78445671D01*
X152670480Y-78467850D01*
X152657868Y-78488893D01*
X152643253Y-78508599D01*
X152626777Y-78526777D01*
X152608599Y-78543253D01*
X152588893Y-78557868D01*
X152567850Y-78570480D01*
X152545671Y-78580970D01*
X152522572Y-78589235D01*
X152498773Y-78595196D01*
X152474505Y-78598796D01*
X152450001Y-78600000D01*
X151549999Y-78600000D01*
X151525495Y-78598796D01*
X151501227Y-78595196D01*
X151477428Y-78589235D01*
X151454329Y-78580970D01*
X151432150Y-78570480D01*
X151411107Y-78557868D01*
X151391401Y-78543253D01*
X151373223Y-78526777D01*
X151356747Y-78508599D01*
X151342132Y-78488893D01*
X151329520Y-78467850D01*
X151319030Y-78445671D01*
X151310765Y-78422572D01*
X151304804Y-78398773D01*
X151301204Y-78374505D01*
X151300000Y-78350001D01*
X151300000Y-77699999D01*
X151301204Y-77675495D01*
X151304804Y-77651227D01*
X151310765Y-77627428D01*
X151319030Y-77604329D01*
X151329520Y-77582150D01*
X151342132Y-77561107D01*
X151356747Y-77541401D01*
X151373223Y-77523223D01*
X151391401Y-77506747D01*
X151411107Y-77492132D01*
X151432150Y-77479520D01*
X151454329Y-77469030D01*
X151477428Y-77460765D01*
X151501227Y-77454804D01*
X151525495Y-77451204D01*
X151549999Y-77450000D01*
X152450001Y-77450000D01*
X152474505Y-77451204D01*
X152474505Y-77451204D01*
G37*
D11*
X152000000Y-78025000D03*
D10*
G36*
X152474505Y-75401204D02*
X152498773Y-75404804D01*
X152522572Y-75410765D01*
X152545671Y-75419030D01*
X152567850Y-75429520D01*
X152588893Y-75442132D01*
X152608599Y-75456747D01*
X152626777Y-75473223D01*
X152643253Y-75491401D01*
X152657868Y-75511107D01*
X152670480Y-75532150D01*
X152680970Y-75554329D01*
X152689235Y-75577428D01*
X152695196Y-75601227D01*
X152698796Y-75625495D01*
X152700000Y-75649999D01*
X152700000Y-76300001D01*
X152698796Y-76324505D01*
X152695196Y-76348773D01*
X152689235Y-76372572D01*
X152680970Y-76395671D01*
X152670480Y-76417850D01*
X152657868Y-76438893D01*
X152643253Y-76458599D01*
X152626777Y-76476777D01*
X152608599Y-76493253D01*
X152588893Y-76507868D01*
X152567850Y-76520480D01*
X152545671Y-76530970D01*
X152522572Y-76539235D01*
X152498773Y-76545196D01*
X152474505Y-76548796D01*
X152450001Y-76550000D01*
X151549999Y-76550000D01*
X151525495Y-76548796D01*
X151501227Y-76545196D01*
X151477428Y-76539235D01*
X151454329Y-76530970D01*
X151432150Y-76520480D01*
X151411107Y-76507868D01*
X151391401Y-76493253D01*
X151373223Y-76476777D01*
X151356747Y-76458599D01*
X151342132Y-76438893D01*
X151329520Y-76417850D01*
X151319030Y-76395671D01*
X151310765Y-76372572D01*
X151304804Y-76348773D01*
X151301204Y-76324505D01*
X151300000Y-76300001D01*
X151300000Y-75649999D01*
X151301204Y-75625495D01*
X151304804Y-75601227D01*
X151310765Y-75577428D01*
X151319030Y-75554329D01*
X151329520Y-75532150D01*
X151342132Y-75511107D01*
X151356747Y-75491401D01*
X151373223Y-75473223D01*
X151391401Y-75456747D01*
X151411107Y-75442132D01*
X151432150Y-75429520D01*
X151454329Y-75419030D01*
X151477428Y-75410765D01*
X151501227Y-75404804D01*
X151525495Y-75401204D01*
X151549999Y-75400000D01*
X152450001Y-75400000D01*
X152474505Y-75401204D01*
X152474505Y-75401204D01*
G37*
D11*
X152000000Y-75975000D03*
D10*
G36*
X140394505Y-86451204D02*
X140418773Y-86454804D01*
X140442572Y-86460765D01*
X140465671Y-86469030D01*
X140487850Y-86479520D01*
X140508893Y-86492132D01*
X140528599Y-86506747D01*
X140546777Y-86523223D01*
X140563253Y-86541401D01*
X140577868Y-86561107D01*
X140590480Y-86582150D01*
X140600970Y-86604329D01*
X140609235Y-86627428D01*
X140615196Y-86651227D01*
X140618796Y-86675495D01*
X140620000Y-86699999D01*
X140620000Y-87350001D01*
X140618796Y-87374505D01*
X140615196Y-87398773D01*
X140609235Y-87422572D01*
X140600970Y-87445671D01*
X140590480Y-87467850D01*
X140577868Y-87488893D01*
X140563253Y-87508599D01*
X140546777Y-87526777D01*
X140528599Y-87543253D01*
X140508893Y-87557868D01*
X140487850Y-87570480D01*
X140465671Y-87580970D01*
X140442572Y-87589235D01*
X140418773Y-87595196D01*
X140394505Y-87598796D01*
X140370001Y-87600000D01*
X139469999Y-87600000D01*
X139445495Y-87598796D01*
X139421227Y-87595196D01*
X139397428Y-87589235D01*
X139374329Y-87580970D01*
X139352150Y-87570480D01*
X139331107Y-87557868D01*
X139311401Y-87543253D01*
X139293223Y-87526777D01*
X139276747Y-87508599D01*
X139262132Y-87488893D01*
X139249520Y-87467850D01*
X139239030Y-87445671D01*
X139230765Y-87422572D01*
X139224804Y-87398773D01*
X139221204Y-87374505D01*
X139220000Y-87350001D01*
X139220000Y-86699999D01*
X139221204Y-86675495D01*
X139224804Y-86651227D01*
X139230765Y-86627428D01*
X139239030Y-86604329D01*
X139249520Y-86582150D01*
X139262132Y-86561107D01*
X139276747Y-86541401D01*
X139293223Y-86523223D01*
X139311401Y-86506747D01*
X139331107Y-86492132D01*
X139352150Y-86479520D01*
X139374329Y-86469030D01*
X139397428Y-86460765D01*
X139421227Y-86454804D01*
X139445495Y-86451204D01*
X139469999Y-86450000D01*
X140370001Y-86450000D01*
X140394505Y-86451204D01*
X140394505Y-86451204D01*
G37*
D11*
X139920000Y-87025000D03*
D10*
G36*
X140394505Y-84401204D02*
X140418773Y-84404804D01*
X140442572Y-84410765D01*
X140465671Y-84419030D01*
X140487850Y-84429520D01*
X140508893Y-84442132D01*
X140528599Y-84456747D01*
X140546777Y-84473223D01*
X140563253Y-84491401D01*
X140577868Y-84511107D01*
X140590480Y-84532150D01*
X140600970Y-84554329D01*
X140609235Y-84577428D01*
X140615196Y-84601227D01*
X140618796Y-84625495D01*
X140620000Y-84649999D01*
X140620000Y-85300001D01*
X140618796Y-85324505D01*
X140615196Y-85348773D01*
X140609235Y-85372572D01*
X140600970Y-85395671D01*
X140590480Y-85417850D01*
X140577868Y-85438893D01*
X140563253Y-85458599D01*
X140546777Y-85476777D01*
X140528599Y-85493253D01*
X140508893Y-85507868D01*
X140487850Y-85520480D01*
X140465671Y-85530970D01*
X140442572Y-85539235D01*
X140418773Y-85545196D01*
X140394505Y-85548796D01*
X140370001Y-85550000D01*
X139469999Y-85550000D01*
X139445495Y-85548796D01*
X139421227Y-85545196D01*
X139397428Y-85539235D01*
X139374329Y-85530970D01*
X139352150Y-85520480D01*
X139331107Y-85507868D01*
X139311401Y-85493253D01*
X139293223Y-85476777D01*
X139276747Y-85458599D01*
X139262132Y-85438893D01*
X139249520Y-85417850D01*
X139239030Y-85395671D01*
X139230765Y-85372572D01*
X139224804Y-85348773D01*
X139221204Y-85324505D01*
X139220000Y-85300001D01*
X139220000Y-84649999D01*
X139221204Y-84625495D01*
X139224804Y-84601227D01*
X139230765Y-84577428D01*
X139239030Y-84554329D01*
X139249520Y-84532150D01*
X139262132Y-84511107D01*
X139276747Y-84491401D01*
X139293223Y-84473223D01*
X139311401Y-84456747D01*
X139331107Y-84442132D01*
X139352150Y-84429520D01*
X139374329Y-84419030D01*
X139397428Y-84410765D01*
X139421227Y-84404804D01*
X139445495Y-84401204D01*
X139469999Y-84400000D01*
X140370001Y-84400000D01*
X140394505Y-84401204D01*
X140394505Y-84401204D01*
G37*
D11*
X139920000Y-84975000D03*
D10*
G36*
X138474505Y-86451204D02*
X138498773Y-86454804D01*
X138522572Y-86460765D01*
X138545671Y-86469030D01*
X138567850Y-86479520D01*
X138588893Y-86492132D01*
X138608599Y-86506747D01*
X138626777Y-86523223D01*
X138643253Y-86541401D01*
X138657868Y-86561107D01*
X138670480Y-86582150D01*
X138680970Y-86604329D01*
X138689235Y-86627428D01*
X138695196Y-86651227D01*
X138698796Y-86675495D01*
X138700000Y-86699999D01*
X138700000Y-87350001D01*
X138698796Y-87374505D01*
X138695196Y-87398773D01*
X138689235Y-87422572D01*
X138680970Y-87445671D01*
X138670480Y-87467850D01*
X138657868Y-87488893D01*
X138643253Y-87508599D01*
X138626777Y-87526777D01*
X138608599Y-87543253D01*
X138588893Y-87557868D01*
X138567850Y-87570480D01*
X138545671Y-87580970D01*
X138522572Y-87589235D01*
X138498773Y-87595196D01*
X138474505Y-87598796D01*
X138450001Y-87600000D01*
X137549999Y-87600000D01*
X137525495Y-87598796D01*
X137501227Y-87595196D01*
X137477428Y-87589235D01*
X137454329Y-87580970D01*
X137432150Y-87570480D01*
X137411107Y-87557868D01*
X137391401Y-87543253D01*
X137373223Y-87526777D01*
X137356747Y-87508599D01*
X137342132Y-87488893D01*
X137329520Y-87467850D01*
X137319030Y-87445671D01*
X137310765Y-87422572D01*
X137304804Y-87398773D01*
X137301204Y-87374505D01*
X137300000Y-87350001D01*
X137300000Y-86699999D01*
X137301204Y-86675495D01*
X137304804Y-86651227D01*
X137310765Y-86627428D01*
X137319030Y-86604329D01*
X137329520Y-86582150D01*
X137342132Y-86561107D01*
X137356747Y-86541401D01*
X137373223Y-86523223D01*
X137391401Y-86506747D01*
X137411107Y-86492132D01*
X137432150Y-86479520D01*
X137454329Y-86469030D01*
X137477428Y-86460765D01*
X137501227Y-86454804D01*
X137525495Y-86451204D01*
X137549999Y-86450000D01*
X138450001Y-86450000D01*
X138474505Y-86451204D01*
X138474505Y-86451204D01*
G37*
D11*
X138000000Y-87025000D03*
D10*
G36*
X138474505Y-84401204D02*
X138498773Y-84404804D01*
X138522572Y-84410765D01*
X138545671Y-84419030D01*
X138567850Y-84429520D01*
X138588893Y-84442132D01*
X138608599Y-84456747D01*
X138626777Y-84473223D01*
X138643253Y-84491401D01*
X138657868Y-84511107D01*
X138670480Y-84532150D01*
X138680970Y-84554329D01*
X138689235Y-84577428D01*
X138695196Y-84601227D01*
X138698796Y-84625495D01*
X138700000Y-84649999D01*
X138700000Y-85300001D01*
X138698796Y-85324505D01*
X138695196Y-85348773D01*
X138689235Y-85372572D01*
X138680970Y-85395671D01*
X138670480Y-85417850D01*
X138657868Y-85438893D01*
X138643253Y-85458599D01*
X138626777Y-85476777D01*
X138608599Y-85493253D01*
X138588893Y-85507868D01*
X138567850Y-85520480D01*
X138545671Y-85530970D01*
X138522572Y-85539235D01*
X138498773Y-85545196D01*
X138474505Y-85548796D01*
X138450001Y-85550000D01*
X137549999Y-85550000D01*
X137525495Y-85548796D01*
X137501227Y-85545196D01*
X137477428Y-85539235D01*
X137454329Y-85530970D01*
X137432150Y-85520480D01*
X137411107Y-85507868D01*
X137391401Y-85493253D01*
X137373223Y-85476777D01*
X137356747Y-85458599D01*
X137342132Y-85438893D01*
X137329520Y-85417850D01*
X137319030Y-85395671D01*
X137310765Y-85372572D01*
X137304804Y-85348773D01*
X137301204Y-85324505D01*
X137300000Y-85300001D01*
X137300000Y-84649999D01*
X137301204Y-84625495D01*
X137304804Y-84601227D01*
X137310765Y-84577428D01*
X137319030Y-84554329D01*
X137329520Y-84532150D01*
X137342132Y-84511107D01*
X137356747Y-84491401D01*
X137373223Y-84473223D01*
X137391401Y-84456747D01*
X137411107Y-84442132D01*
X137432150Y-84429520D01*
X137454329Y-84419030D01*
X137477428Y-84410765D01*
X137501227Y-84404804D01*
X137525495Y-84401204D01*
X137549999Y-84400000D01*
X138450001Y-84400000D01*
X138474505Y-84401204D01*
X138474505Y-84401204D01*
G37*
D11*
X138000000Y-84975000D03*
D10*
G36*
X181474505Y-37401204D02*
X181498773Y-37404804D01*
X181522572Y-37410765D01*
X181545671Y-37419030D01*
X181567850Y-37429520D01*
X181588893Y-37442132D01*
X181608599Y-37456747D01*
X181626777Y-37473223D01*
X181643253Y-37491401D01*
X181657868Y-37511107D01*
X181670480Y-37532150D01*
X181680970Y-37554329D01*
X181689235Y-37577428D01*
X181695196Y-37601227D01*
X181698796Y-37625495D01*
X181700000Y-37649999D01*
X181700000Y-38300001D01*
X181698796Y-38324505D01*
X181695196Y-38348773D01*
X181689235Y-38372572D01*
X181680970Y-38395671D01*
X181670480Y-38417850D01*
X181657868Y-38438893D01*
X181643253Y-38458599D01*
X181626777Y-38476777D01*
X181608599Y-38493253D01*
X181588893Y-38507868D01*
X181567850Y-38520480D01*
X181545671Y-38530970D01*
X181522572Y-38539235D01*
X181498773Y-38545196D01*
X181474505Y-38548796D01*
X181450001Y-38550000D01*
X180549999Y-38550000D01*
X180525495Y-38548796D01*
X180501227Y-38545196D01*
X180477428Y-38539235D01*
X180454329Y-38530970D01*
X180432150Y-38520480D01*
X180411107Y-38507868D01*
X180391401Y-38493253D01*
X180373223Y-38476777D01*
X180356747Y-38458599D01*
X180342132Y-38438893D01*
X180329520Y-38417850D01*
X180319030Y-38395671D01*
X180310765Y-38372572D01*
X180304804Y-38348773D01*
X180301204Y-38324505D01*
X180300000Y-38300001D01*
X180300000Y-37649999D01*
X180301204Y-37625495D01*
X180304804Y-37601227D01*
X180310765Y-37577428D01*
X180319030Y-37554329D01*
X180329520Y-37532150D01*
X180342132Y-37511107D01*
X180356747Y-37491401D01*
X180373223Y-37473223D01*
X180391401Y-37456747D01*
X180411107Y-37442132D01*
X180432150Y-37429520D01*
X180454329Y-37419030D01*
X180477428Y-37410765D01*
X180501227Y-37404804D01*
X180525495Y-37401204D01*
X180549999Y-37400000D01*
X181450001Y-37400000D01*
X181474505Y-37401204D01*
X181474505Y-37401204D01*
G37*
D11*
X181000000Y-37975000D03*
D10*
G36*
X181474505Y-39451204D02*
X181498773Y-39454804D01*
X181522572Y-39460765D01*
X181545671Y-39469030D01*
X181567850Y-39479520D01*
X181588893Y-39492132D01*
X181608599Y-39506747D01*
X181626777Y-39523223D01*
X181643253Y-39541401D01*
X181657868Y-39561107D01*
X181670480Y-39582150D01*
X181680970Y-39604329D01*
X181689235Y-39627428D01*
X181695196Y-39651227D01*
X181698796Y-39675495D01*
X181700000Y-39699999D01*
X181700000Y-40350001D01*
X181698796Y-40374505D01*
X181695196Y-40398773D01*
X181689235Y-40422572D01*
X181680970Y-40445671D01*
X181670480Y-40467850D01*
X181657868Y-40488893D01*
X181643253Y-40508599D01*
X181626777Y-40526777D01*
X181608599Y-40543253D01*
X181588893Y-40557868D01*
X181567850Y-40570480D01*
X181545671Y-40580970D01*
X181522572Y-40589235D01*
X181498773Y-40595196D01*
X181474505Y-40598796D01*
X181450001Y-40600000D01*
X180549999Y-40600000D01*
X180525495Y-40598796D01*
X180501227Y-40595196D01*
X180477428Y-40589235D01*
X180454329Y-40580970D01*
X180432150Y-40570480D01*
X180411107Y-40557868D01*
X180391401Y-40543253D01*
X180373223Y-40526777D01*
X180356747Y-40508599D01*
X180342132Y-40488893D01*
X180329520Y-40467850D01*
X180319030Y-40445671D01*
X180310765Y-40422572D01*
X180304804Y-40398773D01*
X180301204Y-40374505D01*
X180300000Y-40350001D01*
X180300000Y-39699999D01*
X180301204Y-39675495D01*
X180304804Y-39651227D01*
X180310765Y-39627428D01*
X180319030Y-39604329D01*
X180329520Y-39582150D01*
X180342132Y-39561107D01*
X180356747Y-39541401D01*
X180373223Y-39523223D01*
X180391401Y-39506747D01*
X180411107Y-39492132D01*
X180432150Y-39479520D01*
X180454329Y-39469030D01*
X180477428Y-39460765D01*
X180501227Y-39454804D01*
X180525495Y-39451204D01*
X180549999Y-39450000D01*
X181450001Y-39450000D01*
X181474505Y-39451204D01*
X181474505Y-39451204D01*
G37*
D11*
X181000000Y-40025000D03*
D10*
G36*
X135169505Y-108371204D02*
X135193773Y-108374804D01*
X135217572Y-108380765D01*
X135240671Y-108389030D01*
X135262850Y-108399520D01*
X135283893Y-108412132D01*
X135303599Y-108426747D01*
X135321777Y-108443223D01*
X135338253Y-108461401D01*
X135352868Y-108481107D01*
X135365480Y-108502150D01*
X135375970Y-108524329D01*
X135384235Y-108547428D01*
X135390196Y-108571227D01*
X135393796Y-108595495D01*
X135395000Y-108619999D01*
X135395000Y-109520001D01*
X135393796Y-109544505D01*
X135390196Y-109568773D01*
X135384235Y-109592572D01*
X135375970Y-109615671D01*
X135365480Y-109637850D01*
X135352868Y-109658893D01*
X135338253Y-109678599D01*
X135321777Y-109696777D01*
X135303599Y-109713253D01*
X135283893Y-109727868D01*
X135262850Y-109740480D01*
X135240671Y-109750970D01*
X135217572Y-109759235D01*
X135193773Y-109765196D01*
X135169505Y-109768796D01*
X135145001Y-109770000D01*
X134494999Y-109770000D01*
X134470495Y-109768796D01*
X134446227Y-109765196D01*
X134422428Y-109759235D01*
X134399329Y-109750970D01*
X134377150Y-109740480D01*
X134356107Y-109727868D01*
X134336401Y-109713253D01*
X134318223Y-109696777D01*
X134301747Y-109678599D01*
X134287132Y-109658893D01*
X134274520Y-109637850D01*
X134264030Y-109615671D01*
X134255765Y-109592572D01*
X134249804Y-109568773D01*
X134246204Y-109544505D01*
X134245000Y-109520001D01*
X134245000Y-108619999D01*
X134246204Y-108595495D01*
X134249804Y-108571227D01*
X134255765Y-108547428D01*
X134264030Y-108524329D01*
X134274520Y-108502150D01*
X134287132Y-108481107D01*
X134301747Y-108461401D01*
X134318223Y-108443223D01*
X134336401Y-108426747D01*
X134356107Y-108412132D01*
X134377150Y-108399520D01*
X134399329Y-108389030D01*
X134422428Y-108380765D01*
X134446227Y-108374804D01*
X134470495Y-108371204D01*
X134494999Y-108370000D01*
X135145001Y-108370000D01*
X135169505Y-108371204D01*
X135169505Y-108371204D01*
G37*
D11*
X134820000Y-109070000D03*
D10*
G36*
X133119505Y-108371204D02*
X133143773Y-108374804D01*
X133167572Y-108380765D01*
X133190671Y-108389030D01*
X133212850Y-108399520D01*
X133233893Y-108412132D01*
X133253599Y-108426747D01*
X133271777Y-108443223D01*
X133288253Y-108461401D01*
X133302868Y-108481107D01*
X133315480Y-108502150D01*
X133325970Y-108524329D01*
X133334235Y-108547428D01*
X133340196Y-108571227D01*
X133343796Y-108595495D01*
X133345000Y-108619999D01*
X133345000Y-109520001D01*
X133343796Y-109544505D01*
X133340196Y-109568773D01*
X133334235Y-109592572D01*
X133325970Y-109615671D01*
X133315480Y-109637850D01*
X133302868Y-109658893D01*
X133288253Y-109678599D01*
X133271777Y-109696777D01*
X133253599Y-109713253D01*
X133233893Y-109727868D01*
X133212850Y-109740480D01*
X133190671Y-109750970D01*
X133167572Y-109759235D01*
X133143773Y-109765196D01*
X133119505Y-109768796D01*
X133095001Y-109770000D01*
X132444999Y-109770000D01*
X132420495Y-109768796D01*
X132396227Y-109765196D01*
X132372428Y-109759235D01*
X132349329Y-109750970D01*
X132327150Y-109740480D01*
X132306107Y-109727868D01*
X132286401Y-109713253D01*
X132268223Y-109696777D01*
X132251747Y-109678599D01*
X132237132Y-109658893D01*
X132224520Y-109637850D01*
X132214030Y-109615671D01*
X132205765Y-109592572D01*
X132199804Y-109568773D01*
X132196204Y-109544505D01*
X132195000Y-109520001D01*
X132195000Y-108619999D01*
X132196204Y-108595495D01*
X132199804Y-108571227D01*
X132205765Y-108547428D01*
X132214030Y-108524329D01*
X132224520Y-108502150D01*
X132237132Y-108481107D01*
X132251747Y-108461401D01*
X132268223Y-108443223D01*
X132286401Y-108426747D01*
X132306107Y-108412132D01*
X132327150Y-108399520D01*
X132349329Y-108389030D01*
X132372428Y-108380765D01*
X132396227Y-108374804D01*
X132420495Y-108371204D01*
X132444999Y-108370000D01*
X133095001Y-108370000D01*
X133119505Y-108371204D01*
X133119505Y-108371204D01*
G37*
D11*
X132770000Y-109070000D03*
D10*
G36*
X184824505Y-82301204D02*
X184848773Y-82304804D01*
X184872572Y-82310765D01*
X184895671Y-82319030D01*
X184917850Y-82329520D01*
X184938893Y-82342132D01*
X184958599Y-82356747D01*
X184976777Y-82373223D01*
X184993253Y-82391401D01*
X185007868Y-82411107D01*
X185020480Y-82432150D01*
X185030970Y-82454329D01*
X185039235Y-82477428D01*
X185045196Y-82501227D01*
X185048796Y-82525495D01*
X185050000Y-82549999D01*
X185050000Y-83450001D01*
X185048796Y-83474505D01*
X185045196Y-83498773D01*
X185039235Y-83522572D01*
X185030970Y-83545671D01*
X185020480Y-83567850D01*
X185007868Y-83588893D01*
X184993253Y-83608599D01*
X184976777Y-83626777D01*
X184958599Y-83643253D01*
X184938893Y-83657868D01*
X184917850Y-83670480D01*
X184895671Y-83680970D01*
X184872572Y-83689235D01*
X184848773Y-83695196D01*
X184824505Y-83698796D01*
X184800001Y-83700000D01*
X184149999Y-83700000D01*
X184125495Y-83698796D01*
X184101227Y-83695196D01*
X184077428Y-83689235D01*
X184054329Y-83680970D01*
X184032150Y-83670480D01*
X184011107Y-83657868D01*
X183991401Y-83643253D01*
X183973223Y-83626777D01*
X183956747Y-83608599D01*
X183942132Y-83588893D01*
X183929520Y-83567850D01*
X183919030Y-83545671D01*
X183910765Y-83522572D01*
X183904804Y-83498773D01*
X183901204Y-83474505D01*
X183900000Y-83450001D01*
X183900000Y-82549999D01*
X183901204Y-82525495D01*
X183904804Y-82501227D01*
X183910765Y-82477428D01*
X183919030Y-82454329D01*
X183929520Y-82432150D01*
X183942132Y-82411107D01*
X183956747Y-82391401D01*
X183973223Y-82373223D01*
X183991401Y-82356747D01*
X184011107Y-82342132D01*
X184032150Y-82329520D01*
X184054329Y-82319030D01*
X184077428Y-82310765D01*
X184101227Y-82304804D01*
X184125495Y-82301204D01*
X184149999Y-82300000D01*
X184800001Y-82300000D01*
X184824505Y-82301204D01*
X184824505Y-82301204D01*
G37*
D11*
X184475000Y-83000000D03*
D10*
G36*
X186874505Y-82301204D02*
X186898773Y-82304804D01*
X186922572Y-82310765D01*
X186945671Y-82319030D01*
X186967850Y-82329520D01*
X186988893Y-82342132D01*
X187008599Y-82356747D01*
X187026777Y-82373223D01*
X187043253Y-82391401D01*
X187057868Y-82411107D01*
X187070480Y-82432150D01*
X187080970Y-82454329D01*
X187089235Y-82477428D01*
X187095196Y-82501227D01*
X187098796Y-82525495D01*
X187100000Y-82549999D01*
X187100000Y-83450001D01*
X187098796Y-83474505D01*
X187095196Y-83498773D01*
X187089235Y-83522572D01*
X187080970Y-83545671D01*
X187070480Y-83567850D01*
X187057868Y-83588893D01*
X187043253Y-83608599D01*
X187026777Y-83626777D01*
X187008599Y-83643253D01*
X186988893Y-83657868D01*
X186967850Y-83670480D01*
X186945671Y-83680970D01*
X186922572Y-83689235D01*
X186898773Y-83695196D01*
X186874505Y-83698796D01*
X186850001Y-83700000D01*
X186199999Y-83700000D01*
X186175495Y-83698796D01*
X186151227Y-83695196D01*
X186127428Y-83689235D01*
X186104329Y-83680970D01*
X186082150Y-83670480D01*
X186061107Y-83657868D01*
X186041401Y-83643253D01*
X186023223Y-83626777D01*
X186006747Y-83608599D01*
X185992132Y-83588893D01*
X185979520Y-83567850D01*
X185969030Y-83545671D01*
X185960765Y-83522572D01*
X185954804Y-83498773D01*
X185951204Y-83474505D01*
X185950000Y-83450001D01*
X185950000Y-82549999D01*
X185951204Y-82525495D01*
X185954804Y-82501227D01*
X185960765Y-82477428D01*
X185969030Y-82454329D01*
X185979520Y-82432150D01*
X185992132Y-82411107D01*
X186006747Y-82391401D01*
X186023223Y-82373223D01*
X186041401Y-82356747D01*
X186061107Y-82342132D01*
X186082150Y-82329520D01*
X186104329Y-82319030D01*
X186127428Y-82310765D01*
X186151227Y-82304804D01*
X186175495Y-82301204D01*
X186199999Y-82300000D01*
X186850001Y-82300000D01*
X186874505Y-82301204D01*
X186874505Y-82301204D01*
G37*
D11*
X186525000Y-83000000D03*
D10*
G36*
X150474505Y-77451204D02*
X150498773Y-77454804D01*
X150522572Y-77460765D01*
X150545671Y-77469030D01*
X150567850Y-77479520D01*
X150588893Y-77492132D01*
X150608599Y-77506747D01*
X150626777Y-77523223D01*
X150643253Y-77541401D01*
X150657868Y-77561107D01*
X150670480Y-77582150D01*
X150680970Y-77604329D01*
X150689235Y-77627428D01*
X150695196Y-77651227D01*
X150698796Y-77675495D01*
X150700000Y-77699999D01*
X150700000Y-78350001D01*
X150698796Y-78374505D01*
X150695196Y-78398773D01*
X150689235Y-78422572D01*
X150680970Y-78445671D01*
X150670480Y-78467850D01*
X150657868Y-78488893D01*
X150643253Y-78508599D01*
X150626777Y-78526777D01*
X150608599Y-78543253D01*
X150588893Y-78557868D01*
X150567850Y-78570480D01*
X150545671Y-78580970D01*
X150522572Y-78589235D01*
X150498773Y-78595196D01*
X150474505Y-78598796D01*
X150450001Y-78600000D01*
X149549999Y-78600000D01*
X149525495Y-78598796D01*
X149501227Y-78595196D01*
X149477428Y-78589235D01*
X149454329Y-78580970D01*
X149432150Y-78570480D01*
X149411107Y-78557868D01*
X149391401Y-78543253D01*
X149373223Y-78526777D01*
X149356747Y-78508599D01*
X149342132Y-78488893D01*
X149329520Y-78467850D01*
X149319030Y-78445671D01*
X149310765Y-78422572D01*
X149304804Y-78398773D01*
X149301204Y-78374505D01*
X149300000Y-78350001D01*
X149300000Y-77699999D01*
X149301204Y-77675495D01*
X149304804Y-77651227D01*
X149310765Y-77627428D01*
X149319030Y-77604329D01*
X149329520Y-77582150D01*
X149342132Y-77561107D01*
X149356747Y-77541401D01*
X149373223Y-77523223D01*
X149391401Y-77506747D01*
X149411107Y-77492132D01*
X149432150Y-77479520D01*
X149454329Y-77469030D01*
X149477428Y-77460765D01*
X149501227Y-77454804D01*
X149525495Y-77451204D01*
X149549999Y-77450000D01*
X150450001Y-77450000D01*
X150474505Y-77451204D01*
X150474505Y-77451204D01*
G37*
D11*
X150000000Y-78025000D03*
D10*
G36*
X150474505Y-75401204D02*
X150498773Y-75404804D01*
X150522572Y-75410765D01*
X150545671Y-75419030D01*
X150567850Y-75429520D01*
X150588893Y-75442132D01*
X150608599Y-75456747D01*
X150626777Y-75473223D01*
X150643253Y-75491401D01*
X150657868Y-75511107D01*
X150670480Y-75532150D01*
X150680970Y-75554329D01*
X150689235Y-75577428D01*
X150695196Y-75601227D01*
X150698796Y-75625495D01*
X150700000Y-75649999D01*
X150700000Y-76300001D01*
X150698796Y-76324505D01*
X150695196Y-76348773D01*
X150689235Y-76372572D01*
X150680970Y-76395671D01*
X150670480Y-76417850D01*
X150657868Y-76438893D01*
X150643253Y-76458599D01*
X150626777Y-76476777D01*
X150608599Y-76493253D01*
X150588893Y-76507868D01*
X150567850Y-76520480D01*
X150545671Y-76530970D01*
X150522572Y-76539235D01*
X150498773Y-76545196D01*
X150474505Y-76548796D01*
X150450001Y-76550000D01*
X149549999Y-76550000D01*
X149525495Y-76548796D01*
X149501227Y-76545196D01*
X149477428Y-76539235D01*
X149454329Y-76530970D01*
X149432150Y-76520480D01*
X149411107Y-76507868D01*
X149391401Y-76493253D01*
X149373223Y-76476777D01*
X149356747Y-76458599D01*
X149342132Y-76438893D01*
X149329520Y-76417850D01*
X149319030Y-76395671D01*
X149310765Y-76372572D01*
X149304804Y-76348773D01*
X149301204Y-76324505D01*
X149300000Y-76300001D01*
X149300000Y-75649999D01*
X149301204Y-75625495D01*
X149304804Y-75601227D01*
X149310765Y-75577428D01*
X149319030Y-75554329D01*
X149329520Y-75532150D01*
X149342132Y-75511107D01*
X149356747Y-75491401D01*
X149373223Y-75473223D01*
X149391401Y-75456747D01*
X149411107Y-75442132D01*
X149432150Y-75429520D01*
X149454329Y-75419030D01*
X149477428Y-75410765D01*
X149501227Y-75404804D01*
X149525495Y-75401204D01*
X149549999Y-75400000D01*
X150450001Y-75400000D01*
X150474505Y-75401204D01*
X150474505Y-75401204D01*
G37*
D11*
X150000000Y-75975000D03*
D10*
G36*
X179374505Y-102301204D02*
X179398773Y-102304804D01*
X179422572Y-102310765D01*
X179445671Y-102319030D01*
X179467850Y-102329520D01*
X179488893Y-102342132D01*
X179508599Y-102356747D01*
X179526777Y-102373223D01*
X179543253Y-102391401D01*
X179557868Y-102411107D01*
X179570480Y-102432150D01*
X179580970Y-102454329D01*
X179589235Y-102477428D01*
X179595196Y-102501227D01*
X179598796Y-102525495D01*
X179600000Y-102549999D01*
X179600000Y-103450001D01*
X179598796Y-103474505D01*
X179595196Y-103498773D01*
X179589235Y-103522572D01*
X179580970Y-103545671D01*
X179570480Y-103567850D01*
X179557868Y-103588893D01*
X179543253Y-103608599D01*
X179526777Y-103626777D01*
X179508599Y-103643253D01*
X179488893Y-103657868D01*
X179467850Y-103670480D01*
X179445671Y-103680970D01*
X179422572Y-103689235D01*
X179398773Y-103695196D01*
X179374505Y-103698796D01*
X179350001Y-103700000D01*
X178699999Y-103700000D01*
X178675495Y-103698796D01*
X178651227Y-103695196D01*
X178627428Y-103689235D01*
X178604329Y-103680970D01*
X178582150Y-103670480D01*
X178561107Y-103657868D01*
X178541401Y-103643253D01*
X178523223Y-103626777D01*
X178506747Y-103608599D01*
X178492132Y-103588893D01*
X178479520Y-103567850D01*
X178469030Y-103545671D01*
X178460765Y-103522572D01*
X178454804Y-103498773D01*
X178451204Y-103474505D01*
X178450000Y-103450001D01*
X178450000Y-102549999D01*
X178451204Y-102525495D01*
X178454804Y-102501227D01*
X178460765Y-102477428D01*
X178469030Y-102454329D01*
X178479520Y-102432150D01*
X178492132Y-102411107D01*
X178506747Y-102391401D01*
X178523223Y-102373223D01*
X178541401Y-102356747D01*
X178561107Y-102342132D01*
X178582150Y-102329520D01*
X178604329Y-102319030D01*
X178627428Y-102310765D01*
X178651227Y-102304804D01*
X178675495Y-102301204D01*
X178699999Y-102300000D01*
X179350001Y-102300000D01*
X179374505Y-102301204D01*
X179374505Y-102301204D01*
G37*
D11*
X179025000Y-103000000D03*
D10*
G36*
X177324505Y-102301204D02*
X177348773Y-102304804D01*
X177372572Y-102310765D01*
X177395671Y-102319030D01*
X177417850Y-102329520D01*
X177438893Y-102342132D01*
X177458599Y-102356747D01*
X177476777Y-102373223D01*
X177493253Y-102391401D01*
X177507868Y-102411107D01*
X177520480Y-102432150D01*
X177530970Y-102454329D01*
X177539235Y-102477428D01*
X177545196Y-102501227D01*
X177548796Y-102525495D01*
X177550000Y-102549999D01*
X177550000Y-103450001D01*
X177548796Y-103474505D01*
X177545196Y-103498773D01*
X177539235Y-103522572D01*
X177530970Y-103545671D01*
X177520480Y-103567850D01*
X177507868Y-103588893D01*
X177493253Y-103608599D01*
X177476777Y-103626777D01*
X177458599Y-103643253D01*
X177438893Y-103657868D01*
X177417850Y-103670480D01*
X177395671Y-103680970D01*
X177372572Y-103689235D01*
X177348773Y-103695196D01*
X177324505Y-103698796D01*
X177300001Y-103700000D01*
X176649999Y-103700000D01*
X176625495Y-103698796D01*
X176601227Y-103695196D01*
X176577428Y-103689235D01*
X176554329Y-103680970D01*
X176532150Y-103670480D01*
X176511107Y-103657868D01*
X176491401Y-103643253D01*
X176473223Y-103626777D01*
X176456747Y-103608599D01*
X176442132Y-103588893D01*
X176429520Y-103567850D01*
X176419030Y-103545671D01*
X176410765Y-103522572D01*
X176404804Y-103498773D01*
X176401204Y-103474505D01*
X176400000Y-103450001D01*
X176400000Y-102549999D01*
X176401204Y-102525495D01*
X176404804Y-102501227D01*
X176410765Y-102477428D01*
X176419030Y-102454329D01*
X176429520Y-102432150D01*
X176442132Y-102411107D01*
X176456747Y-102391401D01*
X176473223Y-102373223D01*
X176491401Y-102356747D01*
X176511107Y-102342132D01*
X176532150Y-102329520D01*
X176554329Y-102319030D01*
X176577428Y-102310765D01*
X176601227Y-102304804D01*
X176625495Y-102301204D01*
X176649999Y-102300000D01*
X177300001Y-102300000D01*
X177324505Y-102301204D01*
X177324505Y-102301204D01*
G37*
D11*
X176975000Y-103000000D03*
D10*
G36*
X135169505Y-106371204D02*
X135193773Y-106374804D01*
X135217572Y-106380765D01*
X135240671Y-106389030D01*
X135262850Y-106399520D01*
X135283893Y-106412132D01*
X135303599Y-106426747D01*
X135321777Y-106443223D01*
X135338253Y-106461401D01*
X135352868Y-106481107D01*
X135365480Y-106502150D01*
X135375970Y-106524329D01*
X135384235Y-106547428D01*
X135390196Y-106571227D01*
X135393796Y-106595495D01*
X135395000Y-106619999D01*
X135395000Y-107520001D01*
X135393796Y-107544505D01*
X135390196Y-107568773D01*
X135384235Y-107592572D01*
X135375970Y-107615671D01*
X135365480Y-107637850D01*
X135352868Y-107658893D01*
X135338253Y-107678599D01*
X135321777Y-107696777D01*
X135303599Y-107713253D01*
X135283893Y-107727868D01*
X135262850Y-107740480D01*
X135240671Y-107750970D01*
X135217572Y-107759235D01*
X135193773Y-107765196D01*
X135169505Y-107768796D01*
X135145001Y-107770000D01*
X134494999Y-107770000D01*
X134470495Y-107768796D01*
X134446227Y-107765196D01*
X134422428Y-107759235D01*
X134399329Y-107750970D01*
X134377150Y-107740480D01*
X134356107Y-107727868D01*
X134336401Y-107713253D01*
X134318223Y-107696777D01*
X134301747Y-107678599D01*
X134287132Y-107658893D01*
X134274520Y-107637850D01*
X134264030Y-107615671D01*
X134255765Y-107592572D01*
X134249804Y-107568773D01*
X134246204Y-107544505D01*
X134245000Y-107520001D01*
X134245000Y-106619999D01*
X134246204Y-106595495D01*
X134249804Y-106571227D01*
X134255765Y-106547428D01*
X134264030Y-106524329D01*
X134274520Y-106502150D01*
X134287132Y-106481107D01*
X134301747Y-106461401D01*
X134318223Y-106443223D01*
X134336401Y-106426747D01*
X134356107Y-106412132D01*
X134377150Y-106399520D01*
X134399329Y-106389030D01*
X134422428Y-106380765D01*
X134446227Y-106374804D01*
X134470495Y-106371204D01*
X134494999Y-106370000D01*
X135145001Y-106370000D01*
X135169505Y-106371204D01*
X135169505Y-106371204D01*
G37*
D11*
X134820000Y-107070000D03*
D10*
G36*
X133119505Y-106371204D02*
X133143773Y-106374804D01*
X133167572Y-106380765D01*
X133190671Y-106389030D01*
X133212850Y-106399520D01*
X133233893Y-106412132D01*
X133253599Y-106426747D01*
X133271777Y-106443223D01*
X133288253Y-106461401D01*
X133302868Y-106481107D01*
X133315480Y-106502150D01*
X133325970Y-106524329D01*
X133334235Y-106547428D01*
X133340196Y-106571227D01*
X133343796Y-106595495D01*
X133345000Y-106619999D01*
X133345000Y-107520001D01*
X133343796Y-107544505D01*
X133340196Y-107568773D01*
X133334235Y-107592572D01*
X133325970Y-107615671D01*
X133315480Y-107637850D01*
X133302868Y-107658893D01*
X133288253Y-107678599D01*
X133271777Y-107696777D01*
X133253599Y-107713253D01*
X133233893Y-107727868D01*
X133212850Y-107740480D01*
X133190671Y-107750970D01*
X133167572Y-107759235D01*
X133143773Y-107765196D01*
X133119505Y-107768796D01*
X133095001Y-107770000D01*
X132444999Y-107770000D01*
X132420495Y-107768796D01*
X132396227Y-107765196D01*
X132372428Y-107759235D01*
X132349329Y-107750970D01*
X132327150Y-107740480D01*
X132306107Y-107727868D01*
X132286401Y-107713253D01*
X132268223Y-107696777D01*
X132251747Y-107678599D01*
X132237132Y-107658893D01*
X132224520Y-107637850D01*
X132214030Y-107615671D01*
X132205765Y-107592572D01*
X132199804Y-107568773D01*
X132196204Y-107544505D01*
X132195000Y-107520001D01*
X132195000Y-106619999D01*
X132196204Y-106595495D01*
X132199804Y-106571227D01*
X132205765Y-106547428D01*
X132214030Y-106524329D01*
X132224520Y-106502150D01*
X132237132Y-106481107D01*
X132251747Y-106461401D01*
X132268223Y-106443223D01*
X132286401Y-106426747D01*
X132306107Y-106412132D01*
X132327150Y-106399520D01*
X132349329Y-106389030D01*
X132372428Y-106380765D01*
X132396227Y-106374804D01*
X132420495Y-106371204D01*
X132444999Y-106370000D01*
X133095001Y-106370000D01*
X133119505Y-106371204D01*
X133119505Y-106371204D01*
G37*
D11*
X132770000Y-107070000D03*
D10*
G36*
X119234505Y-105941204D02*
X119258773Y-105944804D01*
X119282572Y-105950765D01*
X119305671Y-105959030D01*
X119327850Y-105969520D01*
X119348893Y-105982132D01*
X119368599Y-105996747D01*
X119386777Y-106013223D01*
X119403253Y-106031401D01*
X119417868Y-106051107D01*
X119430480Y-106072150D01*
X119440970Y-106094329D01*
X119449235Y-106117428D01*
X119455196Y-106141227D01*
X119458796Y-106165495D01*
X119460000Y-106189999D01*
X119460000Y-106840001D01*
X119458796Y-106864505D01*
X119455196Y-106888773D01*
X119449235Y-106912572D01*
X119440970Y-106935671D01*
X119430480Y-106957850D01*
X119417868Y-106978893D01*
X119403253Y-106998599D01*
X119386777Y-107016777D01*
X119368599Y-107033253D01*
X119348893Y-107047868D01*
X119327850Y-107060480D01*
X119305671Y-107070970D01*
X119282572Y-107079235D01*
X119258773Y-107085196D01*
X119234505Y-107088796D01*
X119210001Y-107090000D01*
X118309999Y-107090000D01*
X118285495Y-107088796D01*
X118261227Y-107085196D01*
X118237428Y-107079235D01*
X118214329Y-107070970D01*
X118192150Y-107060480D01*
X118171107Y-107047868D01*
X118151401Y-107033253D01*
X118133223Y-107016777D01*
X118116747Y-106998599D01*
X118102132Y-106978893D01*
X118089520Y-106957850D01*
X118079030Y-106935671D01*
X118070765Y-106912572D01*
X118064804Y-106888773D01*
X118061204Y-106864505D01*
X118060000Y-106840001D01*
X118060000Y-106189999D01*
X118061204Y-106165495D01*
X118064804Y-106141227D01*
X118070765Y-106117428D01*
X118079030Y-106094329D01*
X118089520Y-106072150D01*
X118102132Y-106051107D01*
X118116747Y-106031401D01*
X118133223Y-106013223D01*
X118151401Y-105996747D01*
X118171107Y-105982132D01*
X118192150Y-105969520D01*
X118214329Y-105959030D01*
X118237428Y-105950765D01*
X118261227Y-105944804D01*
X118285495Y-105941204D01*
X118309999Y-105940000D01*
X119210001Y-105940000D01*
X119234505Y-105941204D01*
X119234505Y-105941204D01*
G37*
D11*
X118760000Y-106515000D03*
D10*
G36*
X119234505Y-103891204D02*
X119258773Y-103894804D01*
X119282572Y-103900765D01*
X119305671Y-103909030D01*
X119327850Y-103919520D01*
X119348893Y-103932132D01*
X119368599Y-103946747D01*
X119386777Y-103963223D01*
X119403253Y-103981401D01*
X119417868Y-104001107D01*
X119430480Y-104022150D01*
X119440970Y-104044329D01*
X119449235Y-104067428D01*
X119455196Y-104091227D01*
X119458796Y-104115495D01*
X119460000Y-104139999D01*
X119460000Y-104790001D01*
X119458796Y-104814505D01*
X119455196Y-104838773D01*
X119449235Y-104862572D01*
X119440970Y-104885671D01*
X119430480Y-104907850D01*
X119417868Y-104928893D01*
X119403253Y-104948599D01*
X119386777Y-104966777D01*
X119368599Y-104983253D01*
X119348893Y-104997868D01*
X119327850Y-105010480D01*
X119305671Y-105020970D01*
X119282572Y-105029235D01*
X119258773Y-105035196D01*
X119234505Y-105038796D01*
X119210001Y-105040000D01*
X118309999Y-105040000D01*
X118285495Y-105038796D01*
X118261227Y-105035196D01*
X118237428Y-105029235D01*
X118214329Y-105020970D01*
X118192150Y-105010480D01*
X118171107Y-104997868D01*
X118151401Y-104983253D01*
X118133223Y-104966777D01*
X118116747Y-104948599D01*
X118102132Y-104928893D01*
X118089520Y-104907850D01*
X118079030Y-104885671D01*
X118070765Y-104862572D01*
X118064804Y-104838773D01*
X118061204Y-104814505D01*
X118060000Y-104790001D01*
X118060000Y-104139999D01*
X118061204Y-104115495D01*
X118064804Y-104091227D01*
X118070765Y-104067428D01*
X118079030Y-104044329D01*
X118089520Y-104022150D01*
X118102132Y-104001107D01*
X118116747Y-103981401D01*
X118133223Y-103963223D01*
X118151401Y-103946747D01*
X118171107Y-103932132D01*
X118192150Y-103919520D01*
X118214329Y-103909030D01*
X118237428Y-103900765D01*
X118261227Y-103894804D01*
X118285495Y-103891204D01*
X118309999Y-103890000D01*
X119210001Y-103890000D01*
X119234505Y-103891204D01*
X119234505Y-103891204D01*
G37*
D11*
X118760000Y-104465000D03*
D10*
G36*
X166314505Y-95511204D02*
X166338773Y-95514804D01*
X166362572Y-95520765D01*
X166385671Y-95529030D01*
X166407850Y-95539520D01*
X166428893Y-95552132D01*
X166448599Y-95566747D01*
X166466777Y-95583223D01*
X166483253Y-95601401D01*
X166497868Y-95621107D01*
X166510480Y-95642150D01*
X166520970Y-95664329D01*
X166529235Y-95687428D01*
X166535196Y-95711227D01*
X166538796Y-95735495D01*
X166540000Y-95759999D01*
X166540000Y-96410001D01*
X166538796Y-96434505D01*
X166535196Y-96458773D01*
X166529235Y-96482572D01*
X166520970Y-96505671D01*
X166510480Y-96527850D01*
X166497868Y-96548893D01*
X166483253Y-96568599D01*
X166466777Y-96586777D01*
X166448599Y-96603253D01*
X166428893Y-96617868D01*
X166407850Y-96630480D01*
X166385671Y-96640970D01*
X166362572Y-96649235D01*
X166338773Y-96655196D01*
X166314505Y-96658796D01*
X166290001Y-96660000D01*
X165389999Y-96660000D01*
X165365495Y-96658796D01*
X165341227Y-96655196D01*
X165317428Y-96649235D01*
X165294329Y-96640970D01*
X165272150Y-96630480D01*
X165251107Y-96617868D01*
X165231401Y-96603253D01*
X165213223Y-96586777D01*
X165196747Y-96568599D01*
X165182132Y-96548893D01*
X165169520Y-96527850D01*
X165159030Y-96505671D01*
X165150765Y-96482572D01*
X165144804Y-96458773D01*
X165141204Y-96434505D01*
X165140000Y-96410001D01*
X165140000Y-95759999D01*
X165141204Y-95735495D01*
X165144804Y-95711227D01*
X165150765Y-95687428D01*
X165159030Y-95664329D01*
X165169520Y-95642150D01*
X165182132Y-95621107D01*
X165196747Y-95601401D01*
X165213223Y-95583223D01*
X165231401Y-95566747D01*
X165251107Y-95552132D01*
X165272150Y-95539520D01*
X165294329Y-95529030D01*
X165317428Y-95520765D01*
X165341227Y-95514804D01*
X165365495Y-95511204D01*
X165389999Y-95510000D01*
X166290001Y-95510000D01*
X166314505Y-95511204D01*
X166314505Y-95511204D01*
G37*
D11*
X165840000Y-96085000D03*
D10*
G36*
X166314505Y-97561204D02*
X166338773Y-97564804D01*
X166362572Y-97570765D01*
X166385671Y-97579030D01*
X166407850Y-97589520D01*
X166428893Y-97602132D01*
X166448599Y-97616747D01*
X166466777Y-97633223D01*
X166483253Y-97651401D01*
X166497868Y-97671107D01*
X166510480Y-97692150D01*
X166520970Y-97714329D01*
X166529235Y-97737428D01*
X166535196Y-97761227D01*
X166538796Y-97785495D01*
X166540000Y-97809999D01*
X166540000Y-98460001D01*
X166538796Y-98484505D01*
X166535196Y-98508773D01*
X166529235Y-98532572D01*
X166520970Y-98555671D01*
X166510480Y-98577850D01*
X166497868Y-98598893D01*
X166483253Y-98618599D01*
X166466777Y-98636777D01*
X166448599Y-98653253D01*
X166428893Y-98667868D01*
X166407850Y-98680480D01*
X166385671Y-98690970D01*
X166362572Y-98699235D01*
X166338773Y-98705196D01*
X166314505Y-98708796D01*
X166290001Y-98710000D01*
X165389999Y-98710000D01*
X165365495Y-98708796D01*
X165341227Y-98705196D01*
X165317428Y-98699235D01*
X165294329Y-98690970D01*
X165272150Y-98680480D01*
X165251107Y-98667868D01*
X165231401Y-98653253D01*
X165213223Y-98636777D01*
X165196747Y-98618599D01*
X165182132Y-98598893D01*
X165169520Y-98577850D01*
X165159030Y-98555671D01*
X165150765Y-98532572D01*
X165144804Y-98508773D01*
X165141204Y-98484505D01*
X165140000Y-98460001D01*
X165140000Y-97809999D01*
X165141204Y-97785495D01*
X165144804Y-97761227D01*
X165150765Y-97737428D01*
X165159030Y-97714329D01*
X165169520Y-97692150D01*
X165182132Y-97671107D01*
X165196747Y-97651401D01*
X165213223Y-97633223D01*
X165231401Y-97616747D01*
X165251107Y-97602132D01*
X165272150Y-97589520D01*
X165294329Y-97579030D01*
X165317428Y-97570765D01*
X165341227Y-97564804D01*
X165365495Y-97561204D01*
X165389999Y-97560000D01*
X166290001Y-97560000D01*
X166314505Y-97561204D01*
X166314505Y-97561204D01*
G37*
D11*
X165840000Y-98135000D03*
D10*
G36*
X128594505Y-98371204D02*
X128618773Y-98374804D01*
X128642572Y-98380765D01*
X128665671Y-98389030D01*
X128687850Y-98399520D01*
X128708893Y-98412132D01*
X128728599Y-98426747D01*
X128746777Y-98443223D01*
X128763253Y-98461401D01*
X128777868Y-98481107D01*
X128790480Y-98502150D01*
X128800970Y-98524329D01*
X128809235Y-98547428D01*
X128815196Y-98571227D01*
X128818796Y-98595495D01*
X128820000Y-98619999D01*
X128820000Y-99520001D01*
X128818796Y-99544505D01*
X128815196Y-99568773D01*
X128809235Y-99592572D01*
X128800970Y-99615671D01*
X128790480Y-99637850D01*
X128777868Y-99658893D01*
X128763253Y-99678599D01*
X128746777Y-99696777D01*
X128728599Y-99713253D01*
X128708893Y-99727868D01*
X128687850Y-99740480D01*
X128665671Y-99750970D01*
X128642572Y-99759235D01*
X128618773Y-99765196D01*
X128594505Y-99768796D01*
X128570001Y-99770000D01*
X127919999Y-99770000D01*
X127895495Y-99768796D01*
X127871227Y-99765196D01*
X127847428Y-99759235D01*
X127824329Y-99750970D01*
X127802150Y-99740480D01*
X127781107Y-99727868D01*
X127761401Y-99713253D01*
X127743223Y-99696777D01*
X127726747Y-99678599D01*
X127712132Y-99658893D01*
X127699520Y-99637850D01*
X127689030Y-99615671D01*
X127680765Y-99592572D01*
X127674804Y-99568773D01*
X127671204Y-99544505D01*
X127670000Y-99520001D01*
X127670000Y-98619999D01*
X127671204Y-98595495D01*
X127674804Y-98571227D01*
X127680765Y-98547428D01*
X127689030Y-98524329D01*
X127699520Y-98502150D01*
X127712132Y-98481107D01*
X127726747Y-98461401D01*
X127743223Y-98443223D01*
X127761401Y-98426747D01*
X127781107Y-98412132D01*
X127802150Y-98399520D01*
X127824329Y-98389030D01*
X127847428Y-98380765D01*
X127871227Y-98374804D01*
X127895495Y-98371204D01*
X127919999Y-98370000D01*
X128570001Y-98370000D01*
X128594505Y-98371204D01*
X128594505Y-98371204D01*
G37*
D11*
X128245000Y-99070000D03*
D10*
G36*
X130644505Y-98371204D02*
X130668773Y-98374804D01*
X130692572Y-98380765D01*
X130715671Y-98389030D01*
X130737850Y-98399520D01*
X130758893Y-98412132D01*
X130778599Y-98426747D01*
X130796777Y-98443223D01*
X130813253Y-98461401D01*
X130827868Y-98481107D01*
X130840480Y-98502150D01*
X130850970Y-98524329D01*
X130859235Y-98547428D01*
X130865196Y-98571227D01*
X130868796Y-98595495D01*
X130870000Y-98619999D01*
X130870000Y-99520001D01*
X130868796Y-99544505D01*
X130865196Y-99568773D01*
X130859235Y-99592572D01*
X130850970Y-99615671D01*
X130840480Y-99637850D01*
X130827868Y-99658893D01*
X130813253Y-99678599D01*
X130796777Y-99696777D01*
X130778599Y-99713253D01*
X130758893Y-99727868D01*
X130737850Y-99740480D01*
X130715671Y-99750970D01*
X130692572Y-99759235D01*
X130668773Y-99765196D01*
X130644505Y-99768796D01*
X130620001Y-99770000D01*
X129969999Y-99770000D01*
X129945495Y-99768796D01*
X129921227Y-99765196D01*
X129897428Y-99759235D01*
X129874329Y-99750970D01*
X129852150Y-99740480D01*
X129831107Y-99727868D01*
X129811401Y-99713253D01*
X129793223Y-99696777D01*
X129776747Y-99678599D01*
X129762132Y-99658893D01*
X129749520Y-99637850D01*
X129739030Y-99615671D01*
X129730765Y-99592572D01*
X129724804Y-99568773D01*
X129721204Y-99544505D01*
X129720000Y-99520001D01*
X129720000Y-98619999D01*
X129721204Y-98595495D01*
X129724804Y-98571227D01*
X129730765Y-98547428D01*
X129739030Y-98524329D01*
X129749520Y-98502150D01*
X129762132Y-98481107D01*
X129776747Y-98461401D01*
X129793223Y-98443223D01*
X129811401Y-98426747D01*
X129831107Y-98412132D01*
X129852150Y-98399520D01*
X129874329Y-98389030D01*
X129897428Y-98380765D01*
X129921227Y-98374804D01*
X129945495Y-98371204D01*
X129969999Y-98370000D01*
X130620001Y-98370000D01*
X130644505Y-98371204D01*
X130644505Y-98371204D01*
G37*
D11*
X130295000Y-99070000D03*
D10*
G36*
X176324505Y-87301204D02*
X176348773Y-87304804D01*
X176372572Y-87310765D01*
X176395671Y-87319030D01*
X176417850Y-87329520D01*
X176438893Y-87342132D01*
X176458599Y-87356747D01*
X176476777Y-87373223D01*
X176493253Y-87391401D01*
X176507868Y-87411107D01*
X176520480Y-87432150D01*
X176530970Y-87454329D01*
X176539235Y-87477428D01*
X176545196Y-87501227D01*
X176548796Y-87525495D01*
X176550000Y-87549999D01*
X176550000Y-88450001D01*
X176548796Y-88474505D01*
X176545196Y-88498773D01*
X176539235Y-88522572D01*
X176530970Y-88545671D01*
X176520480Y-88567850D01*
X176507868Y-88588893D01*
X176493253Y-88608599D01*
X176476777Y-88626777D01*
X176458599Y-88643253D01*
X176438893Y-88657868D01*
X176417850Y-88670480D01*
X176395671Y-88680970D01*
X176372572Y-88689235D01*
X176348773Y-88695196D01*
X176324505Y-88698796D01*
X176300001Y-88700000D01*
X175649999Y-88700000D01*
X175625495Y-88698796D01*
X175601227Y-88695196D01*
X175577428Y-88689235D01*
X175554329Y-88680970D01*
X175532150Y-88670480D01*
X175511107Y-88657868D01*
X175491401Y-88643253D01*
X175473223Y-88626777D01*
X175456747Y-88608599D01*
X175442132Y-88588893D01*
X175429520Y-88567850D01*
X175419030Y-88545671D01*
X175410765Y-88522572D01*
X175404804Y-88498773D01*
X175401204Y-88474505D01*
X175400000Y-88450001D01*
X175400000Y-87549999D01*
X175401204Y-87525495D01*
X175404804Y-87501227D01*
X175410765Y-87477428D01*
X175419030Y-87454329D01*
X175429520Y-87432150D01*
X175442132Y-87411107D01*
X175456747Y-87391401D01*
X175473223Y-87373223D01*
X175491401Y-87356747D01*
X175511107Y-87342132D01*
X175532150Y-87329520D01*
X175554329Y-87319030D01*
X175577428Y-87310765D01*
X175601227Y-87304804D01*
X175625495Y-87301204D01*
X175649999Y-87300000D01*
X176300001Y-87300000D01*
X176324505Y-87301204D01*
X176324505Y-87301204D01*
G37*
D11*
X175975000Y-88000000D03*
D10*
G36*
X178374505Y-87301204D02*
X178398773Y-87304804D01*
X178422572Y-87310765D01*
X178445671Y-87319030D01*
X178467850Y-87329520D01*
X178488893Y-87342132D01*
X178508599Y-87356747D01*
X178526777Y-87373223D01*
X178543253Y-87391401D01*
X178557868Y-87411107D01*
X178570480Y-87432150D01*
X178580970Y-87454329D01*
X178589235Y-87477428D01*
X178595196Y-87501227D01*
X178598796Y-87525495D01*
X178600000Y-87549999D01*
X178600000Y-88450001D01*
X178598796Y-88474505D01*
X178595196Y-88498773D01*
X178589235Y-88522572D01*
X178580970Y-88545671D01*
X178570480Y-88567850D01*
X178557868Y-88588893D01*
X178543253Y-88608599D01*
X178526777Y-88626777D01*
X178508599Y-88643253D01*
X178488893Y-88657868D01*
X178467850Y-88670480D01*
X178445671Y-88680970D01*
X178422572Y-88689235D01*
X178398773Y-88695196D01*
X178374505Y-88698796D01*
X178350001Y-88700000D01*
X177699999Y-88700000D01*
X177675495Y-88698796D01*
X177651227Y-88695196D01*
X177627428Y-88689235D01*
X177604329Y-88680970D01*
X177582150Y-88670480D01*
X177561107Y-88657868D01*
X177541401Y-88643253D01*
X177523223Y-88626777D01*
X177506747Y-88608599D01*
X177492132Y-88588893D01*
X177479520Y-88567850D01*
X177469030Y-88545671D01*
X177460765Y-88522572D01*
X177454804Y-88498773D01*
X177451204Y-88474505D01*
X177450000Y-88450001D01*
X177450000Y-87549999D01*
X177451204Y-87525495D01*
X177454804Y-87501227D01*
X177460765Y-87477428D01*
X177469030Y-87454329D01*
X177479520Y-87432150D01*
X177492132Y-87411107D01*
X177506747Y-87391401D01*
X177523223Y-87373223D01*
X177541401Y-87356747D01*
X177561107Y-87342132D01*
X177582150Y-87329520D01*
X177604329Y-87319030D01*
X177627428Y-87310765D01*
X177651227Y-87304804D01*
X177675495Y-87301204D01*
X177699999Y-87300000D01*
X178350001Y-87300000D01*
X178374505Y-87301204D01*
X178374505Y-87301204D01*
G37*
D11*
X178025000Y-88000000D03*
D10*
G36*
X183399505Y-99301204D02*
X183423773Y-99304804D01*
X183447572Y-99310765D01*
X183470671Y-99319030D01*
X183492850Y-99329520D01*
X183513893Y-99342132D01*
X183533599Y-99356747D01*
X183551777Y-99373223D01*
X183568253Y-99391401D01*
X183582868Y-99411107D01*
X183595480Y-99432150D01*
X183605970Y-99454329D01*
X183614235Y-99477428D01*
X183620196Y-99501227D01*
X183623796Y-99525495D01*
X183625000Y-99549999D01*
X183625000Y-100450001D01*
X183623796Y-100474505D01*
X183620196Y-100498773D01*
X183614235Y-100522572D01*
X183605970Y-100545671D01*
X183595480Y-100567850D01*
X183582868Y-100588893D01*
X183568253Y-100608599D01*
X183551777Y-100626777D01*
X183533599Y-100643253D01*
X183513893Y-100657868D01*
X183492850Y-100670480D01*
X183470671Y-100680970D01*
X183447572Y-100689235D01*
X183423773Y-100695196D01*
X183399505Y-100698796D01*
X183375001Y-100700000D01*
X182724999Y-100700000D01*
X182700495Y-100698796D01*
X182676227Y-100695196D01*
X182652428Y-100689235D01*
X182629329Y-100680970D01*
X182607150Y-100670480D01*
X182586107Y-100657868D01*
X182566401Y-100643253D01*
X182548223Y-100626777D01*
X182531747Y-100608599D01*
X182517132Y-100588893D01*
X182504520Y-100567850D01*
X182494030Y-100545671D01*
X182485765Y-100522572D01*
X182479804Y-100498773D01*
X182476204Y-100474505D01*
X182475000Y-100450001D01*
X182475000Y-99549999D01*
X182476204Y-99525495D01*
X182479804Y-99501227D01*
X182485765Y-99477428D01*
X182494030Y-99454329D01*
X182504520Y-99432150D01*
X182517132Y-99411107D01*
X182531747Y-99391401D01*
X182548223Y-99373223D01*
X182566401Y-99356747D01*
X182586107Y-99342132D01*
X182607150Y-99329520D01*
X182629329Y-99319030D01*
X182652428Y-99310765D01*
X182676227Y-99304804D01*
X182700495Y-99301204D01*
X182724999Y-99300000D01*
X183375001Y-99300000D01*
X183399505Y-99301204D01*
X183399505Y-99301204D01*
G37*
D11*
X183050000Y-100000000D03*
D10*
G36*
X181349505Y-99301204D02*
X181373773Y-99304804D01*
X181397572Y-99310765D01*
X181420671Y-99319030D01*
X181442850Y-99329520D01*
X181463893Y-99342132D01*
X181483599Y-99356747D01*
X181501777Y-99373223D01*
X181518253Y-99391401D01*
X181532868Y-99411107D01*
X181545480Y-99432150D01*
X181555970Y-99454329D01*
X181564235Y-99477428D01*
X181570196Y-99501227D01*
X181573796Y-99525495D01*
X181575000Y-99549999D01*
X181575000Y-100450001D01*
X181573796Y-100474505D01*
X181570196Y-100498773D01*
X181564235Y-100522572D01*
X181555970Y-100545671D01*
X181545480Y-100567850D01*
X181532868Y-100588893D01*
X181518253Y-100608599D01*
X181501777Y-100626777D01*
X181483599Y-100643253D01*
X181463893Y-100657868D01*
X181442850Y-100670480D01*
X181420671Y-100680970D01*
X181397572Y-100689235D01*
X181373773Y-100695196D01*
X181349505Y-100698796D01*
X181325001Y-100700000D01*
X180674999Y-100700000D01*
X180650495Y-100698796D01*
X180626227Y-100695196D01*
X180602428Y-100689235D01*
X180579329Y-100680970D01*
X180557150Y-100670480D01*
X180536107Y-100657868D01*
X180516401Y-100643253D01*
X180498223Y-100626777D01*
X180481747Y-100608599D01*
X180467132Y-100588893D01*
X180454520Y-100567850D01*
X180444030Y-100545671D01*
X180435765Y-100522572D01*
X180429804Y-100498773D01*
X180426204Y-100474505D01*
X180425000Y-100450001D01*
X180425000Y-99549999D01*
X180426204Y-99525495D01*
X180429804Y-99501227D01*
X180435765Y-99477428D01*
X180444030Y-99454329D01*
X180454520Y-99432150D01*
X180467132Y-99411107D01*
X180481747Y-99391401D01*
X180498223Y-99373223D01*
X180516401Y-99356747D01*
X180536107Y-99342132D01*
X180557150Y-99329520D01*
X180579329Y-99319030D01*
X180602428Y-99310765D01*
X180626227Y-99304804D01*
X180650495Y-99301204D01*
X180674999Y-99300000D01*
X181325001Y-99300000D01*
X181349505Y-99301204D01*
X181349505Y-99301204D01*
G37*
D11*
X181000000Y-100000000D03*
D10*
G36*
X183374505Y-93301204D02*
X183398773Y-93304804D01*
X183422572Y-93310765D01*
X183445671Y-93319030D01*
X183467850Y-93329520D01*
X183488893Y-93342132D01*
X183508599Y-93356747D01*
X183526777Y-93373223D01*
X183543253Y-93391401D01*
X183557868Y-93411107D01*
X183570480Y-93432150D01*
X183580970Y-93454329D01*
X183589235Y-93477428D01*
X183595196Y-93501227D01*
X183598796Y-93525495D01*
X183600000Y-93549999D01*
X183600000Y-94450001D01*
X183598796Y-94474505D01*
X183595196Y-94498773D01*
X183589235Y-94522572D01*
X183580970Y-94545671D01*
X183570480Y-94567850D01*
X183557868Y-94588893D01*
X183543253Y-94608599D01*
X183526777Y-94626777D01*
X183508599Y-94643253D01*
X183488893Y-94657868D01*
X183467850Y-94670480D01*
X183445671Y-94680970D01*
X183422572Y-94689235D01*
X183398773Y-94695196D01*
X183374505Y-94698796D01*
X183350001Y-94700000D01*
X182699999Y-94700000D01*
X182675495Y-94698796D01*
X182651227Y-94695196D01*
X182627428Y-94689235D01*
X182604329Y-94680970D01*
X182582150Y-94670480D01*
X182561107Y-94657868D01*
X182541401Y-94643253D01*
X182523223Y-94626777D01*
X182506747Y-94608599D01*
X182492132Y-94588893D01*
X182479520Y-94567850D01*
X182469030Y-94545671D01*
X182460765Y-94522572D01*
X182454804Y-94498773D01*
X182451204Y-94474505D01*
X182450000Y-94450001D01*
X182450000Y-93549999D01*
X182451204Y-93525495D01*
X182454804Y-93501227D01*
X182460765Y-93477428D01*
X182469030Y-93454329D01*
X182479520Y-93432150D01*
X182492132Y-93411107D01*
X182506747Y-93391401D01*
X182523223Y-93373223D01*
X182541401Y-93356747D01*
X182561107Y-93342132D01*
X182582150Y-93329520D01*
X182604329Y-93319030D01*
X182627428Y-93310765D01*
X182651227Y-93304804D01*
X182675495Y-93301204D01*
X182699999Y-93300000D01*
X183350001Y-93300000D01*
X183374505Y-93301204D01*
X183374505Y-93301204D01*
G37*
D11*
X183025000Y-94000000D03*
D10*
G36*
X181324505Y-93301204D02*
X181348773Y-93304804D01*
X181372572Y-93310765D01*
X181395671Y-93319030D01*
X181417850Y-93329520D01*
X181438893Y-93342132D01*
X181458599Y-93356747D01*
X181476777Y-93373223D01*
X181493253Y-93391401D01*
X181507868Y-93411107D01*
X181520480Y-93432150D01*
X181530970Y-93454329D01*
X181539235Y-93477428D01*
X181545196Y-93501227D01*
X181548796Y-93525495D01*
X181550000Y-93549999D01*
X181550000Y-94450001D01*
X181548796Y-94474505D01*
X181545196Y-94498773D01*
X181539235Y-94522572D01*
X181530970Y-94545671D01*
X181520480Y-94567850D01*
X181507868Y-94588893D01*
X181493253Y-94608599D01*
X181476777Y-94626777D01*
X181458599Y-94643253D01*
X181438893Y-94657868D01*
X181417850Y-94670480D01*
X181395671Y-94680970D01*
X181372572Y-94689235D01*
X181348773Y-94695196D01*
X181324505Y-94698796D01*
X181300001Y-94700000D01*
X180649999Y-94700000D01*
X180625495Y-94698796D01*
X180601227Y-94695196D01*
X180577428Y-94689235D01*
X180554329Y-94680970D01*
X180532150Y-94670480D01*
X180511107Y-94657868D01*
X180491401Y-94643253D01*
X180473223Y-94626777D01*
X180456747Y-94608599D01*
X180442132Y-94588893D01*
X180429520Y-94567850D01*
X180419030Y-94545671D01*
X180410765Y-94522572D01*
X180404804Y-94498773D01*
X180401204Y-94474505D01*
X180400000Y-94450001D01*
X180400000Y-93549999D01*
X180401204Y-93525495D01*
X180404804Y-93501227D01*
X180410765Y-93477428D01*
X180419030Y-93454329D01*
X180429520Y-93432150D01*
X180442132Y-93411107D01*
X180456747Y-93391401D01*
X180473223Y-93373223D01*
X180491401Y-93356747D01*
X180511107Y-93342132D01*
X180532150Y-93329520D01*
X180554329Y-93319030D01*
X180577428Y-93310765D01*
X180601227Y-93304804D01*
X180625495Y-93301204D01*
X180649999Y-93300000D01*
X181300001Y-93300000D01*
X181324505Y-93301204D01*
X181324505Y-93301204D01*
G37*
D11*
X180975000Y-94000000D03*
D10*
G36*
X135174505Y-99081204D02*
X135198773Y-99084804D01*
X135222572Y-99090765D01*
X135245671Y-99099030D01*
X135267850Y-99109520D01*
X135288893Y-99122132D01*
X135308599Y-99136747D01*
X135326777Y-99153223D01*
X135343253Y-99171401D01*
X135357868Y-99191107D01*
X135370480Y-99212150D01*
X135380970Y-99234329D01*
X135389235Y-99257428D01*
X135395196Y-99281227D01*
X135398796Y-99305495D01*
X135400000Y-99329999D01*
X135400000Y-100230001D01*
X135398796Y-100254505D01*
X135395196Y-100278773D01*
X135389235Y-100302572D01*
X135380970Y-100325671D01*
X135370480Y-100347850D01*
X135357868Y-100368893D01*
X135343253Y-100388599D01*
X135326777Y-100406777D01*
X135308599Y-100423253D01*
X135288893Y-100437868D01*
X135267850Y-100450480D01*
X135245671Y-100460970D01*
X135222572Y-100469235D01*
X135198773Y-100475196D01*
X135174505Y-100478796D01*
X135150001Y-100480000D01*
X134499999Y-100480000D01*
X134475495Y-100478796D01*
X134451227Y-100475196D01*
X134427428Y-100469235D01*
X134404329Y-100460970D01*
X134382150Y-100450480D01*
X134361107Y-100437868D01*
X134341401Y-100423253D01*
X134323223Y-100406777D01*
X134306747Y-100388599D01*
X134292132Y-100368893D01*
X134279520Y-100347850D01*
X134269030Y-100325671D01*
X134260765Y-100302572D01*
X134254804Y-100278773D01*
X134251204Y-100254505D01*
X134250000Y-100230001D01*
X134250000Y-99329999D01*
X134251204Y-99305495D01*
X134254804Y-99281227D01*
X134260765Y-99257428D01*
X134269030Y-99234329D01*
X134279520Y-99212150D01*
X134292132Y-99191107D01*
X134306747Y-99171401D01*
X134323223Y-99153223D01*
X134341401Y-99136747D01*
X134361107Y-99122132D01*
X134382150Y-99109520D01*
X134404329Y-99099030D01*
X134427428Y-99090765D01*
X134451227Y-99084804D01*
X134475495Y-99081204D01*
X134499999Y-99080000D01*
X135150001Y-99080000D01*
X135174505Y-99081204D01*
X135174505Y-99081204D01*
G37*
D11*
X134825000Y-99780000D03*
D10*
G36*
X133124505Y-99081204D02*
X133148773Y-99084804D01*
X133172572Y-99090765D01*
X133195671Y-99099030D01*
X133217850Y-99109520D01*
X133238893Y-99122132D01*
X133258599Y-99136747D01*
X133276777Y-99153223D01*
X133293253Y-99171401D01*
X133307868Y-99191107D01*
X133320480Y-99212150D01*
X133330970Y-99234329D01*
X133339235Y-99257428D01*
X133345196Y-99281227D01*
X133348796Y-99305495D01*
X133350000Y-99329999D01*
X133350000Y-100230001D01*
X133348796Y-100254505D01*
X133345196Y-100278773D01*
X133339235Y-100302572D01*
X133330970Y-100325671D01*
X133320480Y-100347850D01*
X133307868Y-100368893D01*
X133293253Y-100388599D01*
X133276777Y-100406777D01*
X133258599Y-100423253D01*
X133238893Y-100437868D01*
X133217850Y-100450480D01*
X133195671Y-100460970D01*
X133172572Y-100469235D01*
X133148773Y-100475196D01*
X133124505Y-100478796D01*
X133100001Y-100480000D01*
X132449999Y-100480000D01*
X132425495Y-100478796D01*
X132401227Y-100475196D01*
X132377428Y-100469235D01*
X132354329Y-100460970D01*
X132332150Y-100450480D01*
X132311107Y-100437868D01*
X132291401Y-100423253D01*
X132273223Y-100406777D01*
X132256747Y-100388599D01*
X132242132Y-100368893D01*
X132229520Y-100347850D01*
X132219030Y-100325671D01*
X132210765Y-100302572D01*
X132204804Y-100278773D01*
X132201204Y-100254505D01*
X132200000Y-100230001D01*
X132200000Y-99329999D01*
X132201204Y-99305495D01*
X132204804Y-99281227D01*
X132210765Y-99257428D01*
X132219030Y-99234329D01*
X132229520Y-99212150D01*
X132242132Y-99191107D01*
X132256747Y-99171401D01*
X132273223Y-99153223D01*
X132291401Y-99136747D01*
X132311107Y-99122132D01*
X132332150Y-99109520D01*
X132354329Y-99099030D01*
X132377428Y-99090765D01*
X132401227Y-99084804D01*
X132425495Y-99081204D01*
X132449999Y-99080000D01*
X133100001Y-99080000D01*
X133124505Y-99081204D01*
X133124505Y-99081204D01*
G37*
D11*
X132775000Y-99780000D03*
D10*
G36*
X184824505Y-61301204D02*
X184848773Y-61304804D01*
X184872572Y-61310765D01*
X184895671Y-61319030D01*
X184917850Y-61329520D01*
X184938893Y-61342132D01*
X184958599Y-61356747D01*
X184976777Y-61373223D01*
X184993253Y-61391401D01*
X185007868Y-61411107D01*
X185020480Y-61432150D01*
X185030970Y-61454329D01*
X185039235Y-61477428D01*
X185045196Y-61501227D01*
X185048796Y-61525495D01*
X185050000Y-61549999D01*
X185050000Y-62450001D01*
X185048796Y-62474505D01*
X185045196Y-62498773D01*
X185039235Y-62522572D01*
X185030970Y-62545671D01*
X185020480Y-62567850D01*
X185007868Y-62588893D01*
X184993253Y-62608599D01*
X184976777Y-62626777D01*
X184958599Y-62643253D01*
X184938893Y-62657868D01*
X184917850Y-62670480D01*
X184895671Y-62680970D01*
X184872572Y-62689235D01*
X184848773Y-62695196D01*
X184824505Y-62698796D01*
X184800001Y-62700000D01*
X184149999Y-62700000D01*
X184125495Y-62698796D01*
X184101227Y-62695196D01*
X184077428Y-62689235D01*
X184054329Y-62680970D01*
X184032150Y-62670480D01*
X184011107Y-62657868D01*
X183991401Y-62643253D01*
X183973223Y-62626777D01*
X183956747Y-62608599D01*
X183942132Y-62588893D01*
X183929520Y-62567850D01*
X183919030Y-62545671D01*
X183910765Y-62522572D01*
X183904804Y-62498773D01*
X183901204Y-62474505D01*
X183900000Y-62450001D01*
X183900000Y-61549999D01*
X183901204Y-61525495D01*
X183904804Y-61501227D01*
X183910765Y-61477428D01*
X183919030Y-61454329D01*
X183929520Y-61432150D01*
X183942132Y-61411107D01*
X183956747Y-61391401D01*
X183973223Y-61373223D01*
X183991401Y-61356747D01*
X184011107Y-61342132D01*
X184032150Y-61329520D01*
X184054329Y-61319030D01*
X184077428Y-61310765D01*
X184101227Y-61304804D01*
X184125495Y-61301204D01*
X184149999Y-61300000D01*
X184800001Y-61300000D01*
X184824505Y-61301204D01*
X184824505Y-61301204D01*
G37*
D11*
X184475000Y-62000000D03*
D10*
G36*
X186874505Y-61301204D02*
X186898773Y-61304804D01*
X186922572Y-61310765D01*
X186945671Y-61319030D01*
X186967850Y-61329520D01*
X186988893Y-61342132D01*
X187008599Y-61356747D01*
X187026777Y-61373223D01*
X187043253Y-61391401D01*
X187057868Y-61411107D01*
X187070480Y-61432150D01*
X187080970Y-61454329D01*
X187089235Y-61477428D01*
X187095196Y-61501227D01*
X187098796Y-61525495D01*
X187100000Y-61549999D01*
X187100000Y-62450001D01*
X187098796Y-62474505D01*
X187095196Y-62498773D01*
X187089235Y-62522572D01*
X187080970Y-62545671D01*
X187070480Y-62567850D01*
X187057868Y-62588893D01*
X187043253Y-62608599D01*
X187026777Y-62626777D01*
X187008599Y-62643253D01*
X186988893Y-62657868D01*
X186967850Y-62670480D01*
X186945671Y-62680970D01*
X186922572Y-62689235D01*
X186898773Y-62695196D01*
X186874505Y-62698796D01*
X186850001Y-62700000D01*
X186199999Y-62700000D01*
X186175495Y-62698796D01*
X186151227Y-62695196D01*
X186127428Y-62689235D01*
X186104329Y-62680970D01*
X186082150Y-62670480D01*
X186061107Y-62657868D01*
X186041401Y-62643253D01*
X186023223Y-62626777D01*
X186006747Y-62608599D01*
X185992132Y-62588893D01*
X185979520Y-62567850D01*
X185969030Y-62545671D01*
X185960765Y-62522572D01*
X185954804Y-62498773D01*
X185951204Y-62474505D01*
X185950000Y-62450001D01*
X185950000Y-61549999D01*
X185951204Y-61525495D01*
X185954804Y-61501227D01*
X185960765Y-61477428D01*
X185969030Y-61454329D01*
X185979520Y-61432150D01*
X185992132Y-61411107D01*
X186006747Y-61391401D01*
X186023223Y-61373223D01*
X186041401Y-61356747D01*
X186061107Y-61342132D01*
X186082150Y-61329520D01*
X186104329Y-61319030D01*
X186127428Y-61310765D01*
X186151227Y-61304804D01*
X186175495Y-61301204D01*
X186199999Y-61300000D01*
X186850001Y-61300000D01*
X186874505Y-61301204D01*
X186874505Y-61301204D01*
G37*
D11*
X186525000Y-62000000D03*
D10*
G36*
X184824505Y-40301204D02*
X184848773Y-40304804D01*
X184872572Y-40310765D01*
X184895671Y-40319030D01*
X184917850Y-40329520D01*
X184938893Y-40342132D01*
X184958599Y-40356747D01*
X184976777Y-40373223D01*
X184993253Y-40391401D01*
X185007868Y-40411107D01*
X185020480Y-40432150D01*
X185030970Y-40454329D01*
X185039235Y-40477428D01*
X185045196Y-40501227D01*
X185048796Y-40525495D01*
X185050000Y-40549999D01*
X185050000Y-41450001D01*
X185048796Y-41474505D01*
X185045196Y-41498773D01*
X185039235Y-41522572D01*
X185030970Y-41545671D01*
X185020480Y-41567850D01*
X185007868Y-41588893D01*
X184993253Y-41608599D01*
X184976777Y-41626777D01*
X184958599Y-41643253D01*
X184938893Y-41657868D01*
X184917850Y-41670480D01*
X184895671Y-41680970D01*
X184872572Y-41689235D01*
X184848773Y-41695196D01*
X184824505Y-41698796D01*
X184800001Y-41700000D01*
X184149999Y-41700000D01*
X184125495Y-41698796D01*
X184101227Y-41695196D01*
X184077428Y-41689235D01*
X184054329Y-41680970D01*
X184032150Y-41670480D01*
X184011107Y-41657868D01*
X183991401Y-41643253D01*
X183973223Y-41626777D01*
X183956747Y-41608599D01*
X183942132Y-41588893D01*
X183929520Y-41567850D01*
X183919030Y-41545671D01*
X183910765Y-41522572D01*
X183904804Y-41498773D01*
X183901204Y-41474505D01*
X183900000Y-41450001D01*
X183900000Y-40549999D01*
X183901204Y-40525495D01*
X183904804Y-40501227D01*
X183910765Y-40477428D01*
X183919030Y-40454329D01*
X183929520Y-40432150D01*
X183942132Y-40411107D01*
X183956747Y-40391401D01*
X183973223Y-40373223D01*
X183991401Y-40356747D01*
X184011107Y-40342132D01*
X184032150Y-40329520D01*
X184054329Y-40319030D01*
X184077428Y-40310765D01*
X184101227Y-40304804D01*
X184125495Y-40301204D01*
X184149999Y-40300000D01*
X184800001Y-40300000D01*
X184824505Y-40301204D01*
X184824505Y-40301204D01*
G37*
D11*
X184475000Y-41000000D03*
D10*
G36*
X186874505Y-40301204D02*
X186898773Y-40304804D01*
X186922572Y-40310765D01*
X186945671Y-40319030D01*
X186967850Y-40329520D01*
X186988893Y-40342132D01*
X187008599Y-40356747D01*
X187026777Y-40373223D01*
X187043253Y-40391401D01*
X187057868Y-40411107D01*
X187070480Y-40432150D01*
X187080970Y-40454329D01*
X187089235Y-40477428D01*
X187095196Y-40501227D01*
X187098796Y-40525495D01*
X187100000Y-40549999D01*
X187100000Y-41450001D01*
X187098796Y-41474505D01*
X187095196Y-41498773D01*
X187089235Y-41522572D01*
X187080970Y-41545671D01*
X187070480Y-41567850D01*
X187057868Y-41588893D01*
X187043253Y-41608599D01*
X187026777Y-41626777D01*
X187008599Y-41643253D01*
X186988893Y-41657868D01*
X186967850Y-41670480D01*
X186945671Y-41680970D01*
X186922572Y-41689235D01*
X186898773Y-41695196D01*
X186874505Y-41698796D01*
X186850001Y-41700000D01*
X186199999Y-41700000D01*
X186175495Y-41698796D01*
X186151227Y-41695196D01*
X186127428Y-41689235D01*
X186104329Y-41680970D01*
X186082150Y-41670480D01*
X186061107Y-41657868D01*
X186041401Y-41643253D01*
X186023223Y-41626777D01*
X186006747Y-41608599D01*
X185992132Y-41588893D01*
X185979520Y-41567850D01*
X185969030Y-41545671D01*
X185960765Y-41522572D01*
X185954804Y-41498773D01*
X185951204Y-41474505D01*
X185950000Y-41450001D01*
X185950000Y-40549999D01*
X185951204Y-40525495D01*
X185954804Y-40501227D01*
X185960765Y-40477428D01*
X185969030Y-40454329D01*
X185979520Y-40432150D01*
X185992132Y-40411107D01*
X186006747Y-40391401D01*
X186023223Y-40373223D01*
X186041401Y-40356747D01*
X186061107Y-40342132D01*
X186082150Y-40329520D01*
X186104329Y-40319030D01*
X186127428Y-40310765D01*
X186151227Y-40304804D01*
X186175495Y-40301204D01*
X186199999Y-40300000D01*
X186850001Y-40300000D01*
X186874505Y-40301204D01*
X186874505Y-40301204D01*
G37*
D11*
X186525000Y-41000000D03*
D10*
G36*
X108874505Y-40301204D02*
X108898773Y-40304804D01*
X108922572Y-40310765D01*
X108945671Y-40319030D01*
X108967850Y-40329520D01*
X108988893Y-40342132D01*
X109008599Y-40356747D01*
X109026777Y-40373223D01*
X109043253Y-40391401D01*
X109057868Y-40411107D01*
X109070480Y-40432150D01*
X109080970Y-40454329D01*
X109089235Y-40477428D01*
X109095196Y-40501227D01*
X109098796Y-40525495D01*
X109100000Y-40549999D01*
X109100000Y-41450001D01*
X109098796Y-41474505D01*
X109095196Y-41498773D01*
X109089235Y-41522572D01*
X109080970Y-41545671D01*
X109070480Y-41567850D01*
X109057868Y-41588893D01*
X109043253Y-41608599D01*
X109026777Y-41626777D01*
X109008599Y-41643253D01*
X108988893Y-41657868D01*
X108967850Y-41670480D01*
X108945671Y-41680970D01*
X108922572Y-41689235D01*
X108898773Y-41695196D01*
X108874505Y-41698796D01*
X108850001Y-41700000D01*
X108199999Y-41700000D01*
X108175495Y-41698796D01*
X108151227Y-41695196D01*
X108127428Y-41689235D01*
X108104329Y-41680970D01*
X108082150Y-41670480D01*
X108061107Y-41657868D01*
X108041401Y-41643253D01*
X108023223Y-41626777D01*
X108006747Y-41608599D01*
X107992132Y-41588893D01*
X107979520Y-41567850D01*
X107969030Y-41545671D01*
X107960765Y-41522572D01*
X107954804Y-41498773D01*
X107951204Y-41474505D01*
X107950000Y-41450001D01*
X107950000Y-40549999D01*
X107951204Y-40525495D01*
X107954804Y-40501227D01*
X107960765Y-40477428D01*
X107969030Y-40454329D01*
X107979520Y-40432150D01*
X107992132Y-40411107D01*
X108006747Y-40391401D01*
X108023223Y-40373223D01*
X108041401Y-40356747D01*
X108061107Y-40342132D01*
X108082150Y-40329520D01*
X108104329Y-40319030D01*
X108127428Y-40310765D01*
X108151227Y-40304804D01*
X108175495Y-40301204D01*
X108199999Y-40300000D01*
X108850001Y-40300000D01*
X108874505Y-40301204D01*
X108874505Y-40301204D01*
G37*
D11*
X108525000Y-41000000D03*
D10*
G36*
X106824505Y-40301204D02*
X106848773Y-40304804D01*
X106872572Y-40310765D01*
X106895671Y-40319030D01*
X106917850Y-40329520D01*
X106938893Y-40342132D01*
X106958599Y-40356747D01*
X106976777Y-40373223D01*
X106993253Y-40391401D01*
X107007868Y-40411107D01*
X107020480Y-40432150D01*
X107030970Y-40454329D01*
X107039235Y-40477428D01*
X107045196Y-40501227D01*
X107048796Y-40525495D01*
X107050000Y-40549999D01*
X107050000Y-41450001D01*
X107048796Y-41474505D01*
X107045196Y-41498773D01*
X107039235Y-41522572D01*
X107030970Y-41545671D01*
X107020480Y-41567850D01*
X107007868Y-41588893D01*
X106993253Y-41608599D01*
X106976777Y-41626777D01*
X106958599Y-41643253D01*
X106938893Y-41657868D01*
X106917850Y-41670480D01*
X106895671Y-41680970D01*
X106872572Y-41689235D01*
X106848773Y-41695196D01*
X106824505Y-41698796D01*
X106800001Y-41700000D01*
X106149999Y-41700000D01*
X106125495Y-41698796D01*
X106101227Y-41695196D01*
X106077428Y-41689235D01*
X106054329Y-41680970D01*
X106032150Y-41670480D01*
X106011107Y-41657868D01*
X105991401Y-41643253D01*
X105973223Y-41626777D01*
X105956747Y-41608599D01*
X105942132Y-41588893D01*
X105929520Y-41567850D01*
X105919030Y-41545671D01*
X105910765Y-41522572D01*
X105904804Y-41498773D01*
X105901204Y-41474505D01*
X105900000Y-41450001D01*
X105900000Y-40549999D01*
X105901204Y-40525495D01*
X105904804Y-40501227D01*
X105910765Y-40477428D01*
X105919030Y-40454329D01*
X105929520Y-40432150D01*
X105942132Y-40411107D01*
X105956747Y-40391401D01*
X105973223Y-40373223D01*
X105991401Y-40356747D01*
X106011107Y-40342132D01*
X106032150Y-40329520D01*
X106054329Y-40319030D01*
X106077428Y-40310765D01*
X106101227Y-40304804D01*
X106125495Y-40301204D01*
X106149999Y-40300000D01*
X106800001Y-40300000D01*
X106824505Y-40301204D01*
X106824505Y-40301204D01*
G37*
D11*
X106475000Y-41000000D03*
D10*
G36*
X106799505Y-61301204D02*
X106823773Y-61304804D01*
X106847572Y-61310765D01*
X106870671Y-61319030D01*
X106892850Y-61329520D01*
X106913893Y-61342132D01*
X106933599Y-61356747D01*
X106951777Y-61373223D01*
X106968253Y-61391401D01*
X106982868Y-61411107D01*
X106995480Y-61432150D01*
X107005970Y-61454329D01*
X107014235Y-61477428D01*
X107020196Y-61501227D01*
X107023796Y-61525495D01*
X107025000Y-61549999D01*
X107025000Y-62450001D01*
X107023796Y-62474505D01*
X107020196Y-62498773D01*
X107014235Y-62522572D01*
X107005970Y-62545671D01*
X106995480Y-62567850D01*
X106982868Y-62588893D01*
X106968253Y-62608599D01*
X106951777Y-62626777D01*
X106933599Y-62643253D01*
X106913893Y-62657868D01*
X106892850Y-62670480D01*
X106870671Y-62680970D01*
X106847572Y-62689235D01*
X106823773Y-62695196D01*
X106799505Y-62698796D01*
X106775001Y-62700000D01*
X106124999Y-62700000D01*
X106100495Y-62698796D01*
X106076227Y-62695196D01*
X106052428Y-62689235D01*
X106029329Y-62680970D01*
X106007150Y-62670480D01*
X105986107Y-62657868D01*
X105966401Y-62643253D01*
X105948223Y-62626777D01*
X105931747Y-62608599D01*
X105917132Y-62588893D01*
X105904520Y-62567850D01*
X105894030Y-62545671D01*
X105885765Y-62522572D01*
X105879804Y-62498773D01*
X105876204Y-62474505D01*
X105875000Y-62450001D01*
X105875000Y-61549999D01*
X105876204Y-61525495D01*
X105879804Y-61501227D01*
X105885765Y-61477428D01*
X105894030Y-61454329D01*
X105904520Y-61432150D01*
X105917132Y-61411107D01*
X105931747Y-61391401D01*
X105948223Y-61373223D01*
X105966401Y-61356747D01*
X105986107Y-61342132D01*
X106007150Y-61329520D01*
X106029329Y-61319030D01*
X106052428Y-61310765D01*
X106076227Y-61304804D01*
X106100495Y-61301204D01*
X106124999Y-61300000D01*
X106775001Y-61300000D01*
X106799505Y-61301204D01*
X106799505Y-61301204D01*
G37*
D11*
X106450000Y-62000000D03*
D10*
G36*
X108849505Y-61301204D02*
X108873773Y-61304804D01*
X108897572Y-61310765D01*
X108920671Y-61319030D01*
X108942850Y-61329520D01*
X108963893Y-61342132D01*
X108983599Y-61356747D01*
X109001777Y-61373223D01*
X109018253Y-61391401D01*
X109032868Y-61411107D01*
X109045480Y-61432150D01*
X109055970Y-61454329D01*
X109064235Y-61477428D01*
X109070196Y-61501227D01*
X109073796Y-61525495D01*
X109075000Y-61549999D01*
X109075000Y-62450001D01*
X109073796Y-62474505D01*
X109070196Y-62498773D01*
X109064235Y-62522572D01*
X109055970Y-62545671D01*
X109045480Y-62567850D01*
X109032868Y-62588893D01*
X109018253Y-62608599D01*
X109001777Y-62626777D01*
X108983599Y-62643253D01*
X108963893Y-62657868D01*
X108942850Y-62670480D01*
X108920671Y-62680970D01*
X108897572Y-62689235D01*
X108873773Y-62695196D01*
X108849505Y-62698796D01*
X108825001Y-62700000D01*
X108174999Y-62700000D01*
X108150495Y-62698796D01*
X108126227Y-62695196D01*
X108102428Y-62689235D01*
X108079329Y-62680970D01*
X108057150Y-62670480D01*
X108036107Y-62657868D01*
X108016401Y-62643253D01*
X107998223Y-62626777D01*
X107981747Y-62608599D01*
X107967132Y-62588893D01*
X107954520Y-62567850D01*
X107944030Y-62545671D01*
X107935765Y-62522572D01*
X107929804Y-62498773D01*
X107926204Y-62474505D01*
X107925000Y-62450001D01*
X107925000Y-61549999D01*
X107926204Y-61525495D01*
X107929804Y-61501227D01*
X107935765Y-61477428D01*
X107944030Y-61454329D01*
X107954520Y-61432150D01*
X107967132Y-61411107D01*
X107981747Y-61391401D01*
X107998223Y-61373223D01*
X108016401Y-61356747D01*
X108036107Y-61342132D01*
X108057150Y-61329520D01*
X108079329Y-61319030D01*
X108102428Y-61310765D01*
X108126227Y-61304804D01*
X108150495Y-61301204D01*
X108174999Y-61300000D01*
X108825001Y-61300000D01*
X108849505Y-61301204D01*
X108849505Y-61301204D01*
G37*
D11*
X108500000Y-62000000D03*
D10*
G36*
X108874505Y-81801204D02*
X108898773Y-81804804D01*
X108922572Y-81810765D01*
X108945671Y-81819030D01*
X108967850Y-81829520D01*
X108988893Y-81842132D01*
X109008599Y-81856747D01*
X109026777Y-81873223D01*
X109043253Y-81891401D01*
X109057868Y-81911107D01*
X109070480Y-81932150D01*
X109080970Y-81954329D01*
X109089235Y-81977428D01*
X109095196Y-82001227D01*
X109098796Y-82025495D01*
X109100000Y-82049999D01*
X109100000Y-82950001D01*
X109098796Y-82974505D01*
X109095196Y-82998773D01*
X109089235Y-83022572D01*
X109080970Y-83045671D01*
X109070480Y-83067850D01*
X109057868Y-83088893D01*
X109043253Y-83108599D01*
X109026777Y-83126777D01*
X109008599Y-83143253D01*
X108988893Y-83157868D01*
X108967850Y-83170480D01*
X108945671Y-83180970D01*
X108922572Y-83189235D01*
X108898773Y-83195196D01*
X108874505Y-83198796D01*
X108850001Y-83200000D01*
X108199999Y-83200000D01*
X108175495Y-83198796D01*
X108151227Y-83195196D01*
X108127428Y-83189235D01*
X108104329Y-83180970D01*
X108082150Y-83170480D01*
X108061107Y-83157868D01*
X108041401Y-83143253D01*
X108023223Y-83126777D01*
X108006747Y-83108599D01*
X107992132Y-83088893D01*
X107979520Y-83067850D01*
X107969030Y-83045671D01*
X107960765Y-83022572D01*
X107954804Y-82998773D01*
X107951204Y-82974505D01*
X107950000Y-82950001D01*
X107950000Y-82049999D01*
X107951204Y-82025495D01*
X107954804Y-82001227D01*
X107960765Y-81977428D01*
X107969030Y-81954329D01*
X107979520Y-81932150D01*
X107992132Y-81911107D01*
X108006747Y-81891401D01*
X108023223Y-81873223D01*
X108041401Y-81856747D01*
X108061107Y-81842132D01*
X108082150Y-81829520D01*
X108104329Y-81819030D01*
X108127428Y-81810765D01*
X108151227Y-81804804D01*
X108175495Y-81801204D01*
X108199999Y-81800000D01*
X108850001Y-81800000D01*
X108874505Y-81801204D01*
X108874505Y-81801204D01*
G37*
D11*
X108525000Y-82500000D03*
D10*
G36*
X106824505Y-81801204D02*
X106848773Y-81804804D01*
X106872572Y-81810765D01*
X106895671Y-81819030D01*
X106917850Y-81829520D01*
X106938893Y-81842132D01*
X106958599Y-81856747D01*
X106976777Y-81873223D01*
X106993253Y-81891401D01*
X107007868Y-81911107D01*
X107020480Y-81932150D01*
X107030970Y-81954329D01*
X107039235Y-81977428D01*
X107045196Y-82001227D01*
X107048796Y-82025495D01*
X107050000Y-82049999D01*
X107050000Y-82950001D01*
X107048796Y-82974505D01*
X107045196Y-82998773D01*
X107039235Y-83022572D01*
X107030970Y-83045671D01*
X107020480Y-83067850D01*
X107007868Y-83088893D01*
X106993253Y-83108599D01*
X106976777Y-83126777D01*
X106958599Y-83143253D01*
X106938893Y-83157868D01*
X106917850Y-83170480D01*
X106895671Y-83180970D01*
X106872572Y-83189235D01*
X106848773Y-83195196D01*
X106824505Y-83198796D01*
X106800001Y-83200000D01*
X106149999Y-83200000D01*
X106125495Y-83198796D01*
X106101227Y-83195196D01*
X106077428Y-83189235D01*
X106054329Y-83180970D01*
X106032150Y-83170480D01*
X106011107Y-83157868D01*
X105991401Y-83143253D01*
X105973223Y-83126777D01*
X105956747Y-83108599D01*
X105942132Y-83088893D01*
X105929520Y-83067850D01*
X105919030Y-83045671D01*
X105910765Y-83022572D01*
X105904804Y-82998773D01*
X105901204Y-82974505D01*
X105900000Y-82950001D01*
X105900000Y-82049999D01*
X105901204Y-82025495D01*
X105904804Y-82001227D01*
X105910765Y-81977428D01*
X105919030Y-81954329D01*
X105929520Y-81932150D01*
X105942132Y-81911107D01*
X105956747Y-81891401D01*
X105973223Y-81873223D01*
X105991401Y-81856747D01*
X106011107Y-81842132D01*
X106032150Y-81829520D01*
X106054329Y-81819030D01*
X106077428Y-81810765D01*
X106101227Y-81804804D01*
X106125495Y-81801204D01*
X106149999Y-81800000D01*
X106800001Y-81800000D01*
X106824505Y-81801204D01*
X106824505Y-81801204D01*
G37*
D11*
X106475000Y-82500000D03*
D10*
G36*
X106824505Y-138301204D02*
X106848773Y-138304804D01*
X106872572Y-138310765D01*
X106895671Y-138319030D01*
X106917850Y-138329520D01*
X106938893Y-138342132D01*
X106958599Y-138356747D01*
X106976777Y-138373223D01*
X106993253Y-138391401D01*
X107007868Y-138411107D01*
X107020480Y-138432150D01*
X107030970Y-138454329D01*
X107039235Y-138477428D01*
X107045196Y-138501227D01*
X107048796Y-138525495D01*
X107050000Y-138549999D01*
X107050000Y-139450001D01*
X107048796Y-139474505D01*
X107045196Y-139498773D01*
X107039235Y-139522572D01*
X107030970Y-139545671D01*
X107020480Y-139567850D01*
X107007868Y-139588893D01*
X106993253Y-139608599D01*
X106976777Y-139626777D01*
X106958599Y-139643253D01*
X106938893Y-139657868D01*
X106917850Y-139670480D01*
X106895671Y-139680970D01*
X106872572Y-139689235D01*
X106848773Y-139695196D01*
X106824505Y-139698796D01*
X106800001Y-139700000D01*
X106149999Y-139700000D01*
X106125495Y-139698796D01*
X106101227Y-139695196D01*
X106077428Y-139689235D01*
X106054329Y-139680970D01*
X106032150Y-139670480D01*
X106011107Y-139657868D01*
X105991401Y-139643253D01*
X105973223Y-139626777D01*
X105956747Y-139608599D01*
X105942132Y-139588893D01*
X105929520Y-139567850D01*
X105919030Y-139545671D01*
X105910765Y-139522572D01*
X105904804Y-139498773D01*
X105901204Y-139474505D01*
X105900000Y-139450001D01*
X105900000Y-138549999D01*
X105901204Y-138525495D01*
X105904804Y-138501227D01*
X105910765Y-138477428D01*
X105919030Y-138454329D01*
X105929520Y-138432150D01*
X105942132Y-138411107D01*
X105956747Y-138391401D01*
X105973223Y-138373223D01*
X105991401Y-138356747D01*
X106011107Y-138342132D01*
X106032150Y-138329520D01*
X106054329Y-138319030D01*
X106077428Y-138310765D01*
X106101227Y-138304804D01*
X106125495Y-138301204D01*
X106149999Y-138300000D01*
X106800001Y-138300000D01*
X106824505Y-138301204D01*
X106824505Y-138301204D01*
G37*
D11*
X106475000Y-139000000D03*
D10*
G36*
X108874505Y-138301204D02*
X108898773Y-138304804D01*
X108922572Y-138310765D01*
X108945671Y-138319030D01*
X108967850Y-138329520D01*
X108988893Y-138342132D01*
X109008599Y-138356747D01*
X109026777Y-138373223D01*
X109043253Y-138391401D01*
X109057868Y-138411107D01*
X109070480Y-138432150D01*
X109080970Y-138454329D01*
X109089235Y-138477428D01*
X109095196Y-138501227D01*
X109098796Y-138525495D01*
X109100000Y-138549999D01*
X109100000Y-139450001D01*
X109098796Y-139474505D01*
X109095196Y-139498773D01*
X109089235Y-139522572D01*
X109080970Y-139545671D01*
X109070480Y-139567850D01*
X109057868Y-139588893D01*
X109043253Y-139608599D01*
X109026777Y-139626777D01*
X109008599Y-139643253D01*
X108988893Y-139657868D01*
X108967850Y-139670480D01*
X108945671Y-139680970D01*
X108922572Y-139689235D01*
X108898773Y-139695196D01*
X108874505Y-139698796D01*
X108850001Y-139700000D01*
X108199999Y-139700000D01*
X108175495Y-139698796D01*
X108151227Y-139695196D01*
X108127428Y-139689235D01*
X108104329Y-139680970D01*
X108082150Y-139670480D01*
X108061107Y-139657868D01*
X108041401Y-139643253D01*
X108023223Y-139626777D01*
X108006747Y-139608599D01*
X107992132Y-139588893D01*
X107979520Y-139567850D01*
X107969030Y-139545671D01*
X107960765Y-139522572D01*
X107954804Y-139498773D01*
X107951204Y-139474505D01*
X107950000Y-139450001D01*
X107950000Y-138549999D01*
X107951204Y-138525495D01*
X107954804Y-138501227D01*
X107960765Y-138477428D01*
X107969030Y-138454329D01*
X107979520Y-138432150D01*
X107992132Y-138411107D01*
X108006747Y-138391401D01*
X108023223Y-138373223D01*
X108041401Y-138356747D01*
X108061107Y-138342132D01*
X108082150Y-138329520D01*
X108104329Y-138319030D01*
X108127428Y-138310765D01*
X108151227Y-138304804D01*
X108175495Y-138301204D01*
X108199999Y-138300000D01*
X108850001Y-138300000D01*
X108874505Y-138301204D01*
X108874505Y-138301204D01*
G37*
D11*
X108525000Y-139000000D03*
D10*
G36*
X114324505Y-152301204D02*
X114348773Y-152304804D01*
X114372572Y-152310765D01*
X114395671Y-152319030D01*
X114417850Y-152329520D01*
X114438893Y-152342132D01*
X114458599Y-152356747D01*
X114476777Y-152373223D01*
X114493253Y-152391401D01*
X114507868Y-152411107D01*
X114520480Y-152432150D01*
X114530970Y-152454329D01*
X114539235Y-152477428D01*
X114545196Y-152501227D01*
X114548796Y-152525495D01*
X114550000Y-152549999D01*
X114550000Y-153450001D01*
X114548796Y-153474505D01*
X114545196Y-153498773D01*
X114539235Y-153522572D01*
X114530970Y-153545671D01*
X114520480Y-153567850D01*
X114507868Y-153588893D01*
X114493253Y-153608599D01*
X114476777Y-153626777D01*
X114458599Y-153643253D01*
X114438893Y-153657868D01*
X114417850Y-153670480D01*
X114395671Y-153680970D01*
X114372572Y-153689235D01*
X114348773Y-153695196D01*
X114324505Y-153698796D01*
X114300001Y-153700000D01*
X113649999Y-153700000D01*
X113625495Y-153698796D01*
X113601227Y-153695196D01*
X113577428Y-153689235D01*
X113554329Y-153680970D01*
X113532150Y-153670480D01*
X113511107Y-153657868D01*
X113491401Y-153643253D01*
X113473223Y-153626777D01*
X113456747Y-153608599D01*
X113442132Y-153588893D01*
X113429520Y-153567850D01*
X113419030Y-153545671D01*
X113410765Y-153522572D01*
X113404804Y-153498773D01*
X113401204Y-153474505D01*
X113400000Y-153450001D01*
X113400000Y-152549999D01*
X113401204Y-152525495D01*
X113404804Y-152501227D01*
X113410765Y-152477428D01*
X113419030Y-152454329D01*
X113429520Y-152432150D01*
X113442132Y-152411107D01*
X113456747Y-152391401D01*
X113473223Y-152373223D01*
X113491401Y-152356747D01*
X113511107Y-152342132D01*
X113532150Y-152329520D01*
X113554329Y-152319030D01*
X113577428Y-152310765D01*
X113601227Y-152304804D01*
X113625495Y-152301204D01*
X113649999Y-152300000D01*
X114300001Y-152300000D01*
X114324505Y-152301204D01*
X114324505Y-152301204D01*
G37*
D11*
X113975000Y-153000000D03*
D10*
G36*
X116374505Y-152301204D02*
X116398773Y-152304804D01*
X116422572Y-152310765D01*
X116445671Y-152319030D01*
X116467850Y-152329520D01*
X116488893Y-152342132D01*
X116508599Y-152356747D01*
X116526777Y-152373223D01*
X116543253Y-152391401D01*
X116557868Y-152411107D01*
X116570480Y-152432150D01*
X116580970Y-152454329D01*
X116589235Y-152477428D01*
X116595196Y-152501227D01*
X116598796Y-152525495D01*
X116600000Y-152549999D01*
X116600000Y-153450001D01*
X116598796Y-153474505D01*
X116595196Y-153498773D01*
X116589235Y-153522572D01*
X116580970Y-153545671D01*
X116570480Y-153567850D01*
X116557868Y-153588893D01*
X116543253Y-153608599D01*
X116526777Y-153626777D01*
X116508599Y-153643253D01*
X116488893Y-153657868D01*
X116467850Y-153670480D01*
X116445671Y-153680970D01*
X116422572Y-153689235D01*
X116398773Y-153695196D01*
X116374505Y-153698796D01*
X116350001Y-153700000D01*
X115699999Y-153700000D01*
X115675495Y-153698796D01*
X115651227Y-153695196D01*
X115627428Y-153689235D01*
X115604329Y-153680970D01*
X115582150Y-153670480D01*
X115561107Y-153657868D01*
X115541401Y-153643253D01*
X115523223Y-153626777D01*
X115506747Y-153608599D01*
X115492132Y-153588893D01*
X115479520Y-153567850D01*
X115469030Y-153545671D01*
X115460765Y-153522572D01*
X115454804Y-153498773D01*
X115451204Y-153474505D01*
X115450000Y-153450001D01*
X115450000Y-152549999D01*
X115451204Y-152525495D01*
X115454804Y-152501227D01*
X115460765Y-152477428D01*
X115469030Y-152454329D01*
X115479520Y-152432150D01*
X115492132Y-152411107D01*
X115506747Y-152391401D01*
X115523223Y-152373223D01*
X115541401Y-152356747D01*
X115561107Y-152342132D01*
X115582150Y-152329520D01*
X115604329Y-152319030D01*
X115627428Y-152310765D01*
X115651227Y-152304804D01*
X115675495Y-152301204D01*
X115699999Y-152300000D01*
X116350001Y-152300000D01*
X116374505Y-152301204D01*
X116374505Y-152301204D01*
G37*
D11*
X116025000Y-153000000D03*
D10*
G36*
X129824505Y-152301204D02*
X129848773Y-152304804D01*
X129872572Y-152310765D01*
X129895671Y-152319030D01*
X129917850Y-152329520D01*
X129938893Y-152342132D01*
X129958599Y-152356747D01*
X129976777Y-152373223D01*
X129993253Y-152391401D01*
X130007868Y-152411107D01*
X130020480Y-152432150D01*
X130030970Y-152454329D01*
X130039235Y-152477428D01*
X130045196Y-152501227D01*
X130048796Y-152525495D01*
X130050000Y-152549999D01*
X130050000Y-153450001D01*
X130048796Y-153474505D01*
X130045196Y-153498773D01*
X130039235Y-153522572D01*
X130030970Y-153545671D01*
X130020480Y-153567850D01*
X130007868Y-153588893D01*
X129993253Y-153608599D01*
X129976777Y-153626777D01*
X129958599Y-153643253D01*
X129938893Y-153657868D01*
X129917850Y-153670480D01*
X129895671Y-153680970D01*
X129872572Y-153689235D01*
X129848773Y-153695196D01*
X129824505Y-153698796D01*
X129800001Y-153700000D01*
X129149999Y-153700000D01*
X129125495Y-153698796D01*
X129101227Y-153695196D01*
X129077428Y-153689235D01*
X129054329Y-153680970D01*
X129032150Y-153670480D01*
X129011107Y-153657868D01*
X128991401Y-153643253D01*
X128973223Y-153626777D01*
X128956747Y-153608599D01*
X128942132Y-153588893D01*
X128929520Y-153567850D01*
X128919030Y-153545671D01*
X128910765Y-153522572D01*
X128904804Y-153498773D01*
X128901204Y-153474505D01*
X128900000Y-153450001D01*
X128900000Y-152549999D01*
X128901204Y-152525495D01*
X128904804Y-152501227D01*
X128910765Y-152477428D01*
X128919030Y-152454329D01*
X128929520Y-152432150D01*
X128942132Y-152411107D01*
X128956747Y-152391401D01*
X128973223Y-152373223D01*
X128991401Y-152356747D01*
X129011107Y-152342132D01*
X129032150Y-152329520D01*
X129054329Y-152319030D01*
X129077428Y-152310765D01*
X129101227Y-152304804D01*
X129125495Y-152301204D01*
X129149999Y-152300000D01*
X129800001Y-152300000D01*
X129824505Y-152301204D01*
X129824505Y-152301204D01*
G37*
D11*
X129475000Y-153000000D03*
D10*
G36*
X131874505Y-152301204D02*
X131898773Y-152304804D01*
X131922572Y-152310765D01*
X131945671Y-152319030D01*
X131967850Y-152329520D01*
X131988893Y-152342132D01*
X132008599Y-152356747D01*
X132026777Y-152373223D01*
X132043253Y-152391401D01*
X132057868Y-152411107D01*
X132070480Y-152432150D01*
X132080970Y-152454329D01*
X132089235Y-152477428D01*
X132095196Y-152501227D01*
X132098796Y-152525495D01*
X132100000Y-152549999D01*
X132100000Y-153450001D01*
X132098796Y-153474505D01*
X132095196Y-153498773D01*
X132089235Y-153522572D01*
X132080970Y-153545671D01*
X132070480Y-153567850D01*
X132057868Y-153588893D01*
X132043253Y-153608599D01*
X132026777Y-153626777D01*
X132008599Y-153643253D01*
X131988893Y-153657868D01*
X131967850Y-153670480D01*
X131945671Y-153680970D01*
X131922572Y-153689235D01*
X131898773Y-153695196D01*
X131874505Y-153698796D01*
X131850001Y-153700000D01*
X131199999Y-153700000D01*
X131175495Y-153698796D01*
X131151227Y-153695196D01*
X131127428Y-153689235D01*
X131104329Y-153680970D01*
X131082150Y-153670480D01*
X131061107Y-153657868D01*
X131041401Y-153643253D01*
X131023223Y-153626777D01*
X131006747Y-153608599D01*
X130992132Y-153588893D01*
X130979520Y-153567850D01*
X130969030Y-153545671D01*
X130960765Y-153522572D01*
X130954804Y-153498773D01*
X130951204Y-153474505D01*
X130950000Y-153450001D01*
X130950000Y-152549999D01*
X130951204Y-152525495D01*
X130954804Y-152501227D01*
X130960765Y-152477428D01*
X130969030Y-152454329D01*
X130979520Y-152432150D01*
X130992132Y-152411107D01*
X131006747Y-152391401D01*
X131023223Y-152373223D01*
X131041401Y-152356747D01*
X131061107Y-152342132D01*
X131082150Y-152329520D01*
X131104329Y-152319030D01*
X131127428Y-152310765D01*
X131151227Y-152304804D01*
X131175495Y-152301204D01*
X131199999Y-152300000D01*
X131850001Y-152300000D01*
X131874505Y-152301204D01*
X131874505Y-152301204D01*
G37*
D11*
X131525000Y-153000000D03*
D10*
G36*
X159324505Y-152301204D02*
X159348773Y-152304804D01*
X159372572Y-152310765D01*
X159395671Y-152319030D01*
X159417850Y-152329520D01*
X159438893Y-152342132D01*
X159458599Y-152356747D01*
X159476777Y-152373223D01*
X159493253Y-152391401D01*
X159507868Y-152411107D01*
X159520480Y-152432150D01*
X159530970Y-152454329D01*
X159539235Y-152477428D01*
X159545196Y-152501227D01*
X159548796Y-152525495D01*
X159550000Y-152549999D01*
X159550000Y-153450001D01*
X159548796Y-153474505D01*
X159545196Y-153498773D01*
X159539235Y-153522572D01*
X159530970Y-153545671D01*
X159520480Y-153567850D01*
X159507868Y-153588893D01*
X159493253Y-153608599D01*
X159476777Y-153626777D01*
X159458599Y-153643253D01*
X159438893Y-153657868D01*
X159417850Y-153670480D01*
X159395671Y-153680970D01*
X159372572Y-153689235D01*
X159348773Y-153695196D01*
X159324505Y-153698796D01*
X159300001Y-153700000D01*
X158649999Y-153700000D01*
X158625495Y-153698796D01*
X158601227Y-153695196D01*
X158577428Y-153689235D01*
X158554329Y-153680970D01*
X158532150Y-153670480D01*
X158511107Y-153657868D01*
X158491401Y-153643253D01*
X158473223Y-153626777D01*
X158456747Y-153608599D01*
X158442132Y-153588893D01*
X158429520Y-153567850D01*
X158419030Y-153545671D01*
X158410765Y-153522572D01*
X158404804Y-153498773D01*
X158401204Y-153474505D01*
X158400000Y-153450001D01*
X158400000Y-152549999D01*
X158401204Y-152525495D01*
X158404804Y-152501227D01*
X158410765Y-152477428D01*
X158419030Y-152454329D01*
X158429520Y-152432150D01*
X158442132Y-152411107D01*
X158456747Y-152391401D01*
X158473223Y-152373223D01*
X158491401Y-152356747D01*
X158511107Y-152342132D01*
X158532150Y-152329520D01*
X158554329Y-152319030D01*
X158577428Y-152310765D01*
X158601227Y-152304804D01*
X158625495Y-152301204D01*
X158649999Y-152300000D01*
X159300001Y-152300000D01*
X159324505Y-152301204D01*
X159324505Y-152301204D01*
G37*
D11*
X158975000Y-153000000D03*
D10*
G36*
X161374505Y-152301204D02*
X161398773Y-152304804D01*
X161422572Y-152310765D01*
X161445671Y-152319030D01*
X161467850Y-152329520D01*
X161488893Y-152342132D01*
X161508599Y-152356747D01*
X161526777Y-152373223D01*
X161543253Y-152391401D01*
X161557868Y-152411107D01*
X161570480Y-152432150D01*
X161580970Y-152454329D01*
X161589235Y-152477428D01*
X161595196Y-152501227D01*
X161598796Y-152525495D01*
X161600000Y-152549999D01*
X161600000Y-153450001D01*
X161598796Y-153474505D01*
X161595196Y-153498773D01*
X161589235Y-153522572D01*
X161580970Y-153545671D01*
X161570480Y-153567850D01*
X161557868Y-153588893D01*
X161543253Y-153608599D01*
X161526777Y-153626777D01*
X161508599Y-153643253D01*
X161488893Y-153657868D01*
X161467850Y-153670480D01*
X161445671Y-153680970D01*
X161422572Y-153689235D01*
X161398773Y-153695196D01*
X161374505Y-153698796D01*
X161350001Y-153700000D01*
X160699999Y-153700000D01*
X160675495Y-153698796D01*
X160651227Y-153695196D01*
X160627428Y-153689235D01*
X160604329Y-153680970D01*
X160582150Y-153670480D01*
X160561107Y-153657868D01*
X160541401Y-153643253D01*
X160523223Y-153626777D01*
X160506747Y-153608599D01*
X160492132Y-153588893D01*
X160479520Y-153567850D01*
X160469030Y-153545671D01*
X160460765Y-153522572D01*
X160454804Y-153498773D01*
X160451204Y-153474505D01*
X160450000Y-153450001D01*
X160450000Y-152549999D01*
X160451204Y-152525495D01*
X160454804Y-152501227D01*
X160460765Y-152477428D01*
X160469030Y-152454329D01*
X160479520Y-152432150D01*
X160492132Y-152411107D01*
X160506747Y-152391401D01*
X160523223Y-152373223D01*
X160541401Y-152356747D01*
X160561107Y-152342132D01*
X160582150Y-152329520D01*
X160604329Y-152319030D01*
X160627428Y-152310765D01*
X160651227Y-152304804D01*
X160675495Y-152301204D01*
X160699999Y-152300000D01*
X161350001Y-152300000D01*
X161374505Y-152301204D01*
X161374505Y-152301204D01*
G37*
D11*
X161025000Y-153000000D03*
D10*
G36*
X174374505Y-152301204D02*
X174398773Y-152304804D01*
X174422572Y-152310765D01*
X174445671Y-152319030D01*
X174467850Y-152329520D01*
X174488893Y-152342132D01*
X174508599Y-152356747D01*
X174526777Y-152373223D01*
X174543253Y-152391401D01*
X174557868Y-152411107D01*
X174570480Y-152432150D01*
X174580970Y-152454329D01*
X174589235Y-152477428D01*
X174595196Y-152501227D01*
X174598796Y-152525495D01*
X174600000Y-152549999D01*
X174600000Y-153450001D01*
X174598796Y-153474505D01*
X174595196Y-153498773D01*
X174589235Y-153522572D01*
X174580970Y-153545671D01*
X174570480Y-153567850D01*
X174557868Y-153588893D01*
X174543253Y-153608599D01*
X174526777Y-153626777D01*
X174508599Y-153643253D01*
X174488893Y-153657868D01*
X174467850Y-153670480D01*
X174445671Y-153680970D01*
X174422572Y-153689235D01*
X174398773Y-153695196D01*
X174374505Y-153698796D01*
X174350001Y-153700000D01*
X173699999Y-153700000D01*
X173675495Y-153698796D01*
X173651227Y-153695196D01*
X173627428Y-153689235D01*
X173604329Y-153680970D01*
X173582150Y-153670480D01*
X173561107Y-153657868D01*
X173541401Y-153643253D01*
X173523223Y-153626777D01*
X173506747Y-153608599D01*
X173492132Y-153588893D01*
X173479520Y-153567850D01*
X173469030Y-153545671D01*
X173460765Y-153522572D01*
X173454804Y-153498773D01*
X173451204Y-153474505D01*
X173450000Y-153450001D01*
X173450000Y-152549999D01*
X173451204Y-152525495D01*
X173454804Y-152501227D01*
X173460765Y-152477428D01*
X173469030Y-152454329D01*
X173479520Y-152432150D01*
X173492132Y-152411107D01*
X173506747Y-152391401D01*
X173523223Y-152373223D01*
X173541401Y-152356747D01*
X173561107Y-152342132D01*
X173582150Y-152329520D01*
X173604329Y-152319030D01*
X173627428Y-152310765D01*
X173651227Y-152304804D01*
X173675495Y-152301204D01*
X173699999Y-152300000D01*
X174350001Y-152300000D01*
X174374505Y-152301204D01*
X174374505Y-152301204D01*
G37*
D11*
X174025000Y-153000000D03*
D10*
G36*
X172324505Y-152301204D02*
X172348773Y-152304804D01*
X172372572Y-152310765D01*
X172395671Y-152319030D01*
X172417850Y-152329520D01*
X172438893Y-152342132D01*
X172458599Y-152356747D01*
X172476777Y-152373223D01*
X172493253Y-152391401D01*
X172507868Y-152411107D01*
X172520480Y-152432150D01*
X172530970Y-152454329D01*
X172539235Y-152477428D01*
X172545196Y-152501227D01*
X172548796Y-152525495D01*
X172550000Y-152549999D01*
X172550000Y-153450001D01*
X172548796Y-153474505D01*
X172545196Y-153498773D01*
X172539235Y-153522572D01*
X172530970Y-153545671D01*
X172520480Y-153567850D01*
X172507868Y-153588893D01*
X172493253Y-153608599D01*
X172476777Y-153626777D01*
X172458599Y-153643253D01*
X172438893Y-153657868D01*
X172417850Y-153670480D01*
X172395671Y-153680970D01*
X172372572Y-153689235D01*
X172348773Y-153695196D01*
X172324505Y-153698796D01*
X172300001Y-153700000D01*
X171649999Y-153700000D01*
X171625495Y-153698796D01*
X171601227Y-153695196D01*
X171577428Y-153689235D01*
X171554329Y-153680970D01*
X171532150Y-153670480D01*
X171511107Y-153657868D01*
X171491401Y-153643253D01*
X171473223Y-153626777D01*
X171456747Y-153608599D01*
X171442132Y-153588893D01*
X171429520Y-153567850D01*
X171419030Y-153545671D01*
X171410765Y-153522572D01*
X171404804Y-153498773D01*
X171401204Y-153474505D01*
X171400000Y-153450001D01*
X171400000Y-152549999D01*
X171401204Y-152525495D01*
X171404804Y-152501227D01*
X171410765Y-152477428D01*
X171419030Y-152454329D01*
X171429520Y-152432150D01*
X171442132Y-152411107D01*
X171456747Y-152391401D01*
X171473223Y-152373223D01*
X171491401Y-152356747D01*
X171511107Y-152342132D01*
X171532150Y-152329520D01*
X171554329Y-152319030D01*
X171577428Y-152310765D01*
X171601227Y-152304804D01*
X171625495Y-152301204D01*
X171649999Y-152300000D01*
X172300001Y-152300000D01*
X172324505Y-152301204D01*
X172324505Y-152301204D01*
G37*
D11*
X171975000Y-153000000D03*
D13*
X174550000Y-155400000D03*
X174550000Y-158600000D03*
X179450000Y-155400000D03*
X179450000Y-158600000D03*
X166450000Y-158600000D03*
X166450000Y-155400000D03*
X161550000Y-158600000D03*
X161550000Y-155400000D03*
X129550000Y-155400000D03*
X129550000Y-158600000D03*
X134450000Y-155400000D03*
X134450000Y-158600000D03*
X121450000Y-158600000D03*
X121450000Y-155400000D03*
X116550000Y-158600000D03*
X116550000Y-155400000D03*
X106550000Y-141400000D03*
X106550000Y-144600000D03*
X111450000Y-141400000D03*
X111450000Y-144600000D03*
X111450000Y-88600000D03*
X111450000Y-85400000D03*
X106550000Y-88600000D03*
X106550000Y-85400000D03*
X106550000Y-64400000D03*
X106550000Y-67600000D03*
X111450000Y-64400000D03*
X111450000Y-67600000D03*
X106550000Y-43400000D03*
X106550000Y-46600000D03*
X111450000Y-43400000D03*
X111450000Y-46600000D03*
X189450000Y-46600000D03*
X189450000Y-43400000D03*
X184550000Y-46600000D03*
X184550000Y-43400000D03*
X189450000Y-67600000D03*
X189450000Y-64400000D03*
X184550000Y-67600000D03*
X184550000Y-64400000D03*
X184550000Y-85400000D03*
X184550000Y-88600000D03*
X189450000Y-85400000D03*
X189450000Y-88600000D03*
X189450000Y-144600000D03*
X189450000Y-141400000D03*
X184550000Y-144600000D03*
X184550000Y-141400000D03*
D10*
G36*
X163474505Y-136451204D02*
X163498773Y-136454804D01*
X163522572Y-136460765D01*
X163545671Y-136469030D01*
X163567850Y-136479520D01*
X163588893Y-136492132D01*
X163608599Y-136506747D01*
X163626777Y-136523223D01*
X163643253Y-136541401D01*
X163657868Y-136561107D01*
X163670480Y-136582150D01*
X163680970Y-136604329D01*
X163689235Y-136627428D01*
X163695196Y-136651227D01*
X163698796Y-136675495D01*
X163700000Y-136699999D01*
X163700000Y-137350001D01*
X163698796Y-137374505D01*
X163695196Y-137398773D01*
X163689235Y-137422572D01*
X163680970Y-137445671D01*
X163670480Y-137467850D01*
X163657868Y-137488893D01*
X163643253Y-137508599D01*
X163626777Y-137526777D01*
X163608599Y-137543253D01*
X163588893Y-137557868D01*
X163567850Y-137570480D01*
X163545671Y-137580970D01*
X163522572Y-137589235D01*
X163498773Y-137595196D01*
X163474505Y-137598796D01*
X163450001Y-137600000D01*
X162549999Y-137600000D01*
X162525495Y-137598796D01*
X162501227Y-137595196D01*
X162477428Y-137589235D01*
X162454329Y-137580970D01*
X162432150Y-137570480D01*
X162411107Y-137557868D01*
X162391401Y-137543253D01*
X162373223Y-137526777D01*
X162356747Y-137508599D01*
X162342132Y-137488893D01*
X162329520Y-137467850D01*
X162319030Y-137445671D01*
X162310765Y-137422572D01*
X162304804Y-137398773D01*
X162301204Y-137374505D01*
X162300000Y-137350001D01*
X162300000Y-136699999D01*
X162301204Y-136675495D01*
X162304804Y-136651227D01*
X162310765Y-136627428D01*
X162319030Y-136604329D01*
X162329520Y-136582150D01*
X162342132Y-136561107D01*
X162356747Y-136541401D01*
X162373223Y-136523223D01*
X162391401Y-136506747D01*
X162411107Y-136492132D01*
X162432150Y-136479520D01*
X162454329Y-136469030D01*
X162477428Y-136460765D01*
X162501227Y-136454804D01*
X162525495Y-136451204D01*
X162549999Y-136450000D01*
X163450001Y-136450000D01*
X163474505Y-136451204D01*
X163474505Y-136451204D01*
G37*
D11*
X163000000Y-137025000D03*
D10*
G36*
X163474505Y-134401204D02*
X163498773Y-134404804D01*
X163522572Y-134410765D01*
X163545671Y-134419030D01*
X163567850Y-134429520D01*
X163588893Y-134442132D01*
X163608599Y-134456747D01*
X163626777Y-134473223D01*
X163643253Y-134491401D01*
X163657868Y-134511107D01*
X163670480Y-134532150D01*
X163680970Y-134554329D01*
X163689235Y-134577428D01*
X163695196Y-134601227D01*
X163698796Y-134625495D01*
X163700000Y-134649999D01*
X163700000Y-135300001D01*
X163698796Y-135324505D01*
X163695196Y-135348773D01*
X163689235Y-135372572D01*
X163680970Y-135395671D01*
X163670480Y-135417850D01*
X163657868Y-135438893D01*
X163643253Y-135458599D01*
X163626777Y-135476777D01*
X163608599Y-135493253D01*
X163588893Y-135507868D01*
X163567850Y-135520480D01*
X163545671Y-135530970D01*
X163522572Y-135539235D01*
X163498773Y-135545196D01*
X163474505Y-135548796D01*
X163450001Y-135550000D01*
X162549999Y-135550000D01*
X162525495Y-135548796D01*
X162501227Y-135545196D01*
X162477428Y-135539235D01*
X162454329Y-135530970D01*
X162432150Y-135520480D01*
X162411107Y-135507868D01*
X162391401Y-135493253D01*
X162373223Y-135476777D01*
X162356747Y-135458599D01*
X162342132Y-135438893D01*
X162329520Y-135417850D01*
X162319030Y-135395671D01*
X162310765Y-135372572D01*
X162304804Y-135348773D01*
X162301204Y-135324505D01*
X162300000Y-135300001D01*
X162300000Y-134649999D01*
X162301204Y-134625495D01*
X162304804Y-134601227D01*
X162310765Y-134577428D01*
X162319030Y-134554329D01*
X162329520Y-134532150D01*
X162342132Y-134511107D01*
X162356747Y-134491401D01*
X162373223Y-134473223D01*
X162391401Y-134456747D01*
X162411107Y-134442132D01*
X162432150Y-134429520D01*
X162454329Y-134419030D01*
X162477428Y-134410765D01*
X162501227Y-134404804D01*
X162525495Y-134401204D01*
X162549999Y-134400000D01*
X163450001Y-134400000D01*
X163474505Y-134401204D01*
X163474505Y-134401204D01*
G37*
D11*
X163000000Y-134975000D03*
D10*
G36*
X152374505Y-81301204D02*
X152398773Y-81304804D01*
X152422572Y-81310765D01*
X152445671Y-81319030D01*
X152467850Y-81329520D01*
X152488893Y-81342132D01*
X152508599Y-81356747D01*
X152526777Y-81373223D01*
X152543253Y-81391401D01*
X152557868Y-81411107D01*
X152570480Y-81432150D01*
X152580970Y-81454329D01*
X152589235Y-81477428D01*
X152595196Y-81501227D01*
X152598796Y-81525495D01*
X152600000Y-81549999D01*
X152600000Y-82450001D01*
X152598796Y-82474505D01*
X152595196Y-82498773D01*
X152589235Y-82522572D01*
X152580970Y-82545671D01*
X152570480Y-82567850D01*
X152557868Y-82588893D01*
X152543253Y-82608599D01*
X152526777Y-82626777D01*
X152508599Y-82643253D01*
X152488893Y-82657868D01*
X152467850Y-82670480D01*
X152445671Y-82680970D01*
X152422572Y-82689235D01*
X152398773Y-82695196D01*
X152374505Y-82698796D01*
X152350001Y-82700000D01*
X151699999Y-82700000D01*
X151675495Y-82698796D01*
X151651227Y-82695196D01*
X151627428Y-82689235D01*
X151604329Y-82680970D01*
X151582150Y-82670480D01*
X151561107Y-82657868D01*
X151541401Y-82643253D01*
X151523223Y-82626777D01*
X151506747Y-82608599D01*
X151492132Y-82588893D01*
X151479520Y-82567850D01*
X151469030Y-82545671D01*
X151460765Y-82522572D01*
X151454804Y-82498773D01*
X151451204Y-82474505D01*
X151450000Y-82450001D01*
X151450000Y-81549999D01*
X151451204Y-81525495D01*
X151454804Y-81501227D01*
X151460765Y-81477428D01*
X151469030Y-81454329D01*
X151479520Y-81432150D01*
X151492132Y-81411107D01*
X151506747Y-81391401D01*
X151523223Y-81373223D01*
X151541401Y-81356747D01*
X151561107Y-81342132D01*
X151582150Y-81329520D01*
X151604329Y-81319030D01*
X151627428Y-81310765D01*
X151651227Y-81304804D01*
X151675495Y-81301204D01*
X151699999Y-81300000D01*
X152350001Y-81300000D01*
X152374505Y-81301204D01*
X152374505Y-81301204D01*
G37*
D11*
X152025000Y-82000000D03*
D10*
G36*
X150324505Y-81301204D02*
X150348773Y-81304804D01*
X150372572Y-81310765D01*
X150395671Y-81319030D01*
X150417850Y-81329520D01*
X150438893Y-81342132D01*
X150458599Y-81356747D01*
X150476777Y-81373223D01*
X150493253Y-81391401D01*
X150507868Y-81411107D01*
X150520480Y-81432150D01*
X150530970Y-81454329D01*
X150539235Y-81477428D01*
X150545196Y-81501227D01*
X150548796Y-81525495D01*
X150550000Y-81549999D01*
X150550000Y-82450001D01*
X150548796Y-82474505D01*
X150545196Y-82498773D01*
X150539235Y-82522572D01*
X150530970Y-82545671D01*
X150520480Y-82567850D01*
X150507868Y-82588893D01*
X150493253Y-82608599D01*
X150476777Y-82626777D01*
X150458599Y-82643253D01*
X150438893Y-82657868D01*
X150417850Y-82670480D01*
X150395671Y-82680970D01*
X150372572Y-82689235D01*
X150348773Y-82695196D01*
X150324505Y-82698796D01*
X150300001Y-82700000D01*
X149649999Y-82700000D01*
X149625495Y-82698796D01*
X149601227Y-82695196D01*
X149577428Y-82689235D01*
X149554329Y-82680970D01*
X149532150Y-82670480D01*
X149511107Y-82657868D01*
X149491401Y-82643253D01*
X149473223Y-82626777D01*
X149456747Y-82608599D01*
X149442132Y-82588893D01*
X149429520Y-82567850D01*
X149419030Y-82545671D01*
X149410765Y-82522572D01*
X149404804Y-82498773D01*
X149401204Y-82474505D01*
X149400000Y-82450001D01*
X149400000Y-81549999D01*
X149401204Y-81525495D01*
X149404804Y-81501227D01*
X149410765Y-81477428D01*
X149419030Y-81454329D01*
X149429520Y-81432150D01*
X149442132Y-81411107D01*
X149456747Y-81391401D01*
X149473223Y-81373223D01*
X149491401Y-81356747D01*
X149511107Y-81342132D01*
X149532150Y-81329520D01*
X149554329Y-81319030D01*
X149577428Y-81310765D01*
X149601227Y-81304804D01*
X149625495Y-81301204D01*
X149649999Y-81300000D01*
X150300001Y-81300000D01*
X150324505Y-81301204D01*
X150324505Y-81301204D01*
G37*
D11*
X149975000Y-82000000D03*
D10*
G36*
X150324505Y-79301204D02*
X150348773Y-79304804D01*
X150372572Y-79310765D01*
X150395671Y-79319030D01*
X150417850Y-79329520D01*
X150438893Y-79342132D01*
X150458599Y-79356747D01*
X150476777Y-79373223D01*
X150493253Y-79391401D01*
X150507868Y-79411107D01*
X150520480Y-79432150D01*
X150530970Y-79454329D01*
X150539235Y-79477428D01*
X150545196Y-79501227D01*
X150548796Y-79525495D01*
X150550000Y-79549999D01*
X150550000Y-80450001D01*
X150548796Y-80474505D01*
X150545196Y-80498773D01*
X150539235Y-80522572D01*
X150530970Y-80545671D01*
X150520480Y-80567850D01*
X150507868Y-80588893D01*
X150493253Y-80608599D01*
X150476777Y-80626777D01*
X150458599Y-80643253D01*
X150438893Y-80657868D01*
X150417850Y-80670480D01*
X150395671Y-80680970D01*
X150372572Y-80689235D01*
X150348773Y-80695196D01*
X150324505Y-80698796D01*
X150300001Y-80700000D01*
X149649999Y-80700000D01*
X149625495Y-80698796D01*
X149601227Y-80695196D01*
X149577428Y-80689235D01*
X149554329Y-80680970D01*
X149532150Y-80670480D01*
X149511107Y-80657868D01*
X149491401Y-80643253D01*
X149473223Y-80626777D01*
X149456747Y-80608599D01*
X149442132Y-80588893D01*
X149429520Y-80567850D01*
X149419030Y-80545671D01*
X149410765Y-80522572D01*
X149404804Y-80498773D01*
X149401204Y-80474505D01*
X149400000Y-80450001D01*
X149400000Y-79549999D01*
X149401204Y-79525495D01*
X149404804Y-79501227D01*
X149410765Y-79477428D01*
X149419030Y-79454329D01*
X149429520Y-79432150D01*
X149442132Y-79411107D01*
X149456747Y-79391401D01*
X149473223Y-79373223D01*
X149491401Y-79356747D01*
X149511107Y-79342132D01*
X149532150Y-79329520D01*
X149554329Y-79319030D01*
X149577428Y-79310765D01*
X149601227Y-79304804D01*
X149625495Y-79301204D01*
X149649999Y-79300000D01*
X150300001Y-79300000D01*
X150324505Y-79301204D01*
X150324505Y-79301204D01*
G37*
D11*
X149975000Y-80000000D03*
D10*
G36*
X152374505Y-79301204D02*
X152398773Y-79304804D01*
X152422572Y-79310765D01*
X152445671Y-79319030D01*
X152467850Y-79329520D01*
X152488893Y-79342132D01*
X152508599Y-79356747D01*
X152526777Y-79373223D01*
X152543253Y-79391401D01*
X152557868Y-79411107D01*
X152570480Y-79432150D01*
X152580970Y-79454329D01*
X152589235Y-79477428D01*
X152595196Y-79501227D01*
X152598796Y-79525495D01*
X152600000Y-79549999D01*
X152600000Y-80450001D01*
X152598796Y-80474505D01*
X152595196Y-80498773D01*
X152589235Y-80522572D01*
X152580970Y-80545671D01*
X152570480Y-80567850D01*
X152557868Y-80588893D01*
X152543253Y-80608599D01*
X152526777Y-80626777D01*
X152508599Y-80643253D01*
X152488893Y-80657868D01*
X152467850Y-80670480D01*
X152445671Y-80680970D01*
X152422572Y-80689235D01*
X152398773Y-80695196D01*
X152374505Y-80698796D01*
X152350001Y-80700000D01*
X151699999Y-80700000D01*
X151675495Y-80698796D01*
X151651227Y-80695196D01*
X151627428Y-80689235D01*
X151604329Y-80680970D01*
X151582150Y-80670480D01*
X151561107Y-80657868D01*
X151541401Y-80643253D01*
X151523223Y-80626777D01*
X151506747Y-80608599D01*
X151492132Y-80588893D01*
X151479520Y-80567850D01*
X151469030Y-80545671D01*
X151460765Y-80522572D01*
X151454804Y-80498773D01*
X151451204Y-80474505D01*
X151450000Y-80450001D01*
X151450000Y-79549999D01*
X151451204Y-79525495D01*
X151454804Y-79501227D01*
X151460765Y-79477428D01*
X151469030Y-79454329D01*
X151479520Y-79432150D01*
X151492132Y-79411107D01*
X151506747Y-79391401D01*
X151523223Y-79373223D01*
X151541401Y-79356747D01*
X151561107Y-79342132D01*
X151582150Y-79329520D01*
X151604329Y-79319030D01*
X151627428Y-79310765D01*
X151651227Y-79304804D01*
X151675495Y-79301204D01*
X151699999Y-79300000D01*
X152350001Y-79300000D01*
X152374505Y-79301204D01*
X152374505Y-79301204D01*
G37*
D11*
X152025000Y-80000000D03*
D10*
G36*
X146324505Y-73301204D02*
X146348773Y-73304804D01*
X146372572Y-73310765D01*
X146395671Y-73319030D01*
X146417850Y-73329520D01*
X146438893Y-73342132D01*
X146458599Y-73356747D01*
X146476777Y-73373223D01*
X146493253Y-73391401D01*
X146507868Y-73411107D01*
X146520480Y-73432150D01*
X146530970Y-73454329D01*
X146539235Y-73477428D01*
X146545196Y-73501227D01*
X146548796Y-73525495D01*
X146550000Y-73549999D01*
X146550000Y-74450001D01*
X146548796Y-74474505D01*
X146545196Y-74498773D01*
X146539235Y-74522572D01*
X146530970Y-74545671D01*
X146520480Y-74567850D01*
X146507868Y-74588893D01*
X146493253Y-74608599D01*
X146476777Y-74626777D01*
X146458599Y-74643253D01*
X146438893Y-74657868D01*
X146417850Y-74670480D01*
X146395671Y-74680970D01*
X146372572Y-74689235D01*
X146348773Y-74695196D01*
X146324505Y-74698796D01*
X146300001Y-74700000D01*
X145649999Y-74700000D01*
X145625495Y-74698796D01*
X145601227Y-74695196D01*
X145577428Y-74689235D01*
X145554329Y-74680970D01*
X145532150Y-74670480D01*
X145511107Y-74657868D01*
X145491401Y-74643253D01*
X145473223Y-74626777D01*
X145456747Y-74608599D01*
X145442132Y-74588893D01*
X145429520Y-74567850D01*
X145419030Y-74545671D01*
X145410765Y-74522572D01*
X145404804Y-74498773D01*
X145401204Y-74474505D01*
X145400000Y-74450001D01*
X145400000Y-73549999D01*
X145401204Y-73525495D01*
X145404804Y-73501227D01*
X145410765Y-73477428D01*
X145419030Y-73454329D01*
X145429520Y-73432150D01*
X145442132Y-73411107D01*
X145456747Y-73391401D01*
X145473223Y-73373223D01*
X145491401Y-73356747D01*
X145511107Y-73342132D01*
X145532150Y-73329520D01*
X145554329Y-73319030D01*
X145577428Y-73310765D01*
X145601227Y-73304804D01*
X145625495Y-73301204D01*
X145649999Y-73300000D01*
X146300001Y-73300000D01*
X146324505Y-73301204D01*
X146324505Y-73301204D01*
G37*
D11*
X145975000Y-74000000D03*
D10*
G36*
X148374505Y-73301204D02*
X148398773Y-73304804D01*
X148422572Y-73310765D01*
X148445671Y-73319030D01*
X148467850Y-73329520D01*
X148488893Y-73342132D01*
X148508599Y-73356747D01*
X148526777Y-73373223D01*
X148543253Y-73391401D01*
X148557868Y-73411107D01*
X148570480Y-73432150D01*
X148580970Y-73454329D01*
X148589235Y-73477428D01*
X148595196Y-73501227D01*
X148598796Y-73525495D01*
X148600000Y-73549999D01*
X148600000Y-74450001D01*
X148598796Y-74474505D01*
X148595196Y-74498773D01*
X148589235Y-74522572D01*
X148580970Y-74545671D01*
X148570480Y-74567850D01*
X148557868Y-74588893D01*
X148543253Y-74608599D01*
X148526777Y-74626777D01*
X148508599Y-74643253D01*
X148488893Y-74657868D01*
X148467850Y-74670480D01*
X148445671Y-74680970D01*
X148422572Y-74689235D01*
X148398773Y-74695196D01*
X148374505Y-74698796D01*
X148350001Y-74700000D01*
X147699999Y-74700000D01*
X147675495Y-74698796D01*
X147651227Y-74695196D01*
X147627428Y-74689235D01*
X147604329Y-74680970D01*
X147582150Y-74670480D01*
X147561107Y-74657868D01*
X147541401Y-74643253D01*
X147523223Y-74626777D01*
X147506747Y-74608599D01*
X147492132Y-74588893D01*
X147479520Y-74567850D01*
X147469030Y-74545671D01*
X147460765Y-74522572D01*
X147454804Y-74498773D01*
X147451204Y-74474505D01*
X147450000Y-74450001D01*
X147450000Y-73549999D01*
X147451204Y-73525495D01*
X147454804Y-73501227D01*
X147460765Y-73477428D01*
X147469030Y-73454329D01*
X147479520Y-73432150D01*
X147492132Y-73411107D01*
X147506747Y-73391401D01*
X147523223Y-73373223D01*
X147541401Y-73356747D01*
X147561107Y-73342132D01*
X147582150Y-73329520D01*
X147604329Y-73319030D01*
X147627428Y-73310765D01*
X147651227Y-73304804D01*
X147675495Y-73301204D01*
X147699999Y-73300000D01*
X148350001Y-73300000D01*
X148374505Y-73301204D01*
X148374505Y-73301204D01*
G37*
D11*
X148025000Y-74000000D03*
D10*
G36*
X136474505Y-86476204D02*
X136498773Y-86479804D01*
X136522572Y-86485765D01*
X136545671Y-86494030D01*
X136567850Y-86504520D01*
X136588893Y-86517132D01*
X136608599Y-86531747D01*
X136626777Y-86548223D01*
X136643253Y-86566401D01*
X136657868Y-86586107D01*
X136670480Y-86607150D01*
X136680970Y-86629329D01*
X136689235Y-86652428D01*
X136695196Y-86676227D01*
X136698796Y-86700495D01*
X136700000Y-86724999D01*
X136700000Y-87375001D01*
X136698796Y-87399505D01*
X136695196Y-87423773D01*
X136689235Y-87447572D01*
X136680970Y-87470671D01*
X136670480Y-87492850D01*
X136657868Y-87513893D01*
X136643253Y-87533599D01*
X136626777Y-87551777D01*
X136608599Y-87568253D01*
X136588893Y-87582868D01*
X136567850Y-87595480D01*
X136545671Y-87605970D01*
X136522572Y-87614235D01*
X136498773Y-87620196D01*
X136474505Y-87623796D01*
X136450001Y-87625000D01*
X135549999Y-87625000D01*
X135525495Y-87623796D01*
X135501227Y-87620196D01*
X135477428Y-87614235D01*
X135454329Y-87605970D01*
X135432150Y-87595480D01*
X135411107Y-87582868D01*
X135391401Y-87568253D01*
X135373223Y-87551777D01*
X135356747Y-87533599D01*
X135342132Y-87513893D01*
X135329520Y-87492850D01*
X135319030Y-87470671D01*
X135310765Y-87447572D01*
X135304804Y-87423773D01*
X135301204Y-87399505D01*
X135300000Y-87375001D01*
X135300000Y-86724999D01*
X135301204Y-86700495D01*
X135304804Y-86676227D01*
X135310765Y-86652428D01*
X135319030Y-86629329D01*
X135329520Y-86607150D01*
X135342132Y-86586107D01*
X135356747Y-86566401D01*
X135373223Y-86548223D01*
X135391401Y-86531747D01*
X135411107Y-86517132D01*
X135432150Y-86504520D01*
X135454329Y-86494030D01*
X135477428Y-86485765D01*
X135501227Y-86479804D01*
X135525495Y-86476204D01*
X135549999Y-86475000D01*
X136450001Y-86475000D01*
X136474505Y-86476204D01*
X136474505Y-86476204D01*
G37*
D11*
X136000000Y-87050000D03*
D10*
G36*
X136474505Y-84426204D02*
X136498773Y-84429804D01*
X136522572Y-84435765D01*
X136545671Y-84444030D01*
X136567850Y-84454520D01*
X136588893Y-84467132D01*
X136608599Y-84481747D01*
X136626777Y-84498223D01*
X136643253Y-84516401D01*
X136657868Y-84536107D01*
X136670480Y-84557150D01*
X136680970Y-84579329D01*
X136689235Y-84602428D01*
X136695196Y-84626227D01*
X136698796Y-84650495D01*
X136700000Y-84674999D01*
X136700000Y-85325001D01*
X136698796Y-85349505D01*
X136695196Y-85373773D01*
X136689235Y-85397572D01*
X136680970Y-85420671D01*
X136670480Y-85442850D01*
X136657868Y-85463893D01*
X136643253Y-85483599D01*
X136626777Y-85501777D01*
X136608599Y-85518253D01*
X136588893Y-85532868D01*
X136567850Y-85545480D01*
X136545671Y-85555970D01*
X136522572Y-85564235D01*
X136498773Y-85570196D01*
X136474505Y-85573796D01*
X136450001Y-85575000D01*
X135549999Y-85575000D01*
X135525495Y-85573796D01*
X135501227Y-85570196D01*
X135477428Y-85564235D01*
X135454329Y-85555970D01*
X135432150Y-85545480D01*
X135411107Y-85532868D01*
X135391401Y-85518253D01*
X135373223Y-85501777D01*
X135356747Y-85483599D01*
X135342132Y-85463893D01*
X135329520Y-85442850D01*
X135319030Y-85420671D01*
X135310765Y-85397572D01*
X135304804Y-85373773D01*
X135301204Y-85349505D01*
X135300000Y-85325001D01*
X135300000Y-84674999D01*
X135301204Y-84650495D01*
X135304804Y-84626227D01*
X135310765Y-84602428D01*
X135319030Y-84579329D01*
X135329520Y-84557150D01*
X135342132Y-84536107D01*
X135356747Y-84516401D01*
X135373223Y-84498223D01*
X135391401Y-84481747D01*
X135411107Y-84467132D01*
X135432150Y-84454520D01*
X135454329Y-84444030D01*
X135477428Y-84435765D01*
X135501227Y-84429804D01*
X135525495Y-84426204D01*
X135549999Y-84425000D01*
X136450001Y-84425000D01*
X136474505Y-84426204D01*
X136474505Y-84426204D01*
G37*
D11*
X136000000Y-85000000D03*
D10*
G36*
X179474505Y-39451204D02*
X179498773Y-39454804D01*
X179522572Y-39460765D01*
X179545671Y-39469030D01*
X179567850Y-39479520D01*
X179588893Y-39492132D01*
X179608599Y-39506747D01*
X179626777Y-39523223D01*
X179643253Y-39541401D01*
X179657868Y-39561107D01*
X179670480Y-39582150D01*
X179680970Y-39604329D01*
X179689235Y-39627428D01*
X179695196Y-39651227D01*
X179698796Y-39675495D01*
X179700000Y-39699999D01*
X179700000Y-40350001D01*
X179698796Y-40374505D01*
X179695196Y-40398773D01*
X179689235Y-40422572D01*
X179680970Y-40445671D01*
X179670480Y-40467850D01*
X179657868Y-40488893D01*
X179643253Y-40508599D01*
X179626777Y-40526777D01*
X179608599Y-40543253D01*
X179588893Y-40557868D01*
X179567850Y-40570480D01*
X179545671Y-40580970D01*
X179522572Y-40589235D01*
X179498773Y-40595196D01*
X179474505Y-40598796D01*
X179450001Y-40600000D01*
X178549999Y-40600000D01*
X178525495Y-40598796D01*
X178501227Y-40595196D01*
X178477428Y-40589235D01*
X178454329Y-40580970D01*
X178432150Y-40570480D01*
X178411107Y-40557868D01*
X178391401Y-40543253D01*
X178373223Y-40526777D01*
X178356747Y-40508599D01*
X178342132Y-40488893D01*
X178329520Y-40467850D01*
X178319030Y-40445671D01*
X178310765Y-40422572D01*
X178304804Y-40398773D01*
X178301204Y-40374505D01*
X178300000Y-40350001D01*
X178300000Y-39699999D01*
X178301204Y-39675495D01*
X178304804Y-39651227D01*
X178310765Y-39627428D01*
X178319030Y-39604329D01*
X178329520Y-39582150D01*
X178342132Y-39561107D01*
X178356747Y-39541401D01*
X178373223Y-39523223D01*
X178391401Y-39506747D01*
X178411107Y-39492132D01*
X178432150Y-39479520D01*
X178454329Y-39469030D01*
X178477428Y-39460765D01*
X178501227Y-39454804D01*
X178525495Y-39451204D01*
X178549999Y-39450000D01*
X179450001Y-39450000D01*
X179474505Y-39451204D01*
X179474505Y-39451204D01*
G37*
D11*
X179000000Y-40025000D03*
D10*
G36*
X179474505Y-37401204D02*
X179498773Y-37404804D01*
X179522572Y-37410765D01*
X179545671Y-37419030D01*
X179567850Y-37429520D01*
X179588893Y-37442132D01*
X179608599Y-37456747D01*
X179626777Y-37473223D01*
X179643253Y-37491401D01*
X179657868Y-37511107D01*
X179670480Y-37532150D01*
X179680970Y-37554329D01*
X179689235Y-37577428D01*
X179695196Y-37601227D01*
X179698796Y-37625495D01*
X179700000Y-37649999D01*
X179700000Y-38300001D01*
X179698796Y-38324505D01*
X179695196Y-38348773D01*
X179689235Y-38372572D01*
X179680970Y-38395671D01*
X179670480Y-38417850D01*
X179657868Y-38438893D01*
X179643253Y-38458599D01*
X179626777Y-38476777D01*
X179608599Y-38493253D01*
X179588893Y-38507868D01*
X179567850Y-38520480D01*
X179545671Y-38530970D01*
X179522572Y-38539235D01*
X179498773Y-38545196D01*
X179474505Y-38548796D01*
X179450001Y-38550000D01*
X178549999Y-38550000D01*
X178525495Y-38548796D01*
X178501227Y-38545196D01*
X178477428Y-38539235D01*
X178454329Y-38530970D01*
X178432150Y-38520480D01*
X178411107Y-38507868D01*
X178391401Y-38493253D01*
X178373223Y-38476777D01*
X178356747Y-38458599D01*
X178342132Y-38438893D01*
X178329520Y-38417850D01*
X178319030Y-38395671D01*
X178310765Y-38372572D01*
X178304804Y-38348773D01*
X178301204Y-38324505D01*
X178300000Y-38300001D01*
X178300000Y-37649999D01*
X178301204Y-37625495D01*
X178304804Y-37601227D01*
X178310765Y-37577428D01*
X178319030Y-37554329D01*
X178329520Y-37532150D01*
X178342132Y-37511107D01*
X178356747Y-37491401D01*
X178373223Y-37473223D01*
X178391401Y-37456747D01*
X178411107Y-37442132D01*
X178432150Y-37429520D01*
X178454329Y-37419030D01*
X178477428Y-37410765D01*
X178501227Y-37404804D01*
X178525495Y-37401204D01*
X178549999Y-37400000D01*
X179450001Y-37400000D01*
X179474505Y-37401204D01*
X179474505Y-37401204D01*
G37*
D11*
X179000000Y-37975000D03*
D10*
G36*
X135144505Y-110371204D02*
X135168773Y-110374804D01*
X135192572Y-110380765D01*
X135215671Y-110389030D01*
X135237850Y-110399520D01*
X135258893Y-110412132D01*
X135278599Y-110426747D01*
X135296777Y-110443223D01*
X135313253Y-110461401D01*
X135327868Y-110481107D01*
X135340480Y-110502150D01*
X135350970Y-110524329D01*
X135359235Y-110547428D01*
X135365196Y-110571227D01*
X135368796Y-110595495D01*
X135370000Y-110619999D01*
X135370000Y-111520001D01*
X135368796Y-111544505D01*
X135365196Y-111568773D01*
X135359235Y-111592572D01*
X135350970Y-111615671D01*
X135340480Y-111637850D01*
X135327868Y-111658893D01*
X135313253Y-111678599D01*
X135296777Y-111696777D01*
X135278599Y-111713253D01*
X135258893Y-111727868D01*
X135237850Y-111740480D01*
X135215671Y-111750970D01*
X135192572Y-111759235D01*
X135168773Y-111765196D01*
X135144505Y-111768796D01*
X135120001Y-111770000D01*
X134469999Y-111770000D01*
X134445495Y-111768796D01*
X134421227Y-111765196D01*
X134397428Y-111759235D01*
X134374329Y-111750970D01*
X134352150Y-111740480D01*
X134331107Y-111727868D01*
X134311401Y-111713253D01*
X134293223Y-111696777D01*
X134276747Y-111678599D01*
X134262132Y-111658893D01*
X134249520Y-111637850D01*
X134239030Y-111615671D01*
X134230765Y-111592572D01*
X134224804Y-111568773D01*
X134221204Y-111544505D01*
X134220000Y-111520001D01*
X134220000Y-110619999D01*
X134221204Y-110595495D01*
X134224804Y-110571227D01*
X134230765Y-110547428D01*
X134239030Y-110524329D01*
X134249520Y-110502150D01*
X134262132Y-110481107D01*
X134276747Y-110461401D01*
X134293223Y-110443223D01*
X134311401Y-110426747D01*
X134331107Y-110412132D01*
X134352150Y-110399520D01*
X134374329Y-110389030D01*
X134397428Y-110380765D01*
X134421227Y-110374804D01*
X134445495Y-110371204D01*
X134469999Y-110370000D01*
X135120001Y-110370000D01*
X135144505Y-110371204D01*
X135144505Y-110371204D01*
G37*
D11*
X134795000Y-111070000D03*
D10*
G36*
X133094505Y-110371204D02*
X133118773Y-110374804D01*
X133142572Y-110380765D01*
X133165671Y-110389030D01*
X133187850Y-110399520D01*
X133208893Y-110412132D01*
X133228599Y-110426747D01*
X133246777Y-110443223D01*
X133263253Y-110461401D01*
X133277868Y-110481107D01*
X133290480Y-110502150D01*
X133300970Y-110524329D01*
X133309235Y-110547428D01*
X133315196Y-110571227D01*
X133318796Y-110595495D01*
X133320000Y-110619999D01*
X133320000Y-111520001D01*
X133318796Y-111544505D01*
X133315196Y-111568773D01*
X133309235Y-111592572D01*
X133300970Y-111615671D01*
X133290480Y-111637850D01*
X133277868Y-111658893D01*
X133263253Y-111678599D01*
X133246777Y-111696777D01*
X133228599Y-111713253D01*
X133208893Y-111727868D01*
X133187850Y-111740480D01*
X133165671Y-111750970D01*
X133142572Y-111759235D01*
X133118773Y-111765196D01*
X133094505Y-111768796D01*
X133070001Y-111770000D01*
X132419999Y-111770000D01*
X132395495Y-111768796D01*
X132371227Y-111765196D01*
X132347428Y-111759235D01*
X132324329Y-111750970D01*
X132302150Y-111740480D01*
X132281107Y-111727868D01*
X132261401Y-111713253D01*
X132243223Y-111696777D01*
X132226747Y-111678599D01*
X132212132Y-111658893D01*
X132199520Y-111637850D01*
X132189030Y-111615671D01*
X132180765Y-111592572D01*
X132174804Y-111568773D01*
X132171204Y-111544505D01*
X132170000Y-111520001D01*
X132170000Y-110619999D01*
X132171204Y-110595495D01*
X132174804Y-110571227D01*
X132180765Y-110547428D01*
X132189030Y-110524329D01*
X132199520Y-110502150D01*
X132212132Y-110481107D01*
X132226747Y-110461401D01*
X132243223Y-110443223D01*
X132261401Y-110426747D01*
X132281107Y-110412132D01*
X132302150Y-110399520D01*
X132324329Y-110389030D01*
X132347428Y-110380765D01*
X132371227Y-110374804D01*
X132395495Y-110371204D01*
X132419999Y-110370000D01*
X133070001Y-110370000D01*
X133094505Y-110371204D01*
X133094505Y-110371204D01*
G37*
D11*
X132745000Y-111070000D03*
D10*
G36*
X173324505Y-102301204D02*
X173348773Y-102304804D01*
X173372572Y-102310765D01*
X173395671Y-102319030D01*
X173417850Y-102329520D01*
X173438893Y-102342132D01*
X173458599Y-102356747D01*
X173476777Y-102373223D01*
X173493253Y-102391401D01*
X173507868Y-102411107D01*
X173520480Y-102432150D01*
X173530970Y-102454329D01*
X173539235Y-102477428D01*
X173545196Y-102501227D01*
X173548796Y-102525495D01*
X173550000Y-102549999D01*
X173550000Y-103450001D01*
X173548796Y-103474505D01*
X173545196Y-103498773D01*
X173539235Y-103522572D01*
X173530970Y-103545671D01*
X173520480Y-103567850D01*
X173507868Y-103588893D01*
X173493253Y-103608599D01*
X173476777Y-103626777D01*
X173458599Y-103643253D01*
X173438893Y-103657868D01*
X173417850Y-103670480D01*
X173395671Y-103680970D01*
X173372572Y-103689235D01*
X173348773Y-103695196D01*
X173324505Y-103698796D01*
X173300001Y-103700000D01*
X172649999Y-103700000D01*
X172625495Y-103698796D01*
X172601227Y-103695196D01*
X172577428Y-103689235D01*
X172554329Y-103680970D01*
X172532150Y-103670480D01*
X172511107Y-103657868D01*
X172491401Y-103643253D01*
X172473223Y-103626777D01*
X172456747Y-103608599D01*
X172442132Y-103588893D01*
X172429520Y-103567850D01*
X172419030Y-103545671D01*
X172410765Y-103522572D01*
X172404804Y-103498773D01*
X172401204Y-103474505D01*
X172400000Y-103450001D01*
X172400000Y-102549999D01*
X172401204Y-102525495D01*
X172404804Y-102501227D01*
X172410765Y-102477428D01*
X172419030Y-102454329D01*
X172429520Y-102432150D01*
X172442132Y-102411107D01*
X172456747Y-102391401D01*
X172473223Y-102373223D01*
X172491401Y-102356747D01*
X172511107Y-102342132D01*
X172532150Y-102329520D01*
X172554329Y-102319030D01*
X172577428Y-102310765D01*
X172601227Y-102304804D01*
X172625495Y-102301204D01*
X172649999Y-102300000D01*
X173300001Y-102300000D01*
X173324505Y-102301204D01*
X173324505Y-102301204D01*
G37*
D11*
X172975000Y-103000000D03*
D10*
G36*
X175374505Y-102301204D02*
X175398773Y-102304804D01*
X175422572Y-102310765D01*
X175445671Y-102319030D01*
X175467850Y-102329520D01*
X175488893Y-102342132D01*
X175508599Y-102356747D01*
X175526777Y-102373223D01*
X175543253Y-102391401D01*
X175557868Y-102411107D01*
X175570480Y-102432150D01*
X175580970Y-102454329D01*
X175589235Y-102477428D01*
X175595196Y-102501227D01*
X175598796Y-102525495D01*
X175600000Y-102549999D01*
X175600000Y-103450001D01*
X175598796Y-103474505D01*
X175595196Y-103498773D01*
X175589235Y-103522572D01*
X175580970Y-103545671D01*
X175570480Y-103567850D01*
X175557868Y-103588893D01*
X175543253Y-103608599D01*
X175526777Y-103626777D01*
X175508599Y-103643253D01*
X175488893Y-103657868D01*
X175467850Y-103670480D01*
X175445671Y-103680970D01*
X175422572Y-103689235D01*
X175398773Y-103695196D01*
X175374505Y-103698796D01*
X175350001Y-103700000D01*
X174699999Y-103700000D01*
X174675495Y-103698796D01*
X174651227Y-103695196D01*
X174627428Y-103689235D01*
X174604329Y-103680970D01*
X174582150Y-103670480D01*
X174561107Y-103657868D01*
X174541401Y-103643253D01*
X174523223Y-103626777D01*
X174506747Y-103608599D01*
X174492132Y-103588893D01*
X174479520Y-103567850D01*
X174469030Y-103545671D01*
X174460765Y-103522572D01*
X174454804Y-103498773D01*
X174451204Y-103474505D01*
X174450000Y-103450001D01*
X174450000Y-102549999D01*
X174451204Y-102525495D01*
X174454804Y-102501227D01*
X174460765Y-102477428D01*
X174469030Y-102454329D01*
X174479520Y-102432150D01*
X174492132Y-102411107D01*
X174506747Y-102391401D01*
X174523223Y-102373223D01*
X174541401Y-102356747D01*
X174561107Y-102342132D01*
X174582150Y-102329520D01*
X174604329Y-102319030D01*
X174627428Y-102310765D01*
X174651227Y-102304804D01*
X174675495Y-102301204D01*
X174699999Y-102300000D01*
X175350001Y-102300000D01*
X175374505Y-102301204D01*
X175374505Y-102301204D01*
G37*
D11*
X175025000Y-103000000D03*
D10*
G36*
X150824505Y-37301204D02*
X150848773Y-37304804D01*
X150872572Y-37310765D01*
X150895671Y-37319030D01*
X150917850Y-37329520D01*
X150938893Y-37342132D01*
X150958599Y-37356747D01*
X150976777Y-37373223D01*
X150993253Y-37391401D01*
X151007868Y-37411107D01*
X151020480Y-37432150D01*
X151030970Y-37454329D01*
X151039235Y-37477428D01*
X151045196Y-37501227D01*
X151048796Y-37525495D01*
X151050000Y-37549999D01*
X151050000Y-38450001D01*
X151048796Y-38474505D01*
X151045196Y-38498773D01*
X151039235Y-38522572D01*
X151030970Y-38545671D01*
X151020480Y-38567850D01*
X151007868Y-38588893D01*
X150993253Y-38608599D01*
X150976777Y-38626777D01*
X150958599Y-38643253D01*
X150938893Y-38657868D01*
X150917850Y-38670480D01*
X150895671Y-38680970D01*
X150872572Y-38689235D01*
X150848773Y-38695196D01*
X150824505Y-38698796D01*
X150800001Y-38700000D01*
X150149999Y-38700000D01*
X150125495Y-38698796D01*
X150101227Y-38695196D01*
X150077428Y-38689235D01*
X150054329Y-38680970D01*
X150032150Y-38670480D01*
X150011107Y-38657868D01*
X149991401Y-38643253D01*
X149973223Y-38626777D01*
X149956747Y-38608599D01*
X149942132Y-38588893D01*
X149929520Y-38567850D01*
X149919030Y-38545671D01*
X149910765Y-38522572D01*
X149904804Y-38498773D01*
X149901204Y-38474505D01*
X149900000Y-38450001D01*
X149900000Y-37549999D01*
X149901204Y-37525495D01*
X149904804Y-37501227D01*
X149910765Y-37477428D01*
X149919030Y-37454329D01*
X149929520Y-37432150D01*
X149942132Y-37411107D01*
X149956747Y-37391401D01*
X149973223Y-37373223D01*
X149991401Y-37356747D01*
X150011107Y-37342132D01*
X150032150Y-37329520D01*
X150054329Y-37319030D01*
X150077428Y-37310765D01*
X150101227Y-37304804D01*
X150125495Y-37301204D01*
X150149999Y-37300000D01*
X150800001Y-37300000D01*
X150824505Y-37301204D01*
X150824505Y-37301204D01*
G37*
D11*
X150475000Y-38000000D03*
D10*
G36*
X152874505Y-37301204D02*
X152898773Y-37304804D01*
X152922572Y-37310765D01*
X152945671Y-37319030D01*
X152967850Y-37329520D01*
X152988893Y-37342132D01*
X153008599Y-37356747D01*
X153026777Y-37373223D01*
X153043253Y-37391401D01*
X153057868Y-37411107D01*
X153070480Y-37432150D01*
X153080970Y-37454329D01*
X153089235Y-37477428D01*
X153095196Y-37501227D01*
X153098796Y-37525495D01*
X153100000Y-37549999D01*
X153100000Y-38450001D01*
X153098796Y-38474505D01*
X153095196Y-38498773D01*
X153089235Y-38522572D01*
X153080970Y-38545671D01*
X153070480Y-38567850D01*
X153057868Y-38588893D01*
X153043253Y-38608599D01*
X153026777Y-38626777D01*
X153008599Y-38643253D01*
X152988893Y-38657868D01*
X152967850Y-38670480D01*
X152945671Y-38680970D01*
X152922572Y-38689235D01*
X152898773Y-38695196D01*
X152874505Y-38698796D01*
X152850001Y-38700000D01*
X152199999Y-38700000D01*
X152175495Y-38698796D01*
X152151227Y-38695196D01*
X152127428Y-38689235D01*
X152104329Y-38680970D01*
X152082150Y-38670480D01*
X152061107Y-38657868D01*
X152041401Y-38643253D01*
X152023223Y-38626777D01*
X152006747Y-38608599D01*
X151992132Y-38588893D01*
X151979520Y-38567850D01*
X151969030Y-38545671D01*
X151960765Y-38522572D01*
X151954804Y-38498773D01*
X151951204Y-38474505D01*
X151950000Y-38450001D01*
X151950000Y-37549999D01*
X151951204Y-37525495D01*
X151954804Y-37501227D01*
X151960765Y-37477428D01*
X151969030Y-37454329D01*
X151979520Y-37432150D01*
X151992132Y-37411107D01*
X152006747Y-37391401D01*
X152023223Y-37373223D01*
X152041401Y-37356747D01*
X152061107Y-37342132D01*
X152082150Y-37329520D01*
X152104329Y-37319030D01*
X152127428Y-37310765D01*
X152151227Y-37304804D01*
X152175495Y-37301204D01*
X152199999Y-37300000D01*
X152850001Y-37300000D01*
X152874505Y-37301204D01*
X152874505Y-37301204D01*
G37*
D11*
X152525000Y-38000000D03*
D10*
G36*
X145874505Y-37301204D02*
X145898773Y-37304804D01*
X145922572Y-37310765D01*
X145945671Y-37319030D01*
X145967850Y-37329520D01*
X145988893Y-37342132D01*
X146008599Y-37356747D01*
X146026777Y-37373223D01*
X146043253Y-37391401D01*
X146057868Y-37411107D01*
X146070480Y-37432150D01*
X146080970Y-37454329D01*
X146089235Y-37477428D01*
X146095196Y-37501227D01*
X146098796Y-37525495D01*
X146100000Y-37549999D01*
X146100000Y-38450001D01*
X146098796Y-38474505D01*
X146095196Y-38498773D01*
X146089235Y-38522572D01*
X146080970Y-38545671D01*
X146070480Y-38567850D01*
X146057868Y-38588893D01*
X146043253Y-38608599D01*
X146026777Y-38626777D01*
X146008599Y-38643253D01*
X145988893Y-38657868D01*
X145967850Y-38670480D01*
X145945671Y-38680970D01*
X145922572Y-38689235D01*
X145898773Y-38695196D01*
X145874505Y-38698796D01*
X145850001Y-38700000D01*
X145199999Y-38700000D01*
X145175495Y-38698796D01*
X145151227Y-38695196D01*
X145127428Y-38689235D01*
X145104329Y-38680970D01*
X145082150Y-38670480D01*
X145061107Y-38657868D01*
X145041401Y-38643253D01*
X145023223Y-38626777D01*
X145006747Y-38608599D01*
X144992132Y-38588893D01*
X144979520Y-38567850D01*
X144969030Y-38545671D01*
X144960765Y-38522572D01*
X144954804Y-38498773D01*
X144951204Y-38474505D01*
X144950000Y-38450001D01*
X144950000Y-37549999D01*
X144951204Y-37525495D01*
X144954804Y-37501227D01*
X144960765Y-37477428D01*
X144969030Y-37454329D01*
X144979520Y-37432150D01*
X144992132Y-37411107D01*
X145006747Y-37391401D01*
X145023223Y-37373223D01*
X145041401Y-37356747D01*
X145061107Y-37342132D01*
X145082150Y-37329520D01*
X145104329Y-37319030D01*
X145127428Y-37310765D01*
X145151227Y-37304804D01*
X145175495Y-37301204D01*
X145199999Y-37300000D01*
X145850001Y-37300000D01*
X145874505Y-37301204D01*
X145874505Y-37301204D01*
G37*
D11*
X145525000Y-38000000D03*
D10*
G36*
X143824505Y-37301204D02*
X143848773Y-37304804D01*
X143872572Y-37310765D01*
X143895671Y-37319030D01*
X143917850Y-37329520D01*
X143938893Y-37342132D01*
X143958599Y-37356747D01*
X143976777Y-37373223D01*
X143993253Y-37391401D01*
X144007868Y-37411107D01*
X144020480Y-37432150D01*
X144030970Y-37454329D01*
X144039235Y-37477428D01*
X144045196Y-37501227D01*
X144048796Y-37525495D01*
X144050000Y-37549999D01*
X144050000Y-38450001D01*
X144048796Y-38474505D01*
X144045196Y-38498773D01*
X144039235Y-38522572D01*
X144030970Y-38545671D01*
X144020480Y-38567850D01*
X144007868Y-38588893D01*
X143993253Y-38608599D01*
X143976777Y-38626777D01*
X143958599Y-38643253D01*
X143938893Y-38657868D01*
X143917850Y-38670480D01*
X143895671Y-38680970D01*
X143872572Y-38689235D01*
X143848773Y-38695196D01*
X143824505Y-38698796D01*
X143800001Y-38700000D01*
X143149999Y-38700000D01*
X143125495Y-38698796D01*
X143101227Y-38695196D01*
X143077428Y-38689235D01*
X143054329Y-38680970D01*
X143032150Y-38670480D01*
X143011107Y-38657868D01*
X142991401Y-38643253D01*
X142973223Y-38626777D01*
X142956747Y-38608599D01*
X142942132Y-38588893D01*
X142929520Y-38567850D01*
X142919030Y-38545671D01*
X142910765Y-38522572D01*
X142904804Y-38498773D01*
X142901204Y-38474505D01*
X142900000Y-38450001D01*
X142900000Y-37549999D01*
X142901204Y-37525495D01*
X142904804Y-37501227D01*
X142910765Y-37477428D01*
X142919030Y-37454329D01*
X142929520Y-37432150D01*
X142942132Y-37411107D01*
X142956747Y-37391401D01*
X142973223Y-37373223D01*
X142991401Y-37356747D01*
X143011107Y-37342132D01*
X143032150Y-37329520D01*
X143054329Y-37319030D01*
X143077428Y-37310765D01*
X143101227Y-37304804D01*
X143125495Y-37301204D01*
X143149999Y-37300000D01*
X143800001Y-37300000D01*
X143824505Y-37301204D01*
X143824505Y-37301204D01*
G37*
D11*
X143475000Y-38000000D03*
D10*
G36*
X181399505Y-146301204D02*
X181423773Y-146304804D01*
X181447572Y-146310765D01*
X181470671Y-146319030D01*
X181492850Y-146329520D01*
X181513893Y-146342132D01*
X181533599Y-146356747D01*
X181551777Y-146373223D01*
X181568253Y-146391401D01*
X181582868Y-146411107D01*
X181595480Y-146432150D01*
X181605970Y-146454329D01*
X181614235Y-146477428D01*
X181620196Y-146501227D01*
X181623796Y-146525495D01*
X181625000Y-146549999D01*
X181625000Y-147450001D01*
X181623796Y-147474505D01*
X181620196Y-147498773D01*
X181614235Y-147522572D01*
X181605970Y-147545671D01*
X181595480Y-147567850D01*
X181582868Y-147588893D01*
X181568253Y-147608599D01*
X181551777Y-147626777D01*
X181533599Y-147643253D01*
X181513893Y-147657868D01*
X181492850Y-147670480D01*
X181470671Y-147680970D01*
X181447572Y-147689235D01*
X181423773Y-147695196D01*
X181399505Y-147698796D01*
X181375001Y-147700000D01*
X180724999Y-147700000D01*
X180700495Y-147698796D01*
X180676227Y-147695196D01*
X180652428Y-147689235D01*
X180629329Y-147680970D01*
X180607150Y-147670480D01*
X180586107Y-147657868D01*
X180566401Y-147643253D01*
X180548223Y-147626777D01*
X180531747Y-147608599D01*
X180517132Y-147588893D01*
X180504520Y-147567850D01*
X180494030Y-147545671D01*
X180485765Y-147522572D01*
X180479804Y-147498773D01*
X180476204Y-147474505D01*
X180475000Y-147450001D01*
X180475000Y-146549999D01*
X180476204Y-146525495D01*
X180479804Y-146501227D01*
X180485765Y-146477428D01*
X180494030Y-146454329D01*
X180504520Y-146432150D01*
X180517132Y-146411107D01*
X180531747Y-146391401D01*
X180548223Y-146373223D01*
X180566401Y-146356747D01*
X180586107Y-146342132D01*
X180607150Y-146329520D01*
X180629329Y-146319030D01*
X180652428Y-146310765D01*
X180676227Y-146304804D01*
X180700495Y-146301204D01*
X180724999Y-146300000D01*
X181375001Y-146300000D01*
X181399505Y-146301204D01*
X181399505Y-146301204D01*
G37*
D11*
X181050000Y-147000000D03*
D10*
G36*
X179349505Y-146301204D02*
X179373773Y-146304804D01*
X179397572Y-146310765D01*
X179420671Y-146319030D01*
X179442850Y-146329520D01*
X179463893Y-146342132D01*
X179483599Y-146356747D01*
X179501777Y-146373223D01*
X179518253Y-146391401D01*
X179532868Y-146411107D01*
X179545480Y-146432150D01*
X179555970Y-146454329D01*
X179564235Y-146477428D01*
X179570196Y-146501227D01*
X179573796Y-146525495D01*
X179575000Y-146549999D01*
X179575000Y-147450001D01*
X179573796Y-147474505D01*
X179570196Y-147498773D01*
X179564235Y-147522572D01*
X179555970Y-147545671D01*
X179545480Y-147567850D01*
X179532868Y-147588893D01*
X179518253Y-147608599D01*
X179501777Y-147626777D01*
X179483599Y-147643253D01*
X179463893Y-147657868D01*
X179442850Y-147670480D01*
X179420671Y-147680970D01*
X179397572Y-147689235D01*
X179373773Y-147695196D01*
X179349505Y-147698796D01*
X179325001Y-147700000D01*
X178674999Y-147700000D01*
X178650495Y-147698796D01*
X178626227Y-147695196D01*
X178602428Y-147689235D01*
X178579329Y-147680970D01*
X178557150Y-147670480D01*
X178536107Y-147657868D01*
X178516401Y-147643253D01*
X178498223Y-147626777D01*
X178481747Y-147608599D01*
X178467132Y-147588893D01*
X178454520Y-147567850D01*
X178444030Y-147545671D01*
X178435765Y-147522572D01*
X178429804Y-147498773D01*
X178426204Y-147474505D01*
X178425000Y-147450001D01*
X178425000Y-146549999D01*
X178426204Y-146525495D01*
X178429804Y-146501227D01*
X178435765Y-146477428D01*
X178444030Y-146454329D01*
X178454520Y-146432150D01*
X178467132Y-146411107D01*
X178481747Y-146391401D01*
X178498223Y-146373223D01*
X178516401Y-146356747D01*
X178536107Y-146342132D01*
X178557150Y-146329520D01*
X178579329Y-146319030D01*
X178602428Y-146310765D01*
X178626227Y-146304804D01*
X178650495Y-146301204D01*
X178674999Y-146300000D01*
X179325001Y-146300000D01*
X179349505Y-146301204D01*
X179349505Y-146301204D01*
G37*
D11*
X179000000Y-147000000D03*
D10*
G36*
X130644505Y-96371204D02*
X130668773Y-96374804D01*
X130692572Y-96380765D01*
X130715671Y-96389030D01*
X130737850Y-96399520D01*
X130758893Y-96412132D01*
X130778599Y-96426747D01*
X130796777Y-96443223D01*
X130813253Y-96461401D01*
X130827868Y-96481107D01*
X130840480Y-96502150D01*
X130850970Y-96524329D01*
X130859235Y-96547428D01*
X130865196Y-96571227D01*
X130868796Y-96595495D01*
X130870000Y-96619999D01*
X130870000Y-97520001D01*
X130868796Y-97544505D01*
X130865196Y-97568773D01*
X130859235Y-97592572D01*
X130850970Y-97615671D01*
X130840480Y-97637850D01*
X130827868Y-97658893D01*
X130813253Y-97678599D01*
X130796777Y-97696777D01*
X130778599Y-97713253D01*
X130758893Y-97727868D01*
X130737850Y-97740480D01*
X130715671Y-97750970D01*
X130692572Y-97759235D01*
X130668773Y-97765196D01*
X130644505Y-97768796D01*
X130620001Y-97770000D01*
X129969999Y-97770000D01*
X129945495Y-97768796D01*
X129921227Y-97765196D01*
X129897428Y-97759235D01*
X129874329Y-97750970D01*
X129852150Y-97740480D01*
X129831107Y-97727868D01*
X129811401Y-97713253D01*
X129793223Y-97696777D01*
X129776747Y-97678599D01*
X129762132Y-97658893D01*
X129749520Y-97637850D01*
X129739030Y-97615671D01*
X129730765Y-97592572D01*
X129724804Y-97568773D01*
X129721204Y-97544505D01*
X129720000Y-97520001D01*
X129720000Y-96619999D01*
X129721204Y-96595495D01*
X129724804Y-96571227D01*
X129730765Y-96547428D01*
X129739030Y-96524329D01*
X129749520Y-96502150D01*
X129762132Y-96481107D01*
X129776747Y-96461401D01*
X129793223Y-96443223D01*
X129811401Y-96426747D01*
X129831107Y-96412132D01*
X129852150Y-96399520D01*
X129874329Y-96389030D01*
X129897428Y-96380765D01*
X129921227Y-96374804D01*
X129945495Y-96371204D01*
X129969999Y-96370000D01*
X130620001Y-96370000D01*
X130644505Y-96371204D01*
X130644505Y-96371204D01*
G37*
D11*
X130295000Y-97070000D03*
D10*
G36*
X128594505Y-96371204D02*
X128618773Y-96374804D01*
X128642572Y-96380765D01*
X128665671Y-96389030D01*
X128687850Y-96399520D01*
X128708893Y-96412132D01*
X128728599Y-96426747D01*
X128746777Y-96443223D01*
X128763253Y-96461401D01*
X128777868Y-96481107D01*
X128790480Y-96502150D01*
X128800970Y-96524329D01*
X128809235Y-96547428D01*
X128815196Y-96571227D01*
X128818796Y-96595495D01*
X128820000Y-96619999D01*
X128820000Y-97520001D01*
X128818796Y-97544505D01*
X128815196Y-97568773D01*
X128809235Y-97592572D01*
X128800970Y-97615671D01*
X128790480Y-97637850D01*
X128777868Y-97658893D01*
X128763253Y-97678599D01*
X128746777Y-97696777D01*
X128728599Y-97713253D01*
X128708893Y-97727868D01*
X128687850Y-97740480D01*
X128665671Y-97750970D01*
X128642572Y-97759235D01*
X128618773Y-97765196D01*
X128594505Y-97768796D01*
X128570001Y-97770000D01*
X127919999Y-97770000D01*
X127895495Y-97768796D01*
X127871227Y-97765196D01*
X127847428Y-97759235D01*
X127824329Y-97750970D01*
X127802150Y-97740480D01*
X127781107Y-97727868D01*
X127761401Y-97713253D01*
X127743223Y-97696777D01*
X127726747Y-97678599D01*
X127712132Y-97658893D01*
X127699520Y-97637850D01*
X127689030Y-97615671D01*
X127680765Y-97592572D01*
X127674804Y-97568773D01*
X127671204Y-97544505D01*
X127670000Y-97520001D01*
X127670000Y-96619999D01*
X127671204Y-96595495D01*
X127674804Y-96571227D01*
X127680765Y-96547428D01*
X127689030Y-96524329D01*
X127699520Y-96502150D01*
X127712132Y-96481107D01*
X127726747Y-96461401D01*
X127743223Y-96443223D01*
X127761401Y-96426747D01*
X127781107Y-96412132D01*
X127802150Y-96399520D01*
X127824329Y-96389030D01*
X127847428Y-96380765D01*
X127871227Y-96374804D01*
X127895495Y-96371204D01*
X127919999Y-96370000D01*
X128570001Y-96370000D01*
X128594505Y-96371204D01*
X128594505Y-96371204D01*
G37*
D11*
X128245000Y-97070000D03*
D10*
G36*
X133124505Y-101081204D02*
X133148773Y-101084804D01*
X133172572Y-101090765D01*
X133195671Y-101099030D01*
X133217850Y-101109520D01*
X133238893Y-101122132D01*
X133258599Y-101136747D01*
X133276777Y-101153223D01*
X133293253Y-101171401D01*
X133307868Y-101191107D01*
X133320480Y-101212150D01*
X133330970Y-101234329D01*
X133339235Y-101257428D01*
X133345196Y-101281227D01*
X133348796Y-101305495D01*
X133350000Y-101329999D01*
X133350000Y-102230001D01*
X133348796Y-102254505D01*
X133345196Y-102278773D01*
X133339235Y-102302572D01*
X133330970Y-102325671D01*
X133320480Y-102347850D01*
X133307868Y-102368893D01*
X133293253Y-102388599D01*
X133276777Y-102406777D01*
X133258599Y-102423253D01*
X133238893Y-102437868D01*
X133217850Y-102450480D01*
X133195671Y-102460970D01*
X133172572Y-102469235D01*
X133148773Y-102475196D01*
X133124505Y-102478796D01*
X133100001Y-102480000D01*
X132449999Y-102480000D01*
X132425495Y-102478796D01*
X132401227Y-102475196D01*
X132377428Y-102469235D01*
X132354329Y-102460970D01*
X132332150Y-102450480D01*
X132311107Y-102437868D01*
X132291401Y-102423253D01*
X132273223Y-102406777D01*
X132256747Y-102388599D01*
X132242132Y-102368893D01*
X132229520Y-102347850D01*
X132219030Y-102325671D01*
X132210765Y-102302572D01*
X132204804Y-102278773D01*
X132201204Y-102254505D01*
X132200000Y-102230001D01*
X132200000Y-101329999D01*
X132201204Y-101305495D01*
X132204804Y-101281227D01*
X132210765Y-101257428D01*
X132219030Y-101234329D01*
X132229520Y-101212150D01*
X132242132Y-101191107D01*
X132256747Y-101171401D01*
X132273223Y-101153223D01*
X132291401Y-101136747D01*
X132311107Y-101122132D01*
X132332150Y-101109520D01*
X132354329Y-101099030D01*
X132377428Y-101090765D01*
X132401227Y-101084804D01*
X132425495Y-101081204D01*
X132449999Y-101080000D01*
X133100001Y-101080000D01*
X133124505Y-101081204D01*
X133124505Y-101081204D01*
G37*
D11*
X132775000Y-101780000D03*
D10*
G36*
X135174505Y-101081204D02*
X135198773Y-101084804D01*
X135222572Y-101090765D01*
X135245671Y-101099030D01*
X135267850Y-101109520D01*
X135288893Y-101122132D01*
X135308599Y-101136747D01*
X135326777Y-101153223D01*
X135343253Y-101171401D01*
X135357868Y-101191107D01*
X135370480Y-101212150D01*
X135380970Y-101234329D01*
X135389235Y-101257428D01*
X135395196Y-101281227D01*
X135398796Y-101305495D01*
X135400000Y-101329999D01*
X135400000Y-102230001D01*
X135398796Y-102254505D01*
X135395196Y-102278773D01*
X135389235Y-102302572D01*
X135380970Y-102325671D01*
X135370480Y-102347850D01*
X135357868Y-102368893D01*
X135343253Y-102388599D01*
X135326777Y-102406777D01*
X135308599Y-102423253D01*
X135288893Y-102437868D01*
X135267850Y-102450480D01*
X135245671Y-102460970D01*
X135222572Y-102469235D01*
X135198773Y-102475196D01*
X135174505Y-102478796D01*
X135150001Y-102480000D01*
X134499999Y-102480000D01*
X134475495Y-102478796D01*
X134451227Y-102475196D01*
X134427428Y-102469235D01*
X134404329Y-102460970D01*
X134382150Y-102450480D01*
X134361107Y-102437868D01*
X134341401Y-102423253D01*
X134323223Y-102406777D01*
X134306747Y-102388599D01*
X134292132Y-102368893D01*
X134279520Y-102347850D01*
X134269030Y-102325671D01*
X134260765Y-102302572D01*
X134254804Y-102278773D01*
X134251204Y-102254505D01*
X134250000Y-102230001D01*
X134250000Y-101329999D01*
X134251204Y-101305495D01*
X134254804Y-101281227D01*
X134260765Y-101257428D01*
X134269030Y-101234329D01*
X134279520Y-101212150D01*
X134292132Y-101191107D01*
X134306747Y-101171401D01*
X134323223Y-101153223D01*
X134341401Y-101136747D01*
X134361107Y-101122132D01*
X134382150Y-101109520D01*
X134404329Y-101099030D01*
X134427428Y-101090765D01*
X134451227Y-101084804D01*
X134475495Y-101081204D01*
X134499999Y-101080000D01*
X135150001Y-101080000D01*
X135174505Y-101081204D01*
X135174505Y-101081204D01*
G37*
D11*
X134825000Y-101780000D03*
D14*
X168502000Y-147224000D03*
X168502000Y-147874000D03*
X168502000Y-148524000D03*
X171162000Y-148524000D03*
X171162000Y-147874000D03*
X171162000Y-147224000D03*
D10*
G36*
X136419505Y-103091204D02*
X136443773Y-103094804D01*
X136467572Y-103100765D01*
X136490671Y-103109030D01*
X136512850Y-103119520D01*
X136533893Y-103132132D01*
X136553599Y-103146747D01*
X136571777Y-103163223D01*
X136588253Y-103181401D01*
X136602868Y-103201107D01*
X136615480Y-103222150D01*
X136625970Y-103244329D01*
X136634235Y-103267428D01*
X136640196Y-103291227D01*
X136643796Y-103315495D01*
X136645000Y-103339999D01*
X136645000Y-105540001D01*
X136643796Y-105564505D01*
X136640196Y-105588773D01*
X136634235Y-105612572D01*
X136625970Y-105635671D01*
X136615480Y-105657850D01*
X136602868Y-105678893D01*
X136588253Y-105698599D01*
X136571777Y-105716777D01*
X136553599Y-105733253D01*
X136533893Y-105747868D01*
X136512850Y-105760480D01*
X136490671Y-105770970D01*
X136467572Y-105779235D01*
X136443773Y-105785196D01*
X136419505Y-105788796D01*
X136395001Y-105790000D01*
X135569999Y-105790000D01*
X135545495Y-105788796D01*
X135521227Y-105785196D01*
X135497428Y-105779235D01*
X135474329Y-105770970D01*
X135452150Y-105760480D01*
X135431107Y-105747868D01*
X135411401Y-105733253D01*
X135393223Y-105716777D01*
X135376747Y-105698599D01*
X135362132Y-105678893D01*
X135349520Y-105657850D01*
X135339030Y-105635671D01*
X135330765Y-105612572D01*
X135324804Y-105588773D01*
X135321204Y-105564505D01*
X135320000Y-105540001D01*
X135320000Y-103339999D01*
X135321204Y-103315495D01*
X135324804Y-103291227D01*
X135330765Y-103267428D01*
X135339030Y-103244329D01*
X135349520Y-103222150D01*
X135362132Y-103201107D01*
X135376747Y-103181401D01*
X135393223Y-103163223D01*
X135411401Y-103146747D01*
X135431107Y-103132132D01*
X135452150Y-103119520D01*
X135474329Y-103109030D01*
X135497428Y-103100765D01*
X135521227Y-103094804D01*
X135545495Y-103091204D01*
X135569999Y-103090000D01*
X136395001Y-103090000D01*
X136419505Y-103091204D01*
X136419505Y-103091204D01*
G37*
D15*
X135982500Y-104440000D03*
D10*
G36*
X133294505Y-103091204D02*
X133318773Y-103094804D01*
X133342572Y-103100765D01*
X133365671Y-103109030D01*
X133387850Y-103119520D01*
X133408893Y-103132132D01*
X133428599Y-103146747D01*
X133446777Y-103163223D01*
X133463253Y-103181401D01*
X133477868Y-103201107D01*
X133490480Y-103222150D01*
X133500970Y-103244329D01*
X133509235Y-103267428D01*
X133515196Y-103291227D01*
X133518796Y-103315495D01*
X133520000Y-103339999D01*
X133520000Y-105540001D01*
X133518796Y-105564505D01*
X133515196Y-105588773D01*
X133509235Y-105612572D01*
X133500970Y-105635671D01*
X133490480Y-105657850D01*
X133477868Y-105678893D01*
X133463253Y-105698599D01*
X133446777Y-105716777D01*
X133428599Y-105733253D01*
X133408893Y-105747868D01*
X133387850Y-105760480D01*
X133365671Y-105770970D01*
X133342572Y-105779235D01*
X133318773Y-105785196D01*
X133294505Y-105788796D01*
X133270001Y-105790000D01*
X132444999Y-105790000D01*
X132420495Y-105788796D01*
X132396227Y-105785196D01*
X132372428Y-105779235D01*
X132349329Y-105770970D01*
X132327150Y-105760480D01*
X132306107Y-105747868D01*
X132286401Y-105733253D01*
X132268223Y-105716777D01*
X132251747Y-105698599D01*
X132237132Y-105678893D01*
X132224520Y-105657850D01*
X132214030Y-105635671D01*
X132205765Y-105612572D01*
X132199804Y-105588773D01*
X132196204Y-105564505D01*
X132195000Y-105540001D01*
X132195000Y-103339999D01*
X132196204Y-103315495D01*
X132199804Y-103291227D01*
X132205765Y-103267428D01*
X132214030Y-103244329D01*
X132224520Y-103222150D01*
X132237132Y-103201107D01*
X132251747Y-103181401D01*
X132268223Y-103163223D01*
X132286401Y-103146747D01*
X132306107Y-103132132D01*
X132327150Y-103119520D01*
X132349329Y-103109030D01*
X132372428Y-103100765D01*
X132396227Y-103094804D01*
X132420495Y-103091204D01*
X132444999Y-103090000D01*
X133270001Y-103090000D01*
X133294505Y-103091204D01*
X133294505Y-103091204D01*
G37*
D15*
X132857500Y-104440000D03*
D10*
G36*
X181454505Y-95641204D02*
X181478773Y-95644804D01*
X181502572Y-95650765D01*
X181525671Y-95659030D01*
X181547850Y-95669520D01*
X181568893Y-95682132D01*
X181588599Y-95696747D01*
X181606777Y-95713223D01*
X181623253Y-95731401D01*
X181637868Y-95751107D01*
X181650480Y-95772150D01*
X181660970Y-95794329D01*
X181669235Y-95817428D01*
X181675196Y-95841227D01*
X181678796Y-95865495D01*
X181680000Y-95889999D01*
X181680000Y-98090001D01*
X181678796Y-98114505D01*
X181675196Y-98138773D01*
X181669235Y-98162572D01*
X181660970Y-98185671D01*
X181650480Y-98207850D01*
X181637868Y-98228893D01*
X181623253Y-98248599D01*
X181606777Y-98266777D01*
X181588599Y-98283253D01*
X181568893Y-98297868D01*
X181547850Y-98310480D01*
X181525671Y-98320970D01*
X181502572Y-98329235D01*
X181478773Y-98335196D01*
X181454505Y-98338796D01*
X181430001Y-98340000D01*
X180604999Y-98340000D01*
X180580495Y-98338796D01*
X180556227Y-98335196D01*
X180532428Y-98329235D01*
X180509329Y-98320970D01*
X180487150Y-98310480D01*
X180466107Y-98297868D01*
X180446401Y-98283253D01*
X180428223Y-98266777D01*
X180411747Y-98248599D01*
X180397132Y-98228893D01*
X180384520Y-98207850D01*
X180374030Y-98185671D01*
X180365765Y-98162572D01*
X180359804Y-98138773D01*
X180356204Y-98114505D01*
X180355000Y-98090001D01*
X180355000Y-95889999D01*
X180356204Y-95865495D01*
X180359804Y-95841227D01*
X180365765Y-95817428D01*
X180374030Y-95794329D01*
X180384520Y-95772150D01*
X180397132Y-95751107D01*
X180411747Y-95731401D01*
X180428223Y-95713223D01*
X180446401Y-95696747D01*
X180466107Y-95682132D01*
X180487150Y-95669520D01*
X180509329Y-95659030D01*
X180532428Y-95650765D01*
X180556227Y-95644804D01*
X180580495Y-95641204D01*
X180604999Y-95640000D01*
X181430001Y-95640000D01*
X181454505Y-95641204D01*
X181454505Y-95641204D01*
G37*
D15*
X181017500Y-96990000D03*
D10*
G36*
X184579505Y-95641204D02*
X184603773Y-95644804D01*
X184627572Y-95650765D01*
X184650671Y-95659030D01*
X184672850Y-95669520D01*
X184693893Y-95682132D01*
X184713599Y-95696747D01*
X184731777Y-95713223D01*
X184748253Y-95731401D01*
X184762868Y-95751107D01*
X184775480Y-95772150D01*
X184785970Y-95794329D01*
X184794235Y-95817428D01*
X184800196Y-95841227D01*
X184803796Y-95865495D01*
X184805000Y-95889999D01*
X184805000Y-98090001D01*
X184803796Y-98114505D01*
X184800196Y-98138773D01*
X184794235Y-98162572D01*
X184785970Y-98185671D01*
X184775480Y-98207850D01*
X184762868Y-98228893D01*
X184748253Y-98248599D01*
X184731777Y-98266777D01*
X184713599Y-98283253D01*
X184693893Y-98297868D01*
X184672850Y-98310480D01*
X184650671Y-98320970D01*
X184627572Y-98329235D01*
X184603773Y-98335196D01*
X184579505Y-98338796D01*
X184555001Y-98340000D01*
X183729999Y-98340000D01*
X183705495Y-98338796D01*
X183681227Y-98335196D01*
X183657428Y-98329235D01*
X183634329Y-98320970D01*
X183612150Y-98310480D01*
X183591107Y-98297868D01*
X183571401Y-98283253D01*
X183553223Y-98266777D01*
X183536747Y-98248599D01*
X183522132Y-98228893D01*
X183509520Y-98207850D01*
X183499030Y-98185671D01*
X183490765Y-98162572D01*
X183484804Y-98138773D01*
X183481204Y-98114505D01*
X183480000Y-98090001D01*
X183480000Y-95889999D01*
X183481204Y-95865495D01*
X183484804Y-95841227D01*
X183490765Y-95817428D01*
X183499030Y-95794329D01*
X183509520Y-95772150D01*
X183522132Y-95751107D01*
X183536747Y-95731401D01*
X183553223Y-95713223D01*
X183571401Y-95696747D01*
X183591107Y-95682132D01*
X183612150Y-95669520D01*
X183634329Y-95659030D01*
X183657428Y-95650765D01*
X183681227Y-95644804D01*
X183705495Y-95641204D01*
X183729999Y-95640000D01*
X184555001Y-95640000D01*
X184579505Y-95641204D01*
X184579505Y-95641204D01*
G37*
D15*
X184142500Y-96990000D03*
D10*
G36*
X127524505Y-93021204D02*
X127548773Y-93024804D01*
X127572572Y-93030765D01*
X127595671Y-93039030D01*
X127617850Y-93049520D01*
X127638893Y-93062132D01*
X127658599Y-93076747D01*
X127676777Y-93093223D01*
X127693253Y-93111401D01*
X127707868Y-93131107D01*
X127720480Y-93152150D01*
X127730970Y-93174329D01*
X127739235Y-93197428D01*
X127745196Y-93221227D01*
X127748796Y-93245495D01*
X127750000Y-93269999D01*
X127750000Y-95470001D01*
X127748796Y-95494505D01*
X127745196Y-95518773D01*
X127739235Y-95542572D01*
X127730970Y-95565671D01*
X127720480Y-95587850D01*
X127707868Y-95608893D01*
X127693253Y-95628599D01*
X127676777Y-95646777D01*
X127658599Y-95663253D01*
X127638893Y-95677868D01*
X127617850Y-95690480D01*
X127595671Y-95700970D01*
X127572572Y-95709235D01*
X127548773Y-95715196D01*
X127524505Y-95718796D01*
X127500001Y-95720000D01*
X126674999Y-95720000D01*
X126650495Y-95718796D01*
X126626227Y-95715196D01*
X126602428Y-95709235D01*
X126579329Y-95700970D01*
X126557150Y-95690480D01*
X126536107Y-95677868D01*
X126516401Y-95663253D01*
X126498223Y-95646777D01*
X126481747Y-95628599D01*
X126467132Y-95608893D01*
X126454520Y-95587850D01*
X126444030Y-95565671D01*
X126435765Y-95542572D01*
X126429804Y-95518773D01*
X126426204Y-95494505D01*
X126425000Y-95470001D01*
X126425000Y-93269999D01*
X126426204Y-93245495D01*
X126429804Y-93221227D01*
X126435765Y-93197428D01*
X126444030Y-93174329D01*
X126454520Y-93152150D01*
X126467132Y-93131107D01*
X126481747Y-93111401D01*
X126498223Y-93093223D01*
X126516401Y-93076747D01*
X126536107Y-93062132D01*
X126557150Y-93049520D01*
X126579329Y-93039030D01*
X126602428Y-93030765D01*
X126626227Y-93024804D01*
X126650495Y-93021204D01*
X126674999Y-93020000D01*
X127500001Y-93020000D01*
X127524505Y-93021204D01*
X127524505Y-93021204D01*
G37*
D15*
X127087500Y-94370000D03*
D10*
G36*
X130649505Y-93021204D02*
X130673773Y-93024804D01*
X130697572Y-93030765D01*
X130720671Y-93039030D01*
X130742850Y-93049520D01*
X130763893Y-93062132D01*
X130783599Y-93076747D01*
X130801777Y-93093223D01*
X130818253Y-93111401D01*
X130832868Y-93131107D01*
X130845480Y-93152150D01*
X130855970Y-93174329D01*
X130864235Y-93197428D01*
X130870196Y-93221227D01*
X130873796Y-93245495D01*
X130875000Y-93269999D01*
X130875000Y-95470001D01*
X130873796Y-95494505D01*
X130870196Y-95518773D01*
X130864235Y-95542572D01*
X130855970Y-95565671D01*
X130845480Y-95587850D01*
X130832868Y-95608893D01*
X130818253Y-95628599D01*
X130801777Y-95646777D01*
X130783599Y-95663253D01*
X130763893Y-95677868D01*
X130742850Y-95690480D01*
X130720671Y-95700970D01*
X130697572Y-95709235D01*
X130673773Y-95715196D01*
X130649505Y-95718796D01*
X130625001Y-95720000D01*
X129799999Y-95720000D01*
X129775495Y-95718796D01*
X129751227Y-95715196D01*
X129727428Y-95709235D01*
X129704329Y-95700970D01*
X129682150Y-95690480D01*
X129661107Y-95677868D01*
X129641401Y-95663253D01*
X129623223Y-95646777D01*
X129606747Y-95628599D01*
X129592132Y-95608893D01*
X129579520Y-95587850D01*
X129569030Y-95565671D01*
X129560765Y-95542572D01*
X129554804Y-95518773D01*
X129551204Y-95494505D01*
X129550000Y-95470001D01*
X129550000Y-93269999D01*
X129551204Y-93245495D01*
X129554804Y-93221227D01*
X129560765Y-93197428D01*
X129569030Y-93174329D01*
X129579520Y-93152150D01*
X129592132Y-93131107D01*
X129606747Y-93111401D01*
X129623223Y-93093223D01*
X129641401Y-93076747D01*
X129661107Y-93062132D01*
X129682150Y-93049520D01*
X129704329Y-93039030D01*
X129727428Y-93030765D01*
X129751227Y-93024804D01*
X129775495Y-93021204D01*
X129799999Y-93020000D01*
X130625001Y-93020000D01*
X130649505Y-93021204D01*
X130649505Y-93021204D01*
G37*
D15*
X130212500Y-94370000D03*
D10*
G36*
X184999505Y-101651204D02*
X185023773Y-101654804D01*
X185047572Y-101660765D01*
X185070671Y-101669030D01*
X185092850Y-101679520D01*
X185113893Y-101692132D01*
X185133599Y-101706747D01*
X185151777Y-101723223D01*
X185168253Y-101741401D01*
X185182868Y-101761107D01*
X185195480Y-101782150D01*
X185205970Y-101804329D01*
X185214235Y-101827428D01*
X185220196Y-101851227D01*
X185223796Y-101875495D01*
X185225000Y-101899999D01*
X185225000Y-104100001D01*
X185223796Y-104124505D01*
X185220196Y-104148773D01*
X185214235Y-104172572D01*
X185205970Y-104195671D01*
X185195480Y-104217850D01*
X185182868Y-104238893D01*
X185168253Y-104258599D01*
X185151777Y-104276777D01*
X185133599Y-104293253D01*
X185113893Y-104307868D01*
X185092850Y-104320480D01*
X185070671Y-104330970D01*
X185047572Y-104339235D01*
X185023773Y-104345196D01*
X184999505Y-104348796D01*
X184975001Y-104350000D01*
X184149999Y-104350000D01*
X184125495Y-104348796D01*
X184101227Y-104345196D01*
X184077428Y-104339235D01*
X184054329Y-104330970D01*
X184032150Y-104320480D01*
X184011107Y-104307868D01*
X183991401Y-104293253D01*
X183973223Y-104276777D01*
X183956747Y-104258599D01*
X183942132Y-104238893D01*
X183929520Y-104217850D01*
X183919030Y-104195671D01*
X183910765Y-104172572D01*
X183904804Y-104148773D01*
X183901204Y-104124505D01*
X183900000Y-104100001D01*
X183900000Y-101899999D01*
X183901204Y-101875495D01*
X183904804Y-101851227D01*
X183910765Y-101827428D01*
X183919030Y-101804329D01*
X183929520Y-101782150D01*
X183942132Y-101761107D01*
X183956747Y-101741401D01*
X183973223Y-101723223D01*
X183991401Y-101706747D01*
X184011107Y-101692132D01*
X184032150Y-101679520D01*
X184054329Y-101669030D01*
X184077428Y-101660765D01*
X184101227Y-101654804D01*
X184125495Y-101651204D01*
X184149999Y-101650000D01*
X184975001Y-101650000D01*
X184999505Y-101651204D01*
X184999505Y-101651204D01*
G37*
D15*
X184562500Y-103000000D03*
D10*
G36*
X181874505Y-101651204D02*
X181898773Y-101654804D01*
X181922572Y-101660765D01*
X181945671Y-101669030D01*
X181967850Y-101679520D01*
X181988893Y-101692132D01*
X182008599Y-101706747D01*
X182026777Y-101723223D01*
X182043253Y-101741401D01*
X182057868Y-101761107D01*
X182070480Y-101782150D01*
X182080970Y-101804329D01*
X182089235Y-101827428D01*
X182095196Y-101851227D01*
X182098796Y-101875495D01*
X182100000Y-101899999D01*
X182100000Y-104100001D01*
X182098796Y-104124505D01*
X182095196Y-104148773D01*
X182089235Y-104172572D01*
X182080970Y-104195671D01*
X182070480Y-104217850D01*
X182057868Y-104238893D01*
X182043253Y-104258599D01*
X182026777Y-104276777D01*
X182008599Y-104293253D01*
X181988893Y-104307868D01*
X181967850Y-104320480D01*
X181945671Y-104330970D01*
X181922572Y-104339235D01*
X181898773Y-104345196D01*
X181874505Y-104348796D01*
X181850001Y-104350000D01*
X181024999Y-104350000D01*
X181000495Y-104348796D01*
X180976227Y-104345196D01*
X180952428Y-104339235D01*
X180929329Y-104330970D01*
X180907150Y-104320480D01*
X180886107Y-104307868D01*
X180866401Y-104293253D01*
X180848223Y-104276777D01*
X180831747Y-104258599D01*
X180817132Y-104238893D01*
X180804520Y-104217850D01*
X180794030Y-104195671D01*
X180785765Y-104172572D01*
X180779804Y-104148773D01*
X180776204Y-104124505D01*
X180775000Y-104100001D01*
X180775000Y-101899999D01*
X180776204Y-101875495D01*
X180779804Y-101851227D01*
X180785765Y-101827428D01*
X180794030Y-101804329D01*
X180804520Y-101782150D01*
X180817132Y-101761107D01*
X180831747Y-101741401D01*
X180848223Y-101723223D01*
X180866401Y-101706747D01*
X180886107Y-101692132D01*
X180907150Y-101679520D01*
X180929329Y-101669030D01*
X180952428Y-101660765D01*
X180976227Y-101654804D01*
X181000495Y-101651204D01*
X181024999Y-101650000D01*
X181850001Y-101650000D01*
X181874505Y-101651204D01*
X181874505Y-101651204D01*
G37*
D15*
X181437500Y-103000000D03*
D10*
G36*
X177344505Y-144521204D02*
X177368773Y-144524804D01*
X177392572Y-144530765D01*
X177415671Y-144539030D01*
X177437850Y-144549520D01*
X177458893Y-144562132D01*
X177478599Y-144576747D01*
X177496777Y-144593223D01*
X177513253Y-144611401D01*
X177527868Y-144631107D01*
X177540480Y-144652150D01*
X177550970Y-144674329D01*
X177559235Y-144697428D01*
X177565196Y-144721227D01*
X177568796Y-144745495D01*
X177570000Y-144769999D01*
X177570000Y-145420001D01*
X177568796Y-145444505D01*
X177565196Y-145468773D01*
X177559235Y-145492572D01*
X177550970Y-145515671D01*
X177540480Y-145537850D01*
X177527868Y-145558893D01*
X177513253Y-145578599D01*
X177496777Y-145596777D01*
X177478599Y-145613253D01*
X177458893Y-145627868D01*
X177437850Y-145640480D01*
X177415671Y-145650970D01*
X177392572Y-145659235D01*
X177368773Y-145665196D01*
X177344505Y-145668796D01*
X177320001Y-145670000D01*
X176419999Y-145670000D01*
X176395495Y-145668796D01*
X176371227Y-145665196D01*
X176347428Y-145659235D01*
X176324329Y-145650970D01*
X176302150Y-145640480D01*
X176281107Y-145627868D01*
X176261401Y-145613253D01*
X176243223Y-145596777D01*
X176226747Y-145578599D01*
X176212132Y-145558893D01*
X176199520Y-145537850D01*
X176189030Y-145515671D01*
X176180765Y-145492572D01*
X176174804Y-145468773D01*
X176171204Y-145444505D01*
X176170000Y-145420001D01*
X176170000Y-144769999D01*
X176171204Y-144745495D01*
X176174804Y-144721227D01*
X176180765Y-144697428D01*
X176189030Y-144674329D01*
X176199520Y-144652150D01*
X176212132Y-144631107D01*
X176226747Y-144611401D01*
X176243223Y-144593223D01*
X176261401Y-144576747D01*
X176281107Y-144562132D01*
X176302150Y-144549520D01*
X176324329Y-144539030D01*
X176347428Y-144530765D01*
X176371227Y-144524804D01*
X176395495Y-144521204D01*
X176419999Y-144520000D01*
X177320001Y-144520000D01*
X177344505Y-144521204D01*
X177344505Y-144521204D01*
G37*
D11*
X176870000Y-145095000D03*
D10*
G36*
X177344505Y-146571204D02*
X177368773Y-146574804D01*
X177392572Y-146580765D01*
X177415671Y-146589030D01*
X177437850Y-146599520D01*
X177458893Y-146612132D01*
X177478599Y-146626747D01*
X177496777Y-146643223D01*
X177513253Y-146661401D01*
X177527868Y-146681107D01*
X177540480Y-146702150D01*
X177550970Y-146724329D01*
X177559235Y-146747428D01*
X177565196Y-146771227D01*
X177568796Y-146795495D01*
X177570000Y-146819999D01*
X177570000Y-147470001D01*
X177568796Y-147494505D01*
X177565196Y-147518773D01*
X177559235Y-147542572D01*
X177550970Y-147565671D01*
X177540480Y-147587850D01*
X177527868Y-147608893D01*
X177513253Y-147628599D01*
X177496777Y-147646777D01*
X177478599Y-147663253D01*
X177458893Y-147677868D01*
X177437850Y-147690480D01*
X177415671Y-147700970D01*
X177392572Y-147709235D01*
X177368773Y-147715196D01*
X177344505Y-147718796D01*
X177320001Y-147720000D01*
X176419999Y-147720000D01*
X176395495Y-147718796D01*
X176371227Y-147715196D01*
X176347428Y-147709235D01*
X176324329Y-147700970D01*
X176302150Y-147690480D01*
X176281107Y-147677868D01*
X176261401Y-147663253D01*
X176243223Y-147646777D01*
X176226747Y-147628599D01*
X176212132Y-147608893D01*
X176199520Y-147587850D01*
X176189030Y-147565671D01*
X176180765Y-147542572D01*
X176174804Y-147518773D01*
X176171204Y-147494505D01*
X176170000Y-147470001D01*
X176170000Y-146819999D01*
X176171204Y-146795495D01*
X176174804Y-146771227D01*
X176180765Y-146747428D01*
X176189030Y-146724329D01*
X176199520Y-146702150D01*
X176212132Y-146681107D01*
X176226747Y-146661401D01*
X176243223Y-146643223D01*
X176261401Y-146626747D01*
X176281107Y-146612132D01*
X176302150Y-146599520D01*
X176324329Y-146589030D01*
X176347428Y-146580765D01*
X176371227Y-146574804D01*
X176395495Y-146571204D01*
X176419999Y-146570000D01*
X177320001Y-146570000D01*
X177344505Y-146571204D01*
X177344505Y-146571204D01*
G37*
D11*
X176870000Y-147145000D03*
M02*
