%FSLAX45Y45*%
G04 Gerber Fmt 4.5, Leading zero omitted, Abs format (unit mm)*
G04 Created by KiCad (PCBNEW 5.0.2+dfsg1-1) date Sun 02 Jan 2022 06:45:02 PM PST*
%MOMM*%
%LPD*%
G01*
G04 APERTURE LIST*
%ADD10C,0.100000*%
%ADD11C,0.200000*%
%ADD12C,0.300000*%
G04 APERTURE END LIST*
D10*
X10800000Y-3000000D02*
X18800000Y-3000000D01*
X10400000Y-15800000D02*
X10400000Y-3400000D01*
X18800000Y-16200000D02*
X10800000Y-16200000D01*
X19200000Y-3400000D02*
X19200000Y-15800000D01*
X10800000Y-16200000D02*
G75*
G02X10400000Y-15800000I0J400000D01*
G01*
X19200000Y-15800000D02*
G75*
G02X18800000Y-16200000I-400000J0D01*
G01*
X18800000Y-3000000D02*
G75*
G02X19200000Y-3400000I0J-400000D01*
G01*
X10400000Y-3400000D02*
G75*
G02X10800000Y-3000000I400000J0D01*
G01*
D11*
D12*
X10681428Y-16670714D02*
X10681428Y-16370714D01*
X10752857Y-16370714D01*
X10795714Y-16385000D01*
X10824286Y-16413571D01*
X10838571Y-16442143D01*
X10852857Y-16499286D01*
X10852857Y-16542143D01*
X10838571Y-16599286D01*
X10824286Y-16627857D01*
X10795714Y-16656429D01*
X10752857Y-16670714D01*
X10681428Y-16670714D01*
X10981428Y-16670714D02*
X10981428Y-16470714D01*
X10981428Y-16527857D02*
X10995714Y-16499286D01*
X11010000Y-16485000D01*
X11038571Y-16470714D01*
X11067143Y-16470714D01*
X11167143Y-16670714D02*
X11167143Y-16470714D01*
X11167143Y-16370714D02*
X11152857Y-16385000D01*
X11167143Y-16399286D01*
X11181428Y-16385000D01*
X11167143Y-16370714D01*
X11167143Y-16399286D01*
X11352857Y-16670714D02*
X11324286Y-16656429D01*
X11310000Y-16627857D01*
X11310000Y-16370714D01*
X11510000Y-16670714D02*
X11481428Y-16656429D01*
X11467143Y-16627857D01*
X11467143Y-16370714D01*
X11852857Y-16670714D02*
X11852857Y-16370714D01*
X11952857Y-16585000D01*
X12052857Y-16370714D01*
X12052857Y-16670714D01*
X12324286Y-16670714D02*
X12324286Y-16513571D01*
X12310000Y-16485000D01*
X12281428Y-16470714D01*
X12224286Y-16470714D01*
X12195714Y-16485000D01*
X12324286Y-16656429D02*
X12295714Y-16670714D01*
X12224286Y-16670714D01*
X12195714Y-16656429D01*
X12181428Y-16627857D01*
X12181428Y-16599286D01*
X12195714Y-16570714D01*
X12224286Y-16556429D01*
X12295714Y-16556429D01*
X12324286Y-16542143D01*
X12467143Y-16470714D02*
X12467143Y-16770714D01*
X12467143Y-16485000D02*
X12495714Y-16470714D01*
X12552857Y-16470714D01*
X12581428Y-16485000D01*
X12595714Y-16499286D01*
X12610000Y-16527857D01*
X12610000Y-16613571D01*
X12595714Y-16642143D01*
X12581428Y-16656429D01*
X12552857Y-16670714D01*
X12495714Y-16670714D01*
X12467143Y-16656429D01*
X12738571Y-16642143D02*
X12752857Y-16656429D01*
X12738571Y-16670714D01*
X12724286Y-16656429D01*
X12738571Y-16642143D01*
X12738571Y-16670714D01*
X12738571Y-16485000D02*
X12752857Y-16499286D01*
X12738571Y-16513571D01*
X12724286Y-16499286D01*
X12738571Y-16485000D01*
X12738571Y-16513571D01*
M02*
