M48
;DRILL file {KiCad 5.0.2+dfsg1-1} date Sun 02 Jan 2022 06:44:12 PM PST
;FORMAT={-:-/ absolute / metric / decimal}
FMAT,2
METRIC,TZ
T1C0.400
T2C0.600
T3C0.762
T4C0.800
T5C0.900
T6C1.000
T7C1.200
T8C1.500
T9C2.300
T10C4.300
%
G90
G05
T1
X105.Y-53.
X105.Y-60.
X105.Y-72.75
X105.Y-80.
X105.5Y-38.
X107.Y-150.
X111.252Y-148.59
X113.Y-147.
X114.Y-44.
X114.Y-46.
X114.Y-48.
X114.Y-61.
X114.Y-63.
X114.Y-65.
X114.Y-67.
X114.Y-69.
X114.Y-71.
X114.Y-82.
X114.Y-84.
X114.Y-86.
X114.Y-88.
X114.Y-90.
X114.Y-92.
X114.Y-94.
X114.Y-96.
X115.Y-42.
X117.Y-46.
X117.Y-48.
X117.Y-61.
X117.Y-63.
X117.Y-65.
X117.Y-67.
X117.Y-69.
X117.Y-71.
X117.Y-82.
X117.Y-84.
X117.Y-86.
X117.Y-88.
X117.Y-90.
X117.Y-92.
X117.Y-94.
X118.Y-44.
X119.Y-102.
X120.Y-42.
X120.Y-99.
X123.24Y-88.69
X125.43Y-105.02
X129.Y-76.
X129.Y-78.
X129.Y-80.
X129.Y-82.
X129.Y-84.
X129.Y-86.
X129.Y-88.
X129.Y-90.
X130.Y-70.
X130.Y-91.
X131.Y-73.
X131.Y-92.
X132.Y-70.
X132.Y-78.
X132.Y-80.
X132.Y-82.
X132.Y-84.
X132.Y-86.
X132.Y-88.
X132.Y-93.
X132.Y-157.
X133.Y-76.
X133.Y-89.
X133.Y-94.
X134.Y-70.
X134.Y-90.
X134.Y-95.
X135.Y-73.
X135.Y-91.
X135.Y-96.
X136.Y-92.
X136.Y-97.
X136.5Y-156.75
X137.Y-73.
X137.Y-93.
X137.Y-98.
X137.5Y-82.5
X137.94Y-68.47
X138.Y-70.
X138.Y-94.
X138.Y-99.
X138.Y-113.
X138.99Y-105.71
X139.Y-90.25
X139.Y-95.
X139.Y-101.
X139.Y-103.
X139.Y-109.
X139.Y-111.
X139.965Y-47.767
X140.Y-96.
X140.32Y-88.21
X140.425Y-46.797
X140.895Y-45.85
X140.915Y-89.44
X141.Y-97.
X141.Y-115.
X142.84Y-65.74
X142.94Y-105.59
X143.Y-101.
X143.Y-103.
X143.Y-109.
X143.Y-111.
X143.Y-113.
X145.25Y-160.
X146.Y-79.25
X147.Y-38.
X147.85Y-92.49
X148.Y-160.
X150.15Y-97.077
X150.52Y-110.99
X150.75Y-160.
X152.75Y-39.5
X153.11Y-49.35
X153.85Y-77.07
X154.16Y-110.72
X155.Y-94.
X155.62Y-119.57
X155.9Y-126.71
X158.Y-113.22
X158.02Y-120.35
X158.82Y-105.33
X159.22Y-58.83
X159.25Y-102.5
X159.25Y-103.5
X159.26Y-57.73
X159.347Y-56.734
X160.62Y-85.33
X162.6Y-121.6
X163.8Y-110.4
X165.Y-93.
X165.75Y-110.
X166.Y-82.
X166.763Y-109.987
X168.Y-103.
X168.3Y-117.92
X169.926Y-153.416
X170.93Y-118.77
X171.14Y-127.7
X172.Y-113.75
X172.01Y-111.995
X173.023Y-111.982
X173.73Y-43.75
X174.Y-41.
X174.37Y-148.49
X174.57Y-110.38
X175.Y-40.
X175.Y-45.
X175.503Y-124.786
X175.546Y-125.854
X176.Y-39.
X176.Y-44.
X176.13Y-90.01
X176.5Y-129.5
X177.Y-38.
X177.Y-43.
X177.Y-113.
X178.Y-42.
X178.Y-119.25
X179.51Y-89.55
X179.68Y-111.84
X180.25Y-126.5
X180.75Y-119.25
X181.63Y-90.69
X182.63Y-39.27
X183.25Y-119.25
X183.25Y-146.5
X184.Y-36.
X184.Y-38.
X184.5Y-50.25
X184.5Y-56.75
X186.Y-118.5
X186.Y-126.5
X186.02Y-71.53
X187.75Y-149.75
X188.04Y-103.03
X189.75Y-55.25
X189.96Y-70.95
X190.5Y-75.75
X190.5Y-92.5
X190.75Y-36.
T2
X183.775Y-157.
X184.72Y-154.72
X184.72Y-159.28
X187.Y-153.775
X187.Y-160.225
X189.28Y-154.72
X189.28Y-159.28
X190.225Y-157.
X105.775Y-157.
X106.72Y-154.72
X106.72Y-159.28
X109.Y-153.775
X109.Y-160.225
X111.28Y-154.72
X111.28Y-159.28
X112.225Y-157.
T3
X123.42Y-38.42
X126.Y-38.42
X128.5Y-33.5
X131.04Y-38.5
X133.5Y-38.5
X162.42Y-38.42
X165.Y-38.42
X167.5Y-33.5
X170.04Y-38.5
X172.5Y-38.5
T4
X169.94Y-91.81
X169.94Y-94.35
X169.94Y-96.89
X169.94Y-99.43
X177.56Y-91.81
X177.56Y-94.35
X177.56Y-96.89
X177.56Y-99.43
X122.02Y-102.57
X122.02Y-105.11
X122.02Y-107.65
X122.02Y-110.19
X129.64Y-102.57
X129.64Y-105.11
X129.64Y-107.65
X129.64Y-110.19
X153.Y-115.76
X153.Y-131.
X155.54Y-115.76
X155.54Y-131.
X158.08Y-115.76
X158.08Y-131.
X160.62Y-115.76
X160.62Y-131.
X163.16Y-115.76
X163.16Y-131.
X165.7Y-115.76
X165.7Y-131.
X168.24Y-115.76
X168.24Y-131.
X170.78Y-115.76
X170.78Y-131.
X173.32Y-115.76
X173.32Y-131.
X175.86Y-115.76
X175.86Y-131.
X178.4Y-115.76
X178.4Y-131.
X180.94Y-115.76
X180.94Y-131.
X183.48Y-115.76
X183.48Y-131.
X186.02Y-115.76
X186.02Y-131.
X188.56Y-115.76
X188.56Y-131.
T5
X142.96Y-34.
X145.5Y-34.
X144.Y-156.
X148.Y-156.
X152.Y-156.
X150.46Y-34.
X153.Y-34.
T6
X134.Y-44.
X136.54Y-44.
X139.08Y-44.
X141.62Y-44.
X144.16Y-44.
X146.7Y-44.
X149.24Y-44.
X151.78Y-44.
X154.32Y-44.
X156.86Y-44.
X159.4Y-44.
X161.94Y-44.
X110.46Y-34.
X113.Y-34.
X156.54Y-136.04
X156.54Y-138.58
X110.998Y-102.108
X110.998Y-104.608
X110.998Y-107.108
X156.47Y-74.48
X156.47Y-82.1
X171.71Y-74.48
X171.71Y-82.1
X111.252Y-124.46
X111.252Y-126.96
X111.252Y-129.46
X175.8Y-122.5
X178.34Y-122.5
X180.88Y-122.5
X183.42Y-122.5
X185.96Y-122.5
X188.5Y-122.5
X182.46Y-34.
X185.Y-34.
X141.478Y-131.816
X146.558Y-131.826
T7
X142.Y-154.25
X142.Y-160.25
X154.Y-154.25
X154.Y-160.25
T8
X118.47Y-139.81
X118.47Y-146.69
X149.53Y-139.81
X149.53Y-146.69
T9
X114.298Y-99.608
X114.298Y-109.608
X114.552Y-121.96
X114.552Y-131.96
T10
X187.Y-157.
X109.Y-157.
T0
M30
