M48
; DRILL file {KiCad 5.1.9+dfsg1-1} date Sat Jun 11 23:02:00 2022
; FORMAT={-:-/ absolute / metric / decimal}
; #@! TF.CreationDate,2022-06-11T23:02:00-07:00
; #@! TF.GenerationSoftware,Kicad,Pcbnew,5.1.9+dfsg1-1
FMAT,2
METRIC
T1C0.400
T2C0.600
T3C0.800
T4C1.000
T5C1.200
T6C1.500
T7C2.500
T8C4.300
T9C1.700
T10C4.000
%
G90
G05
T1
X109.0Y-50.41
X109.07Y-54.75
X110.0Y-49.75
X113.03Y-56.63
X113.88Y-45.73
X118.14Y-56.19
X120.04Y-39.87
X123.0Y-47.0
X123.5Y-49.75
X124.01Y-58.17
X127.0Y-57.1
X127.803Y-55.627
X128.01Y-68.03
X128.089Y-63.909
X128.476Y-62.496
X128.71Y-38.68
X129.0Y-126.5
X130.0Y-43.0
X131.0Y-86.5
X131.44Y-61.345
X131.5Y-105.5
X131.512Y-62.583
X132.95Y-38.45
X138.49Y-39.05
X142.78Y-39.16
X145.43Y-39.08
X146.096Y-64.634
X148.06Y-39.08
X149.0Y-127.0
X152.0Y-85.5
X152.0Y-105.0
X161.457Y-39.487
X169.92Y-68.81
X171.02Y-65.695
X171.21Y-94.22
X172.18Y-136.65
X172.73Y-98.72
X172.91Y-57.24
X174.61Y-63.16
X178.85Y-56.48
X179.75Y-48.5
X187.75Y-62.0
X190.9Y-57.1
T2
X105.775Y-35.0
X105.775Y-157.0
X106.72Y-32.72
X106.72Y-37.28
X106.72Y-154.72
X106.72Y-159.28
X109.0Y-31.775
X109.0Y-38.225
X109.0Y-153.775
X109.0Y-160.225
X111.28Y-32.72
X111.28Y-37.28
X111.28Y-154.72
X111.28Y-159.28
X112.225Y-35.0
X112.225Y-157.0
X183.775Y-35.0
X183.775Y-157.0
X184.72Y-32.72
X184.72Y-37.28
X184.72Y-154.72
X184.72Y-159.28
X187.0Y-31.775
X187.0Y-38.225
X187.0Y-153.775
X187.0Y-160.225
X189.28Y-32.72
X189.28Y-37.28
X189.28Y-154.72
X189.28Y-159.28
X190.225Y-35.0
X190.225Y-157.0
T3
X112.0Y-53.0
X112.0Y-60.62
X114.54Y-53.0
X114.54Y-60.62
X117.08Y-53.0
X117.08Y-60.62
X119.62Y-53.0
X119.62Y-60.62
X122.16Y-53.0
X122.16Y-60.62
X124.7Y-53.0
X124.7Y-60.62
X127.24Y-53.0
X127.24Y-60.62
X129.78Y-53.0
X129.78Y-60.62
X166.5Y-53.0
X166.5Y-60.62
X169.04Y-53.0
X169.04Y-60.62
X171.58Y-53.0
X171.58Y-60.62
X174.12Y-53.0
X174.12Y-60.62
X176.66Y-53.0
X176.66Y-60.62
X179.2Y-53.0
X179.2Y-60.62
X181.74Y-53.0
X181.74Y-60.62
X184.28Y-53.0
X184.28Y-60.62
T4
X134.0Y-44.0
X136.54Y-44.0
X139.08Y-44.0
X141.62Y-44.0
X144.16Y-44.0
X146.7Y-44.0
X149.24Y-44.0
X151.78Y-44.0
X154.32Y-44.0
X156.86Y-44.0
X159.4Y-44.0
X161.94Y-44.0
T5
X116.0Y-36.0
X118.54Y-36.0
X121.08Y-36.0
X123.62Y-36.0
X126.16Y-36.0
X128.7Y-36.0
X131.24Y-36.0
X133.78Y-36.0
X136.32Y-36.0
X138.86Y-36.0
X141.4Y-36.0
X143.94Y-36.0
X146.48Y-36.0
X149.02Y-36.0
X151.56Y-36.0
X154.1Y-36.0
T6
X112.65Y-78.54
X112.65Y-99.54
X112.65Y-120.54
X112.65Y-141.54
X119.0Y-76.0
X119.0Y-97.0
X119.0Y-118.0
X119.0Y-139.0
X133.65Y-78.54
X133.65Y-99.54
X133.65Y-120.54
X133.65Y-141.54
X140.0Y-76.0
X140.0Y-97.0
X140.0Y-118.0
X140.0Y-139.0
X154.65Y-78.54
X154.65Y-99.54
X154.65Y-120.54
X154.65Y-141.54
X161.0Y-76.0
X161.0Y-97.0
X161.0Y-118.0
X161.0Y-139.0
X175.65Y-78.54
X175.65Y-99.54
X175.65Y-120.54
X175.65Y-141.54
X182.0Y-76.0
X182.0Y-97.0
X182.0Y-118.0
X182.0Y-139.0
T7
X110.501Y-67.001
X185.499Y-67.001
T8
X109.0Y-35.0
X109.0Y-157.0
X187.0Y-35.0
X187.0Y-157.0
T9
X111.38Y-81.08
X111.38Y-102.08
X111.38Y-123.08
X111.38Y-144.08
X121.54Y-81.08
X121.54Y-102.08
X121.54Y-123.08
X121.54Y-144.08
X132.38Y-81.08
X132.38Y-102.08
X132.38Y-123.08
X132.38Y-144.08
X142.54Y-81.08
X142.54Y-102.08
X142.54Y-123.08
X142.54Y-144.08
X153.38Y-81.08
X153.38Y-102.08
X153.38Y-123.08
X153.38Y-144.08
X163.54Y-81.08
X163.54Y-102.08
X163.54Y-123.08
X163.54Y-144.08
X174.38Y-81.08
X174.38Y-102.08
X174.38Y-123.08
X174.38Y-144.08
X184.54Y-81.08
X184.54Y-102.08
X184.54Y-123.08
X184.54Y-144.08
T10
X116.46Y-81.08
X116.46Y-102.08
X116.46Y-123.08
X116.46Y-144.08
X137.46Y-81.08
X137.46Y-102.08
X137.46Y-123.08
X137.46Y-144.08
X158.46Y-81.08
X158.46Y-102.08
X158.46Y-123.08
X158.46Y-144.08
X179.46Y-81.08
X179.46Y-102.08
X179.46Y-123.08
X179.46Y-144.08
T0
M30
