G04 #@! TF.GenerationSoftware,KiCad,Pcbnew,5.1.9+dfsg1-1*
G04 #@! TF.CreationDate,2022-06-11T23:02:00-07:00*
G04 #@! TF.ProjectId,keypad,6b657970-6164-42e6-9b69-6361645f7063,rev?*
G04 #@! TF.SameCoordinates,Original*
G04 #@! TF.FileFunction,Soldermask,Bot*
G04 #@! TF.FilePolarity,Negative*
%FSLAX46Y46*%
G04 Gerber Fmt 4.6, Leading zero omitted, Abs format (unit mm)*
G04 Created by KiCad (PCBNEW 5.1.9+dfsg1-1) date 2022-06-11 23:02:00*
%MOMM*%
%LPD*%
G01*
G04 APERTURE LIST*
%ADD10R,1.700000X1.700000*%
%ADD11O,1.700000X1.700000*%
%ADD12R,1.600000X1.600000*%
%ADD13R,1.100000X1.600000*%
%ADD14C,8.600000*%
%ADD15C,0.900000*%
%ADD16R,1.600000X2.400000*%
%ADD17O,1.600000X2.400000*%
%ADD18C,2.200000*%
%ADD19C,4.000000*%
%ADD20C,1.700000*%
%ADD21R,1.800000X2.600000*%
%ADD22O,1.800000X2.600000*%
%ADD23C,3.000000*%
G04 APERTURE END LIST*
D10*
G04 #@! TO.C,J1*
X134000000Y-44000000D03*
D11*
X136540000Y-44000000D03*
X139080000Y-44000000D03*
X141620000Y-44000000D03*
X144160000Y-44000000D03*
X146700000Y-44000000D03*
X149240000Y-44000000D03*
X151780000Y-44000000D03*
X154320000Y-44000000D03*
X156860000Y-44000000D03*
X159400000Y-44000000D03*
X161940000Y-44000000D03*
G04 #@! TD*
D12*
G04 #@! TO.C,RV1*
X107000000Y-59550000D03*
D13*
X108150000Y-62450000D03*
X105850000Y-62450000D03*
G04 #@! TD*
D14*
G04 #@! TO.C,H1*
X187000000Y-157000000D03*
D15*
X190225000Y-157000000D03*
X189280419Y-159280419D03*
X187000000Y-160225000D03*
X184719581Y-159280419D03*
X183775000Y-157000000D03*
X184719581Y-154719581D03*
X187000000Y-153775000D03*
X189280419Y-154719581D03*
G04 #@! TD*
G04 #@! TO.C,H2*
X111280419Y-154719581D03*
X109000000Y-153775000D03*
X106719581Y-154719581D03*
X105775000Y-157000000D03*
X106719581Y-159280419D03*
X109000000Y-160225000D03*
X111280419Y-159280419D03*
X112225000Y-157000000D03*
D14*
X109000000Y-157000000D03*
G04 #@! TD*
D16*
G04 #@! TO.C,U2*
X112000000Y-53000000D03*
D17*
X129780000Y-60620000D03*
X114540000Y-53000000D03*
X127240000Y-60620000D03*
X117080000Y-53000000D03*
X124700000Y-60620000D03*
X119620000Y-53000000D03*
X122160000Y-60620000D03*
X122160000Y-53000000D03*
X119620000Y-60620000D03*
X124700000Y-53000000D03*
X117080000Y-60620000D03*
X127240000Y-53000000D03*
X114540000Y-60620000D03*
X129780000Y-53000000D03*
X112000000Y-60620000D03*
G04 #@! TD*
G04 #@! TO.C,U3*
X166500000Y-60620000D03*
X184280000Y-53000000D03*
X169040000Y-60620000D03*
X181740000Y-53000000D03*
X171580000Y-60620000D03*
X179200000Y-53000000D03*
X174120000Y-60620000D03*
X176660000Y-53000000D03*
X176660000Y-60620000D03*
X174120000Y-53000000D03*
X179200000Y-60620000D03*
X171580000Y-53000000D03*
X181740000Y-60620000D03*
X169040000Y-53000000D03*
X184280000Y-60620000D03*
D16*
X166500000Y-53000000D03*
G04 #@! TD*
D15*
G04 #@! TO.C,H3*
X189280419Y-32719581D03*
X187000000Y-31775000D03*
X184719581Y-32719581D03*
X183775000Y-35000000D03*
X184719581Y-37280419D03*
X187000000Y-38225000D03*
X189280419Y-37280419D03*
X190225000Y-35000000D03*
D14*
X187000000Y-35000000D03*
G04 #@! TD*
G04 #@! TO.C,H4*
X109000000Y-35000000D03*
D15*
X112225000Y-35000000D03*
X111280419Y-37280419D03*
X109000000Y-38225000D03*
X106719581Y-37280419D03*
X105775000Y-35000000D03*
X106719581Y-32719581D03*
X109000000Y-31775000D03*
X111280419Y-32719581D03*
G04 #@! TD*
G04 #@! TO.C,R1*
G36*
G01*
X108425000Y-71237500D02*
X108425000Y-70762500D01*
G75*
G02*
X108662500Y-70525000I237500J0D01*
G01*
X109162500Y-70525000D01*
G75*
G02*
X109400000Y-70762500I0J-237500D01*
G01*
X109400000Y-71237500D01*
G75*
G02*
X109162500Y-71475000I-237500J0D01*
G01*
X108662500Y-71475000D01*
G75*
G02*
X108425000Y-71237500I0J237500D01*
G01*
G37*
G36*
G01*
X106600000Y-71237500D02*
X106600000Y-70762500D01*
G75*
G02*
X106837500Y-70525000I237500J0D01*
G01*
X107337500Y-70525000D01*
G75*
G02*
X107575000Y-70762500I0J-237500D01*
G01*
X107575000Y-71237500D01*
G75*
G02*
X107337500Y-71475000I-237500J0D01*
G01*
X106837500Y-71475000D01*
G75*
G02*
X106600000Y-71237500I0J237500D01*
G01*
G37*
G04 #@! TD*
G04 #@! TO.C,R2*
G36*
G01*
X106600000Y-113237500D02*
X106600000Y-112762500D01*
G75*
G02*
X106837500Y-112525000I237500J0D01*
G01*
X107337500Y-112525000D01*
G75*
G02*
X107575000Y-112762500I0J-237500D01*
G01*
X107575000Y-113237500D01*
G75*
G02*
X107337500Y-113475000I-237500J0D01*
G01*
X106837500Y-113475000D01*
G75*
G02*
X106600000Y-113237500I0J237500D01*
G01*
G37*
G36*
G01*
X108425000Y-113237500D02*
X108425000Y-112762500D01*
G75*
G02*
X108662500Y-112525000I237500J0D01*
G01*
X109162500Y-112525000D01*
G75*
G02*
X109400000Y-112762500I0J-237500D01*
G01*
X109400000Y-113237500D01*
G75*
G02*
X109162500Y-113475000I-237500J0D01*
G01*
X108662500Y-113475000D01*
G75*
G02*
X108425000Y-113237500I0J237500D01*
G01*
G37*
G04 #@! TD*
G04 #@! TO.C,R3*
G36*
G01*
X148600000Y-71237500D02*
X148600000Y-70762500D01*
G75*
G02*
X148837500Y-70525000I237500J0D01*
G01*
X149337500Y-70525000D01*
G75*
G02*
X149575000Y-70762500I0J-237500D01*
G01*
X149575000Y-71237500D01*
G75*
G02*
X149337500Y-71475000I-237500J0D01*
G01*
X148837500Y-71475000D01*
G75*
G02*
X148600000Y-71237500I0J237500D01*
G01*
G37*
G36*
G01*
X150425000Y-71237500D02*
X150425000Y-70762500D01*
G75*
G02*
X150662500Y-70525000I237500J0D01*
G01*
X151162500Y-70525000D01*
G75*
G02*
X151400000Y-70762500I0J-237500D01*
G01*
X151400000Y-71237500D01*
G75*
G02*
X151162500Y-71475000I-237500J0D01*
G01*
X150662500Y-71475000D01*
G75*
G02*
X150425000Y-71237500I0J237500D01*
G01*
G37*
G04 #@! TD*
G04 #@! TO.C,R4*
G36*
G01*
X148600000Y-113237500D02*
X148600000Y-112762500D01*
G75*
G02*
X148837500Y-112525000I237500J0D01*
G01*
X149337500Y-112525000D01*
G75*
G02*
X149575000Y-112762500I0J-237500D01*
G01*
X149575000Y-113237500D01*
G75*
G02*
X149337500Y-113475000I-237500J0D01*
G01*
X148837500Y-113475000D01*
G75*
G02*
X148600000Y-113237500I0J237500D01*
G01*
G37*
G36*
G01*
X150425000Y-113237500D02*
X150425000Y-112762500D01*
G75*
G02*
X150662500Y-112525000I237500J0D01*
G01*
X151162500Y-112525000D01*
G75*
G02*
X151400000Y-112762500I0J-237500D01*
G01*
X151400000Y-113237500D01*
G75*
G02*
X151162500Y-113475000I-237500J0D01*
G01*
X150662500Y-113475000D01*
G75*
G02*
X150425000Y-113237500I0J237500D01*
G01*
G37*
G04 #@! TD*
G04 #@! TO.C,R5*
G36*
G01*
X127600000Y-71237500D02*
X127600000Y-70762500D01*
G75*
G02*
X127837500Y-70525000I237500J0D01*
G01*
X128337500Y-70525000D01*
G75*
G02*
X128575000Y-70762500I0J-237500D01*
G01*
X128575000Y-71237500D01*
G75*
G02*
X128337500Y-71475000I-237500J0D01*
G01*
X127837500Y-71475000D01*
G75*
G02*
X127600000Y-71237500I0J237500D01*
G01*
G37*
G36*
G01*
X129425000Y-71237500D02*
X129425000Y-70762500D01*
G75*
G02*
X129662500Y-70525000I237500J0D01*
G01*
X130162500Y-70525000D01*
G75*
G02*
X130400000Y-70762500I0J-237500D01*
G01*
X130400000Y-71237500D01*
G75*
G02*
X130162500Y-71475000I-237500J0D01*
G01*
X129662500Y-71475000D01*
G75*
G02*
X129425000Y-71237500I0J237500D01*
G01*
G37*
G04 #@! TD*
G04 #@! TO.C,R6*
G36*
G01*
X129425000Y-113237500D02*
X129425000Y-112762500D01*
G75*
G02*
X129662500Y-112525000I237500J0D01*
G01*
X130162500Y-112525000D01*
G75*
G02*
X130400000Y-112762500I0J-237500D01*
G01*
X130400000Y-113237500D01*
G75*
G02*
X130162500Y-113475000I-237500J0D01*
G01*
X129662500Y-113475000D01*
G75*
G02*
X129425000Y-113237500I0J237500D01*
G01*
G37*
G36*
G01*
X127600000Y-113237500D02*
X127600000Y-112762500D01*
G75*
G02*
X127837500Y-112525000I237500J0D01*
G01*
X128337500Y-112525000D01*
G75*
G02*
X128575000Y-112762500I0J-237500D01*
G01*
X128575000Y-113237500D01*
G75*
G02*
X128337500Y-113475000I-237500J0D01*
G01*
X127837500Y-113475000D01*
G75*
G02*
X127600000Y-113237500I0J237500D01*
G01*
G37*
G04 #@! TD*
G04 #@! TO.C,R7*
G36*
G01*
X169600000Y-71237500D02*
X169600000Y-70762500D01*
G75*
G02*
X169837500Y-70525000I237500J0D01*
G01*
X170337500Y-70525000D01*
G75*
G02*
X170575000Y-70762500I0J-237500D01*
G01*
X170575000Y-71237500D01*
G75*
G02*
X170337500Y-71475000I-237500J0D01*
G01*
X169837500Y-71475000D01*
G75*
G02*
X169600000Y-71237500I0J237500D01*
G01*
G37*
G36*
G01*
X171425000Y-71237500D02*
X171425000Y-70762500D01*
G75*
G02*
X171662500Y-70525000I237500J0D01*
G01*
X172162500Y-70525000D01*
G75*
G02*
X172400000Y-70762500I0J-237500D01*
G01*
X172400000Y-71237500D01*
G75*
G02*
X172162500Y-71475000I-237500J0D01*
G01*
X171662500Y-71475000D01*
G75*
G02*
X171425000Y-71237500I0J237500D01*
G01*
G37*
G04 #@! TD*
G04 #@! TO.C,R8*
G36*
G01*
X171425000Y-113237500D02*
X171425000Y-112762500D01*
G75*
G02*
X171662500Y-112525000I237500J0D01*
G01*
X172162500Y-112525000D01*
G75*
G02*
X172400000Y-112762500I0J-237500D01*
G01*
X172400000Y-113237500D01*
G75*
G02*
X172162500Y-113475000I-237500J0D01*
G01*
X171662500Y-113475000D01*
G75*
G02*
X171425000Y-113237500I0J237500D01*
G01*
G37*
G36*
G01*
X169600000Y-113237500D02*
X169600000Y-112762500D01*
G75*
G02*
X169837500Y-112525000I237500J0D01*
G01*
X170337500Y-112525000D01*
G75*
G02*
X170575000Y-112762500I0J-237500D01*
G01*
X170575000Y-113237500D01*
G75*
G02*
X170337500Y-113475000I-237500J0D01*
G01*
X169837500Y-113475000D01*
G75*
G02*
X169600000Y-113237500I0J237500D01*
G01*
G37*
G04 #@! TD*
G04 #@! TO.C,R9*
G36*
G01*
X108425000Y-92237500D02*
X108425000Y-91762500D01*
G75*
G02*
X108662500Y-91525000I237500J0D01*
G01*
X109162500Y-91525000D01*
G75*
G02*
X109400000Y-91762500I0J-237500D01*
G01*
X109400000Y-92237500D01*
G75*
G02*
X109162500Y-92475000I-237500J0D01*
G01*
X108662500Y-92475000D01*
G75*
G02*
X108425000Y-92237500I0J237500D01*
G01*
G37*
G36*
G01*
X106600000Y-92237500D02*
X106600000Y-91762500D01*
G75*
G02*
X106837500Y-91525000I237500J0D01*
G01*
X107337500Y-91525000D01*
G75*
G02*
X107575000Y-91762500I0J-237500D01*
G01*
X107575000Y-92237500D01*
G75*
G02*
X107337500Y-92475000I-237500J0D01*
G01*
X106837500Y-92475000D01*
G75*
G02*
X106600000Y-92237500I0J237500D01*
G01*
G37*
G04 #@! TD*
G04 #@! TO.C,R10*
G36*
G01*
X106600000Y-134237500D02*
X106600000Y-133762500D01*
G75*
G02*
X106837500Y-133525000I237500J0D01*
G01*
X107337500Y-133525000D01*
G75*
G02*
X107575000Y-133762500I0J-237500D01*
G01*
X107575000Y-134237500D01*
G75*
G02*
X107337500Y-134475000I-237500J0D01*
G01*
X106837500Y-134475000D01*
G75*
G02*
X106600000Y-134237500I0J237500D01*
G01*
G37*
G36*
G01*
X108425000Y-134237500D02*
X108425000Y-133762500D01*
G75*
G02*
X108662500Y-133525000I237500J0D01*
G01*
X109162500Y-133525000D01*
G75*
G02*
X109400000Y-133762500I0J-237500D01*
G01*
X109400000Y-134237500D01*
G75*
G02*
X109162500Y-134475000I-237500J0D01*
G01*
X108662500Y-134475000D01*
G75*
G02*
X108425000Y-134237500I0J237500D01*
G01*
G37*
G04 #@! TD*
G04 #@! TO.C,R11*
G36*
G01*
X150425000Y-92237500D02*
X150425000Y-91762500D01*
G75*
G02*
X150662500Y-91525000I237500J0D01*
G01*
X151162500Y-91525000D01*
G75*
G02*
X151400000Y-91762500I0J-237500D01*
G01*
X151400000Y-92237500D01*
G75*
G02*
X151162500Y-92475000I-237500J0D01*
G01*
X150662500Y-92475000D01*
G75*
G02*
X150425000Y-92237500I0J237500D01*
G01*
G37*
G36*
G01*
X148600000Y-92237500D02*
X148600000Y-91762500D01*
G75*
G02*
X148837500Y-91525000I237500J0D01*
G01*
X149337500Y-91525000D01*
G75*
G02*
X149575000Y-91762500I0J-237500D01*
G01*
X149575000Y-92237500D01*
G75*
G02*
X149337500Y-92475000I-237500J0D01*
G01*
X148837500Y-92475000D01*
G75*
G02*
X148600000Y-92237500I0J237500D01*
G01*
G37*
G04 #@! TD*
G04 #@! TO.C,R12*
G36*
G01*
X148600000Y-134237500D02*
X148600000Y-133762500D01*
G75*
G02*
X148837500Y-133525000I237500J0D01*
G01*
X149337500Y-133525000D01*
G75*
G02*
X149575000Y-133762500I0J-237500D01*
G01*
X149575000Y-134237500D01*
G75*
G02*
X149337500Y-134475000I-237500J0D01*
G01*
X148837500Y-134475000D01*
G75*
G02*
X148600000Y-134237500I0J237500D01*
G01*
G37*
G36*
G01*
X150425000Y-134237500D02*
X150425000Y-133762500D01*
G75*
G02*
X150662500Y-133525000I237500J0D01*
G01*
X151162500Y-133525000D01*
G75*
G02*
X151400000Y-133762500I0J-237500D01*
G01*
X151400000Y-134237500D01*
G75*
G02*
X151162500Y-134475000I-237500J0D01*
G01*
X150662500Y-134475000D01*
G75*
G02*
X150425000Y-134237500I0J237500D01*
G01*
G37*
G04 #@! TD*
G04 #@! TO.C,R13*
G36*
G01*
X127600000Y-92237500D02*
X127600000Y-91762500D01*
G75*
G02*
X127837500Y-91525000I237500J0D01*
G01*
X128337500Y-91525000D01*
G75*
G02*
X128575000Y-91762500I0J-237500D01*
G01*
X128575000Y-92237500D01*
G75*
G02*
X128337500Y-92475000I-237500J0D01*
G01*
X127837500Y-92475000D01*
G75*
G02*
X127600000Y-92237500I0J237500D01*
G01*
G37*
G36*
G01*
X129425000Y-92237500D02*
X129425000Y-91762500D01*
G75*
G02*
X129662500Y-91525000I237500J0D01*
G01*
X130162500Y-91525000D01*
G75*
G02*
X130400000Y-91762500I0J-237500D01*
G01*
X130400000Y-92237500D01*
G75*
G02*
X130162500Y-92475000I-237500J0D01*
G01*
X129662500Y-92475000D01*
G75*
G02*
X129425000Y-92237500I0J237500D01*
G01*
G37*
G04 #@! TD*
G04 #@! TO.C,R14*
G36*
G01*
X129425000Y-134237500D02*
X129425000Y-133762500D01*
G75*
G02*
X129662500Y-133525000I237500J0D01*
G01*
X130162500Y-133525000D01*
G75*
G02*
X130400000Y-133762500I0J-237500D01*
G01*
X130400000Y-134237500D01*
G75*
G02*
X130162500Y-134475000I-237500J0D01*
G01*
X129662500Y-134475000D01*
G75*
G02*
X129425000Y-134237500I0J237500D01*
G01*
G37*
G36*
G01*
X127600000Y-134237500D02*
X127600000Y-133762500D01*
G75*
G02*
X127837500Y-133525000I237500J0D01*
G01*
X128337500Y-133525000D01*
G75*
G02*
X128575000Y-133762500I0J-237500D01*
G01*
X128575000Y-134237500D01*
G75*
G02*
X128337500Y-134475000I-237500J0D01*
G01*
X127837500Y-134475000D01*
G75*
G02*
X127600000Y-134237500I0J237500D01*
G01*
G37*
G04 #@! TD*
G04 #@! TO.C,R15*
G36*
G01*
X169600000Y-92237500D02*
X169600000Y-91762500D01*
G75*
G02*
X169837500Y-91525000I237500J0D01*
G01*
X170337500Y-91525000D01*
G75*
G02*
X170575000Y-91762500I0J-237500D01*
G01*
X170575000Y-92237500D01*
G75*
G02*
X170337500Y-92475000I-237500J0D01*
G01*
X169837500Y-92475000D01*
G75*
G02*
X169600000Y-92237500I0J237500D01*
G01*
G37*
G36*
G01*
X171425000Y-92237500D02*
X171425000Y-91762500D01*
G75*
G02*
X171662500Y-91525000I237500J0D01*
G01*
X172162500Y-91525000D01*
G75*
G02*
X172400000Y-91762500I0J-237500D01*
G01*
X172400000Y-92237500D01*
G75*
G02*
X172162500Y-92475000I-237500J0D01*
G01*
X171662500Y-92475000D01*
G75*
G02*
X171425000Y-92237500I0J237500D01*
G01*
G37*
G04 #@! TD*
G04 #@! TO.C,R16*
G36*
G01*
X171425000Y-134237500D02*
X171425000Y-133762500D01*
G75*
G02*
X171662500Y-133525000I237500J0D01*
G01*
X172162500Y-133525000D01*
G75*
G02*
X172400000Y-133762500I0J-237500D01*
G01*
X172400000Y-134237500D01*
G75*
G02*
X172162500Y-134475000I-237500J0D01*
G01*
X171662500Y-134475000D01*
G75*
G02*
X171425000Y-134237500I0J237500D01*
G01*
G37*
G36*
G01*
X169600000Y-134237500D02*
X169600000Y-133762500D01*
G75*
G02*
X169837500Y-133525000I237500J0D01*
G01*
X170337500Y-133525000D01*
G75*
G02*
X170575000Y-133762500I0J-237500D01*
G01*
X170575000Y-134237500D01*
G75*
G02*
X170337500Y-134475000I-237500J0D01*
G01*
X169837500Y-134475000D01*
G75*
G02*
X169600000Y-134237500I0J237500D01*
G01*
G37*
G04 #@! TD*
G04 #@! TO.C,R17*
G36*
G01*
X124600000Y-32237500D02*
X124600000Y-31762500D01*
G75*
G02*
X124837500Y-31525000I237500J0D01*
G01*
X125337500Y-31525000D01*
G75*
G02*
X125575000Y-31762500I0J-237500D01*
G01*
X125575000Y-32237500D01*
G75*
G02*
X125337500Y-32475000I-237500J0D01*
G01*
X124837500Y-32475000D01*
G75*
G02*
X124600000Y-32237500I0J237500D01*
G01*
G37*
G36*
G01*
X126425000Y-32237500D02*
X126425000Y-31762500D01*
G75*
G02*
X126662500Y-31525000I237500J0D01*
G01*
X127162500Y-31525000D01*
G75*
G02*
X127400000Y-31762500I0J-237500D01*
G01*
X127400000Y-32237500D01*
G75*
G02*
X127162500Y-32475000I-237500J0D01*
G01*
X126662500Y-32475000D01*
G75*
G02*
X126425000Y-32237500I0J237500D01*
G01*
G37*
G04 #@! TD*
G04 #@! TO.C,R18*
G36*
G01*
X111968458Y-47867418D02*
X111632582Y-47531542D01*
G75*
G02*
X111632582Y-47195666I167938J167938D01*
G01*
X111986136Y-46842112D01*
G75*
G02*
X112322012Y-46842112I167938J-167938D01*
G01*
X112657888Y-47177988D01*
G75*
G02*
X112657888Y-47513864I-167938J-167938D01*
G01*
X112304334Y-47867418D01*
G75*
G02*
X111968458Y-47867418I-167938J167938D01*
G01*
G37*
G36*
G01*
X110677988Y-49157888D02*
X110342112Y-48822012D01*
G75*
G02*
X110342112Y-48486136I167938J167938D01*
G01*
X110695666Y-48132582D01*
G75*
G02*
X111031542Y-48132582I167938J-167938D01*
G01*
X111367418Y-48468458D01*
G75*
G02*
X111367418Y-48804334I-167938J-167938D01*
G01*
X111013864Y-49157888D01*
G75*
G02*
X110677988Y-49157888I-167938J167938D01*
G01*
G37*
G04 #@! TD*
G04 #@! TO.C,R19*
G36*
G01*
X125237500Y-49400000D02*
X124762500Y-49400000D01*
G75*
G02*
X124525000Y-49162500I0J237500D01*
G01*
X124525000Y-48662500D01*
G75*
G02*
X124762500Y-48425000I237500J0D01*
G01*
X125237500Y-48425000D01*
G75*
G02*
X125475000Y-48662500I0J-237500D01*
G01*
X125475000Y-49162500D01*
G75*
G02*
X125237500Y-49400000I-237500J0D01*
G01*
G37*
G36*
G01*
X125237500Y-47575000D02*
X124762500Y-47575000D01*
G75*
G02*
X124525000Y-47337500I0J237500D01*
G01*
X124525000Y-46837500D01*
G75*
G02*
X124762500Y-46600000I237500J0D01*
G01*
X125237500Y-46600000D01*
G75*
G02*
X125475000Y-46837500I0J-237500D01*
G01*
X125475000Y-47337500D01*
G75*
G02*
X125237500Y-47575000I-237500J0D01*
G01*
G37*
G04 #@! TD*
G04 #@! TO.C,R20*
G36*
G01*
X135237500Y-60575000D02*
X134762500Y-60575000D01*
G75*
G02*
X134525000Y-60337500I0J237500D01*
G01*
X134525000Y-59837500D01*
G75*
G02*
X134762500Y-59600000I237500J0D01*
G01*
X135237500Y-59600000D01*
G75*
G02*
X135475000Y-59837500I0J-237500D01*
G01*
X135475000Y-60337500D01*
G75*
G02*
X135237500Y-60575000I-237500J0D01*
G01*
G37*
G36*
G01*
X135237500Y-62400000D02*
X134762500Y-62400000D01*
G75*
G02*
X134525000Y-62162500I0J237500D01*
G01*
X134525000Y-61662500D01*
G75*
G02*
X134762500Y-61425000I237500J0D01*
G01*
X135237500Y-61425000D01*
G75*
G02*
X135475000Y-61662500I0J-237500D01*
G01*
X135475000Y-62162500D01*
G75*
G02*
X135237500Y-62400000I-237500J0D01*
G01*
G37*
G04 #@! TD*
G04 #@! TO.C,R21*
G36*
G01*
X180600000Y-48987500D02*
X180600000Y-48512500D01*
G75*
G02*
X180837500Y-48275000I237500J0D01*
G01*
X181337500Y-48275000D01*
G75*
G02*
X181575000Y-48512500I0J-237500D01*
G01*
X181575000Y-48987500D01*
G75*
G02*
X181337500Y-49225000I-237500J0D01*
G01*
X180837500Y-49225000D01*
G75*
G02*
X180600000Y-48987500I0J237500D01*
G01*
G37*
G36*
G01*
X182425000Y-48987500D02*
X182425000Y-48512500D01*
G75*
G02*
X182662500Y-48275000I237500J0D01*
G01*
X183162500Y-48275000D01*
G75*
G02*
X183400000Y-48512500I0J-237500D01*
G01*
X183400000Y-48987500D01*
G75*
G02*
X183162500Y-49225000I-237500J0D01*
G01*
X182662500Y-49225000D01*
G75*
G02*
X182425000Y-48987500I0J237500D01*
G01*
G37*
G04 #@! TD*
G04 #@! TO.C,R22*
G36*
G01*
X189737500Y-60575000D02*
X189262500Y-60575000D01*
G75*
G02*
X189025000Y-60337500I0J237500D01*
G01*
X189025000Y-59837500D01*
G75*
G02*
X189262500Y-59600000I237500J0D01*
G01*
X189737500Y-59600000D01*
G75*
G02*
X189975000Y-59837500I0J-237500D01*
G01*
X189975000Y-60337500D01*
G75*
G02*
X189737500Y-60575000I-237500J0D01*
G01*
G37*
G36*
G01*
X189737500Y-62400000D02*
X189262500Y-62400000D01*
G75*
G02*
X189025000Y-62162500I0J237500D01*
G01*
X189025000Y-61662500D01*
G75*
G02*
X189262500Y-61425000I237500J0D01*
G01*
X189737500Y-61425000D01*
G75*
G02*
X189975000Y-61662500I0J-237500D01*
G01*
X189975000Y-62162500D01*
G75*
G02*
X189737500Y-62400000I-237500J0D01*
G01*
G37*
G04 #@! TD*
G04 #@! TO.C,R23*
G36*
G01*
X158575000Y-39762500D02*
X158575000Y-40237500D01*
G75*
G02*
X158337500Y-40475000I-237500J0D01*
G01*
X157837500Y-40475000D01*
G75*
G02*
X157600000Y-40237500I0J237500D01*
G01*
X157600000Y-39762500D01*
G75*
G02*
X157837500Y-39525000I237500J0D01*
G01*
X158337500Y-39525000D01*
G75*
G02*
X158575000Y-39762500I0J-237500D01*
G01*
G37*
G36*
G01*
X160400000Y-39762500D02*
X160400000Y-40237500D01*
G75*
G02*
X160162500Y-40475000I-237500J0D01*
G01*
X159662500Y-40475000D01*
G75*
G02*
X159425000Y-40237500I0J237500D01*
G01*
X159425000Y-39762500D01*
G75*
G02*
X159662500Y-39525000I237500J0D01*
G01*
X160162500Y-39525000D01*
G75*
G02*
X160400000Y-39762500I0J-237500D01*
G01*
G37*
G04 #@! TD*
D18*
G04 #@! TO.C,SW_0*
X140000000Y-139000000D03*
X133650000Y-141540000D03*
D19*
X137460000Y-144080000D03*
D20*
X132380000Y-144080000D03*
X142540000Y-144080000D03*
G04 #@! TD*
G04 #@! TO.C,SW_1*
X121540000Y-81080000D03*
X111380000Y-81080000D03*
D19*
X116460000Y-81080000D03*
D18*
X112650000Y-78540000D03*
X119000000Y-76000000D03*
G04 #@! TD*
G04 #@! TO.C,SW_2*
X140000000Y-76000000D03*
X133650000Y-78540000D03*
D19*
X137460000Y-81080000D03*
D20*
X132380000Y-81080000D03*
X142540000Y-81080000D03*
G04 #@! TD*
D18*
G04 #@! TO.C,SW_3*
X161000000Y-76000000D03*
X154650000Y-78540000D03*
D19*
X158460000Y-81080000D03*
D20*
X153380000Y-81080000D03*
X163540000Y-81080000D03*
G04 #@! TD*
G04 #@! TO.C,SW_4*
X121540000Y-102080000D03*
X111380000Y-102080000D03*
D19*
X116460000Y-102080000D03*
D18*
X112650000Y-99540000D03*
X119000000Y-97000000D03*
G04 #@! TD*
G04 #@! TO.C,SW_5*
X140000000Y-97000000D03*
X133650000Y-99540000D03*
D19*
X137460000Y-102080000D03*
D20*
X132380000Y-102080000D03*
X142540000Y-102080000D03*
G04 #@! TD*
D18*
G04 #@! TO.C,SW_6*
X161000000Y-97000000D03*
X154650000Y-99540000D03*
D19*
X158460000Y-102080000D03*
D20*
X153380000Y-102080000D03*
X163540000Y-102080000D03*
G04 #@! TD*
G04 #@! TO.C,SW_7*
X121540000Y-123080000D03*
X111380000Y-123080000D03*
D19*
X116460000Y-123080000D03*
D18*
X112650000Y-120540000D03*
X119000000Y-118000000D03*
G04 #@! TD*
G04 #@! TO.C,SW_8*
X140000000Y-118000000D03*
X133650000Y-120540000D03*
D19*
X137460000Y-123080000D03*
D20*
X132380000Y-123080000D03*
X142540000Y-123080000D03*
G04 #@! TD*
D18*
G04 #@! TO.C,SW_9*
X161000000Y-118000000D03*
X154650000Y-120540000D03*
D19*
X158460000Y-123080000D03*
D20*
X153380000Y-123080000D03*
X163540000Y-123080000D03*
G04 #@! TD*
G04 #@! TO.C,SW_A1*
X184540000Y-81080000D03*
X174380000Y-81080000D03*
D19*
X179460000Y-81080000D03*
D18*
X175650000Y-78540000D03*
X182000000Y-76000000D03*
G04 #@! TD*
D20*
G04 #@! TO.C,SW_B1*
X184540000Y-102080000D03*
X174380000Y-102080000D03*
D19*
X179460000Y-102080000D03*
D18*
X175650000Y-99540000D03*
X182000000Y-97000000D03*
G04 #@! TD*
D20*
G04 #@! TO.C,SW_C1*
X184540000Y-123080000D03*
X174380000Y-123080000D03*
D19*
X179460000Y-123080000D03*
D18*
X175650000Y-120540000D03*
X182000000Y-118000000D03*
G04 #@! TD*
D20*
G04 #@! TO.C,SW_D1*
X184540000Y-144080000D03*
X174380000Y-144080000D03*
D19*
X179460000Y-144080000D03*
D18*
X175650000Y-141540000D03*
X182000000Y-139000000D03*
G04 #@! TD*
G04 #@! TO.C,SW_OCTO1*
X161000000Y-139000000D03*
X154650000Y-141540000D03*
D19*
X158460000Y-144080000D03*
D20*
X153380000Y-144080000D03*
X163540000Y-144080000D03*
G04 #@! TD*
G04 #@! TO.C,SW_STAR1*
X121540000Y-144080000D03*
X111380000Y-144080000D03*
D19*
X116460000Y-144080000D03*
D18*
X112650000Y-141540000D03*
X119000000Y-139000000D03*
G04 #@! TD*
D21*
G04 #@! TO.C,U1*
X116000000Y-36000000D03*
D22*
X118540000Y-36000000D03*
X121080000Y-36000000D03*
X123620000Y-36000000D03*
X126160000Y-36000000D03*
X128700000Y-36000000D03*
X131240000Y-36000000D03*
X133780000Y-36000000D03*
X136320000Y-36000000D03*
X138860000Y-36000000D03*
X141400000Y-36000000D03*
X143940000Y-36000000D03*
X146480000Y-36000000D03*
X149020000Y-36000000D03*
X151560000Y-36000000D03*
X154100000Y-36000000D03*
D23*
X110500900Y-67000700D03*
X185499480Y-67000700D03*
G04 #@! TD*
M02*
