G04 #@! TF.GenerationSoftware,KiCad,Pcbnew,5.1.9+dfsg1-1*
G04 #@! TF.CreationDate,2022-06-11T23:02:00-07:00*
G04 #@! TF.ProjectId,keypad,6b657970-6164-42e6-9b69-6361645f7063,rev?*
G04 #@! TF.SameCoordinates,Original*
G04 #@! TF.FileFunction,Legend,Bot*
G04 #@! TF.FilePolarity,Positive*
%FSLAX46Y46*%
G04 Gerber Fmt 4.6, Leading zero omitted, Abs format (unit mm)*
G04 Created by KiCad (PCBNEW 5.1.9+dfsg1-1) date 2022-06-11 23:02:00*
%MOMM*%
%LPD*%
G01*
G04 APERTURE LIST*
%ADD10C,0.300000*%
%ADD11C,0.500000*%
%ADD12C,0.200000*%
%ADD13C,0.127000*%
%ADD14C,0.120000*%
%ADD15C,0.250000*%
%ADD16C,0.150000*%
G04 APERTURE END LIST*
D10*
X181447857Y-31128571D02*
X181447857Y-32342857D01*
X181376428Y-32485714D01*
X181305000Y-32557142D01*
X181162142Y-32628571D01*
X180876428Y-32628571D01*
X180733571Y-32557142D01*
X180662142Y-32485714D01*
X180590714Y-32342857D01*
X180590714Y-31128571D01*
X179947857Y-32557142D02*
X179733571Y-32628571D01*
X179376428Y-32628571D01*
X179233571Y-32557142D01*
X179162142Y-32485714D01*
X179090714Y-32342857D01*
X179090714Y-32200000D01*
X179162142Y-32057142D01*
X179233571Y-31985714D01*
X179376428Y-31914285D01*
X179662142Y-31842857D01*
X179805000Y-31771428D01*
X179876428Y-31700000D01*
X179947857Y-31557142D01*
X179947857Y-31414285D01*
X179876428Y-31271428D01*
X179805000Y-31200000D01*
X179662142Y-31128571D01*
X179305000Y-31128571D01*
X179090714Y-31200000D01*
X178447857Y-31842857D02*
X177947857Y-31842857D01*
X177733571Y-32628571D02*
X178447857Y-32628571D01*
X178447857Y-31128571D01*
X177733571Y-31128571D01*
X181447857Y-35178571D02*
X181447857Y-33678571D01*
X180947857Y-34750000D01*
X180447857Y-33678571D01*
X180447857Y-35178571D01*
X179876428Y-33678571D02*
X178947857Y-33678571D01*
X179447857Y-34250000D01*
X179233571Y-34250000D01*
X179090714Y-34321428D01*
X179019285Y-34392857D01*
X178947857Y-34535714D01*
X178947857Y-34892857D01*
X179019285Y-35035714D01*
X179090714Y-35107142D01*
X179233571Y-35178571D01*
X179662142Y-35178571D01*
X179805000Y-35107142D01*
X179876428Y-35035714D01*
X181519285Y-37657142D02*
X181305000Y-37728571D01*
X180947857Y-37728571D01*
X180805000Y-37657142D01*
X180733571Y-37585714D01*
X180662142Y-37442857D01*
X180662142Y-37300000D01*
X180733571Y-37157142D01*
X180805000Y-37085714D01*
X180947857Y-37014285D01*
X181233571Y-36942857D01*
X181376428Y-36871428D01*
X181447857Y-36800000D01*
X181519285Y-36657142D01*
X181519285Y-36514285D01*
X181447857Y-36371428D01*
X181376428Y-36300000D01*
X181233571Y-36228571D01*
X180876428Y-36228571D01*
X180662142Y-36300000D01*
X179162142Y-37585714D02*
X179233571Y-37657142D01*
X179447857Y-37728571D01*
X179590714Y-37728571D01*
X179805000Y-37657142D01*
X179947857Y-37514285D01*
X180019285Y-37371428D01*
X180090714Y-37085714D01*
X180090714Y-36871428D01*
X180019285Y-36585714D01*
X179947857Y-36442857D01*
X179805000Y-36300000D01*
X179590714Y-36228571D01*
X179447857Y-36228571D01*
X179233571Y-36300000D01*
X179162142Y-36371428D01*
X177662142Y-37728571D02*
X178162142Y-37014285D01*
X178519285Y-37728571D02*
X178519285Y-36228571D01*
X177947857Y-36228571D01*
X177805000Y-36300000D01*
X177733571Y-36371428D01*
X177662142Y-36514285D01*
X177662142Y-36728571D01*
X177733571Y-36871428D01*
X177805000Y-36942857D01*
X177947857Y-37014285D01*
X178519285Y-37014285D01*
X177019285Y-36942857D02*
X176519285Y-36942857D01*
X176305000Y-37728571D02*
X177019285Y-37728571D01*
X177019285Y-36228571D01*
X176305000Y-36228571D01*
X175805000Y-36228571D02*
X175447857Y-37728571D01*
X175162142Y-36657142D01*
X174876428Y-37728571D01*
X174519285Y-36228571D01*
X174019285Y-37657142D02*
X173805000Y-37728571D01*
X173447857Y-37728571D01*
X173305000Y-37657142D01*
X173233571Y-37585714D01*
X173162142Y-37442857D01*
X173162142Y-37300000D01*
X173233571Y-37157142D01*
X173305000Y-37085714D01*
X173447857Y-37014285D01*
X173733571Y-36942857D01*
X173876428Y-36871428D01*
X173947857Y-36800000D01*
X174019285Y-36657142D01*
X174019285Y-36514285D01*
X173947857Y-36371428D01*
X173876428Y-36300000D01*
X173733571Y-36228571D01*
X173376428Y-36228571D01*
X173162142Y-36300000D01*
D11*
X191000000Y-70500000D02*
X189000000Y-70500000D01*
X191000000Y-112500000D02*
X191000000Y-70500000D01*
X191000000Y-112500000D02*
X191000000Y-154000000D01*
X189000000Y-112500000D02*
X191000000Y-112500000D01*
D10*
X151678571Y-85128571D02*
X151678571Y-83628571D01*
X149607142Y-85128571D02*
X149750000Y-85057142D01*
X149821428Y-84985714D01*
X149892857Y-84842857D01*
X149892857Y-84414285D01*
X149821428Y-84271428D01*
X149750000Y-84200000D01*
X149607142Y-84128571D01*
X149392857Y-84128571D01*
X149250000Y-84200000D01*
X149178571Y-84271428D01*
X149107142Y-84414285D01*
X149107142Y-84842857D01*
X149178571Y-84985714D01*
X149250000Y-85057142D01*
X149392857Y-85128571D01*
X149607142Y-85128571D01*
X148464285Y-84128571D02*
X148464285Y-85128571D01*
X148464285Y-84271428D02*
X148392857Y-84200000D01*
X148250000Y-84128571D01*
X148035714Y-84128571D01*
X147892857Y-84200000D01*
X147821428Y-84342857D01*
X147821428Y-85128571D01*
X146892857Y-85128571D02*
X147035714Y-85057142D01*
X147107142Y-84914285D01*
X147107142Y-83628571D01*
X146464285Y-84128571D02*
X146107142Y-85128571D01*
X145750000Y-84128571D02*
X146107142Y-85128571D01*
X146250000Y-85485714D01*
X146321428Y-85557142D01*
X146464285Y-85628571D01*
X143392857Y-85057142D02*
X143535714Y-85128571D01*
X143821428Y-85128571D01*
X143964285Y-85057142D01*
X144035714Y-84985714D01*
X144107142Y-84842857D01*
X144107142Y-84414285D01*
X144035714Y-84271428D01*
X143964285Y-84200000D01*
X143821428Y-84128571D01*
X143535714Y-84128571D01*
X143392857Y-84200000D01*
X142107142Y-85128571D02*
X142107142Y-84342857D01*
X142178571Y-84200000D01*
X142321428Y-84128571D01*
X142607142Y-84128571D01*
X142750000Y-84200000D01*
X142107142Y-85057142D02*
X142250000Y-85128571D01*
X142607142Y-85128571D01*
X142750000Y-85057142D01*
X142821428Y-84914285D01*
X142821428Y-84771428D01*
X142750000Y-84628571D01*
X142607142Y-84557142D01*
X142250000Y-84557142D01*
X142107142Y-84485714D01*
X141392857Y-85128571D02*
X141392857Y-84128571D01*
X141392857Y-84271428D02*
X141321428Y-84200000D01*
X141178571Y-84128571D01*
X140964285Y-84128571D01*
X140821428Y-84200000D01*
X140750000Y-84342857D01*
X140750000Y-85128571D01*
X140750000Y-84342857D02*
X140678571Y-84200000D01*
X140535714Y-84128571D01*
X140321428Y-84128571D01*
X140178571Y-84200000D01*
X140107142Y-84342857D01*
X140107142Y-85128571D01*
X138821428Y-85057142D02*
X138964285Y-85128571D01*
X139250000Y-85128571D01*
X139392857Y-85057142D01*
X139464285Y-84914285D01*
X139464285Y-84342857D01*
X139392857Y-84200000D01*
X139250000Y-84128571D01*
X138964285Y-84128571D01*
X138821428Y-84200000D01*
X138750000Y-84342857D01*
X138750000Y-84485714D01*
X139464285Y-84628571D01*
X137178571Y-84128571D02*
X136607142Y-84128571D01*
X136964285Y-83628571D02*
X136964285Y-84914285D01*
X136892857Y-85057142D01*
X136750000Y-85128571D01*
X136607142Y-85128571D01*
X135892857Y-85128571D02*
X136035714Y-85057142D01*
X136107142Y-84985714D01*
X136178571Y-84842857D01*
X136178571Y-84414285D01*
X136107142Y-84271428D01*
X136035714Y-84200000D01*
X135892857Y-84128571D01*
X135678571Y-84128571D01*
X135535714Y-84200000D01*
X135464285Y-84271428D01*
X135392857Y-84414285D01*
X135392857Y-84842857D01*
X135464285Y-84985714D01*
X135535714Y-85057142D01*
X135678571Y-85128571D01*
X135892857Y-85128571D01*
X148250000Y-86178571D02*
X147750000Y-87678571D01*
X147250000Y-86178571D01*
X146178571Y-87607142D02*
X146321428Y-87678571D01*
X146607142Y-87678571D01*
X146750000Y-87607142D01*
X146821428Y-87464285D01*
X146821428Y-86892857D01*
X146750000Y-86750000D01*
X146607142Y-86678571D01*
X146321428Y-86678571D01*
X146178571Y-86750000D01*
X146107142Y-86892857D01*
X146107142Y-87035714D01*
X146821428Y-87178571D01*
X144821428Y-86678571D02*
X144821428Y-87892857D01*
X144892857Y-88035714D01*
X144964285Y-88107142D01*
X145107142Y-88178571D01*
X145321428Y-88178571D01*
X145464285Y-88107142D01*
X144821428Y-87607142D02*
X144964285Y-87678571D01*
X145250000Y-87678571D01*
X145392857Y-87607142D01*
X145464285Y-87535714D01*
X145535714Y-87392857D01*
X145535714Y-86964285D01*
X145464285Y-86821428D01*
X145392857Y-86750000D01*
X145250000Y-86678571D01*
X144964285Y-86678571D01*
X144821428Y-86750000D01*
X143464285Y-87678571D02*
X143464285Y-86892857D01*
X143535714Y-86750000D01*
X143678571Y-86678571D01*
X143964285Y-86678571D01*
X144107142Y-86750000D01*
X143464285Y-87607142D02*
X143607142Y-87678571D01*
X143964285Y-87678571D01*
X144107142Y-87607142D01*
X144178571Y-87464285D01*
X144178571Y-87321428D01*
X144107142Y-87178571D01*
X143964285Y-87107142D01*
X143607142Y-87107142D01*
X143464285Y-87035714D01*
X142821428Y-87607142D02*
X142678571Y-87678571D01*
X142392857Y-87678571D01*
X142250000Y-87607142D01*
X142178571Y-87464285D01*
X142178571Y-87392857D01*
X142250000Y-87250000D01*
X142392857Y-87178571D01*
X142607142Y-87178571D01*
X142750000Y-87107142D01*
X142821428Y-86964285D01*
X142821428Y-86892857D01*
X142750000Y-86750000D01*
X142607142Y-86678571D01*
X142392857Y-86678571D01*
X142250000Y-86750000D01*
X140607142Y-86678571D02*
X140035714Y-86678571D01*
X140392857Y-87678571D02*
X140392857Y-86392857D01*
X140321428Y-86250000D01*
X140178571Y-86178571D01*
X140035714Y-86178571D01*
X139321428Y-87678571D02*
X139464285Y-87607142D01*
X139535714Y-87535714D01*
X139607142Y-87392857D01*
X139607142Y-86964285D01*
X139535714Y-86821428D01*
X139464285Y-86750000D01*
X139321428Y-86678571D01*
X139107142Y-86678571D01*
X138964285Y-86750000D01*
X138892857Y-86821428D01*
X138821428Y-86964285D01*
X138821428Y-87392857D01*
X138892857Y-87535714D01*
X138964285Y-87607142D01*
X139107142Y-87678571D01*
X139321428Y-87678571D01*
X138178571Y-87678571D02*
X138178571Y-86678571D01*
X138178571Y-86964285D02*
X138107142Y-86821428D01*
X138035714Y-86750000D01*
X137892857Y-86678571D01*
X137750000Y-86678571D01*
X149821428Y-88728571D02*
X149464285Y-90228571D01*
X149178571Y-89157142D01*
X148892857Y-90228571D01*
X148535714Y-88728571D01*
X147964285Y-90228571D02*
X147964285Y-88728571D01*
X147321428Y-90228571D02*
X147321428Y-89442857D01*
X147392857Y-89300000D01*
X147535714Y-89228571D01*
X147750000Y-89228571D01*
X147892857Y-89300000D01*
X147964285Y-89371428D01*
X146607142Y-90228571D02*
X146607142Y-89228571D01*
X146607142Y-88728571D02*
X146678571Y-88800000D01*
X146607142Y-88871428D01*
X146535714Y-88800000D01*
X146607142Y-88728571D01*
X146607142Y-88871428D01*
X146107142Y-89228571D02*
X145535714Y-89228571D01*
X145892857Y-88728571D02*
X145892857Y-90014285D01*
X145821428Y-90157142D01*
X145678571Y-90228571D01*
X145535714Y-90228571D01*
X144464285Y-90157142D02*
X144607142Y-90228571D01*
X144892857Y-90228571D01*
X145035714Y-90157142D01*
X145107142Y-90014285D01*
X145107142Y-89442857D01*
X145035714Y-89300000D01*
X144892857Y-89228571D01*
X144607142Y-89228571D01*
X144464285Y-89300000D01*
X144392857Y-89442857D01*
X144392857Y-89585714D01*
X145107142Y-89728571D01*
X141750000Y-90085714D02*
X141821428Y-90157142D01*
X142035714Y-90228571D01*
X142178571Y-90228571D01*
X142392857Y-90157142D01*
X142535714Y-90014285D01*
X142607142Y-89871428D01*
X142678571Y-89585714D01*
X142678571Y-89371428D01*
X142607142Y-89085714D01*
X142535714Y-88942857D01*
X142392857Y-88800000D01*
X142178571Y-88728571D01*
X142035714Y-88728571D01*
X141821428Y-88800000D01*
X141750000Y-88871428D01*
X140464285Y-90228571D02*
X140464285Y-89442857D01*
X140535714Y-89300000D01*
X140678571Y-89228571D01*
X140964285Y-89228571D01*
X141107142Y-89300000D01*
X140464285Y-90157142D02*
X140607142Y-90228571D01*
X140964285Y-90228571D01*
X141107142Y-90157142D01*
X141178571Y-90014285D01*
X141178571Y-89871428D01*
X141107142Y-89728571D01*
X140964285Y-89657142D01*
X140607142Y-89657142D01*
X140464285Y-89585714D01*
X139821428Y-90157142D02*
X139678571Y-90228571D01*
X139392857Y-90228571D01*
X139250000Y-90157142D01*
X139178571Y-90014285D01*
X139178571Y-89942857D01*
X139250000Y-89800000D01*
X139392857Y-89728571D01*
X139607142Y-89728571D01*
X139750000Y-89657142D01*
X139821428Y-89514285D01*
X139821428Y-89442857D01*
X139750000Y-89300000D01*
X139607142Y-89228571D01*
X139392857Y-89228571D01*
X139250000Y-89300000D01*
X138750000Y-89228571D02*
X138178571Y-89228571D01*
X138535714Y-88728571D02*
X138535714Y-90014285D01*
X138464285Y-90157142D01*
X138321428Y-90228571D01*
X138178571Y-90228571D01*
X137464285Y-90228571D02*
X137607142Y-90157142D01*
X137678571Y-90014285D01*
X137678571Y-88728571D01*
X136321428Y-90157142D02*
X136464285Y-90228571D01*
X136750000Y-90228571D01*
X136892857Y-90157142D01*
X136964285Y-90014285D01*
X136964285Y-89442857D01*
X136892857Y-89300000D01*
X136750000Y-89228571D01*
X136464285Y-89228571D01*
X136321428Y-89300000D01*
X136250000Y-89442857D01*
X136250000Y-89585714D01*
X136964285Y-89728571D01*
X135635714Y-130003571D02*
X135635714Y-128503571D01*
X133778571Y-129003571D02*
X133778571Y-130289285D01*
X133850000Y-130432142D01*
X133992857Y-130503571D01*
X134064285Y-130503571D01*
X133778571Y-128503571D02*
X133850000Y-128575000D01*
X133778571Y-128646428D01*
X133707142Y-128575000D01*
X133778571Y-128503571D01*
X133778571Y-128646428D01*
X132421428Y-129003571D02*
X132421428Y-130003571D01*
X133064285Y-129003571D02*
X133064285Y-129789285D01*
X132992857Y-129932142D01*
X132850000Y-130003571D01*
X132635714Y-130003571D01*
X132492857Y-129932142D01*
X132421428Y-129860714D01*
X131778571Y-129932142D02*
X131635714Y-130003571D01*
X131350000Y-130003571D01*
X131207142Y-129932142D01*
X131135714Y-129789285D01*
X131135714Y-129717857D01*
X131207142Y-129575000D01*
X131350000Y-129503571D01*
X131564285Y-129503571D01*
X131707142Y-129432142D01*
X131778571Y-129289285D01*
X131778571Y-129217857D01*
X131707142Y-129075000D01*
X131564285Y-129003571D01*
X131350000Y-129003571D01*
X131207142Y-129075000D01*
X130707142Y-129003571D02*
X130135714Y-129003571D01*
X130492857Y-128503571D02*
X130492857Y-129789285D01*
X130421428Y-129932142D01*
X130278571Y-130003571D01*
X130135714Y-130003571D01*
X128635714Y-129003571D02*
X128350000Y-130003571D01*
X128064285Y-129289285D01*
X127778571Y-130003571D01*
X127492857Y-129003571D01*
X126278571Y-130003571D02*
X126278571Y-129217857D01*
X126350000Y-129075000D01*
X126492857Y-129003571D01*
X126778571Y-129003571D01*
X126921428Y-129075000D01*
X126278571Y-129932142D02*
X126421428Y-130003571D01*
X126778571Y-130003571D01*
X126921428Y-129932142D01*
X126992857Y-129789285D01*
X126992857Y-129646428D01*
X126921428Y-129503571D01*
X126778571Y-129432142D01*
X126421428Y-129432142D01*
X126278571Y-129360714D01*
X125564285Y-129003571D02*
X125564285Y-130003571D01*
X125564285Y-129146428D02*
X125492857Y-129075000D01*
X125350000Y-129003571D01*
X125135714Y-129003571D01*
X124992857Y-129075000D01*
X124921428Y-129217857D01*
X124921428Y-130003571D01*
X124421428Y-129003571D02*
X123850000Y-129003571D01*
X124207142Y-128503571D02*
X124207142Y-129789285D01*
X124135714Y-129932142D01*
X123992857Y-130003571D01*
X123850000Y-130003571D01*
X122421428Y-129003571D02*
X121850000Y-129003571D01*
X122207142Y-128503571D02*
X122207142Y-129789285D01*
X122135714Y-129932142D01*
X121992857Y-130003571D01*
X121850000Y-130003571D01*
X121135714Y-130003571D02*
X121278571Y-129932142D01*
X121350000Y-129860714D01*
X121421428Y-129717857D01*
X121421428Y-129289285D01*
X121350000Y-129146428D01*
X121278571Y-129075000D01*
X121135714Y-129003571D01*
X120921428Y-129003571D01*
X120778571Y-129075000D01*
X120707142Y-129146428D01*
X120635714Y-129289285D01*
X120635714Y-129717857D01*
X120707142Y-129860714D01*
X120778571Y-129932142D01*
X120921428Y-130003571D01*
X121135714Y-130003571D01*
X134314285Y-132553571D02*
X134314285Y-131053571D01*
X134314285Y-131625000D02*
X134171428Y-131553571D01*
X133885714Y-131553571D01*
X133742857Y-131625000D01*
X133671428Y-131696428D01*
X133600000Y-131839285D01*
X133600000Y-132267857D01*
X133671428Y-132410714D01*
X133742857Y-132482142D01*
X133885714Y-132553571D01*
X134171428Y-132553571D01*
X134314285Y-132482142D01*
X132957142Y-132553571D02*
X132957142Y-131553571D01*
X132957142Y-131839285D02*
X132885714Y-131696428D01*
X132814285Y-131625000D01*
X132671428Y-131553571D01*
X132528571Y-131553571D01*
X131457142Y-132482142D02*
X131600000Y-132553571D01*
X131885714Y-132553571D01*
X132028571Y-132482142D01*
X132100000Y-132339285D01*
X132100000Y-131767857D01*
X132028571Y-131625000D01*
X131885714Y-131553571D01*
X131600000Y-131553571D01*
X131457142Y-131625000D01*
X131385714Y-131767857D01*
X131385714Y-131910714D01*
X132100000Y-132053571D01*
X130100000Y-132553571D02*
X130100000Y-131767857D01*
X130171428Y-131625000D01*
X130314285Y-131553571D01*
X130600000Y-131553571D01*
X130742857Y-131625000D01*
X130100000Y-132482142D02*
X130242857Y-132553571D01*
X130600000Y-132553571D01*
X130742857Y-132482142D01*
X130814285Y-132339285D01*
X130814285Y-132196428D01*
X130742857Y-132053571D01*
X130600000Y-131982142D01*
X130242857Y-131982142D01*
X130100000Y-131910714D01*
X129385714Y-132553571D02*
X129385714Y-131053571D01*
X129242857Y-131982142D02*
X128814285Y-132553571D01*
X128814285Y-131553571D02*
X129385714Y-132125000D01*
X127242857Y-131553571D02*
X126671428Y-131553571D01*
X127028571Y-131053571D02*
X127028571Y-132339285D01*
X126957142Y-132482142D01*
X126814285Y-132553571D01*
X126671428Y-132553571D01*
X126171428Y-132553571D02*
X126171428Y-131053571D01*
X125528571Y-132553571D02*
X125528571Y-131767857D01*
X125600000Y-131625000D01*
X125742857Y-131553571D01*
X125957142Y-131553571D01*
X126100000Y-131625000D01*
X126171428Y-131696428D01*
X124814285Y-132553571D02*
X124814285Y-131553571D01*
X124814285Y-131053571D02*
X124885714Y-131125000D01*
X124814285Y-131196428D01*
X124742857Y-131125000D01*
X124814285Y-131053571D01*
X124814285Y-131196428D01*
X124100000Y-131553571D02*
X124100000Y-132553571D01*
X124100000Y-131696428D02*
X124028571Y-131625000D01*
X123885714Y-131553571D01*
X123671428Y-131553571D01*
X123528571Y-131625000D01*
X123457142Y-131767857D01*
X123457142Y-132553571D01*
X122100000Y-131553571D02*
X122100000Y-132767857D01*
X122171428Y-132910714D01*
X122242857Y-132982142D01*
X122385714Y-133053571D01*
X122600000Y-133053571D01*
X122742857Y-132982142D01*
X122100000Y-132482142D02*
X122242857Y-132553571D01*
X122528571Y-132553571D01*
X122671428Y-132482142D01*
X122742857Y-132410714D01*
X122814285Y-132267857D01*
X122814285Y-131839285D01*
X122742857Y-131696428D01*
X122671428Y-131625000D01*
X122528571Y-131553571D01*
X122242857Y-131553571D01*
X122100000Y-131625000D01*
X121457142Y-132482142D02*
X121314285Y-132553571D01*
X121028571Y-132553571D01*
X120885714Y-132482142D01*
X120814285Y-132339285D01*
X120814285Y-132267857D01*
X120885714Y-132125000D01*
X121028571Y-132053571D01*
X121242857Y-132053571D01*
X121385714Y-131982142D01*
X121457142Y-131839285D01*
X121457142Y-131767857D01*
X121385714Y-131625000D01*
X121242857Y-131553571D01*
X121028571Y-131553571D01*
X120885714Y-131625000D01*
X106735714Y-64900000D02*
X106807142Y-64828571D01*
X106878571Y-64614285D01*
X106878571Y-64471428D01*
X106807142Y-64257142D01*
X106664285Y-64114285D01*
X106521428Y-64042857D01*
X106235714Y-63971428D01*
X106021428Y-63971428D01*
X105735714Y-64042857D01*
X105592857Y-64114285D01*
X105450000Y-64257142D01*
X105378571Y-64471428D01*
X105378571Y-64614285D01*
X105450000Y-64828571D01*
X105521428Y-64900000D01*
X106878571Y-65757142D02*
X106807142Y-65614285D01*
X106735714Y-65542857D01*
X106592857Y-65471428D01*
X106164285Y-65471428D01*
X106021428Y-65542857D01*
X105950000Y-65614285D01*
X105878571Y-65757142D01*
X105878571Y-65971428D01*
X105950000Y-66114285D01*
X106021428Y-66185714D01*
X106164285Y-66257142D01*
X106592857Y-66257142D01*
X106735714Y-66185714D01*
X106807142Y-66114285D01*
X106878571Y-65971428D01*
X106878571Y-65757142D01*
X105878571Y-66900000D02*
X106878571Y-66900000D01*
X106021428Y-66900000D02*
X105950000Y-66971428D01*
X105878571Y-67114285D01*
X105878571Y-67328571D01*
X105950000Y-67471428D01*
X106092857Y-67542857D01*
X106878571Y-67542857D01*
X105878571Y-68042857D02*
X105878571Y-68614285D01*
X105378571Y-68257142D02*
X106664285Y-68257142D01*
X106807142Y-68328571D01*
X106878571Y-68471428D01*
X106878571Y-68614285D01*
X106878571Y-69114285D02*
X105878571Y-69114285D01*
X106164285Y-69114285D02*
X106021428Y-69185714D01*
X105950000Y-69257142D01*
X105878571Y-69400000D01*
X105878571Y-69542857D01*
X106878571Y-70685714D02*
X106092857Y-70685714D01*
X105950000Y-70614285D01*
X105878571Y-70471428D01*
X105878571Y-70185714D01*
X105950000Y-70042857D01*
X106807142Y-70685714D02*
X106878571Y-70542857D01*
X106878571Y-70185714D01*
X106807142Y-70042857D01*
X106664285Y-69971428D01*
X106521428Y-69971428D01*
X106378571Y-70042857D01*
X106307142Y-70185714D01*
X106307142Y-70542857D01*
X106235714Y-70685714D01*
X106807142Y-71328571D02*
X106878571Y-71471428D01*
X106878571Y-71757142D01*
X106807142Y-71900000D01*
X106664285Y-71971428D01*
X106592857Y-71971428D01*
X106450000Y-71900000D01*
X106378571Y-71757142D01*
X106378571Y-71542857D01*
X106307142Y-71400000D01*
X106164285Y-71328571D01*
X106092857Y-71328571D01*
X105950000Y-71400000D01*
X105878571Y-71542857D01*
X105878571Y-71757142D01*
X105950000Y-71900000D01*
X105878571Y-72400000D02*
X105878571Y-72971428D01*
X105378571Y-72614285D02*
X106664285Y-72614285D01*
X106807142Y-72685714D01*
X106878571Y-72828571D01*
X106878571Y-72971428D01*
D12*
G04 #@! TO.C,RV1*
X104850000Y-62450000D02*
G75*
G03*
X104850000Y-62450000I-100000J0D01*
G01*
D13*
X105880000Y-59250000D02*
X105400000Y-59250000D01*
X108600000Y-59250000D02*
X108120000Y-59250000D01*
X108600000Y-61336500D02*
X108600000Y-59250000D01*
X106713500Y-62750000D02*
X107286500Y-62750000D01*
X105400000Y-59250000D02*
X105400000Y-61336500D01*
D14*
G04 #@! TO.C,U2*
X110670000Y-55810000D02*
X110670000Y-54560000D01*
X110670000Y-54560000D02*
X131110000Y-54560000D01*
X131110000Y-54560000D02*
X131110000Y-59060000D01*
X131110000Y-59060000D02*
X110670000Y-59060000D01*
X110670000Y-59060000D02*
X110670000Y-57810000D01*
X110670000Y-57810000D02*
G75*
G03*
X110670000Y-55810000I0J1000000D01*
G01*
G04 #@! TO.C,U3*
X165170000Y-59060000D02*
X165170000Y-57810000D01*
X185610000Y-59060000D02*
X165170000Y-59060000D01*
X185610000Y-54560000D02*
X185610000Y-59060000D01*
X165170000Y-54560000D02*
X185610000Y-54560000D01*
X165170000Y-55810000D02*
X165170000Y-54560000D01*
X165170000Y-57810000D02*
G75*
G03*
X165170000Y-55810000I0J1000000D01*
G01*
G04 #@! TO.C,R1*
X107745276Y-71522500D02*
X108254724Y-71522500D01*
X107745276Y-70477500D02*
X108254724Y-70477500D01*
G04 #@! TO.C,R2*
X107745276Y-112477500D02*
X108254724Y-112477500D01*
X107745276Y-113522500D02*
X108254724Y-113522500D01*
G04 #@! TO.C,R3*
X149745276Y-70477500D02*
X150254724Y-70477500D01*
X149745276Y-71522500D02*
X150254724Y-71522500D01*
G04 #@! TO.C,R4*
X149745276Y-112477500D02*
X150254724Y-112477500D01*
X149745276Y-113522500D02*
X150254724Y-113522500D01*
G04 #@! TO.C,R5*
X128745276Y-70477500D02*
X129254724Y-70477500D01*
X128745276Y-71522500D02*
X129254724Y-71522500D01*
G04 #@! TO.C,R6*
X128745276Y-113522500D02*
X129254724Y-113522500D01*
X128745276Y-112477500D02*
X129254724Y-112477500D01*
G04 #@! TO.C,R7*
X170745276Y-70477500D02*
X171254724Y-70477500D01*
X170745276Y-71522500D02*
X171254724Y-71522500D01*
G04 #@! TO.C,R8*
X170745276Y-113522500D02*
X171254724Y-113522500D01*
X170745276Y-112477500D02*
X171254724Y-112477500D01*
G04 #@! TO.C,R9*
X107745276Y-92522500D02*
X108254724Y-92522500D01*
X107745276Y-91477500D02*
X108254724Y-91477500D01*
G04 #@! TO.C,R10*
X107745276Y-133477500D02*
X108254724Y-133477500D01*
X107745276Y-134522500D02*
X108254724Y-134522500D01*
G04 #@! TO.C,R11*
X149745276Y-92522500D02*
X150254724Y-92522500D01*
X149745276Y-91477500D02*
X150254724Y-91477500D01*
G04 #@! TO.C,R12*
X149745276Y-133477500D02*
X150254724Y-133477500D01*
X149745276Y-134522500D02*
X150254724Y-134522500D01*
G04 #@! TO.C,R13*
X128745276Y-91477500D02*
X129254724Y-91477500D01*
X128745276Y-92522500D02*
X129254724Y-92522500D01*
G04 #@! TO.C,R14*
X128745276Y-134522500D02*
X129254724Y-134522500D01*
X128745276Y-133477500D02*
X129254724Y-133477500D01*
G04 #@! TO.C,R15*
X170745276Y-91477500D02*
X171254724Y-91477500D01*
X170745276Y-92522500D02*
X171254724Y-92522500D01*
G04 #@! TO.C,R16*
X170745276Y-134522500D02*
X171254724Y-134522500D01*
X170745276Y-133477500D02*
X171254724Y-133477500D01*
G04 #@! TO.C,R17*
X125745276Y-31477500D02*
X126254724Y-31477500D01*
X125745276Y-32522500D02*
X126254724Y-32522500D01*
G04 #@! TO.C,R18*
X111689346Y-48549580D02*
X112049580Y-48189346D01*
X110950420Y-47810654D02*
X111310654Y-47450420D01*
G04 #@! TO.C,R19*
X124477500Y-48254724D02*
X124477500Y-47745276D01*
X125522500Y-48254724D02*
X125522500Y-47745276D01*
G04 #@! TO.C,R20*
X135522500Y-61254724D02*
X135522500Y-60745276D01*
X134477500Y-61254724D02*
X134477500Y-60745276D01*
G04 #@! TO.C,R21*
X181745276Y-48227500D02*
X182254724Y-48227500D01*
X181745276Y-49272500D02*
X182254724Y-49272500D01*
G04 #@! TO.C,R22*
X190022500Y-61254724D02*
X190022500Y-60745276D01*
X188977500Y-61254724D02*
X188977500Y-60745276D01*
G04 #@! TO.C,R23*
X159254724Y-39477500D02*
X158745276Y-39477500D01*
X159254724Y-40522500D02*
X158745276Y-40522500D01*
G04 #@! TO.C,RV1*
D15*
X107595238Y-57952380D02*
X107928571Y-57476190D01*
X108166666Y-57952380D02*
X108166666Y-56952380D01*
X107785714Y-56952380D01*
X107690476Y-57000000D01*
X107642857Y-57047619D01*
X107595238Y-57142857D01*
X107595238Y-57285714D01*
X107642857Y-57380952D01*
X107690476Y-57428571D01*
X107785714Y-57476190D01*
X108166666Y-57476190D01*
X107309523Y-56952380D02*
X106976190Y-57952380D01*
X106642857Y-56952380D01*
X105785714Y-57952380D02*
X106357142Y-57952380D01*
X106071428Y-57952380D02*
X106071428Y-56952380D01*
X106166666Y-57095238D01*
X106261904Y-57190476D01*
X106357142Y-57238095D01*
D16*
X113076175Y-63452380D02*
X113349985Y-62976190D01*
X113647604Y-63452380D02*
X113522604Y-62452380D01*
X113141651Y-62452380D01*
X113052366Y-62500000D01*
X113010699Y-62547619D01*
X112974985Y-62642857D01*
X112992842Y-62785714D01*
X113052366Y-62880952D01*
X113105937Y-62928571D01*
X113207127Y-62976190D01*
X113588080Y-62976190D01*
X112897604Y-63547619D02*
X112135699Y-63547619D01*
X111885699Y-63452380D02*
X111760699Y-62452380D01*
X111379747Y-62452380D01*
X111290461Y-62500000D01*
X111248794Y-62547619D01*
X111213080Y-62642857D01*
X111230937Y-62785714D01*
X111290461Y-62880952D01*
X111344032Y-62928571D01*
X111445223Y-62976190D01*
X111826175Y-62976190D01*
X110570223Y-62452380D02*
X110379747Y-62452380D01*
X110290461Y-62500000D01*
X110207127Y-62595238D01*
X110183318Y-62785714D01*
X110224985Y-63119047D01*
X110296413Y-63309523D01*
X110403556Y-63404761D01*
X110504747Y-63452380D01*
X110695223Y-63452380D01*
X110784508Y-63404761D01*
X110867842Y-63309523D01*
X110891651Y-63119047D01*
X110849985Y-62785714D01*
X110778556Y-62595238D01*
X110671413Y-62500000D01*
X110570223Y-62452380D01*
X109855937Y-62452380D02*
X109284508Y-62452380D01*
X109695223Y-63452380D02*
X109570223Y-62452380D01*
G04 #@! TO.C,U2*
D15*
X109122380Y-56048095D02*
X109931904Y-56048095D01*
X110027142Y-56095714D01*
X110074761Y-56143333D01*
X110122380Y-56238571D01*
X110122380Y-56429047D01*
X110074761Y-56524285D01*
X110027142Y-56571904D01*
X109931904Y-56619523D01*
X109122380Y-56619523D01*
X109217619Y-57048095D02*
X109170000Y-57095714D01*
X109122380Y-57190952D01*
X109122380Y-57429047D01*
X109170000Y-57524285D01*
X109217619Y-57571904D01*
X109312857Y-57619523D01*
X109408095Y-57619523D01*
X109550952Y-57571904D01*
X110122380Y-57000476D01*
X110122380Y-57619523D01*
D16*
X131562380Y-53715967D02*
X131562380Y-54382633D01*
X132562380Y-53829062D01*
X131895714Y-55150491D02*
X132562380Y-55067157D01*
X131514761Y-54960014D02*
X132229047Y-54632633D01*
X132229047Y-55251681D01*
X132562380Y-56067157D02*
X132562380Y-55590967D01*
X131562380Y-55715967D01*
X132514761Y-56358824D02*
X132562380Y-56495729D01*
X132562380Y-56733824D01*
X132514761Y-56835014D01*
X132467142Y-56888586D01*
X132371904Y-56948110D01*
X132276666Y-56960014D01*
X132181428Y-56924300D01*
X132133809Y-56882633D01*
X132086190Y-56793348D01*
X132038571Y-56608824D01*
X131990952Y-56519538D01*
X131943333Y-56477872D01*
X131848095Y-56442157D01*
X131752857Y-56454062D01*
X131657619Y-56513586D01*
X131610000Y-56567157D01*
X131562380Y-56668348D01*
X131562380Y-56906443D01*
X131610000Y-57043348D01*
X132562380Y-57876681D02*
X132562380Y-57305252D01*
X132562380Y-57590967D02*
X131562380Y-57715967D01*
X131705238Y-57602872D01*
X131800476Y-57495729D01*
X131848095Y-57394538D01*
X131562380Y-58858824D02*
X131562380Y-58668348D01*
X131610000Y-58567157D01*
X131657619Y-58513586D01*
X131800476Y-58400491D01*
X131990952Y-58329062D01*
X132371904Y-58281443D01*
X132467142Y-58317157D01*
X132514761Y-58358824D01*
X132562380Y-58448110D01*
X132562380Y-58638586D01*
X132514761Y-58739776D01*
X132467142Y-58793348D01*
X132371904Y-58852872D01*
X132133809Y-58882633D01*
X132038571Y-58846919D01*
X131990952Y-58805252D01*
X131943333Y-58715967D01*
X131943333Y-58525491D01*
X131990952Y-58424300D01*
X132038571Y-58370729D01*
X132133809Y-58311205D01*
X131562380Y-59811205D02*
X131562380Y-59620729D01*
X131610000Y-59519538D01*
X131657619Y-59465967D01*
X131800476Y-59352872D01*
X131990952Y-59281443D01*
X132371904Y-59233824D01*
X132467142Y-59269538D01*
X132514761Y-59311205D01*
X132562380Y-59400491D01*
X132562380Y-59590967D01*
X132514761Y-59692157D01*
X132467142Y-59745729D01*
X132371904Y-59805252D01*
X132133809Y-59835014D01*
X132038571Y-59799300D01*
X131990952Y-59757633D01*
X131943333Y-59668348D01*
X131943333Y-59477872D01*
X131990952Y-59376681D01*
X132038571Y-59323110D01*
X132133809Y-59263586D01*
G04 #@! TO.C,U3*
D15*
X163622380Y-56048095D02*
X164431904Y-56048095D01*
X164527142Y-56095714D01*
X164574761Y-56143333D01*
X164622380Y-56238571D01*
X164622380Y-56429047D01*
X164574761Y-56524285D01*
X164527142Y-56571904D01*
X164431904Y-56619523D01*
X163622380Y-56619523D01*
X163622380Y-57000476D02*
X163622380Y-57619523D01*
X164003333Y-57286190D01*
X164003333Y-57429047D01*
X164050952Y-57524285D01*
X164098571Y-57571904D01*
X164193809Y-57619523D01*
X164431904Y-57619523D01*
X164527142Y-57571904D01*
X164574761Y-57524285D01*
X164622380Y-57429047D01*
X164622380Y-57143333D01*
X164574761Y-57048095D01*
X164527142Y-57000476D01*
D16*
X186062380Y-53715967D02*
X186062380Y-54382633D01*
X187062380Y-53829062D01*
X186395714Y-55150491D02*
X187062380Y-55067157D01*
X186014761Y-54960014D02*
X186729047Y-54632633D01*
X186729047Y-55251681D01*
X187062380Y-56067157D02*
X187062380Y-55590967D01*
X186062380Y-55715967D01*
X187014761Y-56358824D02*
X187062380Y-56495729D01*
X187062380Y-56733824D01*
X187014761Y-56835014D01*
X186967142Y-56888586D01*
X186871904Y-56948110D01*
X186776666Y-56960014D01*
X186681428Y-56924300D01*
X186633809Y-56882633D01*
X186586190Y-56793348D01*
X186538571Y-56608824D01*
X186490952Y-56519538D01*
X186443333Y-56477872D01*
X186348095Y-56442157D01*
X186252857Y-56454062D01*
X186157619Y-56513586D01*
X186110000Y-56567157D01*
X186062380Y-56668348D01*
X186062380Y-56906443D01*
X186110000Y-57043348D01*
X187062380Y-57876681D02*
X187062380Y-57305252D01*
X187062380Y-57590967D02*
X186062380Y-57715967D01*
X186205238Y-57602872D01*
X186300476Y-57495729D01*
X186348095Y-57394538D01*
X186062380Y-58858824D02*
X186062380Y-58668348D01*
X186110000Y-58567157D01*
X186157619Y-58513586D01*
X186300476Y-58400491D01*
X186490952Y-58329062D01*
X186871904Y-58281443D01*
X186967142Y-58317157D01*
X187014761Y-58358824D01*
X187062380Y-58448110D01*
X187062380Y-58638586D01*
X187014761Y-58739776D01*
X186967142Y-58793348D01*
X186871904Y-58852872D01*
X186633809Y-58882633D01*
X186538571Y-58846919D01*
X186490952Y-58805252D01*
X186443333Y-58715967D01*
X186443333Y-58525491D01*
X186490952Y-58424300D01*
X186538571Y-58370729D01*
X186633809Y-58311205D01*
X186062380Y-59811205D02*
X186062380Y-59620729D01*
X186110000Y-59519538D01*
X186157619Y-59465967D01*
X186300476Y-59352872D01*
X186490952Y-59281443D01*
X186871904Y-59233824D01*
X186967142Y-59269538D01*
X187014761Y-59311205D01*
X187062380Y-59400491D01*
X187062380Y-59590967D01*
X187014761Y-59692157D01*
X186967142Y-59745729D01*
X186871904Y-59805252D01*
X186633809Y-59835014D01*
X186538571Y-59799300D01*
X186490952Y-59757633D01*
X186443333Y-59668348D01*
X186443333Y-59477872D01*
X186490952Y-59376681D01*
X186538571Y-59323110D01*
X186633809Y-59263586D01*
G04 #@! TO.C,R1*
D15*
X109166666Y-72952380D02*
X109500000Y-72476190D01*
X109738095Y-72952380D02*
X109738095Y-71952380D01*
X109357142Y-71952380D01*
X109261904Y-72000000D01*
X109214285Y-72047619D01*
X109166666Y-72142857D01*
X109166666Y-72285714D01*
X109214285Y-72380952D01*
X109261904Y-72428571D01*
X109357142Y-72476190D01*
X109738095Y-72476190D01*
X108214285Y-72952380D02*
X108785714Y-72952380D01*
X108500000Y-72952380D02*
X108500000Y-71952380D01*
X108595238Y-72095238D01*
X108690476Y-72190476D01*
X108785714Y-72238095D01*
D16*
X109219032Y-69952380D02*
X109790461Y-69952380D01*
X109504747Y-69952380D02*
X109379747Y-68952380D01*
X109492842Y-69095238D01*
X109599985Y-69190476D01*
X109701175Y-69238095D01*
X108790461Y-69952380D02*
X108665461Y-68952380D01*
X108647604Y-69571428D02*
X108409508Y-69952380D01*
X108326175Y-69285714D02*
X108754747Y-69666666D01*
G04 #@! TO.C,R2*
D15*
X108166666Y-114882380D02*
X108500000Y-114406190D01*
X108738095Y-114882380D02*
X108738095Y-113882380D01*
X108357142Y-113882380D01*
X108261904Y-113930000D01*
X108214285Y-113977619D01*
X108166666Y-114072857D01*
X108166666Y-114215714D01*
X108214285Y-114310952D01*
X108261904Y-114358571D01*
X108357142Y-114406190D01*
X108738095Y-114406190D01*
X107785714Y-113977619D02*
X107738095Y-113930000D01*
X107642857Y-113882380D01*
X107404761Y-113882380D01*
X107309523Y-113930000D01*
X107261904Y-113977619D01*
X107214285Y-114072857D01*
X107214285Y-114168095D01*
X107261904Y-114310952D01*
X107833333Y-114882380D01*
X107214285Y-114882380D01*
D16*
X108219032Y-112022380D02*
X108790461Y-112022380D01*
X108504747Y-112022380D02*
X108379747Y-111022380D01*
X108492842Y-111165238D01*
X108599985Y-111260476D01*
X108701175Y-111308095D01*
X107790461Y-112022380D02*
X107665461Y-111022380D01*
X107647604Y-111641428D02*
X107409508Y-112022380D01*
X107326175Y-111355714D02*
X107754747Y-111736666D01*
G04 #@! TO.C,R3*
D15*
X150166666Y-72882380D02*
X150500000Y-72406190D01*
X150738095Y-72882380D02*
X150738095Y-71882380D01*
X150357142Y-71882380D01*
X150261904Y-71930000D01*
X150214285Y-71977619D01*
X150166666Y-72072857D01*
X150166666Y-72215714D01*
X150214285Y-72310952D01*
X150261904Y-72358571D01*
X150357142Y-72406190D01*
X150738095Y-72406190D01*
X149833333Y-71882380D02*
X149214285Y-71882380D01*
X149547619Y-72263333D01*
X149404761Y-72263333D01*
X149309523Y-72310952D01*
X149261904Y-72358571D01*
X149214285Y-72453809D01*
X149214285Y-72691904D01*
X149261904Y-72787142D01*
X149309523Y-72834761D01*
X149404761Y-72882380D01*
X149690476Y-72882380D01*
X149785714Y-72834761D01*
X149833333Y-72787142D01*
D16*
X150219032Y-70022380D02*
X150790461Y-70022380D01*
X150504747Y-70022380D02*
X150379747Y-69022380D01*
X150492842Y-69165238D01*
X150599985Y-69260476D01*
X150701175Y-69308095D01*
X149790461Y-70022380D02*
X149665461Y-69022380D01*
X149647604Y-69641428D02*
X149409508Y-70022380D01*
X149326175Y-69355714D02*
X149754747Y-69736666D01*
G04 #@! TO.C,R4*
D15*
X150166666Y-114882380D02*
X150500000Y-114406190D01*
X150738095Y-114882380D02*
X150738095Y-113882380D01*
X150357142Y-113882380D01*
X150261904Y-113930000D01*
X150214285Y-113977619D01*
X150166666Y-114072857D01*
X150166666Y-114215714D01*
X150214285Y-114310952D01*
X150261904Y-114358571D01*
X150357142Y-114406190D01*
X150738095Y-114406190D01*
X149309523Y-114215714D02*
X149309523Y-114882380D01*
X149547619Y-113834761D02*
X149785714Y-114549047D01*
X149166666Y-114549047D01*
D16*
X150219032Y-112022380D02*
X150790461Y-112022380D01*
X150504747Y-112022380D02*
X150379747Y-111022380D01*
X150492842Y-111165238D01*
X150599985Y-111260476D01*
X150701175Y-111308095D01*
X149790461Y-112022380D02*
X149665461Y-111022380D01*
X149647604Y-111641428D02*
X149409508Y-112022380D01*
X149326175Y-111355714D02*
X149754747Y-111736666D01*
G04 #@! TO.C,R5*
D15*
X129166666Y-72882380D02*
X129500000Y-72406190D01*
X129738095Y-72882380D02*
X129738095Y-71882380D01*
X129357142Y-71882380D01*
X129261904Y-71930000D01*
X129214285Y-71977619D01*
X129166666Y-72072857D01*
X129166666Y-72215714D01*
X129214285Y-72310952D01*
X129261904Y-72358571D01*
X129357142Y-72406190D01*
X129738095Y-72406190D01*
X128261904Y-71882380D02*
X128738095Y-71882380D01*
X128785714Y-72358571D01*
X128738095Y-72310952D01*
X128642857Y-72263333D01*
X128404761Y-72263333D01*
X128309523Y-72310952D01*
X128261904Y-72358571D01*
X128214285Y-72453809D01*
X128214285Y-72691904D01*
X128261904Y-72787142D01*
X128309523Y-72834761D01*
X128404761Y-72882380D01*
X128642857Y-72882380D01*
X128738095Y-72834761D01*
X128785714Y-72787142D01*
D16*
X129219032Y-70022380D02*
X129790461Y-70022380D01*
X129504747Y-70022380D02*
X129379747Y-69022380D01*
X129492842Y-69165238D01*
X129599985Y-69260476D01*
X129701175Y-69308095D01*
X128790461Y-70022380D02*
X128665461Y-69022380D01*
X128647604Y-69641428D02*
X128409508Y-70022380D01*
X128326175Y-69355714D02*
X128754747Y-69736666D01*
G04 #@! TO.C,R6*
D15*
X129166666Y-114882380D02*
X129500000Y-114406190D01*
X129738095Y-114882380D02*
X129738095Y-113882380D01*
X129357142Y-113882380D01*
X129261904Y-113930000D01*
X129214285Y-113977619D01*
X129166666Y-114072857D01*
X129166666Y-114215714D01*
X129214285Y-114310952D01*
X129261904Y-114358571D01*
X129357142Y-114406190D01*
X129738095Y-114406190D01*
X128309523Y-113882380D02*
X128500000Y-113882380D01*
X128595238Y-113930000D01*
X128642857Y-113977619D01*
X128738095Y-114120476D01*
X128785714Y-114310952D01*
X128785714Y-114691904D01*
X128738095Y-114787142D01*
X128690476Y-114834761D01*
X128595238Y-114882380D01*
X128404761Y-114882380D01*
X128309523Y-114834761D01*
X128261904Y-114787142D01*
X128214285Y-114691904D01*
X128214285Y-114453809D01*
X128261904Y-114358571D01*
X128309523Y-114310952D01*
X128404761Y-114263333D01*
X128595238Y-114263333D01*
X128690476Y-114310952D01*
X128738095Y-114358571D01*
X128785714Y-114453809D01*
D16*
X129219032Y-112022380D02*
X129790461Y-112022380D01*
X129504747Y-112022380D02*
X129379747Y-111022380D01*
X129492842Y-111165238D01*
X129599985Y-111260476D01*
X129701175Y-111308095D01*
X128790461Y-112022380D02*
X128665461Y-111022380D01*
X128647604Y-111641428D02*
X128409508Y-112022380D01*
X128326175Y-111355714D02*
X128754747Y-111736666D01*
G04 #@! TO.C,R7*
D15*
X171166666Y-72882380D02*
X171500000Y-72406190D01*
X171738095Y-72882380D02*
X171738095Y-71882380D01*
X171357142Y-71882380D01*
X171261904Y-71930000D01*
X171214285Y-71977619D01*
X171166666Y-72072857D01*
X171166666Y-72215714D01*
X171214285Y-72310952D01*
X171261904Y-72358571D01*
X171357142Y-72406190D01*
X171738095Y-72406190D01*
X170833333Y-71882380D02*
X170166666Y-71882380D01*
X170595238Y-72882380D01*
D16*
X171219032Y-70022380D02*
X171790461Y-70022380D01*
X171504747Y-70022380D02*
X171379747Y-69022380D01*
X171492842Y-69165238D01*
X171599985Y-69260476D01*
X171701175Y-69308095D01*
X170790461Y-70022380D02*
X170665461Y-69022380D01*
X170647604Y-69641428D02*
X170409508Y-70022380D01*
X170326175Y-69355714D02*
X170754747Y-69736666D01*
G04 #@! TO.C,R8*
D15*
X171166666Y-114882380D02*
X171500000Y-114406190D01*
X171738095Y-114882380D02*
X171738095Y-113882380D01*
X171357142Y-113882380D01*
X171261904Y-113930000D01*
X171214285Y-113977619D01*
X171166666Y-114072857D01*
X171166666Y-114215714D01*
X171214285Y-114310952D01*
X171261904Y-114358571D01*
X171357142Y-114406190D01*
X171738095Y-114406190D01*
X170595238Y-114310952D02*
X170690476Y-114263333D01*
X170738095Y-114215714D01*
X170785714Y-114120476D01*
X170785714Y-114072857D01*
X170738095Y-113977619D01*
X170690476Y-113930000D01*
X170595238Y-113882380D01*
X170404761Y-113882380D01*
X170309523Y-113930000D01*
X170261904Y-113977619D01*
X170214285Y-114072857D01*
X170214285Y-114120476D01*
X170261904Y-114215714D01*
X170309523Y-114263333D01*
X170404761Y-114310952D01*
X170595238Y-114310952D01*
X170690476Y-114358571D01*
X170738095Y-114406190D01*
X170785714Y-114501428D01*
X170785714Y-114691904D01*
X170738095Y-114787142D01*
X170690476Y-114834761D01*
X170595238Y-114882380D01*
X170404761Y-114882380D01*
X170309523Y-114834761D01*
X170261904Y-114787142D01*
X170214285Y-114691904D01*
X170214285Y-114501428D01*
X170261904Y-114406190D01*
X170309523Y-114358571D01*
X170404761Y-114310952D01*
D16*
X171219032Y-112022380D02*
X171790461Y-112022380D01*
X171504747Y-112022380D02*
X171379747Y-111022380D01*
X171492842Y-111165238D01*
X171599985Y-111260476D01*
X171701175Y-111308095D01*
X170790461Y-112022380D02*
X170665461Y-111022380D01*
X170647604Y-111641428D02*
X170409508Y-112022380D01*
X170326175Y-111355714D02*
X170754747Y-111736666D01*
G04 #@! TO.C,R9*
D15*
X108166666Y-93882380D02*
X108500000Y-93406190D01*
X108738095Y-93882380D02*
X108738095Y-92882380D01*
X108357142Y-92882380D01*
X108261904Y-92930000D01*
X108214285Y-92977619D01*
X108166666Y-93072857D01*
X108166666Y-93215714D01*
X108214285Y-93310952D01*
X108261904Y-93358571D01*
X108357142Y-93406190D01*
X108738095Y-93406190D01*
X107690476Y-93882380D02*
X107500000Y-93882380D01*
X107404761Y-93834761D01*
X107357142Y-93787142D01*
X107261904Y-93644285D01*
X107214285Y-93453809D01*
X107214285Y-93072857D01*
X107261904Y-92977619D01*
X107309523Y-92930000D01*
X107404761Y-92882380D01*
X107595238Y-92882380D01*
X107690476Y-92930000D01*
X107738095Y-92977619D01*
X107785714Y-93072857D01*
X107785714Y-93310952D01*
X107738095Y-93406190D01*
X107690476Y-93453809D01*
X107595238Y-93501428D01*
X107404761Y-93501428D01*
X107309523Y-93453809D01*
X107261904Y-93406190D01*
X107214285Y-93310952D01*
D16*
X108219032Y-91022380D02*
X108790461Y-91022380D01*
X108504747Y-91022380D02*
X108379747Y-90022380D01*
X108492842Y-90165238D01*
X108599985Y-90260476D01*
X108701175Y-90308095D01*
X107790461Y-91022380D02*
X107665461Y-90022380D01*
X107647604Y-90641428D02*
X107409508Y-91022380D01*
X107326175Y-90355714D02*
X107754747Y-90736666D01*
G04 #@! TO.C,R10*
D15*
X108642857Y-135882380D02*
X108976190Y-135406190D01*
X109214285Y-135882380D02*
X109214285Y-134882380D01*
X108833333Y-134882380D01*
X108738095Y-134930000D01*
X108690476Y-134977619D01*
X108642857Y-135072857D01*
X108642857Y-135215714D01*
X108690476Y-135310952D01*
X108738095Y-135358571D01*
X108833333Y-135406190D01*
X109214285Y-135406190D01*
X107690476Y-135882380D02*
X108261904Y-135882380D01*
X107976190Y-135882380D02*
X107976190Y-134882380D01*
X108071428Y-135025238D01*
X108166666Y-135120476D01*
X108261904Y-135168095D01*
X107071428Y-134882380D02*
X106976190Y-134882380D01*
X106880952Y-134930000D01*
X106833333Y-134977619D01*
X106785714Y-135072857D01*
X106738095Y-135263333D01*
X106738095Y-135501428D01*
X106785714Y-135691904D01*
X106833333Y-135787142D01*
X106880952Y-135834761D01*
X106976190Y-135882380D01*
X107071428Y-135882380D01*
X107166666Y-135834761D01*
X107214285Y-135787142D01*
X107261904Y-135691904D01*
X107309523Y-135501428D01*
X107309523Y-135263333D01*
X107261904Y-135072857D01*
X107214285Y-134977619D01*
X107166666Y-134930000D01*
X107071428Y-134882380D01*
D16*
X108219032Y-133022380D02*
X108790461Y-133022380D01*
X108504747Y-133022380D02*
X108379747Y-132022380D01*
X108492842Y-132165238D01*
X108599985Y-132260476D01*
X108701175Y-132308095D01*
X107790461Y-133022380D02*
X107665461Y-132022380D01*
X107647604Y-132641428D02*
X107409508Y-133022380D01*
X107326175Y-132355714D02*
X107754747Y-132736666D01*
G04 #@! TO.C,R11*
D15*
X150642857Y-93882380D02*
X150976190Y-93406190D01*
X151214285Y-93882380D02*
X151214285Y-92882380D01*
X150833333Y-92882380D01*
X150738095Y-92930000D01*
X150690476Y-92977619D01*
X150642857Y-93072857D01*
X150642857Y-93215714D01*
X150690476Y-93310952D01*
X150738095Y-93358571D01*
X150833333Y-93406190D01*
X151214285Y-93406190D01*
X149690476Y-93882380D02*
X150261904Y-93882380D01*
X149976190Y-93882380D02*
X149976190Y-92882380D01*
X150071428Y-93025238D01*
X150166666Y-93120476D01*
X150261904Y-93168095D01*
X148738095Y-93882380D02*
X149309523Y-93882380D01*
X149023809Y-93882380D02*
X149023809Y-92882380D01*
X149119047Y-93025238D01*
X149214285Y-93120476D01*
X149309523Y-93168095D01*
D16*
X150219032Y-91022380D02*
X150790461Y-91022380D01*
X150504747Y-91022380D02*
X150379747Y-90022380D01*
X150492842Y-90165238D01*
X150599985Y-90260476D01*
X150701175Y-90308095D01*
X149790461Y-91022380D02*
X149665461Y-90022380D01*
X149647604Y-90641428D02*
X149409508Y-91022380D01*
X149326175Y-90355714D02*
X149754747Y-90736666D01*
G04 #@! TO.C,R12*
D15*
X150642857Y-135882380D02*
X150976190Y-135406190D01*
X151214285Y-135882380D02*
X151214285Y-134882380D01*
X150833333Y-134882380D01*
X150738095Y-134930000D01*
X150690476Y-134977619D01*
X150642857Y-135072857D01*
X150642857Y-135215714D01*
X150690476Y-135310952D01*
X150738095Y-135358571D01*
X150833333Y-135406190D01*
X151214285Y-135406190D01*
X149690476Y-135882380D02*
X150261904Y-135882380D01*
X149976190Y-135882380D02*
X149976190Y-134882380D01*
X150071428Y-135025238D01*
X150166666Y-135120476D01*
X150261904Y-135168095D01*
X149309523Y-134977619D02*
X149261904Y-134930000D01*
X149166666Y-134882380D01*
X148928571Y-134882380D01*
X148833333Y-134930000D01*
X148785714Y-134977619D01*
X148738095Y-135072857D01*
X148738095Y-135168095D01*
X148785714Y-135310952D01*
X149357142Y-135882380D01*
X148738095Y-135882380D01*
D16*
X150219032Y-133022380D02*
X150790461Y-133022380D01*
X150504747Y-133022380D02*
X150379747Y-132022380D01*
X150492842Y-132165238D01*
X150599985Y-132260476D01*
X150701175Y-132308095D01*
X149790461Y-133022380D02*
X149665461Y-132022380D01*
X149647604Y-132641428D02*
X149409508Y-133022380D01*
X149326175Y-132355714D02*
X149754747Y-132736666D01*
G04 #@! TO.C,R13*
D15*
X129642857Y-93882380D02*
X129976190Y-93406190D01*
X130214285Y-93882380D02*
X130214285Y-92882380D01*
X129833333Y-92882380D01*
X129738095Y-92930000D01*
X129690476Y-92977619D01*
X129642857Y-93072857D01*
X129642857Y-93215714D01*
X129690476Y-93310952D01*
X129738095Y-93358571D01*
X129833333Y-93406190D01*
X130214285Y-93406190D01*
X128690476Y-93882380D02*
X129261904Y-93882380D01*
X128976190Y-93882380D02*
X128976190Y-92882380D01*
X129071428Y-93025238D01*
X129166666Y-93120476D01*
X129261904Y-93168095D01*
X128357142Y-92882380D02*
X127738095Y-92882380D01*
X128071428Y-93263333D01*
X127928571Y-93263333D01*
X127833333Y-93310952D01*
X127785714Y-93358571D01*
X127738095Y-93453809D01*
X127738095Y-93691904D01*
X127785714Y-93787142D01*
X127833333Y-93834761D01*
X127928571Y-93882380D01*
X128214285Y-93882380D01*
X128309523Y-93834761D01*
X128357142Y-93787142D01*
D16*
X129219032Y-91022380D02*
X129790461Y-91022380D01*
X129504747Y-91022380D02*
X129379747Y-90022380D01*
X129492842Y-90165238D01*
X129599985Y-90260476D01*
X129701175Y-90308095D01*
X128790461Y-91022380D02*
X128665461Y-90022380D01*
X128647604Y-90641428D02*
X128409508Y-91022380D01*
X128326175Y-90355714D02*
X128754747Y-90736666D01*
G04 #@! TO.C,R14*
D15*
X129642857Y-135882380D02*
X129976190Y-135406190D01*
X130214285Y-135882380D02*
X130214285Y-134882380D01*
X129833333Y-134882380D01*
X129738095Y-134930000D01*
X129690476Y-134977619D01*
X129642857Y-135072857D01*
X129642857Y-135215714D01*
X129690476Y-135310952D01*
X129738095Y-135358571D01*
X129833333Y-135406190D01*
X130214285Y-135406190D01*
X128690476Y-135882380D02*
X129261904Y-135882380D01*
X128976190Y-135882380D02*
X128976190Y-134882380D01*
X129071428Y-135025238D01*
X129166666Y-135120476D01*
X129261904Y-135168095D01*
X127833333Y-135215714D02*
X127833333Y-135882380D01*
X128071428Y-134834761D02*
X128309523Y-135549047D01*
X127690476Y-135549047D01*
D16*
X129219032Y-133022380D02*
X129790461Y-133022380D01*
X129504747Y-133022380D02*
X129379747Y-132022380D01*
X129492842Y-132165238D01*
X129599985Y-132260476D01*
X129701175Y-132308095D01*
X128790461Y-133022380D02*
X128665461Y-132022380D01*
X128647604Y-132641428D02*
X128409508Y-133022380D01*
X128326175Y-132355714D02*
X128754747Y-132736666D01*
G04 #@! TO.C,R15*
D15*
X171642857Y-93882380D02*
X171976190Y-93406190D01*
X172214285Y-93882380D02*
X172214285Y-92882380D01*
X171833333Y-92882380D01*
X171738095Y-92930000D01*
X171690476Y-92977619D01*
X171642857Y-93072857D01*
X171642857Y-93215714D01*
X171690476Y-93310952D01*
X171738095Y-93358571D01*
X171833333Y-93406190D01*
X172214285Y-93406190D01*
X170690476Y-93882380D02*
X171261904Y-93882380D01*
X170976190Y-93882380D02*
X170976190Y-92882380D01*
X171071428Y-93025238D01*
X171166666Y-93120476D01*
X171261904Y-93168095D01*
X169785714Y-92882380D02*
X170261904Y-92882380D01*
X170309523Y-93358571D01*
X170261904Y-93310952D01*
X170166666Y-93263333D01*
X169928571Y-93263333D01*
X169833333Y-93310952D01*
X169785714Y-93358571D01*
X169738095Y-93453809D01*
X169738095Y-93691904D01*
X169785714Y-93787142D01*
X169833333Y-93834761D01*
X169928571Y-93882380D01*
X170166666Y-93882380D01*
X170261904Y-93834761D01*
X170309523Y-93787142D01*
D16*
X171219032Y-91022380D02*
X171790461Y-91022380D01*
X171504747Y-91022380D02*
X171379747Y-90022380D01*
X171492842Y-90165238D01*
X171599985Y-90260476D01*
X171701175Y-90308095D01*
X170790461Y-91022380D02*
X170665461Y-90022380D01*
X170647604Y-90641428D02*
X170409508Y-91022380D01*
X170326175Y-90355714D02*
X170754747Y-90736666D01*
G04 #@! TO.C,R16*
D15*
X171642857Y-135882380D02*
X171976190Y-135406190D01*
X172214285Y-135882380D02*
X172214285Y-134882380D01*
X171833333Y-134882380D01*
X171738095Y-134930000D01*
X171690476Y-134977619D01*
X171642857Y-135072857D01*
X171642857Y-135215714D01*
X171690476Y-135310952D01*
X171738095Y-135358571D01*
X171833333Y-135406190D01*
X172214285Y-135406190D01*
X170690476Y-135882380D02*
X171261904Y-135882380D01*
X170976190Y-135882380D02*
X170976190Y-134882380D01*
X171071428Y-135025238D01*
X171166666Y-135120476D01*
X171261904Y-135168095D01*
X169833333Y-134882380D02*
X170023809Y-134882380D01*
X170119047Y-134930000D01*
X170166666Y-134977619D01*
X170261904Y-135120476D01*
X170309523Y-135310952D01*
X170309523Y-135691904D01*
X170261904Y-135787142D01*
X170214285Y-135834761D01*
X170119047Y-135882380D01*
X169928571Y-135882380D01*
X169833333Y-135834761D01*
X169785714Y-135787142D01*
X169738095Y-135691904D01*
X169738095Y-135453809D01*
X169785714Y-135358571D01*
X169833333Y-135310952D01*
X169928571Y-135263333D01*
X170119047Y-135263333D01*
X170214285Y-135310952D01*
X170261904Y-135358571D01*
X170309523Y-135453809D01*
D16*
X171219032Y-133022380D02*
X171790461Y-133022380D01*
X171504747Y-133022380D02*
X171379747Y-132022380D01*
X171492842Y-132165238D01*
X171599985Y-132260476D01*
X171701175Y-132308095D01*
X170790461Y-133022380D02*
X170665461Y-132022380D01*
X170647604Y-132641428D02*
X170409508Y-133022380D01*
X170326175Y-132355714D02*
X170754747Y-132736666D01*
G04 #@! TO.C,R17*
D15*
X126642857Y-33882380D02*
X126976190Y-33406190D01*
X127214285Y-33882380D02*
X127214285Y-32882380D01*
X126833333Y-32882380D01*
X126738095Y-32930000D01*
X126690476Y-32977619D01*
X126642857Y-33072857D01*
X126642857Y-33215714D01*
X126690476Y-33310952D01*
X126738095Y-33358571D01*
X126833333Y-33406190D01*
X127214285Y-33406190D01*
X125690476Y-33882380D02*
X126261904Y-33882380D01*
X125976190Y-33882380D02*
X125976190Y-32882380D01*
X126071428Y-33025238D01*
X126166666Y-33120476D01*
X126261904Y-33168095D01*
X125357142Y-32882380D02*
X124690476Y-32882380D01*
X125119047Y-33882380D01*
D16*
X129219032Y-32452380D02*
X129790461Y-32452380D01*
X129504747Y-32452380D02*
X129379747Y-31452380D01*
X129492842Y-31595238D01*
X129599985Y-31690476D01*
X129701175Y-31738095D01*
X128790461Y-32452380D02*
X128665461Y-31452380D01*
X128647604Y-32071428D02*
X128409508Y-32452380D01*
X128326175Y-31785714D02*
X128754747Y-32166666D01*
G04 #@! TO.C,R18*
D15*
X113285613Y-48876475D02*
X113184598Y-48304056D01*
X113689674Y-48472414D02*
X112982567Y-47765308D01*
X112713193Y-48034682D01*
X112679521Y-48135697D01*
X112679521Y-48203040D01*
X112713193Y-48304056D01*
X112814208Y-48405071D01*
X112915224Y-48438743D01*
X112982567Y-48438743D01*
X113083582Y-48405071D01*
X113352956Y-48135697D01*
X112612178Y-49549911D02*
X113016239Y-49145850D01*
X112814208Y-49347880D02*
X112107101Y-48640773D01*
X112275460Y-48674445D01*
X112410147Y-48674445D01*
X112511163Y-48640773D01*
X111804056Y-49549911D02*
X111837727Y-49448895D01*
X111837727Y-49381552D01*
X111804056Y-49280537D01*
X111770384Y-49246865D01*
X111669369Y-49213193D01*
X111602025Y-49213193D01*
X111501010Y-49246865D01*
X111366323Y-49381552D01*
X111332651Y-49482567D01*
X111332651Y-49549911D01*
X111366323Y-49650926D01*
X111399995Y-49684598D01*
X111501010Y-49718269D01*
X111568353Y-49718269D01*
X111669369Y-49684598D01*
X111804056Y-49549911D01*
X111905071Y-49516239D01*
X111972414Y-49516239D01*
X112073430Y-49549911D01*
X112208117Y-49684598D01*
X112241788Y-49785613D01*
X112241788Y-49852956D01*
X112208117Y-49953972D01*
X112073430Y-50088659D01*
X111972414Y-50122330D01*
X111905071Y-50122330D01*
X111804056Y-50088659D01*
X111669369Y-49953972D01*
X111635697Y-49852956D01*
X111635697Y-49785613D01*
X111669369Y-49684598D01*
D16*
X110963598Y-47153839D02*
X111367659Y-46749778D01*
X111165628Y-46951808D02*
X110370133Y-46333090D01*
X110551119Y-46354135D01*
X110694224Y-46345717D01*
X110799448Y-46307836D01*
X110660552Y-47456884D02*
X109865057Y-46838166D01*
X110290163Y-47288526D02*
X110391178Y-47726258D01*
X109860848Y-47313779D02*
X110433268Y-47280108D01*
G04 #@! TO.C,R19*
D15*
X126882380Y-47357142D02*
X126406190Y-47023809D01*
X126882380Y-46785714D02*
X125882380Y-46785714D01*
X125882380Y-47166666D01*
X125930000Y-47261904D01*
X125977619Y-47309523D01*
X126072857Y-47357142D01*
X126215714Y-47357142D01*
X126310952Y-47309523D01*
X126358571Y-47261904D01*
X126406190Y-47166666D01*
X126406190Y-46785714D01*
X126882380Y-48309523D02*
X126882380Y-47738095D01*
X126882380Y-48023809D02*
X125882380Y-48023809D01*
X126025238Y-47928571D01*
X126120476Y-47833333D01*
X126168095Y-47738095D01*
X126882380Y-48785714D02*
X126882380Y-48976190D01*
X126834761Y-49071428D01*
X126787142Y-49119047D01*
X126644285Y-49214285D01*
X126453809Y-49261904D01*
X126072857Y-49261904D01*
X125977619Y-49214285D01*
X125930000Y-49166666D01*
X125882380Y-49071428D01*
X125882380Y-48880952D01*
X125930000Y-48785714D01*
X125977619Y-48738095D01*
X126072857Y-48690476D01*
X126310952Y-48690476D01*
X126406190Y-48738095D01*
X126453809Y-48785714D01*
X126501428Y-48880952D01*
X126501428Y-49071428D01*
X126453809Y-49166666D01*
X126406190Y-49214285D01*
X126310952Y-49261904D01*
D16*
X124022380Y-47780967D02*
X124022380Y-47209538D01*
X124022380Y-47495252D02*
X123022380Y-47620252D01*
X123165238Y-47507157D01*
X123260476Y-47400014D01*
X123308095Y-47298824D01*
X124022380Y-48209538D02*
X123022380Y-48334538D01*
X123641428Y-48352395D02*
X124022380Y-48590491D01*
X123355714Y-48673824D02*
X123736666Y-48245252D01*
G04 #@! TO.C,R20*
D15*
X136882380Y-60357142D02*
X136406190Y-60023809D01*
X136882380Y-59785714D02*
X135882380Y-59785714D01*
X135882380Y-60166666D01*
X135930000Y-60261904D01*
X135977619Y-60309523D01*
X136072857Y-60357142D01*
X136215714Y-60357142D01*
X136310952Y-60309523D01*
X136358571Y-60261904D01*
X136406190Y-60166666D01*
X136406190Y-59785714D01*
X135977619Y-60738095D02*
X135930000Y-60785714D01*
X135882380Y-60880952D01*
X135882380Y-61119047D01*
X135930000Y-61214285D01*
X135977619Y-61261904D01*
X136072857Y-61309523D01*
X136168095Y-61309523D01*
X136310952Y-61261904D01*
X136882380Y-60690476D01*
X136882380Y-61309523D01*
X135882380Y-61928571D02*
X135882380Y-62023809D01*
X135930000Y-62119047D01*
X135977619Y-62166666D01*
X136072857Y-62214285D01*
X136263333Y-62261904D01*
X136501428Y-62261904D01*
X136691904Y-62214285D01*
X136787142Y-62166666D01*
X136834761Y-62119047D01*
X136882380Y-62023809D01*
X136882380Y-61928571D01*
X136834761Y-61833333D01*
X136787142Y-61785714D01*
X136691904Y-61738095D01*
X136501428Y-61690476D01*
X136263333Y-61690476D01*
X136072857Y-61738095D01*
X135977619Y-61785714D01*
X135930000Y-61833333D01*
X135882380Y-61928571D01*
D16*
X134022380Y-60780967D02*
X134022380Y-60209538D01*
X134022380Y-60495252D02*
X133022380Y-60620252D01*
X133165238Y-60507157D01*
X133260476Y-60400014D01*
X133308095Y-60298824D01*
X134022380Y-61209538D02*
X133022380Y-61334538D01*
X133641428Y-61352395D02*
X134022380Y-61590491D01*
X133355714Y-61673824D02*
X133736666Y-61245252D01*
G04 #@! TO.C,R21*
D15*
X182642857Y-50632380D02*
X182976190Y-50156190D01*
X183214285Y-50632380D02*
X183214285Y-49632380D01*
X182833333Y-49632380D01*
X182738095Y-49680000D01*
X182690476Y-49727619D01*
X182642857Y-49822857D01*
X182642857Y-49965714D01*
X182690476Y-50060952D01*
X182738095Y-50108571D01*
X182833333Y-50156190D01*
X183214285Y-50156190D01*
X182261904Y-49727619D02*
X182214285Y-49680000D01*
X182119047Y-49632380D01*
X181880952Y-49632380D01*
X181785714Y-49680000D01*
X181738095Y-49727619D01*
X181690476Y-49822857D01*
X181690476Y-49918095D01*
X181738095Y-50060952D01*
X182309523Y-50632380D01*
X181690476Y-50632380D01*
X180738095Y-50632380D02*
X181309523Y-50632380D01*
X181023809Y-50632380D02*
X181023809Y-49632380D01*
X181119047Y-49775238D01*
X181214285Y-49870476D01*
X181309523Y-49918095D01*
D16*
X182219032Y-47772380D02*
X182790461Y-47772380D01*
X182504747Y-47772380D02*
X182379747Y-46772380D01*
X182492842Y-46915238D01*
X182599985Y-47010476D01*
X182701175Y-47058095D01*
X181790461Y-47772380D02*
X181665461Y-46772380D01*
X181647604Y-47391428D02*
X181409508Y-47772380D01*
X181326175Y-47105714D02*
X181754747Y-47486666D01*
G04 #@! TO.C,R22*
D15*
X191382380Y-60357142D02*
X190906190Y-60023809D01*
X191382380Y-59785714D02*
X190382380Y-59785714D01*
X190382380Y-60166666D01*
X190430000Y-60261904D01*
X190477619Y-60309523D01*
X190572857Y-60357142D01*
X190715714Y-60357142D01*
X190810952Y-60309523D01*
X190858571Y-60261904D01*
X190906190Y-60166666D01*
X190906190Y-59785714D01*
X190477619Y-60738095D02*
X190430000Y-60785714D01*
X190382380Y-60880952D01*
X190382380Y-61119047D01*
X190430000Y-61214285D01*
X190477619Y-61261904D01*
X190572857Y-61309523D01*
X190668095Y-61309523D01*
X190810952Y-61261904D01*
X191382380Y-60690476D01*
X191382380Y-61309523D01*
X190477619Y-61690476D02*
X190430000Y-61738095D01*
X190382380Y-61833333D01*
X190382380Y-62071428D01*
X190430000Y-62166666D01*
X190477619Y-62214285D01*
X190572857Y-62261904D01*
X190668095Y-62261904D01*
X190810952Y-62214285D01*
X191382380Y-61642857D01*
X191382380Y-62261904D01*
D16*
X188522380Y-60780967D02*
X188522380Y-60209538D01*
X188522380Y-60495252D02*
X187522380Y-60620252D01*
X187665238Y-60507157D01*
X187760476Y-60400014D01*
X187808095Y-60298824D01*
X188522380Y-61209538D02*
X187522380Y-61334538D01*
X188141428Y-61352395D02*
X188522380Y-61590491D01*
X187855714Y-61673824D02*
X188236666Y-61245252D01*
G04 #@! TO.C,R23*
D15*
X159642857Y-39022380D02*
X159976190Y-38546190D01*
X160214285Y-39022380D02*
X160214285Y-38022380D01*
X159833333Y-38022380D01*
X159738095Y-38070000D01*
X159690476Y-38117619D01*
X159642857Y-38212857D01*
X159642857Y-38355714D01*
X159690476Y-38450952D01*
X159738095Y-38498571D01*
X159833333Y-38546190D01*
X160214285Y-38546190D01*
X159261904Y-38117619D02*
X159214285Y-38070000D01*
X159119047Y-38022380D01*
X158880952Y-38022380D01*
X158785714Y-38070000D01*
X158738095Y-38117619D01*
X158690476Y-38212857D01*
X158690476Y-38308095D01*
X158738095Y-38450952D01*
X159309523Y-39022380D01*
X158690476Y-39022380D01*
X158357142Y-38022380D02*
X157738095Y-38022380D01*
X158071428Y-38403333D01*
X157928571Y-38403333D01*
X157833333Y-38450952D01*
X157785714Y-38498571D01*
X157738095Y-38593809D01*
X157738095Y-38831904D01*
X157785714Y-38927142D01*
X157833333Y-38974761D01*
X157928571Y-39022380D01*
X158214285Y-39022380D01*
X158309523Y-38974761D01*
X158357142Y-38927142D01*
D16*
X160224985Y-40977619D02*
X160171413Y-40930000D01*
X160070223Y-40882380D01*
X159832127Y-40882380D01*
X159742842Y-40930000D01*
X159701175Y-40977619D01*
X159665461Y-41072857D01*
X159677366Y-41168095D01*
X159742842Y-41310952D01*
X160385699Y-41882380D01*
X159766651Y-41882380D01*
X159272604Y-40977619D02*
X159219032Y-40930000D01*
X159117842Y-40882380D01*
X158879747Y-40882380D01*
X158790461Y-40930000D01*
X158748794Y-40977619D01*
X158713080Y-41072857D01*
X158724985Y-41168095D01*
X158790461Y-41310952D01*
X159433318Y-41882380D01*
X158814270Y-41882380D01*
X158070223Y-40882380D02*
X157974985Y-40882380D01*
X157885699Y-40930000D01*
X157844032Y-40977619D01*
X157808318Y-41072857D01*
X157784508Y-41263333D01*
X157814270Y-41501428D01*
X157885699Y-41691904D01*
X157945223Y-41787142D01*
X157998794Y-41834761D01*
X158099985Y-41882380D01*
X158195223Y-41882380D01*
X158284508Y-41834761D01*
X158326175Y-41787142D01*
X158361889Y-41691904D01*
X158385699Y-41501428D01*
X158355937Y-41263333D01*
X158284508Y-41072857D01*
X158224985Y-40977619D01*
X158171413Y-40930000D01*
X158070223Y-40882380D01*
G04 #@! TD*
M02*
