G04 #@! TF.GenerationSoftware,KiCad,Pcbnew,5.1.9+dfsg1-1*
G04 #@! TF.CreationDate,2022-06-11T23:02:00-07:00*
G04 #@! TF.ProjectId,keypad,6b657970-6164-42e6-9b69-6361645f7063,rev?*
G04 #@! TF.SameCoordinates,Original*
G04 #@! TF.FileFunction,Soldermask,Top*
G04 #@! TF.FilePolarity,Negative*
%FSLAX46Y46*%
G04 Gerber Fmt 4.6, Leading zero omitted, Abs format (unit mm)*
G04 Created by KiCad (PCBNEW 5.1.9+dfsg1-1) date 2022-06-11 23:02:00*
%MOMM*%
%LPD*%
G01*
G04 APERTURE LIST*
%ADD10R,1.700000X1.700000*%
%ADD11O,1.700000X1.700000*%
%ADD12C,8.600000*%
%ADD13C,0.900000*%
%ADD14R,1.600000X2.400000*%
%ADD15O,1.600000X2.400000*%
%ADD16C,2.200000*%
%ADD17C,4.000000*%
%ADD18C,1.700000*%
%ADD19R,1.800000X2.600000*%
%ADD20O,1.800000X2.600000*%
%ADD21C,3.000000*%
G04 APERTURE END LIST*
D10*
G04 #@! TO.C,J1*
X134000000Y-44000000D03*
D11*
X136540000Y-44000000D03*
X139080000Y-44000000D03*
X141620000Y-44000000D03*
X144160000Y-44000000D03*
X146700000Y-44000000D03*
X149240000Y-44000000D03*
X151780000Y-44000000D03*
X154320000Y-44000000D03*
X156860000Y-44000000D03*
X159400000Y-44000000D03*
X161940000Y-44000000D03*
G04 #@! TD*
D12*
G04 #@! TO.C,H1*
X187000000Y-157000000D03*
D13*
X190225000Y-157000000D03*
X189280419Y-159280419D03*
X187000000Y-160225000D03*
X184719581Y-159280419D03*
X183775000Y-157000000D03*
X184719581Y-154719581D03*
X187000000Y-153775000D03*
X189280419Y-154719581D03*
G04 #@! TD*
G04 #@! TO.C,H2*
X111280419Y-154719581D03*
X109000000Y-153775000D03*
X106719581Y-154719581D03*
X105775000Y-157000000D03*
X106719581Y-159280419D03*
X109000000Y-160225000D03*
X111280419Y-159280419D03*
X112225000Y-157000000D03*
D12*
X109000000Y-157000000D03*
G04 #@! TD*
D14*
G04 #@! TO.C,U2*
X112000000Y-53000000D03*
D15*
X129780000Y-60620000D03*
X114540000Y-53000000D03*
X127240000Y-60620000D03*
X117080000Y-53000000D03*
X124700000Y-60620000D03*
X119620000Y-53000000D03*
X122160000Y-60620000D03*
X122160000Y-53000000D03*
X119620000Y-60620000D03*
X124700000Y-53000000D03*
X117080000Y-60620000D03*
X127240000Y-53000000D03*
X114540000Y-60620000D03*
X129780000Y-53000000D03*
X112000000Y-60620000D03*
G04 #@! TD*
G04 #@! TO.C,U3*
X166500000Y-60620000D03*
X184280000Y-53000000D03*
X169040000Y-60620000D03*
X181740000Y-53000000D03*
X171580000Y-60620000D03*
X179200000Y-53000000D03*
X174120000Y-60620000D03*
X176660000Y-53000000D03*
X176660000Y-60620000D03*
X174120000Y-53000000D03*
X179200000Y-60620000D03*
X171580000Y-53000000D03*
X181740000Y-60620000D03*
X169040000Y-53000000D03*
X184280000Y-60620000D03*
D14*
X166500000Y-53000000D03*
G04 #@! TD*
D13*
G04 #@! TO.C,H3*
X189280419Y-32719581D03*
X187000000Y-31775000D03*
X184719581Y-32719581D03*
X183775000Y-35000000D03*
X184719581Y-37280419D03*
X187000000Y-38225000D03*
X189280419Y-37280419D03*
X190225000Y-35000000D03*
D12*
X187000000Y-35000000D03*
G04 #@! TD*
G04 #@! TO.C,H4*
X109000000Y-35000000D03*
D13*
X112225000Y-35000000D03*
X111280419Y-37280419D03*
X109000000Y-38225000D03*
X106719581Y-37280419D03*
X105775000Y-35000000D03*
X106719581Y-32719581D03*
X109000000Y-31775000D03*
X111280419Y-32719581D03*
G04 #@! TD*
D16*
G04 #@! TO.C,SW_0*
X140000000Y-139000000D03*
X133650000Y-141540000D03*
D17*
X137460000Y-144080000D03*
D18*
X132380000Y-144080000D03*
X142540000Y-144080000D03*
G04 #@! TD*
G04 #@! TO.C,SW_1*
X121540000Y-81080000D03*
X111380000Y-81080000D03*
D17*
X116460000Y-81080000D03*
D16*
X112650000Y-78540000D03*
X119000000Y-76000000D03*
G04 #@! TD*
G04 #@! TO.C,SW_2*
X140000000Y-76000000D03*
X133650000Y-78540000D03*
D17*
X137460000Y-81080000D03*
D18*
X132380000Y-81080000D03*
X142540000Y-81080000D03*
G04 #@! TD*
D16*
G04 #@! TO.C,SW_3*
X161000000Y-76000000D03*
X154650000Y-78540000D03*
D17*
X158460000Y-81080000D03*
D18*
X153380000Y-81080000D03*
X163540000Y-81080000D03*
G04 #@! TD*
G04 #@! TO.C,SW_4*
X121540000Y-102080000D03*
X111380000Y-102080000D03*
D17*
X116460000Y-102080000D03*
D16*
X112650000Y-99540000D03*
X119000000Y-97000000D03*
G04 #@! TD*
G04 #@! TO.C,SW_5*
X140000000Y-97000000D03*
X133650000Y-99540000D03*
D17*
X137460000Y-102080000D03*
D18*
X132380000Y-102080000D03*
X142540000Y-102080000D03*
G04 #@! TD*
D16*
G04 #@! TO.C,SW_6*
X161000000Y-97000000D03*
X154650000Y-99540000D03*
D17*
X158460000Y-102080000D03*
D18*
X153380000Y-102080000D03*
X163540000Y-102080000D03*
G04 #@! TD*
G04 #@! TO.C,SW_7*
X121540000Y-123080000D03*
X111380000Y-123080000D03*
D17*
X116460000Y-123080000D03*
D16*
X112650000Y-120540000D03*
X119000000Y-118000000D03*
G04 #@! TD*
G04 #@! TO.C,SW_8*
X140000000Y-118000000D03*
X133650000Y-120540000D03*
D17*
X137460000Y-123080000D03*
D18*
X132380000Y-123080000D03*
X142540000Y-123080000D03*
G04 #@! TD*
D16*
G04 #@! TO.C,SW_9*
X161000000Y-118000000D03*
X154650000Y-120540000D03*
D17*
X158460000Y-123080000D03*
D18*
X153380000Y-123080000D03*
X163540000Y-123080000D03*
G04 #@! TD*
G04 #@! TO.C,SW_A1*
X184540000Y-81080000D03*
X174380000Y-81080000D03*
D17*
X179460000Y-81080000D03*
D16*
X175650000Y-78540000D03*
X182000000Y-76000000D03*
G04 #@! TD*
D18*
G04 #@! TO.C,SW_B1*
X184540000Y-102080000D03*
X174380000Y-102080000D03*
D17*
X179460000Y-102080000D03*
D16*
X175650000Y-99540000D03*
X182000000Y-97000000D03*
G04 #@! TD*
D18*
G04 #@! TO.C,SW_C1*
X184540000Y-123080000D03*
X174380000Y-123080000D03*
D17*
X179460000Y-123080000D03*
D16*
X175650000Y-120540000D03*
X182000000Y-118000000D03*
G04 #@! TD*
D18*
G04 #@! TO.C,SW_D1*
X184540000Y-144080000D03*
X174380000Y-144080000D03*
D17*
X179460000Y-144080000D03*
D16*
X175650000Y-141540000D03*
X182000000Y-139000000D03*
G04 #@! TD*
G04 #@! TO.C,SW_OCTO1*
X161000000Y-139000000D03*
X154650000Y-141540000D03*
D17*
X158460000Y-144080000D03*
D18*
X153380000Y-144080000D03*
X163540000Y-144080000D03*
G04 #@! TD*
G04 #@! TO.C,SW_STAR1*
X121540000Y-144080000D03*
X111380000Y-144080000D03*
D17*
X116460000Y-144080000D03*
D16*
X112650000Y-141540000D03*
X119000000Y-139000000D03*
G04 #@! TD*
D19*
G04 #@! TO.C,U1*
X116000000Y-36000000D03*
D20*
X118540000Y-36000000D03*
X121080000Y-36000000D03*
X123620000Y-36000000D03*
X126160000Y-36000000D03*
X128700000Y-36000000D03*
X131240000Y-36000000D03*
X133780000Y-36000000D03*
X136320000Y-36000000D03*
X138860000Y-36000000D03*
X141400000Y-36000000D03*
X143940000Y-36000000D03*
X146480000Y-36000000D03*
X149020000Y-36000000D03*
X151560000Y-36000000D03*
X154100000Y-36000000D03*
D21*
X110500900Y-67000700D03*
X185499480Y-67000700D03*
G04 #@! TD*
M02*
