G04 #@! TF.GenerationSoftware,KiCad,Pcbnew,5.1.9+dfsg1-1*
G04 #@! TF.CreationDate,2022-06-11T23:02:00-07:00*
G04 #@! TF.ProjectId,keypad,6b657970-6164-42e6-9b69-6361645f7063,rev?*
G04 #@! TF.SameCoordinates,Original*
G04 #@! TF.FileFunction,Legend,Top*
G04 #@! TF.FilePolarity,Positive*
%FSLAX46Y46*%
G04 Gerber Fmt 4.6, Leading zero omitted, Abs format (unit mm)*
G04 Created by KiCad (PCBNEW 5.1.9+dfsg1-1) date 2022-06-11 23:02:00*
%MOMM*%
%LPD*%
G01*
G04 APERTURE LIST*
%ADD10C,0.300000*%
%ADD11C,0.750000*%
%ADD12C,0.120000*%
%ADD13C,0.010000*%
%ADD14C,0.150000*%
%ADD15C,0.250000*%
G04 APERTURE END LIST*
D10*
X131799819Y-46830161D02*
X131973467Y-45845353D01*
X132060291Y-45352949D02*
X131977544Y-45410889D01*
X132035484Y-45493636D01*
X132118231Y-45435696D01*
X132060291Y-45352949D01*
X132035484Y-45493636D01*
X132676901Y-45969387D02*
X132503253Y-46954195D01*
X132652094Y-46110074D02*
X132734841Y-46052134D01*
X132887931Y-46006598D01*
X133098961Y-46043808D01*
X133227245Y-46138958D01*
X133272781Y-46292049D01*
X133136343Y-47065826D01*
X133781837Y-47107114D02*
X133910121Y-47202264D01*
X134191494Y-47251878D01*
X134344585Y-47206341D01*
X134439735Y-47078058D01*
X134452138Y-47007714D01*
X134406602Y-46854624D01*
X134278319Y-46759474D01*
X134067288Y-46722264D01*
X133939005Y-46627113D01*
X133893468Y-46474023D01*
X133905872Y-46403680D01*
X134001022Y-46275396D01*
X134154112Y-46229860D01*
X134365143Y-46267070D01*
X134493426Y-46362220D01*
X135035615Y-47400719D02*
X135209264Y-46415911D01*
X135296088Y-45923507D02*
X135213341Y-45981447D01*
X135271281Y-46064194D01*
X135354028Y-46006254D01*
X135296088Y-45923507D01*
X135271281Y-46064194D01*
X136372140Y-47636384D02*
X136632613Y-46159173D01*
X136384544Y-47566041D02*
X136231453Y-47611578D01*
X135950080Y-47561964D01*
X135821796Y-47466813D01*
X135763856Y-47384067D01*
X135718320Y-47230976D01*
X135792741Y-46808916D01*
X135887891Y-46680633D01*
X135970638Y-46622693D01*
X136123728Y-46577156D01*
X136405102Y-46626770D01*
X136533385Y-46721920D01*
X137650725Y-47789303D02*
X137497635Y-47834839D01*
X137216261Y-47785226D01*
X137087978Y-47690075D01*
X137042441Y-47536985D01*
X137141669Y-46974238D01*
X137236819Y-46845954D01*
X137389909Y-46800418D01*
X137671283Y-46850032D01*
X137799566Y-46945182D01*
X137845103Y-47098272D01*
X137820296Y-47238959D01*
X137092055Y-47255612D01*
X139678281Y-48219346D02*
X139549997Y-48124196D01*
X139492057Y-48041449D01*
X139446521Y-47888359D01*
X139520941Y-47466298D01*
X139616092Y-47338015D01*
X139698838Y-47280075D01*
X139851929Y-47234538D01*
X140062959Y-47271749D01*
X140191242Y-47366899D01*
X140249182Y-47449646D01*
X140294719Y-47602736D01*
X140220298Y-48024797D01*
X140125148Y-48153080D01*
X140042401Y-48211020D01*
X139889311Y-48256556D01*
X139678281Y-48219346D01*
X140766393Y-47395783D02*
X141329140Y-47495011D01*
X140803775Y-48417801D02*
X141027037Y-47151620D01*
X141122187Y-47023336D01*
X141275278Y-46977800D01*
X141415964Y-47002607D01*
X142806352Y-47755483D02*
X142984421Y-48802308D01*
X143509786Y-47879517D02*
X142984421Y-48802308D01*
X142781717Y-49129218D01*
X142698970Y-49187158D01*
X142545880Y-49232695D01*
X144109915Y-49000763D02*
X143981632Y-48905613D01*
X143923692Y-48822866D01*
X143878156Y-48669776D01*
X143952576Y-48247715D01*
X144047727Y-48119432D01*
X144130473Y-48061492D01*
X144283564Y-48015955D01*
X144494594Y-48053166D01*
X144622877Y-48148316D01*
X144680817Y-48231063D01*
X144726354Y-48384153D01*
X144651933Y-48806213D01*
X144556783Y-48934497D01*
X144474036Y-48992437D01*
X144320946Y-49037973D01*
X144109915Y-49000763D01*
X146042149Y-48326041D02*
X145868501Y-49310849D01*
X145409058Y-48214410D02*
X145272620Y-48988188D01*
X145318157Y-49141278D01*
X145446440Y-49236428D01*
X145657470Y-49273639D01*
X145810561Y-49228102D01*
X145893308Y-49170162D01*
X148330520Y-49744969D02*
X148466958Y-48971192D01*
X148421421Y-48818102D01*
X148293138Y-48722951D01*
X148011764Y-48673338D01*
X147858674Y-48718874D01*
X148342924Y-49674626D02*
X148189833Y-49720163D01*
X147838116Y-49658145D01*
X147709833Y-49562995D01*
X147664296Y-49409905D01*
X147689103Y-49269218D01*
X147784253Y-49140935D01*
X147937344Y-49095398D01*
X148289061Y-49157415D01*
X148442151Y-49111879D01*
X149033954Y-49869004D02*
X149207602Y-48884196D01*
X149157989Y-49165570D02*
X149253139Y-49037286D01*
X149335886Y-48979346D01*
X149488976Y-48933810D01*
X149629663Y-48958617D01*
X150523569Y-50059133D02*
X150370479Y-50104669D01*
X150089105Y-50055055D01*
X149960822Y-49959905D01*
X149915285Y-49806815D01*
X150014513Y-49244068D01*
X150109663Y-49115784D01*
X150262754Y-49070248D01*
X150544127Y-49119861D01*
X150672411Y-49215012D01*
X150717947Y-49368102D01*
X150693140Y-49508789D01*
X149964899Y-49525441D01*
X152302712Y-49429948D02*
X152865460Y-49529175D01*
X152600567Y-48974754D02*
X152377305Y-50240935D01*
X152422841Y-50394026D01*
X152551125Y-50489176D01*
X152691812Y-50513983D01*
X153217177Y-49591192D02*
X153324902Y-50625614D01*
X153730310Y-49971793D01*
X153887650Y-50724841D01*
X154342671Y-49789647D01*
X154942801Y-50910893D02*
X154814517Y-50815743D01*
X154756577Y-50732996D01*
X154711041Y-50579906D01*
X154785461Y-50157845D01*
X154880612Y-50029562D01*
X154963359Y-49971622D01*
X155116449Y-49926085D01*
X155327479Y-49963295D01*
X155455763Y-50058446D01*
X155513702Y-50141193D01*
X155559239Y-50294283D01*
X155484818Y-50716343D01*
X155389668Y-50844627D01*
X155306921Y-50902567D01*
X155153831Y-50948103D01*
X154942801Y-50910893D01*
X157226751Y-50298188D02*
X157334477Y-51332610D01*
X157739885Y-50678790D01*
X157897224Y-51431837D01*
X158352246Y-50496643D01*
X158952375Y-51617889D02*
X158824092Y-51522739D01*
X158766152Y-51439992D01*
X158720615Y-51286902D01*
X158795036Y-50864841D01*
X158890186Y-50736558D01*
X158972933Y-50678618D01*
X159126023Y-50633081D01*
X159337054Y-50670292D01*
X159465337Y-50765442D01*
X159523277Y-50848189D01*
X159568813Y-51001279D01*
X159494393Y-51423340D01*
X159399242Y-51551623D01*
X159316496Y-51609563D01*
X159163405Y-51655099D01*
X158952375Y-51617889D01*
X160288900Y-51853554D02*
X160160617Y-51758404D01*
X160115080Y-51605314D01*
X160338342Y-50339132D01*
X160884609Y-50943167D02*
X161062677Y-51989992D01*
X161588043Y-51067202D01*
X162552293Y-52180121D02*
X162399202Y-52225658D01*
X162117829Y-52176044D01*
X161989545Y-52080894D01*
X161944009Y-51927803D01*
X162043236Y-51365056D01*
X162138387Y-51236773D01*
X162291477Y-51191236D01*
X162572850Y-51240850D01*
X162701134Y-51336000D01*
X162746670Y-51489090D01*
X162721863Y-51629777D01*
X161993622Y-51646430D01*
X163185383Y-52291752D02*
X163313667Y-52386902D01*
X163595040Y-52436516D01*
X163748131Y-52390980D01*
X163843281Y-52262696D01*
X163855684Y-52192353D01*
X163810148Y-52039263D01*
X163681864Y-51944112D01*
X163470834Y-51906902D01*
X163342551Y-51811752D01*
X163297014Y-51658661D01*
X163309418Y-51588318D01*
X163404568Y-51460035D01*
X163557658Y-51414498D01*
X163768688Y-51451708D01*
X163896972Y-51546859D01*
X129633602Y-49037536D02*
X129505319Y-48942386D01*
X129447379Y-48859639D01*
X129401842Y-48706549D01*
X129476263Y-48284489D01*
X129571413Y-48156205D01*
X129654160Y-48098265D01*
X129807250Y-48052729D01*
X130018280Y-48089939D01*
X130146564Y-48185089D01*
X130204504Y-48267836D01*
X130250040Y-48420926D01*
X130175620Y-48842987D01*
X130080469Y-48971270D01*
X129997722Y-49029210D01*
X129844632Y-49074747D01*
X129633602Y-49037536D01*
X130932745Y-48251184D02*
X130759097Y-49235991D01*
X130907938Y-48391871D02*
X130990685Y-48333931D01*
X131143775Y-48288394D01*
X131354805Y-48325604D01*
X131483089Y-48420755D01*
X131528625Y-48573845D01*
X131392187Y-49347622D01*
X132670772Y-49500541D02*
X132517682Y-49546078D01*
X132236308Y-49496464D01*
X132108025Y-49401313D01*
X132062488Y-49248223D01*
X132161716Y-48685476D01*
X132256866Y-48557193D01*
X132409956Y-48511656D01*
X132691330Y-48561270D01*
X132819613Y-48656420D01*
X132865150Y-48809510D01*
X132840343Y-48950197D01*
X132112102Y-48966850D01*
X134487297Y-49893374D02*
X134747770Y-48416162D01*
X135120388Y-50005005D02*
X135256826Y-49231227D01*
X135211289Y-49078137D01*
X135083006Y-48982987D01*
X134871976Y-48945776D01*
X134718885Y-48991313D01*
X134636139Y-49049253D01*
X136456913Y-50240670D02*
X136593351Y-49466893D01*
X136547814Y-49313802D01*
X136419531Y-49218652D01*
X136138157Y-49169038D01*
X135985067Y-49214575D01*
X136469316Y-50170327D02*
X136316226Y-50215863D01*
X135964509Y-50153846D01*
X135836226Y-50058696D01*
X135790689Y-49905606D01*
X135815496Y-49764919D01*
X135910646Y-49636635D01*
X136063736Y-49591099D01*
X136415454Y-49653116D01*
X136568544Y-49607580D01*
X137102407Y-50281958D02*
X137230690Y-50377108D01*
X137512064Y-50426722D01*
X137665154Y-50381185D01*
X137760305Y-50252902D01*
X137772708Y-50182559D01*
X137727171Y-50029468D01*
X137598888Y-49934318D01*
X137387858Y-49897108D01*
X137259574Y-49801957D01*
X137214038Y-49648867D01*
X137226441Y-49578524D01*
X137321592Y-49450240D01*
X137474682Y-49404704D01*
X137685712Y-49441914D01*
X137813996Y-49537064D01*
X140114770Y-50885649D02*
X140251208Y-50111872D01*
X140205672Y-49958781D01*
X140077388Y-49863631D01*
X139796014Y-49814017D01*
X139642924Y-49859554D01*
X140127174Y-50815306D02*
X139974083Y-50860842D01*
X139622366Y-50798825D01*
X139494083Y-50703675D01*
X139448546Y-50550585D01*
X139473353Y-50409898D01*
X139568504Y-50281614D01*
X139721594Y-50236078D01*
X140073311Y-50298095D01*
X140226401Y-50252558D01*
X142750438Y-50334962D02*
X142539579Y-51530800D01*
X142444429Y-51659083D01*
X142361682Y-51717023D01*
X142208592Y-51762560D01*
X141997562Y-51725349D01*
X141869278Y-51630199D01*
X142589193Y-51249426D02*
X142436103Y-51294963D01*
X142154729Y-51245349D01*
X142026446Y-51150199D01*
X141968506Y-51067452D01*
X141922969Y-50914362D01*
X141997390Y-50492301D01*
X142092540Y-50364018D01*
X142175287Y-50306078D01*
X142328377Y-50260541D01*
X142609751Y-50310155D01*
X142738034Y-50405305D01*
X143491254Y-51481014D02*
X143362971Y-51385864D01*
X143305031Y-51303117D01*
X143259494Y-51150027D01*
X143333915Y-50727966D01*
X143429065Y-50599683D01*
X143511812Y-50541743D01*
X143664902Y-50496207D01*
X143875932Y-50533417D01*
X144004216Y-50628567D01*
X144062156Y-50711314D01*
X144107692Y-50864404D01*
X144033272Y-51286465D01*
X143938121Y-51414748D01*
X143855374Y-51472688D01*
X143702284Y-51518225D01*
X143491254Y-51481014D01*
X145249839Y-51791100D02*
X145510311Y-50313889D01*
X145262243Y-51720757D02*
X145109152Y-51766294D01*
X144827779Y-51716680D01*
X144699495Y-51621529D01*
X144641555Y-51538783D01*
X144596019Y-51385692D01*
X144670439Y-50963632D01*
X144765590Y-50835348D01*
X144848337Y-50777409D01*
X145001427Y-50731872D01*
X145282801Y-50781486D01*
X145411084Y-50876636D01*
X147724262Y-52154877D02*
X147571172Y-52200414D01*
X147289798Y-52150800D01*
X147161515Y-52055650D01*
X147103575Y-51972903D01*
X147058038Y-51819813D01*
X147132459Y-51397752D01*
X147227609Y-51269469D01*
X147310356Y-51211529D01*
X147463446Y-51165992D01*
X147744820Y-51215606D01*
X147873103Y-51310756D01*
X148555979Y-52374062D02*
X148427696Y-52278912D01*
X148369756Y-52196165D01*
X148324220Y-52043075D01*
X148398640Y-51621014D01*
X148493791Y-51492731D01*
X148576537Y-51434791D01*
X148729628Y-51389254D01*
X148940658Y-51426465D01*
X149068941Y-51521615D01*
X149126881Y-51604362D01*
X149172418Y-51757452D01*
X149097997Y-52179513D01*
X149002847Y-52307796D01*
X148920100Y-52365736D01*
X148767010Y-52411272D01*
X148555979Y-52374062D01*
X149681474Y-52572517D02*
X149855122Y-51587709D01*
X149830315Y-51728396D02*
X149913062Y-51670456D01*
X150066152Y-51624920D01*
X150277183Y-51662130D01*
X150405466Y-51757280D01*
X150451003Y-51910371D01*
X150314565Y-52684148D01*
X150451003Y-51910371D02*
X150546153Y-51782087D01*
X150699243Y-51736551D01*
X150910273Y-51773761D01*
X151038557Y-51868911D01*
X151084093Y-52022002D01*
X150947655Y-52795779D01*
X151824738Y-51935006D02*
X151564265Y-53412217D01*
X151812334Y-52005349D02*
X151965425Y-51959813D01*
X152246798Y-52009426D01*
X152375082Y-52104577D01*
X152433022Y-52187324D01*
X152478558Y-52340414D01*
X152404137Y-52762474D01*
X152308987Y-52890758D01*
X152226240Y-52948698D01*
X152073150Y-52994234D01*
X151791776Y-52944620D01*
X151663493Y-52849470D01*
X153198645Y-53192689D02*
X153070361Y-53097539D01*
X153024825Y-52944449D01*
X153248087Y-51678267D01*
X154336543Y-53320801D02*
X154183452Y-53366337D01*
X153902079Y-53316724D01*
X153773795Y-53221573D01*
X153728259Y-53068483D01*
X153827486Y-52505736D01*
X153922637Y-52377452D01*
X154075727Y-52331916D01*
X154357101Y-52381530D01*
X154485384Y-52476680D01*
X154530920Y-52629770D01*
X154506114Y-52770457D01*
X153777873Y-52787109D01*
X154886886Y-53490372D02*
X155834312Y-52642002D01*
X155060535Y-52505564D02*
X155660664Y-53626810D01*
X157981997Y-54036123D02*
X158118434Y-53262346D01*
X158072898Y-53109255D01*
X157944615Y-53014105D01*
X157663241Y-52964491D01*
X157510151Y-53010028D01*
X157994400Y-53965780D02*
X157841310Y-54011316D01*
X157489593Y-53949299D01*
X157361309Y-53854149D01*
X157315773Y-53701059D01*
X157340580Y-53560372D01*
X157435730Y-53432088D01*
X157588820Y-53386552D01*
X157940537Y-53448569D01*
X158093628Y-53403033D01*
X158859079Y-53175350D02*
X158685431Y-54160158D01*
X158834272Y-53316037D02*
X158917019Y-53258097D01*
X159070109Y-53212560D01*
X159281139Y-53249771D01*
X159409423Y-53344921D01*
X159454959Y-53498011D01*
X159318521Y-54271789D01*
X160655046Y-54507454D02*
X160915518Y-53030242D01*
X160667450Y-54437111D02*
X160514359Y-54482647D01*
X160232986Y-54433033D01*
X160104702Y-54337883D01*
X160046762Y-54255136D01*
X160001226Y-54102046D01*
X160075646Y-53679986D01*
X160170797Y-53551702D01*
X160253544Y-53493762D01*
X160406634Y-53448226D01*
X160688008Y-53497839D01*
X160816291Y-53592990D01*
X162446593Y-53807925D02*
X163009340Y-53907153D01*
X162744447Y-53352732D02*
X162521185Y-54618913D01*
X162566722Y-54772004D01*
X162695005Y-54867154D01*
X162835692Y-54891961D01*
X163328096Y-54978785D02*
X163588568Y-53501573D01*
X163961186Y-55090416D02*
X164097624Y-54316638D01*
X164052088Y-54163548D01*
X163923804Y-54068398D01*
X163712774Y-54031187D01*
X163559684Y-54076724D01*
X163476937Y-54134664D01*
X165239771Y-55243334D02*
X165086681Y-55288871D01*
X164805307Y-55239257D01*
X164677024Y-55144107D01*
X164631488Y-54991017D01*
X164730715Y-54428269D01*
X164825865Y-54299986D01*
X164978956Y-54254449D01*
X165260329Y-54304063D01*
X165388613Y-54399213D01*
X165434149Y-54552304D01*
X165409342Y-54692990D01*
X164681101Y-54709643D01*
X130949384Y-51858882D02*
X130821101Y-51763732D01*
X130763161Y-51680985D01*
X130717624Y-51527895D01*
X130792045Y-51105835D01*
X130887195Y-50977551D01*
X130969942Y-50919611D01*
X131123032Y-50874075D01*
X131334063Y-50911285D01*
X131462346Y-51006435D01*
X131520286Y-51089182D01*
X131565823Y-51242272D01*
X131491402Y-51664333D01*
X131396252Y-51792616D01*
X131313505Y-51850556D01*
X131160414Y-51896093D01*
X130949384Y-51858882D01*
X132037497Y-51035319D02*
X132600244Y-51134547D01*
X132335351Y-50580126D02*
X132112089Y-51846307D01*
X132157626Y-51999398D01*
X132285909Y-52094548D01*
X132426596Y-52119355D01*
X132919000Y-52206179D02*
X133179472Y-50728967D01*
X133552090Y-52317810D02*
X133688528Y-51544032D01*
X133642992Y-51390942D01*
X133514708Y-51295792D01*
X133303678Y-51258581D01*
X133150588Y-51304118D01*
X133067841Y-51362058D01*
X134830675Y-52470728D02*
X134677585Y-52516265D01*
X134396211Y-52466651D01*
X134267928Y-52371501D01*
X134222391Y-52218411D01*
X134321619Y-51655663D01*
X134416769Y-51527380D01*
X134569860Y-51481843D01*
X134851233Y-51531457D01*
X134979517Y-51626607D01*
X135025053Y-51779698D01*
X135000246Y-51920384D01*
X134272005Y-51937037D01*
X135521706Y-52665106D02*
X135695354Y-51680298D01*
X135645740Y-51961672D02*
X135740891Y-51833389D01*
X135823638Y-51775449D01*
X135976728Y-51729912D01*
X136117415Y-51754719D01*
X137561665Y-53024806D02*
X137822137Y-51547594D01*
X138194756Y-53136437D02*
X138331193Y-52362659D01*
X138285657Y-52209569D01*
X138157374Y-52114419D01*
X137946343Y-52077209D01*
X137793253Y-52122745D01*
X137710506Y-52180685D01*
X139531280Y-53372102D02*
X139667718Y-52598325D01*
X139622182Y-52445235D01*
X139493898Y-52350084D01*
X139212525Y-52300470D01*
X139059434Y-52346007D01*
X139543684Y-53301759D02*
X139390594Y-53347295D01*
X139038876Y-53285278D01*
X138910593Y-53190128D01*
X138865057Y-53037038D01*
X138889863Y-52896351D01*
X138985014Y-52768067D01*
X139138104Y-52722531D01*
X139489821Y-52784548D01*
X139642911Y-52739012D01*
X140176775Y-53413390D02*
X140305058Y-53508540D01*
X140586432Y-53558154D01*
X140739522Y-53512617D01*
X140834672Y-53384334D01*
X140847076Y-53313991D01*
X140801539Y-53160900D01*
X140673256Y-53065750D01*
X140462225Y-53028540D01*
X140333942Y-52933389D01*
X140288405Y-52780299D01*
X140300809Y-52709956D01*
X140395959Y-52581672D01*
X140549049Y-52536136D01*
X140760080Y-52573346D01*
X140888363Y-52668496D01*
X142556047Y-53905450D02*
X142729695Y-52920643D01*
X142816519Y-52428239D02*
X142733772Y-52486179D01*
X142791712Y-52568925D01*
X142874459Y-52510985D01*
X142816519Y-52428239D01*
X142791712Y-52568925D01*
X143259481Y-54029485D02*
X143433129Y-53044677D01*
X143408322Y-53185364D02*
X143491069Y-53127424D01*
X143644160Y-53081887D01*
X143855190Y-53119098D01*
X143983473Y-53214248D01*
X144029010Y-53367338D01*
X143892572Y-54141116D01*
X144029010Y-53367338D02*
X144124160Y-53239055D01*
X144277250Y-53193518D01*
X144488280Y-53230729D01*
X144616564Y-53325879D01*
X144662100Y-53478969D01*
X144525663Y-54252747D01*
X145402745Y-53391973D02*
X145142273Y-54869185D01*
X145390341Y-53462317D02*
X145543432Y-53416780D01*
X145824805Y-53466394D01*
X145953089Y-53561544D01*
X146011029Y-53644291D01*
X146056565Y-53797381D01*
X145982145Y-54219442D01*
X145886994Y-54347725D01*
X145804247Y-54405665D01*
X145651157Y-54451202D01*
X145369783Y-54401588D01*
X145241500Y-54306438D01*
X146776652Y-54649657D02*
X146648368Y-54554506D01*
X146590428Y-54471760D01*
X146544892Y-54318669D01*
X146619312Y-53896609D01*
X146714463Y-53768325D01*
X146797210Y-53710386D01*
X146950300Y-53664849D01*
X147161330Y-53702059D01*
X147289613Y-53797210D01*
X147347553Y-53879956D01*
X147393090Y-54033047D01*
X147318669Y-54455107D01*
X147223519Y-54583391D01*
X147140772Y-54641331D01*
X146987682Y-54686867D01*
X146776652Y-54649657D01*
X147844206Y-54765365D02*
X147972490Y-54860515D01*
X148253863Y-54910129D01*
X148406954Y-54864592D01*
X148502104Y-54736309D01*
X148514507Y-54665966D01*
X148468971Y-54512875D01*
X148340687Y-54417725D01*
X148129657Y-54380515D01*
X148001374Y-54285365D01*
X147955837Y-54132274D01*
X147968241Y-54061931D01*
X148063391Y-53933647D01*
X148216481Y-53888111D01*
X148427511Y-53925321D01*
X148555795Y-54020472D01*
X149060602Y-54036952D02*
X149623349Y-54136180D01*
X149358457Y-53581759D02*
X149135195Y-54847940D01*
X149180731Y-55001030D01*
X149309014Y-55096181D01*
X149449701Y-55120988D01*
X150517256Y-55236696D02*
X150364166Y-55282232D01*
X150082792Y-55232618D01*
X149954509Y-55137468D01*
X149908972Y-54984378D01*
X150008200Y-54421631D01*
X150103350Y-54293347D01*
X150256440Y-54247811D01*
X150537814Y-54297424D01*
X150666097Y-54392575D01*
X150711634Y-54545665D01*
X150686827Y-54686352D01*
X149958586Y-54703004D01*
X151208287Y-55431074D02*
X151381935Y-54446266D01*
X151332321Y-54727639D02*
X151427471Y-54599356D01*
X151510218Y-54541416D01*
X151663308Y-54495880D01*
X151803995Y-54520686D01*
X153190306Y-55708026D02*
X153318589Y-55803177D01*
X153599963Y-55852791D01*
X153753053Y-55807254D01*
X153848203Y-55678971D01*
X153860607Y-55608627D01*
X153815070Y-55455537D01*
X153686787Y-55360387D01*
X153475756Y-55323176D01*
X153347473Y-55228026D01*
X153301936Y-55074936D01*
X153314340Y-55004592D01*
X153409490Y-54876309D01*
X153562580Y-54830772D01*
X153773611Y-54867983D01*
X153901894Y-54963133D01*
X154477045Y-54992017D02*
X154655114Y-56038842D01*
X155180479Y-55116052D02*
X154655114Y-56038842D01*
X154452410Y-56365752D01*
X154369663Y-56423692D01*
X154216573Y-56469229D01*
X155743226Y-55215279D02*
X155569578Y-56200087D01*
X155718419Y-55355966D02*
X155801166Y-55298026D01*
X155954256Y-55252489D01*
X156165287Y-55289700D01*
X156293570Y-55384850D01*
X156339107Y-55537940D01*
X156202669Y-56311718D01*
X157539194Y-56547383D02*
X157799666Y-55070172D01*
X157551597Y-56477040D02*
X157398507Y-56522576D01*
X157117133Y-56472963D01*
X156988850Y-56377812D01*
X156930910Y-56295065D01*
X156885373Y-56141975D01*
X156959794Y-55719915D01*
X157054944Y-55591631D01*
X157137691Y-55533691D01*
X157290781Y-55488155D01*
X157572155Y-55537769D01*
X157700438Y-55632919D01*
X158242628Y-56671418D02*
X158416276Y-55686610D01*
X158366662Y-55967984D02*
X158461812Y-55839700D01*
X158544559Y-55781760D01*
X158697649Y-55736224D01*
X158838336Y-55761031D01*
X159368122Y-56869873D02*
X159239839Y-56774722D01*
X159181899Y-56691976D01*
X159136362Y-56538885D01*
X159210783Y-56116825D01*
X159305933Y-55988541D01*
X159388680Y-55930602D01*
X159541770Y-55885065D01*
X159752801Y-55922275D01*
X159881084Y-56017426D01*
X159939024Y-56100172D01*
X159984561Y-56253263D01*
X159910140Y-56675323D01*
X159814990Y-56803607D01*
X159732243Y-56861547D01*
X159579152Y-56907083D01*
X159368122Y-56869873D01*
X160493617Y-57068328D02*
X160667265Y-56083520D01*
X160642458Y-56224207D02*
X160725205Y-56166267D01*
X160878295Y-56120730D01*
X161089325Y-56157941D01*
X161217609Y-56253091D01*
X161263145Y-56406181D01*
X161126708Y-57179959D01*
X161263145Y-56406181D02*
X161358296Y-56277898D01*
X161511386Y-56232361D01*
X161722416Y-56269572D01*
X161850700Y-56364722D01*
X161896236Y-56517812D01*
X161759798Y-57291590D01*
X163038383Y-57444508D02*
X162885293Y-57490045D01*
X162603919Y-57440431D01*
X162475636Y-57345281D01*
X162430099Y-57192190D01*
X162529327Y-56629443D01*
X162624477Y-56501160D01*
X162777567Y-56455623D01*
X163058941Y-56505237D01*
X163187224Y-56600387D01*
X163232761Y-56753478D01*
X163207954Y-56894164D01*
X162479713Y-56910817D01*
X134985607Y-56733827D02*
X135163676Y-57780652D01*
X135689041Y-56857861D02*
X135163676Y-57780652D01*
X134960971Y-58107562D01*
X134878225Y-58165502D01*
X134725134Y-58211039D01*
X136289170Y-57979107D02*
X136160887Y-57883957D01*
X136102947Y-57801210D01*
X136057410Y-57648120D01*
X136131831Y-57226059D01*
X136226981Y-57097776D01*
X136309728Y-57039836D01*
X136462818Y-56994299D01*
X136673849Y-57031510D01*
X136802132Y-57126660D01*
X136860072Y-57209407D01*
X136905608Y-57362497D01*
X136831188Y-57784557D01*
X136736037Y-57912841D01*
X136653291Y-57970781D01*
X136500200Y-58016317D01*
X136289170Y-57979107D01*
X138221404Y-57304385D02*
X138047755Y-58289193D01*
X137588313Y-57192754D02*
X137451875Y-57966532D01*
X137497412Y-58119622D01*
X137625695Y-58214772D01*
X137836725Y-58251983D01*
X137989815Y-58206446D01*
X138072562Y-58148506D01*
X140509775Y-58723313D02*
X140646213Y-57949536D01*
X140600676Y-57796446D01*
X140472393Y-57701295D01*
X140191019Y-57651682D01*
X140037929Y-57697218D01*
X140522178Y-58652970D02*
X140369088Y-58698507D01*
X140017371Y-58636489D01*
X139889087Y-58541339D01*
X139843551Y-58388249D01*
X139868358Y-58247562D01*
X139963508Y-58119279D01*
X140116598Y-58073742D01*
X140468315Y-58135759D01*
X140621406Y-58090223D01*
X141213209Y-58847348D02*
X141386857Y-57862540D01*
X141337243Y-58143914D02*
X141432394Y-58015630D01*
X141515140Y-57957690D01*
X141668231Y-57912154D01*
X141808918Y-57936961D01*
X142702824Y-59037477D02*
X142549734Y-59083013D01*
X142268360Y-59033400D01*
X142140077Y-58938249D01*
X142094540Y-58785159D01*
X142193768Y-58222412D01*
X142288918Y-58094128D01*
X142442008Y-58048592D01*
X142723382Y-58098206D01*
X142851665Y-58193356D01*
X142897202Y-58346446D01*
X142872395Y-58487133D01*
X142144154Y-58503785D01*
X145152440Y-59541941D02*
X145288878Y-58768163D01*
X145243341Y-58615073D01*
X145115058Y-58519923D01*
X144833684Y-58470309D01*
X144680594Y-58515845D01*
X145164843Y-59471597D02*
X145011753Y-59517134D01*
X144660036Y-59455117D01*
X144531753Y-59359966D01*
X144486216Y-59206876D01*
X144511023Y-59066189D01*
X144606173Y-58937906D01*
X144759264Y-58892369D01*
X145110981Y-58954386D01*
X145264071Y-58908850D01*
X146029522Y-58681167D02*
X145855874Y-59665975D01*
X146004715Y-58821854D02*
X146087462Y-58763914D01*
X146240552Y-58718378D01*
X146451583Y-58755588D01*
X146579866Y-58850738D01*
X146625403Y-59003828D01*
X146488965Y-59777606D01*
X148893044Y-60128980D02*
X148739954Y-60174516D01*
X148458580Y-60124902D01*
X148330297Y-60029752D01*
X148284760Y-59876662D01*
X148383988Y-59313915D01*
X148479138Y-59185631D01*
X148632228Y-59140095D01*
X148913602Y-59189708D01*
X149041885Y-59284859D01*
X149087422Y-59437949D01*
X149062615Y-59578636D01*
X148334374Y-59595288D01*
X149757723Y-59338550D02*
X149584075Y-60323357D01*
X149732916Y-59479236D02*
X149815663Y-59421297D01*
X149968753Y-59375760D01*
X150179783Y-59412970D01*
X150308067Y-59508121D01*
X150353603Y-59661211D01*
X150217165Y-60434988D01*
X151727338Y-59685846D02*
X151516480Y-60881684D01*
X151421330Y-61009967D01*
X151338583Y-61067907D01*
X151185493Y-61113444D01*
X150974462Y-61076234D01*
X150846179Y-60981083D01*
X151566094Y-60600310D02*
X151413003Y-60645847D01*
X151131630Y-60596233D01*
X151003346Y-60501083D01*
X150945406Y-60418336D01*
X150899870Y-60265246D01*
X150974291Y-59843185D01*
X151069441Y-59714902D01*
X151152188Y-59656962D01*
X151305278Y-59611425D01*
X151586652Y-59661039D01*
X151714935Y-59756189D01*
X152257124Y-60794688D02*
X152430773Y-59809880D01*
X152517597Y-59317477D02*
X152434850Y-59375417D01*
X152492790Y-59458163D01*
X152575537Y-59400223D01*
X152517597Y-59317477D01*
X152492790Y-59458163D01*
X153134207Y-59933915D02*
X152960558Y-60918723D01*
X153109400Y-60074602D02*
X153192147Y-60016662D01*
X153345237Y-59971125D01*
X153556267Y-60008335D01*
X153684551Y-60103486D01*
X153730087Y-60256576D01*
X153593649Y-61030354D01*
X154872234Y-61183272D02*
X154719144Y-61228809D01*
X154437770Y-61179195D01*
X154309487Y-61084045D01*
X154263950Y-60930954D01*
X154363178Y-60368207D01*
X154458328Y-60239924D01*
X154611418Y-60194387D01*
X154892792Y-60244001D01*
X155021075Y-60339151D01*
X155066612Y-60492241D01*
X155041805Y-60632928D01*
X154313564Y-60649581D01*
X156138415Y-61406534D02*
X155985325Y-61452071D01*
X155703952Y-61402457D01*
X155575668Y-61307307D01*
X155530132Y-61154216D01*
X155629359Y-60591469D01*
X155724509Y-60463186D01*
X155877600Y-60417649D01*
X156158973Y-60467263D01*
X156287257Y-60562413D01*
X156332793Y-60715503D01*
X156307986Y-60856190D01*
X155579745Y-60872843D01*
X156829446Y-61600912D02*
X157003094Y-60616104D01*
X156953481Y-60897478D02*
X157048631Y-60769194D01*
X157131378Y-60711254D01*
X157284468Y-60665718D01*
X157425155Y-60690525D01*
X177714285Y-159178571D02*
X178214285Y-160678571D01*
X178714285Y-159178571D01*
X179142857Y-159321428D02*
X179214285Y-159250000D01*
X179357142Y-159178571D01*
X179714285Y-159178571D01*
X179857142Y-159250000D01*
X179928571Y-159321428D01*
X180000000Y-159464285D01*
X180000000Y-159607142D01*
X179928571Y-159821428D01*
X179071428Y-160678571D01*
X180000000Y-160678571D01*
X180642857Y-160535714D02*
X180714285Y-160607142D01*
X180642857Y-160678571D01*
X180571428Y-160607142D01*
X180642857Y-160535714D01*
X180642857Y-160678571D01*
X182142857Y-160678571D02*
X181285714Y-160678571D01*
X181714285Y-160678571D02*
X181714285Y-159178571D01*
X181571428Y-159392857D01*
X181428571Y-159535714D01*
X181285714Y-159607142D01*
D11*
X132000000Y-158385714D02*
X132428571Y-158528571D01*
X132571428Y-158671428D01*
X132714285Y-158957142D01*
X132714285Y-159385714D01*
X132571428Y-159671428D01*
X132428571Y-159814285D01*
X132142857Y-159957142D01*
X131000000Y-159957142D01*
X131000000Y-156957142D01*
X132000000Y-156957142D01*
X132285714Y-157100000D01*
X132428571Y-157242857D01*
X132571428Y-157528571D01*
X132571428Y-157814285D01*
X132428571Y-158100000D01*
X132285714Y-158242857D01*
X132000000Y-158385714D01*
X131000000Y-158385714D01*
X134000000Y-156957142D02*
X134000000Y-159385714D01*
X134142857Y-159671428D01*
X134285714Y-159814285D01*
X134571428Y-159957142D01*
X135142857Y-159957142D01*
X135428571Y-159814285D01*
X135571428Y-159671428D01*
X135714285Y-159385714D01*
X135714285Y-156957142D01*
X138714285Y-157100000D02*
X138428571Y-156957142D01*
X138000000Y-156957142D01*
X137571428Y-157100000D01*
X137285714Y-157385714D01*
X137142857Y-157671428D01*
X137000000Y-158242857D01*
X137000000Y-158671428D01*
X137142857Y-159242857D01*
X137285714Y-159528571D01*
X137571428Y-159814285D01*
X138000000Y-159957142D01*
X138285714Y-159957142D01*
X138714285Y-159814285D01*
X138857142Y-159671428D01*
X138857142Y-158671428D01*
X138285714Y-158671428D01*
X141714285Y-157100000D02*
X141428571Y-156957142D01*
X141000000Y-156957142D01*
X140571428Y-157100000D01*
X140285714Y-157385714D01*
X140142857Y-157671428D01*
X140000000Y-158242857D01*
X140000000Y-158671428D01*
X140142857Y-159242857D01*
X140285714Y-159528571D01*
X140571428Y-159814285D01*
X141000000Y-159957142D01*
X141285714Y-159957142D01*
X141714285Y-159814285D01*
X141857142Y-159671428D01*
X141857142Y-158671428D01*
X141285714Y-158671428D01*
X143714285Y-158528571D02*
X143714285Y-159957142D01*
X142714285Y-156957142D02*
X143714285Y-158528571D01*
X144714285Y-156957142D01*
X146714285Y-158385714D02*
X147142857Y-158528571D01*
X147285714Y-158671428D01*
X147428571Y-158957142D01*
X147428571Y-159385714D01*
X147285714Y-159671428D01*
X147142857Y-159814285D01*
X146857142Y-159957142D01*
X145714285Y-159957142D01*
X145714285Y-156957142D01*
X146714285Y-156957142D01*
X147000000Y-157100000D01*
X147142857Y-157242857D01*
X147285714Y-157528571D01*
X147285714Y-157814285D01*
X147142857Y-158100000D01*
X147000000Y-158242857D01*
X146714285Y-158385714D01*
X145714285Y-158385714D01*
X149285714Y-156957142D02*
X149857142Y-156957142D01*
X150142857Y-157100000D01*
X150428571Y-157385714D01*
X150571428Y-157957142D01*
X150571428Y-158957142D01*
X150428571Y-159528571D01*
X150142857Y-159814285D01*
X149857142Y-159957142D01*
X149285714Y-159957142D01*
X149000000Y-159814285D01*
X148714285Y-159528571D01*
X148571428Y-158957142D01*
X148571428Y-157957142D01*
X148714285Y-157385714D01*
X149000000Y-157100000D01*
X149285714Y-156957142D01*
X152428571Y-158528571D02*
X152428571Y-159957142D01*
X151428571Y-156957142D02*
X152428571Y-158528571D01*
X153428571Y-156957142D01*
D12*
G04 #@! TO.C,J1*
X163270000Y-45330000D02*
X163270000Y-42670000D01*
X135270000Y-45330000D02*
X163270000Y-45330000D01*
X135270000Y-42670000D02*
X163270000Y-42670000D01*
X135270000Y-45330000D02*
X135270000Y-42670000D01*
X134000000Y-45330000D02*
X132670000Y-45330000D01*
X132670000Y-45330000D02*
X132670000Y-44000000D01*
D13*
G04 #@! TO.C,G\u002A\u002A\u002A*
G36*
X166750194Y-161454603D02*
G01*
X166751724Y-161496207D01*
X166710120Y-161494676D01*
X166668517Y-161493146D01*
X166705261Y-161489817D01*
X166728479Y-161486754D01*
X166739601Y-161479611D01*
X166744000Y-161463015D01*
X166745334Y-161449744D01*
X166748663Y-161413000D01*
X166750194Y-161454603D01*
G37*
X166750194Y-161454603D02*
X166751724Y-161496207D01*
X166710120Y-161494676D01*
X166668517Y-161493146D01*
X166705261Y-161489817D01*
X166728479Y-161486754D01*
X166739601Y-161479611D01*
X166744000Y-161463015D01*
X166745334Y-161449744D01*
X166748663Y-161413000D01*
X166750194Y-161454603D01*
G36*
X165284918Y-159868431D02*
G01*
X165301607Y-159875589D01*
X165319303Y-159885015D01*
X165333197Y-159895720D01*
X165345774Y-159911001D01*
X165359520Y-159934158D01*
X165376922Y-159968489D01*
X165386526Y-159988296D01*
X165431912Y-160082551D01*
X165476761Y-160175883D01*
X165520049Y-160266151D01*
X165560753Y-160351214D01*
X165597848Y-160428928D01*
X165630310Y-160497151D01*
X165657117Y-160553743D01*
X165676079Y-160594069D01*
X165692975Y-160629608D01*
X165708581Y-160661381D01*
X165720426Y-160684397D01*
X165723781Y-160690414D01*
X165736376Y-160713841D01*
X165749500Y-160741090D01*
X165750342Y-160742965D01*
X165759305Y-160762512D01*
X165773899Y-160793713D01*
X165792176Y-160832430D01*
X165812189Y-160874523D01*
X165814195Y-160878724D01*
X165840770Y-160935319D01*
X165860038Y-160979030D01*
X165872864Y-161012466D01*
X165880113Y-161038238D01*
X165882651Y-161058955D01*
X165881341Y-161077227D01*
X165880878Y-161079855D01*
X165875006Y-161101495D01*
X165864809Y-161120599D01*
X165848216Y-161138804D01*
X165823157Y-161157747D01*
X165787562Y-161179065D01*
X165739361Y-161204395D01*
X165696561Y-161225610D01*
X165650780Y-161247798D01*
X165610398Y-161267033D01*
X165578056Y-161282086D01*
X165556391Y-161291726D01*
X165548187Y-161294758D01*
X165536955Y-161299396D01*
X165519072Y-161310633D01*
X165518010Y-161311384D01*
X165494279Y-161322006D01*
X165460182Y-161330094D01*
X165422813Y-161334558D01*
X165389264Y-161334304D01*
X165379109Y-161332768D01*
X165368083Y-161328907D01*
X165356691Y-161321185D01*
X165344217Y-161308348D01*
X165329947Y-161289141D01*
X165313165Y-161262308D01*
X165293157Y-161226595D01*
X165269207Y-161180747D01*
X165240600Y-161123509D01*
X165206622Y-161053625D01*
X165166556Y-160969842D01*
X165137879Y-160909379D01*
X165119139Y-160869928D01*
X165095530Y-160820446D01*
X165069799Y-160766678D01*
X165044692Y-160714370D01*
X165039487Y-160703552D01*
X165012831Y-160648159D01*
X164982939Y-160586029D01*
X164953328Y-160524476D01*
X164927515Y-160470808D01*
X164925717Y-160467069D01*
X164901237Y-160416188D01*
X164874867Y-160361412D01*
X164849747Y-160309263D01*
X164829018Y-160266265D01*
X164828707Y-160265620D01*
X164805284Y-160213262D01*
X164791615Y-160171754D01*
X164787313Y-160137661D01*
X164791996Y-160107546D01*
X164805278Y-160077975D01*
X164807312Y-160074500D01*
X164818792Y-160058303D01*
X164834068Y-160044047D01*
X164856512Y-160029431D01*
X164889498Y-160012152D01*
X164920214Y-159997452D01*
X164958401Y-159979446D01*
X164991817Y-159963513D01*
X165016634Y-159951489D01*
X165028465Y-159945521D01*
X165052948Y-159932349D01*
X165073824Y-159921697D01*
X165097474Y-159910435D01*
X165130278Y-159895429D01*
X165133273Y-159894071D01*
X165182608Y-159873706D01*
X165221632Y-159862941D01*
X165254388Y-159861330D01*
X165284918Y-159868431D01*
G37*
X165284918Y-159868431D02*
X165301607Y-159875589D01*
X165319303Y-159885015D01*
X165333197Y-159895720D01*
X165345774Y-159911001D01*
X165359520Y-159934158D01*
X165376922Y-159968489D01*
X165386526Y-159988296D01*
X165431912Y-160082551D01*
X165476761Y-160175883D01*
X165520049Y-160266151D01*
X165560753Y-160351214D01*
X165597848Y-160428928D01*
X165630310Y-160497151D01*
X165657117Y-160553743D01*
X165676079Y-160594069D01*
X165692975Y-160629608D01*
X165708581Y-160661381D01*
X165720426Y-160684397D01*
X165723781Y-160690414D01*
X165736376Y-160713841D01*
X165749500Y-160741090D01*
X165750342Y-160742965D01*
X165759305Y-160762512D01*
X165773899Y-160793713D01*
X165792176Y-160832430D01*
X165812189Y-160874523D01*
X165814195Y-160878724D01*
X165840770Y-160935319D01*
X165860038Y-160979030D01*
X165872864Y-161012466D01*
X165880113Y-161038238D01*
X165882651Y-161058955D01*
X165881341Y-161077227D01*
X165880878Y-161079855D01*
X165875006Y-161101495D01*
X165864809Y-161120599D01*
X165848216Y-161138804D01*
X165823157Y-161157747D01*
X165787562Y-161179065D01*
X165739361Y-161204395D01*
X165696561Y-161225610D01*
X165650780Y-161247798D01*
X165610398Y-161267033D01*
X165578056Y-161282086D01*
X165556391Y-161291726D01*
X165548187Y-161294758D01*
X165536955Y-161299396D01*
X165519072Y-161310633D01*
X165518010Y-161311384D01*
X165494279Y-161322006D01*
X165460182Y-161330094D01*
X165422813Y-161334558D01*
X165389264Y-161334304D01*
X165379109Y-161332768D01*
X165368083Y-161328907D01*
X165356691Y-161321185D01*
X165344217Y-161308348D01*
X165329947Y-161289141D01*
X165313165Y-161262308D01*
X165293157Y-161226595D01*
X165269207Y-161180747D01*
X165240600Y-161123509D01*
X165206622Y-161053625D01*
X165166556Y-160969842D01*
X165137879Y-160909379D01*
X165119139Y-160869928D01*
X165095530Y-160820446D01*
X165069799Y-160766678D01*
X165044692Y-160714370D01*
X165039487Y-160703552D01*
X165012831Y-160648159D01*
X164982939Y-160586029D01*
X164953328Y-160524476D01*
X164927515Y-160470808D01*
X164925717Y-160467069D01*
X164901237Y-160416188D01*
X164874867Y-160361412D01*
X164849747Y-160309263D01*
X164829018Y-160266265D01*
X164828707Y-160265620D01*
X164805284Y-160213262D01*
X164791615Y-160171754D01*
X164787313Y-160137661D01*
X164791996Y-160107546D01*
X164805278Y-160077975D01*
X164807312Y-160074500D01*
X164818792Y-160058303D01*
X164834068Y-160044047D01*
X164856512Y-160029431D01*
X164889498Y-160012152D01*
X164920214Y-159997452D01*
X164958401Y-159979446D01*
X164991817Y-159963513D01*
X165016634Y-159951489D01*
X165028465Y-159945521D01*
X165052948Y-159932349D01*
X165073824Y-159921697D01*
X165097474Y-159910435D01*
X165130278Y-159895429D01*
X165133273Y-159894071D01*
X165182608Y-159873706D01*
X165221632Y-159862941D01*
X165254388Y-159861330D01*
X165284918Y-159868431D01*
G36*
X164600531Y-156796926D02*
G01*
X164677593Y-156814677D01*
X164753432Y-156841686D01*
X164788920Y-156858111D01*
X164818155Y-156874231D01*
X164854545Y-156896367D01*
X164894532Y-156922112D01*
X164934560Y-156949059D01*
X164971072Y-156974802D01*
X165000513Y-156996934D01*
X165019324Y-157013048D01*
X165021842Y-157015729D01*
X165034167Y-157027093D01*
X165054233Y-157043068D01*
X165061310Y-157048336D01*
X165096713Y-157077244D01*
X165140676Y-157117980D01*
X165191238Y-157168367D01*
X165246437Y-157226229D01*
X165304309Y-157289390D01*
X165362893Y-157355672D01*
X165420227Y-157422901D01*
X165474349Y-157488899D01*
X165523295Y-157551490D01*
X165560551Y-157602056D01*
X165586184Y-157638066D01*
X165612180Y-157674485D01*
X165634014Y-157704977D01*
X165639379Y-157712442D01*
X165655548Y-157735723D01*
X165676573Y-157767139D01*
X165700362Y-157803427D01*
X165724823Y-157841324D01*
X165747866Y-157877565D01*
X165767397Y-157908886D01*
X165781325Y-157932026D01*
X165787485Y-157943518D01*
X165794458Y-157955811D01*
X165808045Y-157976184D01*
X165815950Y-157987321D01*
X165830560Y-158009079D01*
X165839507Y-158025466D01*
X165840827Y-158029945D01*
X165845475Y-158042299D01*
X165856710Y-158060747D01*
X165857221Y-158061475D01*
X165874156Y-158087950D01*
X165897256Y-158127715D01*
X165925139Y-158178252D01*
X165956422Y-158237045D01*
X165989723Y-158301575D01*
X165997454Y-158316827D01*
X166018099Y-158357554D01*
X166037163Y-158394895D01*
X166052580Y-158424826D01*
X166062287Y-158443318D01*
X166062562Y-158443827D01*
X166075981Y-158470530D01*
X166094496Y-158510050D01*
X166116616Y-158558971D01*
X166140851Y-158613878D01*
X166165711Y-158671355D01*
X166189705Y-158727988D01*
X166211342Y-158780361D01*
X166229133Y-158825058D01*
X166230732Y-158829207D01*
X166244155Y-158863438D01*
X166256903Y-158894747D01*
X166266262Y-158916469D01*
X166266411Y-158916793D01*
X166274094Y-158935992D01*
X166285886Y-158968578D01*
X166300683Y-159011214D01*
X166317379Y-159060564D01*
X166334872Y-159113290D01*
X166352057Y-159166057D01*
X166367828Y-159215526D01*
X166381083Y-159258363D01*
X166390716Y-159291229D01*
X166392508Y-159297793D01*
X166420888Y-159405879D01*
X166445429Y-159502778D01*
X166465886Y-159587438D01*
X166482016Y-159658808D01*
X166493574Y-159715833D01*
X166500316Y-159757462D01*
X166501323Y-159766379D01*
X166504211Y-159792394D01*
X166508671Y-159828442D01*
X166513793Y-159867213D01*
X166514379Y-159871483D01*
X166521571Y-159925561D01*
X166526684Y-159970282D01*
X166530063Y-160010978D01*
X166532048Y-160052982D01*
X166532982Y-160101629D01*
X166533207Y-160162250D01*
X166533206Y-160164896D01*
X166531658Y-160260013D01*
X166526724Y-160340984D01*
X166517837Y-160410951D01*
X166504430Y-160473056D01*
X166485938Y-160530442D01*
X166461793Y-160586251D01*
X166454677Y-160600582D01*
X166409699Y-160671771D01*
X166348854Y-160740871D01*
X166273773Y-160806553D01*
X166186090Y-160867485D01*
X166087437Y-160922339D01*
X166023220Y-160951970D01*
X165982267Y-160969509D01*
X165973279Y-160946013D01*
X165961426Y-160919553D01*
X165951282Y-160900620D01*
X165941191Y-160881752D01*
X165927019Y-160852946D01*
X165911758Y-160820292D01*
X165911115Y-160818878D01*
X165897895Y-160790282D01*
X165879017Y-160750160D01*
X165856487Y-160702741D01*
X165832309Y-160652252D01*
X165817636Y-160621809D01*
X165756215Y-160494575D01*
X165700270Y-160378351D01*
X165647538Y-160268428D01*
X165595758Y-160160100D01*
X165591778Y-160151758D01*
X165568092Y-160102135D01*
X165543835Y-160051365D01*
X165521483Y-160004626D01*
X165503512Y-159967096D01*
X165499662Y-159959069D01*
X165479369Y-159916068D01*
X165466397Y-159886086D01*
X165460096Y-159866543D01*
X165459819Y-159854859D01*
X165464917Y-159848451D01*
X165471202Y-159845766D01*
X165490040Y-159834688D01*
X165515524Y-159813013D01*
X165544148Y-159784418D01*
X165572407Y-159752582D01*
X165596793Y-159721183D01*
X165611028Y-159699082D01*
X165640425Y-159634301D01*
X165662803Y-159558811D01*
X165671097Y-159516758D01*
X165674578Y-159482994D01*
X165676594Y-159436704D01*
X165677214Y-159382741D01*
X165676508Y-159325962D01*
X165674548Y-159271222D01*
X165671403Y-159223375D01*
X165667143Y-159187276D01*
X165666254Y-159182351D01*
X165653239Y-159117288D01*
X165641504Y-159063256D01*
X165629705Y-159015405D01*
X165616499Y-158968887D01*
X165600540Y-158918853D01*
X165580487Y-158860454D01*
X165564747Y-158816069D01*
X165547190Y-158771607D01*
X165523427Y-158717886D01*
X165496203Y-158660705D01*
X165468261Y-158605862D01*
X165446592Y-158566448D01*
X165431945Y-158540931D01*
X165419501Y-158519132D01*
X165416533Y-158513896D01*
X165406718Y-158497882D01*
X165390567Y-158472858D01*
X165371923Y-158444762D01*
X165352392Y-158415674D01*
X165335061Y-158389778D01*
X165324069Y-158373264D01*
X165303244Y-158345459D01*
X165273155Y-158309975D01*
X165237547Y-158270864D01*
X165200165Y-158232177D01*
X165164754Y-158197965D01*
X165148896Y-158183750D01*
X165059856Y-158114449D01*
X164972271Y-158061860D01*
X164886469Y-158026082D01*
X164802778Y-158007211D01*
X164721527Y-158005346D01*
X164643043Y-158020582D01*
X164622571Y-158027565D01*
X164582350Y-158042577D01*
X164555093Y-157989202D01*
X164538735Y-157956400D01*
X164523715Y-157924988D01*
X164514775Y-157905172D01*
X164502364Y-157878044D01*
X164489992Y-157853862D01*
X164489295Y-157852620D01*
X164478724Y-157832533D01*
X164464606Y-157803907D01*
X164454489Y-157782552D01*
X164443140Y-157758402D01*
X164425996Y-157722267D01*
X164404865Y-157677939D01*
X164381556Y-157629215D01*
X164364775Y-157594241D01*
X164339685Y-157541960D01*
X164314215Y-157488783D01*
X164290582Y-157439347D01*
X164271002Y-157398288D01*
X164262148Y-157379655D01*
X164246042Y-157345842D01*
X164224524Y-157300890D01*
X164199815Y-157249427D01*
X164174135Y-157196081D01*
X164159173Y-157165069D01*
X164126207Y-157096748D01*
X164100161Y-157042617D01*
X164080300Y-157001109D01*
X164065888Y-156970657D01*
X164056190Y-156949695D01*
X164050470Y-156936657D01*
X164047992Y-156929977D01*
X164047892Y-156928123D01*
X164066473Y-156918118D01*
X164095836Y-156904270D01*
X164132226Y-156888141D01*
X164171890Y-156871291D01*
X164211071Y-156855282D01*
X164246016Y-156841674D01*
X164272970Y-156832030D01*
X164288178Y-156827911D01*
X164289014Y-156827862D01*
X164302205Y-156825152D01*
X164326286Y-156818099D01*
X164351656Y-156809722D01*
X164379889Y-156800894D01*
X164401419Y-156795900D01*
X164410812Y-156795676D01*
X164422709Y-156796772D01*
X164445616Y-156795041D01*
X164461344Y-156792901D01*
X164526899Y-156789359D01*
X164600531Y-156796926D01*
G37*
X164600531Y-156796926D02*
X164677593Y-156814677D01*
X164753432Y-156841686D01*
X164788920Y-156858111D01*
X164818155Y-156874231D01*
X164854545Y-156896367D01*
X164894532Y-156922112D01*
X164934560Y-156949059D01*
X164971072Y-156974802D01*
X165000513Y-156996934D01*
X165019324Y-157013048D01*
X165021842Y-157015729D01*
X165034167Y-157027093D01*
X165054233Y-157043068D01*
X165061310Y-157048336D01*
X165096713Y-157077244D01*
X165140676Y-157117980D01*
X165191238Y-157168367D01*
X165246437Y-157226229D01*
X165304309Y-157289390D01*
X165362893Y-157355672D01*
X165420227Y-157422901D01*
X165474349Y-157488899D01*
X165523295Y-157551490D01*
X165560551Y-157602056D01*
X165586184Y-157638066D01*
X165612180Y-157674485D01*
X165634014Y-157704977D01*
X165639379Y-157712442D01*
X165655548Y-157735723D01*
X165676573Y-157767139D01*
X165700362Y-157803427D01*
X165724823Y-157841324D01*
X165747866Y-157877565D01*
X165767397Y-157908886D01*
X165781325Y-157932026D01*
X165787485Y-157943518D01*
X165794458Y-157955811D01*
X165808045Y-157976184D01*
X165815950Y-157987321D01*
X165830560Y-158009079D01*
X165839507Y-158025466D01*
X165840827Y-158029945D01*
X165845475Y-158042299D01*
X165856710Y-158060747D01*
X165857221Y-158061475D01*
X165874156Y-158087950D01*
X165897256Y-158127715D01*
X165925139Y-158178252D01*
X165956422Y-158237045D01*
X165989723Y-158301575D01*
X165997454Y-158316827D01*
X166018099Y-158357554D01*
X166037163Y-158394895D01*
X166052580Y-158424826D01*
X166062287Y-158443318D01*
X166062562Y-158443827D01*
X166075981Y-158470530D01*
X166094496Y-158510050D01*
X166116616Y-158558971D01*
X166140851Y-158613878D01*
X166165711Y-158671355D01*
X166189705Y-158727988D01*
X166211342Y-158780361D01*
X166229133Y-158825058D01*
X166230732Y-158829207D01*
X166244155Y-158863438D01*
X166256903Y-158894747D01*
X166266262Y-158916469D01*
X166266411Y-158916793D01*
X166274094Y-158935992D01*
X166285886Y-158968578D01*
X166300683Y-159011214D01*
X166317379Y-159060564D01*
X166334872Y-159113290D01*
X166352057Y-159166057D01*
X166367828Y-159215526D01*
X166381083Y-159258363D01*
X166390716Y-159291229D01*
X166392508Y-159297793D01*
X166420888Y-159405879D01*
X166445429Y-159502778D01*
X166465886Y-159587438D01*
X166482016Y-159658808D01*
X166493574Y-159715833D01*
X166500316Y-159757462D01*
X166501323Y-159766379D01*
X166504211Y-159792394D01*
X166508671Y-159828442D01*
X166513793Y-159867213D01*
X166514379Y-159871483D01*
X166521571Y-159925561D01*
X166526684Y-159970282D01*
X166530063Y-160010978D01*
X166532048Y-160052982D01*
X166532982Y-160101629D01*
X166533207Y-160162250D01*
X166533206Y-160164896D01*
X166531658Y-160260013D01*
X166526724Y-160340984D01*
X166517837Y-160410951D01*
X166504430Y-160473056D01*
X166485938Y-160530442D01*
X166461793Y-160586251D01*
X166454677Y-160600582D01*
X166409699Y-160671771D01*
X166348854Y-160740871D01*
X166273773Y-160806553D01*
X166186090Y-160867485D01*
X166087437Y-160922339D01*
X166023220Y-160951970D01*
X165982267Y-160969509D01*
X165973279Y-160946013D01*
X165961426Y-160919553D01*
X165951282Y-160900620D01*
X165941191Y-160881752D01*
X165927019Y-160852946D01*
X165911758Y-160820292D01*
X165911115Y-160818878D01*
X165897895Y-160790282D01*
X165879017Y-160750160D01*
X165856487Y-160702741D01*
X165832309Y-160652252D01*
X165817636Y-160621809D01*
X165756215Y-160494575D01*
X165700270Y-160378351D01*
X165647538Y-160268428D01*
X165595758Y-160160100D01*
X165591778Y-160151758D01*
X165568092Y-160102135D01*
X165543835Y-160051365D01*
X165521483Y-160004626D01*
X165503512Y-159967096D01*
X165499662Y-159959069D01*
X165479369Y-159916068D01*
X165466397Y-159886086D01*
X165460096Y-159866543D01*
X165459819Y-159854859D01*
X165464917Y-159848451D01*
X165471202Y-159845766D01*
X165490040Y-159834688D01*
X165515524Y-159813013D01*
X165544148Y-159784418D01*
X165572407Y-159752582D01*
X165596793Y-159721183D01*
X165611028Y-159699082D01*
X165640425Y-159634301D01*
X165662803Y-159558811D01*
X165671097Y-159516758D01*
X165674578Y-159482994D01*
X165676594Y-159436704D01*
X165677214Y-159382741D01*
X165676508Y-159325962D01*
X165674548Y-159271222D01*
X165671403Y-159223375D01*
X165667143Y-159187276D01*
X165666254Y-159182351D01*
X165653239Y-159117288D01*
X165641504Y-159063256D01*
X165629705Y-159015405D01*
X165616499Y-158968887D01*
X165600540Y-158918853D01*
X165580487Y-158860454D01*
X165564747Y-158816069D01*
X165547190Y-158771607D01*
X165523427Y-158717886D01*
X165496203Y-158660705D01*
X165468261Y-158605862D01*
X165446592Y-158566448D01*
X165431945Y-158540931D01*
X165419501Y-158519132D01*
X165416533Y-158513896D01*
X165406718Y-158497882D01*
X165390567Y-158472858D01*
X165371923Y-158444762D01*
X165352392Y-158415674D01*
X165335061Y-158389778D01*
X165324069Y-158373264D01*
X165303244Y-158345459D01*
X165273155Y-158309975D01*
X165237547Y-158270864D01*
X165200165Y-158232177D01*
X165164754Y-158197965D01*
X165148896Y-158183750D01*
X165059856Y-158114449D01*
X164972271Y-158061860D01*
X164886469Y-158026082D01*
X164802778Y-158007211D01*
X164721527Y-158005346D01*
X164643043Y-158020582D01*
X164622571Y-158027565D01*
X164582350Y-158042577D01*
X164555093Y-157989202D01*
X164538735Y-157956400D01*
X164523715Y-157924988D01*
X164514775Y-157905172D01*
X164502364Y-157878044D01*
X164489992Y-157853862D01*
X164489295Y-157852620D01*
X164478724Y-157832533D01*
X164464606Y-157803907D01*
X164454489Y-157782552D01*
X164443140Y-157758402D01*
X164425996Y-157722267D01*
X164404865Y-157677939D01*
X164381556Y-157629215D01*
X164364775Y-157594241D01*
X164339685Y-157541960D01*
X164314215Y-157488783D01*
X164290582Y-157439347D01*
X164271002Y-157398288D01*
X164262148Y-157379655D01*
X164246042Y-157345842D01*
X164224524Y-157300890D01*
X164199815Y-157249427D01*
X164174135Y-157196081D01*
X164159173Y-157165069D01*
X164126207Y-157096748D01*
X164100161Y-157042617D01*
X164080300Y-157001109D01*
X164065888Y-156970657D01*
X164056190Y-156949695D01*
X164050470Y-156936657D01*
X164047992Y-156929977D01*
X164047892Y-156928123D01*
X164066473Y-156918118D01*
X164095836Y-156904270D01*
X164132226Y-156888141D01*
X164171890Y-156871291D01*
X164211071Y-156855282D01*
X164246016Y-156841674D01*
X164272970Y-156832030D01*
X164288178Y-156827911D01*
X164289014Y-156827862D01*
X164302205Y-156825152D01*
X164326286Y-156818099D01*
X164351656Y-156809722D01*
X164379889Y-156800894D01*
X164401419Y-156795900D01*
X164410812Y-156795676D01*
X164422709Y-156796772D01*
X164445616Y-156795041D01*
X164461344Y-156792901D01*
X164526899Y-156789359D01*
X164600531Y-156796926D01*
G36*
X163844507Y-156956091D02*
G01*
X163859757Y-156958205D01*
X163876755Y-156960711D01*
X163891331Y-156963214D01*
X163904280Y-156966951D01*
X163916394Y-156973161D01*
X163928468Y-156983082D01*
X163941295Y-156997950D01*
X163955668Y-157019004D01*
X163972381Y-157047481D01*
X163992227Y-157084620D01*
X164015999Y-157131657D01*
X164044492Y-157189831D01*
X164078499Y-157260380D01*
X164118812Y-157344541D01*
X164152395Y-157414689D01*
X164173837Y-157459407D01*
X164199635Y-157513141D01*
X164226540Y-157569129D01*
X164251259Y-157620517D01*
X164275998Y-157672002D01*
X164302825Y-157727983D01*
X164328505Y-157781700D01*
X164349779Y-157826345D01*
X164372754Y-157874588D01*
X164398289Y-157928062D01*
X164422423Y-157978478D01*
X164433481Y-158001517D01*
X164451745Y-158041305D01*
X164468103Y-158080143D01*
X164480223Y-158112340D01*
X164484384Y-158125700D01*
X164490065Y-158150357D01*
X164489854Y-158168035D01*
X164482378Y-158186318D01*
X164469562Y-158207558D01*
X164460546Y-158221198D01*
X164450949Y-158233143D01*
X164438867Y-158244544D01*
X164422396Y-158256554D01*
X164399632Y-158270323D01*
X164368670Y-158287004D01*
X164327607Y-158307748D01*
X164274537Y-158333706D01*
X164207556Y-158366031D01*
X164207344Y-158366133D01*
X164144067Y-158395374D01*
X164093298Y-158415661D01*
X164052713Y-158427356D01*
X164019987Y-158430821D01*
X163992794Y-158426417D01*
X163968809Y-158414508D01*
X163956512Y-158405202D01*
X163933689Y-158380234D01*
X163909727Y-158344275D01*
X163894003Y-158314806D01*
X163878384Y-158282365D01*
X163857708Y-158239434D01*
X163834521Y-158191303D01*
X163811374Y-158143263D01*
X163808488Y-158137276D01*
X163748602Y-158012923D01*
X163696216Y-157903954D01*
X163651156Y-157810007D01*
X163613247Y-157730719D01*
X163589960Y-157681827D01*
X163570368Y-157640791D01*
X163545529Y-157589047D01*
X163517871Y-157531635D01*
X163489820Y-157473594D01*
X163471879Y-157436586D01*
X163448649Y-157388094D01*
X163427876Y-157343521D01*
X163410899Y-157305836D01*
X163399058Y-157278009D01*
X163393751Y-157263268D01*
X163392583Y-157222666D01*
X163407301Y-157182950D01*
X163436323Y-157146337D01*
X163478068Y-157115047D01*
X163511034Y-157098713D01*
X163541938Y-157084820D01*
X163569680Y-157070533D01*
X163582455Y-157062790D01*
X163600244Y-157051710D01*
X163611333Y-157046838D01*
X163611561Y-157046827D01*
X163621255Y-157043223D01*
X163643477Y-157033386D01*
X163675022Y-157018776D01*
X163712682Y-157000855D01*
X163716485Y-156999022D01*
X163758220Y-156979135D01*
X163788084Y-156965983D01*
X163809883Y-156958481D01*
X163827423Y-156955545D01*
X163844507Y-156956091D01*
G37*
X163844507Y-156956091D02*
X163859757Y-156958205D01*
X163876755Y-156960711D01*
X163891331Y-156963214D01*
X163904280Y-156966951D01*
X163916394Y-156973161D01*
X163928468Y-156983082D01*
X163941295Y-156997950D01*
X163955668Y-157019004D01*
X163972381Y-157047481D01*
X163992227Y-157084620D01*
X164015999Y-157131657D01*
X164044492Y-157189831D01*
X164078499Y-157260380D01*
X164118812Y-157344541D01*
X164152395Y-157414689D01*
X164173837Y-157459407D01*
X164199635Y-157513141D01*
X164226540Y-157569129D01*
X164251259Y-157620517D01*
X164275998Y-157672002D01*
X164302825Y-157727983D01*
X164328505Y-157781700D01*
X164349779Y-157826345D01*
X164372754Y-157874588D01*
X164398289Y-157928062D01*
X164422423Y-157978478D01*
X164433481Y-158001517D01*
X164451745Y-158041305D01*
X164468103Y-158080143D01*
X164480223Y-158112340D01*
X164484384Y-158125700D01*
X164490065Y-158150357D01*
X164489854Y-158168035D01*
X164482378Y-158186318D01*
X164469562Y-158207558D01*
X164460546Y-158221198D01*
X164450949Y-158233143D01*
X164438867Y-158244544D01*
X164422396Y-158256554D01*
X164399632Y-158270323D01*
X164368670Y-158287004D01*
X164327607Y-158307748D01*
X164274537Y-158333706D01*
X164207556Y-158366031D01*
X164207344Y-158366133D01*
X164144067Y-158395374D01*
X164093298Y-158415661D01*
X164052713Y-158427356D01*
X164019987Y-158430821D01*
X163992794Y-158426417D01*
X163968809Y-158414508D01*
X163956512Y-158405202D01*
X163933689Y-158380234D01*
X163909727Y-158344275D01*
X163894003Y-158314806D01*
X163878384Y-158282365D01*
X163857708Y-158239434D01*
X163834521Y-158191303D01*
X163811374Y-158143263D01*
X163808488Y-158137276D01*
X163748602Y-158012923D01*
X163696216Y-157903954D01*
X163651156Y-157810007D01*
X163613247Y-157730719D01*
X163589960Y-157681827D01*
X163570368Y-157640791D01*
X163545529Y-157589047D01*
X163517871Y-157531635D01*
X163489820Y-157473594D01*
X163471879Y-157436586D01*
X163448649Y-157388094D01*
X163427876Y-157343521D01*
X163410899Y-157305836D01*
X163399058Y-157278009D01*
X163393751Y-157263268D01*
X163392583Y-157222666D01*
X163407301Y-157182950D01*
X163436323Y-157146337D01*
X163478068Y-157115047D01*
X163511034Y-157098713D01*
X163541938Y-157084820D01*
X163569680Y-157070533D01*
X163582455Y-157062790D01*
X163600244Y-157051710D01*
X163611333Y-157046838D01*
X163611561Y-157046827D01*
X163621255Y-157043223D01*
X163643477Y-157033386D01*
X163675022Y-157018776D01*
X163712682Y-157000855D01*
X163716485Y-156999022D01*
X163758220Y-156979135D01*
X163788084Y-156965983D01*
X163809883Y-156958481D01*
X163827423Y-156955545D01*
X163844507Y-156956091D01*
G36*
X163529584Y-161512060D02*
G01*
X163531360Y-161560320D01*
X163483100Y-161558544D01*
X163434840Y-161556769D01*
X163477463Y-161552908D01*
X163504396Y-161549354D01*
X163517297Y-161541069D01*
X163522400Y-161521817D01*
X163523948Y-161506423D01*
X163527809Y-161463800D01*
X163529584Y-161512060D01*
G37*
X163529584Y-161512060D02*
X163531360Y-161560320D01*
X163483100Y-161558544D01*
X163434840Y-161556769D01*
X163477463Y-161552908D01*
X163504396Y-161549354D01*
X163517297Y-161541069D01*
X163522400Y-161521817D01*
X163523948Y-161506423D01*
X163527809Y-161463800D01*
X163529584Y-161512060D01*
G36*
X154886123Y-156661176D02*
G01*
X154916877Y-156683102D01*
X154948655Y-156715092D01*
X154966259Y-156737534D01*
X154992474Y-156772231D01*
X155022297Y-156808856D01*
X155032511Y-156820680D01*
X155068457Y-156861320D01*
X155061974Y-156794583D01*
X155061534Y-156737727D01*
X155072067Y-156694422D01*
X155092973Y-156666403D01*
X155109096Y-156658000D01*
X155123370Y-156654832D01*
X155135451Y-156656729D01*
X155146361Y-156665835D01*
X155157122Y-156684292D01*
X155168755Y-156714242D01*
X155182284Y-156757830D01*
X155198730Y-156817197D01*
X155215758Y-156881640D01*
X155244633Y-156980079D01*
X155278767Y-157072036D01*
X155320662Y-157163119D01*
X155372821Y-157258936D01*
X155416377Y-157331180D01*
X155448637Y-157381603D01*
X155473292Y-157416518D01*
X155492304Y-157438343D01*
X155507633Y-157449496D01*
X155514162Y-157451747D01*
X155541908Y-157458246D01*
X155559146Y-157462657D01*
X155575067Y-157471338D01*
X155601391Y-157490079D01*
X155633360Y-157515408D01*
X155645506Y-157525619D01*
X155680785Y-157555194D01*
X155714306Y-157582328D01*
X155740101Y-157602214D01*
X155744982Y-157605728D01*
X155773942Y-157621708D01*
X155818697Y-157641091D01*
X155875286Y-157662533D01*
X155939748Y-157684686D01*
X156008121Y-157706206D01*
X156076443Y-157725747D01*
X156140753Y-157741962D01*
X156156255Y-157745451D01*
X156209762Y-157757848D01*
X156261001Y-157770955D01*
X156303984Y-157783167D01*
X156331664Y-157792456D01*
X156366376Y-157802560D01*
X156414205Y-157811720D01*
X156467947Y-157818632D01*
X156484064Y-157820066D01*
X156532080Y-157825178D01*
X156575063Y-157832127D01*
X156606995Y-157839838D01*
X156617480Y-157843917D01*
X156655211Y-157859132D01*
X156706294Y-157874111D01*
X156763804Y-157887327D01*
X156820813Y-157897250D01*
X156870396Y-157902354D01*
X156883979Y-157902720D01*
X156942450Y-157907613D01*
X156988196Y-157922976D01*
X156988319Y-157923040D01*
X157015940Y-157935602D01*
X157037444Y-157942741D01*
X157042057Y-157943360D01*
X157051776Y-157933511D01*
X157055458Y-157925097D01*
X157197446Y-157925097D01*
X157198955Y-157942314D01*
X157210895Y-157952511D01*
X157234305Y-157959666D01*
X157250140Y-157963236D01*
X157284533Y-157971713D01*
X157312144Y-157980084D01*
X157323600Y-157984819D01*
X157348149Y-157992600D01*
X157376098Y-157993320D01*
X157399200Y-157987557D01*
X157408578Y-157978857D01*
X157406875Y-157966465D01*
X157393584Y-157947447D01*
X157367406Y-157920434D01*
X157327042Y-157884059D01*
X157283612Y-157847255D01*
X157238545Y-157809732D01*
X157221577Y-157853686D01*
X157205333Y-157896880D01*
X157197446Y-157925097D01*
X157055458Y-157925097D01*
X157064405Y-157904659D01*
X157079516Y-157857845D01*
X157084812Y-157839220D01*
X157098902Y-157790547D01*
X157113345Y-157744309D01*
X157126025Y-157707121D01*
X157131937Y-157691833D01*
X157154037Y-157654851D01*
X157180744Y-157634944D01*
X157209815Y-157633474D01*
X157220879Y-157637960D01*
X157245569Y-157653593D01*
X157281400Y-157679307D01*
X157324218Y-157711803D01*
X157369871Y-157747781D01*
X157414208Y-157783943D01*
X157453075Y-157816988D01*
X157482321Y-157843618D01*
X157491785Y-157853221D01*
X157518986Y-157879867D01*
X157545463Y-157901261D01*
X157559502Y-157909776D01*
X157580300Y-157925615D01*
X157602898Y-157952126D01*
X157612925Y-157967444D01*
X157627965Y-157991718D01*
X157641570Y-158005938D01*
X157660048Y-158013622D01*
X157689704Y-158018287D01*
X157707620Y-158020258D01*
X157740671Y-158022171D01*
X157789011Y-158022847D01*
X157847652Y-158022318D01*
X157911602Y-158020614D01*
X157958556Y-158018659D01*
X158023374Y-158015823D01*
X158086629Y-158013617D01*
X158143290Y-158012173D01*
X158188324Y-158011629D01*
X158210767Y-158011871D01*
X158265772Y-158009713D01*
X158329023Y-158001214D01*
X158368247Y-157993189D01*
X158483630Y-157968241D01*
X158580736Y-157952071D01*
X158659614Y-157944680D01*
X158720311Y-157946066D01*
X158762876Y-157956228D01*
X158787358Y-157975166D01*
X158791989Y-157984849D01*
X158806464Y-158001046D01*
X158820344Y-158004205D01*
X158847221Y-158003368D01*
X158891163Y-158001180D01*
X158948974Y-157997862D01*
X159017461Y-157993633D01*
X159093428Y-157988714D01*
X159173682Y-157983324D01*
X159255027Y-157977684D01*
X159334269Y-157972014D01*
X159408213Y-157966533D01*
X159473664Y-157961462D01*
X159527429Y-157957020D01*
X159566312Y-157953428D01*
X159580465Y-157951861D01*
X159634695Y-157946141D01*
X159674052Y-157944770D01*
X159703509Y-157947719D01*
X159717137Y-157951127D01*
X159751275Y-157957529D01*
X159775138Y-157951925D01*
X159798737Y-157946375D01*
X159833093Y-157946413D01*
X159844210Y-157947604D01*
X159882671Y-157949518D01*
X159914190Y-157941807D01*
X159931535Y-157933484D01*
X159965527Y-157920025D01*
X160000327Y-157913121D01*
X160006323Y-157912879D01*
X160050484Y-157907382D01*
X160107281Y-157892090D01*
X160172663Y-157868804D01*
X160242578Y-157839324D01*
X160312975Y-157805453D01*
X160379804Y-157768989D01*
X160439014Y-157731735D01*
X160476660Y-157703809D01*
X160518390Y-157672771D01*
X160549178Y-157656243D01*
X160568242Y-157654511D01*
X160574799Y-157667861D01*
X160574800Y-157667929D01*
X160566414Y-157683123D01*
X160543296Y-157705926D01*
X160508500Y-157734127D01*
X160465083Y-157765512D01*
X160416100Y-157797871D01*
X160364607Y-157828991D01*
X160315068Y-157855943D01*
X160283767Y-157872650D01*
X160262835Y-157885313D01*
X160255712Y-157891795D01*
X160256721Y-157892213D01*
X160272505Y-157889122D01*
X160302275Y-157880577D01*
X160340996Y-157868277D01*
X160383636Y-157853922D01*
X160425161Y-157839213D01*
X160460538Y-157825850D01*
X160484734Y-157815533D01*
X160486817Y-157814493D01*
X160514559Y-157805313D01*
X160535464Y-157807589D01*
X160544289Y-157820659D01*
X160544320Y-157821758D01*
X160535180Y-157832336D01*
X160510127Y-157847204D01*
X160472711Y-157864815D01*
X160426482Y-157883617D01*
X160374989Y-157902063D01*
X160323686Y-157918058D01*
X160282342Y-157930057D01*
X160247417Y-157940440D01*
X160224284Y-157947598D01*
X160219200Y-157949322D01*
X160223299Y-157954018D01*
X160244072Y-157963565D01*
X160278756Y-157976892D01*
X160324585Y-157992929D01*
X160371600Y-158008326D01*
X160426195Y-158026176D01*
X160495437Y-158049553D01*
X160574919Y-158076928D01*
X160660233Y-158106768D01*
X160746971Y-158137543D01*
X160830726Y-158167722D01*
X160833880Y-158168869D01*
X160928747Y-158203217D01*
X161009123Y-158231856D01*
X161079522Y-158256268D01*
X161144457Y-158277935D01*
X161208440Y-158298339D01*
X161275987Y-158318964D01*
X161351609Y-158341292D01*
X161413085Y-158359108D01*
X161450491Y-158372112D01*
X161483848Y-158389545D01*
X161516045Y-158413975D01*
X161549971Y-158447969D01*
X161588514Y-158494094D01*
X161634562Y-158554920D01*
X161636854Y-158558040D01*
X161665262Y-158595158D01*
X161703064Y-158642299D01*
X161746085Y-158694365D01*
X161790144Y-158746257D01*
X161807557Y-158766320D01*
X161892982Y-158865165D01*
X161989138Y-158978524D01*
X162094576Y-159104647D01*
X162207844Y-159241785D01*
X162327493Y-159388186D01*
X162452073Y-159542101D01*
X162506348Y-159609600D01*
X162591936Y-159716354D01*
X162666183Y-159809303D01*
X162730547Y-159890422D01*
X162786486Y-159961691D01*
X162835457Y-160025086D01*
X162878917Y-160082586D01*
X162918323Y-160136167D01*
X162955133Y-160187807D01*
X162990804Y-160239484D01*
X163026794Y-160293176D01*
X163064559Y-160350859D01*
X163105557Y-160414512D01*
X163144784Y-160475963D01*
X163180760Y-160527851D01*
X163214289Y-160564505D01*
X163249903Y-160589778D01*
X163292132Y-160607520D01*
X163303729Y-160611079D01*
X163344303Y-160627288D01*
X163372228Y-160647436D01*
X163385132Y-160669015D01*
X163380643Y-160689517D01*
X163379418Y-160691086D01*
X163362431Y-160700812D01*
X163352817Y-160700109D01*
X163340229Y-160700964D01*
X163338320Y-160705792D01*
X163329383Y-160713183D01*
X163307368Y-160716926D01*
X163302255Y-160717040D01*
X163249459Y-160707197D01*
X163195767Y-160678633D01*
X163142768Y-160632793D01*
X163092054Y-160571122D01*
X163045215Y-160495067D01*
X163033910Y-160473200D01*
X163020010Y-160449628D01*
X162996491Y-160414149D01*
X162966304Y-160370822D01*
X162932398Y-160323706D01*
X162897723Y-160276861D01*
X162865230Y-160234346D01*
X162837869Y-160200221D01*
X162823479Y-160183640D01*
X162806566Y-160164042D01*
X162783667Y-160135991D01*
X162769268Y-160117761D01*
X162749547Y-160092952D01*
X162721116Y-160058037D01*
X162683359Y-160012277D01*
X162635659Y-159954933D01*
X162577401Y-159885268D01*
X162507968Y-159802543D01*
X162426744Y-159706019D01*
X162333111Y-159594959D01*
X162307080Y-159564110D01*
X162254255Y-159501519D01*
X162204611Y-159442691D01*
X162159938Y-159389750D01*
X162122028Y-159344819D01*
X162092673Y-159310020D01*
X162073662Y-159287477D01*
X162068320Y-159281136D01*
X162034792Y-159241326D01*
X161993037Y-159191775D01*
X161944673Y-159134402D01*
X161891320Y-159071127D01*
X161834596Y-159003867D01*
X161776121Y-158934544D01*
X161717514Y-158865075D01*
X161660394Y-158797380D01*
X161606381Y-158733377D01*
X161557093Y-158674987D01*
X161514151Y-158624128D01*
X161479172Y-158582720D01*
X161453777Y-158552681D01*
X161439585Y-158535931D01*
X161438400Y-158534539D01*
X161402840Y-158492870D01*
X161123440Y-158415002D01*
X161007877Y-158382844D01*
X160909256Y-158355555D01*
X160824962Y-158332482D01*
X160752381Y-158312971D01*
X160688899Y-158296369D01*
X160631902Y-158282022D01*
X160578776Y-158269276D01*
X160526907Y-158257479D01*
X160473681Y-158245976D01*
X160416483Y-158234115D01*
X160352701Y-158221241D01*
X160331300Y-158216966D01*
X160261290Y-158202875D01*
X160197840Y-158189863D01*
X160143681Y-158178508D01*
X160101544Y-158169391D01*
X160074161Y-158163091D01*
X160064392Y-158160311D01*
X160052214Y-158163005D01*
X160031960Y-158175933D01*
X160025490Y-158181124D01*
X159978525Y-158208669D01*
X159916226Y-158226081D01*
X159889745Y-158229764D01*
X159879168Y-158232027D01*
X159877530Y-158236849D01*
X159886779Y-158245863D01*
X159908863Y-158260699D01*
X159945731Y-158282990D01*
X159971025Y-158297856D01*
X160037642Y-158337930D01*
X160111351Y-158384176D01*
X160189335Y-158434659D01*
X160268775Y-158487446D01*
X160346851Y-158540600D01*
X160420744Y-158592188D01*
X160487637Y-158640274D01*
X160544709Y-158682923D01*
X160589142Y-158718201D01*
X160610360Y-158736677D01*
X160670690Y-158794024D01*
X160735934Y-158858936D01*
X160807445Y-158932854D01*
X160886581Y-159017220D01*
X160974697Y-159113472D01*
X161073148Y-159223051D01*
X161154927Y-159315236D01*
X161185436Y-159349784D01*
X161225215Y-159394831D01*
X161270084Y-159445644D01*
X161315865Y-159497489D01*
X161338604Y-159523240D01*
X161384217Y-159575023D01*
X161432003Y-159629490D01*
X161477453Y-159681488D01*
X161516061Y-159725866D01*
X161530636Y-159742713D01*
X161568234Y-159786209D01*
X161613263Y-159838178D01*
X161659793Y-159891784D01*
X161698033Y-159935753D01*
X161812830Y-160070489D01*
X161925927Y-160208817D01*
X162035184Y-160347889D01*
X162138461Y-160484859D01*
X162233617Y-160616881D01*
X162318513Y-160741107D01*
X162391009Y-160854691D01*
X162399961Y-160869440D01*
X162438373Y-160930381D01*
X162476380Y-160985617D01*
X162511512Y-161031845D01*
X162541302Y-161065764D01*
X162557749Y-161080486D01*
X162578984Y-161097729D01*
X162588520Y-161106529D01*
X162603722Y-161117600D01*
X162631275Y-161134361D01*
X162665407Y-161153315D01*
X162667760Y-161154563D01*
X162704900Y-161176906D01*
X162742450Y-161203989D01*
X162776466Y-161232393D01*
X162803003Y-161258699D01*
X162818118Y-161279487D01*
X162820160Y-161286683D01*
X162811744Y-161298439D01*
X162801815Y-161302859D01*
X162785424Y-161315155D01*
X162772217Y-161337468D01*
X162757256Y-161360898D01*
X162739663Y-161365628D01*
X162723330Y-161351462D01*
X162717915Y-161340184D01*
X162702137Y-161312573D01*
X162674855Y-161285691D01*
X162633449Y-161257456D01*
X162575297Y-161225788D01*
X162571240Y-161223744D01*
X162516455Y-161193565D01*
X162471551Y-161161624D01*
X162431951Y-161123586D01*
X162393081Y-161075117D01*
X162354741Y-161018690D01*
X162285348Y-160914778D01*
X162204045Y-160799073D01*
X162113028Y-160674410D01*
X162014493Y-160543621D01*
X161910635Y-160409540D01*
X161803650Y-160275002D01*
X161695733Y-160142839D01*
X161589081Y-160015886D01*
X161485890Y-159896976D01*
X161483327Y-159894080D01*
X161445029Y-159850986D01*
X161399686Y-159800263D01*
X161349881Y-159744771D01*
X161298197Y-159687371D01*
X161247218Y-159630922D01*
X161199526Y-159578286D01*
X161157706Y-159532323D01*
X161124340Y-159495893D01*
X161102561Y-159472440D01*
X161065555Y-159432709D01*
X161024827Y-159388241D01*
X160990855Y-159350520D01*
X160957740Y-159313549D01*
X160923043Y-159275224D01*
X160894275Y-159243841D01*
X160894274Y-159243840D01*
X160868049Y-159214835D01*
X160832062Y-159174065D01*
X160789601Y-159125342D01*
X160743951Y-159072476D01*
X160698402Y-159019278D01*
X160656241Y-158969558D01*
X160620755Y-158927129D01*
X160614097Y-158919063D01*
X160586879Y-158888822D01*
X160557960Y-158863999D01*
X160521686Y-158840430D01*
X160472405Y-158813949D01*
X160469288Y-158812367D01*
X160428888Y-158791672D01*
X160395532Y-158774137D01*
X160373215Y-158761888D01*
X160366024Y-158757357D01*
X160354210Y-158750449D01*
X160330095Y-158738870D01*
X160312713Y-158731133D01*
X160288845Y-158719979D01*
X160250690Y-158701184D01*
X160201924Y-158676604D01*
X160146226Y-158648092D01*
X160087273Y-158617504D01*
X160082040Y-158614769D01*
X159996116Y-158569843D01*
X159925811Y-158533155D01*
X159868747Y-158503507D01*
X159822544Y-158479704D01*
X159784823Y-158460548D01*
X159753207Y-158444844D01*
X159725315Y-158431396D01*
X159698770Y-158419006D01*
X159671193Y-158406479D01*
X159641334Y-158393121D01*
X159588036Y-158368193D01*
X159547940Y-158345997D01*
X159515043Y-158322631D01*
X159483338Y-158294194D01*
X159472440Y-158283361D01*
X159411480Y-158221719D01*
X159132279Y-158225426D01*
X159059262Y-158226461D01*
X158993288Y-158227522D01*
X158936964Y-158228556D01*
X158892902Y-158229512D01*
X158863709Y-158230338D01*
X158851995Y-158230980D01*
X158851888Y-158231026D01*
X158852516Y-158241231D01*
X158855115Y-158267559D01*
X158859263Y-158305955D01*
X158864236Y-158349760D01*
X158869850Y-158400951D01*
X158876490Y-158465812D01*
X158883506Y-158537760D01*
X158890252Y-158610213D01*
X158893741Y-158649370D01*
X158904293Y-158754192D01*
X158917862Y-158858975D01*
X158935215Y-158968556D01*
X158957118Y-159087775D01*
X158984340Y-159221470D01*
X158984774Y-159223520D01*
X159002533Y-159305139D01*
X159017943Y-159368905D01*
X159032146Y-159416983D01*
X159046284Y-159451537D01*
X159061497Y-159474732D01*
X159078928Y-159488732D01*
X159099719Y-159495703D01*
X159125010Y-159497809D01*
X159129438Y-159497840D01*
X159174204Y-159502292D01*
X159202570Y-159515255D01*
X159213300Y-159536132D01*
X159213360Y-159538106D01*
X159209746Y-159549718D01*
X159195985Y-159557422D01*
X159167695Y-159563236D01*
X159154940Y-159565016D01*
X159111183Y-159569639D01*
X159065847Y-159572729D01*
X159046312Y-159573367D01*
X159014924Y-159572412D01*
X158995625Y-159565971D01*
X158980261Y-159550296D01*
X158972644Y-159539505D01*
X158951207Y-159499120D01*
X158928436Y-159439549D01*
X158904610Y-159361859D01*
X158880010Y-159267120D01*
X158854918Y-159156400D01*
X158829614Y-159030768D01*
X158808251Y-158913640D01*
X158795816Y-158841074D01*
X158785363Y-158776385D01*
X158776282Y-158714940D01*
X158767961Y-158652105D01*
X158759789Y-158583248D01*
X158751155Y-158503735D01*
X158741447Y-158408933D01*
X158740712Y-158401602D01*
X158734930Y-158346992D01*
X158729313Y-158299414D01*
X158724347Y-158262599D01*
X158720519Y-158240278D01*
X158719100Y-158235573D01*
X158706625Y-158231923D01*
X158676944Y-158230296D01*
X158633077Y-158230768D01*
X158594966Y-158232419D01*
X158467511Y-158241240D01*
X158356248Y-158252874D01*
X158262109Y-158267171D01*
X158186025Y-158283981D01*
X158128927Y-158303154D01*
X158115324Y-158309505D01*
X158087487Y-158321970D01*
X158065357Y-158328920D01*
X158060851Y-158329440D01*
X158045398Y-158336513D01*
X158023614Y-158354471D01*
X158012186Y-158366207D01*
X157985912Y-158391388D01*
X157950521Y-158420449D01*
X157917960Y-158444111D01*
X157818951Y-158517747D01*
X157722208Y-158602574D01*
X157631089Y-158694935D01*
X157548957Y-158791172D01*
X157479171Y-158887630D01*
X157425348Y-158980141D01*
X157405947Y-159013761D01*
X157384227Y-159044362D01*
X157376909Y-159052872D01*
X157362012Y-159072590D01*
X157353164Y-159096484D01*
X157348278Y-159131291D01*
X157346988Y-159149392D01*
X157342527Y-159205511D01*
X157335177Y-159276706D01*
X157325293Y-159360685D01*
X157313231Y-159455154D01*
X157299346Y-159557822D01*
X157283994Y-159666395D01*
X157267529Y-159778583D01*
X157250308Y-159892092D01*
X157232686Y-160004629D01*
X157215018Y-160113903D01*
X157197659Y-160217621D01*
X157180966Y-160313490D01*
X157165294Y-160399219D01*
X157150997Y-160472514D01*
X157138432Y-160531083D01*
X157127953Y-160572634D01*
X157124685Y-160583208D01*
X157097107Y-160655007D01*
X157065645Y-160713685D01*
X157025879Y-160766434D01*
X156986814Y-160807541D01*
X156952679Y-160843577D01*
X156933481Y-160870820D01*
X156927361Y-160891917D01*
X156927360Y-160892253D01*
X156920886Y-160919419D01*
X156910135Y-160936013D01*
X156897366Y-160946342D01*
X156886821Y-160943678D01*
X156871597Y-160926508D01*
X156853091Y-160909149D01*
X156840477Y-160909586D01*
X156824224Y-160913724D01*
X156816679Y-160910747D01*
X156806334Y-160894518D01*
X156812525Y-160871014D01*
X156833950Y-160842691D01*
X156868737Y-160812432D01*
X156903503Y-160782640D01*
X156936470Y-160748010D01*
X156953743Y-160725675D01*
X156977890Y-160679603D01*
X157001726Y-160614379D01*
X157024994Y-160531168D01*
X157047438Y-160431138D01*
X157068801Y-160315456D01*
X157088825Y-160185287D01*
X157107254Y-160041800D01*
X157110458Y-160013974D01*
X157115464Y-159970087D01*
X157122120Y-159912229D01*
X157129708Y-159846611D01*
X157137512Y-159779443D01*
X157141096Y-159748706D01*
X157150256Y-159667634D01*
X157156535Y-159604279D01*
X157159920Y-159556243D01*
X157160395Y-159521127D01*
X157157946Y-159496532D01*
X157152560Y-159480059D01*
X157144223Y-159469309D01*
X157139427Y-159465648D01*
X157117814Y-159451297D01*
X157138139Y-159411068D01*
X157160430Y-159357943D01*
X157179594Y-159292072D01*
X157196385Y-159210560D01*
X157205716Y-159152400D01*
X157215405Y-159095552D01*
X157227919Y-159034517D01*
X157241132Y-158979348D01*
X157246430Y-158960163D01*
X157260034Y-158916623D01*
X157273093Y-158885819D01*
X157289803Y-158860729D01*
X157314364Y-158834330D01*
X157331454Y-158817923D01*
X157366479Y-158782683D01*
X157406506Y-158739147D01*
X157444306Y-158695247D01*
X157453749Y-158683668D01*
X157479971Y-158653172D01*
X157517770Y-158612135D01*
X157563909Y-158563924D01*
X157615149Y-158511906D01*
X157668255Y-158459447D01*
X157684597Y-158443615D01*
X157853159Y-158281133D01*
X157809359Y-158275284D01*
X157783164Y-158272706D01*
X157741793Y-158269703D01*
X157690374Y-158266604D01*
X157634037Y-158263738D01*
X157618240Y-158263029D01*
X157470920Y-158256624D01*
X157369320Y-158301476D01*
X157254957Y-158349071D01*
X157154427Y-158384679D01*
X157103297Y-158399694D01*
X157079236Y-158407186D01*
X157065233Y-158417039D01*
X157056791Y-158435011D01*
X157049415Y-158466860D01*
X157048907Y-158469344D01*
X157041533Y-158503861D01*
X157030916Y-158551494D01*
X157018131Y-158607636D01*
X157004250Y-158667682D01*
X156990346Y-158727027D01*
X156977491Y-158781064D01*
X156966760Y-158825189D01*
X156959224Y-158854795D01*
X156958419Y-158857760D01*
X156915663Y-159007216D01*
X156875000Y-159137420D01*
X156836057Y-159249286D01*
X156798459Y-159343732D01*
X156761831Y-159421672D01*
X156725800Y-159484024D01*
X156689990Y-159531703D01*
X156677467Y-159545066D01*
X156635049Y-159581247D01*
X156590094Y-159609086D01*
X156545876Y-159627707D01*
X156505665Y-159636237D01*
X156472735Y-159633799D01*
X156450356Y-159619519D01*
X156444087Y-159607481D01*
X156445762Y-159585827D01*
X156459984Y-159568302D01*
X156480115Y-159561693D01*
X156487362Y-159563227D01*
X156505279Y-159563531D01*
X156530641Y-159557444D01*
X156530854Y-159557369D01*
X156556737Y-159540081D01*
X156587261Y-159506108D01*
X156620976Y-159458149D01*
X156656432Y-159398906D01*
X156692181Y-159331078D01*
X156726771Y-159257366D01*
X156758754Y-159180470D01*
X156786679Y-159103090D01*
X156802831Y-159050800D01*
X156818874Y-158992394D01*
X156835935Y-158926509D01*
X156853399Y-158855921D01*
X156870652Y-158783407D01*
X156887079Y-158711743D01*
X156902066Y-158643704D01*
X156915000Y-158582069D01*
X156925264Y-158529612D01*
X156932246Y-158489110D01*
X156935331Y-158463339D01*
X156934613Y-158455227D01*
X156923799Y-158456580D01*
X156898203Y-158463809D01*
X156862062Y-158475637D01*
X156833144Y-158485829D01*
X156718952Y-158529829D01*
X156598995Y-158581410D01*
X156471532Y-158641449D01*
X156334826Y-158710822D01*
X156187139Y-158790407D01*
X156026731Y-158881079D01*
X155885171Y-158963913D01*
X155830834Y-158996085D01*
X155782460Y-159024639D01*
X155742763Y-159047980D01*
X155714456Y-159064514D01*
X155700253Y-159072646D01*
X155699244Y-159073170D01*
X155693203Y-159083941D01*
X155682241Y-159111525D01*
X155667213Y-159153255D01*
X155648977Y-159206464D01*
X155628386Y-159268484D01*
X155606298Y-159336648D01*
X155583569Y-159408288D01*
X155561054Y-159480736D01*
X155539609Y-159551325D01*
X155520091Y-159617387D01*
X155503355Y-159676255D01*
X155491256Y-159721360D01*
X155472161Y-159795705D01*
X155450698Y-159879423D01*
X155429061Y-159963949D01*
X155409443Y-160040717D01*
X155402789Y-160066800D01*
X155369368Y-160191249D01*
X155333840Y-160311392D01*
X155297098Y-160424766D01*
X155260033Y-160528910D01*
X155223539Y-160621362D01*
X155188507Y-160699661D01*
X155155830Y-160761346D01*
X155144334Y-160779740D01*
X155128982Y-160804664D01*
X155119919Y-160822716D01*
X155118880Y-160826681D01*
X155110450Y-160842421D01*
X155088068Y-160864014D01*
X155056096Y-160888508D01*
X155018896Y-160912953D01*
X154980830Y-160934398D01*
X154946260Y-160949891D01*
X154929074Y-160955089D01*
X154895528Y-160956822D01*
X154866595Y-160948718D01*
X154848151Y-160933159D01*
X154844560Y-160920848D01*
X154853214Y-160899721D01*
X154873549Y-160887068D01*
X154894498Y-160887459D01*
X154920256Y-160886209D01*
X154950886Y-160867326D01*
X154985256Y-160832592D01*
X155022235Y-160783788D01*
X155060691Y-160722693D01*
X155099492Y-160651089D01*
X155137506Y-160570756D01*
X155173603Y-160483475D01*
X155202969Y-160402080D01*
X155222881Y-160339462D01*
X155244158Y-160266516D01*
X155266195Y-160185887D01*
X155288390Y-160100218D01*
X155310138Y-160012153D01*
X155330836Y-159924338D01*
X155349881Y-159839415D01*
X155366668Y-159760028D01*
X155380593Y-159688824D01*
X155391054Y-159628444D01*
X155397447Y-159581534D01*
X155399167Y-159550737D01*
X155398662Y-159544907D01*
X155397043Y-159514414D01*
X155404892Y-159496870D01*
X155408115Y-159494107D01*
X155415589Y-159481338D01*
X155427751Y-159452095D01*
X155443508Y-159409384D01*
X155461770Y-159356212D01*
X155481443Y-159295585D01*
X155489045Y-159271273D01*
X155516828Y-159183071D01*
X155540288Y-159112357D01*
X155560259Y-159056966D01*
X155577575Y-159014730D01*
X155593069Y-158983483D01*
X155607576Y-158961059D01*
X155609285Y-158958864D01*
X155622126Y-158949012D01*
X155650529Y-158931046D01*
X155692075Y-158906312D01*
X155744343Y-158876155D01*
X155804911Y-158841922D01*
X155871360Y-158804958D01*
X155941268Y-158766610D01*
X156012215Y-158728222D01*
X156081780Y-158691142D01*
X156147542Y-158656715D01*
X156207081Y-158626286D01*
X156211080Y-158624278D01*
X156303762Y-158578738D01*
X156393596Y-158536775D01*
X156485326Y-158496339D01*
X156583697Y-158455381D01*
X156693451Y-158411851D01*
X156778329Y-158379233D01*
X156835344Y-158357349D01*
X156885722Y-158337639D01*
X156926413Y-158321325D01*
X156954370Y-158309632D01*
X156966544Y-158303781D01*
X156966712Y-158303636D01*
X156969886Y-158291048D01*
X156972367Y-158263732D01*
X156973671Y-158227276D01*
X156973727Y-158222306D01*
X156973762Y-158183878D01*
X156971928Y-158161073D01*
X156966556Y-158149196D01*
X156955975Y-158143553D01*
X156944758Y-158140838D01*
X156918810Y-158132908D01*
X156884012Y-158119537D01*
X156860862Y-158109483D01*
X156825995Y-158096230D01*
X156784891Y-158086452D01*
X156732227Y-158079080D01*
X156689669Y-158075104D01*
X156622160Y-158067706D01*
X156564308Y-158057629D01*
X156521256Y-158045783D01*
X156518917Y-158044907D01*
X156506531Y-158040980D01*
X159753413Y-158040980D01*
X159755700Y-158050526D01*
X159768824Y-158063765D01*
X159786956Y-158061728D01*
X159801925Y-158046295D01*
X159807158Y-158025894D01*
X159794990Y-158015833D01*
X159781226Y-158014480D01*
X159759972Y-158021980D01*
X159753413Y-158040980D01*
X156506531Y-158040980D01*
X156474829Y-158030929D01*
X156419098Y-158017409D01*
X156359307Y-158005805D01*
X156303042Y-157997575D01*
X156257887Y-157994179D01*
X156255064Y-157994159D01*
X156218737Y-157989258D01*
X156181961Y-157977255D01*
X156177655Y-157975206D01*
X156150675Y-157964034D01*
X156108692Y-157949438D01*
X156056446Y-157932798D01*
X155998679Y-157915496D01*
X155940131Y-157898912D01*
X155885542Y-157884427D01*
X155839654Y-157873423D01*
X155807206Y-157867278D01*
X155807044Y-157867256D01*
X155771986Y-157859428D01*
X155748471Y-157844613D01*
X155735924Y-157829961D01*
X155711766Y-157805746D01*
X155674115Y-157777703D01*
X155628463Y-157749239D01*
X155580307Y-157723761D01*
X155535140Y-157704675D01*
X155532164Y-157703643D01*
X155499295Y-157688485D01*
X155473254Y-157669543D01*
X155466528Y-157661828D01*
X155452202Y-157643353D01*
X155428110Y-157614671D01*
X155398269Y-157580503D01*
X155380782Y-157560997D01*
X155336783Y-157510950D01*
X155301468Y-157466629D01*
X155270608Y-157421916D01*
X155239972Y-157370693D01*
X155206132Y-157308360D01*
X155181195Y-157263085D01*
X155157430Y-157225830D01*
X155131532Y-157193038D01*
X155100197Y-157161150D01*
X155060119Y-157126606D01*
X155007996Y-157085849D01*
X154979712Y-157064520D01*
X154937581Y-157032076D01*
X154900162Y-157001634D01*
X154871196Y-156976348D01*
X154854426Y-156959376D01*
X154853262Y-156957840D01*
X154832812Y-156918446D01*
X154829105Y-156883501D01*
X154837913Y-156861722D01*
X154851367Y-156848473D01*
X154867601Y-156849197D01*
X154879007Y-156853884D01*
X154897850Y-156860990D01*
X154903592Y-156858477D01*
X154895743Y-156845086D01*
X154873814Y-156819556D01*
X154859799Y-156804388D01*
X154836117Y-156775975D01*
X154819595Y-156750238D01*
X154814079Y-156734250D01*
X154819153Y-156707316D01*
X154831672Y-156680160D01*
X154847585Y-156659790D01*
X154861032Y-156653040D01*
X154886123Y-156661176D01*
G37*
X154886123Y-156661176D02*
X154916877Y-156683102D01*
X154948655Y-156715092D01*
X154966259Y-156737534D01*
X154992474Y-156772231D01*
X155022297Y-156808856D01*
X155032511Y-156820680D01*
X155068457Y-156861320D01*
X155061974Y-156794583D01*
X155061534Y-156737727D01*
X155072067Y-156694422D01*
X155092973Y-156666403D01*
X155109096Y-156658000D01*
X155123370Y-156654832D01*
X155135451Y-156656729D01*
X155146361Y-156665835D01*
X155157122Y-156684292D01*
X155168755Y-156714242D01*
X155182284Y-156757830D01*
X155198730Y-156817197D01*
X155215758Y-156881640D01*
X155244633Y-156980079D01*
X155278767Y-157072036D01*
X155320662Y-157163119D01*
X155372821Y-157258936D01*
X155416377Y-157331180D01*
X155448637Y-157381603D01*
X155473292Y-157416518D01*
X155492304Y-157438343D01*
X155507633Y-157449496D01*
X155514162Y-157451747D01*
X155541908Y-157458246D01*
X155559146Y-157462657D01*
X155575067Y-157471338D01*
X155601391Y-157490079D01*
X155633360Y-157515408D01*
X155645506Y-157525619D01*
X155680785Y-157555194D01*
X155714306Y-157582328D01*
X155740101Y-157602214D01*
X155744982Y-157605728D01*
X155773942Y-157621708D01*
X155818697Y-157641091D01*
X155875286Y-157662533D01*
X155939748Y-157684686D01*
X156008121Y-157706206D01*
X156076443Y-157725747D01*
X156140753Y-157741962D01*
X156156255Y-157745451D01*
X156209762Y-157757848D01*
X156261001Y-157770955D01*
X156303984Y-157783167D01*
X156331664Y-157792456D01*
X156366376Y-157802560D01*
X156414205Y-157811720D01*
X156467947Y-157818632D01*
X156484064Y-157820066D01*
X156532080Y-157825178D01*
X156575063Y-157832127D01*
X156606995Y-157839838D01*
X156617480Y-157843917D01*
X156655211Y-157859132D01*
X156706294Y-157874111D01*
X156763804Y-157887327D01*
X156820813Y-157897250D01*
X156870396Y-157902354D01*
X156883979Y-157902720D01*
X156942450Y-157907613D01*
X156988196Y-157922976D01*
X156988319Y-157923040D01*
X157015940Y-157935602D01*
X157037444Y-157942741D01*
X157042057Y-157943360D01*
X157051776Y-157933511D01*
X157055458Y-157925097D01*
X157197446Y-157925097D01*
X157198955Y-157942314D01*
X157210895Y-157952511D01*
X157234305Y-157959666D01*
X157250140Y-157963236D01*
X157284533Y-157971713D01*
X157312144Y-157980084D01*
X157323600Y-157984819D01*
X157348149Y-157992600D01*
X157376098Y-157993320D01*
X157399200Y-157987557D01*
X157408578Y-157978857D01*
X157406875Y-157966465D01*
X157393584Y-157947447D01*
X157367406Y-157920434D01*
X157327042Y-157884059D01*
X157283612Y-157847255D01*
X157238545Y-157809732D01*
X157221577Y-157853686D01*
X157205333Y-157896880D01*
X157197446Y-157925097D01*
X157055458Y-157925097D01*
X157064405Y-157904659D01*
X157079516Y-157857845D01*
X157084812Y-157839220D01*
X157098902Y-157790547D01*
X157113345Y-157744309D01*
X157126025Y-157707121D01*
X157131937Y-157691833D01*
X157154037Y-157654851D01*
X157180744Y-157634944D01*
X157209815Y-157633474D01*
X157220879Y-157637960D01*
X157245569Y-157653593D01*
X157281400Y-157679307D01*
X157324218Y-157711803D01*
X157369871Y-157747781D01*
X157414208Y-157783943D01*
X157453075Y-157816988D01*
X157482321Y-157843618D01*
X157491785Y-157853221D01*
X157518986Y-157879867D01*
X157545463Y-157901261D01*
X157559502Y-157909776D01*
X157580300Y-157925615D01*
X157602898Y-157952126D01*
X157612925Y-157967444D01*
X157627965Y-157991718D01*
X157641570Y-158005938D01*
X157660048Y-158013622D01*
X157689704Y-158018287D01*
X157707620Y-158020258D01*
X157740671Y-158022171D01*
X157789011Y-158022847D01*
X157847652Y-158022318D01*
X157911602Y-158020614D01*
X157958556Y-158018659D01*
X158023374Y-158015823D01*
X158086629Y-158013617D01*
X158143290Y-158012173D01*
X158188324Y-158011629D01*
X158210767Y-158011871D01*
X158265772Y-158009713D01*
X158329023Y-158001214D01*
X158368247Y-157993189D01*
X158483630Y-157968241D01*
X158580736Y-157952071D01*
X158659614Y-157944680D01*
X158720311Y-157946066D01*
X158762876Y-157956228D01*
X158787358Y-157975166D01*
X158791989Y-157984849D01*
X158806464Y-158001046D01*
X158820344Y-158004205D01*
X158847221Y-158003368D01*
X158891163Y-158001180D01*
X158948974Y-157997862D01*
X159017461Y-157993633D01*
X159093428Y-157988714D01*
X159173682Y-157983324D01*
X159255027Y-157977684D01*
X159334269Y-157972014D01*
X159408213Y-157966533D01*
X159473664Y-157961462D01*
X159527429Y-157957020D01*
X159566312Y-157953428D01*
X159580465Y-157951861D01*
X159634695Y-157946141D01*
X159674052Y-157944770D01*
X159703509Y-157947719D01*
X159717137Y-157951127D01*
X159751275Y-157957529D01*
X159775138Y-157951925D01*
X159798737Y-157946375D01*
X159833093Y-157946413D01*
X159844210Y-157947604D01*
X159882671Y-157949518D01*
X159914190Y-157941807D01*
X159931535Y-157933484D01*
X159965527Y-157920025D01*
X160000327Y-157913121D01*
X160006323Y-157912879D01*
X160050484Y-157907382D01*
X160107281Y-157892090D01*
X160172663Y-157868804D01*
X160242578Y-157839324D01*
X160312975Y-157805453D01*
X160379804Y-157768989D01*
X160439014Y-157731735D01*
X160476660Y-157703809D01*
X160518390Y-157672771D01*
X160549178Y-157656243D01*
X160568242Y-157654511D01*
X160574799Y-157667861D01*
X160574800Y-157667929D01*
X160566414Y-157683123D01*
X160543296Y-157705926D01*
X160508500Y-157734127D01*
X160465083Y-157765512D01*
X160416100Y-157797871D01*
X160364607Y-157828991D01*
X160315068Y-157855943D01*
X160283767Y-157872650D01*
X160262835Y-157885313D01*
X160255712Y-157891795D01*
X160256721Y-157892213D01*
X160272505Y-157889122D01*
X160302275Y-157880577D01*
X160340996Y-157868277D01*
X160383636Y-157853922D01*
X160425161Y-157839213D01*
X160460538Y-157825850D01*
X160484734Y-157815533D01*
X160486817Y-157814493D01*
X160514559Y-157805313D01*
X160535464Y-157807589D01*
X160544289Y-157820659D01*
X160544320Y-157821758D01*
X160535180Y-157832336D01*
X160510127Y-157847204D01*
X160472711Y-157864815D01*
X160426482Y-157883617D01*
X160374989Y-157902063D01*
X160323686Y-157918058D01*
X160282342Y-157930057D01*
X160247417Y-157940440D01*
X160224284Y-157947598D01*
X160219200Y-157949322D01*
X160223299Y-157954018D01*
X160244072Y-157963565D01*
X160278756Y-157976892D01*
X160324585Y-157992929D01*
X160371600Y-158008326D01*
X160426195Y-158026176D01*
X160495437Y-158049553D01*
X160574919Y-158076928D01*
X160660233Y-158106768D01*
X160746971Y-158137543D01*
X160830726Y-158167722D01*
X160833880Y-158168869D01*
X160928747Y-158203217D01*
X161009123Y-158231856D01*
X161079522Y-158256268D01*
X161144457Y-158277935D01*
X161208440Y-158298339D01*
X161275987Y-158318964D01*
X161351609Y-158341292D01*
X161413085Y-158359108D01*
X161450491Y-158372112D01*
X161483848Y-158389545D01*
X161516045Y-158413975D01*
X161549971Y-158447969D01*
X161588514Y-158494094D01*
X161634562Y-158554920D01*
X161636854Y-158558040D01*
X161665262Y-158595158D01*
X161703064Y-158642299D01*
X161746085Y-158694365D01*
X161790144Y-158746257D01*
X161807557Y-158766320D01*
X161892982Y-158865165D01*
X161989138Y-158978524D01*
X162094576Y-159104647D01*
X162207844Y-159241785D01*
X162327493Y-159388186D01*
X162452073Y-159542101D01*
X162506348Y-159609600D01*
X162591936Y-159716354D01*
X162666183Y-159809303D01*
X162730547Y-159890422D01*
X162786486Y-159961691D01*
X162835457Y-160025086D01*
X162878917Y-160082586D01*
X162918323Y-160136167D01*
X162955133Y-160187807D01*
X162990804Y-160239484D01*
X163026794Y-160293176D01*
X163064559Y-160350859D01*
X163105557Y-160414512D01*
X163144784Y-160475963D01*
X163180760Y-160527851D01*
X163214289Y-160564505D01*
X163249903Y-160589778D01*
X163292132Y-160607520D01*
X163303729Y-160611079D01*
X163344303Y-160627288D01*
X163372228Y-160647436D01*
X163385132Y-160669015D01*
X163380643Y-160689517D01*
X163379418Y-160691086D01*
X163362431Y-160700812D01*
X163352817Y-160700109D01*
X163340229Y-160700964D01*
X163338320Y-160705792D01*
X163329383Y-160713183D01*
X163307368Y-160716926D01*
X163302255Y-160717040D01*
X163249459Y-160707197D01*
X163195767Y-160678633D01*
X163142768Y-160632793D01*
X163092054Y-160571122D01*
X163045215Y-160495067D01*
X163033910Y-160473200D01*
X163020010Y-160449628D01*
X162996491Y-160414149D01*
X162966304Y-160370822D01*
X162932398Y-160323706D01*
X162897723Y-160276861D01*
X162865230Y-160234346D01*
X162837869Y-160200221D01*
X162823479Y-160183640D01*
X162806566Y-160164042D01*
X162783667Y-160135991D01*
X162769268Y-160117761D01*
X162749547Y-160092952D01*
X162721116Y-160058037D01*
X162683359Y-160012277D01*
X162635659Y-159954933D01*
X162577401Y-159885268D01*
X162507968Y-159802543D01*
X162426744Y-159706019D01*
X162333111Y-159594959D01*
X162307080Y-159564110D01*
X162254255Y-159501519D01*
X162204611Y-159442691D01*
X162159938Y-159389750D01*
X162122028Y-159344819D01*
X162092673Y-159310020D01*
X162073662Y-159287477D01*
X162068320Y-159281136D01*
X162034792Y-159241326D01*
X161993037Y-159191775D01*
X161944673Y-159134402D01*
X161891320Y-159071127D01*
X161834596Y-159003867D01*
X161776121Y-158934544D01*
X161717514Y-158865075D01*
X161660394Y-158797380D01*
X161606381Y-158733377D01*
X161557093Y-158674987D01*
X161514151Y-158624128D01*
X161479172Y-158582720D01*
X161453777Y-158552681D01*
X161439585Y-158535931D01*
X161438400Y-158534539D01*
X161402840Y-158492870D01*
X161123440Y-158415002D01*
X161007877Y-158382844D01*
X160909256Y-158355555D01*
X160824962Y-158332482D01*
X160752381Y-158312971D01*
X160688899Y-158296369D01*
X160631902Y-158282022D01*
X160578776Y-158269276D01*
X160526907Y-158257479D01*
X160473681Y-158245976D01*
X160416483Y-158234115D01*
X160352701Y-158221241D01*
X160331300Y-158216966D01*
X160261290Y-158202875D01*
X160197840Y-158189863D01*
X160143681Y-158178508D01*
X160101544Y-158169391D01*
X160074161Y-158163091D01*
X160064392Y-158160311D01*
X160052214Y-158163005D01*
X160031960Y-158175933D01*
X160025490Y-158181124D01*
X159978525Y-158208669D01*
X159916226Y-158226081D01*
X159889745Y-158229764D01*
X159879168Y-158232027D01*
X159877530Y-158236849D01*
X159886779Y-158245863D01*
X159908863Y-158260699D01*
X159945731Y-158282990D01*
X159971025Y-158297856D01*
X160037642Y-158337930D01*
X160111351Y-158384176D01*
X160189335Y-158434659D01*
X160268775Y-158487446D01*
X160346851Y-158540600D01*
X160420744Y-158592188D01*
X160487637Y-158640274D01*
X160544709Y-158682923D01*
X160589142Y-158718201D01*
X160610360Y-158736677D01*
X160670690Y-158794024D01*
X160735934Y-158858936D01*
X160807445Y-158932854D01*
X160886581Y-159017220D01*
X160974697Y-159113472D01*
X161073148Y-159223051D01*
X161154927Y-159315236D01*
X161185436Y-159349784D01*
X161225215Y-159394831D01*
X161270084Y-159445644D01*
X161315865Y-159497489D01*
X161338604Y-159523240D01*
X161384217Y-159575023D01*
X161432003Y-159629490D01*
X161477453Y-159681488D01*
X161516061Y-159725866D01*
X161530636Y-159742713D01*
X161568234Y-159786209D01*
X161613263Y-159838178D01*
X161659793Y-159891784D01*
X161698033Y-159935753D01*
X161812830Y-160070489D01*
X161925927Y-160208817D01*
X162035184Y-160347889D01*
X162138461Y-160484859D01*
X162233617Y-160616881D01*
X162318513Y-160741107D01*
X162391009Y-160854691D01*
X162399961Y-160869440D01*
X162438373Y-160930381D01*
X162476380Y-160985617D01*
X162511512Y-161031845D01*
X162541302Y-161065764D01*
X162557749Y-161080486D01*
X162578984Y-161097729D01*
X162588520Y-161106529D01*
X162603722Y-161117600D01*
X162631275Y-161134361D01*
X162665407Y-161153315D01*
X162667760Y-161154563D01*
X162704900Y-161176906D01*
X162742450Y-161203989D01*
X162776466Y-161232393D01*
X162803003Y-161258699D01*
X162818118Y-161279487D01*
X162820160Y-161286683D01*
X162811744Y-161298439D01*
X162801815Y-161302859D01*
X162785424Y-161315155D01*
X162772217Y-161337468D01*
X162757256Y-161360898D01*
X162739663Y-161365628D01*
X162723330Y-161351462D01*
X162717915Y-161340184D01*
X162702137Y-161312573D01*
X162674855Y-161285691D01*
X162633449Y-161257456D01*
X162575297Y-161225788D01*
X162571240Y-161223744D01*
X162516455Y-161193565D01*
X162471551Y-161161624D01*
X162431951Y-161123586D01*
X162393081Y-161075117D01*
X162354741Y-161018690D01*
X162285348Y-160914778D01*
X162204045Y-160799073D01*
X162113028Y-160674410D01*
X162014493Y-160543621D01*
X161910635Y-160409540D01*
X161803650Y-160275002D01*
X161695733Y-160142839D01*
X161589081Y-160015886D01*
X161485890Y-159896976D01*
X161483327Y-159894080D01*
X161445029Y-159850986D01*
X161399686Y-159800263D01*
X161349881Y-159744771D01*
X161298197Y-159687371D01*
X161247218Y-159630922D01*
X161199526Y-159578286D01*
X161157706Y-159532323D01*
X161124340Y-159495893D01*
X161102561Y-159472440D01*
X161065555Y-159432709D01*
X161024827Y-159388241D01*
X160990855Y-159350520D01*
X160957740Y-159313549D01*
X160923043Y-159275224D01*
X160894275Y-159243841D01*
X160894274Y-159243840D01*
X160868049Y-159214835D01*
X160832062Y-159174065D01*
X160789601Y-159125342D01*
X160743951Y-159072476D01*
X160698402Y-159019278D01*
X160656241Y-158969558D01*
X160620755Y-158927129D01*
X160614097Y-158919063D01*
X160586879Y-158888822D01*
X160557960Y-158863999D01*
X160521686Y-158840430D01*
X160472405Y-158813949D01*
X160469288Y-158812367D01*
X160428888Y-158791672D01*
X160395532Y-158774137D01*
X160373215Y-158761888D01*
X160366024Y-158757357D01*
X160354210Y-158750449D01*
X160330095Y-158738870D01*
X160312713Y-158731133D01*
X160288845Y-158719979D01*
X160250690Y-158701184D01*
X160201924Y-158676604D01*
X160146226Y-158648092D01*
X160087273Y-158617504D01*
X160082040Y-158614769D01*
X159996116Y-158569843D01*
X159925811Y-158533155D01*
X159868747Y-158503507D01*
X159822544Y-158479704D01*
X159784823Y-158460548D01*
X159753207Y-158444844D01*
X159725315Y-158431396D01*
X159698770Y-158419006D01*
X159671193Y-158406479D01*
X159641334Y-158393121D01*
X159588036Y-158368193D01*
X159547940Y-158345997D01*
X159515043Y-158322631D01*
X159483338Y-158294194D01*
X159472440Y-158283361D01*
X159411480Y-158221719D01*
X159132279Y-158225426D01*
X159059262Y-158226461D01*
X158993288Y-158227522D01*
X158936964Y-158228556D01*
X158892902Y-158229512D01*
X158863709Y-158230338D01*
X158851995Y-158230980D01*
X158851888Y-158231026D01*
X158852516Y-158241231D01*
X158855115Y-158267559D01*
X158859263Y-158305955D01*
X158864236Y-158349760D01*
X158869850Y-158400951D01*
X158876490Y-158465812D01*
X158883506Y-158537760D01*
X158890252Y-158610213D01*
X158893741Y-158649370D01*
X158904293Y-158754192D01*
X158917862Y-158858975D01*
X158935215Y-158968556D01*
X158957118Y-159087775D01*
X158984340Y-159221470D01*
X158984774Y-159223520D01*
X159002533Y-159305139D01*
X159017943Y-159368905D01*
X159032146Y-159416983D01*
X159046284Y-159451537D01*
X159061497Y-159474732D01*
X159078928Y-159488732D01*
X159099719Y-159495703D01*
X159125010Y-159497809D01*
X159129438Y-159497840D01*
X159174204Y-159502292D01*
X159202570Y-159515255D01*
X159213300Y-159536132D01*
X159213360Y-159538106D01*
X159209746Y-159549718D01*
X159195985Y-159557422D01*
X159167695Y-159563236D01*
X159154940Y-159565016D01*
X159111183Y-159569639D01*
X159065847Y-159572729D01*
X159046312Y-159573367D01*
X159014924Y-159572412D01*
X158995625Y-159565971D01*
X158980261Y-159550296D01*
X158972644Y-159539505D01*
X158951207Y-159499120D01*
X158928436Y-159439549D01*
X158904610Y-159361859D01*
X158880010Y-159267120D01*
X158854918Y-159156400D01*
X158829614Y-159030768D01*
X158808251Y-158913640D01*
X158795816Y-158841074D01*
X158785363Y-158776385D01*
X158776282Y-158714940D01*
X158767961Y-158652105D01*
X158759789Y-158583248D01*
X158751155Y-158503735D01*
X158741447Y-158408933D01*
X158740712Y-158401602D01*
X158734930Y-158346992D01*
X158729313Y-158299414D01*
X158724347Y-158262599D01*
X158720519Y-158240278D01*
X158719100Y-158235573D01*
X158706625Y-158231923D01*
X158676944Y-158230296D01*
X158633077Y-158230768D01*
X158594966Y-158232419D01*
X158467511Y-158241240D01*
X158356248Y-158252874D01*
X158262109Y-158267171D01*
X158186025Y-158283981D01*
X158128927Y-158303154D01*
X158115324Y-158309505D01*
X158087487Y-158321970D01*
X158065357Y-158328920D01*
X158060851Y-158329440D01*
X158045398Y-158336513D01*
X158023614Y-158354471D01*
X158012186Y-158366207D01*
X157985912Y-158391388D01*
X157950521Y-158420449D01*
X157917960Y-158444111D01*
X157818951Y-158517747D01*
X157722208Y-158602574D01*
X157631089Y-158694935D01*
X157548957Y-158791172D01*
X157479171Y-158887630D01*
X157425348Y-158980141D01*
X157405947Y-159013761D01*
X157384227Y-159044362D01*
X157376909Y-159052872D01*
X157362012Y-159072590D01*
X157353164Y-159096484D01*
X157348278Y-159131291D01*
X157346988Y-159149392D01*
X157342527Y-159205511D01*
X157335177Y-159276706D01*
X157325293Y-159360685D01*
X157313231Y-159455154D01*
X157299346Y-159557822D01*
X157283994Y-159666395D01*
X157267529Y-159778583D01*
X157250308Y-159892092D01*
X157232686Y-160004629D01*
X157215018Y-160113903D01*
X157197659Y-160217621D01*
X157180966Y-160313490D01*
X157165294Y-160399219D01*
X157150997Y-160472514D01*
X157138432Y-160531083D01*
X157127953Y-160572634D01*
X157124685Y-160583208D01*
X157097107Y-160655007D01*
X157065645Y-160713685D01*
X157025879Y-160766434D01*
X156986814Y-160807541D01*
X156952679Y-160843577D01*
X156933481Y-160870820D01*
X156927361Y-160891917D01*
X156927360Y-160892253D01*
X156920886Y-160919419D01*
X156910135Y-160936013D01*
X156897366Y-160946342D01*
X156886821Y-160943678D01*
X156871597Y-160926508D01*
X156853091Y-160909149D01*
X156840477Y-160909586D01*
X156824224Y-160913724D01*
X156816679Y-160910747D01*
X156806334Y-160894518D01*
X156812525Y-160871014D01*
X156833950Y-160842691D01*
X156868737Y-160812432D01*
X156903503Y-160782640D01*
X156936470Y-160748010D01*
X156953743Y-160725675D01*
X156977890Y-160679603D01*
X157001726Y-160614379D01*
X157024994Y-160531168D01*
X157047438Y-160431138D01*
X157068801Y-160315456D01*
X157088825Y-160185287D01*
X157107254Y-160041800D01*
X157110458Y-160013974D01*
X157115464Y-159970087D01*
X157122120Y-159912229D01*
X157129708Y-159846611D01*
X157137512Y-159779443D01*
X157141096Y-159748706D01*
X157150256Y-159667634D01*
X157156535Y-159604279D01*
X157159920Y-159556243D01*
X157160395Y-159521127D01*
X157157946Y-159496532D01*
X157152560Y-159480059D01*
X157144223Y-159469309D01*
X157139427Y-159465648D01*
X157117814Y-159451297D01*
X157138139Y-159411068D01*
X157160430Y-159357943D01*
X157179594Y-159292072D01*
X157196385Y-159210560D01*
X157205716Y-159152400D01*
X157215405Y-159095552D01*
X157227919Y-159034517D01*
X157241132Y-158979348D01*
X157246430Y-158960163D01*
X157260034Y-158916623D01*
X157273093Y-158885819D01*
X157289803Y-158860729D01*
X157314364Y-158834330D01*
X157331454Y-158817923D01*
X157366479Y-158782683D01*
X157406506Y-158739147D01*
X157444306Y-158695247D01*
X157453749Y-158683668D01*
X157479971Y-158653172D01*
X157517770Y-158612135D01*
X157563909Y-158563924D01*
X157615149Y-158511906D01*
X157668255Y-158459447D01*
X157684597Y-158443615D01*
X157853159Y-158281133D01*
X157809359Y-158275284D01*
X157783164Y-158272706D01*
X157741793Y-158269703D01*
X157690374Y-158266604D01*
X157634037Y-158263738D01*
X157618240Y-158263029D01*
X157470920Y-158256624D01*
X157369320Y-158301476D01*
X157254957Y-158349071D01*
X157154427Y-158384679D01*
X157103297Y-158399694D01*
X157079236Y-158407186D01*
X157065233Y-158417039D01*
X157056791Y-158435011D01*
X157049415Y-158466860D01*
X157048907Y-158469344D01*
X157041533Y-158503861D01*
X157030916Y-158551494D01*
X157018131Y-158607636D01*
X157004250Y-158667682D01*
X156990346Y-158727027D01*
X156977491Y-158781064D01*
X156966760Y-158825189D01*
X156959224Y-158854795D01*
X156958419Y-158857760D01*
X156915663Y-159007216D01*
X156875000Y-159137420D01*
X156836057Y-159249286D01*
X156798459Y-159343732D01*
X156761831Y-159421672D01*
X156725800Y-159484024D01*
X156689990Y-159531703D01*
X156677467Y-159545066D01*
X156635049Y-159581247D01*
X156590094Y-159609086D01*
X156545876Y-159627707D01*
X156505665Y-159636237D01*
X156472735Y-159633799D01*
X156450356Y-159619519D01*
X156444087Y-159607481D01*
X156445762Y-159585827D01*
X156459984Y-159568302D01*
X156480115Y-159561693D01*
X156487362Y-159563227D01*
X156505279Y-159563531D01*
X156530641Y-159557444D01*
X156530854Y-159557369D01*
X156556737Y-159540081D01*
X156587261Y-159506108D01*
X156620976Y-159458149D01*
X156656432Y-159398906D01*
X156692181Y-159331078D01*
X156726771Y-159257366D01*
X156758754Y-159180470D01*
X156786679Y-159103090D01*
X156802831Y-159050800D01*
X156818874Y-158992394D01*
X156835935Y-158926509D01*
X156853399Y-158855921D01*
X156870652Y-158783407D01*
X156887079Y-158711743D01*
X156902066Y-158643704D01*
X156915000Y-158582069D01*
X156925264Y-158529612D01*
X156932246Y-158489110D01*
X156935331Y-158463339D01*
X156934613Y-158455227D01*
X156923799Y-158456580D01*
X156898203Y-158463809D01*
X156862062Y-158475637D01*
X156833144Y-158485829D01*
X156718952Y-158529829D01*
X156598995Y-158581410D01*
X156471532Y-158641449D01*
X156334826Y-158710822D01*
X156187139Y-158790407D01*
X156026731Y-158881079D01*
X155885171Y-158963913D01*
X155830834Y-158996085D01*
X155782460Y-159024639D01*
X155742763Y-159047980D01*
X155714456Y-159064514D01*
X155700253Y-159072646D01*
X155699244Y-159073170D01*
X155693203Y-159083941D01*
X155682241Y-159111525D01*
X155667213Y-159153255D01*
X155648977Y-159206464D01*
X155628386Y-159268484D01*
X155606298Y-159336648D01*
X155583569Y-159408288D01*
X155561054Y-159480736D01*
X155539609Y-159551325D01*
X155520091Y-159617387D01*
X155503355Y-159676255D01*
X155491256Y-159721360D01*
X155472161Y-159795705D01*
X155450698Y-159879423D01*
X155429061Y-159963949D01*
X155409443Y-160040717D01*
X155402789Y-160066800D01*
X155369368Y-160191249D01*
X155333840Y-160311392D01*
X155297098Y-160424766D01*
X155260033Y-160528910D01*
X155223539Y-160621362D01*
X155188507Y-160699661D01*
X155155830Y-160761346D01*
X155144334Y-160779740D01*
X155128982Y-160804664D01*
X155119919Y-160822716D01*
X155118880Y-160826681D01*
X155110450Y-160842421D01*
X155088068Y-160864014D01*
X155056096Y-160888508D01*
X155018896Y-160912953D01*
X154980830Y-160934398D01*
X154946260Y-160949891D01*
X154929074Y-160955089D01*
X154895528Y-160956822D01*
X154866595Y-160948718D01*
X154848151Y-160933159D01*
X154844560Y-160920848D01*
X154853214Y-160899721D01*
X154873549Y-160887068D01*
X154894498Y-160887459D01*
X154920256Y-160886209D01*
X154950886Y-160867326D01*
X154985256Y-160832592D01*
X155022235Y-160783788D01*
X155060691Y-160722693D01*
X155099492Y-160651089D01*
X155137506Y-160570756D01*
X155173603Y-160483475D01*
X155202969Y-160402080D01*
X155222881Y-160339462D01*
X155244158Y-160266516D01*
X155266195Y-160185887D01*
X155288390Y-160100218D01*
X155310138Y-160012153D01*
X155330836Y-159924338D01*
X155349881Y-159839415D01*
X155366668Y-159760028D01*
X155380593Y-159688824D01*
X155391054Y-159628444D01*
X155397447Y-159581534D01*
X155399167Y-159550737D01*
X155398662Y-159544907D01*
X155397043Y-159514414D01*
X155404892Y-159496870D01*
X155408115Y-159494107D01*
X155415589Y-159481338D01*
X155427751Y-159452095D01*
X155443508Y-159409384D01*
X155461770Y-159356212D01*
X155481443Y-159295585D01*
X155489045Y-159271273D01*
X155516828Y-159183071D01*
X155540288Y-159112357D01*
X155560259Y-159056966D01*
X155577575Y-159014730D01*
X155593069Y-158983483D01*
X155607576Y-158961059D01*
X155609285Y-158958864D01*
X155622126Y-158949012D01*
X155650529Y-158931046D01*
X155692075Y-158906312D01*
X155744343Y-158876155D01*
X155804911Y-158841922D01*
X155871360Y-158804958D01*
X155941268Y-158766610D01*
X156012215Y-158728222D01*
X156081780Y-158691142D01*
X156147542Y-158656715D01*
X156207081Y-158626286D01*
X156211080Y-158624278D01*
X156303762Y-158578738D01*
X156393596Y-158536775D01*
X156485326Y-158496339D01*
X156583697Y-158455381D01*
X156693451Y-158411851D01*
X156778329Y-158379233D01*
X156835344Y-158357349D01*
X156885722Y-158337639D01*
X156926413Y-158321325D01*
X156954370Y-158309632D01*
X156966544Y-158303781D01*
X156966712Y-158303636D01*
X156969886Y-158291048D01*
X156972367Y-158263732D01*
X156973671Y-158227276D01*
X156973727Y-158222306D01*
X156973762Y-158183878D01*
X156971928Y-158161073D01*
X156966556Y-158149196D01*
X156955975Y-158143553D01*
X156944758Y-158140838D01*
X156918810Y-158132908D01*
X156884012Y-158119537D01*
X156860862Y-158109483D01*
X156825995Y-158096230D01*
X156784891Y-158086452D01*
X156732227Y-158079080D01*
X156689669Y-158075104D01*
X156622160Y-158067706D01*
X156564308Y-158057629D01*
X156521256Y-158045783D01*
X156518917Y-158044907D01*
X156506531Y-158040980D01*
X159753413Y-158040980D01*
X159755700Y-158050526D01*
X159768824Y-158063765D01*
X159786956Y-158061728D01*
X159801925Y-158046295D01*
X159807158Y-158025894D01*
X159794990Y-158015833D01*
X159781226Y-158014480D01*
X159759972Y-158021980D01*
X159753413Y-158040980D01*
X156506531Y-158040980D01*
X156474829Y-158030929D01*
X156419098Y-158017409D01*
X156359307Y-158005805D01*
X156303042Y-157997575D01*
X156257887Y-157994179D01*
X156255064Y-157994159D01*
X156218737Y-157989258D01*
X156181961Y-157977255D01*
X156177655Y-157975206D01*
X156150675Y-157964034D01*
X156108692Y-157949438D01*
X156056446Y-157932798D01*
X155998679Y-157915496D01*
X155940131Y-157898912D01*
X155885542Y-157884427D01*
X155839654Y-157873423D01*
X155807206Y-157867278D01*
X155807044Y-157867256D01*
X155771986Y-157859428D01*
X155748471Y-157844613D01*
X155735924Y-157829961D01*
X155711766Y-157805746D01*
X155674115Y-157777703D01*
X155628463Y-157749239D01*
X155580307Y-157723761D01*
X155535140Y-157704675D01*
X155532164Y-157703643D01*
X155499295Y-157688485D01*
X155473254Y-157669543D01*
X155466528Y-157661828D01*
X155452202Y-157643353D01*
X155428110Y-157614671D01*
X155398269Y-157580503D01*
X155380782Y-157560997D01*
X155336783Y-157510950D01*
X155301468Y-157466629D01*
X155270608Y-157421916D01*
X155239972Y-157370693D01*
X155206132Y-157308360D01*
X155181195Y-157263085D01*
X155157430Y-157225830D01*
X155131532Y-157193038D01*
X155100197Y-157161150D01*
X155060119Y-157126606D01*
X155007996Y-157085849D01*
X154979712Y-157064520D01*
X154937581Y-157032076D01*
X154900162Y-157001634D01*
X154871196Y-156976348D01*
X154854426Y-156959376D01*
X154853262Y-156957840D01*
X154832812Y-156918446D01*
X154829105Y-156883501D01*
X154837913Y-156861722D01*
X154851367Y-156848473D01*
X154867601Y-156849197D01*
X154879007Y-156853884D01*
X154897850Y-156860990D01*
X154903592Y-156858477D01*
X154895743Y-156845086D01*
X154873814Y-156819556D01*
X154859799Y-156804388D01*
X154836117Y-156775975D01*
X154819595Y-156750238D01*
X154814079Y-156734250D01*
X154819153Y-156707316D01*
X154831672Y-156680160D01*
X154847585Y-156659790D01*
X154861032Y-156653040D01*
X154886123Y-156661176D01*
D12*
G04 #@! TO.C,SW_0*
X130475000Y-151065000D02*
X130475000Y-137095000D01*
X144445000Y-151065000D02*
X130475000Y-151065000D01*
X144445000Y-137095000D02*
X144445000Y-151065000D01*
X130475000Y-137095000D02*
X144445000Y-137095000D01*
G04 #@! TO.C,SW_1*
X109475000Y-74095000D02*
X123445000Y-74095000D01*
X123445000Y-74095000D02*
X123445000Y-88065000D01*
X123445000Y-88065000D02*
X109475000Y-88065000D01*
X109475000Y-88065000D02*
X109475000Y-74095000D01*
G04 #@! TO.C,SW_2*
X130475000Y-88065000D02*
X130475000Y-74095000D01*
X144445000Y-88065000D02*
X130475000Y-88065000D01*
X144445000Y-74095000D02*
X144445000Y-88065000D01*
X130475000Y-74095000D02*
X144445000Y-74095000D01*
G04 #@! TO.C,SW_3*
X151475000Y-88065000D02*
X151475000Y-74095000D01*
X165445000Y-88065000D02*
X151475000Y-88065000D01*
X165445000Y-74095000D02*
X165445000Y-88065000D01*
X151475000Y-74095000D02*
X165445000Y-74095000D01*
G04 #@! TO.C,SW_4*
X109475000Y-95095000D02*
X123445000Y-95095000D01*
X123445000Y-95095000D02*
X123445000Y-109065000D01*
X123445000Y-109065000D02*
X109475000Y-109065000D01*
X109475000Y-109065000D02*
X109475000Y-95095000D01*
G04 #@! TO.C,SW_5*
X130475000Y-109065000D02*
X130475000Y-95095000D01*
X144445000Y-109065000D02*
X130475000Y-109065000D01*
X144445000Y-95095000D02*
X144445000Y-109065000D01*
X130475000Y-95095000D02*
X144445000Y-95095000D01*
G04 #@! TO.C,SW_6*
X151475000Y-109065000D02*
X151475000Y-95095000D01*
X165445000Y-109065000D02*
X151475000Y-109065000D01*
X165445000Y-95095000D02*
X165445000Y-109065000D01*
X151475000Y-95095000D02*
X165445000Y-95095000D01*
G04 #@! TO.C,SW_7*
X109475000Y-116095000D02*
X123445000Y-116095000D01*
X123445000Y-116095000D02*
X123445000Y-130065000D01*
X123445000Y-130065000D02*
X109475000Y-130065000D01*
X109475000Y-130065000D02*
X109475000Y-116095000D01*
G04 #@! TO.C,SW_8*
X130475000Y-130065000D02*
X130475000Y-116095000D01*
X144445000Y-130065000D02*
X130475000Y-130065000D01*
X144445000Y-116095000D02*
X144445000Y-130065000D01*
X130475000Y-116095000D02*
X144445000Y-116095000D01*
G04 #@! TO.C,SW_9*
X151475000Y-130065000D02*
X151475000Y-116095000D01*
X165445000Y-130065000D02*
X151475000Y-130065000D01*
X165445000Y-116095000D02*
X165445000Y-130065000D01*
X151475000Y-116095000D02*
X165445000Y-116095000D01*
G04 #@! TO.C,SW_A1*
X172475000Y-74095000D02*
X186445000Y-74095000D01*
X186445000Y-74095000D02*
X186445000Y-88065000D01*
X186445000Y-88065000D02*
X172475000Y-88065000D01*
X172475000Y-88065000D02*
X172475000Y-74095000D01*
G04 #@! TO.C,SW_B1*
X172475000Y-95095000D02*
X186445000Y-95095000D01*
X186445000Y-95095000D02*
X186445000Y-109065000D01*
X186445000Y-109065000D02*
X172475000Y-109065000D01*
X172475000Y-109065000D02*
X172475000Y-95095000D01*
G04 #@! TO.C,SW_C1*
X172475000Y-116095000D02*
X186445000Y-116095000D01*
X186445000Y-116095000D02*
X186445000Y-130065000D01*
X186445000Y-130065000D02*
X172475000Y-130065000D01*
X172475000Y-130065000D02*
X172475000Y-116095000D01*
G04 #@! TO.C,SW_D1*
X172475000Y-137095000D02*
X186445000Y-137095000D01*
X186445000Y-137095000D02*
X186445000Y-151065000D01*
X186445000Y-151065000D02*
X172475000Y-151065000D01*
X172475000Y-151065000D02*
X172475000Y-137095000D01*
G04 #@! TO.C,SW_OCTO1*
X151475000Y-151065000D02*
X151475000Y-137095000D01*
X165445000Y-151065000D02*
X151475000Y-151065000D01*
X165445000Y-137095000D02*
X165445000Y-151065000D01*
X151475000Y-137095000D02*
X165445000Y-137095000D01*
G04 #@! TO.C,SW_STAR1*
X109475000Y-137095000D02*
X123445000Y-137095000D01*
X123445000Y-137095000D02*
X123445000Y-151065000D01*
X123445000Y-151065000D02*
X109475000Y-151065000D01*
X109475000Y-151065000D02*
X109475000Y-137095000D01*
G04 #@! TO.C,U1*
X111000000Y-64000000D02*
X111000000Y-39000000D01*
X184000000Y-64000000D02*
X111000000Y-64000000D01*
X184000000Y-39000000D02*
X184000000Y-64000000D01*
X111000000Y-39000000D02*
X184000000Y-39000000D01*
X180200000Y-44500000D02*
X180200000Y-58500000D01*
X179700660Y-59000000D02*
X116200000Y-59000000D01*
X115700280Y-58499320D02*
X115700280Y-44500000D01*
X116200000Y-44000000D02*
X179700000Y-44000000D01*
X114500000Y-33000000D02*
X117500000Y-33000000D01*
X107870000Y-33360000D02*
X108660000Y-33360000D01*
X107860000Y-33360000D02*
X107860000Y-69640000D01*
X188140000Y-33360000D02*
X108660000Y-33360000D01*
X188140000Y-69640000D02*
X188140000Y-33360000D01*
X107860000Y-69640000D02*
X188140000Y-69640000D01*
X180200000Y-44500000D02*
G75*
G03*
X179700000Y-44000000I-500000J0D01*
G01*
X179700660Y-58999700D02*
G75*
G03*
X180201040Y-58499320I0J500380D01*
G01*
X115700280Y-58499320D02*
G75*
G03*
X116200660Y-58999700I500380J0D01*
G01*
X116200660Y-43998460D02*
G75*
G03*
X115700280Y-44498840I0J-500380D01*
G01*
G04 #@! TO.C,J1*
D14*
X131122380Y-44333333D02*
X131836666Y-44333333D01*
X131979523Y-44380952D01*
X132074761Y-44476190D01*
X132122380Y-44619047D01*
X132122380Y-44714285D01*
X132122380Y-43333333D02*
X132122380Y-43904761D01*
X132122380Y-43619047D02*
X131122380Y-43619047D01*
X131265238Y-43714285D01*
X131360476Y-43809523D01*
X131408095Y-43904761D01*
G04 #@! TO.C,H1*
X186238095Y-152152380D02*
X186238095Y-151152380D01*
X186238095Y-151628571D02*
X186809523Y-151628571D01*
X186809523Y-152152380D02*
X186809523Y-151152380D01*
X187809523Y-152152380D02*
X187238095Y-152152380D01*
X187523809Y-152152380D02*
X187523809Y-151152380D01*
X187428571Y-151295238D01*
X187333333Y-151390476D01*
X187238095Y-151438095D01*
G04 #@! TO.C,H2*
X108238095Y-152152380D02*
X108238095Y-151152380D01*
X108238095Y-151628571D02*
X108809523Y-151628571D01*
X108809523Y-152152380D02*
X108809523Y-151152380D01*
X109238095Y-151247619D02*
X109285714Y-151200000D01*
X109380952Y-151152380D01*
X109619047Y-151152380D01*
X109714285Y-151200000D01*
X109761904Y-151247619D01*
X109809523Y-151342857D01*
X109809523Y-151438095D01*
X109761904Y-151580952D01*
X109190476Y-152152380D01*
X109809523Y-152152380D01*
G04 #@! TO.C,H3*
X180238095Y-31952380D02*
X180238095Y-30952380D01*
X180238095Y-31428571D02*
X180809523Y-31428571D01*
X180809523Y-31952380D02*
X180809523Y-30952380D01*
X181190476Y-30952380D02*
X181809523Y-30952380D01*
X181476190Y-31333333D01*
X181619047Y-31333333D01*
X181714285Y-31380952D01*
X181761904Y-31428571D01*
X181809523Y-31523809D01*
X181809523Y-31761904D01*
X181761904Y-31857142D01*
X181714285Y-31904761D01*
X181619047Y-31952380D01*
X181333333Y-31952380D01*
X181238095Y-31904761D01*
X181190476Y-31857142D01*
G04 #@! TO.C,H4*
X113738095Y-31952380D02*
X113738095Y-30952380D01*
X113738095Y-31428571D02*
X114309523Y-31428571D01*
X114309523Y-31952380D02*
X114309523Y-30952380D01*
X115214285Y-31285714D02*
X115214285Y-31952380D01*
X114976190Y-30904761D02*
X114738095Y-31619047D01*
X115357142Y-31619047D01*
G04 #@! TO.C,SW_0*
D15*
X135745714Y-136610761D02*
X135888571Y-136658380D01*
X136126666Y-136658380D01*
X136221904Y-136610761D01*
X136269523Y-136563142D01*
X136317142Y-136467904D01*
X136317142Y-136372666D01*
X136269523Y-136277428D01*
X136221904Y-136229809D01*
X136126666Y-136182190D01*
X135936190Y-136134571D01*
X135840952Y-136086952D01*
X135793333Y-136039333D01*
X135745714Y-135944095D01*
X135745714Y-135848857D01*
X135793333Y-135753619D01*
X135840952Y-135706000D01*
X135936190Y-135658380D01*
X136174285Y-135658380D01*
X136317142Y-135706000D01*
X136650476Y-135658380D02*
X136888571Y-136658380D01*
X137079047Y-135944095D01*
X137269523Y-136658380D01*
X137507619Y-135658380D01*
X137650476Y-136753619D02*
X138412380Y-136753619D01*
X138840952Y-135658380D02*
X138936190Y-135658380D01*
X139031428Y-135706000D01*
X139079047Y-135753619D01*
X139126666Y-135848857D01*
X139174285Y-136039333D01*
X139174285Y-136277428D01*
X139126666Y-136467904D01*
X139079047Y-136563142D01*
X139031428Y-136610761D01*
X138936190Y-136658380D01*
X138840952Y-136658380D01*
X138745714Y-136610761D01*
X138698095Y-136563142D01*
X138650476Y-136467904D01*
X138602857Y-136277428D01*
X138602857Y-136039333D01*
X138650476Y-135848857D01*
X138698095Y-135753619D01*
X138745714Y-135706000D01*
X138840952Y-135658380D01*
G04 #@! TO.C,SW_1*
X114745714Y-73610761D02*
X114888571Y-73658380D01*
X115126666Y-73658380D01*
X115221904Y-73610761D01*
X115269523Y-73563142D01*
X115317142Y-73467904D01*
X115317142Y-73372666D01*
X115269523Y-73277428D01*
X115221904Y-73229809D01*
X115126666Y-73182190D01*
X114936190Y-73134571D01*
X114840952Y-73086952D01*
X114793333Y-73039333D01*
X114745714Y-72944095D01*
X114745714Y-72848857D01*
X114793333Y-72753619D01*
X114840952Y-72706000D01*
X114936190Y-72658380D01*
X115174285Y-72658380D01*
X115317142Y-72706000D01*
X115650476Y-72658380D02*
X115888571Y-73658380D01*
X116079047Y-72944095D01*
X116269523Y-73658380D01*
X116507619Y-72658380D01*
X116650476Y-73753619D02*
X117412380Y-73753619D01*
X118174285Y-73658380D02*
X117602857Y-73658380D01*
X117888571Y-73658380D02*
X117888571Y-72658380D01*
X117793333Y-72801238D01*
X117698095Y-72896476D01*
X117602857Y-72944095D01*
G04 #@! TO.C,SW_2*
X135745714Y-73610761D02*
X135888571Y-73658380D01*
X136126666Y-73658380D01*
X136221904Y-73610761D01*
X136269523Y-73563142D01*
X136317142Y-73467904D01*
X136317142Y-73372666D01*
X136269523Y-73277428D01*
X136221904Y-73229809D01*
X136126666Y-73182190D01*
X135936190Y-73134571D01*
X135840952Y-73086952D01*
X135793333Y-73039333D01*
X135745714Y-72944095D01*
X135745714Y-72848857D01*
X135793333Y-72753619D01*
X135840952Y-72706000D01*
X135936190Y-72658380D01*
X136174285Y-72658380D01*
X136317142Y-72706000D01*
X136650476Y-72658380D02*
X136888571Y-73658380D01*
X137079047Y-72944095D01*
X137269523Y-73658380D01*
X137507619Y-72658380D01*
X137650476Y-73753619D02*
X138412380Y-73753619D01*
X138602857Y-72753619D02*
X138650476Y-72706000D01*
X138745714Y-72658380D01*
X138983809Y-72658380D01*
X139079047Y-72706000D01*
X139126666Y-72753619D01*
X139174285Y-72848857D01*
X139174285Y-72944095D01*
X139126666Y-73086952D01*
X138555238Y-73658380D01*
X139174285Y-73658380D01*
G04 #@! TO.C,SW_3*
X156745714Y-73610761D02*
X156888571Y-73658380D01*
X157126666Y-73658380D01*
X157221904Y-73610761D01*
X157269523Y-73563142D01*
X157317142Y-73467904D01*
X157317142Y-73372666D01*
X157269523Y-73277428D01*
X157221904Y-73229809D01*
X157126666Y-73182190D01*
X156936190Y-73134571D01*
X156840952Y-73086952D01*
X156793333Y-73039333D01*
X156745714Y-72944095D01*
X156745714Y-72848857D01*
X156793333Y-72753619D01*
X156840952Y-72706000D01*
X156936190Y-72658380D01*
X157174285Y-72658380D01*
X157317142Y-72706000D01*
X157650476Y-72658380D02*
X157888571Y-73658380D01*
X158079047Y-72944095D01*
X158269523Y-73658380D01*
X158507619Y-72658380D01*
X158650476Y-73753619D02*
X159412380Y-73753619D01*
X159555238Y-72658380D02*
X160174285Y-72658380D01*
X159840952Y-73039333D01*
X159983809Y-73039333D01*
X160079047Y-73086952D01*
X160126666Y-73134571D01*
X160174285Y-73229809D01*
X160174285Y-73467904D01*
X160126666Y-73563142D01*
X160079047Y-73610761D01*
X159983809Y-73658380D01*
X159698095Y-73658380D01*
X159602857Y-73610761D01*
X159555238Y-73563142D01*
G04 #@! TO.C,SW_4*
X114745714Y-94610761D02*
X114888571Y-94658380D01*
X115126666Y-94658380D01*
X115221904Y-94610761D01*
X115269523Y-94563142D01*
X115317142Y-94467904D01*
X115317142Y-94372666D01*
X115269523Y-94277428D01*
X115221904Y-94229809D01*
X115126666Y-94182190D01*
X114936190Y-94134571D01*
X114840952Y-94086952D01*
X114793333Y-94039333D01*
X114745714Y-93944095D01*
X114745714Y-93848857D01*
X114793333Y-93753619D01*
X114840952Y-93706000D01*
X114936190Y-93658380D01*
X115174285Y-93658380D01*
X115317142Y-93706000D01*
X115650476Y-93658380D02*
X115888571Y-94658380D01*
X116079047Y-93944095D01*
X116269523Y-94658380D01*
X116507619Y-93658380D01*
X116650476Y-94753619D02*
X117412380Y-94753619D01*
X118079047Y-93991714D02*
X118079047Y-94658380D01*
X117840952Y-93610761D02*
X117602857Y-94325047D01*
X118221904Y-94325047D01*
G04 #@! TO.C,SW_5*
X135745714Y-94610761D02*
X135888571Y-94658380D01*
X136126666Y-94658380D01*
X136221904Y-94610761D01*
X136269523Y-94563142D01*
X136317142Y-94467904D01*
X136317142Y-94372666D01*
X136269523Y-94277428D01*
X136221904Y-94229809D01*
X136126666Y-94182190D01*
X135936190Y-94134571D01*
X135840952Y-94086952D01*
X135793333Y-94039333D01*
X135745714Y-93944095D01*
X135745714Y-93848857D01*
X135793333Y-93753619D01*
X135840952Y-93706000D01*
X135936190Y-93658380D01*
X136174285Y-93658380D01*
X136317142Y-93706000D01*
X136650476Y-93658380D02*
X136888571Y-94658380D01*
X137079047Y-93944095D01*
X137269523Y-94658380D01*
X137507619Y-93658380D01*
X137650476Y-94753619D02*
X138412380Y-94753619D01*
X139126666Y-93658380D02*
X138650476Y-93658380D01*
X138602857Y-94134571D01*
X138650476Y-94086952D01*
X138745714Y-94039333D01*
X138983809Y-94039333D01*
X139079047Y-94086952D01*
X139126666Y-94134571D01*
X139174285Y-94229809D01*
X139174285Y-94467904D01*
X139126666Y-94563142D01*
X139079047Y-94610761D01*
X138983809Y-94658380D01*
X138745714Y-94658380D01*
X138650476Y-94610761D01*
X138602857Y-94563142D01*
G04 #@! TO.C,SW_6*
X156745714Y-94610761D02*
X156888571Y-94658380D01*
X157126666Y-94658380D01*
X157221904Y-94610761D01*
X157269523Y-94563142D01*
X157317142Y-94467904D01*
X157317142Y-94372666D01*
X157269523Y-94277428D01*
X157221904Y-94229809D01*
X157126666Y-94182190D01*
X156936190Y-94134571D01*
X156840952Y-94086952D01*
X156793333Y-94039333D01*
X156745714Y-93944095D01*
X156745714Y-93848857D01*
X156793333Y-93753619D01*
X156840952Y-93706000D01*
X156936190Y-93658380D01*
X157174285Y-93658380D01*
X157317142Y-93706000D01*
X157650476Y-93658380D02*
X157888571Y-94658380D01*
X158079047Y-93944095D01*
X158269523Y-94658380D01*
X158507619Y-93658380D01*
X158650476Y-94753619D02*
X159412380Y-94753619D01*
X160079047Y-93658380D02*
X159888571Y-93658380D01*
X159793333Y-93706000D01*
X159745714Y-93753619D01*
X159650476Y-93896476D01*
X159602857Y-94086952D01*
X159602857Y-94467904D01*
X159650476Y-94563142D01*
X159698095Y-94610761D01*
X159793333Y-94658380D01*
X159983809Y-94658380D01*
X160079047Y-94610761D01*
X160126666Y-94563142D01*
X160174285Y-94467904D01*
X160174285Y-94229809D01*
X160126666Y-94134571D01*
X160079047Y-94086952D01*
X159983809Y-94039333D01*
X159793333Y-94039333D01*
X159698095Y-94086952D01*
X159650476Y-94134571D01*
X159602857Y-94229809D01*
G04 #@! TO.C,SW_7*
X114745714Y-115610761D02*
X114888571Y-115658380D01*
X115126666Y-115658380D01*
X115221904Y-115610761D01*
X115269523Y-115563142D01*
X115317142Y-115467904D01*
X115317142Y-115372666D01*
X115269523Y-115277428D01*
X115221904Y-115229809D01*
X115126666Y-115182190D01*
X114936190Y-115134571D01*
X114840952Y-115086952D01*
X114793333Y-115039333D01*
X114745714Y-114944095D01*
X114745714Y-114848857D01*
X114793333Y-114753619D01*
X114840952Y-114706000D01*
X114936190Y-114658380D01*
X115174285Y-114658380D01*
X115317142Y-114706000D01*
X115650476Y-114658380D02*
X115888571Y-115658380D01*
X116079047Y-114944095D01*
X116269523Y-115658380D01*
X116507619Y-114658380D01*
X116650476Y-115753619D02*
X117412380Y-115753619D01*
X117555238Y-114658380D02*
X118221904Y-114658380D01*
X117793333Y-115658380D01*
G04 #@! TO.C,SW_8*
X135745714Y-115610761D02*
X135888571Y-115658380D01*
X136126666Y-115658380D01*
X136221904Y-115610761D01*
X136269523Y-115563142D01*
X136317142Y-115467904D01*
X136317142Y-115372666D01*
X136269523Y-115277428D01*
X136221904Y-115229809D01*
X136126666Y-115182190D01*
X135936190Y-115134571D01*
X135840952Y-115086952D01*
X135793333Y-115039333D01*
X135745714Y-114944095D01*
X135745714Y-114848857D01*
X135793333Y-114753619D01*
X135840952Y-114706000D01*
X135936190Y-114658380D01*
X136174285Y-114658380D01*
X136317142Y-114706000D01*
X136650476Y-114658380D02*
X136888571Y-115658380D01*
X137079047Y-114944095D01*
X137269523Y-115658380D01*
X137507619Y-114658380D01*
X137650476Y-115753619D02*
X138412380Y-115753619D01*
X138793333Y-115086952D02*
X138698095Y-115039333D01*
X138650476Y-114991714D01*
X138602857Y-114896476D01*
X138602857Y-114848857D01*
X138650476Y-114753619D01*
X138698095Y-114706000D01*
X138793333Y-114658380D01*
X138983809Y-114658380D01*
X139079047Y-114706000D01*
X139126666Y-114753619D01*
X139174285Y-114848857D01*
X139174285Y-114896476D01*
X139126666Y-114991714D01*
X139079047Y-115039333D01*
X138983809Y-115086952D01*
X138793333Y-115086952D01*
X138698095Y-115134571D01*
X138650476Y-115182190D01*
X138602857Y-115277428D01*
X138602857Y-115467904D01*
X138650476Y-115563142D01*
X138698095Y-115610761D01*
X138793333Y-115658380D01*
X138983809Y-115658380D01*
X139079047Y-115610761D01*
X139126666Y-115563142D01*
X139174285Y-115467904D01*
X139174285Y-115277428D01*
X139126666Y-115182190D01*
X139079047Y-115134571D01*
X138983809Y-115086952D01*
G04 #@! TO.C,SW_9*
X156745714Y-115610761D02*
X156888571Y-115658380D01*
X157126666Y-115658380D01*
X157221904Y-115610761D01*
X157269523Y-115563142D01*
X157317142Y-115467904D01*
X157317142Y-115372666D01*
X157269523Y-115277428D01*
X157221904Y-115229809D01*
X157126666Y-115182190D01*
X156936190Y-115134571D01*
X156840952Y-115086952D01*
X156793333Y-115039333D01*
X156745714Y-114944095D01*
X156745714Y-114848857D01*
X156793333Y-114753619D01*
X156840952Y-114706000D01*
X156936190Y-114658380D01*
X157174285Y-114658380D01*
X157317142Y-114706000D01*
X157650476Y-114658380D02*
X157888571Y-115658380D01*
X158079047Y-114944095D01*
X158269523Y-115658380D01*
X158507619Y-114658380D01*
X158650476Y-115753619D02*
X159412380Y-115753619D01*
X159698095Y-115658380D02*
X159888571Y-115658380D01*
X159983809Y-115610761D01*
X160031428Y-115563142D01*
X160126666Y-115420285D01*
X160174285Y-115229809D01*
X160174285Y-114848857D01*
X160126666Y-114753619D01*
X160079047Y-114706000D01*
X159983809Y-114658380D01*
X159793333Y-114658380D01*
X159698095Y-114706000D01*
X159650476Y-114753619D01*
X159602857Y-114848857D01*
X159602857Y-115086952D01*
X159650476Y-115182190D01*
X159698095Y-115229809D01*
X159793333Y-115277428D01*
X159983809Y-115277428D01*
X160079047Y-115229809D01*
X160126666Y-115182190D01*
X160174285Y-115086952D01*
G04 #@! TO.C,SW_A1*
X177317142Y-73610761D02*
X177460000Y-73658380D01*
X177698095Y-73658380D01*
X177793333Y-73610761D01*
X177840952Y-73563142D01*
X177888571Y-73467904D01*
X177888571Y-73372666D01*
X177840952Y-73277428D01*
X177793333Y-73229809D01*
X177698095Y-73182190D01*
X177507619Y-73134571D01*
X177412380Y-73086952D01*
X177364761Y-73039333D01*
X177317142Y-72944095D01*
X177317142Y-72848857D01*
X177364761Y-72753619D01*
X177412380Y-72706000D01*
X177507619Y-72658380D01*
X177745714Y-72658380D01*
X177888571Y-72706000D01*
X178221904Y-72658380D02*
X178460000Y-73658380D01*
X178650476Y-72944095D01*
X178840952Y-73658380D01*
X179079047Y-72658380D01*
X179221904Y-73753619D02*
X179983809Y-73753619D01*
X180174285Y-73372666D02*
X180650476Y-73372666D01*
X180079047Y-73658380D02*
X180412380Y-72658380D01*
X180745714Y-73658380D01*
X181602857Y-73658380D02*
X181031428Y-73658380D01*
X181317142Y-73658380D02*
X181317142Y-72658380D01*
X181221904Y-72801238D01*
X181126666Y-72896476D01*
X181031428Y-72944095D01*
G04 #@! TO.C,SW_B1*
X177245714Y-94610761D02*
X177388571Y-94658380D01*
X177626666Y-94658380D01*
X177721904Y-94610761D01*
X177769523Y-94563142D01*
X177817142Y-94467904D01*
X177817142Y-94372666D01*
X177769523Y-94277428D01*
X177721904Y-94229809D01*
X177626666Y-94182190D01*
X177436190Y-94134571D01*
X177340952Y-94086952D01*
X177293333Y-94039333D01*
X177245714Y-93944095D01*
X177245714Y-93848857D01*
X177293333Y-93753619D01*
X177340952Y-93706000D01*
X177436190Y-93658380D01*
X177674285Y-93658380D01*
X177817142Y-93706000D01*
X178150476Y-93658380D02*
X178388571Y-94658380D01*
X178579047Y-93944095D01*
X178769523Y-94658380D01*
X179007619Y-93658380D01*
X179150476Y-94753619D02*
X179912380Y-94753619D01*
X180483809Y-94134571D02*
X180626666Y-94182190D01*
X180674285Y-94229809D01*
X180721904Y-94325047D01*
X180721904Y-94467904D01*
X180674285Y-94563142D01*
X180626666Y-94610761D01*
X180531428Y-94658380D01*
X180150476Y-94658380D01*
X180150476Y-93658380D01*
X180483809Y-93658380D01*
X180579047Y-93706000D01*
X180626666Y-93753619D01*
X180674285Y-93848857D01*
X180674285Y-93944095D01*
X180626666Y-94039333D01*
X180579047Y-94086952D01*
X180483809Y-94134571D01*
X180150476Y-94134571D01*
X181674285Y-94658380D02*
X181102857Y-94658380D01*
X181388571Y-94658380D02*
X181388571Y-93658380D01*
X181293333Y-93801238D01*
X181198095Y-93896476D01*
X181102857Y-93944095D01*
G04 #@! TO.C,SW_C1*
X177245714Y-115610761D02*
X177388571Y-115658380D01*
X177626666Y-115658380D01*
X177721904Y-115610761D01*
X177769523Y-115563142D01*
X177817142Y-115467904D01*
X177817142Y-115372666D01*
X177769523Y-115277428D01*
X177721904Y-115229809D01*
X177626666Y-115182190D01*
X177436190Y-115134571D01*
X177340952Y-115086952D01*
X177293333Y-115039333D01*
X177245714Y-114944095D01*
X177245714Y-114848857D01*
X177293333Y-114753619D01*
X177340952Y-114706000D01*
X177436190Y-114658380D01*
X177674285Y-114658380D01*
X177817142Y-114706000D01*
X178150476Y-114658380D02*
X178388571Y-115658380D01*
X178579047Y-114944095D01*
X178769523Y-115658380D01*
X179007619Y-114658380D01*
X179150476Y-115753619D02*
X179912380Y-115753619D01*
X180721904Y-115563142D02*
X180674285Y-115610761D01*
X180531428Y-115658380D01*
X180436190Y-115658380D01*
X180293333Y-115610761D01*
X180198095Y-115515523D01*
X180150476Y-115420285D01*
X180102857Y-115229809D01*
X180102857Y-115086952D01*
X180150476Y-114896476D01*
X180198095Y-114801238D01*
X180293333Y-114706000D01*
X180436190Y-114658380D01*
X180531428Y-114658380D01*
X180674285Y-114706000D01*
X180721904Y-114753619D01*
X181674285Y-115658380D02*
X181102857Y-115658380D01*
X181388571Y-115658380D02*
X181388571Y-114658380D01*
X181293333Y-114801238D01*
X181198095Y-114896476D01*
X181102857Y-114944095D01*
G04 #@! TO.C,SW_D1*
X177245714Y-136610761D02*
X177388571Y-136658380D01*
X177626666Y-136658380D01*
X177721904Y-136610761D01*
X177769523Y-136563142D01*
X177817142Y-136467904D01*
X177817142Y-136372666D01*
X177769523Y-136277428D01*
X177721904Y-136229809D01*
X177626666Y-136182190D01*
X177436190Y-136134571D01*
X177340952Y-136086952D01*
X177293333Y-136039333D01*
X177245714Y-135944095D01*
X177245714Y-135848857D01*
X177293333Y-135753619D01*
X177340952Y-135706000D01*
X177436190Y-135658380D01*
X177674285Y-135658380D01*
X177817142Y-135706000D01*
X178150476Y-135658380D02*
X178388571Y-136658380D01*
X178579047Y-135944095D01*
X178769523Y-136658380D01*
X179007619Y-135658380D01*
X179150476Y-136753619D02*
X179912380Y-136753619D01*
X180150476Y-136658380D02*
X180150476Y-135658380D01*
X180388571Y-135658380D01*
X180531428Y-135706000D01*
X180626666Y-135801238D01*
X180674285Y-135896476D01*
X180721904Y-136086952D01*
X180721904Y-136229809D01*
X180674285Y-136420285D01*
X180626666Y-136515523D01*
X180531428Y-136610761D01*
X180388571Y-136658380D01*
X180150476Y-136658380D01*
X181674285Y-136658380D02*
X181102857Y-136658380D01*
X181388571Y-136658380D02*
X181388571Y-135658380D01*
X181293333Y-135801238D01*
X181198095Y-135896476D01*
X181102857Y-135944095D01*
G04 #@! TO.C,SW_OCTO1*
X154817142Y-136610761D02*
X154960000Y-136658380D01*
X155198095Y-136658380D01*
X155293333Y-136610761D01*
X155340952Y-136563142D01*
X155388571Y-136467904D01*
X155388571Y-136372666D01*
X155340952Y-136277428D01*
X155293333Y-136229809D01*
X155198095Y-136182190D01*
X155007619Y-136134571D01*
X154912380Y-136086952D01*
X154864761Y-136039333D01*
X154817142Y-135944095D01*
X154817142Y-135848857D01*
X154864761Y-135753619D01*
X154912380Y-135706000D01*
X155007619Y-135658380D01*
X155245714Y-135658380D01*
X155388571Y-135706000D01*
X155721904Y-135658380D02*
X155960000Y-136658380D01*
X156150476Y-135944095D01*
X156340952Y-136658380D01*
X156579047Y-135658380D01*
X156721904Y-136753619D02*
X157483809Y-136753619D01*
X157912380Y-135658380D02*
X158102857Y-135658380D01*
X158198095Y-135706000D01*
X158293333Y-135801238D01*
X158340952Y-135991714D01*
X158340952Y-136325047D01*
X158293333Y-136515523D01*
X158198095Y-136610761D01*
X158102857Y-136658380D01*
X157912380Y-136658380D01*
X157817142Y-136610761D01*
X157721904Y-136515523D01*
X157674285Y-136325047D01*
X157674285Y-135991714D01*
X157721904Y-135801238D01*
X157817142Y-135706000D01*
X157912380Y-135658380D01*
X159340952Y-136563142D02*
X159293333Y-136610761D01*
X159150476Y-136658380D01*
X159055238Y-136658380D01*
X158912380Y-136610761D01*
X158817142Y-136515523D01*
X158769523Y-136420285D01*
X158721904Y-136229809D01*
X158721904Y-136086952D01*
X158769523Y-135896476D01*
X158817142Y-135801238D01*
X158912380Y-135706000D01*
X159055238Y-135658380D01*
X159150476Y-135658380D01*
X159293333Y-135706000D01*
X159340952Y-135753619D01*
X159626666Y-135658380D02*
X160198095Y-135658380D01*
X159912380Y-136658380D02*
X159912380Y-135658380D01*
X160721904Y-135658380D02*
X160912380Y-135658380D01*
X161007619Y-135706000D01*
X161102857Y-135801238D01*
X161150476Y-135991714D01*
X161150476Y-136325047D01*
X161102857Y-136515523D01*
X161007619Y-136610761D01*
X160912380Y-136658380D01*
X160721904Y-136658380D01*
X160626666Y-136610761D01*
X160531428Y-136515523D01*
X160483809Y-136325047D01*
X160483809Y-135991714D01*
X160531428Y-135801238D01*
X160626666Y-135706000D01*
X160721904Y-135658380D01*
X162102857Y-136658380D02*
X161531428Y-136658380D01*
X161817142Y-136658380D02*
X161817142Y-135658380D01*
X161721904Y-135801238D01*
X161626666Y-135896476D01*
X161531428Y-135944095D01*
G04 #@! TO.C,SW_STAR1*
X112960000Y-136610761D02*
X113102857Y-136658380D01*
X113340952Y-136658380D01*
X113436190Y-136610761D01*
X113483809Y-136563142D01*
X113531428Y-136467904D01*
X113531428Y-136372666D01*
X113483809Y-136277428D01*
X113436190Y-136229809D01*
X113340952Y-136182190D01*
X113150476Y-136134571D01*
X113055238Y-136086952D01*
X113007619Y-136039333D01*
X112960000Y-135944095D01*
X112960000Y-135848857D01*
X113007619Y-135753619D01*
X113055238Y-135706000D01*
X113150476Y-135658380D01*
X113388571Y-135658380D01*
X113531428Y-135706000D01*
X113864761Y-135658380D02*
X114102857Y-136658380D01*
X114293333Y-135944095D01*
X114483809Y-136658380D01*
X114721904Y-135658380D01*
X114864761Y-136753619D02*
X115626666Y-136753619D01*
X115817142Y-136610761D02*
X115960000Y-136658380D01*
X116198095Y-136658380D01*
X116293333Y-136610761D01*
X116340952Y-136563142D01*
X116388571Y-136467904D01*
X116388571Y-136372666D01*
X116340952Y-136277428D01*
X116293333Y-136229809D01*
X116198095Y-136182190D01*
X116007619Y-136134571D01*
X115912380Y-136086952D01*
X115864761Y-136039333D01*
X115817142Y-135944095D01*
X115817142Y-135848857D01*
X115864761Y-135753619D01*
X115912380Y-135706000D01*
X116007619Y-135658380D01*
X116245714Y-135658380D01*
X116388571Y-135706000D01*
X116674285Y-135658380D02*
X117245714Y-135658380D01*
X116960000Y-136658380D02*
X116960000Y-135658380D01*
X117531428Y-136372666D02*
X118007619Y-136372666D01*
X117436190Y-136658380D02*
X117769523Y-135658380D01*
X118102857Y-136658380D01*
X119007619Y-136658380D02*
X118674285Y-136182190D01*
X118436190Y-136658380D02*
X118436190Y-135658380D01*
X118817142Y-135658380D01*
X118912380Y-135706000D01*
X118960000Y-135753619D01*
X119007619Y-135848857D01*
X119007619Y-135991714D01*
X118960000Y-136086952D01*
X118912380Y-136134571D01*
X118817142Y-136182190D01*
X118436190Y-136182190D01*
X119960000Y-136658380D02*
X119388571Y-136658380D01*
X119674285Y-136658380D02*
X119674285Y-135658380D01*
X119579047Y-135801238D01*
X119483809Y-135896476D01*
X119388571Y-135944095D01*
G04 #@! TO.C,U1*
D14*
X109418095Y-31642380D02*
X109418095Y-32451904D01*
X109465714Y-32547142D01*
X109513333Y-32594761D01*
X109608571Y-32642380D01*
X109799047Y-32642380D01*
X109894285Y-32594761D01*
X109941904Y-32547142D01*
X109989523Y-32451904D01*
X109989523Y-31642380D01*
X110989523Y-32642380D02*
X110418095Y-32642380D01*
X110703809Y-32642380D02*
X110703809Y-31642380D01*
X110608571Y-31785238D01*
X110513333Y-31880476D01*
X110418095Y-31928095D01*
G04 #@! TD*
M02*
