G04 #@! TF.GenerationSoftware,KiCad,Pcbnew,5.1.9+dfsg1-1*
G04 #@! TF.CreationDate,2022-06-11T23:01:35-07:00*
G04 #@! TF.ProjectId,brains_cn,62726169-6e73-45f6-936e-2e6b69636164,rev?*
G04 #@! TF.SameCoordinates,Original*
G04 #@! TF.FileFunction,Soldermask,Bot*
G04 #@! TF.FilePolarity,Negative*
%FSLAX46Y46*%
G04 Gerber Fmt 4.6, Leading zero omitted, Abs format (unit mm)*
G04 Created by KiCad (PCBNEW 5.1.9+dfsg1-1) date 2022-06-11 23:01:35*
%MOMM*%
%LPD*%
G01*
G04 APERTURE LIST*
%ADD10R,1.600000X1.600000*%
%ADD11C,1.600000*%
%ADD12C,3.000000*%
%ADD13R,1.700000X1.700000*%
%ADD14O,1.700000X1.700000*%
%ADD15O,1.600000X1.600000*%
%ADD16O,2.400000X1.600000*%
%ADD17R,2.400000X1.600000*%
%ADD18C,2.000000*%
%ADD19C,1.700000*%
%ADD20C,8.600000*%
%ADD21C,0.900000*%
%ADD22C,1.755000*%
%ADD23C,3.560000*%
%ADD24O,3.016000X1.508000*%
%ADD25O,1.508000X3.016000*%
%ADD26C,1.500000*%
G04 APERTURE END LIST*
D10*
G04 #@! TO.C,C8*
X168500000Y-74000000D03*
D11*
X164700000Y-74000000D03*
G04 #@! TD*
D12*
G04 #@! TO.C,J2*
X149530000Y-146690000D03*
X149530000Y-139810000D03*
X118470000Y-139810000D03*
X118470000Y-146690000D03*
G04 #@! TD*
D13*
G04 #@! TO.C,J1*
X134000000Y-44000000D03*
D14*
X136540000Y-44000000D03*
X139080000Y-44000000D03*
X141620000Y-44000000D03*
X144160000Y-44000000D03*
X146700000Y-44000000D03*
X149240000Y-44000000D03*
X151780000Y-44000000D03*
X154320000Y-44000000D03*
X156860000Y-44000000D03*
X159400000Y-44000000D03*
X161940000Y-44000000D03*
G04 #@! TD*
D10*
G04 #@! TO.C,A1*
X153000000Y-131000000D03*
D15*
X186020000Y-115760000D03*
X155540000Y-131000000D03*
X183480000Y-115760000D03*
X158080000Y-131000000D03*
X180940000Y-115760000D03*
X160620000Y-131000000D03*
X178400000Y-115760000D03*
X163160000Y-131000000D03*
X175860000Y-115760000D03*
X165700000Y-131000000D03*
X173320000Y-115760000D03*
X168240000Y-131000000D03*
X170780000Y-115760000D03*
X170780000Y-131000000D03*
X168240000Y-115760000D03*
X173320000Y-131000000D03*
X165700000Y-115760000D03*
X175860000Y-131000000D03*
X163160000Y-115760000D03*
X178400000Y-131000000D03*
X160620000Y-115760000D03*
X180940000Y-131000000D03*
X158080000Y-115760000D03*
X183480000Y-131000000D03*
X155540000Y-115760000D03*
X186020000Y-131000000D03*
X153000000Y-115760000D03*
X188560000Y-131000000D03*
X188560000Y-115760000D03*
G04 #@! TD*
D16*
G04 #@! TO.C,U2*
X128590000Y-106600000D03*
X120970000Y-114220000D03*
X128590000Y-109140000D03*
X120970000Y-111680000D03*
X128590000Y-111680000D03*
X120970000Y-109140000D03*
X128590000Y-114220000D03*
D17*
X120970000Y-106600000D03*
G04 #@! TD*
G04 #@! TO.C,U3*
X165910000Y-59930000D03*
D16*
X173530000Y-67550000D03*
X165910000Y-62470000D03*
X173530000Y-65010000D03*
X165910000Y-65010000D03*
X173530000Y-62470000D03*
X165910000Y-67550000D03*
X173530000Y-59930000D03*
G04 #@! TD*
D18*
G04 #@! TO.C,SW1*
X142000000Y-154250000D03*
X154000000Y-154250000D03*
X154000000Y-160250000D03*
X142000000Y-160250000D03*
D19*
X144000000Y-156000000D03*
X148000000Y-156000000D03*
X152000000Y-156000000D03*
G04 #@! TD*
D13*
G04 #@! TO.C,J6*
X188500000Y-122500000D03*
D14*
X185960000Y-122500000D03*
X183420000Y-122500000D03*
X180880000Y-122500000D03*
X178340000Y-122500000D03*
X175800000Y-122500000D03*
G04 #@! TD*
D20*
G04 #@! TO.C,H1*
X109000000Y-157000000D03*
D21*
X109000000Y-160225000D03*
X111280419Y-159280419D03*
X112225000Y-157000000D03*
X111280419Y-154719581D03*
X109000000Y-153775000D03*
X106719581Y-154719581D03*
X105775000Y-157000000D03*
X106719581Y-159280419D03*
G04 #@! TD*
G04 #@! TO.C,H2*
X184719581Y-159280419D03*
X183775000Y-157000000D03*
X184719581Y-154719581D03*
X187000000Y-153775000D03*
X189280419Y-154719581D03*
X190225000Y-157000000D03*
X189280419Y-159280419D03*
X187000000Y-160225000D03*
D20*
X187000000Y-157000000D03*
G04 #@! TD*
D18*
G04 #@! TO.C,F1*
X146558000Y-131826000D03*
X141478000Y-131816000D03*
G04 #@! TD*
D13*
G04 #@! TO.C,LS1*
X119000000Y-33000000D03*
D14*
X116460000Y-33000000D03*
G04 #@! TD*
G04 #@! TO.C,MK1*
X176460000Y-34000000D03*
D13*
X179000000Y-34000000D03*
G04 #@! TD*
D22*
G04 #@! TO.C,BT1*
X120840000Y-149640000D03*
X120840000Y-136050000D03*
D23*
X147000000Y-143010000D03*
G04 #@! TD*
D11*
G04 #@! TO.C,C5*
X171820000Y-52180000D03*
D10*
X168020000Y-52180000D03*
G04 #@! TD*
G04 #@! TO.C,C16*
X176500000Y-55500000D03*
D11*
X180300000Y-55500000D03*
G04 #@! TD*
D18*
G04 #@! TO.C,F2*
X172500000Y-146000000D03*
X167420000Y-145990000D03*
G04 #@! TD*
D20*
G04 #@! TO.C,H3*
X187000000Y-35000000D03*
D21*
X190225000Y-35000000D03*
X189280419Y-37280419D03*
X187000000Y-38225000D03*
X184719581Y-37280419D03*
X183775000Y-35000000D03*
X184719581Y-32719581D03*
X187000000Y-31775000D03*
X189280419Y-32719581D03*
G04 #@! TD*
G04 #@! TO.C,H4*
X111280419Y-32719581D03*
X109000000Y-31775000D03*
X106719581Y-32719581D03*
X105775000Y-35000000D03*
X106719581Y-37280419D03*
X109000000Y-38225000D03*
X111280419Y-37280419D03*
X112225000Y-35000000D03*
D20*
X109000000Y-35000000D03*
G04 #@! TD*
D24*
G04 #@! TO.C,J4*
X128600000Y-33300000D03*
D25*
X123600000Y-38300000D03*
X133600000Y-38300000D03*
D11*
X128600000Y-38300000D03*
X123600000Y-33300000D03*
X133600000Y-33300000D03*
D25*
X126100000Y-38300000D03*
X131100000Y-38300000D03*
G04 #@! TD*
G04 #@! TO.C,J5*
X169900000Y-38300000D03*
X164900000Y-38300000D03*
D11*
X172400000Y-33300000D03*
X162400000Y-33300000D03*
X167400000Y-38300000D03*
D25*
X172400000Y-38300000D03*
X162400000Y-38300000D03*
D24*
X167400000Y-33300000D03*
G04 #@! TD*
D10*
G04 #@! TO.C,X1*
X136470000Y-54210000D03*
D11*
X144090000Y-54210000D03*
X144090000Y-69450000D03*
X136470000Y-69450000D03*
G04 #@! TD*
D26*
G04 #@! TO.C,Y1*
X163400000Y-89800000D03*
X168280000Y-89800000D03*
G04 #@! TD*
M02*
