G04 #@! TF.GenerationSoftware,KiCad,Pcbnew,5.1.9+dfsg1-1*
G04 #@! TF.CreationDate,2022-06-11T23:01:35-07:00*
G04 #@! TF.ProjectId,brains_cn,62726169-6e73-45f6-936e-2e6b69636164,rev?*
G04 #@! TF.SameCoordinates,Original*
G04 #@! TF.FileFunction,Legend,Bot*
G04 #@! TF.FilePolarity,Positive*
%FSLAX46Y46*%
G04 Gerber Fmt 4.6, Leading zero omitted, Abs format (unit mm)*
G04 Created by KiCad (PCBNEW 5.1.9+dfsg1-1) date 2022-06-11 23:01:35*
%MOMM*%
%LPD*%
G01*
G04 APERTURE LIST*
%ADD10C,0.300000*%
%ADD11C,1.000000*%
%ADD12C,0.010000*%
%ADD13C,0.127000*%
%ADD14C,0.150000*%
%ADD15C,0.250000*%
G04 APERTURE END LIST*
D10*
X107378571Y-147200000D02*
X105878571Y-147200000D01*
X107307142Y-147200000D02*
X107378571Y-147342857D01*
X107378571Y-147628571D01*
X107307142Y-147771428D01*
X107235714Y-147842857D01*
X107092857Y-147914285D01*
X106664285Y-147914285D01*
X106521428Y-147842857D01*
X106450000Y-147771428D01*
X106378571Y-147628571D01*
X106378571Y-147342857D01*
X106450000Y-147200000D01*
X107378571Y-146271428D02*
X107307142Y-146414285D01*
X107235714Y-146485714D01*
X107092857Y-146557142D01*
X106664285Y-146557142D01*
X106521428Y-146485714D01*
X106450000Y-146414285D01*
X106378571Y-146271428D01*
X106378571Y-146057142D01*
X106450000Y-145914285D01*
X106521428Y-145842857D01*
X106664285Y-145771428D01*
X107092857Y-145771428D01*
X107235714Y-145842857D01*
X107307142Y-145914285D01*
X107378571Y-146057142D01*
X107378571Y-146271428D01*
X107307142Y-144557142D02*
X107378571Y-144700000D01*
X107378571Y-144985714D01*
X107307142Y-145128571D01*
X107164285Y-145200000D01*
X106592857Y-145200000D01*
X106450000Y-145128571D01*
X106378571Y-144985714D01*
X106378571Y-144700000D01*
X106450000Y-144557142D01*
X106592857Y-144485714D01*
X106735714Y-144485714D01*
X106878571Y-145200000D01*
X107307142Y-143914285D02*
X107378571Y-143771428D01*
X107378571Y-143485714D01*
X107307142Y-143342857D01*
X107164285Y-143271428D01*
X107092857Y-143271428D01*
X106950000Y-143342857D01*
X106878571Y-143485714D01*
X106878571Y-143700000D01*
X106807142Y-143842857D01*
X106664285Y-143914285D01*
X106592857Y-143914285D01*
X106450000Y-143842857D01*
X106378571Y-143700000D01*
X106378571Y-143485714D01*
X106450000Y-143342857D01*
X107307142Y-141557142D02*
X107378571Y-141414285D01*
X107378571Y-141128571D01*
X107307142Y-140985714D01*
X107164285Y-140914285D01*
X107092857Y-140914285D01*
X106950000Y-140985714D01*
X106878571Y-141128571D01*
X106878571Y-141342857D01*
X106807142Y-141485714D01*
X106664285Y-141557142D01*
X106592857Y-141557142D01*
X106450000Y-141485714D01*
X106378571Y-141342857D01*
X106378571Y-141128571D01*
X106450000Y-140985714D01*
X107378571Y-140271428D02*
X105878571Y-140271428D01*
X107378571Y-139628571D02*
X106592857Y-139628571D01*
X106450000Y-139700000D01*
X106378571Y-139842857D01*
X106378571Y-140057142D01*
X106450000Y-140200000D01*
X106521428Y-140271428D01*
X107378571Y-138271428D02*
X106592857Y-138271428D01*
X106450000Y-138342857D01*
X106378571Y-138485714D01*
X106378571Y-138771428D01*
X106450000Y-138914285D01*
X107307142Y-138271428D02*
X107378571Y-138414285D01*
X107378571Y-138771428D01*
X107307142Y-138914285D01*
X107164285Y-138985714D01*
X107021428Y-138985714D01*
X106878571Y-138914285D01*
X106807142Y-138771428D01*
X106807142Y-138414285D01*
X106735714Y-138271428D01*
X106378571Y-136914285D02*
X107592857Y-136914285D01*
X107735714Y-136985714D01*
X107807142Y-137057142D01*
X107878571Y-137200000D01*
X107878571Y-137414285D01*
X107807142Y-137557142D01*
X107307142Y-136914285D02*
X107378571Y-137057142D01*
X107378571Y-137342857D01*
X107307142Y-137485714D01*
X107235714Y-137557142D01*
X107092857Y-137628571D01*
X106664285Y-137628571D01*
X106521428Y-137557142D01*
X106450000Y-137485714D01*
X106378571Y-137342857D01*
X106378571Y-137057142D01*
X106450000Y-136914285D01*
X106378571Y-135557142D02*
X107592857Y-135557142D01*
X107735714Y-135628571D01*
X107807142Y-135700000D01*
X107878571Y-135842857D01*
X107878571Y-136057142D01*
X107807142Y-136200000D01*
X107307142Y-135557142D02*
X107378571Y-135700000D01*
X107378571Y-135985714D01*
X107307142Y-136128571D01*
X107235714Y-136200000D01*
X107092857Y-136271428D01*
X106664285Y-136271428D01*
X106521428Y-136200000D01*
X106450000Y-136128571D01*
X106378571Y-135985714D01*
X106378571Y-135700000D01*
X106450000Y-135557142D01*
X106378571Y-134985714D02*
X107378571Y-134628571D01*
X106378571Y-134271428D02*
X107378571Y-134628571D01*
X107735714Y-134771428D01*
X107807142Y-134842857D01*
X107878571Y-134985714D01*
X107378571Y-131914285D02*
X106592857Y-131914285D01*
X106450000Y-131985714D01*
X106378571Y-132128571D01*
X106378571Y-132414285D01*
X106450000Y-132557142D01*
X107307142Y-131914285D02*
X107378571Y-132057142D01*
X107378571Y-132414285D01*
X107307142Y-132557142D01*
X107164285Y-132628571D01*
X107021428Y-132628571D01*
X106878571Y-132557142D01*
X106807142Y-132414285D01*
X106807142Y-132057142D01*
X106735714Y-131914285D01*
X106378571Y-131200000D02*
X107878571Y-131200000D01*
X106450000Y-131200000D02*
X106378571Y-131057142D01*
X106378571Y-130771428D01*
X106450000Y-130628571D01*
X106521428Y-130557142D01*
X106664285Y-130485714D01*
X107092857Y-130485714D01*
X107235714Y-130557142D01*
X107307142Y-130628571D01*
X107378571Y-130771428D01*
X107378571Y-131057142D01*
X107307142Y-131200000D01*
X106378571Y-129842857D02*
X107878571Y-129842857D01*
X106450000Y-129842857D02*
X106378571Y-129700000D01*
X106378571Y-129414285D01*
X106450000Y-129271428D01*
X106521428Y-129200000D01*
X106664285Y-129128571D01*
X107092857Y-129128571D01*
X107235714Y-129200000D01*
X107307142Y-129271428D01*
X107378571Y-129414285D01*
X107378571Y-129700000D01*
X107307142Y-129842857D01*
X107378571Y-128485714D02*
X106378571Y-128485714D01*
X106664285Y-128485714D02*
X106521428Y-128414285D01*
X106450000Y-128342857D01*
X106378571Y-128200000D01*
X106378571Y-128057142D01*
X107378571Y-127342857D02*
X107307142Y-127485714D01*
X107235714Y-127557142D01*
X107092857Y-127628571D01*
X106664285Y-127628571D01*
X106521428Y-127557142D01*
X106450000Y-127485714D01*
X106378571Y-127342857D01*
X106378571Y-127128571D01*
X106450000Y-126985714D01*
X106521428Y-126914285D01*
X106664285Y-126842857D01*
X107092857Y-126842857D01*
X107235714Y-126914285D01*
X107307142Y-126985714D01*
X107378571Y-127128571D01*
X107378571Y-127342857D01*
X106378571Y-126342857D02*
X107378571Y-125985714D01*
X106378571Y-125628571D01*
X107307142Y-124485714D02*
X107378571Y-124628571D01*
X107378571Y-124914285D01*
X107307142Y-125057142D01*
X107164285Y-125128571D01*
X106592857Y-125128571D01*
X106450000Y-125057142D01*
X106378571Y-124914285D01*
X106378571Y-124628571D01*
X106450000Y-124485714D01*
X106592857Y-124414285D01*
X106735714Y-124414285D01*
X106878571Y-125128571D01*
X107378571Y-122414285D02*
X107307142Y-122557142D01*
X107235714Y-122628571D01*
X107092857Y-122700000D01*
X106664285Y-122700000D01*
X106521428Y-122628571D01*
X106450000Y-122557142D01*
X106378571Y-122414285D01*
X106378571Y-122200000D01*
X106450000Y-122057142D01*
X106521428Y-121985714D01*
X106664285Y-121914285D01*
X107092857Y-121914285D01*
X107235714Y-121985714D01*
X107307142Y-122057142D01*
X107378571Y-122200000D01*
X107378571Y-122414285D01*
X106378571Y-121485714D02*
X106378571Y-120914285D01*
X107378571Y-121271428D02*
X106092857Y-121271428D01*
X105950000Y-121200000D01*
X105878571Y-121057142D01*
X105878571Y-120914285D01*
X106378571Y-119414285D02*
X107378571Y-119057142D01*
X106378571Y-118700000D02*
X107378571Y-119057142D01*
X107735714Y-119200000D01*
X107807142Y-119271428D01*
X107878571Y-119414285D01*
X107378571Y-117914285D02*
X107307142Y-118057142D01*
X107235714Y-118128571D01*
X107092857Y-118200000D01*
X106664285Y-118200000D01*
X106521428Y-118128571D01*
X106450000Y-118057142D01*
X106378571Y-117914285D01*
X106378571Y-117700000D01*
X106450000Y-117557142D01*
X106521428Y-117485714D01*
X106664285Y-117414285D01*
X107092857Y-117414285D01*
X107235714Y-117485714D01*
X107307142Y-117557142D01*
X107378571Y-117700000D01*
X107378571Y-117914285D01*
X106378571Y-116128571D02*
X107378571Y-116128571D01*
X106378571Y-116771428D02*
X107164285Y-116771428D01*
X107307142Y-116700000D01*
X107378571Y-116557142D01*
X107378571Y-116342857D01*
X107307142Y-116200000D01*
X107235714Y-116128571D01*
X107378571Y-115414285D02*
X106378571Y-115414285D01*
X106664285Y-115414285D02*
X106521428Y-115342857D01*
X106450000Y-115271428D01*
X106378571Y-115128571D01*
X106378571Y-114985714D01*
X107378571Y-113128571D02*
X107307142Y-113271428D01*
X107235714Y-113342857D01*
X107092857Y-113414285D01*
X106664285Y-113414285D01*
X106521428Y-113342857D01*
X106450000Y-113271428D01*
X106378571Y-113128571D01*
X106378571Y-112914285D01*
X106450000Y-112771428D01*
X106521428Y-112700000D01*
X106664285Y-112628571D01*
X107092857Y-112628571D01*
X107235714Y-112700000D01*
X107307142Y-112771428D01*
X107378571Y-112914285D01*
X107378571Y-113128571D01*
X106378571Y-111342857D02*
X107378571Y-111342857D01*
X106378571Y-111985714D02*
X107164285Y-111985714D01*
X107307142Y-111914285D01*
X107378571Y-111771428D01*
X107378571Y-111557142D01*
X107307142Y-111414285D01*
X107235714Y-111342857D01*
X106378571Y-110842857D02*
X106378571Y-110271428D01*
X105878571Y-110628571D02*
X107164285Y-110628571D01*
X107307142Y-110557142D01*
X107378571Y-110414285D01*
X107378571Y-110271428D01*
X106378571Y-109985714D02*
X106378571Y-109414285D01*
X107378571Y-109771428D02*
X106092857Y-109771428D01*
X105950000Y-109700000D01*
X105878571Y-109557142D01*
X105878571Y-109414285D01*
X107378571Y-108914285D02*
X106378571Y-108914285D01*
X105878571Y-108914285D02*
X105950000Y-108985714D01*
X106021428Y-108914285D01*
X105950000Y-108842857D01*
X105878571Y-108914285D01*
X106021428Y-108914285D01*
X106378571Y-108414285D02*
X106378571Y-107842857D01*
X105878571Y-108200000D02*
X107164285Y-108200000D01*
X107307142Y-108128571D01*
X107378571Y-107985714D01*
X107378571Y-107842857D01*
X106378571Y-106414285D02*
X106378571Y-105842857D01*
X105878571Y-106200000D02*
X107164285Y-106200000D01*
X107307142Y-106128571D01*
X107378571Y-105985714D01*
X107378571Y-105842857D01*
X107378571Y-105128571D02*
X107307142Y-105271428D01*
X107235714Y-105342857D01*
X107092857Y-105414285D01*
X106664285Y-105414285D01*
X106521428Y-105342857D01*
X106450000Y-105271428D01*
X106378571Y-105128571D01*
X106378571Y-104914285D01*
X106450000Y-104771428D01*
X106521428Y-104700000D01*
X106664285Y-104628571D01*
X107092857Y-104628571D01*
X107235714Y-104700000D01*
X107307142Y-104771428D01*
X107378571Y-104914285D01*
X107378571Y-105128571D01*
X107378571Y-103342857D02*
X105878571Y-103342857D01*
X107307142Y-103342857D02*
X107378571Y-103485714D01*
X107378571Y-103771428D01*
X107307142Y-103914285D01*
X107235714Y-103985714D01*
X107092857Y-104057142D01*
X106664285Y-104057142D01*
X106521428Y-103985714D01*
X106450000Y-103914285D01*
X106378571Y-103771428D01*
X106378571Y-103485714D01*
X106450000Y-103342857D01*
X107378571Y-101985714D02*
X106592857Y-101985714D01*
X106450000Y-102057142D01*
X106378571Y-102200000D01*
X106378571Y-102485714D01*
X106450000Y-102628571D01*
X107307142Y-101985714D02*
X107378571Y-102128571D01*
X107378571Y-102485714D01*
X107307142Y-102628571D01*
X107164285Y-102700000D01*
X107021428Y-102700000D01*
X106878571Y-102628571D01*
X106807142Y-102485714D01*
X106807142Y-102128571D01*
X106735714Y-101985714D01*
X106378571Y-101414285D02*
X107378571Y-101057142D01*
X106378571Y-100700000D02*
X107378571Y-101057142D01*
X107735714Y-101200000D01*
X107807142Y-101271428D01*
X107878571Y-101414285D01*
X107235714Y-99914285D02*
X107307142Y-99842857D01*
X107378571Y-99914285D01*
X107307142Y-99985714D01*
X107235714Y-99914285D01*
X107378571Y-99914285D01*
X105950000Y-100200000D02*
X105878571Y-100057142D01*
X105878571Y-99700000D01*
X105950000Y-99557142D01*
X106092857Y-99485714D01*
X106235714Y-99485714D01*
X106378571Y-99557142D01*
X106450000Y-99628571D01*
X106521428Y-99771428D01*
X106592857Y-99842857D01*
X106735714Y-99914285D01*
X106807142Y-99914285D01*
X138521428Y-33428571D02*
X138807142Y-34428571D01*
X139092857Y-33714285D01*
X139378571Y-34428571D01*
X139664285Y-33428571D01*
X140807142Y-34357142D02*
X140664285Y-34428571D01*
X140378571Y-34428571D01*
X140235714Y-34357142D01*
X140164285Y-34214285D01*
X140164285Y-33642857D01*
X140235714Y-33500000D01*
X140378571Y-33428571D01*
X140664285Y-33428571D01*
X140807142Y-33500000D01*
X140878571Y-33642857D01*
X140878571Y-33785714D01*
X140164285Y-33928571D01*
X143307142Y-33428571D02*
X143307142Y-34642857D01*
X143235714Y-34785714D01*
X143164285Y-34857142D01*
X143021428Y-34928571D01*
X142807142Y-34928571D01*
X142664285Y-34857142D01*
X143307142Y-34357142D02*
X143164285Y-34428571D01*
X142878571Y-34428571D01*
X142735714Y-34357142D01*
X142664285Y-34285714D01*
X142592857Y-34142857D01*
X142592857Y-33714285D01*
X142664285Y-33571428D01*
X142735714Y-33500000D01*
X142878571Y-33428571D01*
X143164285Y-33428571D01*
X143307142Y-33500000D01*
X144235714Y-34428571D02*
X144092857Y-34357142D01*
X144021428Y-34285714D01*
X143950000Y-34142857D01*
X143950000Y-33714285D01*
X144021428Y-33571428D01*
X144092857Y-33500000D01*
X144235714Y-33428571D01*
X144450000Y-33428571D01*
X144592857Y-33500000D01*
X144664285Y-33571428D01*
X144735714Y-33714285D01*
X144735714Y-34142857D01*
X144664285Y-34285714D01*
X144592857Y-34357142D01*
X144450000Y-34428571D01*
X144235714Y-34428571D01*
X145164285Y-33428571D02*
X145735714Y-33428571D01*
X145378571Y-32928571D02*
X145378571Y-34214285D01*
X145450000Y-34357142D01*
X145592857Y-34428571D01*
X145735714Y-34428571D01*
X147378571Y-33428571D02*
X147378571Y-34428571D01*
X147378571Y-33571428D02*
X147450000Y-33500000D01*
X147592857Y-33428571D01*
X147807142Y-33428571D01*
X147950000Y-33500000D01*
X148021428Y-33642857D01*
X148021428Y-34428571D01*
X148950000Y-34428571D02*
X148807142Y-34357142D01*
X148735714Y-34285714D01*
X148664285Y-34142857D01*
X148664285Y-33714285D01*
X148735714Y-33571428D01*
X148807142Y-33500000D01*
X148950000Y-33428571D01*
X149164285Y-33428571D01*
X149307142Y-33500000D01*
X149378571Y-33571428D01*
X149450000Y-33714285D01*
X149450000Y-34142857D01*
X149378571Y-34285714D01*
X149307142Y-34357142D01*
X149164285Y-34428571D01*
X148950000Y-34428571D01*
X151235714Y-33428571D02*
X151235714Y-34428571D01*
X151235714Y-33571428D02*
X151307142Y-33500000D01*
X151450000Y-33428571D01*
X151664285Y-33428571D01*
X151807142Y-33500000D01*
X151878571Y-33642857D01*
X151878571Y-34428571D01*
X153235714Y-34428571D02*
X153235714Y-33642857D01*
X153164285Y-33500000D01*
X153021428Y-33428571D01*
X152735714Y-33428571D01*
X152592857Y-33500000D01*
X153235714Y-34357142D02*
X153092857Y-34428571D01*
X152735714Y-34428571D01*
X152592857Y-34357142D01*
X152521428Y-34214285D01*
X152521428Y-34071428D01*
X152592857Y-33928571D01*
X152735714Y-33857142D01*
X153092857Y-33857142D01*
X153235714Y-33785714D01*
X153950000Y-34428571D02*
X153950000Y-33428571D01*
X153950000Y-33571428D02*
X154021428Y-33500000D01*
X154164285Y-33428571D01*
X154378571Y-33428571D01*
X154521428Y-33500000D01*
X154592857Y-33642857D01*
X154592857Y-34428571D01*
X154592857Y-33642857D02*
X154664285Y-33500000D01*
X154807142Y-33428571D01*
X155021428Y-33428571D01*
X155164285Y-33500000D01*
X155235714Y-33642857D01*
X155235714Y-34428571D01*
X156521428Y-34357142D02*
X156378571Y-34428571D01*
X156092857Y-34428571D01*
X155950000Y-34357142D01*
X155878571Y-34214285D01*
X155878571Y-33642857D01*
X155950000Y-33500000D01*
X156092857Y-33428571D01*
X156378571Y-33428571D01*
X156521428Y-33500000D01*
X156592857Y-33642857D01*
X156592857Y-33785714D01*
X155878571Y-33928571D01*
X157164285Y-34357142D02*
X157307142Y-34428571D01*
X157592857Y-34428571D01*
X157735714Y-34357142D01*
X157807142Y-34214285D01*
X157807142Y-34142857D01*
X157735714Y-34000000D01*
X157592857Y-33928571D01*
X157378571Y-33928571D01*
X157235714Y-33857142D01*
X157164285Y-33714285D01*
X157164285Y-33642857D01*
X157235714Y-33500000D01*
X157378571Y-33428571D01*
X157592857Y-33428571D01*
X157735714Y-33500000D01*
X140092857Y-35978571D02*
X140092857Y-36978571D01*
X140092857Y-36121428D02*
X140164285Y-36050000D01*
X140307142Y-35978571D01*
X140521428Y-35978571D01*
X140664285Y-36050000D01*
X140735714Y-36192857D01*
X140735714Y-36978571D01*
X141664285Y-36978571D02*
X141521428Y-36907142D01*
X141450000Y-36835714D01*
X141378571Y-36692857D01*
X141378571Y-36264285D01*
X141450000Y-36121428D01*
X141521428Y-36050000D01*
X141664285Y-35978571D01*
X141878571Y-35978571D01*
X142021428Y-36050000D01*
X142092857Y-36121428D01*
X142164285Y-36264285D01*
X142164285Y-36692857D01*
X142092857Y-36835714D01*
X142021428Y-36907142D01*
X141878571Y-36978571D01*
X141664285Y-36978571D01*
X143950000Y-35978571D02*
X143950000Y-36978571D01*
X143950000Y-36121428D02*
X144021428Y-36050000D01*
X144164285Y-35978571D01*
X144378571Y-35978571D01*
X144521428Y-36050000D01*
X144592857Y-36192857D01*
X144592857Y-36978571D01*
X145950000Y-36978571D02*
X145950000Y-36192857D01*
X145878571Y-36050000D01*
X145735714Y-35978571D01*
X145450000Y-35978571D01*
X145307142Y-36050000D01*
X145950000Y-36907142D02*
X145807142Y-36978571D01*
X145450000Y-36978571D01*
X145307142Y-36907142D01*
X145235714Y-36764285D01*
X145235714Y-36621428D01*
X145307142Y-36478571D01*
X145450000Y-36407142D01*
X145807142Y-36407142D01*
X145950000Y-36335714D01*
X146664285Y-36978571D02*
X146664285Y-35978571D01*
X146664285Y-36121428D02*
X146735714Y-36050000D01*
X146878571Y-35978571D01*
X147092857Y-35978571D01*
X147235714Y-36050000D01*
X147307142Y-36192857D01*
X147307142Y-36978571D01*
X147307142Y-36192857D02*
X147378571Y-36050000D01*
X147521428Y-35978571D01*
X147735714Y-35978571D01*
X147878571Y-36050000D01*
X147950000Y-36192857D01*
X147950000Y-36978571D01*
X149235714Y-36907142D02*
X149092857Y-36978571D01*
X148807142Y-36978571D01*
X148664285Y-36907142D01*
X148592857Y-36764285D01*
X148592857Y-36192857D01*
X148664285Y-36050000D01*
X148807142Y-35978571D01*
X149092857Y-35978571D01*
X149235714Y-36050000D01*
X149307142Y-36192857D01*
X149307142Y-36335714D01*
X148592857Y-36478571D01*
X149878571Y-36907142D02*
X150021428Y-36978571D01*
X150307142Y-36978571D01*
X150450000Y-36907142D01*
X150521428Y-36764285D01*
X150521428Y-36692857D01*
X150450000Y-36550000D01*
X150307142Y-36478571D01*
X150092857Y-36478571D01*
X149950000Y-36407142D01*
X149878571Y-36264285D01*
X149878571Y-36192857D01*
X149950000Y-36050000D01*
X150092857Y-35978571D01*
X150307142Y-35978571D01*
X150450000Y-36050000D01*
X152307142Y-36978571D02*
X152307142Y-35978571D01*
X152307142Y-36121428D02*
X152378571Y-36050000D01*
X152521428Y-35978571D01*
X152735714Y-35978571D01*
X152878571Y-36050000D01*
X152950000Y-36192857D01*
X152950000Y-36978571D01*
X152950000Y-36192857D02*
X153021428Y-36050000D01*
X153164285Y-35978571D01*
X153378571Y-35978571D01*
X153521428Y-36050000D01*
X153592857Y-36192857D01*
X153592857Y-36978571D01*
X154950000Y-36978571D02*
X154950000Y-36192857D01*
X154878571Y-36050000D01*
X154735714Y-35978571D01*
X154450000Y-35978571D01*
X154307142Y-36050000D01*
X154950000Y-36907142D02*
X154807142Y-36978571D01*
X154450000Y-36978571D01*
X154307142Y-36907142D01*
X154235714Y-36764285D01*
X154235714Y-36621428D01*
X154307142Y-36478571D01*
X154450000Y-36407142D01*
X154807142Y-36407142D01*
X154950000Y-36335714D01*
X155664285Y-35978571D02*
X155664285Y-36978571D01*
X155664285Y-36121428D02*
X155735714Y-36050000D01*
X155878571Y-35978571D01*
X156092857Y-35978571D01*
X156235714Y-36050000D01*
X156307142Y-36192857D01*
X156307142Y-36978571D01*
X139700000Y-38528571D02*
X139985714Y-39528571D01*
X140271428Y-38814285D01*
X140557142Y-39528571D01*
X140842857Y-38528571D01*
X141985714Y-39457142D02*
X141842857Y-39528571D01*
X141557142Y-39528571D01*
X141414285Y-39457142D01*
X141342857Y-39314285D01*
X141342857Y-38742857D01*
X141414285Y-38600000D01*
X141557142Y-38528571D01*
X141842857Y-38528571D01*
X141985714Y-38600000D01*
X142057142Y-38742857D01*
X142057142Y-38885714D01*
X141342857Y-39028571D01*
X142771428Y-38028571D02*
X142628571Y-38314285D01*
X143414285Y-39528571D02*
X143414285Y-38528571D01*
X143414285Y-38814285D02*
X143485714Y-38671428D01*
X143557142Y-38600000D01*
X143700000Y-38528571D01*
X143842857Y-38528571D01*
X144914285Y-39457142D02*
X144771428Y-39528571D01*
X144485714Y-39528571D01*
X144342857Y-39457142D01*
X144271428Y-39314285D01*
X144271428Y-38742857D01*
X144342857Y-38600000D01*
X144485714Y-38528571D01*
X144771428Y-38528571D01*
X144914285Y-38600000D01*
X144985714Y-38742857D01*
X144985714Y-38885714D01*
X144271428Y-39028571D01*
X146771428Y-38528571D02*
X146771428Y-39528571D01*
X146771428Y-38671428D02*
X146842857Y-38600000D01*
X146985714Y-38528571D01*
X147200000Y-38528571D01*
X147342857Y-38600000D01*
X147414285Y-38742857D01*
X147414285Y-39528571D01*
X148771428Y-39528571D02*
X148771428Y-38742857D01*
X148700000Y-38600000D01*
X148557142Y-38528571D01*
X148271428Y-38528571D01*
X148128571Y-38600000D01*
X148771428Y-39457142D02*
X148628571Y-39528571D01*
X148271428Y-39528571D01*
X148128571Y-39457142D01*
X148057142Y-39314285D01*
X148057142Y-39171428D01*
X148128571Y-39028571D01*
X148271428Y-38957142D01*
X148628571Y-38957142D01*
X148771428Y-38885714D01*
X149485714Y-39528571D02*
X149485714Y-38528571D01*
X149485714Y-38671428D02*
X149557142Y-38600000D01*
X149700000Y-38528571D01*
X149914285Y-38528571D01*
X150057142Y-38600000D01*
X150128571Y-38742857D01*
X150128571Y-39528571D01*
X150128571Y-38742857D02*
X150200000Y-38600000D01*
X150342857Y-38528571D01*
X150557142Y-38528571D01*
X150700000Y-38600000D01*
X150771428Y-38742857D01*
X150771428Y-39528571D01*
X152057142Y-39457142D02*
X151914285Y-39528571D01*
X151628571Y-39528571D01*
X151485714Y-39457142D01*
X151414285Y-39314285D01*
X151414285Y-38742857D01*
X151485714Y-38600000D01*
X151628571Y-38528571D01*
X151914285Y-38528571D01*
X152057142Y-38600000D01*
X152128571Y-38742857D01*
X152128571Y-38885714D01*
X151414285Y-39028571D01*
X152985714Y-39528571D02*
X152842857Y-39457142D01*
X152771428Y-39314285D01*
X152771428Y-38028571D01*
X154128571Y-39457142D02*
X153985714Y-39528571D01*
X153700000Y-39528571D01*
X153557142Y-39457142D01*
X153485714Y-39314285D01*
X153485714Y-38742857D01*
X153557142Y-38600000D01*
X153700000Y-38528571D01*
X153985714Y-38528571D01*
X154128571Y-38600000D01*
X154200000Y-38742857D01*
X154200000Y-38885714D01*
X153485714Y-39028571D01*
X154771428Y-39457142D02*
X154914285Y-39528571D01*
X155200000Y-39528571D01*
X155342857Y-39457142D01*
X155414285Y-39314285D01*
X155414285Y-39242857D01*
X155342857Y-39100000D01*
X155200000Y-39028571D01*
X154985714Y-39028571D01*
X154842857Y-38957142D01*
X154771428Y-38814285D01*
X154771428Y-38742857D01*
X154842857Y-38600000D01*
X154985714Y-38528571D01*
X155200000Y-38528571D01*
X155342857Y-38600000D01*
X155985714Y-39457142D02*
X156128571Y-39528571D01*
X156414285Y-39528571D01*
X156557142Y-39457142D01*
X156628571Y-39314285D01*
X156628571Y-39242857D01*
X156557142Y-39100000D01*
X156414285Y-39028571D01*
X156200000Y-39028571D01*
X156057142Y-38957142D01*
X155985714Y-38814285D01*
X155985714Y-38742857D01*
X156057142Y-38600000D01*
X156200000Y-38528571D01*
X156414285Y-38528571D01*
X156557142Y-38600000D01*
X119692857Y-118328571D02*
X119692857Y-119828571D01*
X119692857Y-118400000D02*
X119835714Y-118328571D01*
X120121428Y-118328571D01*
X120264285Y-118400000D01*
X120335714Y-118471428D01*
X120407142Y-118614285D01*
X120407142Y-119042857D01*
X120335714Y-119185714D01*
X120264285Y-119257142D01*
X120121428Y-119328571D01*
X119835714Y-119328571D01*
X119692857Y-119257142D01*
X121050000Y-119328571D02*
X121050000Y-118328571D01*
X121050000Y-118614285D02*
X121121428Y-118471428D01*
X121192857Y-118400000D01*
X121335714Y-118328571D01*
X121478571Y-118328571D01*
X122550000Y-119257142D02*
X122407142Y-119328571D01*
X122121428Y-119328571D01*
X121978571Y-119257142D01*
X121907142Y-119114285D01*
X121907142Y-118542857D01*
X121978571Y-118400000D01*
X122121428Y-118328571D01*
X122407142Y-118328571D01*
X122550000Y-118400000D01*
X122621428Y-118542857D01*
X122621428Y-118685714D01*
X121907142Y-118828571D01*
X123478571Y-119328571D02*
X123335714Y-119257142D01*
X123264285Y-119185714D01*
X123192857Y-119042857D01*
X123192857Y-118614285D01*
X123264285Y-118471428D01*
X123335714Y-118400000D01*
X123478571Y-118328571D01*
X123692857Y-118328571D01*
X123835714Y-118400000D01*
X123907142Y-118471428D01*
X123978571Y-118614285D01*
X123978571Y-119042857D01*
X123907142Y-119185714D01*
X123835714Y-119257142D01*
X123692857Y-119328571D01*
X123478571Y-119328571D01*
X124621428Y-119328571D02*
X124621428Y-118328571D01*
X124621428Y-118614285D02*
X124692857Y-118471428D01*
X124764285Y-118400000D01*
X124907142Y-118328571D01*
X125050000Y-118328571D01*
X126192857Y-119328571D02*
X126192857Y-117828571D01*
X126192857Y-119257142D02*
X126050000Y-119328571D01*
X125764285Y-119328571D01*
X125621428Y-119257142D01*
X125550000Y-119185714D01*
X125478571Y-119042857D01*
X125478571Y-118614285D01*
X125550000Y-118471428D01*
X125621428Y-118400000D01*
X125764285Y-118328571D01*
X126050000Y-118328571D01*
X126192857Y-118400000D01*
X127478571Y-119257142D02*
X127335714Y-119328571D01*
X127050000Y-119328571D01*
X126907142Y-119257142D01*
X126835714Y-119114285D01*
X126835714Y-118542857D01*
X126907142Y-118400000D01*
X127050000Y-118328571D01*
X127335714Y-118328571D01*
X127478571Y-118400000D01*
X127550000Y-118542857D01*
X127550000Y-118685714D01*
X126835714Y-118828571D01*
X128192857Y-119328571D02*
X128192857Y-118328571D01*
X128192857Y-118614285D02*
X128264285Y-118471428D01*
X128335714Y-118400000D01*
X128478571Y-118328571D01*
X128621428Y-118328571D01*
X130264285Y-118328571D02*
X130264285Y-119328571D01*
X130264285Y-118471428D02*
X130335714Y-118400000D01*
X130478571Y-118328571D01*
X130692857Y-118328571D01*
X130835714Y-118400000D01*
X130907142Y-118542857D01*
X130907142Y-119328571D01*
X132192857Y-119257142D02*
X132050000Y-119328571D01*
X131764285Y-119328571D01*
X131621428Y-119257142D01*
X131550000Y-119114285D01*
X131550000Y-118542857D01*
X131621428Y-118400000D01*
X131764285Y-118328571D01*
X132050000Y-118328571D01*
X132192857Y-118400000D01*
X132264285Y-118542857D01*
X132264285Y-118685714D01*
X131550000Y-118828571D01*
X132764285Y-119328571D02*
X133550000Y-118328571D01*
X132764285Y-118328571D02*
X133550000Y-119328571D01*
X133978571Y-118328571D02*
X134335714Y-119328571D01*
X134692857Y-118328571D02*
X134335714Y-119328571D01*
X134192857Y-119685714D01*
X134121428Y-119757142D01*
X133978571Y-119828571D01*
X136264285Y-118328571D02*
X136621428Y-119328571D01*
X136978571Y-118328571D02*
X136621428Y-119328571D01*
X136478571Y-119685714D01*
X136407142Y-119757142D01*
X136264285Y-119828571D01*
X138121428Y-119257142D02*
X137978571Y-119328571D01*
X137692857Y-119328571D01*
X137550000Y-119257142D01*
X137478571Y-119114285D01*
X137478571Y-118542857D01*
X137550000Y-118400000D01*
X137692857Y-118328571D01*
X137978571Y-118328571D01*
X138121428Y-118400000D01*
X138192857Y-118542857D01*
X138192857Y-118685714D01*
X137478571Y-118828571D01*
X139478571Y-119328571D02*
X139478571Y-118542857D01*
X139407142Y-118400000D01*
X139264285Y-118328571D01*
X138978571Y-118328571D01*
X138835714Y-118400000D01*
X139478571Y-119257142D02*
X139335714Y-119328571D01*
X138978571Y-119328571D01*
X138835714Y-119257142D01*
X138764285Y-119114285D01*
X138764285Y-118971428D01*
X138835714Y-118828571D01*
X138978571Y-118757142D01*
X139335714Y-118757142D01*
X139478571Y-118685714D01*
X140192857Y-119328571D02*
X140192857Y-118328571D01*
X140192857Y-118614285D02*
X140264285Y-118471428D01*
X140335714Y-118400000D01*
X140478571Y-118328571D01*
X140621428Y-118328571D01*
X141192857Y-117828571D02*
X141050000Y-118114285D01*
X141764285Y-119257142D02*
X141907142Y-119328571D01*
X142192857Y-119328571D01*
X142335714Y-119257142D01*
X142407142Y-119114285D01*
X142407142Y-119042857D01*
X142335714Y-118900000D01*
X142192857Y-118828571D01*
X141978571Y-118828571D01*
X141835714Y-118757142D01*
X141764285Y-118614285D01*
X141764285Y-118542857D01*
X141835714Y-118400000D01*
X141978571Y-118328571D01*
X142192857Y-118328571D01*
X142335714Y-118400000D01*
X144192857Y-119328571D02*
X144192857Y-117828571D01*
X144192857Y-118400000D02*
X144335714Y-118328571D01*
X144621428Y-118328571D01*
X144764285Y-118400000D01*
X144835714Y-118471428D01*
X144907142Y-118614285D01*
X144907142Y-119042857D01*
X144835714Y-119185714D01*
X144764285Y-119257142D01*
X144621428Y-119328571D01*
X144335714Y-119328571D01*
X144192857Y-119257142D01*
X146192857Y-119328571D02*
X146192857Y-118542857D01*
X146121428Y-118400000D01*
X145978571Y-118328571D01*
X145692857Y-118328571D01*
X145550000Y-118400000D01*
X146192857Y-119257142D02*
X146050000Y-119328571D01*
X145692857Y-119328571D01*
X145550000Y-119257142D01*
X145478571Y-119114285D01*
X145478571Y-118971428D01*
X145550000Y-118828571D01*
X145692857Y-118757142D01*
X146050000Y-118757142D01*
X146192857Y-118685714D01*
X147550000Y-119328571D02*
X147550000Y-117828571D01*
X147550000Y-119257142D02*
X147407142Y-119328571D01*
X147121428Y-119328571D01*
X146978571Y-119257142D01*
X146907142Y-119185714D01*
X146835714Y-119042857D01*
X146835714Y-118614285D01*
X146907142Y-118471428D01*
X146978571Y-118400000D01*
X147121428Y-118328571D01*
X147407142Y-118328571D01*
X147550000Y-118400000D01*
X148907142Y-118328571D02*
X148907142Y-119542857D01*
X148835714Y-119685714D01*
X148764285Y-119757142D01*
X148621428Y-119828571D01*
X148407142Y-119828571D01*
X148264285Y-119757142D01*
X148907142Y-119257142D02*
X148764285Y-119328571D01*
X148478571Y-119328571D01*
X148335714Y-119257142D01*
X148264285Y-119185714D01*
X148192857Y-119042857D01*
X148192857Y-118614285D01*
X148264285Y-118471428D01*
X148335714Y-118400000D01*
X148478571Y-118328571D01*
X148764285Y-118328571D01*
X148907142Y-118400000D01*
X150192857Y-119257142D02*
X150050000Y-119328571D01*
X149764285Y-119328571D01*
X149621428Y-119257142D01*
X149550000Y-119114285D01*
X149550000Y-118542857D01*
X149621428Y-118400000D01*
X149764285Y-118328571D01*
X150050000Y-118328571D01*
X150192857Y-118400000D01*
X150264285Y-118542857D01*
X150264285Y-118685714D01*
X149550000Y-118828571D01*
X150907142Y-119185714D02*
X150978571Y-119257142D01*
X150907142Y-119328571D01*
X150835714Y-119257142D01*
X150907142Y-119185714D01*
X150907142Y-119328571D01*
X150907142Y-118757142D02*
X150835714Y-117900000D01*
X150907142Y-117828571D01*
X150978571Y-117900000D01*
X150907142Y-118757142D01*
X150907142Y-117828571D01*
X129050000Y-121878571D02*
X129050000Y-120878571D01*
X129050000Y-120378571D02*
X128978571Y-120450000D01*
X129050000Y-120521428D01*
X129121428Y-120450000D01*
X129050000Y-120378571D01*
X129050000Y-120521428D01*
X129550000Y-120878571D02*
X130121428Y-120878571D01*
X129764285Y-120378571D02*
X129764285Y-121664285D01*
X129835714Y-121807142D01*
X129978571Y-121878571D01*
X130121428Y-121878571D01*
X130692857Y-120378571D02*
X130550000Y-120664285D01*
X131264285Y-121807142D02*
X131407142Y-121878571D01*
X131692857Y-121878571D01*
X131835714Y-121807142D01*
X131907142Y-121664285D01*
X131907142Y-121592857D01*
X131835714Y-121450000D01*
X131692857Y-121378571D01*
X131478571Y-121378571D01*
X131335714Y-121307142D01*
X131264285Y-121164285D01*
X131264285Y-121092857D01*
X131335714Y-120950000D01*
X131478571Y-120878571D01*
X131692857Y-120878571D01*
X131835714Y-120950000D01*
X134335714Y-121878571D02*
X134335714Y-121092857D01*
X134264285Y-120950000D01*
X134121428Y-120878571D01*
X133835714Y-120878571D01*
X133692857Y-120950000D01*
X134335714Y-121807142D02*
X134192857Y-121878571D01*
X133835714Y-121878571D01*
X133692857Y-121807142D01*
X133621428Y-121664285D01*
X133621428Y-121521428D01*
X133692857Y-121378571D01*
X133835714Y-121307142D01*
X134192857Y-121307142D01*
X134335714Y-121235714D01*
X135050000Y-120878571D02*
X135050000Y-121878571D01*
X135050000Y-121021428D02*
X135121428Y-120950000D01*
X135264285Y-120878571D01*
X135478571Y-120878571D01*
X135621428Y-120950000D01*
X135692857Y-121092857D01*
X135692857Y-121878571D01*
X137550000Y-121878571D02*
X137550000Y-120378571D01*
X138407142Y-121878571D01*
X138407142Y-120378571D01*
X139621428Y-121092857D02*
X139121428Y-121092857D01*
X139121428Y-121878571D02*
X139121428Y-120378571D01*
X139835714Y-120378571D01*
X140192857Y-120378571D02*
X141050000Y-120378571D01*
X140621428Y-121878571D02*
X140621428Y-120378571D01*
X141550000Y-121735714D02*
X141621428Y-121807142D01*
X141550000Y-121878571D01*
X141478571Y-121807142D01*
X141550000Y-121735714D01*
X141550000Y-121878571D01*
X141550000Y-121307142D02*
X141478571Y-120450000D01*
X141550000Y-120378571D01*
X141621428Y-120450000D01*
X141550000Y-121307142D01*
X141550000Y-120378571D01*
X119978571Y-123428571D02*
X120264285Y-124428571D01*
X120550000Y-123714285D01*
X120835714Y-124428571D01*
X121121428Y-123428571D01*
X122335714Y-124428571D02*
X122335714Y-123642857D01*
X122264285Y-123500000D01*
X122121428Y-123428571D01*
X121835714Y-123428571D01*
X121692857Y-123500000D01*
X122335714Y-124357142D02*
X122192857Y-124428571D01*
X121835714Y-124428571D01*
X121692857Y-124357142D01*
X121621428Y-124214285D01*
X121621428Y-124071428D01*
X121692857Y-123928571D01*
X121835714Y-123857142D01*
X122192857Y-123857142D01*
X122335714Y-123785714D01*
X123050000Y-124428571D02*
X123050000Y-123428571D01*
X123050000Y-122928571D02*
X122978571Y-123000000D01*
X123050000Y-123071428D01*
X123121428Y-123000000D01*
X123050000Y-122928571D01*
X123050000Y-123071428D01*
X123550000Y-123428571D02*
X124121428Y-123428571D01*
X123764285Y-122928571D02*
X123764285Y-124214285D01*
X123835714Y-124357142D01*
X123978571Y-124428571D01*
X124121428Y-124428571D01*
X124692857Y-124357142D02*
X124692857Y-124428571D01*
X124621428Y-124571428D01*
X124550000Y-124642857D01*
X126335714Y-123428571D02*
X126621428Y-124428571D01*
X126907142Y-123714285D01*
X127192857Y-124428571D01*
X127478571Y-123428571D01*
X128050000Y-124428571D02*
X128050000Y-122928571D01*
X128692857Y-124428571D02*
X128692857Y-123642857D01*
X128621428Y-123500000D01*
X128478571Y-123428571D01*
X128264285Y-123428571D01*
X128121428Y-123500000D01*
X128050000Y-123571428D01*
X129978571Y-124357142D02*
X129835714Y-124428571D01*
X129550000Y-124428571D01*
X129407142Y-124357142D01*
X129335714Y-124214285D01*
X129335714Y-123642857D01*
X129407142Y-123500000D01*
X129550000Y-123428571D01*
X129835714Y-123428571D01*
X129978571Y-123500000D01*
X130050000Y-123642857D01*
X130050000Y-123785714D01*
X129335714Y-123928571D01*
X130692857Y-124428571D02*
X130692857Y-123428571D01*
X130692857Y-123714285D02*
X130764285Y-123571428D01*
X130835714Y-123500000D01*
X130978571Y-123428571D01*
X131121428Y-123428571D01*
X132192857Y-124357142D02*
X132050000Y-124428571D01*
X131764285Y-124428571D01*
X131621428Y-124357142D01*
X131550000Y-124214285D01*
X131550000Y-123642857D01*
X131621428Y-123500000D01*
X131764285Y-123428571D01*
X132050000Y-123428571D01*
X132192857Y-123500000D01*
X132264285Y-123642857D01*
X132264285Y-123785714D01*
X131550000Y-123928571D01*
X134692857Y-124428571D02*
X134692857Y-123642857D01*
X134621428Y-123500000D01*
X134478571Y-123428571D01*
X134192857Y-123428571D01*
X134050000Y-123500000D01*
X134692857Y-124357142D02*
X134550000Y-124428571D01*
X134192857Y-124428571D01*
X134050000Y-124357142D01*
X133978571Y-124214285D01*
X133978571Y-124071428D01*
X134050000Y-123928571D01*
X134192857Y-123857142D01*
X134550000Y-123857142D01*
X134692857Y-123785714D01*
X135407142Y-124428571D02*
X135407142Y-123428571D01*
X135407142Y-123714285D02*
X135478571Y-123571428D01*
X135550000Y-123500000D01*
X135692857Y-123428571D01*
X135835714Y-123428571D01*
X136907142Y-124357142D02*
X136764285Y-124428571D01*
X136478571Y-124428571D01*
X136335714Y-124357142D01*
X136264285Y-124214285D01*
X136264285Y-123642857D01*
X136335714Y-123500000D01*
X136478571Y-123428571D01*
X136764285Y-123428571D01*
X136907142Y-123500000D01*
X136978571Y-123642857D01*
X136978571Y-123785714D01*
X136264285Y-123928571D01*
X138621428Y-123428571D02*
X138978571Y-124428571D01*
X139335714Y-123428571D02*
X138978571Y-124428571D01*
X138835714Y-124785714D01*
X138764285Y-124857142D01*
X138621428Y-124928571D01*
X140121428Y-124428571D02*
X139978571Y-124357142D01*
X139907142Y-124285714D01*
X139835714Y-124142857D01*
X139835714Y-123714285D01*
X139907142Y-123571428D01*
X139978571Y-123500000D01*
X140121428Y-123428571D01*
X140335714Y-123428571D01*
X140478571Y-123500000D01*
X140550000Y-123571428D01*
X140621428Y-123714285D01*
X140621428Y-124142857D01*
X140550000Y-124285714D01*
X140478571Y-124357142D01*
X140335714Y-124428571D01*
X140121428Y-124428571D01*
X141907142Y-123428571D02*
X141907142Y-124428571D01*
X141264285Y-123428571D02*
X141264285Y-124214285D01*
X141335714Y-124357142D01*
X141478571Y-124428571D01*
X141692857Y-124428571D01*
X141835714Y-124357142D01*
X141907142Y-124285714D01*
X144407142Y-123428571D02*
X144407142Y-124642857D01*
X144335714Y-124785714D01*
X144264285Y-124857142D01*
X144121428Y-124928571D01*
X143907142Y-124928571D01*
X143764285Y-124857142D01*
X144407142Y-124357142D02*
X144264285Y-124428571D01*
X143978571Y-124428571D01*
X143835714Y-124357142D01*
X143764285Y-124285714D01*
X143692857Y-124142857D01*
X143692857Y-123714285D01*
X143764285Y-123571428D01*
X143835714Y-123500000D01*
X143978571Y-123428571D01*
X144264285Y-123428571D01*
X144407142Y-123500000D01*
X145335714Y-124428571D02*
X145192857Y-124357142D01*
X145121428Y-124285714D01*
X145050000Y-124142857D01*
X145050000Y-123714285D01*
X145121428Y-123571428D01*
X145192857Y-123500000D01*
X145335714Y-123428571D01*
X145550000Y-123428571D01*
X145692857Y-123500000D01*
X145764285Y-123571428D01*
X145835714Y-123714285D01*
X145835714Y-124142857D01*
X145764285Y-124285714D01*
X145692857Y-124357142D01*
X145550000Y-124428571D01*
X145335714Y-124428571D01*
X146478571Y-124428571D02*
X146478571Y-123428571D01*
X146478571Y-122928571D02*
X146407142Y-123000000D01*
X146478571Y-123071428D01*
X146550000Y-123000000D01*
X146478571Y-122928571D01*
X146478571Y-123071428D01*
X147192857Y-123428571D02*
X147192857Y-124428571D01*
X147192857Y-123571428D02*
X147264285Y-123500000D01*
X147407142Y-123428571D01*
X147621428Y-123428571D01*
X147764285Y-123500000D01*
X147835714Y-123642857D01*
X147835714Y-124428571D01*
X149192857Y-123428571D02*
X149192857Y-124642857D01*
X149121428Y-124785714D01*
X149050000Y-124857142D01*
X148907142Y-124928571D01*
X148692857Y-124928571D01*
X148550000Y-124857142D01*
X149192857Y-124357142D02*
X149050000Y-124428571D01*
X148764285Y-124428571D01*
X148621428Y-124357142D01*
X148550000Y-124285714D01*
X148478571Y-124142857D01*
X148478571Y-123714285D01*
X148550000Y-123571428D01*
X148621428Y-123500000D01*
X148764285Y-123428571D01*
X149050000Y-123428571D01*
X149192857Y-123500000D01*
X150121428Y-124285714D02*
X150192857Y-124357142D01*
X150121428Y-124428571D01*
X150050000Y-124357142D01*
X150121428Y-124285714D01*
X150121428Y-124428571D01*
X149835714Y-123000000D02*
X149978571Y-122928571D01*
X150335714Y-122928571D01*
X150478571Y-123000000D01*
X150550000Y-123142857D01*
X150550000Y-123285714D01*
X150478571Y-123428571D01*
X150407142Y-123500000D01*
X150264285Y-123571428D01*
X150192857Y-123642857D01*
X150121428Y-123785714D01*
X150121428Y-123857142D01*
X165235714Y-102532142D02*
X165092857Y-102603571D01*
X164807142Y-102603571D01*
X164664285Y-102532142D01*
X164592857Y-102389285D01*
X164592857Y-101817857D01*
X164664285Y-101675000D01*
X164807142Y-101603571D01*
X165092857Y-101603571D01*
X165235714Y-101675000D01*
X165307142Y-101817857D01*
X165307142Y-101960714D01*
X164592857Y-102103571D01*
X166164285Y-102603571D02*
X166021428Y-102532142D01*
X165950000Y-102389285D01*
X165950000Y-101103571D01*
X166950000Y-102603571D02*
X166807142Y-102532142D01*
X166735714Y-102460714D01*
X166664285Y-102317857D01*
X166664285Y-101889285D01*
X166735714Y-101746428D01*
X166807142Y-101675000D01*
X166950000Y-101603571D01*
X167164285Y-101603571D01*
X167307142Y-101675000D01*
X167378571Y-101746428D01*
X167450000Y-101889285D01*
X167450000Y-102317857D01*
X167378571Y-102460714D01*
X167307142Y-102532142D01*
X167164285Y-102603571D01*
X166950000Y-102603571D01*
X168092857Y-101603571D02*
X168092857Y-102603571D01*
X168092857Y-101746428D02*
X168164285Y-101675000D01*
X168307142Y-101603571D01*
X168521428Y-101603571D01*
X168664285Y-101675000D01*
X168735714Y-101817857D01*
X168735714Y-102603571D01*
X170592857Y-102603571D02*
X170592857Y-101603571D01*
X170592857Y-101746428D02*
X170664285Y-101675000D01*
X170807142Y-101603571D01*
X171021428Y-101603571D01*
X171164285Y-101675000D01*
X171235714Y-101817857D01*
X171235714Y-102603571D01*
X171235714Y-101817857D02*
X171307142Y-101675000D01*
X171450000Y-101603571D01*
X171664285Y-101603571D01*
X171807142Y-101675000D01*
X171878571Y-101817857D01*
X171878571Y-102603571D01*
X173235714Y-101603571D02*
X173235714Y-102603571D01*
X172592857Y-101603571D02*
X172592857Y-102389285D01*
X172664285Y-102532142D01*
X172807142Y-102603571D01*
X173021428Y-102603571D01*
X173164285Y-102532142D01*
X173235714Y-102460714D01*
X173878571Y-102532142D02*
X174021428Y-102603571D01*
X174307142Y-102603571D01*
X174450000Y-102532142D01*
X174521428Y-102389285D01*
X174521428Y-102317857D01*
X174450000Y-102175000D01*
X174307142Y-102103571D01*
X174092857Y-102103571D01*
X173950000Y-102032142D01*
X173878571Y-101889285D01*
X173878571Y-101817857D01*
X173950000Y-101675000D01*
X174092857Y-101603571D01*
X174307142Y-101603571D01*
X174450000Y-101675000D01*
X175164285Y-102603571D02*
X175164285Y-101103571D01*
X175307142Y-102032142D02*
X175735714Y-102603571D01*
X175735714Y-101603571D02*
X175164285Y-102175000D01*
X177521428Y-102603571D02*
X177521428Y-101603571D01*
X177521428Y-101103571D02*
X177450000Y-101175000D01*
X177521428Y-101246428D01*
X177592857Y-101175000D01*
X177521428Y-101103571D01*
X177521428Y-101246428D01*
X178164285Y-102532142D02*
X178307142Y-102603571D01*
X178592857Y-102603571D01*
X178735714Y-102532142D01*
X178807142Y-102389285D01*
X178807142Y-102317857D01*
X178735714Y-102175000D01*
X178592857Y-102103571D01*
X178378571Y-102103571D01*
X178235714Y-102032142D01*
X178164285Y-101889285D01*
X178164285Y-101817857D01*
X178235714Y-101675000D01*
X178378571Y-101603571D01*
X178592857Y-101603571D01*
X178735714Y-101675000D01*
X181235714Y-102603571D02*
X181235714Y-101817857D01*
X181164285Y-101675000D01*
X181021428Y-101603571D01*
X180735714Y-101603571D01*
X180592857Y-101675000D01*
X181235714Y-102532142D02*
X181092857Y-102603571D01*
X180735714Y-102603571D01*
X180592857Y-102532142D01*
X180521428Y-102389285D01*
X180521428Y-102246428D01*
X180592857Y-102103571D01*
X180735714Y-102032142D01*
X181092857Y-102032142D01*
X181235714Y-101960714D01*
X181950000Y-101603571D02*
X181950000Y-102603571D01*
X181950000Y-101746428D02*
X182021428Y-101675000D01*
X182164285Y-101603571D01*
X182378571Y-101603571D01*
X182521428Y-101675000D01*
X182592857Y-101817857D01*
X182592857Y-102603571D01*
X184450000Y-102603571D02*
X184450000Y-101603571D01*
X184450000Y-101103571D02*
X184378571Y-101175000D01*
X184450000Y-101246428D01*
X184521428Y-101175000D01*
X184450000Y-101103571D01*
X184450000Y-101246428D01*
X185807142Y-102603571D02*
X185807142Y-101103571D01*
X185807142Y-102532142D02*
X185664285Y-102603571D01*
X185378571Y-102603571D01*
X185235714Y-102532142D01*
X185164285Y-102460714D01*
X185092857Y-102317857D01*
X185092857Y-101889285D01*
X185164285Y-101746428D01*
X185235714Y-101675000D01*
X185378571Y-101603571D01*
X185664285Y-101603571D01*
X185807142Y-101675000D01*
X186521428Y-102603571D02*
X186521428Y-101603571D01*
X186521428Y-101103571D02*
X186450000Y-101175000D01*
X186521428Y-101246428D01*
X186592857Y-101175000D01*
X186521428Y-101103571D01*
X186521428Y-101246428D01*
X187450000Y-102603571D02*
X187307142Y-102532142D01*
X187235714Y-102460714D01*
X187164285Y-102317857D01*
X187164285Y-101889285D01*
X187235714Y-101746428D01*
X187307142Y-101675000D01*
X187450000Y-101603571D01*
X187664285Y-101603571D01*
X187807142Y-101675000D01*
X187878571Y-101746428D01*
X187950000Y-101889285D01*
X187950000Y-102317857D01*
X187878571Y-102460714D01*
X187807142Y-102532142D01*
X187664285Y-102603571D01*
X187450000Y-102603571D01*
X188378571Y-101603571D02*
X188950000Y-101603571D01*
X188592857Y-101103571D02*
X188592857Y-102389285D01*
X188664285Y-102532142D01*
X188807142Y-102603571D01*
X188950000Y-102603571D01*
X163235714Y-104153571D02*
X163807142Y-104153571D01*
X163450000Y-103653571D02*
X163450000Y-104939285D01*
X163521428Y-105082142D01*
X163664285Y-105153571D01*
X163807142Y-105153571D01*
X164307142Y-105153571D02*
X164307142Y-104153571D01*
X164307142Y-104439285D02*
X164378571Y-104296428D01*
X164450000Y-104225000D01*
X164592857Y-104153571D01*
X164735714Y-104153571D01*
X165878571Y-104153571D02*
X165878571Y-105153571D01*
X165235714Y-104153571D02*
X165235714Y-104939285D01*
X165307142Y-105082142D01*
X165450000Y-105153571D01*
X165664285Y-105153571D01*
X165807142Y-105082142D01*
X165878571Y-105010714D01*
X166521428Y-105082142D02*
X166664285Y-105153571D01*
X166950000Y-105153571D01*
X167092857Y-105082142D01*
X167164285Y-104939285D01*
X167164285Y-104867857D01*
X167092857Y-104725000D01*
X166950000Y-104653571D01*
X166735714Y-104653571D01*
X166592857Y-104582142D01*
X166521428Y-104439285D01*
X166521428Y-104367857D01*
X166592857Y-104225000D01*
X166735714Y-104153571D01*
X166950000Y-104153571D01*
X167092857Y-104225000D01*
X167592857Y-104153571D02*
X168164285Y-104153571D01*
X167807142Y-103653571D02*
X167807142Y-104939285D01*
X167878571Y-105082142D01*
X168021428Y-105153571D01*
X168164285Y-105153571D01*
X169807142Y-105153571D02*
X169807142Y-104153571D01*
X169807142Y-104296428D02*
X169878571Y-104225000D01*
X170021428Y-104153571D01*
X170235714Y-104153571D01*
X170378571Y-104225000D01*
X170450000Y-104367857D01*
X170450000Y-105153571D01*
X170450000Y-104367857D02*
X170521428Y-104225000D01*
X170664285Y-104153571D01*
X170878571Y-104153571D01*
X171021428Y-104225000D01*
X171092857Y-104367857D01*
X171092857Y-105153571D01*
X172378571Y-105082142D02*
X172235714Y-105153571D01*
X171950000Y-105153571D01*
X171807142Y-105082142D01*
X171735714Y-104939285D01*
X171735714Y-104367857D01*
X171807142Y-104225000D01*
X171950000Y-104153571D01*
X172235714Y-104153571D01*
X172378571Y-104225000D01*
X172450000Y-104367857D01*
X172450000Y-104510714D01*
X171735714Y-104653571D01*
X174235714Y-105153571D02*
X174235714Y-103653571D01*
X175950000Y-104153571D02*
X176235714Y-105153571D01*
X176521428Y-104439285D01*
X176807142Y-105153571D01*
X177092857Y-104153571D01*
X177878571Y-105153571D02*
X177735714Y-105082142D01*
X177664285Y-105010714D01*
X177592857Y-104867857D01*
X177592857Y-104439285D01*
X177664285Y-104296428D01*
X177735714Y-104225000D01*
X177878571Y-104153571D01*
X178092857Y-104153571D01*
X178235714Y-104225000D01*
X178307142Y-104296428D01*
X178378571Y-104439285D01*
X178378571Y-104867857D01*
X178307142Y-105010714D01*
X178235714Y-105082142D01*
X178092857Y-105153571D01*
X177878571Y-105153571D01*
X179021428Y-105153571D02*
X179021428Y-104153571D01*
X179021428Y-104439285D02*
X179092857Y-104296428D01*
X179164285Y-104225000D01*
X179307142Y-104153571D01*
X179450000Y-104153571D01*
X179950000Y-105153571D02*
X179950000Y-103653571D01*
X180092857Y-104582142D02*
X180521428Y-105153571D01*
X180521428Y-104153571D02*
X179950000Y-104725000D01*
X182092857Y-104153571D02*
X182664285Y-104153571D01*
X182307142Y-105153571D02*
X182307142Y-103867857D01*
X182378571Y-103725000D01*
X182521428Y-103653571D01*
X182664285Y-103653571D01*
X183378571Y-105153571D02*
X183235714Y-105082142D01*
X183164285Y-105010714D01*
X183092857Y-104867857D01*
X183092857Y-104439285D01*
X183164285Y-104296428D01*
X183235714Y-104225000D01*
X183378571Y-104153571D01*
X183592857Y-104153571D01*
X183735714Y-104225000D01*
X183807142Y-104296428D01*
X183878571Y-104439285D01*
X183878571Y-104867857D01*
X183807142Y-105010714D01*
X183735714Y-105082142D01*
X183592857Y-105153571D01*
X183378571Y-105153571D01*
X184521428Y-105153571D02*
X184521428Y-104153571D01*
X184521428Y-104439285D02*
X184592857Y-104296428D01*
X184664285Y-104225000D01*
X184807142Y-104153571D01*
X184950000Y-104153571D01*
X186592857Y-105153571D02*
X186592857Y-103653571D01*
X187235714Y-105153571D02*
X187235714Y-104367857D01*
X187164285Y-104225000D01*
X187021428Y-104153571D01*
X186807142Y-104153571D01*
X186664285Y-104225000D01*
X186592857Y-104296428D01*
X187950000Y-105153571D02*
X187950000Y-104153571D01*
X187950000Y-103653571D02*
X187878571Y-103725000D01*
X187950000Y-103796428D01*
X188021428Y-103725000D01*
X187950000Y-103653571D01*
X187950000Y-103796428D01*
X188664285Y-105153571D02*
X188664285Y-104153571D01*
X188664285Y-104296428D02*
X188735714Y-104225000D01*
X188878571Y-104153571D01*
X189092857Y-104153571D01*
X189235714Y-104225000D01*
X189307142Y-104367857D01*
X189307142Y-105153571D01*
X189307142Y-104367857D02*
X189378571Y-104225000D01*
X189521428Y-104153571D01*
X189735714Y-104153571D01*
X189878571Y-104225000D01*
X189950000Y-104367857D01*
X189950000Y-105153571D01*
X171507142Y-72203571D02*
X171364285Y-72132142D01*
X171292857Y-72060714D01*
X171221428Y-71917857D01*
X171221428Y-71489285D01*
X171292857Y-71346428D01*
X171364285Y-71275000D01*
X171507142Y-71203571D01*
X171721428Y-71203571D01*
X171864285Y-71275000D01*
X171935714Y-71346428D01*
X172007142Y-71489285D01*
X172007142Y-71917857D01*
X171935714Y-72060714D01*
X171864285Y-72132142D01*
X171721428Y-72203571D01*
X171507142Y-72203571D01*
X172864285Y-72203571D02*
X172721428Y-72132142D01*
X172650000Y-72060714D01*
X172578571Y-71917857D01*
X172578571Y-71489285D01*
X172650000Y-71346428D01*
X172721428Y-71275000D01*
X172864285Y-71203571D01*
X173078571Y-71203571D01*
X173221428Y-71275000D01*
X173292857Y-71346428D01*
X173364285Y-71489285D01*
X173364285Y-71917857D01*
X173292857Y-72060714D01*
X173221428Y-72132142D01*
X173078571Y-72203571D01*
X172864285Y-72203571D01*
X173792857Y-71203571D02*
X174364285Y-71203571D01*
X174007142Y-72203571D02*
X174007142Y-70917857D01*
X174078571Y-70775000D01*
X174221428Y-70703571D01*
X174364285Y-70703571D01*
X176007142Y-72203571D02*
X176007142Y-70703571D01*
X176150000Y-71632142D02*
X176578571Y-72203571D01*
X176578571Y-71203571D02*
X176007142Y-71775000D01*
X177221428Y-72203571D02*
X177221428Y-71203571D01*
X177221428Y-70703571D02*
X177150000Y-70775000D01*
X177221428Y-70846428D01*
X177292857Y-70775000D01*
X177221428Y-70703571D01*
X177221428Y-70846428D01*
X177935714Y-71203571D02*
X177935714Y-72203571D01*
X177935714Y-71346428D02*
X178007142Y-71275000D01*
X178150000Y-71203571D01*
X178364285Y-71203571D01*
X178507142Y-71275000D01*
X178578571Y-71417857D01*
X178578571Y-72203571D01*
X179935714Y-72203571D02*
X179935714Y-70703571D01*
X179935714Y-72132142D02*
X179792857Y-72203571D01*
X179507142Y-72203571D01*
X179364285Y-72132142D01*
X179292857Y-72060714D01*
X179221428Y-71917857D01*
X179221428Y-71489285D01*
X179292857Y-71346428D01*
X179364285Y-71275000D01*
X179507142Y-71203571D01*
X179792857Y-71203571D01*
X179935714Y-71275000D01*
X181292857Y-72203571D02*
X181292857Y-71417857D01*
X181221428Y-71275000D01*
X181078571Y-71203571D01*
X180792857Y-71203571D01*
X180650000Y-71275000D01*
X181292857Y-72132142D02*
X181150000Y-72203571D01*
X180792857Y-72203571D01*
X180650000Y-72132142D01*
X180578571Y-71989285D01*
X180578571Y-71846428D01*
X180650000Y-71703571D01*
X180792857Y-71632142D01*
X181150000Y-71632142D01*
X181292857Y-71560714D01*
X183792857Y-72132142D02*
X183650000Y-72203571D01*
X183364285Y-72203571D01*
X183221428Y-72132142D01*
X183150000Y-72060714D01*
X183078571Y-71917857D01*
X183078571Y-71489285D01*
X183150000Y-71346428D01*
X183221428Y-71275000D01*
X183364285Y-71203571D01*
X183650000Y-71203571D01*
X183792857Y-71275000D01*
X184435714Y-72203571D02*
X184435714Y-71203571D01*
X184435714Y-71489285D02*
X184507142Y-71346428D01*
X184578571Y-71275000D01*
X184721428Y-71203571D01*
X184864285Y-71203571D01*
X185364285Y-72203571D02*
X185364285Y-71203571D01*
X185364285Y-70703571D02*
X185292857Y-70775000D01*
X185364285Y-70846428D01*
X185435714Y-70775000D01*
X185364285Y-70703571D01*
X185364285Y-70846428D01*
X186078571Y-71203571D02*
X186078571Y-72203571D01*
X186078571Y-71346428D02*
X186150000Y-71275000D01*
X186292857Y-71203571D01*
X186507142Y-71203571D01*
X186650000Y-71275000D01*
X186721428Y-71417857D01*
X186721428Y-72203571D01*
X188078571Y-71203571D02*
X188078571Y-72417857D01*
X188007142Y-72560714D01*
X187935714Y-72632142D01*
X187792857Y-72703571D01*
X187578571Y-72703571D01*
X187435714Y-72632142D01*
X188078571Y-72132142D02*
X187935714Y-72203571D01*
X187650000Y-72203571D01*
X187507142Y-72132142D01*
X187435714Y-72060714D01*
X187364285Y-71917857D01*
X187364285Y-71489285D01*
X187435714Y-71346428D01*
X187507142Y-71275000D01*
X187650000Y-71203571D01*
X187935714Y-71203571D01*
X188078571Y-71275000D01*
X189364285Y-72132142D02*
X189221428Y-72203571D01*
X188935714Y-72203571D01*
X188792857Y-72132142D01*
X188721428Y-71989285D01*
X188721428Y-71417857D01*
X188792857Y-71275000D01*
X188935714Y-71203571D01*
X189221428Y-71203571D01*
X189364285Y-71275000D01*
X189435714Y-71417857D01*
X189435714Y-71560714D01*
X188721428Y-71703571D01*
X171828571Y-73753571D02*
X172400000Y-73753571D01*
X172042857Y-73253571D02*
X172042857Y-74539285D01*
X172114285Y-74682142D01*
X172257142Y-74753571D01*
X172400000Y-74753571D01*
X172900000Y-74753571D02*
X172900000Y-73253571D01*
X172900000Y-73825000D02*
X173042857Y-73753571D01*
X173328571Y-73753571D01*
X173471428Y-73825000D01*
X173542857Y-73896428D01*
X173614285Y-74039285D01*
X173614285Y-74467857D01*
X173542857Y-74610714D01*
X173471428Y-74682142D01*
X173328571Y-74753571D01*
X173042857Y-74753571D01*
X172900000Y-74682142D01*
X174257142Y-74753571D02*
X174257142Y-73253571D01*
X174900000Y-74753571D02*
X174900000Y-73967857D01*
X174828571Y-73825000D01*
X174685714Y-73753571D01*
X174471428Y-73753571D01*
X174328571Y-73825000D01*
X174257142Y-73896428D01*
X176542857Y-73753571D02*
X177114285Y-73753571D01*
X176757142Y-74753571D02*
X176757142Y-73467857D01*
X176828571Y-73325000D01*
X176971428Y-73253571D01*
X177114285Y-73253571D01*
X177614285Y-74753571D02*
X177614285Y-73753571D01*
X177614285Y-74039285D02*
X177685714Y-73896428D01*
X177757142Y-73825000D01*
X177900000Y-73753571D01*
X178042857Y-73753571D01*
X179471428Y-73753571D02*
X180042857Y-73753571D01*
X179685714Y-74753571D02*
X179685714Y-73467857D01*
X179757142Y-73325000D01*
X179900000Y-73253571D01*
X180042857Y-73253571D01*
X180542857Y-74753571D02*
X180542857Y-73753571D01*
X180542857Y-74039285D02*
X180614285Y-73896428D01*
X180685714Y-73825000D01*
X180828571Y-73753571D01*
X180971428Y-73753571D01*
X182614285Y-73753571D02*
X182614285Y-74753571D01*
X182614285Y-73896428D02*
X182685714Y-73825000D01*
X182828571Y-73753571D01*
X183042857Y-73753571D01*
X183185714Y-73825000D01*
X183257142Y-73967857D01*
X183257142Y-74753571D01*
X184185714Y-74753571D02*
X184042857Y-74682142D01*
X183971428Y-74610714D01*
X183900000Y-74467857D01*
X183900000Y-74039285D01*
X183971428Y-73896428D01*
X184042857Y-73825000D01*
X184185714Y-73753571D01*
X184400000Y-73753571D01*
X184542857Y-73825000D01*
X184614285Y-73896428D01*
X184685714Y-74039285D01*
X184685714Y-74467857D01*
X184614285Y-74610714D01*
X184542857Y-74682142D01*
X184400000Y-74753571D01*
X184185714Y-74753571D01*
X187114285Y-74682142D02*
X186971428Y-74753571D01*
X186685714Y-74753571D01*
X186542857Y-74682142D01*
X186471428Y-74610714D01*
X186400000Y-74467857D01*
X186400000Y-74039285D01*
X186471428Y-73896428D01*
X186542857Y-73825000D01*
X186685714Y-73753571D01*
X186971428Y-73753571D01*
X187114285Y-73825000D01*
X188400000Y-74753571D02*
X188400000Y-73967857D01*
X188328571Y-73825000D01*
X188185714Y-73753571D01*
X187900000Y-73753571D01*
X187757142Y-73825000D01*
X188400000Y-74682142D02*
X188257142Y-74753571D01*
X187900000Y-74753571D01*
X187757142Y-74682142D01*
X187685714Y-74539285D01*
X187685714Y-74396428D01*
X187757142Y-74253571D01*
X187900000Y-74182142D01*
X188257142Y-74182142D01*
X188400000Y-74110714D01*
X189114285Y-73753571D02*
X189114285Y-75253571D01*
X189114285Y-73825000D02*
X189257142Y-73753571D01*
X189542857Y-73753571D01*
X189685714Y-73825000D01*
X189757142Y-73896428D01*
X189828571Y-74039285D01*
X189828571Y-74467857D01*
X189757142Y-74610714D01*
X189685714Y-74682142D01*
X189542857Y-74753571D01*
X189257142Y-74753571D01*
X189114285Y-74682142D01*
D11*
X157794345Y-90114285D02*
X157246726Y-90304761D01*
X157080059Y-90495238D01*
X156937202Y-90876190D01*
X157008630Y-91447619D01*
X157246726Y-91828571D01*
X157461011Y-92019047D01*
X157865773Y-92209523D01*
X159389583Y-92209523D01*
X158889583Y-88209523D01*
X157556250Y-88209523D01*
X157199107Y-88400000D01*
X157032440Y-88590476D01*
X156889583Y-88971428D01*
X156937202Y-89352380D01*
X157175297Y-89733333D01*
X157389583Y-89923809D01*
X157794345Y-90114285D01*
X159127678Y-90114285D01*
X154889583Y-88209523D02*
X155294345Y-91447619D01*
X155151488Y-91828571D01*
X154984821Y-92019047D01*
X154627678Y-92209523D01*
X153865773Y-92209523D01*
X153461011Y-92019047D01*
X153246726Y-91828571D01*
X153008630Y-91447619D01*
X152603869Y-88209523D01*
X148627678Y-88400000D02*
X148984821Y-88209523D01*
X149556250Y-88209523D01*
X150151488Y-88400000D01*
X150580059Y-88780952D01*
X150818154Y-89161904D01*
X151103869Y-89923809D01*
X151175297Y-90495238D01*
X151080059Y-91257142D01*
X150937202Y-91638095D01*
X150603869Y-92019047D01*
X150056250Y-92209523D01*
X149675297Y-92209523D01*
X149080059Y-92019047D01*
X148865773Y-91828571D01*
X148699107Y-90495238D01*
X149461011Y-90495238D01*
X144627678Y-88400000D02*
X144984821Y-88209523D01*
X145556250Y-88209523D01*
X146151488Y-88400000D01*
X146580059Y-88780952D01*
X146818154Y-89161904D01*
X147103869Y-89923809D01*
X147175297Y-90495238D01*
X147080059Y-91257142D01*
X146937202Y-91638095D01*
X146603869Y-92019047D01*
X146056250Y-92209523D01*
X145675297Y-92209523D01*
X145080059Y-92019047D01*
X144865773Y-91828571D01*
X144699107Y-90495238D01*
X145461011Y-90495238D01*
X142199107Y-90304761D02*
X142437202Y-92209523D01*
X143270535Y-88209523D02*
X142199107Y-90304761D01*
X140603869Y-88209523D01*
X153794345Y-97114285D02*
X153246726Y-97304761D01*
X153080059Y-97495238D01*
X152937202Y-97876190D01*
X153008630Y-98447619D01*
X153246726Y-98828571D01*
X153461011Y-99019047D01*
X153865773Y-99209523D01*
X155389583Y-99209523D01*
X154889583Y-95209523D01*
X153556250Y-95209523D01*
X153199107Y-95400000D01*
X153032440Y-95590476D01*
X152889583Y-95971428D01*
X152937202Y-96352380D01*
X153175297Y-96733333D01*
X153389583Y-96923809D01*
X153794345Y-97114285D01*
X155127678Y-97114285D01*
X150127678Y-95209523D02*
X149365773Y-95209523D01*
X149008630Y-95400000D01*
X148675297Y-95780952D01*
X148580059Y-96542857D01*
X148746726Y-97876190D01*
X149032440Y-98638095D01*
X149461011Y-99019047D01*
X149865773Y-99209523D01*
X150627678Y-99209523D01*
X150984821Y-99019047D01*
X151318154Y-98638095D01*
X151413392Y-97876190D01*
X151246726Y-96542857D01*
X150961011Y-95780952D01*
X150532440Y-95400000D01*
X150127678Y-95209523D01*
X146199107Y-97304761D02*
X146437202Y-99209523D01*
X147270535Y-95209523D02*
X146199107Y-97304761D01*
X144603869Y-95209523D01*
D12*
G04 #@! TO.C,G\u002A\u002A\u002A*
G36*
X155113877Y-100861176D02*
G01*
X155083123Y-100883102D01*
X155051345Y-100915092D01*
X155033741Y-100937534D01*
X155007526Y-100972231D01*
X154977703Y-101008856D01*
X154967489Y-101020680D01*
X154931543Y-101061320D01*
X154938026Y-100994583D01*
X154938466Y-100937727D01*
X154927933Y-100894422D01*
X154907027Y-100866403D01*
X154890904Y-100858000D01*
X154876630Y-100854832D01*
X154864549Y-100856729D01*
X154853639Y-100865835D01*
X154842878Y-100884292D01*
X154831245Y-100914242D01*
X154817716Y-100957830D01*
X154801270Y-101017197D01*
X154784242Y-101081640D01*
X154755367Y-101180079D01*
X154721233Y-101272036D01*
X154679338Y-101363119D01*
X154627179Y-101458936D01*
X154583623Y-101531180D01*
X154551363Y-101581603D01*
X154526708Y-101616518D01*
X154507696Y-101638343D01*
X154492367Y-101649496D01*
X154485838Y-101651747D01*
X154458092Y-101658246D01*
X154440854Y-101662657D01*
X154424933Y-101671338D01*
X154398609Y-101690079D01*
X154366640Y-101715408D01*
X154354494Y-101725619D01*
X154319215Y-101755194D01*
X154285694Y-101782328D01*
X154259899Y-101802214D01*
X154255018Y-101805728D01*
X154226058Y-101821708D01*
X154181303Y-101841091D01*
X154124714Y-101862533D01*
X154060252Y-101884686D01*
X153991879Y-101906206D01*
X153923557Y-101925747D01*
X153859247Y-101941962D01*
X153843745Y-101945451D01*
X153790238Y-101957848D01*
X153738999Y-101970955D01*
X153696016Y-101983167D01*
X153668336Y-101992456D01*
X153633624Y-102002560D01*
X153585795Y-102011720D01*
X153532053Y-102018632D01*
X153515936Y-102020066D01*
X153467920Y-102025178D01*
X153424937Y-102032127D01*
X153393005Y-102039838D01*
X153382520Y-102043917D01*
X153344789Y-102059132D01*
X153293706Y-102074111D01*
X153236196Y-102087327D01*
X153179187Y-102097250D01*
X153129604Y-102102354D01*
X153116021Y-102102720D01*
X153057550Y-102107613D01*
X153011804Y-102122976D01*
X153011681Y-102123040D01*
X152984060Y-102135602D01*
X152962556Y-102142741D01*
X152957943Y-102143360D01*
X152948224Y-102133511D01*
X152944542Y-102125097D01*
X152802554Y-102125097D01*
X152801045Y-102142314D01*
X152789105Y-102152511D01*
X152765695Y-102159666D01*
X152749860Y-102163236D01*
X152715467Y-102171713D01*
X152687856Y-102180084D01*
X152676400Y-102184819D01*
X152651851Y-102192600D01*
X152623902Y-102193320D01*
X152600800Y-102187557D01*
X152591422Y-102178857D01*
X152593125Y-102166465D01*
X152606416Y-102147447D01*
X152632594Y-102120434D01*
X152672958Y-102084059D01*
X152716388Y-102047255D01*
X152761455Y-102009732D01*
X152778423Y-102053686D01*
X152794667Y-102096880D01*
X152802554Y-102125097D01*
X152944542Y-102125097D01*
X152935595Y-102104659D01*
X152920484Y-102057845D01*
X152915188Y-102039220D01*
X152901098Y-101990547D01*
X152886655Y-101944309D01*
X152873975Y-101907121D01*
X152868063Y-101891833D01*
X152845963Y-101854851D01*
X152819256Y-101834944D01*
X152790185Y-101833474D01*
X152779121Y-101837960D01*
X152754431Y-101853593D01*
X152718600Y-101879307D01*
X152675782Y-101911803D01*
X152630129Y-101947781D01*
X152585792Y-101983943D01*
X152546925Y-102016988D01*
X152517679Y-102043618D01*
X152508215Y-102053221D01*
X152481014Y-102079867D01*
X152454537Y-102101261D01*
X152440498Y-102109776D01*
X152419700Y-102125615D01*
X152397102Y-102152126D01*
X152387075Y-102167444D01*
X152372035Y-102191718D01*
X152358430Y-102205938D01*
X152339952Y-102213622D01*
X152310296Y-102218287D01*
X152292380Y-102220258D01*
X152259329Y-102222171D01*
X152210989Y-102222847D01*
X152152348Y-102222318D01*
X152088398Y-102220614D01*
X152041444Y-102218659D01*
X151976626Y-102215823D01*
X151913371Y-102213617D01*
X151856710Y-102212173D01*
X151811676Y-102211629D01*
X151789233Y-102211871D01*
X151734228Y-102209713D01*
X151670977Y-102201214D01*
X151631753Y-102193189D01*
X151516370Y-102168241D01*
X151419264Y-102152071D01*
X151340386Y-102144680D01*
X151279689Y-102146066D01*
X151237124Y-102156228D01*
X151212642Y-102175166D01*
X151208011Y-102184849D01*
X151193536Y-102201046D01*
X151179656Y-102204205D01*
X151152779Y-102203368D01*
X151108837Y-102201180D01*
X151051026Y-102197862D01*
X150982539Y-102193633D01*
X150906572Y-102188714D01*
X150826318Y-102183324D01*
X150744973Y-102177684D01*
X150665731Y-102172014D01*
X150591787Y-102166533D01*
X150526336Y-102161462D01*
X150472571Y-102157020D01*
X150433688Y-102153428D01*
X150419535Y-102151861D01*
X150365305Y-102146141D01*
X150325948Y-102144770D01*
X150296491Y-102147719D01*
X150282863Y-102151127D01*
X150248725Y-102157529D01*
X150224862Y-102151925D01*
X150201263Y-102146375D01*
X150166907Y-102146413D01*
X150155790Y-102147604D01*
X150117329Y-102149518D01*
X150085810Y-102141807D01*
X150068465Y-102133484D01*
X150034473Y-102120025D01*
X149999673Y-102113121D01*
X149993677Y-102112879D01*
X149949516Y-102107382D01*
X149892719Y-102092090D01*
X149827337Y-102068804D01*
X149757422Y-102039324D01*
X149687025Y-102005453D01*
X149620196Y-101968989D01*
X149560986Y-101931735D01*
X149523340Y-101903809D01*
X149481610Y-101872771D01*
X149450822Y-101856243D01*
X149431758Y-101854511D01*
X149425201Y-101867861D01*
X149425200Y-101867929D01*
X149433586Y-101883123D01*
X149456704Y-101905926D01*
X149491500Y-101934127D01*
X149534917Y-101965512D01*
X149583900Y-101997871D01*
X149635393Y-102028991D01*
X149684932Y-102055943D01*
X149716233Y-102072650D01*
X149737165Y-102085313D01*
X149744288Y-102091795D01*
X149743279Y-102092213D01*
X149727495Y-102089122D01*
X149697725Y-102080577D01*
X149659004Y-102068277D01*
X149616364Y-102053922D01*
X149574839Y-102039213D01*
X149539462Y-102025850D01*
X149515266Y-102015533D01*
X149513183Y-102014493D01*
X149485441Y-102005313D01*
X149464536Y-102007589D01*
X149455711Y-102020659D01*
X149455680Y-102021758D01*
X149464820Y-102032336D01*
X149489873Y-102047204D01*
X149527289Y-102064815D01*
X149573518Y-102083617D01*
X149625011Y-102102063D01*
X149676314Y-102118058D01*
X149717658Y-102130057D01*
X149752583Y-102140440D01*
X149775716Y-102147598D01*
X149780800Y-102149322D01*
X149776701Y-102154018D01*
X149755928Y-102163565D01*
X149721244Y-102176892D01*
X149675415Y-102192929D01*
X149628400Y-102208326D01*
X149573805Y-102226176D01*
X149504563Y-102249553D01*
X149425081Y-102276928D01*
X149339767Y-102306768D01*
X149253029Y-102337543D01*
X149169274Y-102367722D01*
X149166120Y-102368869D01*
X149071253Y-102403217D01*
X148990877Y-102431856D01*
X148920478Y-102456268D01*
X148855543Y-102477935D01*
X148791560Y-102498339D01*
X148724013Y-102518964D01*
X148648391Y-102541292D01*
X148586915Y-102559108D01*
X148549509Y-102572112D01*
X148516152Y-102589545D01*
X148483955Y-102613975D01*
X148450029Y-102647969D01*
X148411486Y-102694094D01*
X148365438Y-102754920D01*
X148363146Y-102758040D01*
X148334738Y-102795158D01*
X148296936Y-102842299D01*
X148253915Y-102894365D01*
X148209856Y-102946257D01*
X148192443Y-102966320D01*
X148107018Y-103065165D01*
X148010862Y-103178524D01*
X147905424Y-103304647D01*
X147792156Y-103441785D01*
X147672507Y-103588186D01*
X147547927Y-103742101D01*
X147493652Y-103809600D01*
X147408064Y-103916354D01*
X147333817Y-104009303D01*
X147269453Y-104090422D01*
X147213514Y-104161691D01*
X147164543Y-104225086D01*
X147121083Y-104282586D01*
X147081677Y-104336167D01*
X147044867Y-104387807D01*
X147009196Y-104439484D01*
X146973206Y-104493176D01*
X146935441Y-104550859D01*
X146894443Y-104614512D01*
X146855216Y-104675963D01*
X146819240Y-104727851D01*
X146785711Y-104764505D01*
X146750097Y-104789778D01*
X146707868Y-104807520D01*
X146696271Y-104811079D01*
X146655697Y-104827288D01*
X146627772Y-104847436D01*
X146614868Y-104869015D01*
X146619357Y-104889517D01*
X146620582Y-104891086D01*
X146637569Y-104900812D01*
X146647183Y-104900109D01*
X146659771Y-104900964D01*
X146661680Y-104905792D01*
X146670617Y-104913183D01*
X146692632Y-104916926D01*
X146697745Y-104917040D01*
X146750541Y-104907197D01*
X146804233Y-104878633D01*
X146857232Y-104832793D01*
X146907946Y-104771122D01*
X146954785Y-104695067D01*
X146966090Y-104673200D01*
X146979990Y-104649628D01*
X147003509Y-104614149D01*
X147033696Y-104570822D01*
X147067602Y-104523706D01*
X147102277Y-104476861D01*
X147134770Y-104434346D01*
X147162131Y-104400221D01*
X147176521Y-104383640D01*
X147193434Y-104364042D01*
X147216333Y-104335991D01*
X147230732Y-104317761D01*
X147250453Y-104292952D01*
X147278884Y-104258037D01*
X147316641Y-104212277D01*
X147364341Y-104154933D01*
X147422599Y-104085268D01*
X147492032Y-104002543D01*
X147573256Y-103906019D01*
X147666889Y-103794959D01*
X147692920Y-103764110D01*
X147745745Y-103701519D01*
X147795389Y-103642691D01*
X147840062Y-103589750D01*
X147877972Y-103544819D01*
X147907327Y-103510020D01*
X147926338Y-103487477D01*
X147931680Y-103481136D01*
X147965208Y-103441326D01*
X148006963Y-103391775D01*
X148055327Y-103334402D01*
X148108680Y-103271127D01*
X148165404Y-103203867D01*
X148223879Y-103134544D01*
X148282486Y-103065075D01*
X148339606Y-102997380D01*
X148393619Y-102933377D01*
X148442907Y-102874987D01*
X148485849Y-102824128D01*
X148520828Y-102782720D01*
X148546223Y-102752681D01*
X148560415Y-102735931D01*
X148561600Y-102734539D01*
X148597160Y-102692870D01*
X148876560Y-102615002D01*
X148992123Y-102582844D01*
X149090744Y-102555555D01*
X149175038Y-102532482D01*
X149247619Y-102512971D01*
X149311101Y-102496369D01*
X149368098Y-102482022D01*
X149421224Y-102469276D01*
X149473093Y-102457479D01*
X149526319Y-102445976D01*
X149583517Y-102434115D01*
X149647299Y-102421241D01*
X149668700Y-102416966D01*
X149738710Y-102402875D01*
X149802160Y-102389863D01*
X149856319Y-102378508D01*
X149898456Y-102369391D01*
X149925839Y-102363091D01*
X149935608Y-102360311D01*
X149947786Y-102363005D01*
X149968040Y-102375933D01*
X149974510Y-102381124D01*
X150021475Y-102408669D01*
X150083774Y-102426081D01*
X150110255Y-102429764D01*
X150120832Y-102432027D01*
X150122470Y-102436849D01*
X150113221Y-102445863D01*
X150091137Y-102460699D01*
X150054269Y-102482990D01*
X150028975Y-102497856D01*
X149962358Y-102537930D01*
X149888649Y-102584176D01*
X149810665Y-102634659D01*
X149731225Y-102687446D01*
X149653149Y-102740600D01*
X149579256Y-102792188D01*
X149512363Y-102840274D01*
X149455291Y-102882923D01*
X149410858Y-102918201D01*
X149389640Y-102936677D01*
X149329310Y-102994024D01*
X149264066Y-103058936D01*
X149192555Y-103132854D01*
X149113419Y-103217220D01*
X149025303Y-103313472D01*
X148926852Y-103423051D01*
X148845073Y-103515236D01*
X148814564Y-103549784D01*
X148774785Y-103594831D01*
X148729916Y-103645644D01*
X148684135Y-103697489D01*
X148661396Y-103723240D01*
X148615783Y-103775023D01*
X148567997Y-103829490D01*
X148522547Y-103881488D01*
X148483939Y-103925866D01*
X148469364Y-103942713D01*
X148431766Y-103986209D01*
X148386737Y-104038178D01*
X148340207Y-104091784D01*
X148301967Y-104135753D01*
X148187170Y-104270489D01*
X148074073Y-104408817D01*
X147964816Y-104547889D01*
X147861539Y-104684859D01*
X147766383Y-104816881D01*
X147681487Y-104941107D01*
X147608991Y-105054691D01*
X147600039Y-105069440D01*
X147561627Y-105130381D01*
X147523620Y-105185617D01*
X147488488Y-105231845D01*
X147458698Y-105265764D01*
X147442251Y-105280486D01*
X147421016Y-105297729D01*
X147411480Y-105306529D01*
X147396278Y-105317600D01*
X147368725Y-105334361D01*
X147334593Y-105353315D01*
X147332240Y-105354563D01*
X147295100Y-105376906D01*
X147257550Y-105403989D01*
X147223534Y-105432393D01*
X147196997Y-105458699D01*
X147181882Y-105479487D01*
X147179840Y-105486683D01*
X147188256Y-105498439D01*
X147198185Y-105502859D01*
X147214576Y-105515155D01*
X147227783Y-105537468D01*
X147242744Y-105560898D01*
X147260337Y-105565628D01*
X147276670Y-105551462D01*
X147282085Y-105540184D01*
X147297863Y-105512573D01*
X147325145Y-105485691D01*
X147366551Y-105457456D01*
X147424703Y-105425788D01*
X147428760Y-105423744D01*
X147483545Y-105393565D01*
X147528449Y-105361624D01*
X147568049Y-105323586D01*
X147606919Y-105275117D01*
X147645259Y-105218690D01*
X147714652Y-105114778D01*
X147795955Y-104999073D01*
X147886972Y-104874410D01*
X147985507Y-104743621D01*
X148089365Y-104609540D01*
X148196350Y-104475002D01*
X148304267Y-104342839D01*
X148410919Y-104215886D01*
X148514110Y-104096976D01*
X148516673Y-104094080D01*
X148554971Y-104050986D01*
X148600314Y-104000263D01*
X148650119Y-103944771D01*
X148701803Y-103887371D01*
X148752782Y-103830922D01*
X148800474Y-103778286D01*
X148842294Y-103732323D01*
X148875660Y-103695893D01*
X148897439Y-103672440D01*
X148934445Y-103632709D01*
X148975173Y-103588241D01*
X149009145Y-103550520D01*
X149042260Y-103513549D01*
X149076957Y-103475224D01*
X149105725Y-103443841D01*
X149105726Y-103443840D01*
X149131951Y-103414835D01*
X149167938Y-103374065D01*
X149210399Y-103325342D01*
X149256049Y-103272476D01*
X149301598Y-103219278D01*
X149343759Y-103169558D01*
X149379245Y-103127129D01*
X149385903Y-103119063D01*
X149413121Y-103088822D01*
X149442040Y-103063999D01*
X149478314Y-103040430D01*
X149527595Y-103013949D01*
X149530712Y-103012367D01*
X149571112Y-102991672D01*
X149604468Y-102974137D01*
X149626785Y-102961888D01*
X149633976Y-102957357D01*
X149645790Y-102950449D01*
X149669905Y-102938870D01*
X149687287Y-102931133D01*
X149711155Y-102919979D01*
X149749310Y-102901184D01*
X149798076Y-102876604D01*
X149853774Y-102848092D01*
X149912727Y-102817504D01*
X149917960Y-102814769D01*
X150003884Y-102769843D01*
X150074189Y-102733155D01*
X150131253Y-102703507D01*
X150177456Y-102679704D01*
X150215177Y-102660548D01*
X150246793Y-102644844D01*
X150274685Y-102631396D01*
X150301230Y-102619006D01*
X150328807Y-102606479D01*
X150358666Y-102593121D01*
X150411964Y-102568193D01*
X150452060Y-102545997D01*
X150484957Y-102522631D01*
X150516662Y-102494194D01*
X150527560Y-102483361D01*
X150588520Y-102421719D01*
X150867721Y-102425426D01*
X150940738Y-102426461D01*
X151006712Y-102427522D01*
X151063036Y-102428556D01*
X151107098Y-102429512D01*
X151136291Y-102430338D01*
X151148005Y-102430980D01*
X151148112Y-102431026D01*
X151147484Y-102441231D01*
X151144885Y-102467559D01*
X151140737Y-102505955D01*
X151135764Y-102549760D01*
X151130150Y-102600951D01*
X151123510Y-102665812D01*
X151116494Y-102737760D01*
X151109748Y-102810213D01*
X151106259Y-102849370D01*
X151095707Y-102954192D01*
X151082138Y-103058975D01*
X151064785Y-103168556D01*
X151042882Y-103287775D01*
X151015660Y-103421470D01*
X151015226Y-103423520D01*
X150997467Y-103505139D01*
X150982057Y-103568905D01*
X150967854Y-103616983D01*
X150953716Y-103651537D01*
X150938503Y-103674732D01*
X150921072Y-103688732D01*
X150900281Y-103695703D01*
X150874990Y-103697809D01*
X150870562Y-103697840D01*
X150825796Y-103702292D01*
X150797430Y-103715255D01*
X150786700Y-103736132D01*
X150786640Y-103738106D01*
X150790254Y-103749718D01*
X150804015Y-103757422D01*
X150832305Y-103763236D01*
X150845060Y-103765016D01*
X150888817Y-103769639D01*
X150934153Y-103772729D01*
X150953688Y-103773367D01*
X150985076Y-103772412D01*
X151004375Y-103765971D01*
X151019739Y-103750296D01*
X151027356Y-103739505D01*
X151048793Y-103699120D01*
X151071564Y-103639549D01*
X151095390Y-103561859D01*
X151119990Y-103467120D01*
X151145082Y-103356400D01*
X151170386Y-103230768D01*
X151191749Y-103113640D01*
X151204184Y-103041074D01*
X151214637Y-102976385D01*
X151223718Y-102914940D01*
X151232039Y-102852105D01*
X151240211Y-102783248D01*
X151248845Y-102703735D01*
X151258553Y-102608933D01*
X151259288Y-102601602D01*
X151265070Y-102546992D01*
X151270687Y-102499414D01*
X151275653Y-102462599D01*
X151279481Y-102440278D01*
X151280900Y-102435573D01*
X151293375Y-102431923D01*
X151323056Y-102430296D01*
X151366923Y-102430768D01*
X151405034Y-102432419D01*
X151532489Y-102441240D01*
X151643752Y-102452874D01*
X151737891Y-102467171D01*
X151813975Y-102483981D01*
X151871073Y-102503154D01*
X151884676Y-102509505D01*
X151912513Y-102521970D01*
X151934643Y-102528920D01*
X151939149Y-102529440D01*
X151954602Y-102536513D01*
X151976386Y-102554471D01*
X151987814Y-102566207D01*
X152014088Y-102591388D01*
X152049479Y-102620449D01*
X152082040Y-102644111D01*
X152181049Y-102717747D01*
X152277792Y-102802574D01*
X152368911Y-102894935D01*
X152451043Y-102991172D01*
X152520829Y-103087630D01*
X152574652Y-103180141D01*
X152594053Y-103213761D01*
X152615773Y-103244362D01*
X152623091Y-103252872D01*
X152637988Y-103272590D01*
X152646836Y-103296484D01*
X152651722Y-103331291D01*
X152653012Y-103349392D01*
X152657473Y-103405511D01*
X152664823Y-103476706D01*
X152674707Y-103560685D01*
X152686769Y-103655154D01*
X152700654Y-103757822D01*
X152716006Y-103866395D01*
X152732471Y-103978583D01*
X152749692Y-104092092D01*
X152767314Y-104204629D01*
X152784982Y-104313903D01*
X152802341Y-104417621D01*
X152819034Y-104513490D01*
X152834706Y-104599219D01*
X152849003Y-104672514D01*
X152861568Y-104731083D01*
X152872047Y-104772634D01*
X152875315Y-104783208D01*
X152902893Y-104855007D01*
X152934355Y-104913685D01*
X152974121Y-104966434D01*
X153013186Y-105007541D01*
X153047321Y-105043577D01*
X153066519Y-105070820D01*
X153072639Y-105091917D01*
X153072640Y-105092253D01*
X153079114Y-105119419D01*
X153089865Y-105136013D01*
X153102634Y-105146342D01*
X153113179Y-105143678D01*
X153128403Y-105126508D01*
X153146909Y-105109149D01*
X153159523Y-105109586D01*
X153175776Y-105113724D01*
X153183321Y-105110747D01*
X153193666Y-105094518D01*
X153187475Y-105071014D01*
X153166050Y-105042691D01*
X153131263Y-105012432D01*
X153096497Y-104982640D01*
X153063530Y-104948010D01*
X153046257Y-104925675D01*
X153022110Y-104879603D01*
X152998274Y-104814379D01*
X152975006Y-104731168D01*
X152952562Y-104631138D01*
X152931199Y-104515456D01*
X152911175Y-104385287D01*
X152892746Y-104241800D01*
X152889542Y-104213974D01*
X152884536Y-104170087D01*
X152877880Y-104112229D01*
X152870292Y-104046611D01*
X152862488Y-103979443D01*
X152858904Y-103948706D01*
X152849744Y-103867634D01*
X152843465Y-103804279D01*
X152840080Y-103756243D01*
X152839605Y-103721127D01*
X152842054Y-103696532D01*
X152847440Y-103680059D01*
X152855777Y-103669309D01*
X152860573Y-103665648D01*
X152882186Y-103651297D01*
X152861861Y-103611068D01*
X152839570Y-103557943D01*
X152820406Y-103492072D01*
X152803615Y-103410560D01*
X152794284Y-103352400D01*
X152784595Y-103295552D01*
X152772081Y-103234517D01*
X152758868Y-103179348D01*
X152753570Y-103160163D01*
X152739966Y-103116623D01*
X152726907Y-103085819D01*
X152710197Y-103060729D01*
X152685636Y-103034330D01*
X152668546Y-103017923D01*
X152633521Y-102982683D01*
X152593494Y-102939147D01*
X152555694Y-102895247D01*
X152546251Y-102883668D01*
X152520029Y-102853172D01*
X152482230Y-102812135D01*
X152436091Y-102763924D01*
X152384851Y-102711906D01*
X152331745Y-102659447D01*
X152315403Y-102643615D01*
X152146841Y-102481133D01*
X152190641Y-102475284D01*
X152216836Y-102472706D01*
X152258207Y-102469703D01*
X152309626Y-102466604D01*
X152365963Y-102463738D01*
X152381760Y-102463029D01*
X152529080Y-102456624D01*
X152630680Y-102501476D01*
X152745043Y-102549071D01*
X152845573Y-102584679D01*
X152896703Y-102599694D01*
X152920764Y-102607186D01*
X152934767Y-102617039D01*
X152943209Y-102635011D01*
X152950585Y-102666860D01*
X152951093Y-102669344D01*
X152958467Y-102703861D01*
X152969084Y-102751494D01*
X152981869Y-102807636D01*
X152995750Y-102867682D01*
X153009654Y-102927027D01*
X153022509Y-102981064D01*
X153033240Y-103025189D01*
X153040776Y-103054795D01*
X153041581Y-103057760D01*
X153084337Y-103207216D01*
X153125000Y-103337420D01*
X153163943Y-103449286D01*
X153201541Y-103543732D01*
X153238169Y-103621672D01*
X153274200Y-103684024D01*
X153310010Y-103731703D01*
X153322533Y-103745066D01*
X153364951Y-103781247D01*
X153409906Y-103809086D01*
X153454124Y-103827707D01*
X153494335Y-103836237D01*
X153527265Y-103833799D01*
X153549644Y-103819519D01*
X153555913Y-103807481D01*
X153554238Y-103785827D01*
X153540016Y-103768302D01*
X153519885Y-103761693D01*
X153512638Y-103763227D01*
X153494721Y-103763531D01*
X153469359Y-103757444D01*
X153469146Y-103757369D01*
X153443263Y-103740081D01*
X153412739Y-103706108D01*
X153379024Y-103658149D01*
X153343568Y-103598906D01*
X153307819Y-103531078D01*
X153273229Y-103457366D01*
X153241246Y-103380470D01*
X153213321Y-103303090D01*
X153197169Y-103250800D01*
X153181126Y-103192394D01*
X153164065Y-103126509D01*
X153146601Y-103055921D01*
X153129348Y-102983407D01*
X153112921Y-102911743D01*
X153097934Y-102843704D01*
X153085000Y-102782069D01*
X153074736Y-102729612D01*
X153067754Y-102689110D01*
X153064669Y-102663339D01*
X153065387Y-102655227D01*
X153076201Y-102656580D01*
X153101797Y-102663809D01*
X153137938Y-102675637D01*
X153166856Y-102685829D01*
X153281048Y-102729829D01*
X153401005Y-102781410D01*
X153528468Y-102841449D01*
X153665174Y-102910822D01*
X153812861Y-102990407D01*
X153973269Y-103081079D01*
X154114829Y-103163913D01*
X154169166Y-103196085D01*
X154217540Y-103224639D01*
X154257237Y-103247980D01*
X154285544Y-103264514D01*
X154299747Y-103272646D01*
X154300756Y-103273170D01*
X154306797Y-103283941D01*
X154317759Y-103311525D01*
X154332787Y-103353255D01*
X154351023Y-103406464D01*
X154371614Y-103468484D01*
X154393702Y-103536648D01*
X154416431Y-103608288D01*
X154438946Y-103680736D01*
X154460391Y-103751325D01*
X154479909Y-103817387D01*
X154496645Y-103876255D01*
X154508744Y-103921360D01*
X154527839Y-103995705D01*
X154549302Y-104079423D01*
X154570939Y-104163949D01*
X154590557Y-104240717D01*
X154597211Y-104266800D01*
X154630632Y-104391249D01*
X154666160Y-104511392D01*
X154702902Y-104624766D01*
X154739967Y-104728910D01*
X154776461Y-104821362D01*
X154811493Y-104899661D01*
X154844170Y-104961346D01*
X154855666Y-104979740D01*
X154871018Y-105004664D01*
X154880081Y-105022716D01*
X154881120Y-105026681D01*
X154889550Y-105042421D01*
X154911932Y-105064014D01*
X154943904Y-105088508D01*
X154981104Y-105112953D01*
X155019170Y-105134398D01*
X155053740Y-105149891D01*
X155070926Y-105155089D01*
X155104472Y-105156822D01*
X155133405Y-105148718D01*
X155151849Y-105133159D01*
X155155440Y-105120848D01*
X155146786Y-105099721D01*
X155126451Y-105087068D01*
X155105502Y-105087459D01*
X155079744Y-105086209D01*
X155049114Y-105067326D01*
X155014744Y-105032592D01*
X154977765Y-104983788D01*
X154939309Y-104922693D01*
X154900508Y-104851089D01*
X154862494Y-104770756D01*
X154826397Y-104683475D01*
X154797031Y-104602080D01*
X154777119Y-104539462D01*
X154755842Y-104466516D01*
X154733805Y-104385887D01*
X154711610Y-104300218D01*
X154689862Y-104212153D01*
X154669164Y-104124338D01*
X154650119Y-104039415D01*
X154633332Y-103960028D01*
X154619407Y-103888824D01*
X154608946Y-103828444D01*
X154602553Y-103781534D01*
X154600833Y-103750737D01*
X154601338Y-103744907D01*
X154602957Y-103714414D01*
X154595108Y-103696870D01*
X154591885Y-103694107D01*
X154584411Y-103681338D01*
X154572249Y-103652095D01*
X154556492Y-103609384D01*
X154538230Y-103556212D01*
X154518557Y-103495585D01*
X154510955Y-103471273D01*
X154483172Y-103383071D01*
X154459712Y-103312357D01*
X154439741Y-103256966D01*
X154422425Y-103214730D01*
X154406931Y-103183483D01*
X154392424Y-103161059D01*
X154390715Y-103158864D01*
X154377874Y-103149012D01*
X154349471Y-103131046D01*
X154307925Y-103106312D01*
X154255657Y-103076155D01*
X154195089Y-103041922D01*
X154128640Y-103004958D01*
X154058732Y-102966610D01*
X153987785Y-102928222D01*
X153918220Y-102891142D01*
X153852458Y-102856715D01*
X153792919Y-102826286D01*
X153788920Y-102824278D01*
X153696238Y-102778738D01*
X153606404Y-102736775D01*
X153514674Y-102696339D01*
X153416303Y-102655381D01*
X153306549Y-102611851D01*
X153221671Y-102579233D01*
X153164656Y-102557349D01*
X153114278Y-102537639D01*
X153073587Y-102521325D01*
X153045630Y-102509632D01*
X153033456Y-102503781D01*
X153033288Y-102503636D01*
X153030114Y-102491048D01*
X153027633Y-102463732D01*
X153026329Y-102427276D01*
X153026273Y-102422306D01*
X153026238Y-102383878D01*
X153028072Y-102361073D01*
X153033444Y-102349196D01*
X153044025Y-102343553D01*
X153055242Y-102340838D01*
X153081190Y-102332908D01*
X153115988Y-102319537D01*
X153139138Y-102309483D01*
X153174005Y-102296230D01*
X153215109Y-102286452D01*
X153267773Y-102279080D01*
X153310331Y-102275104D01*
X153377840Y-102267706D01*
X153435692Y-102257629D01*
X153478744Y-102245783D01*
X153481083Y-102244907D01*
X153493469Y-102240980D01*
X150246587Y-102240980D01*
X150244300Y-102250526D01*
X150231176Y-102263765D01*
X150213044Y-102261728D01*
X150198075Y-102246295D01*
X150192842Y-102225894D01*
X150205010Y-102215833D01*
X150218774Y-102214480D01*
X150240028Y-102221980D01*
X150246587Y-102240980D01*
X153493469Y-102240980D01*
X153525171Y-102230929D01*
X153580902Y-102217409D01*
X153640693Y-102205805D01*
X153696958Y-102197575D01*
X153742113Y-102194179D01*
X153744936Y-102194159D01*
X153781263Y-102189258D01*
X153818039Y-102177255D01*
X153822345Y-102175206D01*
X153849325Y-102164034D01*
X153891308Y-102149438D01*
X153943554Y-102132798D01*
X154001321Y-102115496D01*
X154059869Y-102098912D01*
X154114458Y-102084427D01*
X154160346Y-102073423D01*
X154192794Y-102067278D01*
X154192956Y-102067256D01*
X154228014Y-102059428D01*
X154251529Y-102044613D01*
X154264076Y-102029961D01*
X154288234Y-102005746D01*
X154325885Y-101977703D01*
X154371537Y-101949239D01*
X154419693Y-101923761D01*
X154464860Y-101904675D01*
X154467836Y-101903643D01*
X154500705Y-101888485D01*
X154526746Y-101869543D01*
X154533472Y-101861828D01*
X154547798Y-101843353D01*
X154571890Y-101814671D01*
X154601731Y-101780503D01*
X154619218Y-101760997D01*
X154663217Y-101710950D01*
X154698532Y-101666629D01*
X154729392Y-101621916D01*
X154760028Y-101570693D01*
X154793868Y-101508360D01*
X154818805Y-101463085D01*
X154842570Y-101425830D01*
X154868468Y-101393038D01*
X154899803Y-101361150D01*
X154939881Y-101326606D01*
X154992004Y-101285849D01*
X155020288Y-101264520D01*
X155062419Y-101232076D01*
X155099838Y-101201634D01*
X155128804Y-101176348D01*
X155145574Y-101159376D01*
X155146738Y-101157840D01*
X155167188Y-101118446D01*
X155170895Y-101083501D01*
X155162087Y-101061722D01*
X155148633Y-101048473D01*
X155132399Y-101049197D01*
X155120993Y-101053884D01*
X155102150Y-101060990D01*
X155096408Y-101058477D01*
X155104257Y-101045086D01*
X155126186Y-101019556D01*
X155140201Y-101004388D01*
X155163883Y-100975975D01*
X155180405Y-100950238D01*
X155185921Y-100934250D01*
X155180847Y-100907316D01*
X155168328Y-100880160D01*
X155152415Y-100859790D01*
X155138968Y-100853040D01*
X155113877Y-100861176D01*
G37*
X155113877Y-100861176D02*
X155083123Y-100883102D01*
X155051345Y-100915092D01*
X155033741Y-100937534D01*
X155007526Y-100972231D01*
X154977703Y-101008856D01*
X154967489Y-101020680D01*
X154931543Y-101061320D01*
X154938026Y-100994583D01*
X154938466Y-100937727D01*
X154927933Y-100894422D01*
X154907027Y-100866403D01*
X154890904Y-100858000D01*
X154876630Y-100854832D01*
X154864549Y-100856729D01*
X154853639Y-100865835D01*
X154842878Y-100884292D01*
X154831245Y-100914242D01*
X154817716Y-100957830D01*
X154801270Y-101017197D01*
X154784242Y-101081640D01*
X154755367Y-101180079D01*
X154721233Y-101272036D01*
X154679338Y-101363119D01*
X154627179Y-101458936D01*
X154583623Y-101531180D01*
X154551363Y-101581603D01*
X154526708Y-101616518D01*
X154507696Y-101638343D01*
X154492367Y-101649496D01*
X154485838Y-101651747D01*
X154458092Y-101658246D01*
X154440854Y-101662657D01*
X154424933Y-101671338D01*
X154398609Y-101690079D01*
X154366640Y-101715408D01*
X154354494Y-101725619D01*
X154319215Y-101755194D01*
X154285694Y-101782328D01*
X154259899Y-101802214D01*
X154255018Y-101805728D01*
X154226058Y-101821708D01*
X154181303Y-101841091D01*
X154124714Y-101862533D01*
X154060252Y-101884686D01*
X153991879Y-101906206D01*
X153923557Y-101925747D01*
X153859247Y-101941962D01*
X153843745Y-101945451D01*
X153790238Y-101957848D01*
X153738999Y-101970955D01*
X153696016Y-101983167D01*
X153668336Y-101992456D01*
X153633624Y-102002560D01*
X153585795Y-102011720D01*
X153532053Y-102018632D01*
X153515936Y-102020066D01*
X153467920Y-102025178D01*
X153424937Y-102032127D01*
X153393005Y-102039838D01*
X153382520Y-102043917D01*
X153344789Y-102059132D01*
X153293706Y-102074111D01*
X153236196Y-102087327D01*
X153179187Y-102097250D01*
X153129604Y-102102354D01*
X153116021Y-102102720D01*
X153057550Y-102107613D01*
X153011804Y-102122976D01*
X153011681Y-102123040D01*
X152984060Y-102135602D01*
X152962556Y-102142741D01*
X152957943Y-102143360D01*
X152948224Y-102133511D01*
X152944542Y-102125097D01*
X152802554Y-102125097D01*
X152801045Y-102142314D01*
X152789105Y-102152511D01*
X152765695Y-102159666D01*
X152749860Y-102163236D01*
X152715467Y-102171713D01*
X152687856Y-102180084D01*
X152676400Y-102184819D01*
X152651851Y-102192600D01*
X152623902Y-102193320D01*
X152600800Y-102187557D01*
X152591422Y-102178857D01*
X152593125Y-102166465D01*
X152606416Y-102147447D01*
X152632594Y-102120434D01*
X152672958Y-102084059D01*
X152716388Y-102047255D01*
X152761455Y-102009732D01*
X152778423Y-102053686D01*
X152794667Y-102096880D01*
X152802554Y-102125097D01*
X152944542Y-102125097D01*
X152935595Y-102104659D01*
X152920484Y-102057845D01*
X152915188Y-102039220D01*
X152901098Y-101990547D01*
X152886655Y-101944309D01*
X152873975Y-101907121D01*
X152868063Y-101891833D01*
X152845963Y-101854851D01*
X152819256Y-101834944D01*
X152790185Y-101833474D01*
X152779121Y-101837960D01*
X152754431Y-101853593D01*
X152718600Y-101879307D01*
X152675782Y-101911803D01*
X152630129Y-101947781D01*
X152585792Y-101983943D01*
X152546925Y-102016988D01*
X152517679Y-102043618D01*
X152508215Y-102053221D01*
X152481014Y-102079867D01*
X152454537Y-102101261D01*
X152440498Y-102109776D01*
X152419700Y-102125615D01*
X152397102Y-102152126D01*
X152387075Y-102167444D01*
X152372035Y-102191718D01*
X152358430Y-102205938D01*
X152339952Y-102213622D01*
X152310296Y-102218287D01*
X152292380Y-102220258D01*
X152259329Y-102222171D01*
X152210989Y-102222847D01*
X152152348Y-102222318D01*
X152088398Y-102220614D01*
X152041444Y-102218659D01*
X151976626Y-102215823D01*
X151913371Y-102213617D01*
X151856710Y-102212173D01*
X151811676Y-102211629D01*
X151789233Y-102211871D01*
X151734228Y-102209713D01*
X151670977Y-102201214D01*
X151631753Y-102193189D01*
X151516370Y-102168241D01*
X151419264Y-102152071D01*
X151340386Y-102144680D01*
X151279689Y-102146066D01*
X151237124Y-102156228D01*
X151212642Y-102175166D01*
X151208011Y-102184849D01*
X151193536Y-102201046D01*
X151179656Y-102204205D01*
X151152779Y-102203368D01*
X151108837Y-102201180D01*
X151051026Y-102197862D01*
X150982539Y-102193633D01*
X150906572Y-102188714D01*
X150826318Y-102183324D01*
X150744973Y-102177684D01*
X150665731Y-102172014D01*
X150591787Y-102166533D01*
X150526336Y-102161462D01*
X150472571Y-102157020D01*
X150433688Y-102153428D01*
X150419535Y-102151861D01*
X150365305Y-102146141D01*
X150325948Y-102144770D01*
X150296491Y-102147719D01*
X150282863Y-102151127D01*
X150248725Y-102157529D01*
X150224862Y-102151925D01*
X150201263Y-102146375D01*
X150166907Y-102146413D01*
X150155790Y-102147604D01*
X150117329Y-102149518D01*
X150085810Y-102141807D01*
X150068465Y-102133484D01*
X150034473Y-102120025D01*
X149999673Y-102113121D01*
X149993677Y-102112879D01*
X149949516Y-102107382D01*
X149892719Y-102092090D01*
X149827337Y-102068804D01*
X149757422Y-102039324D01*
X149687025Y-102005453D01*
X149620196Y-101968989D01*
X149560986Y-101931735D01*
X149523340Y-101903809D01*
X149481610Y-101872771D01*
X149450822Y-101856243D01*
X149431758Y-101854511D01*
X149425201Y-101867861D01*
X149425200Y-101867929D01*
X149433586Y-101883123D01*
X149456704Y-101905926D01*
X149491500Y-101934127D01*
X149534917Y-101965512D01*
X149583900Y-101997871D01*
X149635393Y-102028991D01*
X149684932Y-102055943D01*
X149716233Y-102072650D01*
X149737165Y-102085313D01*
X149744288Y-102091795D01*
X149743279Y-102092213D01*
X149727495Y-102089122D01*
X149697725Y-102080577D01*
X149659004Y-102068277D01*
X149616364Y-102053922D01*
X149574839Y-102039213D01*
X149539462Y-102025850D01*
X149515266Y-102015533D01*
X149513183Y-102014493D01*
X149485441Y-102005313D01*
X149464536Y-102007589D01*
X149455711Y-102020659D01*
X149455680Y-102021758D01*
X149464820Y-102032336D01*
X149489873Y-102047204D01*
X149527289Y-102064815D01*
X149573518Y-102083617D01*
X149625011Y-102102063D01*
X149676314Y-102118058D01*
X149717658Y-102130057D01*
X149752583Y-102140440D01*
X149775716Y-102147598D01*
X149780800Y-102149322D01*
X149776701Y-102154018D01*
X149755928Y-102163565D01*
X149721244Y-102176892D01*
X149675415Y-102192929D01*
X149628400Y-102208326D01*
X149573805Y-102226176D01*
X149504563Y-102249553D01*
X149425081Y-102276928D01*
X149339767Y-102306768D01*
X149253029Y-102337543D01*
X149169274Y-102367722D01*
X149166120Y-102368869D01*
X149071253Y-102403217D01*
X148990877Y-102431856D01*
X148920478Y-102456268D01*
X148855543Y-102477935D01*
X148791560Y-102498339D01*
X148724013Y-102518964D01*
X148648391Y-102541292D01*
X148586915Y-102559108D01*
X148549509Y-102572112D01*
X148516152Y-102589545D01*
X148483955Y-102613975D01*
X148450029Y-102647969D01*
X148411486Y-102694094D01*
X148365438Y-102754920D01*
X148363146Y-102758040D01*
X148334738Y-102795158D01*
X148296936Y-102842299D01*
X148253915Y-102894365D01*
X148209856Y-102946257D01*
X148192443Y-102966320D01*
X148107018Y-103065165D01*
X148010862Y-103178524D01*
X147905424Y-103304647D01*
X147792156Y-103441785D01*
X147672507Y-103588186D01*
X147547927Y-103742101D01*
X147493652Y-103809600D01*
X147408064Y-103916354D01*
X147333817Y-104009303D01*
X147269453Y-104090422D01*
X147213514Y-104161691D01*
X147164543Y-104225086D01*
X147121083Y-104282586D01*
X147081677Y-104336167D01*
X147044867Y-104387807D01*
X147009196Y-104439484D01*
X146973206Y-104493176D01*
X146935441Y-104550859D01*
X146894443Y-104614512D01*
X146855216Y-104675963D01*
X146819240Y-104727851D01*
X146785711Y-104764505D01*
X146750097Y-104789778D01*
X146707868Y-104807520D01*
X146696271Y-104811079D01*
X146655697Y-104827288D01*
X146627772Y-104847436D01*
X146614868Y-104869015D01*
X146619357Y-104889517D01*
X146620582Y-104891086D01*
X146637569Y-104900812D01*
X146647183Y-104900109D01*
X146659771Y-104900964D01*
X146661680Y-104905792D01*
X146670617Y-104913183D01*
X146692632Y-104916926D01*
X146697745Y-104917040D01*
X146750541Y-104907197D01*
X146804233Y-104878633D01*
X146857232Y-104832793D01*
X146907946Y-104771122D01*
X146954785Y-104695067D01*
X146966090Y-104673200D01*
X146979990Y-104649628D01*
X147003509Y-104614149D01*
X147033696Y-104570822D01*
X147067602Y-104523706D01*
X147102277Y-104476861D01*
X147134770Y-104434346D01*
X147162131Y-104400221D01*
X147176521Y-104383640D01*
X147193434Y-104364042D01*
X147216333Y-104335991D01*
X147230732Y-104317761D01*
X147250453Y-104292952D01*
X147278884Y-104258037D01*
X147316641Y-104212277D01*
X147364341Y-104154933D01*
X147422599Y-104085268D01*
X147492032Y-104002543D01*
X147573256Y-103906019D01*
X147666889Y-103794959D01*
X147692920Y-103764110D01*
X147745745Y-103701519D01*
X147795389Y-103642691D01*
X147840062Y-103589750D01*
X147877972Y-103544819D01*
X147907327Y-103510020D01*
X147926338Y-103487477D01*
X147931680Y-103481136D01*
X147965208Y-103441326D01*
X148006963Y-103391775D01*
X148055327Y-103334402D01*
X148108680Y-103271127D01*
X148165404Y-103203867D01*
X148223879Y-103134544D01*
X148282486Y-103065075D01*
X148339606Y-102997380D01*
X148393619Y-102933377D01*
X148442907Y-102874987D01*
X148485849Y-102824128D01*
X148520828Y-102782720D01*
X148546223Y-102752681D01*
X148560415Y-102735931D01*
X148561600Y-102734539D01*
X148597160Y-102692870D01*
X148876560Y-102615002D01*
X148992123Y-102582844D01*
X149090744Y-102555555D01*
X149175038Y-102532482D01*
X149247619Y-102512971D01*
X149311101Y-102496369D01*
X149368098Y-102482022D01*
X149421224Y-102469276D01*
X149473093Y-102457479D01*
X149526319Y-102445976D01*
X149583517Y-102434115D01*
X149647299Y-102421241D01*
X149668700Y-102416966D01*
X149738710Y-102402875D01*
X149802160Y-102389863D01*
X149856319Y-102378508D01*
X149898456Y-102369391D01*
X149925839Y-102363091D01*
X149935608Y-102360311D01*
X149947786Y-102363005D01*
X149968040Y-102375933D01*
X149974510Y-102381124D01*
X150021475Y-102408669D01*
X150083774Y-102426081D01*
X150110255Y-102429764D01*
X150120832Y-102432027D01*
X150122470Y-102436849D01*
X150113221Y-102445863D01*
X150091137Y-102460699D01*
X150054269Y-102482990D01*
X150028975Y-102497856D01*
X149962358Y-102537930D01*
X149888649Y-102584176D01*
X149810665Y-102634659D01*
X149731225Y-102687446D01*
X149653149Y-102740600D01*
X149579256Y-102792188D01*
X149512363Y-102840274D01*
X149455291Y-102882923D01*
X149410858Y-102918201D01*
X149389640Y-102936677D01*
X149329310Y-102994024D01*
X149264066Y-103058936D01*
X149192555Y-103132854D01*
X149113419Y-103217220D01*
X149025303Y-103313472D01*
X148926852Y-103423051D01*
X148845073Y-103515236D01*
X148814564Y-103549784D01*
X148774785Y-103594831D01*
X148729916Y-103645644D01*
X148684135Y-103697489D01*
X148661396Y-103723240D01*
X148615783Y-103775023D01*
X148567997Y-103829490D01*
X148522547Y-103881488D01*
X148483939Y-103925866D01*
X148469364Y-103942713D01*
X148431766Y-103986209D01*
X148386737Y-104038178D01*
X148340207Y-104091784D01*
X148301967Y-104135753D01*
X148187170Y-104270489D01*
X148074073Y-104408817D01*
X147964816Y-104547889D01*
X147861539Y-104684859D01*
X147766383Y-104816881D01*
X147681487Y-104941107D01*
X147608991Y-105054691D01*
X147600039Y-105069440D01*
X147561627Y-105130381D01*
X147523620Y-105185617D01*
X147488488Y-105231845D01*
X147458698Y-105265764D01*
X147442251Y-105280486D01*
X147421016Y-105297729D01*
X147411480Y-105306529D01*
X147396278Y-105317600D01*
X147368725Y-105334361D01*
X147334593Y-105353315D01*
X147332240Y-105354563D01*
X147295100Y-105376906D01*
X147257550Y-105403989D01*
X147223534Y-105432393D01*
X147196997Y-105458699D01*
X147181882Y-105479487D01*
X147179840Y-105486683D01*
X147188256Y-105498439D01*
X147198185Y-105502859D01*
X147214576Y-105515155D01*
X147227783Y-105537468D01*
X147242744Y-105560898D01*
X147260337Y-105565628D01*
X147276670Y-105551462D01*
X147282085Y-105540184D01*
X147297863Y-105512573D01*
X147325145Y-105485691D01*
X147366551Y-105457456D01*
X147424703Y-105425788D01*
X147428760Y-105423744D01*
X147483545Y-105393565D01*
X147528449Y-105361624D01*
X147568049Y-105323586D01*
X147606919Y-105275117D01*
X147645259Y-105218690D01*
X147714652Y-105114778D01*
X147795955Y-104999073D01*
X147886972Y-104874410D01*
X147985507Y-104743621D01*
X148089365Y-104609540D01*
X148196350Y-104475002D01*
X148304267Y-104342839D01*
X148410919Y-104215886D01*
X148514110Y-104096976D01*
X148516673Y-104094080D01*
X148554971Y-104050986D01*
X148600314Y-104000263D01*
X148650119Y-103944771D01*
X148701803Y-103887371D01*
X148752782Y-103830922D01*
X148800474Y-103778286D01*
X148842294Y-103732323D01*
X148875660Y-103695893D01*
X148897439Y-103672440D01*
X148934445Y-103632709D01*
X148975173Y-103588241D01*
X149009145Y-103550520D01*
X149042260Y-103513549D01*
X149076957Y-103475224D01*
X149105725Y-103443841D01*
X149105726Y-103443840D01*
X149131951Y-103414835D01*
X149167938Y-103374065D01*
X149210399Y-103325342D01*
X149256049Y-103272476D01*
X149301598Y-103219278D01*
X149343759Y-103169558D01*
X149379245Y-103127129D01*
X149385903Y-103119063D01*
X149413121Y-103088822D01*
X149442040Y-103063999D01*
X149478314Y-103040430D01*
X149527595Y-103013949D01*
X149530712Y-103012367D01*
X149571112Y-102991672D01*
X149604468Y-102974137D01*
X149626785Y-102961888D01*
X149633976Y-102957357D01*
X149645790Y-102950449D01*
X149669905Y-102938870D01*
X149687287Y-102931133D01*
X149711155Y-102919979D01*
X149749310Y-102901184D01*
X149798076Y-102876604D01*
X149853774Y-102848092D01*
X149912727Y-102817504D01*
X149917960Y-102814769D01*
X150003884Y-102769843D01*
X150074189Y-102733155D01*
X150131253Y-102703507D01*
X150177456Y-102679704D01*
X150215177Y-102660548D01*
X150246793Y-102644844D01*
X150274685Y-102631396D01*
X150301230Y-102619006D01*
X150328807Y-102606479D01*
X150358666Y-102593121D01*
X150411964Y-102568193D01*
X150452060Y-102545997D01*
X150484957Y-102522631D01*
X150516662Y-102494194D01*
X150527560Y-102483361D01*
X150588520Y-102421719D01*
X150867721Y-102425426D01*
X150940738Y-102426461D01*
X151006712Y-102427522D01*
X151063036Y-102428556D01*
X151107098Y-102429512D01*
X151136291Y-102430338D01*
X151148005Y-102430980D01*
X151148112Y-102431026D01*
X151147484Y-102441231D01*
X151144885Y-102467559D01*
X151140737Y-102505955D01*
X151135764Y-102549760D01*
X151130150Y-102600951D01*
X151123510Y-102665812D01*
X151116494Y-102737760D01*
X151109748Y-102810213D01*
X151106259Y-102849370D01*
X151095707Y-102954192D01*
X151082138Y-103058975D01*
X151064785Y-103168556D01*
X151042882Y-103287775D01*
X151015660Y-103421470D01*
X151015226Y-103423520D01*
X150997467Y-103505139D01*
X150982057Y-103568905D01*
X150967854Y-103616983D01*
X150953716Y-103651537D01*
X150938503Y-103674732D01*
X150921072Y-103688732D01*
X150900281Y-103695703D01*
X150874990Y-103697809D01*
X150870562Y-103697840D01*
X150825796Y-103702292D01*
X150797430Y-103715255D01*
X150786700Y-103736132D01*
X150786640Y-103738106D01*
X150790254Y-103749718D01*
X150804015Y-103757422D01*
X150832305Y-103763236D01*
X150845060Y-103765016D01*
X150888817Y-103769639D01*
X150934153Y-103772729D01*
X150953688Y-103773367D01*
X150985076Y-103772412D01*
X151004375Y-103765971D01*
X151019739Y-103750296D01*
X151027356Y-103739505D01*
X151048793Y-103699120D01*
X151071564Y-103639549D01*
X151095390Y-103561859D01*
X151119990Y-103467120D01*
X151145082Y-103356400D01*
X151170386Y-103230768D01*
X151191749Y-103113640D01*
X151204184Y-103041074D01*
X151214637Y-102976385D01*
X151223718Y-102914940D01*
X151232039Y-102852105D01*
X151240211Y-102783248D01*
X151248845Y-102703735D01*
X151258553Y-102608933D01*
X151259288Y-102601602D01*
X151265070Y-102546992D01*
X151270687Y-102499414D01*
X151275653Y-102462599D01*
X151279481Y-102440278D01*
X151280900Y-102435573D01*
X151293375Y-102431923D01*
X151323056Y-102430296D01*
X151366923Y-102430768D01*
X151405034Y-102432419D01*
X151532489Y-102441240D01*
X151643752Y-102452874D01*
X151737891Y-102467171D01*
X151813975Y-102483981D01*
X151871073Y-102503154D01*
X151884676Y-102509505D01*
X151912513Y-102521970D01*
X151934643Y-102528920D01*
X151939149Y-102529440D01*
X151954602Y-102536513D01*
X151976386Y-102554471D01*
X151987814Y-102566207D01*
X152014088Y-102591388D01*
X152049479Y-102620449D01*
X152082040Y-102644111D01*
X152181049Y-102717747D01*
X152277792Y-102802574D01*
X152368911Y-102894935D01*
X152451043Y-102991172D01*
X152520829Y-103087630D01*
X152574652Y-103180141D01*
X152594053Y-103213761D01*
X152615773Y-103244362D01*
X152623091Y-103252872D01*
X152637988Y-103272590D01*
X152646836Y-103296484D01*
X152651722Y-103331291D01*
X152653012Y-103349392D01*
X152657473Y-103405511D01*
X152664823Y-103476706D01*
X152674707Y-103560685D01*
X152686769Y-103655154D01*
X152700654Y-103757822D01*
X152716006Y-103866395D01*
X152732471Y-103978583D01*
X152749692Y-104092092D01*
X152767314Y-104204629D01*
X152784982Y-104313903D01*
X152802341Y-104417621D01*
X152819034Y-104513490D01*
X152834706Y-104599219D01*
X152849003Y-104672514D01*
X152861568Y-104731083D01*
X152872047Y-104772634D01*
X152875315Y-104783208D01*
X152902893Y-104855007D01*
X152934355Y-104913685D01*
X152974121Y-104966434D01*
X153013186Y-105007541D01*
X153047321Y-105043577D01*
X153066519Y-105070820D01*
X153072639Y-105091917D01*
X153072640Y-105092253D01*
X153079114Y-105119419D01*
X153089865Y-105136013D01*
X153102634Y-105146342D01*
X153113179Y-105143678D01*
X153128403Y-105126508D01*
X153146909Y-105109149D01*
X153159523Y-105109586D01*
X153175776Y-105113724D01*
X153183321Y-105110747D01*
X153193666Y-105094518D01*
X153187475Y-105071014D01*
X153166050Y-105042691D01*
X153131263Y-105012432D01*
X153096497Y-104982640D01*
X153063530Y-104948010D01*
X153046257Y-104925675D01*
X153022110Y-104879603D01*
X152998274Y-104814379D01*
X152975006Y-104731168D01*
X152952562Y-104631138D01*
X152931199Y-104515456D01*
X152911175Y-104385287D01*
X152892746Y-104241800D01*
X152889542Y-104213974D01*
X152884536Y-104170087D01*
X152877880Y-104112229D01*
X152870292Y-104046611D01*
X152862488Y-103979443D01*
X152858904Y-103948706D01*
X152849744Y-103867634D01*
X152843465Y-103804279D01*
X152840080Y-103756243D01*
X152839605Y-103721127D01*
X152842054Y-103696532D01*
X152847440Y-103680059D01*
X152855777Y-103669309D01*
X152860573Y-103665648D01*
X152882186Y-103651297D01*
X152861861Y-103611068D01*
X152839570Y-103557943D01*
X152820406Y-103492072D01*
X152803615Y-103410560D01*
X152794284Y-103352400D01*
X152784595Y-103295552D01*
X152772081Y-103234517D01*
X152758868Y-103179348D01*
X152753570Y-103160163D01*
X152739966Y-103116623D01*
X152726907Y-103085819D01*
X152710197Y-103060729D01*
X152685636Y-103034330D01*
X152668546Y-103017923D01*
X152633521Y-102982683D01*
X152593494Y-102939147D01*
X152555694Y-102895247D01*
X152546251Y-102883668D01*
X152520029Y-102853172D01*
X152482230Y-102812135D01*
X152436091Y-102763924D01*
X152384851Y-102711906D01*
X152331745Y-102659447D01*
X152315403Y-102643615D01*
X152146841Y-102481133D01*
X152190641Y-102475284D01*
X152216836Y-102472706D01*
X152258207Y-102469703D01*
X152309626Y-102466604D01*
X152365963Y-102463738D01*
X152381760Y-102463029D01*
X152529080Y-102456624D01*
X152630680Y-102501476D01*
X152745043Y-102549071D01*
X152845573Y-102584679D01*
X152896703Y-102599694D01*
X152920764Y-102607186D01*
X152934767Y-102617039D01*
X152943209Y-102635011D01*
X152950585Y-102666860D01*
X152951093Y-102669344D01*
X152958467Y-102703861D01*
X152969084Y-102751494D01*
X152981869Y-102807636D01*
X152995750Y-102867682D01*
X153009654Y-102927027D01*
X153022509Y-102981064D01*
X153033240Y-103025189D01*
X153040776Y-103054795D01*
X153041581Y-103057760D01*
X153084337Y-103207216D01*
X153125000Y-103337420D01*
X153163943Y-103449286D01*
X153201541Y-103543732D01*
X153238169Y-103621672D01*
X153274200Y-103684024D01*
X153310010Y-103731703D01*
X153322533Y-103745066D01*
X153364951Y-103781247D01*
X153409906Y-103809086D01*
X153454124Y-103827707D01*
X153494335Y-103836237D01*
X153527265Y-103833799D01*
X153549644Y-103819519D01*
X153555913Y-103807481D01*
X153554238Y-103785827D01*
X153540016Y-103768302D01*
X153519885Y-103761693D01*
X153512638Y-103763227D01*
X153494721Y-103763531D01*
X153469359Y-103757444D01*
X153469146Y-103757369D01*
X153443263Y-103740081D01*
X153412739Y-103706108D01*
X153379024Y-103658149D01*
X153343568Y-103598906D01*
X153307819Y-103531078D01*
X153273229Y-103457366D01*
X153241246Y-103380470D01*
X153213321Y-103303090D01*
X153197169Y-103250800D01*
X153181126Y-103192394D01*
X153164065Y-103126509D01*
X153146601Y-103055921D01*
X153129348Y-102983407D01*
X153112921Y-102911743D01*
X153097934Y-102843704D01*
X153085000Y-102782069D01*
X153074736Y-102729612D01*
X153067754Y-102689110D01*
X153064669Y-102663339D01*
X153065387Y-102655227D01*
X153076201Y-102656580D01*
X153101797Y-102663809D01*
X153137938Y-102675637D01*
X153166856Y-102685829D01*
X153281048Y-102729829D01*
X153401005Y-102781410D01*
X153528468Y-102841449D01*
X153665174Y-102910822D01*
X153812861Y-102990407D01*
X153973269Y-103081079D01*
X154114829Y-103163913D01*
X154169166Y-103196085D01*
X154217540Y-103224639D01*
X154257237Y-103247980D01*
X154285544Y-103264514D01*
X154299747Y-103272646D01*
X154300756Y-103273170D01*
X154306797Y-103283941D01*
X154317759Y-103311525D01*
X154332787Y-103353255D01*
X154351023Y-103406464D01*
X154371614Y-103468484D01*
X154393702Y-103536648D01*
X154416431Y-103608288D01*
X154438946Y-103680736D01*
X154460391Y-103751325D01*
X154479909Y-103817387D01*
X154496645Y-103876255D01*
X154508744Y-103921360D01*
X154527839Y-103995705D01*
X154549302Y-104079423D01*
X154570939Y-104163949D01*
X154590557Y-104240717D01*
X154597211Y-104266800D01*
X154630632Y-104391249D01*
X154666160Y-104511392D01*
X154702902Y-104624766D01*
X154739967Y-104728910D01*
X154776461Y-104821362D01*
X154811493Y-104899661D01*
X154844170Y-104961346D01*
X154855666Y-104979740D01*
X154871018Y-105004664D01*
X154880081Y-105022716D01*
X154881120Y-105026681D01*
X154889550Y-105042421D01*
X154911932Y-105064014D01*
X154943904Y-105088508D01*
X154981104Y-105112953D01*
X155019170Y-105134398D01*
X155053740Y-105149891D01*
X155070926Y-105155089D01*
X155104472Y-105156822D01*
X155133405Y-105148718D01*
X155151849Y-105133159D01*
X155155440Y-105120848D01*
X155146786Y-105099721D01*
X155126451Y-105087068D01*
X155105502Y-105087459D01*
X155079744Y-105086209D01*
X155049114Y-105067326D01*
X155014744Y-105032592D01*
X154977765Y-104983788D01*
X154939309Y-104922693D01*
X154900508Y-104851089D01*
X154862494Y-104770756D01*
X154826397Y-104683475D01*
X154797031Y-104602080D01*
X154777119Y-104539462D01*
X154755842Y-104466516D01*
X154733805Y-104385887D01*
X154711610Y-104300218D01*
X154689862Y-104212153D01*
X154669164Y-104124338D01*
X154650119Y-104039415D01*
X154633332Y-103960028D01*
X154619407Y-103888824D01*
X154608946Y-103828444D01*
X154602553Y-103781534D01*
X154600833Y-103750737D01*
X154601338Y-103744907D01*
X154602957Y-103714414D01*
X154595108Y-103696870D01*
X154591885Y-103694107D01*
X154584411Y-103681338D01*
X154572249Y-103652095D01*
X154556492Y-103609384D01*
X154538230Y-103556212D01*
X154518557Y-103495585D01*
X154510955Y-103471273D01*
X154483172Y-103383071D01*
X154459712Y-103312357D01*
X154439741Y-103256966D01*
X154422425Y-103214730D01*
X154406931Y-103183483D01*
X154392424Y-103161059D01*
X154390715Y-103158864D01*
X154377874Y-103149012D01*
X154349471Y-103131046D01*
X154307925Y-103106312D01*
X154255657Y-103076155D01*
X154195089Y-103041922D01*
X154128640Y-103004958D01*
X154058732Y-102966610D01*
X153987785Y-102928222D01*
X153918220Y-102891142D01*
X153852458Y-102856715D01*
X153792919Y-102826286D01*
X153788920Y-102824278D01*
X153696238Y-102778738D01*
X153606404Y-102736775D01*
X153514674Y-102696339D01*
X153416303Y-102655381D01*
X153306549Y-102611851D01*
X153221671Y-102579233D01*
X153164656Y-102557349D01*
X153114278Y-102537639D01*
X153073587Y-102521325D01*
X153045630Y-102509632D01*
X153033456Y-102503781D01*
X153033288Y-102503636D01*
X153030114Y-102491048D01*
X153027633Y-102463732D01*
X153026329Y-102427276D01*
X153026273Y-102422306D01*
X153026238Y-102383878D01*
X153028072Y-102361073D01*
X153033444Y-102349196D01*
X153044025Y-102343553D01*
X153055242Y-102340838D01*
X153081190Y-102332908D01*
X153115988Y-102319537D01*
X153139138Y-102309483D01*
X153174005Y-102296230D01*
X153215109Y-102286452D01*
X153267773Y-102279080D01*
X153310331Y-102275104D01*
X153377840Y-102267706D01*
X153435692Y-102257629D01*
X153478744Y-102245783D01*
X153481083Y-102244907D01*
X153493469Y-102240980D01*
X150246587Y-102240980D01*
X150244300Y-102250526D01*
X150231176Y-102263765D01*
X150213044Y-102261728D01*
X150198075Y-102246295D01*
X150192842Y-102225894D01*
X150205010Y-102215833D01*
X150218774Y-102214480D01*
X150240028Y-102221980D01*
X150246587Y-102240980D01*
X153493469Y-102240980D01*
X153525171Y-102230929D01*
X153580902Y-102217409D01*
X153640693Y-102205805D01*
X153696958Y-102197575D01*
X153742113Y-102194179D01*
X153744936Y-102194159D01*
X153781263Y-102189258D01*
X153818039Y-102177255D01*
X153822345Y-102175206D01*
X153849325Y-102164034D01*
X153891308Y-102149438D01*
X153943554Y-102132798D01*
X154001321Y-102115496D01*
X154059869Y-102098912D01*
X154114458Y-102084427D01*
X154160346Y-102073423D01*
X154192794Y-102067278D01*
X154192956Y-102067256D01*
X154228014Y-102059428D01*
X154251529Y-102044613D01*
X154264076Y-102029961D01*
X154288234Y-102005746D01*
X154325885Y-101977703D01*
X154371537Y-101949239D01*
X154419693Y-101923761D01*
X154464860Y-101904675D01*
X154467836Y-101903643D01*
X154500705Y-101888485D01*
X154526746Y-101869543D01*
X154533472Y-101861828D01*
X154547798Y-101843353D01*
X154571890Y-101814671D01*
X154601731Y-101780503D01*
X154619218Y-101760997D01*
X154663217Y-101710950D01*
X154698532Y-101666629D01*
X154729392Y-101621916D01*
X154760028Y-101570693D01*
X154793868Y-101508360D01*
X154818805Y-101463085D01*
X154842570Y-101425830D01*
X154868468Y-101393038D01*
X154899803Y-101361150D01*
X154939881Y-101326606D01*
X154992004Y-101285849D01*
X155020288Y-101264520D01*
X155062419Y-101232076D01*
X155099838Y-101201634D01*
X155128804Y-101176348D01*
X155145574Y-101159376D01*
X155146738Y-101157840D01*
X155167188Y-101118446D01*
X155170895Y-101083501D01*
X155162087Y-101061722D01*
X155148633Y-101048473D01*
X155132399Y-101049197D01*
X155120993Y-101053884D01*
X155102150Y-101060990D01*
X155096408Y-101058477D01*
X155104257Y-101045086D01*
X155126186Y-101019556D01*
X155140201Y-101004388D01*
X155163883Y-100975975D01*
X155180405Y-100950238D01*
X155185921Y-100934250D01*
X155180847Y-100907316D01*
X155168328Y-100880160D01*
X155152415Y-100859790D01*
X155138968Y-100853040D01*
X155113877Y-100861176D01*
G36*
X146470416Y-105712060D02*
G01*
X146468640Y-105760320D01*
X146516900Y-105758544D01*
X146565160Y-105756769D01*
X146522537Y-105752908D01*
X146495604Y-105749354D01*
X146482703Y-105741069D01*
X146477600Y-105721817D01*
X146476052Y-105706423D01*
X146472191Y-105663800D01*
X146470416Y-105712060D01*
G37*
X146470416Y-105712060D02*
X146468640Y-105760320D01*
X146516900Y-105758544D01*
X146565160Y-105756769D01*
X146522537Y-105752908D01*
X146495604Y-105749354D01*
X146482703Y-105741069D01*
X146477600Y-105721817D01*
X146476052Y-105706423D01*
X146472191Y-105663800D01*
X146470416Y-105712060D01*
G36*
X121812248Y-76582601D02*
G01*
X121798333Y-76637333D01*
X121828268Y-76708085D01*
X121883000Y-76722000D01*
X121953752Y-76692066D01*
X121967667Y-76637333D01*
X121937733Y-76566581D01*
X121883000Y-76552667D01*
X121812248Y-76582601D01*
G37*
X121812248Y-76582601D02*
X121798333Y-76637333D01*
X121828268Y-76708085D01*
X121883000Y-76722000D01*
X121953752Y-76692066D01*
X121967667Y-76637333D01*
X121937733Y-76566581D01*
X121883000Y-76552667D01*
X121812248Y-76582601D01*
G36*
X128926210Y-76570395D02*
G01*
X128910333Y-76595000D01*
X128874877Y-76629395D01*
X128825667Y-76637333D01*
X128756877Y-76655061D01*
X128741000Y-76679667D01*
X128773215Y-76720770D01*
X128783333Y-76722000D01*
X128817729Y-76757456D01*
X128825667Y-76806667D01*
X128807939Y-76875457D01*
X128783333Y-76891333D01*
X128742230Y-76923548D01*
X128741000Y-76933667D01*
X128776456Y-76968062D01*
X128825667Y-76976000D01*
X128894457Y-76958272D01*
X128910333Y-76933667D01*
X128945790Y-76899271D01*
X128995000Y-76891333D01*
X129063790Y-76909061D01*
X129079667Y-76933667D01*
X129115123Y-76968062D01*
X129164333Y-76976000D01*
X129233124Y-76958272D01*
X129249000Y-76933667D01*
X129216786Y-76892563D01*
X129206667Y-76891333D01*
X129172272Y-76855877D01*
X129164333Y-76806667D01*
X129182062Y-76737876D01*
X129206667Y-76722000D01*
X129247770Y-76689785D01*
X129249000Y-76679667D01*
X129213544Y-76645271D01*
X129164333Y-76637333D01*
X129095543Y-76619605D01*
X129079667Y-76595000D01*
X129044211Y-76560605D01*
X128995000Y-76552667D01*
X128926210Y-76570395D01*
G37*
X128926210Y-76570395D02*
X128910333Y-76595000D01*
X128874877Y-76629395D01*
X128825667Y-76637333D01*
X128756877Y-76655061D01*
X128741000Y-76679667D01*
X128773215Y-76720770D01*
X128783333Y-76722000D01*
X128817729Y-76757456D01*
X128825667Y-76806667D01*
X128807939Y-76875457D01*
X128783333Y-76891333D01*
X128742230Y-76923548D01*
X128741000Y-76933667D01*
X128776456Y-76968062D01*
X128825667Y-76976000D01*
X128894457Y-76958272D01*
X128910333Y-76933667D01*
X128945790Y-76899271D01*
X128995000Y-76891333D01*
X129063790Y-76909061D01*
X129079667Y-76933667D01*
X129115123Y-76968062D01*
X129164333Y-76976000D01*
X129233124Y-76958272D01*
X129249000Y-76933667D01*
X129216786Y-76892563D01*
X129206667Y-76891333D01*
X129172272Y-76855877D01*
X129164333Y-76806667D01*
X129182062Y-76737876D01*
X129206667Y-76722000D01*
X129247770Y-76689785D01*
X129249000Y-76679667D01*
X129213544Y-76645271D01*
X129164333Y-76637333D01*
X129095543Y-76619605D01*
X129079667Y-76595000D01*
X129044211Y-76560605D01*
X128995000Y-76552667D01*
X128926210Y-76570395D01*
G36*
X121082465Y-76558477D02*
G01*
X121057797Y-76586123D01*
X121043930Y-76650931D01*
X121037799Y-76768224D01*
X121036340Y-76953328D01*
X121036333Y-76976000D01*
X121036333Y-77399333D01*
X121248000Y-77399333D01*
X121368744Y-77391718D01*
X121445383Y-77372249D01*
X121459667Y-77357000D01*
X121495123Y-77322605D01*
X121544333Y-77314667D01*
X121602394Y-77298343D01*
X121626048Y-77234389D01*
X121629000Y-77164576D01*
X121614970Y-77103000D01*
X121459667Y-77103000D01*
X121449177Y-77192954D01*
X121399697Y-77226109D01*
X121332667Y-77230000D01*
X121242713Y-77219510D01*
X121209558Y-77170030D01*
X121205667Y-77103000D01*
X121216156Y-77013046D01*
X121265637Y-76979891D01*
X121332667Y-76976000D01*
X121422621Y-76986489D01*
X121455776Y-77035970D01*
X121459667Y-77103000D01*
X121614970Y-77103000D01*
X121595106Y-77015829D01*
X121507105Y-76892647D01*
X121385525Y-76818306D01*
X121313424Y-76806667D01*
X121236505Y-76793371D01*
X121208330Y-76736262D01*
X121205667Y-76679667D01*
X121192362Y-76586706D01*
X121142856Y-76553977D01*
X121121000Y-76552667D01*
X121082465Y-76558477D01*
G37*
X121082465Y-76558477D02*
X121057797Y-76586123D01*
X121043930Y-76650931D01*
X121037799Y-76768224D01*
X121036340Y-76953328D01*
X121036333Y-76976000D01*
X121036333Y-77399333D01*
X121248000Y-77399333D01*
X121368744Y-77391718D01*
X121445383Y-77372249D01*
X121459667Y-77357000D01*
X121495123Y-77322605D01*
X121544333Y-77314667D01*
X121602394Y-77298343D01*
X121626048Y-77234389D01*
X121629000Y-77164576D01*
X121614970Y-77103000D01*
X121459667Y-77103000D01*
X121449177Y-77192954D01*
X121399697Y-77226109D01*
X121332667Y-77230000D01*
X121242713Y-77219510D01*
X121209558Y-77170030D01*
X121205667Y-77103000D01*
X121216156Y-77013046D01*
X121265637Y-76979891D01*
X121332667Y-76976000D01*
X121422621Y-76986489D01*
X121455776Y-77035970D01*
X121459667Y-77103000D01*
X121614970Y-77103000D01*
X121595106Y-77015829D01*
X121507105Y-76892647D01*
X121385525Y-76818306D01*
X121313424Y-76806667D01*
X121236505Y-76793371D01*
X121208330Y-76736262D01*
X121205667Y-76679667D01*
X121192362Y-76586706D01*
X121142856Y-76553977D01*
X121121000Y-76552667D01*
X121082465Y-76558477D01*
G36*
X121838505Y-76814661D02*
G01*
X121813015Y-76850715D01*
X121801356Y-76932930D01*
X121798357Y-77079412D01*
X121798333Y-77103000D01*
X121800618Y-77258732D01*
X121810919Y-77347949D01*
X121834409Y-77388754D01*
X121876261Y-77399251D01*
X121883000Y-77399333D01*
X121927495Y-77391338D01*
X121952986Y-77355285D01*
X121964644Y-77273069D01*
X121967643Y-77126588D01*
X121967667Y-77103000D01*
X121965383Y-76947268D01*
X121955082Y-76858051D01*
X121931591Y-76817246D01*
X121889740Y-76806749D01*
X121883000Y-76806667D01*
X121838505Y-76814661D01*
G37*
X121838505Y-76814661D02*
X121813015Y-76850715D01*
X121801356Y-76932930D01*
X121798357Y-77079412D01*
X121798333Y-77103000D01*
X121800618Y-77258732D01*
X121810919Y-77347949D01*
X121834409Y-77388754D01*
X121876261Y-77399251D01*
X121883000Y-77399333D01*
X121927495Y-77391338D01*
X121952986Y-77355285D01*
X121964644Y-77273069D01*
X121967643Y-77126588D01*
X121967667Y-77103000D01*
X121965383Y-76947268D01*
X121955082Y-76858051D01*
X121931591Y-76817246D01*
X121889740Y-76806749D01*
X121883000Y-76806667D01*
X121838505Y-76814661D01*
G36*
X122854505Y-76814661D02*
G01*
X122829015Y-76850715D01*
X122817356Y-76932930D01*
X122814357Y-77079412D01*
X122814333Y-77103000D01*
X122814333Y-77399333D01*
X123015417Y-77397723D01*
X123158262Y-77383637D01*
X123254697Y-77348616D01*
X123269417Y-77336010D01*
X123299031Y-77261921D01*
X123318235Y-77136235D01*
X123322333Y-77041287D01*
X123318715Y-76906105D01*
X123303045Y-76835448D01*
X123268107Y-76809312D01*
X123237667Y-76806667D01*
X123186883Y-76817811D01*
X123161556Y-76865112D01*
X123153362Y-76969375D01*
X123153000Y-77018333D01*
X123148543Y-77145292D01*
X123129622Y-77208611D01*
X123087917Y-77229094D01*
X123068333Y-77230000D01*
X123017550Y-77218856D01*
X122992222Y-77171554D01*
X122984029Y-77067291D01*
X122983667Y-77018333D01*
X122979209Y-76891375D01*
X122960289Y-76828056D01*
X122918583Y-76807572D01*
X122899000Y-76806667D01*
X122854505Y-76814661D01*
G37*
X122854505Y-76814661D02*
X122829015Y-76850715D01*
X122817356Y-76932930D01*
X122814357Y-77079412D01*
X122814333Y-77103000D01*
X122814333Y-77399333D01*
X123015417Y-77397723D01*
X123158262Y-77383637D01*
X123254697Y-77348616D01*
X123269417Y-77336010D01*
X123299031Y-77261921D01*
X123318235Y-77136235D01*
X123322333Y-77041287D01*
X123318715Y-76906105D01*
X123303045Y-76835448D01*
X123268107Y-76809312D01*
X123237667Y-76806667D01*
X123186883Y-76817811D01*
X123161556Y-76865112D01*
X123153362Y-76969375D01*
X123153000Y-77018333D01*
X123148543Y-77145292D01*
X123129622Y-77208611D01*
X123087917Y-77229094D01*
X123068333Y-77230000D01*
X123017550Y-77218856D01*
X122992222Y-77171554D01*
X122984029Y-77067291D01*
X122983667Y-77018333D01*
X122979209Y-76891375D01*
X122960289Y-76828056D01*
X122918583Y-76807572D01*
X122899000Y-76806667D01*
X122854505Y-76814661D01*
G36*
X123674915Y-76667267D02*
G01*
X123661000Y-76722000D01*
X123631066Y-76792752D01*
X123576333Y-76806667D01*
X123505581Y-76836601D01*
X123491667Y-76891333D01*
X123521601Y-76962085D01*
X123576333Y-76976000D01*
X123627117Y-76987144D01*
X123652445Y-77034445D01*
X123660638Y-77138708D01*
X123661000Y-77187667D01*
X123665458Y-77314625D01*
X123684378Y-77377944D01*
X123726084Y-77398427D01*
X123745667Y-77399333D01*
X123796450Y-77388189D01*
X123821778Y-77340888D01*
X123829971Y-77236625D01*
X123830333Y-77187667D01*
X123834791Y-77060708D01*
X123853712Y-76997389D01*
X123895417Y-76976906D01*
X123915000Y-76976000D01*
X123985752Y-76946066D01*
X123999667Y-76891333D01*
X123969733Y-76820581D01*
X123915000Y-76806667D01*
X123844248Y-76776732D01*
X123830333Y-76722000D01*
X123800399Y-76651248D01*
X123745667Y-76637333D01*
X123674915Y-76667267D01*
G37*
X123674915Y-76667267D02*
X123661000Y-76722000D01*
X123631066Y-76792752D01*
X123576333Y-76806667D01*
X123505581Y-76836601D01*
X123491667Y-76891333D01*
X123521601Y-76962085D01*
X123576333Y-76976000D01*
X123627117Y-76987144D01*
X123652445Y-77034445D01*
X123660638Y-77138708D01*
X123661000Y-77187667D01*
X123665458Y-77314625D01*
X123684378Y-77377944D01*
X123726084Y-77398427D01*
X123745667Y-77399333D01*
X123796450Y-77388189D01*
X123821778Y-77340888D01*
X123829971Y-77236625D01*
X123830333Y-77187667D01*
X123834791Y-77060708D01*
X123853712Y-76997389D01*
X123895417Y-76976906D01*
X123915000Y-76976000D01*
X123985752Y-76946066D01*
X123999667Y-76891333D01*
X123969733Y-76820581D01*
X123915000Y-76806667D01*
X123844248Y-76776732D01*
X123830333Y-76722000D01*
X123800399Y-76651248D01*
X123745667Y-76637333D01*
X123674915Y-76667267D01*
G36*
X124216806Y-76815729D02*
G01*
X124174460Y-76851309D01*
X124169000Y-76891333D01*
X124188958Y-76953307D01*
X124263217Y-76975126D01*
X124296000Y-76976000D01*
X124385171Y-76988262D01*
X124422990Y-77017806D01*
X124423000Y-77018333D01*
X124388508Y-77055401D01*
X124356476Y-77060667D01*
X124268735Y-77091997D01*
X124194165Y-77163524D01*
X124169000Y-77230000D01*
X124207264Y-77316389D01*
X124307409Y-77377374D01*
X124441143Y-77399333D01*
X124544528Y-77390270D01*
X124586874Y-77354691D01*
X124592333Y-77314667D01*
X124572376Y-77252693D01*
X124498117Y-77230873D01*
X124465333Y-77230000D01*
X124376163Y-77217738D01*
X124338343Y-77188193D01*
X124338333Y-77187667D01*
X124372826Y-77150598D01*
X124404857Y-77145333D01*
X124492598Y-77114002D01*
X124567168Y-77042476D01*
X124592333Y-76976000D01*
X124554070Y-76889611D01*
X124453925Y-76828625D01*
X124320191Y-76806667D01*
X124216806Y-76815729D01*
G37*
X124216806Y-76815729D02*
X124174460Y-76851309D01*
X124169000Y-76891333D01*
X124188958Y-76953307D01*
X124263217Y-76975126D01*
X124296000Y-76976000D01*
X124385171Y-76988262D01*
X124422990Y-77017806D01*
X124423000Y-77018333D01*
X124388508Y-77055401D01*
X124356476Y-77060667D01*
X124268735Y-77091997D01*
X124194165Y-77163524D01*
X124169000Y-77230000D01*
X124207264Y-77316389D01*
X124307409Y-77377374D01*
X124441143Y-77399333D01*
X124544528Y-77390270D01*
X124586874Y-77354691D01*
X124592333Y-77314667D01*
X124572376Y-77252693D01*
X124498117Y-77230873D01*
X124465333Y-77230000D01*
X124376163Y-77217738D01*
X124338343Y-77188193D01*
X124338333Y-77187667D01*
X124372826Y-77150598D01*
X124404857Y-77145333D01*
X124492598Y-77114002D01*
X124567168Y-77042476D01*
X124592333Y-76976000D01*
X124554070Y-76889611D01*
X124453925Y-76828625D01*
X124320191Y-76806667D01*
X124216806Y-76815729D01*
G36*
X125354333Y-76933667D02*
G01*
X125368168Y-77027306D01*
X125418262Y-77059741D01*
X125435472Y-77060667D01*
X125511230Y-77036874D01*
X125534124Y-77008128D01*
X125566708Y-76978687D01*
X125611478Y-77010780D01*
X125655620Y-77085052D01*
X125686321Y-77182144D01*
X125693000Y-77248143D01*
X125702063Y-77351527D01*
X125737642Y-77393873D01*
X125777667Y-77399333D01*
X125822162Y-77391338D01*
X125847652Y-77355285D01*
X125859311Y-77273069D01*
X125862310Y-77126588D01*
X125862333Y-77103000D01*
X125862333Y-76806667D01*
X125354333Y-76806667D01*
X125354333Y-76933667D01*
G37*
X125354333Y-76933667D02*
X125368168Y-77027306D01*
X125418262Y-77059741D01*
X125435472Y-77060667D01*
X125511230Y-77036874D01*
X125534124Y-77008128D01*
X125566708Y-76978687D01*
X125611478Y-77010780D01*
X125655620Y-77085052D01*
X125686321Y-77182144D01*
X125693000Y-77248143D01*
X125702063Y-77351527D01*
X125737642Y-77393873D01*
X125777667Y-77399333D01*
X125822162Y-77391338D01*
X125847652Y-77355285D01*
X125859311Y-77273069D01*
X125862310Y-77126588D01*
X125862333Y-77103000D01*
X125862333Y-76806667D01*
X125354333Y-76806667D01*
X125354333Y-76933667D01*
G36*
X126071839Y-76814661D02*
G01*
X126046348Y-76850715D01*
X126034689Y-76932930D01*
X126031690Y-77079412D01*
X126031667Y-77103000D01*
X126031667Y-77399333D01*
X126232750Y-77397723D01*
X126375595Y-77383637D01*
X126472031Y-77348616D01*
X126486750Y-77336010D01*
X126516364Y-77261921D01*
X126535568Y-77136235D01*
X126539667Y-77041287D01*
X126536048Y-76906105D01*
X126520379Y-76835448D01*
X126485440Y-76809312D01*
X126455000Y-76806667D01*
X126404217Y-76817811D01*
X126378889Y-76865112D01*
X126370696Y-76969375D01*
X126370333Y-77018333D01*
X126365876Y-77145292D01*
X126346955Y-77208611D01*
X126305250Y-77229094D01*
X126285667Y-77230000D01*
X126234883Y-77218856D01*
X126209556Y-77171554D01*
X126201362Y-77067291D01*
X126201000Y-77018333D01*
X126196543Y-76891375D01*
X126177622Y-76828056D01*
X126135917Y-76807572D01*
X126116333Y-76806667D01*
X126071839Y-76814661D01*
G37*
X126071839Y-76814661D02*
X126046348Y-76850715D01*
X126034689Y-76932930D01*
X126031690Y-77079412D01*
X126031667Y-77103000D01*
X126031667Y-77399333D01*
X126232750Y-77397723D01*
X126375595Y-77383637D01*
X126472031Y-77348616D01*
X126486750Y-77336010D01*
X126516364Y-77261921D01*
X126535568Y-77136235D01*
X126539667Y-77041287D01*
X126536048Y-76906105D01*
X126520379Y-76835448D01*
X126485440Y-76809312D01*
X126455000Y-76806667D01*
X126404217Y-76817811D01*
X126378889Y-76865112D01*
X126370696Y-76969375D01*
X126370333Y-77018333D01*
X126365876Y-77145292D01*
X126346955Y-77208611D01*
X126305250Y-77229094D01*
X126285667Y-77230000D01*
X126234883Y-77218856D01*
X126209556Y-77171554D01*
X126201362Y-77067291D01*
X126201000Y-77018333D01*
X126196543Y-76891375D01*
X126177622Y-76828056D01*
X126135917Y-76807572D01*
X126116333Y-76806667D01*
X126071839Y-76814661D01*
G36*
X126769719Y-76870040D02*
G01*
X126715348Y-76988480D01*
X126709000Y-77059567D01*
X126739612Y-77192063D01*
X126818137Y-77300245D01*
X126924607Y-77371984D01*
X127039055Y-77395150D01*
X127141513Y-77357615D01*
X127164083Y-77336010D01*
X127213544Y-77222095D01*
X127207292Y-77103000D01*
X127047667Y-77103000D01*
X127034362Y-77195960D01*
X126984856Y-77228690D01*
X126963000Y-77230000D01*
X126901027Y-77210042D01*
X126879207Y-77135783D01*
X126878333Y-77103000D01*
X126891639Y-77010040D01*
X126941144Y-76977310D01*
X126963000Y-76976000D01*
X127024974Y-76995958D01*
X127046793Y-77070216D01*
X127047667Y-77103000D01*
X127207292Y-77103000D01*
X127206201Y-77082221D01*
X127146012Y-76949394D01*
X127113091Y-76910576D01*
X126985777Y-76824751D01*
X126865590Y-76813352D01*
X126769719Y-76870040D01*
G37*
X126769719Y-76870040D02*
X126715348Y-76988480D01*
X126709000Y-77059567D01*
X126739612Y-77192063D01*
X126818137Y-77300245D01*
X126924607Y-77371984D01*
X127039055Y-77395150D01*
X127141513Y-77357615D01*
X127164083Y-77336010D01*
X127213544Y-77222095D01*
X127207292Y-77103000D01*
X127047667Y-77103000D01*
X127034362Y-77195960D01*
X126984856Y-77228690D01*
X126963000Y-77230000D01*
X126901027Y-77210042D01*
X126879207Y-77135783D01*
X126878333Y-77103000D01*
X126891639Y-77010040D01*
X126941144Y-76977310D01*
X126963000Y-76976000D01*
X127024974Y-76995958D01*
X127046793Y-77070216D01*
X127047667Y-77103000D01*
X127207292Y-77103000D01*
X127206201Y-77082221D01*
X127146012Y-76949394D01*
X127113091Y-76910576D01*
X126985777Y-76824751D01*
X126865590Y-76813352D01*
X126769719Y-76870040D01*
G36*
X122286798Y-76824873D02*
G01*
X122188093Y-76887139D01*
X122143188Y-77004931D01*
X122137000Y-77103000D01*
X122161481Y-77268120D01*
X122236147Y-77366103D01*
X122362831Y-77399312D01*
X122366810Y-77399333D01*
X122436871Y-77408115D01*
X122468014Y-77450396D01*
X122475608Y-77550082D01*
X122475667Y-77568667D01*
X122482767Y-77679451D01*
X122511464Y-77728413D01*
X122560333Y-77738000D01*
X122597387Y-77732641D01*
X122621709Y-77706808D01*
X122635960Y-77645863D01*
X122642802Y-77535172D01*
X122644896Y-77360096D01*
X122645000Y-77272333D01*
X122645000Y-77103000D01*
X122475667Y-77103000D01*
X122462362Y-77195960D01*
X122412856Y-77228690D01*
X122391000Y-77230000D01*
X122329027Y-77210042D01*
X122307207Y-77135783D01*
X122306333Y-77103000D01*
X122319639Y-77010040D01*
X122369144Y-76977310D01*
X122391000Y-76976000D01*
X122452974Y-76995958D01*
X122474793Y-77070216D01*
X122475667Y-77103000D01*
X122645000Y-77103000D01*
X122645000Y-76806667D01*
X122451476Y-76806667D01*
X122286798Y-76824873D01*
G37*
X122286798Y-76824873D02*
X122188093Y-76887139D01*
X122143188Y-77004931D01*
X122137000Y-77103000D01*
X122161481Y-77268120D01*
X122236147Y-77366103D01*
X122362831Y-77399312D01*
X122366810Y-77399333D01*
X122436871Y-77408115D01*
X122468014Y-77450396D01*
X122475608Y-77550082D01*
X122475667Y-77568667D01*
X122482767Y-77679451D01*
X122511464Y-77728413D01*
X122560333Y-77738000D01*
X122597387Y-77732641D01*
X122621709Y-77706808D01*
X122635960Y-77645863D01*
X122642802Y-77535172D01*
X122644896Y-77360096D01*
X122645000Y-77272333D01*
X122645000Y-77103000D01*
X122475667Y-77103000D01*
X122462362Y-77195960D01*
X122412856Y-77228690D01*
X122391000Y-77230000D01*
X122329027Y-77210042D01*
X122307207Y-77135783D01*
X122306333Y-77103000D01*
X122319639Y-77010040D01*
X122369144Y-76977310D01*
X122391000Y-76976000D01*
X122452974Y-76995958D01*
X122474793Y-77070216D01*
X122475667Y-77103000D01*
X122645000Y-77103000D01*
X122645000Y-76806667D01*
X122451476Y-76806667D01*
X122286798Y-76824873D01*
G36*
X127823581Y-76836601D02*
G01*
X127809667Y-76891333D01*
X127791939Y-76960123D01*
X127767333Y-76976000D01*
X127732938Y-77011456D01*
X127725000Y-77060667D01*
X127707272Y-77129457D01*
X127682667Y-77145333D01*
X127651170Y-77109015D01*
X127640333Y-77036476D01*
X127617694Y-76929074D01*
X127579857Y-76867143D01*
X127493436Y-76813021D01*
X127420842Y-76818868D01*
X127386688Y-76881608D01*
X127386333Y-76891333D01*
X127404062Y-76960123D01*
X127428667Y-76976000D01*
X127463062Y-77011456D01*
X127471000Y-77060667D01*
X127488728Y-77129457D01*
X127513333Y-77145333D01*
X127543057Y-77182119D01*
X127555664Y-77270753D01*
X127555667Y-77272333D01*
X127567929Y-77361504D01*
X127597473Y-77399323D01*
X127598000Y-77399333D01*
X127632395Y-77434789D01*
X127640333Y-77484000D01*
X127658062Y-77552790D01*
X127682667Y-77568667D01*
X127717062Y-77604123D01*
X127725000Y-77653333D01*
X127754934Y-77724085D01*
X127809667Y-77738000D01*
X127871640Y-77718042D01*
X127893460Y-77643783D01*
X127894333Y-77611000D01*
X127882071Y-77521829D01*
X127852527Y-77484010D01*
X127852000Y-77484000D01*
X127825491Y-77446444D01*
X127810746Y-77352624D01*
X127809667Y-77314667D01*
X127819056Y-77208630D01*
X127842511Y-77149651D01*
X127852000Y-77145333D01*
X127886395Y-77109877D01*
X127894333Y-77060667D01*
X127912062Y-76991876D01*
X127936667Y-76976000D01*
X127971062Y-76940544D01*
X127979000Y-76891333D01*
X127949066Y-76820581D01*
X127894333Y-76806667D01*
X127823581Y-76836601D01*
G37*
X127823581Y-76836601D02*
X127809667Y-76891333D01*
X127791939Y-76960123D01*
X127767333Y-76976000D01*
X127732938Y-77011456D01*
X127725000Y-77060667D01*
X127707272Y-77129457D01*
X127682667Y-77145333D01*
X127651170Y-77109015D01*
X127640333Y-77036476D01*
X127617694Y-76929074D01*
X127579857Y-76867143D01*
X127493436Y-76813021D01*
X127420842Y-76818868D01*
X127386688Y-76881608D01*
X127386333Y-76891333D01*
X127404062Y-76960123D01*
X127428667Y-76976000D01*
X127463062Y-77011456D01*
X127471000Y-77060667D01*
X127488728Y-77129457D01*
X127513333Y-77145333D01*
X127543057Y-77182119D01*
X127555664Y-77270753D01*
X127555667Y-77272333D01*
X127567929Y-77361504D01*
X127597473Y-77399323D01*
X127598000Y-77399333D01*
X127632395Y-77434789D01*
X127640333Y-77484000D01*
X127658062Y-77552790D01*
X127682667Y-77568667D01*
X127717062Y-77604123D01*
X127725000Y-77653333D01*
X127754934Y-77724085D01*
X127809667Y-77738000D01*
X127871640Y-77718042D01*
X127893460Y-77643783D01*
X127894333Y-77611000D01*
X127882071Y-77521829D01*
X127852527Y-77484010D01*
X127852000Y-77484000D01*
X127825491Y-77446444D01*
X127810746Y-77352624D01*
X127809667Y-77314667D01*
X127819056Y-77208630D01*
X127842511Y-77149651D01*
X127852000Y-77145333D01*
X127886395Y-77109877D01*
X127894333Y-77060667D01*
X127912062Y-76991876D01*
X127936667Y-76976000D01*
X127971062Y-76940544D01*
X127979000Y-76891333D01*
X127949066Y-76820581D01*
X127894333Y-76806667D01*
X127823581Y-76836601D01*
G36*
X105965667Y-81717333D02*
G01*
X130434333Y-81717333D01*
X130434333Y-75536667D01*
X130180333Y-75536667D01*
X130180333Y-81463333D01*
X106219667Y-81463333D01*
X106219667Y-75536667D01*
X130180333Y-75536667D01*
X130434333Y-75536667D01*
X130434333Y-75282667D01*
X105965667Y-75282667D01*
X105965667Y-81717333D01*
G37*
X105965667Y-81717333D02*
X130434333Y-81717333D01*
X130434333Y-75536667D01*
X130180333Y-75536667D01*
X130180333Y-81463333D01*
X106219667Y-81463333D01*
X106219667Y-75536667D01*
X130180333Y-75536667D01*
X130434333Y-75536667D01*
X130434333Y-75282667D01*
X105965667Y-75282667D01*
X105965667Y-81717333D01*
G36*
X116437827Y-70396873D02*
G01*
X116361203Y-70484767D01*
X116360667Y-70496333D01*
X116424927Y-70590265D01*
X116630012Y-70623104D01*
X116657000Y-70623333D01*
X116876174Y-70595793D01*
X116952798Y-70507900D01*
X116953334Y-70496333D01*
X116889074Y-70402402D01*
X116683989Y-70369563D01*
X116657000Y-70369333D01*
X116437827Y-70396873D01*
G37*
X116437827Y-70396873D02*
X116361203Y-70484767D01*
X116360667Y-70496333D01*
X116424927Y-70590265D01*
X116630012Y-70623104D01*
X116657000Y-70623333D01*
X116876174Y-70595793D01*
X116952798Y-70507900D01*
X116953334Y-70496333D01*
X116889074Y-70402402D01*
X116683989Y-70369563D01*
X116657000Y-70369333D01*
X116437827Y-70396873D01*
G36*
X119909161Y-70396873D02*
G01*
X119832536Y-70484767D01*
X119832000Y-70496333D01*
X119896260Y-70590265D01*
X120101345Y-70623104D01*
X120128334Y-70623333D01*
X120347507Y-70595793D01*
X120424131Y-70507900D01*
X120424667Y-70496333D01*
X120360408Y-70402402D01*
X120155323Y-70369563D01*
X120128334Y-70369333D01*
X119909161Y-70396873D01*
G37*
X119909161Y-70396873D02*
X119832536Y-70484767D01*
X119832000Y-70496333D01*
X119896260Y-70590265D01*
X120101345Y-70623104D01*
X120128334Y-70623333D01*
X120347507Y-70595793D01*
X120424131Y-70507900D01*
X120424667Y-70496333D01*
X120360408Y-70402402D01*
X120155323Y-70369563D01*
X120128334Y-70369333D01*
X119909161Y-70396873D01*
G36*
X121116752Y-72045773D02*
G01*
X121102000Y-72105000D01*
X121169773Y-72217248D01*
X121229000Y-72232000D01*
X121341249Y-72164227D01*
X121356000Y-72105000D01*
X121288228Y-71992751D01*
X121229000Y-71978000D01*
X121116752Y-72045773D01*
G37*
X121116752Y-72045773D02*
X121102000Y-72105000D01*
X121169773Y-72217248D01*
X121229000Y-72232000D01*
X121341249Y-72164227D01*
X121356000Y-72105000D01*
X121288228Y-71992751D01*
X121229000Y-71978000D01*
X121116752Y-72045773D01*
G36*
X115836604Y-72274081D02*
G01*
X115762964Y-72370673D01*
X115820929Y-72477301D01*
X115895000Y-72516618D01*
X116007631Y-72629768D01*
X116022000Y-72695009D01*
X116088591Y-72808957D01*
X116149000Y-72824667D01*
X116242932Y-72760407D01*
X116275771Y-72555322D01*
X116276000Y-72528333D01*
X116261841Y-72329238D01*
X116190021Y-72247578D01*
X116022000Y-72232000D01*
X115836604Y-72274081D01*
G37*
X115836604Y-72274081D02*
X115762964Y-72370673D01*
X115820929Y-72477301D01*
X115895000Y-72516618D01*
X116007631Y-72629768D01*
X116022000Y-72695009D01*
X116088591Y-72808957D01*
X116149000Y-72824667D01*
X116242932Y-72760407D01*
X116275771Y-72555322D01*
X116276000Y-72528333D01*
X116261841Y-72329238D01*
X116190021Y-72247578D01*
X116022000Y-72232000D01*
X115836604Y-72274081D01*
G36*
X120439419Y-72638439D02*
G01*
X120424667Y-72697667D01*
X120492440Y-72809915D01*
X120551667Y-72824667D01*
X120663916Y-72756894D01*
X120678667Y-72697667D01*
X120610894Y-72585418D01*
X120551667Y-72570667D01*
X120439419Y-72638439D01*
G37*
X120439419Y-72638439D02*
X120424667Y-72697667D01*
X120492440Y-72809915D01*
X120551667Y-72824667D01*
X120663916Y-72756894D01*
X120678667Y-72697667D01*
X120610894Y-72585418D01*
X120551667Y-72570667D01*
X120439419Y-72638439D01*
G36*
X116797055Y-72583773D02*
G01*
X116715603Y-72657719D01*
X116699371Y-72844444D01*
X116699334Y-72867000D01*
X116712440Y-73065612D01*
X116786387Y-73147064D01*
X116973112Y-73163296D01*
X116995667Y-73163333D01*
X117194279Y-73150227D01*
X117275731Y-73076280D01*
X117291964Y-72889555D01*
X117292000Y-72867000D01*
X117278894Y-72668388D01*
X117204948Y-72586936D01*
X117018223Y-72570703D01*
X116995667Y-72570667D01*
X116797055Y-72583773D01*
G37*
X116797055Y-72583773D02*
X116715603Y-72657719D01*
X116699371Y-72844444D01*
X116699334Y-72867000D01*
X116712440Y-73065612D01*
X116786387Y-73147064D01*
X116973112Y-73163296D01*
X116995667Y-73163333D01*
X117194279Y-73150227D01*
X117275731Y-73076280D01*
X117291964Y-72889555D01*
X117292000Y-72867000D01*
X117278894Y-72668388D01*
X117204948Y-72586936D01*
X117018223Y-72570703D01*
X116995667Y-72570667D01*
X116797055Y-72583773D01*
G36*
X117630667Y-73163333D02*
G01*
X118477334Y-73163333D01*
X118477334Y-72570667D01*
X117630667Y-72570667D01*
X117630667Y-73163333D01*
G37*
X117630667Y-73163333D02*
X118477334Y-73163333D01*
X118477334Y-72570667D01*
X117630667Y-72570667D01*
X117630667Y-73163333D01*
G36*
X118900667Y-73163333D02*
G01*
X120086000Y-73163333D01*
X120086000Y-72570667D01*
X118900667Y-72570667D01*
X118900667Y-73163333D01*
G37*
X118900667Y-73163333D02*
X120086000Y-73163333D01*
X120086000Y-72570667D01*
X118900667Y-72570667D01*
X118900667Y-73163333D01*
G36*
X113852096Y-70760939D02*
G01*
X113820667Y-70835000D01*
X113883562Y-70941609D01*
X114017285Y-70955620D01*
X114102889Y-70905555D01*
X114157133Y-70784728D01*
X114061616Y-70714591D01*
X113990000Y-70708000D01*
X113852096Y-70760939D01*
G37*
X113852096Y-70760939D02*
X113820667Y-70835000D01*
X113883562Y-70941609D01*
X114017285Y-70955620D01*
X114102889Y-70905555D01*
X114157133Y-70784728D01*
X114061616Y-70714591D01*
X113990000Y-70708000D01*
X113852096Y-70760939D01*
G36*
X117556794Y-66305755D02*
G01*
X117040435Y-66308002D01*
X116655104Y-66313547D01*
X116381648Y-66323864D01*
X116200915Y-66340427D01*
X116093752Y-66364708D01*
X116041008Y-66398180D01*
X116023528Y-66442318D01*
X116022000Y-66474667D01*
X116001788Y-66572524D01*
X115914399Y-66623502D01*
X115719703Y-66642194D01*
X115556334Y-66644000D01*
X115275509Y-66655402D01*
X115130929Y-66695410D01*
X115090667Y-66771000D01*
X115026408Y-66864931D01*
X114821323Y-66897770D01*
X114794334Y-66898000D01*
X114590095Y-66916942D01*
X114507687Y-66990889D01*
X114498000Y-67067333D01*
X114438132Y-67208837D01*
X114328667Y-67236667D01*
X114187163Y-67296535D01*
X114159334Y-67406000D01*
X114099465Y-67547504D01*
X113990000Y-67575333D01*
X113851083Y-67629497D01*
X113820667Y-67704990D01*
X113752170Y-67846262D01*
X113693667Y-67883382D01*
X113598589Y-67999570D01*
X113566667Y-68184985D01*
X113526156Y-68392278D01*
X113397334Y-68482134D01*
X113321447Y-68515116D01*
X113272303Y-68587393D01*
X113244173Y-68730482D01*
X113231324Y-68975905D01*
X113228027Y-69355180D01*
X113228000Y-69413468D01*
X113230508Y-69811657D01*
X113241852Y-70072062D01*
X113267763Y-70226200D01*
X113313971Y-70305591D01*
X113386208Y-70341755D01*
X113397334Y-70344801D01*
X113534931Y-70429849D01*
X113566667Y-70506208D01*
X113634653Y-70609833D01*
X113693667Y-70623333D01*
X113805916Y-70555560D01*
X113820667Y-70496333D01*
X113891253Y-70392905D01*
X113990000Y-70369333D01*
X114127325Y-70418136D01*
X114159334Y-70486458D01*
X114230269Y-70600182D01*
X114328667Y-70647865D01*
X114466405Y-70743892D01*
X114498000Y-70835000D01*
X114426869Y-70969799D01*
X114328667Y-71022134D01*
X114191070Y-71107182D01*
X114159334Y-71183541D01*
X114088777Y-71278526D01*
X113990000Y-71300667D01*
X113900415Y-71316911D01*
X113849401Y-71389963D01*
X113826358Y-71556304D01*
X113820688Y-71852415D01*
X113820667Y-71883458D01*
X113826460Y-72196157D01*
X113850916Y-72379036D01*
X113904654Y-72471420D01*
X113990000Y-72510532D01*
X114127646Y-72598963D01*
X114159334Y-72679865D01*
X114230337Y-72800084D01*
X114328667Y-72849199D01*
X114466313Y-72937629D01*
X114498000Y-73018532D01*
X114569004Y-73138750D01*
X114667334Y-73187865D01*
X114805034Y-73280511D01*
X114836667Y-73367073D01*
X114891442Y-73464654D01*
X115074759Y-73500950D01*
X115133000Y-73502000D01*
X115352174Y-73529540D01*
X115428798Y-73617433D01*
X115429334Y-73629000D01*
X115493593Y-73722931D01*
X115698678Y-73755770D01*
X115725667Y-73756000D01*
X115929906Y-73774942D01*
X116012314Y-73848889D01*
X116022000Y-73925333D01*
X116027278Y-73975442D01*
X116055554Y-74014546D01*
X116125492Y-74044010D01*
X116255757Y-74065195D01*
X116465014Y-74079465D01*
X116771928Y-74088184D01*
X117195162Y-74092715D01*
X117753382Y-74094420D01*
X118340459Y-74094667D01*
X119026979Y-74094237D01*
X119563193Y-74092038D01*
X119968129Y-74086708D01*
X120260815Y-74076881D01*
X120460276Y-74061195D01*
X120585541Y-74038286D01*
X120655637Y-74006790D01*
X120689591Y-73965343D01*
X120703199Y-73925333D01*
X120780109Y-73804982D01*
X120956220Y-73758881D01*
X121051741Y-73756000D01*
X121282637Y-73725592D01*
X121356000Y-73638875D01*
X121426936Y-73525151D01*
X121525334Y-73477468D01*
X121663034Y-73384822D01*
X121694667Y-73298260D01*
X121759031Y-73181002D01*
X121821667Y-73163333D01*
X121914454Y-73100851D01*
X121948173Y-72899748D01*
X121948667Y-72859073D01*
X121973955Y-72636213D01*
X122065259Y-72529501D01*
X122118000Y-72510532D01*
X122208417Y-72466952D01*
X122259695Y-72369372D01*
X122282454Y-72178468D01*
X122284369Y-72062667D01*
X122033334Y-72062667D01*
X122001201Y-72178177D01*
X121874840Y-72225704D01*
X121729074Y-72232000D01*
X121506214Y-72257288D01*
X121399502Y-72348591D01*
X121380533Y-72401333D01*
X121299699Y-72538863D01*
X121229000Y-72570667D01*
X121123368Y-72641508D01*
X121077468Y-72740000D01*
X120989038Y-72877646D01*
X120908135Y-72909333D01*
X120787917Y-72980337D01*
X120738802Y-73078667D01*
X120646156Y-73216366D01*
X120559594Y-73248000D01*
X120442336Y-73312363D01*
X120424667Y-73375000D01*
X120404826Y-73416580D01*
X120332270Y-73448175D01*
X120187449Y-73471089D01*
X119950813Y-73486625D01*
X119602813Y-73496087D01*
X119123900Y-73500777D01*
X118519667Y-73502000D01*
X117895968Y-73500677D01*
X117422038Y-73495840D01*
X117078327Y-73486185D01*
X116845286Y-73470410D01*
X116703366Y-73447210D01*
X116633017Y-73415282D01*
X116614667Y-73375000D01*
X116541338Y-73275561D01*
X116352741Y-73248000D01*
X116142766Y-73210962D01*
X116048262Y-73085032D01*
X116046533Y-73078667D01*
X115958102Y-72941021D01*
X115877199Y-72909333D01*
X115756981Y-72838330D01*
X115707866Y-72740000D01*
X115625630Y-72616078D01*
X115438110Y-72571987D01*
X115377126Y-72570667D01*
X115177060Y-72550266D01*
X115098444Y-72471393D01*
X115090667Y-72401333D01*
X115143607Y-72263429D01*
X115217667Y-72232000D01*
X115329916Y-72164227D01*
X115344667Y-72105000D01*
X115276894Y-71992751D01*
X115217667Y-71978000D01*
X115105419Y-72045773D01*
X115090667Y-72105000D01*
X115034744Y-72193307D01*
X114849365Y-72229695D01*
X114752000Y-72232000D01*
X114521119Y-72213041D01*
X114423018Y-72147343D01*
X114413334Y-72097073D01*
X114484413Y-71968765D01*
X114582667Y-71917865D01*
X114706589Y-71835630D01*
X114750680Y-71648109D01*
X114752000Y-71587125D01*
X114772401Y-71387059D01*
X114851274Y-71308443D01*
X114921334Y-71300667D01*
X115059238Y-71353606D01*
X115090667Y-71427667D01*
X115153149Y-71520453D01*
X115354252Y-71554173D01*
X115394927Y-71554667D01*
X115617787Y-71579954D01*
X115724499Y-71671258D01*
X115743468Y-71724000D01*
X115825704Y-71847922D01*
X116013224Y-71892013D01*
X116074209Y-71893333D01*
X116274274Y-71913734D01*
X116352890Y-71992606D01*
X116360667Y-72062667D01*
X116366226Y-72114381D01*
X116395794Y-72154330D01*
X116468711Y-72184032D01*
X116604315Y-72205004D01*
X116821943Y-72218761D01*
X117140936Y-72226821D01*
X117580631Y-72230701D01*
X118160367Y-72231917D01*
X118519667Y-72232000D01*
X119184514Y-72231048D01*
X119698849Y-72227407D01*
X120081487Y-72219903D01*
X120351243Y-72207359D01*
X120526933Y-72188599D01*
X120627370Y-72162448D01*
X120671370Y-72127729D01*
X120678667Y-72097073D01*
X120749471Y-71967076D01*
X120840173Y-71919912D01*
X120995881Y-71809446D01*
X121043913Y-71716172D01*
X121137961Y-71582730D01*
X121221074Y-71554667D01*
X121338332Y-71490303D01*
X121356000Y-71427667D01*
X121426587Y-71324238D01*
X121525334Y-71300667D01*
X121642042Y-71333815D01*
X121689132Y-71463222D01*
X121694667Y-71597000D01*
X121713609Y-71801239D01*
X121787556Y-71883647D01*
X121864000Y-71893333D01*
X122005505Y-71953202D01*
X122033334Y-72062667D01*
X122284369Y-72062667D01*
X122287334Y-71883458D01*
X122282614Y-71575134D01*
X122261388Y-71399560D01*
X122213057Y-71320254D01*
X122127020Y-71300738D01*
X122118000Y-71300667D01*
X122002490Y-71268534D01*
X121954963Y-71142173D01*
X121948667Y-70996407D01*
X121973955Y-70773546D01*
X122065259Y-70666834D01*
X122118000Y-70647865D01*
X122184371Y-70620605D01*
X122222689Y-70571849D01*
X121694073Y-70571849D01*
X121619180Y-70681331D01*
X121511223Y-70708000D01*
X121389806Y-70728515D01*
X121383488Y-70763710D01*
X121385862Y-70865515D01*
X121344899Y-70933043D01*
X121212659Y-70998384D01*
X120939628Y-71035595D01*
X120541300Y-71046667D01*
X120184479Y-71052217D01*
X119967094Y-71072406D01*
X119859506Y-71112540D01*
X119832000Y-71173667D01*
X119896260Y-71267598D01*
X120101345Y-71300437D01*
X120128334Y-71300667D01*
X120332573Y-71319608D01*
X120414981Y-71393555D01*
X120424667Y-71470000D01*
X120392534Y-71585511D01*
X120266174Y-71633038D01*
X120120407Y-71639333D01*
X119897547Y-71614045D01*
X119790835Y-71522742D01*
X119771866Y-71470000D01*
X119686818Y-71332403D01*
X119610459Y-71300667D01*
X119585478Y-71278629D01*
X119239334Y-71278629D01*
X119225751Y-71471146D01*
X119160087Y-71579500D01*
X119004974Y-71627573D01*
X118723040Y-71639244D01*
X118674889Y-71639333D01*
X118223334Y-71639333D01*
X118223334Y-71470000D01*
X117292000Y-71470000D01*
X117263600Y-71580784D01*
X117148811Y-71629746D01*
X116953334Y-71639333D01*
X116731766Y-71625133D01*
X116633841Y-71567739D01*
X116614667Y-71470000D01*
X116643067Y-71359216D01*
X116757856Y-71310254D01*
X116953334Y-71300667D01*
X117174902Y-71314867D01*
X117272826Y-71372261D01*
X117292000Y-71470000D01*
X118223334Y-71470000D01*
X118223334Y-71300667D01*
X118247934Y-71056457D01*
X118324291Y-70963567D01*
X118340459Y-70962000D01*
X118454183Y-70891064D01*
X118501866Y-70792667D01*
X118599608Y-70653887D01*
X118741752Y-70635367D01*
X118857334Y-70738599D01*
X118874088Y-70784839D01*
X118984555Y-70940547D01*
X119077828Y-70988579D01*
X119206422Y-71090787D01*
X119239334Y-71278629D01*
X119585478Y-71278629D01*
X119521378Y-71222083D01*
X119493334Y-71004333D01*
X119474392Y-70800094D01*
X119400445Y-70717686D01*
X119324000Y-70708000D01*
X119229424Y-70689464D01*
X119178320Y-70608040D01*
X119157780Y-70425002D01*
X119154667Y-70200000D01*
X117969334Y-70200000D01*
X117958715Y-70467069D01*
X117916346Y-70610584D01*
X117826457Y-70675567D01*
X117800000Y-70683468D01*
X117676078Y-70765703D01*
X117631988Y-70953224D01*
X117630667Y-71014208D01*
X117610266Y-71214274D01*
X117531394Y-71292890D01*
X117461334Y-71300667D01*
X117323430Y-71247727D01*
X117292000Y-71173667D01*
X117267471Y-71120773D01*
X117177184Y-71084521D01*
X116996092Y-71062020D01*
X116699148Y-71050379D01*
X116261303Y-71046709D01*
X116191334Y-71046667D01*
X115741993Y-71045230D01*
X115434993Y-71038154D01*
X115243349Y-71021286D01*
X115140075Y-70990474D01*
X115098187Y-70941567D01*
X115090667Y-70877333D01*
X115030799Y-70735829D01*
X114921334Y-70708000D01*
X114779830Y-70648131D01*
X114752000Y-70538667D01*
X114808345Y-70398112D01*
X114886927Y-70369333D01*
X115015235Y-70298254D01*
X115066135Y-70200000D01*
X115093395Y-70133629D01*
X115152364Y-70087285D01*
X115269682Y-70057394D01*
X115471992Y-70040381D01*
X115785934Y-70032671D01*
X116238150Y-70030691D01*
X116328209Y-70030667D01*
X116813620Y-70028221D01*
X117153723Y-70019217D01*
X117372493Y-70001155D01*
X117493905Y-69971534D01*
X117541936Y-69927854D01*
X117546000Y-69903667D01*
X117478228Y-69791418D01*
X117419000Y-69776667D01*
X117315572Y-69706080D01*
X117292000Y-69607333D01*
X117263600Y-69496549D01*
X117148811Y-69447587D01*
X116953334Y-69438000D01*
X116731766Y-69423800D01*
X116633841Y-69366405D01*
X116614667Y-69268667D01*
X116643067Y-69157882D01*
X116757856Y-69108920D01*
X116953334Y-69099333D01*
X117188819Y-69120304D01*
X117285854Y-69189822D01*
X117292000Y-69226333D01*
X117360381Y-69336702D01*
X117426927Y-69353333D01*
X117556924Y-69424137D01*
X117604088Y-69514839D01*
X117714555Y-69670547D01*
X117807828Y-69718579D01*
X117905647Y-69774790D01*
X117954533Y-69906104D01*
X117969179Y-70156320D01*
X117969334Y-70200000D01*
X119154667Y-70200000D01*
X119160846Y-69916272D01*
X119187987Y-69762960D01*
X119249000Y-69701339D01*
X119324000Y-69692000D01*
X119465505Y-69632131D01*
X119493334Y-69522667D01*
X119546273Y-69384762D01*
X119620334Y-69353333D01*
X119732582Y-69285560D01*
X119747334Y-69226333D01*
X119803257Y-69138026D01*
X119988636Y-69101638D01*
X120086000Y-69099333D01*
X120307569Y-69113533D01*
X120405493Y-69170928D01*
X120424667Y-69268667D01*
X120391519Y-69385375D01*
X120262112Y-69432465D01*
X120128334Y-69438000D01*
X119914021Y-69462940D01*
X119834307Y-69546408D01*
X119832000Y-69572926D01*
X119760922Y-69701234D01*
X119662667Y-69752134D01*
X119525088Y-69835998D01*
X119493334Y-69910768D01*
X119533710Y-69964006D01*
X119669889Y-70002039D01*
X119924445Y-70028146D01*
X120319954Y-70045604D01*
X120445834Y-70049060D01*
X120875606Y-70064322D01*
X121158630Y-70086657D01*
X121317450Y-70119390D01*
X121374609Y-70165848D01*
X121374737Y-70186124D01*
X121424940Y-70294729D01*
X121522904Y-70344166D01*
X121662685Y-70437515D01*
X121694073Y-70571849D01*
X122222689Y-70571849D01*
X122230715Y-70561637D01*
X122260606Y-70444318D01*
X122277619Y-70242009D01*
X122285329Y-69928066D01*
X122287310Y-69475850D01*
X122287334Y-69385792D01*
X122286137Y-68909361D01*
X122280167Y-68576579D01*
X122265853Y-68361768D01*
X122239624Y-68239247D01*
X122197909Y-68183337D01*
X122137137Y-68168358D01*
X122118000Y-68168000D01*
X122001292Y-68134852D01*
X121954202Y-68005444D01*
X121948667Y-67871667D01*
X121917607Y-67646285D01*
X121831542Y-67575333D01*
X121717818Y-67504398D01*
X121670135Y-67406000D01*
X121577490Y-67268300D01*
X121490927Y-67236667D01*
X121373763Y-67168450D01*
X121356000Y-67101740D01*
X121284922Y-66973432D01*
X121186667Y-66922532D01*
X121049070Y-66837484D01*
X121017334Y-66761125D01*
X120938750Y-66672044D01*
X120721000Y-66644000D01*
X120516761Y-66625058D01*
X120434354Y-66551111D01*
X120424667Y-66474667D01*
X120419187Y-66423394D01*
X120389977Y-66383674D01*
X120317886Y-66354033D01*
X120183761Y-66332998D01*
X119968449Y-66319096D01*
X119652798Y-66310853D01*
X119217655Y-66306795D01*
X118643869Y-66305451D01*
X118223334Y-66305333D01*
X117556794Y-66305755D01*
G37*
X117556794Y-66305755D02*
X117040435Y-66308002D01*
X116655104Y-66313547D01*
X116381648Y-66323864D01*
X116200915Y-66340427D01*
X116093752Y-66364708D01*
X116041008Y-66398180D01*
X116023528Y-66442318D01*
X116022000Y-66474667D01*
X116001788Y-66572524D01*
X115914399Y-66623502D01*
X115719703Y-66642194D01*
X115556334Y-66644000D01*
X115275509Y-66655402D01*
X115130929Y-66695410D01*
X115090667Y-66771000D01*
X115026408Y-66864931D01*
X114821323Y-66897770D01*
X114794334Y-66898000D01*
X114590095Y-66916942D01*
X114507687Y-66990889D01*
X114498000Y-67067333D01*
X114438132Y-67208837D01*
X114328667Y-67236667D01*
X114187163Y-67296535D01*
X114159334Y-67406000D01*
X114099465Y-67547504D01*
X113990000Y-67575333D01*
X113851083Y-67629497D01*
X113820667Y-67704990D01*
X113752170Y-67846262D01*
X113693667Y-67883382D01*
X113598589Y-67999570D01*
X113566667Y-68184985D01*
X113526156Y-68392278D01*
X113397334Y-68482134D01*
X113321447Y-68515116D01*
X113272303Y-68587393D01*
X113244173Y-68730482D01*
X113231324Y-68975905D01*
X113228027Y-69355180D01*
X113228000Y-69413468D01*
X113230508Y-69811657D01*
X113241852Y-70072062D01*
X113267763Y-70226200D01*
X113313971Y-70305591D01*
X113386208Y-70341755D01*
X113397334Y-70344801D01*
X113534931Y-70429849D01*
X113566667Y-70506208D01*
X113634653Y-70609833D01*
X113693667Y-70623333D01*
X113805916Y-70555560D01*
X113820667Y-70496333D01*
X113891253Y-70392905D01*
X113990000Y-70369333D01*
X114127325Y-70418136D01*
X114159334Y-70486458D01*
X114230269Y-70600182D01*
X114328667Y-70647865D01*
X114466405Y-70743892D01*
X114498000Y-70835000D01*
X114426869Y-70969799D01*
X114328667Y-71022134D01*
X114191070Y-71107182D01*
X114159334Y-71183541D01*
X114088777Y-71278526D01*
X113990000Y-71300667D01*
X113900415Y-71316911D01*
X113849401Y-71389963D01*
X113826358Y-71556304D01*
X113820688Y-71852415D01*
X113820667Y-71883458D01*
X113826460Y-72196157D01*
X113850916Y-72379036D01*
X113904654Y-72471420D01*
X113990000Y-72510532D01*
X114127646Y-72598963D01*
X114159334Y-72679865D01*
X114230337Y-72800084D01*
X114328667Y-72849199D01*
X114466313Y-72937629D01*
X114498000Y-73018532D01*
X114569004Y-73138750D01*
X114667334Y-73187865D01*
X114805034Y-73280511D01*
X114836667Y-73367073D01*
X114891442Y-73464654D01*
X115074759Y-73500950D01*
X115133000Y-73502000D01*
X115352174Y-73529540D01*
X115428798Y-73617433D01*
X115429334Y-73629000D01*
X115493593Y-73722931D01*
X115698678Y-73755770D01*
X115725667Y-73756000D01*
X115929906Y-73774942D01*
X116012314Y-73848889D01*
X116022000Y-73925333D01*
X116027278Y-73975442D01*
X116055554Y-74014546D01*
X116125492Y-74044010D01*
X116255757Y-74065195D01*
X116465014Y-74079465D01*
X116771928Y-74088184D01*
X117195162Y-74092715D01*
X117753382Y-74094420D01*
X118340459Y-74094667D01*
X119026979Y-74094237D01*
X119563193Y-74092038D01*
X119968129Y-74086708D01*
X120260815Y-74076881D01*
X120460276Y-74061195D01*
X120585541Y-74038286D01*
X120655637Y-74006790D01*
X120689591Y-73965343D01*
X120703199Y-73925333D01*
X120780109Y-73804982D01*
X120956220Y-73758881D01*
X121051741Y-73756000D01*
X121282637Y-73725592D01*
X121356000Y-73638875D01*
X121426936Y-73525151D01*
X121525334Y-73477468D01*
X121663034Y-73384822D01*
X121694667Y-73298260D01*
X121759031Y-73181002D01*
X121821667Y-73163333D01*
X121914454Y-73100851D01*
X121948173Y-72899748D01*
X121948667Y-72859073D01*
X121973955Y-72636213D01*
X122065259Y-72529501D01*
X122118000Y-72510532D01*
X122208417Y-72466952D01*
X122259695Y-72369372D01*
X122282454Y-72178468D01*
X122284369Y-72062667D01*
X122033334Y-72062667D01*
X122001201Y-72178177D01*
X121874840Y-72225704D01*
X121729074Y-72232000D01*
X121506214Y-72257288D01*
X121399502Y-72348591D01*
X121380533Y-72401333D01*
X121299699Y-72538863D01*
X121229000Y-72570667D01*
X121123368Y-72641508D01*
X121077468Y-72740000D01*
X120989038Y-72877646D01*
X120908135Y-72909333D01*
X120787917Y-72980337D01*
X120738802Y-73078667D01*
X120646156Y-73216366D01*
X120559594Y-73248000D01*
X120442336Y-73312363D01*
X120424667Y-73375000D01*
X120404826Y-73416580D01*
X120332270Y-73448175D01*
X120187449Y-73471089D01*
X119950813Y-73486625D01*
X119602813Y-73496087D01*
X119123900Y-73500777D01*
X118519667Y-73502000D01*
X117895968Y-73500677D01*
X117422038Y-73495840D01*
X117078327Y-73486185D01*
X116845286Y-73470410D01*
X116703366Y-73447210D01*
X116633017Y-73415282D01*
X116614667Y-73375000D01*
X116541338Y-73275561D01*
X116352741Y-73248000D01*
X116142766Y-73210962D01*
X116048262Y-73085032D01*
X116046533Y-73078667D01*
X115958102Y-72941021D01*
X115877199Y-72909333D01*
X115756981Y-72838330D01*
X115707866Y-72740000D01*
X115625630Y-72616078D01*
X115438110Y-72571987D01*
X115377126Y-72570667D01*
X115177060Y-72550266D01*
X115098444Y-72471393D01*
X115090667Y-72401333D01*
X115143607Y-72263429D01*
X115217667Y-72232000D01*
X115329916Y-72164227D01*
X115344667Y-72105000D01*
X115276894Y-71992751D01*
X115217667Y-71978000D01*
X115105419Y-72045773D01*
X115090667Y-72105000D01*
X115034744Y-72193307D01*
X114849365Y-72229695D01*
X114752000Y-72232000D01*
X114521119Y-72213041D01*
X114423018Y-72147343D01*
X114413334Y-72097073D01*
X114484413Y-71968765D01*
X114582667Y-71917865D01*
X114706589Y-71835630D01*
X114750680Y-71648109D01*
X114752000Y-71587125D01*
X114772401Y-71387059D01*
X114851274Y-71308443D01*
X114921334Y-71300667D01*
X115059238Y-71353606D01*
X115090667Y-71427667D01*
X115153149Y-71520453D01*
X115354252Y-71554173D01*
X115394927Y-71554667D01*
X115617787Y-71579954D01*
X115724499Y-71671258D01*
X115743468Y-71724000D01*
X115825704Y-71847922D01*
X116013224Y-71892013D01*
X116074209Y-71893333D01*
X116274274Y-71913734D01*
X116352890Y-71992606D01*
X116360667Y-72062667D01*
X116366226Y-72114381D01*
X116395794Y-72154330D01*
X116468711Y-72184032D01*
X116604315Y-72205004D01*
X116821943Y-72218761D01*
X117140936Y-72226821D01*
X117580631Y-72230701D01*
X118160367Y-72231917D01*
X118519667Y-72232000D01*
X119184514Y-72231048D01*
X119698849Y-72227407D01*
X120081487Y-72219903D01*
X120351243Y-72207359D01*
X120526933Y-72188599D01*
X120627370Y-72162448D01*
X120671370Y-72127729D01*
X120678667Y-72097073D01*
X120749471Y-71967076D01*
X120840173Y-71919912D01*
X120995881Y-71809446D01*
X121043913Y-71716172D01*
X121137961Y-71582730D01*
X121221074Y-71554667D01*
X121338332Y-71490303D01*
X121356000Y-71427667D01*
X121426587Y-71324238D01*
X121525334Y-71300667D01*
X121642042Y-71333815D01*
X121689132Y-71463222D01*
X121694667Y-71597000D01*
X121713609Y-71801239D01*
X121787556Y-71883647D01*
X121864000Y-71893333D01*
X122005505Y-71953202D01*
X122033334Y-72062667D01*
X122284369Y-72062667D01*
X122287334Y-71883458D01*
X122282614Y-71575134D01*
X122261388Y-71399560D01*
X122213057Y-71320254D01*
X122127020Y-71300738D01*
X122118000Y-71300667D01*
X122002490Y-71268534D01*
X121954963Y-71142173D01*
X121948667Y-70996407D01*
X121973955Y-70773546D01*
X122065259Y-70666834D01*
X122118000Y-70647865D01*
X122184371Y-70620605D01*
X122222689Y-70571849D01*
X121694073Y-70571849D01*
X121619180Y-70681331D01*
X121511223Y-70708000D01*
X121389806Y-70728515D01*
X121383488Y-70763710D01*
X121385862Y-70865515D01*
X121344899Y-70933043D01*
X121212659Y-70998384D01*
X120939628Y-71035595D01*
X120541300Y-71046667D01*
X120184479Y-71052217D01*
X119967094Y-71072406D01*
X119859506Y-71112540D01*
X119832000Y-71173667D01*
X119896260Y-71267598D01*
X120101345Y-71300437D01*
X120128334Y-71300667D01*
X120332573Y-71319608D01*
X120414981Y-71393555D01*
X120424667Y-71470000D01*
X120392534Y-71585511D01*
X120266174Y-71633038D01*
X120120407Y-71639333D01*
X119897547Y-71614045D01*
X119790835Y-71522742D01*
X119771866Y-71470000D01*
X119686818Y-71332403D01*
X119610459Y-71300667D01*
X119585478Y-71278629D01*
X119239334Y-71278629D01*
X119225751Y-71471146D01*
X119160087Y-71579500D01*
X119004974Y-71627573D01*
X118723040Y-71639244D01*
X118674889Y-71639333D01*
X118223334Y-71639333D01*
X118223334Y-71470000D01*
X117292000Y-71470000D01*
X117263600Y-71580784D01*
X117148811Y-71629746D01*
X116953334Y-71639333D01*
X116731766Y-71625133D01*
X116633841Y-71567739D01*
X116614667Y-71470000D01*
X116643067Y-71359216D01*
X116757856Y-71310254D01*
X116953334Y-71300667D01*
X117174902Y-71314867D01*
X117272826Y-71372261D01*
X117292000Y-71470000D01*
X118223334Y-71470000D01*
X118223334Y-71300667D01*
X118247934Y-71056457D01*
X118324291Y-70963567D01*
X118340459Y-70962000D01*
X118454183Y-70891064D01*
X118501866Y-70792667D01*
X118599608Y-70653887D01*
X118741752Y-70635367D01*
X118857334Y-70738599D01*
X118874088Y-70784839D01*
X118984555Y-70940547D01*
X119077828Y-70988579D01*
X119206422Y-71090787D01*
X119239334Y-71278629D01*
X119585478Y-71278629D01*
X119521378Y-71222083D01*
X119493334Y-71004333D01*
X119474392Y-70800094D01*
X119400445Y-70717686D01*
X119324000Y-70708000D01*
X119229424Y-70689464D01*
X119178320Y-70608040D01*
X119157780Y-70425002D01*
X119154667Y-70200000D01*
X117969334Y-70200000D01*
X117958715Y-70467069D01*
X117916346Y-70610584D01*
X117826457Y-70675567D01*
X117800000Y-70683468D01*
X117676078Y-70765703D01*
X117631988Y-70953224D01*
X117630667Y-71014208D01*
X117610266Y-71214274D01*
X117531394Y-71292890D01*
X117461334Y-71300667D01*
X117323430Y-71247727D01*
X117292000Y-71173667D01*
X117267471Y-71120773D01*
X117177184Y-71084521D01*
X116996092Y-71062020D01*
X116699148Y-71050379D01*
X116261303Y-71046709D01*
X116191334Y-71046667D01*
X115741993Y-71045230D01*
X115434993Y-71038154D01*
X115243349Y-71021286D01*
X115140075Y-70990474D01*
X115098187Y-70941567D01*
X115090667Y-70877333D01*
X115030799Y-70735829D01*
X114921334Y-70708000D01*
X114779830Y-70648131D01*
X114752000Y-70538667D01*
X114808345Y-70398112D01*
X114886927Y-70369333D01*
X115015235Y-70298254D01*
X115066135Y-70200000D01*
X115093395Y-70133629D01*
X115152364Y-70087285D01*
X115269682Y-70057394D01*
X115471992Y-70040381D01*
X115785934Y-70032671D01*
X116238150Y-70030691D01*
X116328209Y-70030667D01*
X116813620Y-70028221D01*
X117153723Y-70019217D01*
X117372493Y-70001155D01*
X117493905Y-69971534D01*
X117541936Y-69927854D01*
X117546000Y-69903667D01*
X117478228Y-69791418D01*
X117419000Y-69776667D01*
X117315572Y-69706080D01*
X117292000Y-69607333D01*
X117263600Y-69496549D01*
X117148811Y-69447587D01*
X116953334Y-69438000D01*
X116731766Y-69423800D01*
X116633841Y-69366405D01*
X116614667Y-69268667D01*
X116643067Y-69157882D01*
X116757856Y-69108920D01*
X116953334Y-69099333D01*
X117188819Y-69120304D01*
X117285854Y-69189822D01*
X117292000Y-69226333D01*
X117360381Y-69336702D01*
X117426927Y-69353333D01*
X117556924Y-69424137D01*
X117604088Y-69514839D01*
X117714555Y-69670547D01*
X117807828Y-69718579D01*
X117905647Y-69774790D01*
X117954533Y-69906104D01*
X117969179Y-70156320D01*
X117969334Y-70200000D01*
X119154667Y-70200000D01*
X119160846Y-69916272D01*
X119187987Y-69762960D01*
X119249000Y-69701339D01*
X119324000Y-69692000D01*
X119465505Y-69632131D01*
X119493334Y-69522667D01*
X119546273Y-69384762D01*
X119620334Y-69353333D01*
X119732582Y-69285560D01*
X119747334Y-69226333D01*
X119803257Y-69138026D01*
X119988636Y-69101638D01*
X120086000Y-69099333D01*
X120307569Y-69113533D01*
X120405493Y-69170928D01*
X120424667Y-69268667D01*
X120391519Y-69385375D01*
X120262112Y-69432465D01*
X120128334Y-69438000D01*
X119914021Y-69462940D01*
X119834307Y-69546408D01*
X119832000Y-69572926D01*
X119760922Y-69701234D01*
X119662667Y-69752134D01*
X119525088Y-69835998D01*
X119493334Y-69910768D01*
X119533710Y-69964006D01*
X119669889Y-70002039D01*
X119924445Y-70028146D01*
X120319954Y-70045604D01*
X120445834Y-70049060D01*
X120875606Y-70064322D01*
X121158630Y-70086657D01*
X121317450Y-70119390D01*
X121374609Y-70165848D01*
X121374737Y-70186124D01*
X121424940Y-70294729D01*
X121522904Y-70344166D01*
X121662685Y-70437515D01*
X121694073Y-70571849D01*
X122222689Y-70571849D01*
X122230715Y-70561637D01*
X122260606Y-70444318D01*
X122277619Y-70242009D01*
X122285329Y-69928066D01*
X122287310Y-69475850D01*
X122287334Y-69385792D01*
X122286137Y-68909361D01*
X122280167Y-68576579D01*
X122265853Y-68361768D01*
X122239624Y-68239247D01*
X122197909Y-68183337D01*
X122137137Y-68168358D01*
X122118000Y-68168000D01*
X122001292Y-68134852D01*
X121954202Y-68005444D01*
X121948667Y-67871667D01*
X121917607Y-67646285D01*
X121831542Y-67575333D01*
X121717818Y-67504398D01*
X121670135Y-67406000D01*
X121577490Y-67268300D01*
X121490927Y-67236667D01*
X121373763Y-67168450D01*
X121356000Y-67101740D01*
X121284922Y-66973432D01*
X121186667Y-66922532D01*
X121049070Y-66837484D01*
X121017334Y-66761125D01*
X120938750Y-66672044D01*
X120721000Y-66644000D01*
X120516761Y-66625058D01*
X120434354Y-66551111D01*
X120424667Y-66474667D01*
X120419187Y-66423394D01*
X120389977Y-66383674D01*
X120317886Y-66354033D01*
X120183761Y-66332998D01*
X119968449Y-66319096D01*
X119652798Y-66310853D01*
X119217655Y-66306795D01*
X118643869Y-66305451D01*
X118223334Y-66305333D01*
X117556794Y-66305755D01*
D13*
G04 #@! TO.C,BT1*
X115260000Y-149290000D02*
X116760000Y-149290000D01*
X116010000Y-148540000D02*
X116010000Y-150040000D01*
X176000000Y-158250000D02*
X176000000Y-127750000D01*
X176000000Y-127750000D02*
X118000000Y-127750000D01*
X118000000Y-127750000D02*
X118000000Y-158250000D01*
X118000000Y-158250000D02*
X176000000Y-158250000D01*
X115260000Y-136590000D02*
X116760000Y-136590000D01*
G04 #@! TO.C,H1*
D14*
X106452380Y-150238095D02*
X105452380Y-150238095D01*
X105928571Y-150238095D02*
X105928571Y-150809523D01*
X106452380Y-150809523D02*
X105452380Y-150809523D01*
X106452380Y-151809523D02*
X106452380Y-151238095D01*
X106452380Y-151523809D02*
X105452380Y-151523809D01*
X105595238Y-151428571D01*
X105690476Y-151333333D01*
X105738095Y-151238095D01*
G04 #@! TO.C,H2*
X182452380Y-159238095D02*
X181452380Y-159238095D01*
X181928571Y-159238095D02*
X181928571Y-159809523D01*
X182452380Y-159809523D02*
X181452380Y-159809523D01*
X181547619Y-160238095D02*
X181500000Y-160285714D01*
X181452380Y-160380952D01*
X181452380Y-160619047D01*
X181500000Y-160714285D01*
X181547619Y-160761904D01*
X181642857Y-160809523D01*
X181738095Y-160809523D01*
X181880952Y-160761904D01*
X182452380Y-160190476D01*
X182452380Y-160809523D01*
G04 #@! TO.C,BT1*
X123420714Y-160213571D02*
X123277857Y-160261190D01*
X123230238Y-160308809D01*
X123182619Y-160404047D01*
X123182619Y-160546904D01*
X123230238Y-160642142D01*
X123277857Y-160689761D01*
X123373095Y-160737380D01*
X123754047Y-160737380D01*
X123754047Y-159737380D01*
X123420714Y-159737380D01*
X123325476Y-159785000D01*
X123277857Y-159832619D01*
X123230238Y-159927857D01*
X123230238Y-160023095D01*
X123277857Y-160118333D01*
X123325476Y-160165952D01*
X123420714Y-160213571D01*
X123754047Y-160213571D01*
X122896904Y-159737380D02*
X122325476Y-159737380D01*
X122611190Y-160737380D02*
X122611190Y-159737380D01*
X121468333Y-160737380D02*
X122039761Y-160737380D01*
X121754047Y-160737380D02*
X121754047Y-159737380D01*
X121849285Y-159880238D01*
X121944523Y-159975476D01*
X122039761Y-160023095D01*
D15*
X130349761Y-126333571D02*
X130206904Y-126381190D01*
X130159285Y-126428809D01*
X130111666Y-126524047D01*
X130111666Y-126666904D01*
X130159285Y-126762142D01*
X130206904Y-126809761D01*
X130302142Y-126857380D01*
X130683095Y-126857380D01*
X130683095Y-125857380D01*
X130349761Y-125857380D01*
X130254523Y-125905000D01*
X130206904Y-125952619D01*
X130159285Y-126047857D01*
X130159285Y-126143095D01*
X130206904Y-126238333D01*
X130254523Y-126285952D01*
X130349761Y-126333571D01*
X130683095Y-126333571D01*
X129254523Y-126857380D02*
X129254523Y-126333571D01*
X129302142Y-126238333D01*
X129397380Y-126190714D01*
X129587857Y-126190714D01*
X129683095Y-126238333D01*
X129254523Y-126809761D02*
X129349761Y-126857380D01*
X129587857Y-126857380D01*
X129683095Y-126809761D01*
X129730714Y-126714523D01*
X129730714Y-126619285D01*
X129683095Y-126524047D01*
X129587857Y-126476428D01*
X129349761Y-126476428D01*
X129254523Y-126428809D01*
X128921190Y-126190714D02*
X128540238Y-126190714D01*
X128778333Y-125857380D02*
X128778333Y-126714523D01*
X128730714Y-126809761D01*
X128635476Y-126857380D01*
X128540238Y-126857380D01*
X128349761Y-126190714D02*
X127968809Y-126190714D01*
X128206904Y-125857380D02*
X128206904Y-126714523D01*
X128159285Y-126809761D01*
X128064047Y-126857380D01*
X127968809Y-126857380D01*
X127254523Y-126809761D02*
X127349761Y-126857380D01*
X127540238Y-126857380D01*
X127635476Y-126809761D01*
X127683095Y-126714523D01*
X127683095Y-126333571D01*
X127635476Y-126238333D01*
X127540238Y-126190714D01*
X127349761Y-126190714D01*
X127254523Y-126238333D01*
X127206904Y-126333571D01*
X127206904Y-126428809D01*
X127683095Y-126524047D01*
X126778333Y-126857380D02*
X126778333Y-126190714D01*
X126778333Y-126381190D02*
X126730714Y-126285952D01*
X126683095Y-126238333D01*
X126587857Y-126190714D01*
X126492619Y-126190714D01*
X126254523Y-126190714D02*
X126016428Y-126857380D01*
X125778333Y-126190714D02*
X126016428Y-126857380D01*
X126111666Y-127095476D01*
X126159285Y-127143095D01*
X126254523Y-127190714D01*
X125635476Y-126952619D02*
X124873571Y-126952619D01*
X124064047Y-126762142D02*
X124111666Y-126809761D01*
X124254523Y-126857380D01*
X124349761Y-126857380D01*
X124492619Y-126809761D01*
X124587857Y-126714523D01*
X124635476Y-126619285D01*
X124683095Y-126428809D01*
X124683095Y-126285952D01*
X124635476Y-126095476D01*
X124587857Y-126000238D01*
X124492619Y-125905000D01*
X124349761Y-125857380D01*
X124254523Y-125857380D01*
X124111666Y-125905000D01*
X124064047Y-125952619D01*
X123254523Y-126809761D02*
X123349761Y-126857380D01*
X123540238Y-126857380D01*
X123635476Y-126809761D01*
X123683095Y-126714523D01*
X123683095Y-126333571D01*
X123635476Y-126238333D01*
X123540238Y-126190714D01*
X123349761Y-126190714D01*
X123254523Y-126238333D01*
X123206904Y-126333571D01*
X123206904Y-126428809D01*
X123683095Y-126524047D01*
X122635476Y-126857380D02*
X122730714Y-126809761D01*
X122778333Y-126714523D01*
X122778333Y-125857380D01*
X122111666Y-126857380D02*
X122206904Y-126809761D01*
X122254523Y-126714523D01*
X122254523Y-125857380D01*
G04 #@! TD*
M02*
