G04 #@! TF.GenerationSoftware,KiCad,Pcbnew,5.1.9+dfsg1-1*
G04 #@! TF.CreationDate,2022-06-11T23:01:35-07:00*
G04 #@! TF.ProjectId,brains_cn,62726169-6e73-45f6-936e-2e6b69636164,rev?*
G04 #@! TF.SameCoordinates,Original*
G04 #@! TF.FileFunction,Paste,Top*
G04 #@! TF.FilePolarity,Positive*
%FSLAX46Y46*%
G04 Gerber Fmt 4.6, Leading zero omitted, Abs format (unit mm)*
G04 Created by KiCad (PCBNEW 5.1.9+dfsg1-1) date 2022-06-11 23:01:35*
%MOMM*%
%LPD*%
G01*
G04 APERTURE LIST*
%ADD10R,3.000000X0.450000*%
%ADD11R,1.500000X1.000000*%
%ADD12R,3.500000X2.300000*%
%ADD13R,3.500000X1.800000*%
%ADD14R,0.700000X0.400000*%
G04 APERTURE END LIST*
D10*
G04 #@! TO.C,U1*
X148000000Y-83575000D03*
X148000000Y-82925000D03*
X148000000Y-82275000D03*
X148000000Y-81625000D03*
X148000000Y-80975000D03*
X148000000Y-80325000D03*
X148000000Y-79675000D03*
X148000000Y-79025000D03*
X148000000Y-78375000D03*
X148000000Y-77725000D03*
X148000000Y-77075000D03*
X148000000Y-76425000D03*
X140000000Y-76425000D03*
X140000000Y-77075000D03*
X140000000Y-77725000D03*
X140000000Y-78375000D03*
X140000000Y-79025000D03*
X140000000Y-79675000D03*
X140000000Y-80325000D03*
X140000000Y-80975000D03*
X140000000Y-81625000D03*
X140000000Y-82275000D03*
X140000000Y-82925000D03*
X140000000Y-83575000D03*
G04 #@! TD*
G04 #@! TO.C,C22*
G36*
G01*
X183675000Y-70762500D02*
X183675000Y-71237500D01*
G75*
G02*
X183437500Y-71475000I-237500J0D01*
G01*
X182837500Y-71475000D01*
G75*
G02*
X182600000Y-71237500I0J237500D01*
G01*
X182600000Y-70762500D01*
G75*
G02*
X182837500Y-70525000I237500J0D01*
G01*
X183437500Y-70525000D01*
G75*
G02*
X183675000Y-70762500I0J-237500D01*
G01*
G37*
G36*
G01*
X185400000Y-70762500D02*
X185400000Y-71237500D01*
G75*
G02*
X185162500Y-71475000I-237500J0D01*
G01*
X184562500Y-71475000D01*
G75*
G02*
X184325000Y-71237500I0J237500D01*
G01*
X184325000Y-70762500D01*
G75*
G02*
X184562500Y-70525000I237500J0D01*
G01*
X185162500Y-70525000D01*
G75*
G02*
X185400000Y-70762500I0J-237500D01*
G01*
G37*
G04 #@! TD*
D11*
G04 #@! TO.C,D9*
X183550000Y-47400000D03*
X183550000Y-50600000D03*
X188450000Y-47400000D03*
X188450000Y-50600000D03*
G04 #@! TD*
G04 #@! TO.C,D2*
X166450000Y-158600000D03*
X166450000Y-155400000D03*
X161550000Y-158600000D03*
X161550000Y-155400000D03*
G04 #@! TD*
G04 #@! TO.C,D6*
X107550000Y-99400000D03*
X107550000Y-102600000D03*
X112450000Y-99400000D03*
X112450000Y-102600000D03*
G04 #@! TD*
G04 #@! TO.C,D10*
X188450000Y-76600000D03*
X188450000Y-73400000D03*
X183550000Y-76600000D03*
X183550000Y-73400000D03*
G04 #@! TD*
G04 #@! TO.C,D3*
X129550000Y-155400000D03*
X129550000Y-158600000D03*
X134450000Y-155400000D03*
X134450000Y-158600000D03*
G04 #@! TD*
G04 #@! TO.C,D7*
X112450000Y-76600000D03*
X112450000Y-73400000D03*
X107550000Y-76600000D03*
X107550000Y-73400000D03*
G04 #@! TD*
G04 #@! TO.C,D11*
X183550000Y-99400000D03*
X183550000Y-102600000D03*
X188450000Y-99400000D03*
X188450000Y-102600000D03*
G04 #@! TD*
G04 #@! TO.C,D4*
X116550000Y-155400000D03*
X116550000Y-158600000D03*
X121450000Y-155400000D03*
X121450000Y-158600000D03*
G04 #@! TD*
G04 #@! TO.C,D8*
X112450000Y-50600000D03*
X112450000Y-47400000D03*
X107550000Y-50600000D03*
X107550000Y-47400000D03*
G04 #@! TD*
G04 #@! TO.C,D12*
X188450000Y-145600000D03*
X188450000Y-142400000D03*
X183550000Y-145600000D03*
X183550000Y-142400000D03*
G04 #@! TD*
G04 #@! TO.C,C1*
G36*
G01*
X161342500Y-61055000D02*
X161342500Y-62005000D01*
G75*
G02*
X161092500Y-62255000I-250000J0D01*
G01*
X160417500Y-62255000D01*
G75*
G02*
X160167500Y-62005000I0J250000D01*
G01*
X160167500Y-61055000D01*
G75*
G02*
X160417500Y-60805000I250000J0D01*
G01*
X161092500Y-60805000D01*
G75*
G02*
X161342500Y-61055000I0J-250000D01*
G01*
G37*
G36*
G01*
X163417500Y-61055000D02*
X163417500Y-62005000D01*
G75*
G02*
X163167500Y-62255000I-250000J0D01*
G01*
X162492500Y-62255000D01*
G75*
G02*
X162242500Y-62005000I0J250000D01*
G01*
X162242500Y-61055000D01*
G75*
G02*
X162492500Y-60805000I250000J0D01*
G01*
X163167500Y-60805000D01*
G75*
G02*
X163417500Y-61055000I0J-250000D01*
G01*
G37*
G04 #@! TD*
G04 #@! TO.C,C2*
G36*
G01*
X154035000Y-78075000D02*
X153085000Y-78075000D01*
G75*
G02*
X152835000Y-77825000I0J250000D01*
G01*
X152835000Y-77150000D01*
G75*
G02*
X153085000Y-76900000I250000J0D01*
G01*
X154035000Y-76900000D01*
G75*
G02*
X154285000Y-77150000I0J-250000D01*
G01*
X154285000Y-77825000D01*
G75*
G02*
X154035000Y-78075000I-250000J0D01*
G01*
G37*
G36*
G01*
X154035000Y-76000000D02*
X153085000Y-76000000D01*
G75*
G02*
X152835000Y-75750000I0J250000D01*
G01*
X152835000Y-75075000D01*
G75*
G02*
X153085000Y-74825000I250000J0D01*
G01*
X154035000Y-74825000D01*
G75*
G02*
X154285000Y-75075000I0J-250000D01*
G01*
X154285000Y-75750000D01*
G75*
G02*
X154035000Y-76000000I-250000J0D01*
G01*
G37*
G04 #@! TD*
G04 #@! TO.C,C3*
G36*
G01*
X139682500Y-84850000D02*
X140157500Y-84850000D01*
G75*
G02*
X140395000Y-85087500I0J-237500D01*
G01*
X140395000Y-85687500D01*
G75*
G02*
X140157500Y-85925000I-237500J0D01*
G01*
X139682500Y-85925000D01*
G75*
G02*
X139445000Y-85687500I0J237500D01*
G01*
X139445000Y-85087500D01*
G75*
G02*
X139682500Y-84850000I237500J0D01*
G01*
G37*
G36*
G01*
X139682500Y-86575000D02*
X140157500Y-86575000D01*
G75*
G02*
X140395000Y-86812500I0J-237500D01*
G01*
X140395000Y-87412500D01*
G75*
G02*
X140157500Y-87650000I-237500J0D01*
G01*
X139682500Y-87650000D01*
G75*
G02*
X139445000Y-87412500I0J237500D01*
G01*
X139445000Y-86812500D01*
G75*
G02*
X139682500Y-86575000I237500J0D01*
G01*
G37*
G04 #@! TD*
G04 #@! TO.C,C4*
G36*
G01*
X138237500Y-85675000D02*
X137762500Y-85675000D01*
G75*
G02*
X137525000Y-85437500I0J237500D01*
G01*
X137525000Y-84837500D01*
G75*
G02*
X137762500Y-84600000I237500J0D01*
G01*
X138237500Y-84600000D01*
G75*
G02*
X138475000Y-84837500I0J-237500D01*
G01*
X138475000Y-85437500D01*
G75*
G02*
X138237500Y-85675000I-237500J0D01*
G01*
G37*
G36*
G01*
X138237500Y-87400000D02*
X137762500Y-87400000D01*
G75*
G02*
X137525000Y-87162500I0J237500D01*
G01*
X137525000Y-86562500D01*
G75*
G02*
X137762500Y-86325000I237500J0D01*
G01*
X138237500Y-86325000D01*
G75*
G02*
X138475000Y-86562500I0J-237500D01*
G01*
X138475000Y-87162500D01*
G75*
G02*
X138237500Y-87400000I-237500J0D01*
G01*
G37*
G04 #@! TD*
G04 #@! TO.C,C6*
G36*
G01*
X131345000Y-113337500D02*
X131345000Y-112862500D01*
G75*
G02*
X131582500Y-112625000I237500J0D01*
G01*
X132182500Y-112625000D01*
G75*
G02*
X132420000Y-112862500I0J-237500D01*
G01*
X132420000Y-113337500D01*
G75*
G02*
X132182500Y-113575000I-237500J0D01*
G01*
X131582500Y-113575000D01*
G75*
G02*
X131345000Y-113337500I0J237500D01*
G01*
G37*
G36*
G01*
X133070000Y-113337500D02*
X133070000Y-112862500D01*
G75*
G02*
X133307500Y-112625000I237500J0D01*
G01*
X133907500Y-112625000D01*
G75*
G02*
X134145000Y-112862500I0J-237500D01*
G01*
X134145000Y-113337500D01*
G75*
G02*
X133907500Y-113575000I-237500J0D01*
G01*
X133307500Y-113575000D01*
G75*
G02*
X133070000Y-113337500I0J237500D01*
G01*
G37*
G04 #@! TD*
G04 #@! TO.C,C9*
G36*
G01*
X151717500Y-76322500D02*
X151242500Y-76322500D01*
G75*
G02*
X151005000Y-76085000I0J237500D01*
G01*
X151005000Y-75485000D01*
G75*
G02*
X151242500Y-75247500I237500J0D01*
G01*
X151717500Y-75247500D01*
G75*
G02*
X151955000Y-75485000I0J-237500D01*
G01*
X151955000Y-76085000D01*
G75*
G02*
X151717500Y-76322500I-237500J0D01*
G01*
G37*
G36*
G01*
X151717500Y-78047500D02*
X151242500Y-78047500D01*
G75*
G02*
X151005000Y-77810000I0J237500D01*
G01*
X151005000Y-77210000D01*
G75*
G02*
X151242500Y-76972500I237500J0D01*
G01*
X151717500Y-76972500D01*
G75*
G02*
X151955000Y-77210000I0J-237500D01*
G01*
X151955000Y-77810000D01*
G75*
G02*
X151717500Y-78047500I-237500J0D01*
G01*
G37*
G04 #@! TD*
G04 #@! TO.C,C11*
G36*
G01*
X131145000Y-109120001D02*
X131145000Y-107819999D01*
G75*
G02*
X131394999Y-107570000I249999J0D01*
G01*
X132220001Y-107570000D01*
G75*
G02*
X132470000Y-107819999I0J-249999D01*
G01*
X132470000Y-109120001D01*
G75*
G02*
X132220001Y-109370000I-249999J0D01*
G01*
X131394999Y-109370000D01*
G75*
G02*
X131145000Y-109120001I0J249999D01*
G01*
G37*
G36*
G01*
X134270000Y-109120001D02*
X134270000Y-107819999D01*
G75*
G02*
X134519999Y-107570000I249999J0D01*
G01*
X135345001Y-107570000D01*
G75*
G02*
X135595000Y-107819999I0J-249999D01*
G01*
X135595000Y-109120001D01*
G75*
G02*
X135345001Y-109370000I-249999J0D01*
G01*
X134519999Y-109370000D01*
G75*
G02*
X134270000Y-109120001I0J249999D01*
G01*
G37*
G04 #@! TD*
G04 #@! TO.C,C12*
G36*
G01*
X131345000Y-111337500D02*
X131345000Y-110862500D01*
G75*
G02*
X131582500Y-110625000I237500J0D01*
G01*
X132182500Y-110625000D01*
G75*
G02*
X132420000Y-110862500I0J-237500D01*
G01*
X132420000Y-111337500D01*
G75*
G02*
X132182500Y-111575000I-237500J0D01*
G01*
X131582500Y-111575000D01*
G75*
G02*
X131345000Y-111337500I0J237500D01*
G01*
G37*
G36*
G01*
X133070000Y-111337500D02*
X133070000Y-110862500D01*
G75*
G02*
X133307500Y-110625000I237500J0D01*
G01*
X133907500Y-110625000D01*
G75*
G02*
X134145000Y-110862500I0J-237500D01*
G01*
X134145000Y-111337500D01*
G75*
G02*
X133907500Y-111575000I-237500J0D01*
G01*
X133307500Y-111575000D01*
G75*
G02*
X133070000Y-111337500I0J237500D01*
G01*
G37*
G04 #@! TD*
G04 #@! TO.C,C13*
G36*
G01*
X117235000Y-109970000D02*
X118185000Y-109970000D01*
G75*
G02*
X118435000Y-110220000I0J-250000D01*
G01*
X118435000Y-110895000D01*
G75*
G02*
X118185000Y-111145000I-250000J0D01*
G01*
X117235000Y-111145000D01*
G75*
G02*
X116985000Y-110895000I0J250000D01*
G01*
X116985000Y-110220000D01*
G75*
G02*
X117235000Y-109970000I250000J0D01*
G01*
G37*
G36*
G01*
X117235000Y-107895000D02*
X118185000Y-107895000D01*
G75*
G02*
X118435000Y-108145000I0J-250000D01*
G01*
X118435000Y-108820000D01*
G75*
G02*
X118185000Y-109070000I-250000J0D01*
G01*
X117235000Y-109070000D01*
G75*
G02*
X116985000Y-108820000I0J250000D01*
G01*
X116985000Y-108145000D01*
G75*
G02*
X117235000Y-107895000I250000J0D01*
G01*
G37*
G04 #@! TD*
G04 #@! TO.C,C14*
G36*
G01*
X161335000Y-65680000D02*
X162285000Y-65680000D01*
G75*
G02*
X162535000Y-65930000I0J-250000D01*
G01*
X162535000Y-66605000D01*
G75*
G02*
X162285000Y-66855000I-250000J0D01*
G01*
X161335000Y-66855000D01*
G75*
G02*
X161085000Y-66605000I0J250000D01*
G01*
X161085000Y-65930000D01*
G75*
G02*
X161335000Y-65680000I250000J0D01*
G01*
G37*
G36*
G01*
X161335000Y-63605000D02*
X162285000Y-63605000D01*
G75*
G02*
X162535000Y-63855000I0J-250000D01*
G01*
X162535000Y-64530000D01*
G75*
G02*
X162285000Y-64780000I-250000J0D01*
G01*
X161335000Y-64780000D01*
G75*
G02*
X161085000Y-64530000I0J250000D01*
G01*
X161085000Y-63855000D01*
G75*
G02*
X161335000Y-63605000I250000J0D01*
G01*
G37*
G04 #@! TD*
G04 #@! TO.C,C15*
G36*
G01*
X129845000Y-102625000D02*
X129845000Y-103575000D01*
G75*
G02*
X129595000Y-103825000I-250000J0D01*
G01*
X128920000Y-103825000D01*
G75*
G02*
X128670000Y-103575000I0J250000D01*
G01*
X128670000Y-102625000D01*
G75*
G02*
X128920000Y-102375000I250000J0D01*
G01*
X129595000Y-102375000D01*
G75*
G02*
X129845000Y-102625000I0J-250000D01*
G01*
G37*
G36*
G01*
X127770000Y-102625000D02*
X127770000Y-103575000D01*
G75*
G02*
X127520000Y-103825000I-250000J0D01*
G01*
X126845000Y-103825000D01*
G75*
G02*
X126595000Y-103575000I0J250000D01*
G01*
X126595000Y-102625000D01*
G75*
G02*
X126845000Y-102375000I250000J0D01*
G01*
X127520000Y-102375000D01*
G75*
G02*
X127770000Y-102625000I0J-250000D01*
G01*
G37*
G04 #@! TD*
G04 #@! TO.C,C17*
G36*
G01*
X180225000Y-64459999D02*
X180225000Y-65760001D01*
G75*
G02*
X179975001Y-66010000I-249999J0D01*
G01*
X179149999Y-66010000D01*
G75*
G02*
X178900000Y-65760001I0J249999D01*
G01*
X178900000Y-64459999D01*
G75*
G02*
X179149999Y-64210000I249999J0D01*
G01*
X179975001Y-64210000D01*
G75*
G02*
X180225000Y-64459999I0J-249999D01*
G01*
G37*
G36*
G01*
X177100000Y-64459999D02*
X177100000Y-65760001D01*
G75*
G02*
X176850001Y-66010000I-249999J0D01*
G01*
X176024999Y-66010000D01*
G75*
G02*
X175775000Y-65760001I0J249999D01*
G01*
X175775000Y-64459999D01*
G75*
G02*
X176024999Y-64210000I249999J0D01*
G01*
X176850001Y-64210000D01*
G75*
G02*
X177100000Y-64459999I0J-249999D01*
G01*
G37*
G04 #@! TD*
G04 #@! TO.C,C18*
G36*
G01*
X177170000Y-67382500D02*
X177170000Y-67857500D01*
G75*
G02*
X176932500Y-68095000I-237500J0D01*
G01*
X176332500Y-68095000D01*
G75*
G02*
X176095000Y-67857500I0J237500D01*
G01*
X176095000Y-67382500D01*
G75*
G02*
X176332500Y-67145000I237500J0D01*
G01*
X176932500Y-67145000D01*
G75*
G02*
X177170000Y-67382500I0J-237500D01*
G01*
G37*
G36*
G01*
X178895000Y-67382500D02*
X178895000Y-67857500D01*
G75*
G02*
X178657500Y-68095000I-237500J0D01*
G01*
X178057500Y-68095000D01*
G75*
G02*
X177820000Y-67857500I0J237500D01*
G01*
X177820000Y-67382500D01*
G75*
G02*
X178057500Y-67145000I237500J0D01*
G01*
X178657500Y-67145000D01*
G75*
G02*
X178895000Y-67382500I0J-237500D01*
G01*
G37*
G04 #@! TD*
G04 #@! TO.C,C19*
G36*
G01*
X183675000Y-44762500D02*
X183675000Y-45237500D01*
G75*
G02*
X183437500Y-45475000I-237500J0D01*
G01*
X182837500Y-45475000D01*
G75*
G02*
X182600000Y-45237500I0J237500D01*
G01*
X182600000Y-44762500D01*
G75*
G02*
X182837500Y-44525000I237500J0D01*
G01*
X183437500Y-44525000D01*
G75*
G02*
X183675000Y-44762500I0J-237500D01*
G01*
G37*
G36*
G01*
X185400000Y-44762500D02*
X185400000Y-45237500D01*
G75*
G02*
X185162500Y-45475000I-237500J0D01*
G01*
X184562500Y-45475000D01*
G75*
G02*
X184325000Y-45237500I0J237500D01*
G01*
X184325000Y-44762500D01*
G75*
G02*
X184562500Y-44525000I237500J0D01*
G01*
X185162500Y-44525000D01*
G75*
G02*
X185400000Y-44762500I0J-237500D01*
G01*
G37*
G04 #@! TD*
G04 #@! TO.C,C20*
G36*
G01*
X131125000Y-104285000D02*
X131125000Y-103335000D01*
G75*
G02*
X131375000Y-103085000I250000J0D01*
G01*
X132050000Y-103085000D01*
G75*
G02*
X132300000Y-103335000I0J-250000D01*
G01*
X132300000Y-104285000D01*
G75*
G02*
X132050000Y-104535000I-250000J0D01*
G01*
X131375000Y-104535000D01*
G75*
G02*
X131125000Y-104285000I0J250000D01*
G01*
G37*
G36*
G01*
X133200000Y-104285000D02*
X133200000Y-103335000D01*
G75*
G02*
X133450000Y-103085000I250000J0D01*
G01*
X134125000Y-103085000D01*
G75*
G02*
X134375000Y-103335000I0J-250000D01*
G01*
X134375000Y-104285000D01*
G75*
G02*
X134125000Y-104535000I-250000J0D01*
G01*
X133450000Y-104535000D01*
G75*
G02*
X133200000Y-104285000I0J250000D01*
G01*
G37*
G04 #@! TD*
G04 #@! TO.C,C21*
G36*
G01*
X131100000Y-116849999D02*
X131100000Y-118150001D01*
G75*
G02*
X130850001Y-118400000I-249999J0D01*
G01*
X130024999Y-118400000D01*
G75*
G02*
X129775000Y-118150001I0J249999D01*
G01*
X129775000Y-116849999D01*
G75*
G02*
X130024999Y-116600000I249999J0D01*
G01*
X130850001Y-116600000D01*
G75*
G02*
X131100000Y-116849999I0J-249999D01*
G01*
G37*
G36*
G01*
X134225000Y-116849999D02*
X134225000Y-118150001D01*
G75*
G02*
X133975001Y-118400000I-249999J0D01*
G01*
X133149999Y-118400000D01*
G75*
G02*
X132900000Y-118150001I0J249999D01*
G01*
X132900000Y-116849999D01*
G75*
G02*
X133149999Y-116600000I249999J0D01*
G01*
X133975001Y-116600000D01*
G75*
G02*
X134225000Y-116849999I0J-249999D01*
G01*
G37*
G04 #@! TD*
G04 #@! TO.C,C23*
G36*
G01*
X183675000Y-139762500D02*
X183675000Y-140237500D01*
G75*
G02*
X183437500Y-140475000I-237500J0D01*
G01*
X182837500Y-140475000D01*
G75*
G02*
X182600000Y-140237500I0J237500D01*
G01*
X182600000Y-139762500D01*
G75*
G02*
X182837500Y-139525000I237500J0D01*
G01*
X183437500Y-139525000D01*
G75*
G02*
X183675000Y-139762500I0J-237500D01*
G01*
G37*
G36*
G01*
X185400000Y-139762500D02*
X185400000Y-140237500D01*
G75*
G02*
X185162500Y-140475000I-237500J0D01*
G01*
X184562500Y-140475000D01*
G75*
G02*
X184325000Y-140237500I0J237500D01*
G01*
X184325000Y-139762500D01*
G75*
G02*
X184562500Y-139525000I237500J0D01*
G01*
X185162500Y-139525000D01*
G75*
G02*
X185400000Y-139762500I0J-237500D01*
G01*
G37*
G04 #@! TD*
G04 #@! TO.C,C24*
G36*
G01*
X109537500Y-44762500D02*
X109537500Y-45237500D01*
G75*
G02*
X109300000Y-45475000I-237500J0D01*
G01*
X108700000Y-45475000D01*
G75*
G02*
X108462500Y-45237500I0J237500D01*
G01*
X108462500Y-44762500D01*
G75*
G02*
X108700000Y-44525000I237500J0D01*
G01*
X109300000Y-44525000D01*
G75*
G02*
X109537500Y-44762500I0J-237500D01*
G01*
G37*
G36*
G01*
X107812500Y-44762500D02*
X107812500Y-45237500D01*
G75*
G02*
X107575000Y-45475000I-237500J0D01*
G01*
X106975000Y-45475000D01*
G75*
G02*
X106737500Y-45237500I0J237500D01*
G01*
X106737500Y-44762500D01*
G75*
G02*
X106975000Y-44525000I237500J0D01*
G01*
X107575000Y-44525000D01*
G75*
G02*
X107812500Y-44762500I0J-237500D01*
G01*
G37*
G04 #@! TD*
G04 #@! TO.C,C25*
G36*
G01*
X109537500Y-96762500D02*
X109537500Y-97237500D01*
G75*
G02*
X109300000Y-97475000I-237500J0D01*
G01*
X108700000Y-97475000D01*
G75*
G02*
X108462500Y-97237500I0J237500D01*
G01*
X108462500Y-96762500D01*
G75*
G02*
X108700000Y-96525000I237500J0D01*
G01*
X109300000Y-96525000D01*
G75*
G02*
X109537500Y-96762500I0J-237500D01*
G01*
G37*
G36*
G01*
X107812500Y-96762500D02*
X107812500Y-97237500D01*
G75*
G02*
X107575000Y-97475000I-237500J0D01*
G01*
X106975000Y-97475000D01*
G75*
G02*
X106737500Y-97237500I0J237500D01*
G01*
X106737500Y-96762500D01*
G75*
G02*
X106975000Y-96525000I237500J0D01*
G01*
X107575000Y-96525000D01*
G75*
G02*
X107812500Y-96762500I0J-237500D01*
G01*
G37*
G04 #@! TD*
G04 #@! TO.C,C26*
G36*
G01*
X185537500Y-96762500D02*
X185537500Y-97237500D01*
G75*
G02*
X185300000Y-97475000I-237500J0D01*
G01*
X184700000Y-97475000D01*
G75*
G02*
X184462500Y-97237500I0J237500D01*
G01*
X184462500Y-96762500D01*
G75*
G02*
X184700000Y-96525000I237500J0D01*
G01*
X185300000Y-96525000D01*
G75*
G02*
X185537500Y-96762500I0J-237500D01*
G01*
G37*
G36*
G01*
X183812500Y-96762500D02*
X183812500Y-97237500D01*
G75*
G02*
X183575000Y-97475000I-237500J0D01*
G01*
X182975000Y-97475000D01*
G75*
G02*
X182737500Y-97237500I0J237500D01*
G01*
X182737500Y-96762500D01*
G75*
G02*
X182975000Y-96525000I237500J0D01*
G01*
X183575000Y-96525000D01*
G75*
G02*
X183812500Y-96762500I0J-237500D01*
G01*
G37*
G04 #@! TD*
G04 #@! TO.C,C27*
G36*
G01*
X109537500Y-70762500D02*
X109537500Y-71237500D01*
G75*
G02*
X109300000Y-71475000I-237500J0D01*
G01*
X108700000Y-71475000D01*
G75*
G02*
X108462500Y-71237500I0J237500D01*
G01*
X108462500Y-70762500D01*
G75*
G02*
X108700000Y-70525000I237500J0D01*
G01*
X109300000Y-70525000D01*
G75*
G02*
X109537500Y-70762500I0J-237500D01*
G01*
G37*
G36*
G01*
X107812500Y-70762500D02*
X107812500Y-71237500D01*
G75*
G02*
X107575000Y-71475000I-237500J0D01*
G01*
X106975000Y-71475000D01*
G75*
G02*
X106737500Y-71237500I0J237500D01*
G01*
X106737500Y-70762500D01*
G75*
G02*
X106975000Y-70525000I237500J0D01*
G01*
X107575000Y-70525000D01*
G75*
G02*
X107812500Y-70762500I0J-237500D01*
G01*
G37*
G04 #@! TD*
G04 #@! TO.C,C28*
G36*
G01*
X109400000Y-122762500D02*
X109400000Y-123237500D01*
G75*
G02*
X109162500Y-123475000I-237500J0D01*
G01*
X108562500Y-123475000D01*
G75*
G02*
X108325000Y-123237500I0J237500D01*
G01*
X108325000Y-122762500D01*
G75*
G02*
X108562500Y-122525000I237500J0D01*
G01*
X109162500Y-122525000D01*
G75*
G02*
X109400000Y-122762500I0J-237500D01*
G01*
G37*
G36*
G01*
X107675000Y-122762500D02*
X107675000Y-123237500D01*
G75*
G02*
X107437500Y-123475000I-237500J0D01*
G01*
X106837500Y-123475000D01*
G75*
G02*
X106600000Y-123237500I0J237500D01*
G01*
X106600000Y-122762500D01*
G75*
G02*
X106837500Y-122525000I237500J0D01*
G01*
X107437500Y-122525000D01*
G75*
G02*
X107675000Y-122762500I0J-237500D01*
G01*
G37*
G04 #@! TD*
G04 #@! TO.C,C29*
G36*
G01*
X117150000Y-152762500D02*
X117150000Y-153237500D01*
G75*
G02*
X116912500Y-153475000I-237500J0D01*
G01*
X116312500Y-153475000D01*
G75*
G02*
X116075000Y-153237500I0J237500D01*
G01*
X116075000Y-152762500D01*
G75*
G02*
X116312500Y-152525000I237500J0D01*
G01*
X116912500Y-152525000D01*
G75*
G02*
X117150000Y-152762500I0J-237500D01*
G01*
G37*
G36*
G01*
X115425000Y-152762500D02*
X115425000Y-153237500D01*
G75*
G02*
X115187500Y-153475000I-237500J0D01*
G01*
X114587500Y-153475000D01*
G75*
G02*
X114350000Y-153237500I0J237500D01*
G01*
X114350000Y-152762500D01*
G75*
G02*
X114587500Y-152525000I237500J0D01*
G01*
X115187500Y-152525000D01*
G75*
G02*
X115425000Y-152762500I0J-237500D01*
G01*
G37*
G04 #@! TD*
G04 #@! TO.C,C30*
G36*
G01*
X129675000Y-152762500D02*
X129675000Y-153237500D01*
G75*
G02*
X129437500Y-153475000I-237500J0D01*
G01*
X128837500Y-153475000D01*
G75*
G02*
X128600000Y-153237500I0J237500D01*
G01*
X128600000Y-152762500D01*
G75*
G02*
X128837500Y-152525000I237500J0D01*
G01*
X129437500Y-152525000D01*
G75*
G02*
X129675000Y-152762500I0J-237500D01*
G01*
G37*
G36*
G01*
X131400000Y-152762500D02*
X131400000Y-153237500D01*
G75*
G02*
X131162500Y-153475000I-237500J0D01*
G01*
X130562500Y-153475000D01*
G75*
G02*
X130325000Y-153237500I0J237500D01*
G01*
X130325000Y-152762500D01*
G75*
G02*
X130562500Y-152525000I237500J0D01*
G01*
X131162500Y-152525000D01*
G75*
G02*
X131400000Y-152762500I0J-237500D01*
G01*
G37*
G04 #@! TD*
G04 #@! TO.C,C31*
G36*
G01*
X161675000Y-152762500D02*
X161675000Y-153237500D01*
G75*
G02*
X161437500Y-153475000I-237500J0D01*
G01*
X160837500Y-153475000D01*
G75*
G02*
X160600000Y-153237500I0J237500D01*
G01*
X160600000Y-152762500D01*
G75*
G02*
X160837500Y-152525000I237500J0D01*
G01*
X161437500Y-152525000D01*
G75*
G02*
X161675000Y-152762500I0J-237500D01*
G01*
G37*
G36*
G01*
X163400000Y-152762500D02*
X163400000Y-153237500D01*
G75*
G02*
X163162500Y-153475000I-237500J0D01*
G01*
X162562500Y-153475000D01*
G75*
G02*
X162325000Y-153237500I0J237500D01*
G01*
X162325000Y-152762500D01*
G75*
G02*
X162562500Y-152525000I237500J0D01*
G01*
X163162500Y-152525000D01*
G75*
G02*
X163400000Y-152762500I0J-237500D01*
G01*
G37*
G04 #@! TD*
G04 #@! TO.C,C32*
G36*
G01*
X174812500Y-152512500D02*
X174812500Y-152987500D01*
G75*
G02*
X174575000Y-153225000I-237500J0D01*
G01*
X173975000Y-153225000D01*
G75*
G02*
X173737500Y-152987500I0J237500D01*
G01*
X173737500Y-152512500D01*
G75*
G02*
X173975000Y-152275000I237500J0D01*
G01*
X174575000Y-152275000D01*
G75*
G02*
X174812500Y-152512500I0J-237500D01*
G01*
G37*
G36*
G01*
X176537500Y-152512500D02*
X176537500Y-152987500D01*
G75*
G02*
X176300000Y-153225000I-237500J0D01*
G01*
X175700000Y-153225000D01*
G75*
G02*
X175462500Y-152987500I0J237500D01*
G01*
X175462500Y-152512500D01*
G75*
G02*
X175700000Y-152275000I237500J0D01*
G01*
X176300000Y-152275000D01*
G75*
G02*
X176537500Y-152512500I0J-237500D01*
G01*
G37*
G04 #@! TD*
G04 #@! TO.C,D1*
X179450000Y-158600000D03*
X179450000Y-155400000D03*
X174550000Y-158600000D03*
X174550000Y-155400000D03*
G04 #@! TD*
G04 #@! TO.C,D5*
X107550000Y-125400000D03*
X107550000Y-128600000D03*
X112450000Y-125400000D03*
X112450000Y-128600000D03*
G04 #@! TD*
D12*
G04 #@! TO.C,D41*
X157300000Y-146000000D03*
X162700000Y-146000000D03*
G04 #@! TD*
D13*
G04 #@! TO.C,D42*
X157500000Y-141000000D03*
X162500000Y-141000000D03*
G04 #@! TD*
G04 #@! TO.C,R1*
G36*
G01*
X162549999Y-134400000D02*
X163450001Y-134400000D01*
G75*
G02*
X163700000Y-134649999I0J-249999D01*
G01*
X163700000Y-135350001D01*
G75*
G02*
X163450001Y-135600000I-249999J0D01*
G01*
X162549999Y-135600000D01*
G75*
G02*
X162300000Y-135350001I0J249999D01*
G01*
X162300000Y-134649999D01*
G75*
G02*
X162549999Y-134400000I249999J0D01*
G01*
G37*
G36*
G01*
X162549999Y-136400000D02*
X163450001Y-136400000D01*
G75*
G02*
X163700000Y-136649999I0J-249999D01*
G01*
X163700000Y-137350001D01*
G75*
G02*
X163450001Y-137600000I-249999J0D01*
G01*
X162549999Y-137600000D01*
G75*
G02*
X162300000Y-137350001I0J249999D01*
G01*
X162300000Y-136649999D01*
G75*
G02*
X162549999Y-136400000I249999J0D01*
G01*
G37*
G04 #@! TD*
G04 #@! TO.C,R2*
G36*
G01*
X115130000Y-114740001D02*
X115130000Y-113839999D01*
G75*
G02*
X115379999Y-113590000I249999J0D01*
G01*
X116080001Y-113590000D01*
G75*
G02*
X116330000Y-113839999I0J-249999D01*
G01*
X116330000Y-114740001D01*
G75*
G02*
X116080001Y-114990000I-249999J0D01*
G01*
X115379999Y-114990000D01*
G75*
G02*
X115130000Y-114740001I0J249999D01*
G01*
G37*
G36*
G01*
X117130000Y-114740001D02*
X117130000Y-113839999D01*
G75*
G02*
X117379999Y-113590000I249999J0D01*
G01*
X118080001Y-113590000D01*
G75*
G02*
X118330000Y-113839999I0J-249999D01*
G01*
X118330000Y-114740001D01*
G75*
G02*
X118080001Y-114990000I-249999J0D01*
G01*
X117379999Y-114990000D01*
G75*
G02*
X117130000Y-114740001I0J249999D01*
G01*
G37*
G04 #@! TD*
G04 #@! TO.C,R4*
G36*
G01*
X153159999Y-81570000D02*
X154060001Y-81570000D01*
G75*
G02*
X154310000Y-81819999I0J-249999D01*
G01*
X154310000Y-82520001D01*
G75*
G02*
X154060001Y-82770000I-249999J0D01*
G01*
X153159999Y-82770000D01*
G75*
G02*
X152910000Y-82520001I0J249999D01*
G01*
X152910000Y-81819999D01*
G75*
G02*
X153159999Y-81570000I249999J0D01*
G01*
G37*
G36*
G01*
X153159999Y-83570000D02*
X154060001Y-83570000D01*
G75*
G02*
X154310000Y-83819999I0J-249999D01*
G01*
X154310000Y-84520001D01*
G75*
G02*
X154060001Y-84770000I-249999J0D01*
G01*
X153159999Y-84770000D01*
G75*
G02*
X152910000Y-84520001I0J249999D01*
G01*
X152910000Y-83819999D01*
G75*
G02*
X153159999Y-83570000I249999J0D01*
G01*
G37*
G04 #@! TD*
G04 #@! TO.C,R5*
G36*
G01*
X146600000Y-73549999D02*
X146600000Y-74450001D01*
G75*
G02*
X146350001Y-74700000I-249999J0D01*
G01*
X145649999Y-74700000D01*
G75*
G02*
X145400000Y-74450001I0J249999D01*
G01*
X145400000Y-73549999D01*
G75*
G02*
X145649999Y-73300000I249999J0D01*
G01*
X146350001Y-73300000D01*
G75*
G02*
X146600000Y-73549999I0J-249999D01*
G01*
G37*
G36*
G01*
X148600000Y-73549999D02*
X148600000Y-74450001D01*
G75*
G02*
X148350001Y-74700000I-249999J0D01*
G01*
X147649999Y-74700000D01*
G75*
G02*
X147400000Y-74450001I0J249999D01*
G01*
X147400000Y-73549999D01*
G75*
G02*
X147649999Y-73300000I249999J0D01*
G01*
X148350001Y-73300000D01*
G75*
G02*
X148600000Y-73549999I0J-249999D01*
G01*
G37*
G04 #@! TD*
G04 #@! TO.C,R6*
G36*
G01*
X136450001Y-85625000D02*
X135549999Y-85625000D01*
G75*
G02*
X135300000Y-85375001I0J249999D01*
G01*
X135300000Y-84674999D01*
G75*
G02*
X135549999Y-84425000I249999J0D01*
G01*
X136450001Y-84425000D01*
G75*
G02*
X136700000Y-84674999I0J-249999D01*
G01*
X136700000Y-85375001D01*
G75*
G02*
X136450001Y-85625000I-249999J0D01*
G01*
G37*
G36*
G01*
X136450001Y-87625000D02*
X135549999Y-87625000D01*
G75*
G02*
X135300000Y-87375001I0J249999D01*
G01*
X135300000Y-86674999D01*
G75*
G02*
X135549999Y-86425000I249999J0D01*
G01*
X136450001Y-86425000D01*
G75*
G02*
X136700000Y-86674999I0J-249999D01*
G01*
X136700000Y-87375001D01*
G75*
G02*
X136450001Y-87625000I-249999J0D01*
G01*
G37*
G04 #@! TD*
G04 #@! TO.C,R7*
G36*
G01*
X175940000Y-40180001D02*
X175940000Y-39279999D01*
G75*
G02*
X176189999Y-39030000I249999J0D01*
G01*
X176890001Y-39030000D01*
G75*
G02*
X177140000Y-39279999I0J-249999D01*
G01*
X177140000Y-40180001D01*
G75*
G02*
X176890001Y-40430000I-249999J0D01*
G01*
X176189999Y-40430000D01*
G75*
G02*
X175940000Y-40180001I0J249999D01*
G01*
G37*
G36*
G01*
X177940000Y-40180001D02*
X177940000Y-39279999D01*
G75*
G02*
X178189999Y-39030000I249999J0D01*
G01*
X178890001Y-39030000D01*
G75*
G02*
X179140000Y-39279999I0J-249999D01*
G01*
X179140000Y-40180001D01*
G75*
G02*
X178890001Y-40430000I-249999J0D01*
G01*
X178189999Y-40430000D01*
G75*
G02*
X177940000Y-40180001I0J249999D01*
G01*
G37*
G04 #@! TD*
G04 #@! TO.C,R8*
G36*
G01*
X133120000Y-115550001D02*
X133120000Y-114649999D01*
G75*
G02*
X133369999Y-114400000I249999J0D01*
G01*
X134070001Y-114400000D01*
G75*
G02*
X134320000Y-114649999I0J-249999D01*
G01*
X134320000Y-115550001D01*
G75*
G02*
X134070001Y-115800000I-249999J0D01*
G01*
X133369999Y-115800000D01*
G75*
G02*
X133120000Y-115550001I0J249999D01*
G01*
G37*
G36*
G01*
X131120000Y-115550001D02*
X131120000Y-114649999D01*
G75*
G02*
X131369999Y-114400000I249999J0D01*
G01*
X132070001Y-114400000D01*
G75*
G02*
X132320000Y-114649999I0J-249999D01*
G01*
X132320000Y-115550001D01*
G75*
G02*
X132070001Y-115800000I-249999J0D01*
G01*
X131369999Y-115800000D01*
G75*
G02*
X131120000Y-115550001I0J249999D01*
G01*
G37*
G04 #@! TD*
G04 #@! TO.C,R9*
G36*
G01*
X176500000Y-71999999D02*
X176500000Y-72900001D01*
G75*
G02*
X176250001Y-73150000I-249999J0D01*
G01*
X175549999Y-73150000D01*
G75*
G02*
X175300000Y-72900001I0J249999D01*
G01*
X175300000Y-71999999D01*
G75*
G02*
X175549999Y-71750000I249999J0D01*
G01*
X176250001Y-71750000D01*
G75*
G02*
X176500000Y-71999999I0J-249999D01*
G01*
G37*
G36*
G01*
X178500000Y-71999999D02*
X178500000Y-72900001D01*
G75*
G02*
X178250001Y-73150000I-249999J0D01*
G01*
X177549999Y-73150000D01*
G75*
G02*
X177300000Y-72900001I0J249999D01*
G01*
X177300000Y-71999999D01*
G75*
G02*
X177549999Y-71750000I249999J0D01*
G01*
X178250001Y-71750000D01*
G75*
G02*
X178500000Y-71999999I0J-249999D01*
G01*
G37*
G04 #@! TD*
G04 #@! TO.C,R14*
G36*
G01*
X121900000Y-103450001D02*
X121900000Y-102549999D01*
G75*
G02*
X122149999Y-102300000I249999J0D01*
G01*
X122850001Y-102300000D01*
G75*
G02*
X123100000Y-102549999I0J-249999D01*
G01*
X123100000Y-103450001D01*
G75*
G02*
X122850001Y-103700000I-249999J0D01*
G01*
X122149999Y-103700000D01*
G75*
G02*
X121900000Y-103450001I0J249999D01*
G01*
G37*
G36*
G01*
X119900000Y-103450001D02*
X119900000Y-102549999D01*
G75*
G02*
X120149999Y-102300000I249999J0D01*
G01*
X120850001Y-102300000D01*
G75*
G02*
X121100000Y-102549999I0J-249999D01*
G01*
X121100000Y-103450001D01*
G75*
G02*
X120850001Y-103700000I-249999J0D01*
G01*
X120149999Y-103700000D01*
G75*
G02*
X119900000Y-103450001I0J249999D01*
G01*
G37*
G04 #@! TD*
G04 #@! TO.C,R15*
G36*
G01*
X134350000Y-105359999D02*
X134350000Y-106260001D01*
G75*
G02*
X134100001Y-106510000I-249999J0D01*
G01*
X133399999Y-106510000D01*
G75*
G02*
X133150000Y-106260001I0J249999D01*
G01*
X133150000Y-105359999D01*
G75*
G02*
X133399999Y-105110000I249999J0D01*
G01*
X134100001Y-105110000D01*
G75*
G02*
X134350000Y-105359999I0J-249999D01*
G01*
G37*
G36*
G01*
X132350000Y-105359999D02*
X132350000Y-106260001D01*
G75*
G02*
X132100001Y-106510000I-249999J0D01*
G01*
X131399999Y-106510000D01*
G75*
G02*
X131150000Y-106260001I0J249999D01*
G01*
X131150000Y-105359999D01*
G75*
G02*
X131399999Y-105110000I249999J0D01*
G01*
X132100001Y-105110000D01*
G75*
G02*
X132350000Y-105359999I0J-249999D01*
G01*
G37*
G04 #@! TD*
G04 #@! TO.C,R3*
G36*
G01*
X184600000Y-150549999D02*
X184600000Y-151450001D01*
G75*
G02*
X184350001Y-151700000I-249999J0D01*
G01*
X183649999Y-151700000D01*
G75*
G02*
X183400000Y-151450001I0J249999D01*
G01*
X183400000Y-150549999D01*
G75*
G02*
X183649999Y-150300000I249999J0D01*
G01*
X184350001Y-150300000D01*
G75*
G02*
X184600000Y-150549999I0J-249999D01*
G01*
G37*
G36*
G01*
X182600000Y-150549999D02*
X182600000Y-151450001D01*
G75*
G02*
X182350001Y-151700000I-249999J0D01*
G01*
X181649999Y-151700000D01*
G75*
G02*
X181400000Y-151450001I0J249999D01*
G01*
X181400000Y-150549999D01*
G75*
G02*
X181649999Y-150300000I249999J0D01*
G01*
X182350001Y-150300000D01*
G75*
G02*
X182600000Y-150549999I0J-249999D01*
G01*
G37*
G04 #@! TD*
G04 #@! TO.C,C35*
G36*
G01*
X173837500Y-95137500D02*
X173837500Y-94662500D01*
G75*
G02*
X174075000Y-94425000I237500J0D01*
G01*
X174675000Y-94425000D01*
G75*
G02*
X174912500Y-94662500I0J-237500D01*
G01*
X174912500Y-95137500D01*
G75*
G02*
X174675000Y-95375000I-237500J0D01*
G01*
X174075000Y-95375000D01*
G75*
G02*
X173837500Y-95137500I0J237500D01*
G01*
G37*
G36*
G01*
X175562500Y-95137500D02*
X175562500Y-94662500D01*
G75*
G02*
X175800000Y-94425000I237500J0D01*
G01*
X176400000Y-94425000D01*
G75*
G02*
X176637500Y-94662500I0J-237500D01*
G01*
X176637500Y-95137500D01*
G75*
G02*
X176400000Y-95375000I-237500J0D01*
G01*
X175800000Y-95375000D01*
G75*
G02*
X175562500Y-95137500I0J237500D01*
G01*
G37*
G04 #@! TD*
G04 #@! TO.C,R10*
G36*
G01*
X171700000Y-97949999D02*
X171700000Y-98850001D01*
G75*
G02*
X171450001Y-99100000I-249999J0D01*
G01*
X170749999Y-99100000D01*
G75*
G02*
X170500000Y-98850001I0J249999D01*
G01*
X170500000Y-97949999D01*
G75*
G02*
X170749999Y-97700000I249999J0D01*
G01*
X171450001Y-97700000D01*
G75*
G02*
X171700000Y-97949999I0J-249999D01*
G01*
G37*
G36*
G01*
X169700000Y-97949999D02*
X169700000Y-98850001D01*
G75*
G02*
X169450001Y-99100000I-249999J0D01*
G01*
X168749999Y-99100000D01*
G75*
G02*
X168500000Y-98850001I0J249999D01*
G01*
X168500000Y-97949999D01*
G75*
G02*
X168749999Y-97700000I249999J0D01*
G01*
X169450001Y-97700000D01*
G75*
G02*
X169700000Y-97949999I0J-249999D01*
G01*
G37*
G04 #@! TD*
D14*
G04 #@! TO.C,U4*
X169350000Y-94900000D03*
X169350000Y-95900000D03*
X170850000Y-94900000D03*
X169350000Y-95400000D03*
X170850000Y-95900000D03*
X170850000Y-95400000D03*
G04 #@! TD*
G04 #@! TO.C,C7*
G36*
G01*
X179175000Y-61765000D02*
X179175000Y-62715000D01*
G75*
G02*
X178925000Y-62965000I-250000J0D01*
G01*
X178250000Y-62965000D01*
G75*
G02*
X178000000Y-62715000I0J250000D01*
G01*
X178000000Y-61765000D01*
G75*
G02*
X178250000Y-61515000I250000J0D01*
G01*
X178925000Y-61515000D01*
G75*
G02*
X179175000Y-61765000I0J-250000D01*
G01*
G37*
G36*
G01*
X177100000Y-61765000D02*
X177100000Y-62715000D01*
G75*
G02*
X176850000Y-62965000I-250000J0D01*
G01*
X176175000Y-62965000D01*
G75*
G02*
X175925000Y-62715000I0J250000D01*
G01*
X175925000Y-61765000D01*
G75*
G02*
X176175000Y-61515000I250000J0D01*
G01*
X176850000Y-61515000D01*
G75*
G02*
X177100000Y-61765000I0J-250000D01*
G01*
G37*
G04 #@! TD*
G04 #@! TO.C,C10*
G36*
G01*
X171500000Y-72687500D02*
X171500000Y-72212500D01*
G75*
G02*
X171737500Y-71975000I237500J0D01*
G01*
X172337500Y-71975000D01*
G75*
G02*
X172575000Y-72212500I0J-237500D01*
G01*
X172575000Y-72687500D01*
G75*
G02*
X172337500Y-72925000I-237500J0D01*
G01*
X171737500Y-72925000D01*
G75*
G02*
X171500000Y-72687500I0J237500D01*
G01*
G37*
G36*
G01*
X173225000Y-72687500D02*
X173225000Y-72212500D01*
G75*
G02*
X173462500Y-71975000I237500J0D01*
G01*
X174062500Y-71975000D01*
G75*
G02*
X174300000Y-72212500I0J-237500D01*
G01*
X174300000Y-72687500D01*
G75*
G02*
X174062500Y-72925000I-237500J0D01*
G01*
X173462500Y-72925000D01*
G75*
G02*
X173225000Y-72687500I0J237500D01*
G01*
G37*
G04 #@! TD*
G04 #@! TO.C,C33*
G36*
G01*
X167345000Y-99815000D02*
X167035000Y-99815000D01*
G75*
G02*
X166880000Y-99660000I0J155000D01*
G01*
X166880000Y-99235000D01*
G75*
G02*
X167035000Y-99080000I155000J0D01*
G01*
X167345000Y-99080000D01*
G75*
G02*
X167500000Y-99235000I0J-155000D01*
G01*
X167500000Y-99660000D01*
G75*
G02*
X167345000Y-99815000I-155000J0D01*
G01*
G37*
G36*
G01*
X167345000Y-98680000D02*
X167035000Y-98680000D01*
G75*
G02*
X166880000Y-98525000I0J155000D01*
G01*
X166880000Y-98100000D01*
G75*
G02*
X167035000Y-97945000I155000J0D01*
G01*
X167345000Y-97945000D01*
G75*
G02*
X167500000Y-98100000I0J-155000D01*
G01*
X167500000Y-98525000D01*
G75*
G02*
X167345000Y-98680000I-155000J0D01*
G01*
G37*
G04 #@! TD*
G04 #@! TO.C,C34*
G36*
G01*
X173255000Y-98750000D02*
X172945000Y-98750000D01*
G75*
G02*
X172790000Y-98595000I0J155000D01*
G01*
X172790000Y-98170000D01*
G75*
G02*
X172945000Y-98015000I155000J0D01*
G01*
X173255000Y-98015000D01*
G75*
G02*
X173410000Y-98170000I0J-155000D01*
G01*
X173410000Y-98595000D01*
G75*
G02*
X173255000Y-98750000I-155000J0D01*
G01*
G37*
G36*
G01*
X173255000Y-99885000D02*
X172945000Y-99885000D01*
G75*
G02*
X172790000Y-99730000I0J155000D01*
G01*
X172790000Y-99305000D01*
G75*
G02*
X172945000Y-99150000I155000J0D01*
G01*
X173255000Y-99150000D01*
G75*
G02*
X173410000Y-99305000I0J-155000D01*
G01*
X173410000Y-99730000D01*
G75*
G02*
X173255000Y-99885000I-155000J0D01*
G01*
G37*
G04 #@! TD*
M02*
