G04 #@! TF.GenerationSoftware,KiCad,Pcbnew,5.1.9+dfsg1-1*
G04 #@! TF.CreationDate,2022-06-11T23:01:35-07:00*
G04 #@! TF.ProjectId,brains_cn,62726169-6e73-45f6-936e-2e6b69636164,rev?*
G04 #@! TF.SameCoordinates,Original*
G04 #@! TF.FileFunction,Soldermask,Top*
G04 #@! TF.FilePolarity,Negative*
%FSLAX46Y46*%
G04 Gerber Fmt 4.6, Leading zero omitted, Abs format (unit mm)*
G04 Created by KiCad (PCBNEW 5.1.9+dfsg1-1) date 2022-06-11 23:01:35*
%MOMM*%
%LPD*%
G01*
G04 APERTURE LIST*
%ADD10R,3.000000X0.450000*%
%ADD11R,1.600000X1.600000*%
%ADD12C,1.600000*%
%ADD13C,3.000000*%
%ADD14R,1.700000X1.700000*%
%ADD15O,1.700000X1.700000*%
%ADD16O,1.600000X1.600000*%
%ADD17O,2.400000X1.600000*%
%ADD18R,2.400000X1.600000*%
%ADD19C,2.000000*%
%ADD20C,1.700000*%
%ADD21R,1.500000X1.000000*%
%ADD22C,8.600000*%
%ADD23C,0.900000*%
%ADD24C,2.500000*%
%ADD25C,1.755000*%
%ADD26C,3.560000*%
%ADD27R,3.500000X2.300000*%
%ADD28R,3.500000X1.800000*%
%ADD29O,3.016000X1.508000*%
%ADD30O,1.508000X3.016000*%
%ADD31C,0.350000*%
%ADD32R,0.700000X0.400000*%
%ADD33C,1.500000*%
%ADD34C,0.254000*%
G04 APERTURE END LIST*
D10*
G04 #@! TO.C,U1*
X148000000Y-83575000D03*
X148000000Y-82925000D03*
X148000000Y-82275000D03*
X148000000Y-81625000D03*
X148000000Y-80975000D03*
X148000000Y-80325000D03*
X148000000Y-79675000D03*
X148000000Y-79025000D03*
X148000000Y-78375000D03*
X148000000Y-77725000D03*
X148000000Y-77075000D03*
X148000000Y-76425000D03*
X140000000Y-76425000D03*
X140000000Y-77075000D03*
X140000000Y-77725000D03*
X140000000Y-78375000D03*
X140000000Y-79025000D03*
X140000000Y-79675000D03*
X140000000Y-80325000D03*
X140000000Y-80975000D03*
X140000000Y-81625000D03*
X140000000Y-82275000D03*
X140000000Y-82925000D03*
X140000000Y-83575000D03*
G04 #@! TD*
G04 #@! TO.C,C22*
G36*
G01*
X183675000Y-70762500D02*
X183675000Y-71237500D01*
G75*
G02*
X183437500Y-71475000I-237500J0D01*
G01*
X182837500Y-71475000D01*
G75*
G02*
X182600000Y-71237500I0J237500D01*
G01*
X182600000Y-70762500D01*
G75*
G02*
X182837500Y-70525000I237500J0D01*
G01*
X183437500Y-70525000D01*
G75*
G02*
X183675000Y-70762500I0J-237500D01*
G01*
G37*
G36*
G01*
X185400000Y-70762500D02*
X185400000Y-71237500D01*
G75*
G02*
X185162500Y-71475000I-237500J0D01*
G01*
X184562500Y-71475000D01*
G75*
G02*
X184325000Y-71237500I0J237500D01*
G01*
X184325000Y-70762500D01*
G75*
G02*
X184562500Y-70525000I237500J0D01*
G01*
X185162500Y-70525000D01*
G75*
G02*
X185400000Y-70762500I0J-237500D01*
G01*
G37*
G04 #@! TD*
D11*
G04 #@! TO.C,C8*
X168500000Y-74000000D03*
D12*
X164700000Y-74000000D03*
G04 #@! TD*
D13*
G04 #@! TO.C,J2*
X149530000Y-146690000D03*
X149530000Y-139810000D03*
X118470000Y-139810000D03*
X118470000Y-146690000D03*
G04 #@! TD*
D14*
G04 #@! TO.C,J1*
X134000000Y-44000000D03*
D15*
X136540000Y-44000000D03*
X139080000Y-44000000D03*
X141620000Y-44000000D03*
X144160000Y-44000000D03*
X146700000Y-44000000D03*
X149240000Y-44000000D03*
X151780000Y-44000000D03*
X154320000Y-44000000D03*
X156860000Y-44000000D03*
X159400000Y-44000000D03*
X161940000Y-44000000D03*
G04 #@! TD*
D11*
G04 #@! TO.C,A1*
X153000000Y-131000000D03*
D16*
X186020000Y-115760000D03*
X155540000Y-131000000D03*
X183480000Y-115760000D03*
X158080000Y-131000000D03*
X180940000Y-115760000D03*
X160620000Y-131000000D03*
X178400000Y-115760000D03*
X163160000Y-131000000D03*
X175860000Y-115760000D03*
X165700000Y-131000000D03*
X173320000Y-115760000D03*
X168240000Y-131000000D03*
X170780000Y-115760000D03*
X170780000Y-131000000D03*
X168240000Y-115760000D03*
X173320000Y-131000000D03*
X165700000Y-115760000D03*
X175860000Y-131000000D03*
X163160000Y-115760000D03*
X178400000Y-131000000D03*
X160620000Y-115760000D03*
X180940000Y-131000000D03*
X158080000Y-115760000D03*
X183480000Y-131000000D03*
X155540000Y-115760000D03*
X186020000Y-131000000D03*
X153000000Y-115760000D03*
X188560000Y-131000000D03*
X188560000Y-115760000D03*
G04 #@! TD*
D17*
G04 #@! TO.C,U2*
X128590000Y-106600000D03*
X120970000Y-114220000D03*
X128590000Y-109140000D03*
X120970000Y-111680000D03*
X128590000Y-111680000D03*
X120970000Y-109140000D03*
X128590000Y-114220000D03*
D18*
X120970000Y-106600000D03*
G04 #@! TD*
G04 #@! TO.C,U3*
X165910000Y-59930000D03*
D17*
X173530000Y-67550000D03*
X165910000Y-62470000D03*
X173530000Y-65010000D03*
X165910000Y-65010000D03*
X173530000Y-62470000D03*
X165910000Y-67550000D03*
X173530000Y-59930000D03*
G04 #@! TD*
D19*
G04 #@! TO.C,SW1*
X142000000Y-154250000D03*
X154000000Y-154250000D03*
X154000000Y-160250000D03*
X142000000Y-160250000D03*
D20*
X144000000Y-156000000D03*
X148000000Y-156000000D03*
X152000000Y-156000000D03*
G04 #@! TD*
D14*
G04 #@! TO.C,J6*
X188500000Y-122500000D03*
D15*
X185960000Y-122500000D03*
X183420000Y-122500000D03*
X180880000Y-122500000D03*
X178340000Y-122500000D03*
X175800000Y-122500000D03*
G04 #@! TD*
D21*
G04 #@! TO.C,D9*
X183550000Y-47400000D03*
X183550000Y-50600000D03*
X188450000Y-47400000D03*
X188450000Y-50600000D03*
G04 #@! TD*
G04 #@! TO.C,D2*
X166450000Y-158600000D03*
X166450000Y-155400000D03*
X161550000Y-158600000D03*
X161550000Y-155400000D03*
G04 #@! TD*
G04 #@! TO.C,D6*
X107550000Y-99400000D03*
X107550000Y-102600000D03*
X112450000Y-99400000D03*
X112450000Y-102600000D03*
G04 #@! TD*
G04 #@! TO.C,D10*
X188450000Y-76600000D03*
X188450000Y-73400000D03*
X183550000Y-76600000D03*
X183550000Y-73400000D03*
G04 #@! TD*
G04 #@! TO.C,D3*
X129550000Y-155400000D03*
X129550000Y-158600000D03*
X134450000Y-155400000D03*
X134450000Y-158600000D03*
G04 #@! TD*
G04 #@! TO.C,D7*
X112450000Y-76600000D03*
X112450000Y-73400000D03*
X107550000Y-76600000D03*
X107550000Y-73400000D03*
G04 #@! TD*
G04 #@! TO.C,D11*
X183550000Y-99400000D03*
X183550000Y-102600000D03*
X188450000Y-99400000D03*
X188450000Y-102600000D03*
G04 #@! TD*
G04 #@! TO.C,D4*
X116550000Y-155400000D03*
X116550000Y-158600000D03*
X121450000Y-155400000D03*
X121450000Y-158600000D03*
G04 #@! TD*
G04 #@! TO.C,D8*
X112450000Y-50600000D03*
X112450000Y-47400000D03*
X107550000Y-50600000D03*
X107550000Y-47400000D03*
G04 #@! TD*
G04 #@! TO.C,D12*
X188450000Y-145600000D03*
X188450000Y-142400000D03*
X183550000Y-145600000D03*
X183550000Y-142400000D03*
G04 #@! TD*
D22*
G04 #@! TO.C,H1*
X109000000Y-157000000D03*
D23*
X109000000Y-160225000D03*
X111280419Y-159280419D03*
X112225000Y-157000000D03*
X111280419Y-154719581D03*
X109000000Y-153775000D03*
X106719581Y-154719581D03*
X105775000Y-157000000D03*
X106719581Y-159280419D03*
G04 #@! TD*
G04 #@! TO.C,H2*
X184719581Y-159280419D03*
X183775000Y-157000000D03*
X184719581Y-154719581D03*
X187000000Y-153775000D03*
X189280419Y-154719581D03*
X190225000Y-157000000D03*
X189280419Y-159280419D03*
X187000000Y-160225000D03*
D22*
X187000000Y-157000000D03*
G04 #@! TD*
D24*
G04 #@! TO.C,TP1*
X152150000Y-69280000D03*
G04 #@! TD*
G04 #@! TO.C,TP3*
X150240000Y-88060000D03*
G04 #@! TD*
G04 #@! TO.C,TP4*
X122682000Y-131064000D03*
G04 #@! TD*
G04 #@! TO.C,TP6*
X177500000Y-146000000D03*
G04 #@! TD*
D19*
G04 #@! TO.C,F1*
X146558000Y-131826000D03*
X141478000Y-131816000D03*
G04 #@! TD*
D14*
G04 #@! TO.C,LS1*
X119000000Y-33000000D03*
D15*
X116460000Y-33000000D03*
G04 #@! TD*
G04 #@! TO.C,MK1*
X176460000Y-34000000D03*
D14*
X179000000Y-34000000D03*
G04 #@! TD*
D25*
G04 #@! TO.C,BT1*
X120840000Y-149640000D03*
X120840000Y-136050000D03*
D26*
X147000000Y-143010000D03*
G04 #@! TD*
G04 #@! TO.C,C1*
G36*
G01*
X161342500Y-61055000D02*
X161342500Y-62005000D01*
G75*
G02*
X161092500Y-62255000I-250000J0D01*
G01*
X160417500Y-62255000D01*
G75*
G02*
X160167500Y-62005000I0J250000D01*
G01*
X160167500Y-61055000D01*
G75*
G02*
X160417500Y-60805000I250000J0D01*
G01*
X161092500Y-60805000D01*
G75*
G02*
X161342500Y-61055000I0J-250000D01*
G01*
G37*
G36*
G01*
X163417500Y-61055000D02*
X163417500Y-62005000D01*
G75*
G02*
X163167500Y-62255000I-250000J0D01*
G01*
X162492500Y-62255000D01*
G75*
G02*
X162242500Y-62005000I0J250000D01*
G01*
X162242500Y-61055000D01*
G75*
G02*
X162492500Y-60805000I250000J0D01*
G01*
X163167500Y-60805000D01*
G75*
G02*
X163417500Y-61055000I0J-250000D01*
G01*
G37*
G04 #@! TD*
G04 #@! TO.C,C2*
G36*
G01*
X154035000Y-78075000D02*
X153085000Y-78075000D01*
G75*
G02*
X152835000Y-77825000I0J250000D01*
G01*
X152835000Y-77150000D01*
G75*
G02*
X153085000Y-76900000I250000J0D01*
G01*
X154035000Y-76900000D01*
G75*
G02*
X154285000Y-77150000I0J-250000D01*
G01*
X154285000Y-77825000D01*
G75*
G02*
X154035000Y-78075000I-250000J0D01*
G01*
G37*
G36*
G01*
X154035000Y-76000000D02*
X153085000Y-76000000D01*
G75*
G02*
X152835000Y-75750000I0J250000D01*
G01*
X152835000Y-75075000D01*
G75*
G02*
X153085000Y-74825000I250000J0D01*
G01*
X154035000Y-74825000D01*
G75*
G02*
X154285000Y-75075000I0J-250000D01*
G01*
X154285000Y-75750000D01*
G75*
G02*
X154035000Y-76000000I-250000J0D01*
G01*
G37*
G04 #@! TD*
G04 #@! TO.C,C3*
G36*
G01*
X139682500Y-84850000D02*
X140157500Y-84850000D01*
G75*
G02*
X140395000Y-85087500I0J-237500D01*
G01*
X140395000Y-85687500D01*
G75*
G02*
X140157500Y-85925000I-237500J0D01*
G01*
X139682500Y-85925000D01*
G75*
G02*
X139445000Y-85687500I0J237500D01*
G01*
X139445000Y-85087500D01*
G75*
G02*
X139682500Y-84850000I237500J0D01*
G01*
G37*
G36*
G01*
X139682500Y-86575000D02*
X140157500Y-86575000D01*
G75*
G02*
X140395000Y-86812500I0J-237500D01*
G01*
X140395000Y-87412500D01*
G75*
G02*
X140157500Y-87650000I-237500J0D01*
G01*
X139682500Y-87650000D01*
G75*
G02*
X139445000Y-87412500I0J237500D01*
G01*
X139445000Y-86812500D01*
G75*
G02*
X139682500Y-86575000I237500J0D01*
G01*
G37*
G04 #@! TD*
G04 #@! TO.C,C4*
G36*
G01*
X138237500Y-85675000D02*
X137762500Y-85675000D01*
G75*
G02*
X137525000Y-85437500I0J237500D01*
G01*
X137525000Y-84837500D01*
G75*
G02*
X137762500Y-84600000I237500J0D01*
G01*
X138237500Y-84600000D01*
G75*
G02*
X138475000Y-84837500I0J-237500D01*
G01*
X138475000Y-85437500D01*
G75*
G02*
X138237500Y-85675000I-237500J0D01*
G01*
G37*
G36*
G01*
X138237500Y-87400000D02*
X137762500Y-87400000D01*
G75*
G02*
X137525000Y-87162500I0J237500D01*
G01*
X137525000Y-86562500D01*
G75*
G02*
X137762500Y-86325000I237500J0D01*
G01*
X138237500Y-86325000D01*
G75*
G02*
X138475000Y-86562500I0J-237500D01*
G01*
X138475000Y-87162500D01*
G75*
G02*
X138237500Y-87400000I-237500J0D01*
G01*
G37*
G04 #@! TD*
D12*
G04 #@! TO.C,C5*
X171820000Y-52180000D03*
D11*
X168020000Y-52180000D03*
G04 #@! TD*
G04 #@! TO.C,C6*
G36*
G01*
X131345000Y-113337500D02*
X131345000Y-112862500D01*
G75*
G02*
X131582500Y-112625000I237500J0D01*
G01*
X132182500Y-112625000D01*
G75*
G02*
X132420000Y-112862500I0J-237500D01*
G01*
X132420000Y-113337500D01*
G75*
G02*
X132182500Y-113575000I-237500J0D01*
G01*
X131582500Y-113575000D01*
G75*
G02*
X131345000Y-113337500I0J237500D01*
G01*
G37*
G36*
G01*
X133070000Y-113337500D02*
X133070000Y-112862500D01*
G75*
G02*
X133307500Y-112625000I237500J0D01*
G01*
X133907500Y-112625000D01*
G75*
G02*
X134145000Y-112862500I0J-237500D01*
G01*
X134145000Y-113337500D01*
G75*
G02*
X133907500Y-113575000I-237500J0D01*
G01*
X133307500Y-113575000D01*
G75*
G02*
X133070000Y-113337500I0J237500D01*
G01*
G37*
G04 #@! TD*
G04 #@! TO.C,C9*
G36*
G01*
X151717500Y-76322500D02*
X151242500Y-76322500D01*
G75*
G02*
X151005000Y-76085000I0J237500D01*
G01*
X151005000Y-75485000D01*
G75*
G02*
X151242500Y-75247500I237500J0D01*
G01*
X151717500Y-75247500D01*
G75*
G02*
X151955000Y-75485000I0J-237500D01*
G01*
X151955000Y-76085000D01*
G75*
G02*
X151717500Y-76322500I-237500J0D01*
G01*
G37*
G36*
G01*
X151717500Y-78047500D02*
X151242500Y-78047500D01*
G75*
G02*
X151005000Y-77810000I0J237500D01*
G01*
X151005000Y-77210000D01*
G75*
G02*
X151242500Y-76972500I237500J0D01*
G01*
X151717500Y-76972500D01*
G75*
G02*
X151955000Y-77210000I0J-237500D01*
G01*
X151955000Y-77810000D01*
G75*
G02*
X151717500Y-78047500I-237500J0D01*
G01*
G37*
G04 #@! TD*
G04 #@! TO.C,C11*
G36*
G01*
X131145000Y-109120001D02*
X131145000Y-107819999D01*
G75*
G02*
X131394999Y-107570000I249999J0D01*
G01*
X132220001Y-107570000D01*
G75*
G02*
X132470000Y-107819999I0J-249999D01*
G01*
X132470000Y-109120001D01*
G75*
G02*
X132220001Y-109370000I-249999J0D01*
G01*
X131394999Y-109370000D01*
G75*
G02*
X131145000Y-109120001I0J249999D01*
G01*
G37*
G36*
G01*
X134270000Y-109120001D02*
X134270000Y-107819999D01*
G75*
G02*
X134519999Y-107570000I249999J0D01*
G01*
X135345001Y-107570000D01*
G75*
G02*
X135595000Y-107819999I0J-249999D01*
G01*
X135595000Y-109120001D01*
G75*
G02*
X135345001Y-109370000I-249999J0D01*
G01*
X134519999Y-109370000D01*
G75*
G02*
X134270000Y-109120001I0J249999D01*
G01*
G37*
G04 #@! TD*
G04 #@! TO.C,C12*
G36*
G01*
X131345000Y-111337500D02*
X131345000Y-110862500D01*
G75*
G02*
X131582500Y-110625000I237500J0D01*
G01*
X132182500Y-110625000D01*
G75*
G02*
X132420000Y-110862500I0J-237500D01*
G01*
X132420000Y-111337500D01*
G75*
G02*
X132182500Y-111575000I-237500J0D01*
G01*
X131582500Y-111575000D01*
G75*
G02*
X131345000Y-111337500I0J237500D01*
G01*
G37*
G36*
G01*
X133070000Y-111337500D02*
X133070000Y-110862500D01*
G75*
G02*
X133307500Y-110625000I237500J0D01*
G01*
X133907500Y-110625000D01*
G75*
G02*
X134145000Y-110862500I0J-237500D01*
G01*
X134145000Y-111337500D01*
G75*
G02*
X133907500Y-111575000I-237500J0D01*
G01*
X133307500Y-111575000D01*
G75*
G02*
X133070000Y-111337500I0J237500D01*
G01*
G37*
G04 #@! TD*
G04 #@! TO.C,C13*
G36*
G01*
X117235000Y-109970000D02*
X118185000Y-109970000D01*
G75*
G02*
X118435000Y-110220000I0J-250000D01*
G01*
X118435000Y-110895000D01*
G75*
G02*
X118185000Y-111145000I-250000J0D01*
G01*
X117235000Y-111145000D01*
G75*
G02*
X116985000Y-110895000I0J250000D01*
G01*
X116985000Y-110220000D01*
G75*
G02*
X117235000Y-109970000I250000J0D01*
G01*
G37*
G36*
G01*
X117235000Y-107895000D02*
X118185000Y-107895000D01*
G75*
G02*
X118435000Y-108145000I0J-250000D01*
G01*
X118435000Y-108820000D01*
G75*
G02*
X118185000Y-109070000I-250000J0D01*
G01*
X117235000Y-109070000D01*
G75*
G02*
X116985000Y-108820000I0J250000D01*
G01*
X116985000Y-108145000D01*
G75*
G02*
X117235000Y-107895000I250000J0D01*
G01*
G37*
G04 #@! TD*
G04 #@! TO.C,C14*
G36*
G01*
X161335000Y-65680000D02*
X162285000Y-65680000D01*
G75*
G02*
X162535000Y-65930000I0J-250000D01*
G01*
X162535000Y-66605000D01*
G75*
G02*
X162285000Y-66855000I-250000J0D01*
G01*
X161335000Y-66855000D01*
G75*
G02*
X161085000Y-66605000I0J250000D01*
G01*
X161085000Y-65930000D01*
G75*
G02*
X161335000Y-65680000I250000J0D01*
G01*
G37*
G36*
G01*
X161335000Y-63605000D02*
X162285000Y-63605000D01*
G75*
G02*
X162535000Y-63855000I0J-250000D01*
G01*
X162535000Y-64530000D01*
G75*
G02*
X162285000Y-64780000I-250000J0D01*
G01*
X161335000Y-64780000D01*
G75*
G02*
X161085000Y-64530000I0J250000D01*
G01*
X161085000Y-63855000D01*
G75*
G02*
X161335000Y-63605000I250000J0D01*
G01*
G37*
G04 #@! TD*
G04 #@! TO.C,C15*
G36*
G01*
X129845000Y-102625000D02*
X129845000Y-103575000D01*
G75*
G02*
X129595000Y-103825000I-250000J0D01*
G01*
X128920000Y-103825000D01*
G75*
G02*
X128670000Y-103575000I0J250000D01*
G01*
X128670000Y-102625000D01*
G75*
G02*
X128920000Y-102375000I250000J0D01*
G01*
X129595000Y-102375000D01*
G75*
G02*
X129845000Y-102625000I0J-250000D01*
G01*
G37*
G36*
G01*
X127770000Y-102625000D02*
X127770000Y-103575000D01*
G75*
G02*
X127520000Y-103825000I-250000J0D01*
G01*
X126845000Y-103825000D01*
G75*
G02*
X126595000Y-103575000I0J250000D01*
G01*
X126595000Y-102625000D01*
G75*
G02*
X126845000Y-102375000I250000J0D01*
G01*
X127520000Y-102375000D01*
G75*
G02*
X127770000Y-102625000I0J-250000D01*
G01*
G37*
G04 #@! TD*
G04 #@! TO.C,C16*
X176500000Y-55500000D03*
D12*
X180300000Y-55500000D03*
G04 #@! TD*
G04 #@! TO.C,C17*
G36*
G01*
X180225000Y-64459999D02*
X180225000Y-65760001D01*
G75*
G02*
X179975001Y-66010000I-249999J0D01*
G01*
X179149999Y-66010000D01*
G75*
G02*
X178900000Y-65760001I0J249999D01*
G01*
X178900000Y-64459999D01*
G75*
G02*
X179149999Y-64210000I249999J0D01*
G01*
X179975001Y-64210000D01*
G75*
G02*
X180225000Y-64459999I0J-249999D01*
G01*
G37*
G36*
G01*
X177100000Y-64459999D02*
X177100000Y-65760001D01*
G75*
G02*
X176850001Y-66010000I-249999J0D01*
G01*
X176024999Y-66010000D01*
G75*
G02*
X175775000Y-65760001I0J249999D01*
G01*
X175775000Y-64459999D01*
G75*
G02*
X176024999Y-64210000I249999J0D01*
G01*
X176850001Y-64210000D01*
G75*
G02*
X177100000Y-64459999I0J-249999D01*
G01*
G37*
G04 #@! TD*
G04 #@! TO.C,C18*
G36*
G01*
X177170000Y-67382500D02*
X177170000Y-67857500D01*
G75*
G02*
X176932500Y-68095000I-237500J0D01*
G01*
X176332500Y-68095000D01*
G75*
G02*
X176095000Y-67857500I0J237500D01*
G01*
X176095000Y-67382500D01*
G75*
G02*
X176332500Y-67145000I237500J0D01*
G01*
X176932500Y-67145000D01*
G75*
G02*
X177170000Y-67382500I0J-237500D01*
G01*
G37*
G36*
G01*
X178895000Y-67382500D02*
X178895000Y-67857500D01*
G75*
G02*
X178657500Y-68095000I-237500J0D01*
G01*
X178057500Y-68095000D01*
G75*
G02*
X177820000Y-67857500I0J237500D01*
G01*
X177820000Y-67382500D01*
G75*
G02*
X178057500Y-67145000I237500J0D01*
G01*
X178657500Y-67145000D01*
G75*
G02*
X178895000Y-67382500I0J-237500D01*
G01*
G37*
G04 #@! TD*
G04 #@! TO.C,C19*
G36*
G01*
X183675000Y-44762500D02*
X183675000Y-45237500D01*
G75*
G02*
X183437500Y-45475000I-237500J0D01*
G01*
X182837500Y-45475000D01*
G75*
G02*
X182600000Y-45237500I0J237500D01*
G01*
X182600000Y-44762500D01*
G75*
G02*
X182837500Y-44525000I237500J0D01*
G01*
X183437500Y-44525000D01*
G75*
G02*
X183675000Y-44762500I0J-237500D01*
G01*
G37*
G36*
G01*
X185400000Y-44762500D02*
X185400000Y-45237500D01*
G75*
G02*
X185162500Y-45475000I-237500J0D01*
G01*
X184562500Y-45475000D01*
G75*
G02*
X184325000Y-45237500I0J237500D01*
G01*
X184325000Y-44762500D01*
G75*
G02*
X184562500Y-44525000I237500J0D01*
G01*
X185162500Y-44525000D01*
G75*
G02*
X185400000Y-44762500I0J-237500D01*
G01*
G37*
G04 #@! TD*
G04 #@! TO.C,C20*
G36*
G01*
X131125000Y-104285000D02*
X131125000Y-103335000D01*
G75*
G02*
X131375000Y-103085000I250000J0D01*
G01*
X132050000Y-103085000D01*
G75*
G02*
X132300000Y-103335000I0J-250000D01*
G01*
X132300000Y-104285000D01*
G75*
G02*
X132050000Y-104535000I-250000J0D01*
G01*
X131375000Y-104535000D01*
G75*
G02*
X131125000Y-104285000I0J250000D01*
G01*
G37*
G36*
G01*
X133200000Y-104285000D02*
X133200000Y-103335000D01*
G75*
G02*
X133450000Y-103085000I250000J0D01*
G01*
X134125000Y-103085000D01*
G75*
G02*
X134375000Y-103335000I0J-250000D01*
G01*
X134375000Y-104285000D01*
G75*
G02*
X134125000Y-104535000I-250000J0D01*
G01*
X133450000Y-104535000D01*
G75*
G02*
X133200000Y-104285000I0J250000D01*
G01*
G37*
G04 #@! TD*
G04 #@! TO.C,C21*
G36*
G01*
X131100000Y-116849999D02*
X131100000Y-118150001D01*
G75*
G02*
X130850001Y-118400000I-249999J0D01*
G01*
X130024999Y-118400000D01*
G75*
G02*
X129775000Y-118150001I0J249999D01*
G01*
X129775000Y-116849999D01*
G75*
G02*
X130024999Y-116600000I249999J0D01*
G01*
X130850001Y-116600000D01*
G75*
G02*
X131100000Y-116849999I0J-249999D01*
G01*
G37*
G36*
G01*
X134225000Y-116849999D02*
X134225000Y-118150001D01*
G75*
G02*
X133975001Y-118400000I-249999J0D01*
G01*
X133149999Y-118400000D01*
G75*
G02*
X132900000Y-118150001I0J249999D01*
G01*
X132900000Y-116849999D01*
G75*
G02*
X133149999Y-116600000I249999J0D01*
G01*
X133975001Y-116600000D01*
G75*
G02*
X134225000Y-116849999I0J-249999D01*
G01*
G37*
G04 #@! TD*
G04 #@! TO.C,C23*
G36*
G01*
X183675000Y-139762500D02*
X183675000Y-140237500D01*
G75*
G02*
X183437500Y-140475000I-237500J0D01*
G01*
X182837500Y-140475000D01*
G75*
G02*
X182600000Y-140237500I0J237500D01*
G01*
X182600000Y-139762500D01*
G75*
G02*
X182837500Y-139525000I237500J0D01*
G01*
X183437500Y-139525000D01*
G75*
G02*
X183675000Y-139762500I0J-237500D01*
G01*
G37*
G36*
G01*
X185400000Y-139762500D02*
X185400000Y-140237500D01*
G75*
G02*
X185162500Y-140475000I-237500J0D01*
G01*
X184562500Y-140475000D01*
G75*
G02*
X184325000Y-140237500I0J237500D01*
G01*
X184325000Y-139762500D01*
G75*
G02*
X184562500Y-139525000I237500J0D01*
G01*
X185162500Y-139525000D01*
G75*
G02*
X185400000Y-139762500I0J-237500D01*
G01*
G37*
G04 #@! TD*
G04 #@! TO.C,C24*
G36*
G01*
X109537500Y-44762500D02*
X109537500Y-45237500D01*
G75*
G02*
X109300000Y-45475000I-237500J0D01*
G01*
X108700000Y-45475000D01*
G75*
G02*
X108462500Y-45237500I0J237500D01*
G01*
X108462500Y-44762500D01*
G75*
G02*
X108700000Y-44525000I237500J0D01*
G01*
X109300000Y-44525000D01*
G75*
G02*
X109537500Y-44762500I0J-237500D01*
G01*
G37*
G36*
G01*
X107812500Y-44762500D02*
X107812500Y-45237500D01*
G75*
G02*
X107575000Y-45475000I-237500J0D01*
G01*
X106975000Y-45475000D01*
G75*
G02*
X106737500Y-45237500I0J237500D01*
G01*
X106737500Y-44762500D01*
G75*
G02*
X106975000Y-44525000I237500J0D01*
G01*
X107575000Y-44525000D01*
G75*
G02*
X107812500Y-44762500I0J-237500D01*
G01*
G37*
G04 #@! TD*
G04 #@! TO.C,C25*
G36*
G01*
X109537500Y-96762500D02*
X109537500Y-97237500D01*
G75*
G02*
X109300000Y-97475000I-237500J0D01*
G01*
X108700000Y-97475000D01*
G75*
G02*
X108462500Y-97237500I0J237500D01*
G01*
X108462500Y-96762500D01*
G75*
G02*
X108700000Y-96525000I237500J0D01*
G01*
X109300000Y-96525000D01*
G75*
G02*
X109537500Y-96762500I0J-237500D01*
G01*
G37*
G36*
G01*
X107812500Y-96762500D02*
X107812500Y-97237500D01*
G75*
G02*
X107575000Y-97475000I-237500J0D01*
G01*
X106975000Y-97475000D01*
G75*
G02*
X106737500Y-97237500I0J237500D01*
G01*
X106737500Y-96762500D01*
G75*
G02*
X106975000Y-96525000I237500J0D01*
G01*
X107575000Y-96525000D01*
G75*
G02*
X107812500Y-96762500I0J-237500D01*
G01*
G37*
G04 #@! TD*
G04 #@! TO.C,C26*
G36*
G01*
X185537500Y-96762500D02*
X185537500Y-97237500D01*
G75*
G02*
X185300000Y-97475000I-237500J0D01*
G01*
X184700000Y-97475000D01*
G75*
G02*
X184462500Y-97237500I0J237500D01*
G01*
X184462500Y-96762500D01*
G75*
G02*
X184700000Y-96525000I237500J0D01*
G01*
X185300000Y-96525000D01*
G75*
G02*
X185537500Y-96762500I0J-237500D01*
G01*
G37*
G36*
G01*
X183812500Y-96762500D02*
X183812500Y-97237500D01*
G75*
G02*
X183575000Y-97475000I-237500J0D01*
G01*
X182975000Y-97475000D01*
G75*
G02*
X182737500Y-97237500I0J237500D01*
G01*
X182737500Y-96762500D01*
G75*
G02*
X182975000Y-96525000I237500J0D01*
G01*
X183575000Y-96525000D01*
G75*
G02*
X183812500Y-96762500I0J-237500D01*
G01*
G37*
G04 #@! TD*
G04 #@! TO.C,C27*
G36*
G01*
X109537500Y-70762500D02*
X109537500Y-71237500D01*
G75*
G02*
X109300000Y-71475000I-237500J0D01*
G01*
X108700000Y-71475000D01*
G75*
G02*
X108462500Y-71237500I0J237500D01*
G01*
X108462500Y-70762500D01*
G75*
G02*
X108700000Y-70525000I237500J0D01*
G01*
X109300000Y-70525000D01*
G75*
G02*
X109537500Y-70762500I0J-237500D01*
G01*
G37*
G36*
G01*
X107812500Y-70762500D02*
X107812500Y-71237500D01*
G75*
G02*
X107575000Y-71475000I-237500J0D01*
G01*
X106975000Y-71475000D01*
G75*
G02*
X106737500Y-71237500I0J237500D01*
G01*
X106737500Y-70762500D01*
G75*
G02*
X106975000Y-70525000I237500J0D01*
G01*
X107575000Y-70525000D01*
G75*
G02*
X107812500Y-70762500I0J-237500D01*
G01*
G37*
G04 #@! TD*
G04 #@! TO.C,C28*
G36*
G01*
X109400000Y-122762500D02*
X109400000Y-123237500D01*
G75*
G02*
X109162500Y-123475000I-237500J0D01*
G01*
X108562500Y-123475000D01*
G75*
G02*
X108325000Y-123237500I0J237500D01*
G01*
X108325000Y-122762500D01*
G75*
G02*
X108562500Y-122525000I237500J0D01*
G01*
X109162500Y-122525000D01*
G75*
G02*
X109400000Y-122762500I0J-237500D01*
G01*
G37*
G36*
G01*
X107675000Y-122762500D02*
X107675000Y-123237500D01*
G75*
G02*
X107437500Y-123475000I-237500J0D01*
G01*
X106837500Y-123475000D01*
G75*
G02*
X106600000Y-123237500I0J237500D01*
G01*
X106600000Y-122762500D01*
G75*
G02*
X106837500Y-122525000I237500J0D01*
G01*
X107437500Y-122525000D01*
G75*
G02*
X107675000Y-122762500I0J-237500D01*
G01*
G37*
G04 #@! TD*
G04 #@! TO.C,C29*
G36*
G01*
X117150000Y-152762500D02*
X117150000Y-153237500D01*
G75*
G02*
X116912500Y-153475000I-237500J0D01*
G01*
X116312500Y-153475000D01*
G75*
G02*
X116075000Y-153237500I0J237500D01*
G01*
X116075000Y-152762500D01*
G75*
G02*
X116312500Y-152525000I237500J0D01*
G01*
X116912500Y-152525000D01*
G75*
G02*
X117150000Y-152762500I0J-237500D01*
G01*
G37*
G36*
G01*
X115425000Y-152762500D02*
X115425000Y-153237500D01*
G75*
G02*
X115187500Y-153475000I-237500J0D01*
G01*
X114587500Y-153475000D01*
G75*
G02*
X114350000Y-153237500I0J237500D01*
G01*
X114350000Y-152762500D01*
G75*
G02*
X114587500Y-152525000I237500J0D01*
G01*
X115187500Y-152525000D01*
G75*
G02*
X115425000Y-152762500I0J-237500D01*
G01*
G37*
G04 #@! TD*
G04 #@! TO.C,C30*
G36*
G01*
X129675000Y-152762500D02*
X129675000Y-153237500D01*
G75*
G02*
X129437500Y-153475000I-237500J0D01*
G01*
X128837500Y-153475000D01*
G75*
G02*
X128600000Y-153237500I0J237500D01*
G01*
X128600000Y-152762500D01*
G75*
G02*
X128837500Y-152525000I237500J0D01*
G01*
X129437500Y-152525000D01*
G75*
G02*
X129675000Y-152762500I0J-237500D01*
G01*
G37*
G36*
G01*
X131400000Y-152762500D02*
X131400000Y-153237500D01*
G75*
G02*
X131162500Y-153475000I-237500J0D01*
G01*
X130562500Y-153475000D01*
G75*
G02*
X130325000Y-153237500I0J237500D01*
G01*
X130325000Y-152762500D01*
G75*
G02*
X130562500Y-152525000I237500J0D01*
G01*
X131162500Y-152525000D01*
G75*
G02*
X131400000Y-152762500I0J-237500D01*
G01*
G37*
G04 #@! TD*
G04 #@! TO.C,C31*
G36*
G01*
X161675000Y-152762500D02*
X161675000Y-153237500D01*
G75*
G02*
X161437500Y-153475000I-237500J0D01*
G01*
X160837500Y-153475000D01*
G75*
G02*
X160600000Y-153237500I0J237500D01*
G01*
X160600000Y-152762500D01*
G75*
G02*
X160837500Y-152525000I237500J0D01*
G01*
X161437500Y-152525000D01*
G75*
G02*
X161675000Y-152762500I0J-237500D01*
G01*
G37*
G36*
G01*
X163400000Y-152762500D02*
X163400000Y-153237500D01*
G75*
G02*
X163162500Y-153475000I-237500J0D01*
G01*
X162562500Y-153475000D01*
G75*
G02*
X162325000Y-153237500I0J237500D01*
G01*
X162325000Y-152762500D01*
G75*
G02*
X162562500Y-152525000I237500J0D01*
G01*
X163162500Y-152525000D01*
G75*
G02*
X163400000Y-152762500I0J-237500D01*
G01*
G37*
G04 #@! TD*
G04 #@! TO.C,C32*
G36*
G01*
X174812500Y-152512500D02*
X174812500Y-152987500D01*
G75*
G02*
X174575000Y-153225000I-237500J0D01*
G01*
X173975000Y-153225000D01*
G75*
G02*
X173737500Y-152987500I0J237500D01*
G01*
X173737500Y-152512500D01*
G75*
G02*
X173975000Y-152275000I237500J0D01*
G01*
X174575000Y-152275000D01*
G75*
G02*
X174812500Y-152512500I0J-237500D01*
G01*
G37*
G36*
G01*
X176537500Y-152512500D02*
X176537500Y-152987500D01*
G75*
G02*
X176300000Y-153225000I-237500J0D01*
G01*
X175700000Y-153225000D01*
G75*
G02*
X175462500Y-152987500I0J237500D01*
G01*
X175462500Y-152512500D01*
G75*
G02*
X175700000Y-152275000I237500J0D01*
G01*
X176300000Y-152275000D01*
G75*
G02*
X176537500Y-152512500I0J-237500D01*
G01*
G37*
G04 #@! TD*
D21*
G04 #@! TO.C,D1*
X179450000Y-158600000D03*
X179450000Y-155400000D03*
X174550000Y-158600000D03*
X174550000Y-155400000D03*
G04 #@! TD*
G04 #@! TO.C,D5*
X107550000Y-125400000D03*
X107550000Y-128600000D03*
X112450000Y-125400000D03*
X112450000Y-128600000D03*
G04 #@! TD*
D27*
G04 #@! TO.C,D41*
X157300000Y-146000000D03*
X162700000Y-146000000D03*
G04 #@! TD*
D28*
G04 #@! TO.C,D42*
X157500000Y-141000000D03*
X162500000Y-141000000D03*
G04 #@! TD*
D19*
G04 #@! TO.C,F2*
X172500000Y-146000000D03*
X167420000Y-145990000D03*
G04 #@! TD*
D22*
G04 #@! TO.C,H3*
X187000000Y-35000000D03*
D23*
X190225000Y-35000000D03*
X189280419Y-37280419D03*
X187000000Y-38225000D03*
X184719581Y-37280419D03*
X183775000Y-35000000D03*
X184719581Y-32719581D03*
X187000000Y-31775000D03*
X189280419Y-32719581D03*
G04 #@! TD*
G04 #@! TO.C,H4*
X111280419Y-32719581D03*
X109000000Y-31775000D03*
X106719581Y-32719581D03*
X105775000Y-35000000D03*
X106719581Y-37280419D03*
X109000000Y-38225000D03*
X111280419Y-37280419D03*
X112225000Y-35000000D03*
D22*
X109000000Y-35000000D03*
G04 #@! TD*
D29*
G04 #@! TO.C,J4*
X128600000Y-33300000D03*
D30*
X123600000Y-38300000D03*
X133600000Y-38300000D03*
D12*
X128600000Y-38300000D03*
X123600000Y-33300000D03*
X133600000Y-33300000D03*
D30*
X126100000Y-38300000D03*
X131100000Y-38300000D03*
G04 #@! TD*
G04 #@! TO.C,J5*
X169900000Y-38300000D03*
X164900000Y-38300000D03*
D12*
X172400000Y-33300000D03*
X162400000Y-33300000D03*
X167400000Y-38300000D03*
D30*
X172400000Y-38300000D03*
X162400000Y-38300000D03*
D29*
X167400000Y-33300000D03*
G04 #@! TD*
D31*
G04 #@! TO.C,JP3*
G36*
X159700000Y-150250000D02*
G01*
X159200000Y-150250000D01*
X159200000Y-150249398D01*
X159175466Y-150249398D01*
X159126635Y-150244588D01*
X159078510Y-150235016D01*
X159031555Y-150220772D01*
X158986222Y-150201995D01*
X158942949Y-150178864D01*
X158902150Y-150151604D01*
X158864221Y-150120476D01*
X158829524Y-150085779D01*
X158798396Y-150047850D01*
X158771136Y-150007051D01*
X158748005Y-149963778D01*
X158729228Y-149918445D01*
X158714984Y-149871490D01*
X158705412Y-149823365D01*
X158700602Y-149774534D01*
X158700602Y-149750000D01*
X158700000Y-149750000D01*
X158700000Y-149250000D01*
X158700602Y-149250000D01*
X158700602Y-149225466D01*
X158705412Y-149176635D01*
X158714984Y-149128510D01*
X158729228Y-149081555D01*
X158748005Y-149036222D01*
X158771136Y-148992949D01*
X158798396Y-148952150D01*
X158829524Y-148914221D01*
X158864221Y-148879524D01*
X158902150Y-148848396D01*
X158942949Y-148821136D01*
X158986222Y-148798005D01*
X159031555Y-148779228D01*
X159078510Y-148764984D01*
X159126635Y-148755412D01*
X159175466Y-148750602D01*
X159200000Y-148750602D01*
X159200000Y-148750000D01*
X159700000Y-148750000D01*
X159700000Y-150250000D01*
G37*
G36*
X160500000Y-148750602D02*
G01*
X160524534Y-148750602D01*
X160573365Y-148755412D01*
X160621490Y-148764984D01*
X160668445Y-148779228D01*
X160713778Y-148798005D01*
X160757051Y-148821136D01*
X160797850Y-148848396D01*
X160835779Y-148879524D01*
X160870476Y-148914221D01*
X160901604Y-148952150D01*
X160928864Y-148992949D01*
X160951995Y-149036222D01*
X160970772Y-149081555D01*
X160985016Y-149128510D01*
X160994588Y-149176635D01*
X160999398Y-149225466D01*
X160999398Y-149250000D01*
X161000000Y-149250000D01*
X161000000Y-149750000D01*
X160999398Y-149750000D01*
X160999398Y-149774534D01*
X160994588Y-149823365D01*
X160985016Y-149871490D01*
X160970772Y-149918445D01*
X160951995Y-149963778D01*
X160928864Y-150007051D01*
X160901604Y-150047850D01*
X160870476Y-150085779D01*
X160835779Y-150120476D01*
X160797850Y-150151604D01*
X160757051Y-150178864D01*
X160713778Y-150201995D01*
X160668445Y-150220772D01*
X160621490Y-150235016D01*
X160573365Y-150244588D01*
X160524534Y-150249398D01*
X160500000Y-150249398D01*
X160500000Y-150250000D01*
X160000000Y-150250000D01*
X160000000Y-148750000D01*
X160500000Y-148750000D01*
X160500000Y-148750602D01*
G37*
G04 #@! TD*
G04 #@! TO.C,JP4*
G36*
X170650000Y-149750602D02*
G01*
X170674534Y-149750602D01*
X170723365Y-149755412D01*
X170771490Y-149764984D01*
X170818445Y-149779228D01*
X170863778Y-149798005D01*
X170907051Y-149821136D01*
X170947850Y-149848396D01*
X170985779Y-149879524D01*
X171020476Y-149914221D01*
X171051604Y-149952150D01*
X171078864Y-149992949D01*
X171101995Y-150036222D01*
X171120772Y-150081555D01*
X171135016Y-150128510D01*
X171144588Y-150176635D01*
X171149398Y-150225466D01*
X171149398Y-150250000D01*
X171150000Y-150250000D01*
X171150000Y-150750000D01*
X171149398Y-150750000D01*
X171149398Y-150774534D01*
X171144588Y-150823365D01*
X171135016Y-150871490D01*
X171120772Y-150918445D01*
X171101995Y-150963778D01*
X171078864Y-151007051D01*
X171051604Y-151047850D01*
X171020476Y-151085779D01*
X170985779Y-151120476D01*
X170947850Y-151151604D01*
X170907051Y-151178864D01*
X170863778Y-151201995D01*
X170818445Y-151220772D01*
X170771490Y-151235016D01*
X170723365Y-151244588D01*
X170674534Y-151249398D01*
X170650000Y-151249398D01*
X170650000Y-151250000D01*
X170150000Y-151250000D01*
X170150000Y-149750000D01*
X170650000Y-149750000D01*
X170650000Y-149750602D01*
G37*
G36*
X169850000Y-151250000D02*
G01*
X169350000Y-151250000D01*
X169350000Y-151249398D01*
X169325466Y-151249398D01*
X169276635Y-151244588D01*
X169228510Y-151235016D01*
X169181555Y-151220772D01*
X169136222Y-151201995D01*
X169092949Y-151178864D01*
X169052150Y-151151604D01*
X169014221Y-151120476D01*
X168979524Y-151085779D01*
X168948396Y-151047850D01*
X168921136Y-151007051D01*
X168898005Y-150963778D01*
X168879228Y-150918445D01*
X168864984Y-150871490D01*
X168855412Y-150823365D01*
X168850602Y-150774534D01*
X168850602Y-150750000D01*
X168850000Y-150750000D01*
X168850000Y-150250000D01*
X168850602Y-150250000D01*
X168850602Y-150225466D01*
X168855412Y-150176635D01*
X168864984Y-150128510D01*
X168879228Y-150081555D01*
X168898005Y-150036222D01*
X168921136Y-149992949D01*
X168948396Y-149952150D01*
X168979524Y-149914221D01*
X169014221Y-149879524D01*
X169052150Y-149848396D01*
X169092949Y-149821136D01*
X169136222Y-149798005D01*
X169181555Y-149779228D01*
X169228510Y-149764984D01*
X169276635Y-149755412D01*
X169325466Y-149750602D01*
X169350000Y-149750602D01*
X169350000Y-149750000D01*
X169850000Y-149750000D01*
X169850000Y-151250000D01*
G37*
G04 #@! TD*
G04 #@! TO.C,JP5*
G36*
X173560000Y-74130602D02*
G01*
X173584534Y-74130602D01*
X173633365Y-74135412D01*
X173681490Y-74144984D01*
X173728445Y-74159228D01*
X173773778Y-74178005D01*
X173817051Y-74201136D01*
X173857850Y-74228396D01*
X173895779Y-74259524D01*
X173930476Y-74294221D01*
X173961604Y-74332150D01*
X173988864Y-74372949D01*
X174011995Y-74416222D01*
X174030772Y-74461555D01*
X174045016Y-74508510D01*
X174054588Y-74556635D01*
X174059398Y-74605466D01*
X174059398Y-74630000D01*
X174060000Y-74630000D01*
X174060000Y-75130000D01*
X174059398Y-75130000D01*
X174059398Y-75154534D01*
X174054588Y-75203365D01*
X174045016Y-75251490D01*
X174030772Y-75298445D01*
X174011995Y-75343778D01*
X173988864Y-75387051D01*
X173961604Y-75427850D01*
X173930476Y-75465779D01*
X173895779Y-75500476D01*
X173857850Y-75531604D01*
X173817051Y-75558864D01*
X173773778Y-75581995D01*
X173728445Y-75600772D01*
X173681490Y-75615016D01*
X173633365Y-75624588D01*
X173584534Y-75629398D01*
X173560000Y-75629398D01*
X173560000Y-75630000D01*
X173060000Y-75630000D01*
X173060000Y-74130000D01*
X173560000Y-74130000D01*
X173560000Y-74130602D01*
G37*
G36*
X172760000Y-75630000D02*
G01*
X172260000Y-75630000D01*
X172260000Y-75629398D01*
X172235466Y-75629398D01*
X172186635Y-75624588D01*
X172138510Y-75615016D01*
X172091555Y-75600772D01*
X172046222Y-75581995D01*
X172002949Y-75558864D01*
X171962150Y-75531604D01*
X171924221Y-75500476D01*
X171889524Y-75465779D01*
X171858396Y-75427850D01*
X171831136Y-75387051D01*
X171808005Y-75343778D01*
X171789228Y-75298445D01*
X171774984Y-75251490D01*
X171765412Y-75203365D01*
X171760602Y-75154534D01*
X171760602Y-75130000D01*
X171760000Y-75130000D01*
X171760000Y-74630000D01*
X171760602Y-74630000D01*
X171760602Y-74605466D01*
X171765412Y-74556635D01*
X171774984Y-74508510D01*
X171789228Y-74461555D01*
X171808005Y-74416222D01*
X171831136Y-74372949D01*
X171858396Y-74332150D01*
X171889524Y-74294221D01*
X171924221Y-74259524D01*
X171962150Y-74228396D01*
X172002949Y-74201136D01*
X172046222Y-74178005D01*
X172091555Y-74159228D01*
X172138510Y-74144984D01*
X172186635Y-74135412D01*
X172235466Y-74130602D01*
X172260000Y-74130602D01*
X172260000Y-74130000D01*
X172760000Y-74130000D01*
X172760000Y-75630000D01*
G37*
G04 #@! TD*
G04 #@! TO.C,JP6*
G36*
X176780000Y-75640000D02*
G01*
X176280000Y-75640000D01*
X176280000Y-75639398D01*
X176255466Y-75639398D01*
X176206635Y-75634588D01*
X176158510Y-75625016D01*
X176111555Y-75610772D01*
X176066222Y-75591995D01*
X176022949Y-75568864D01*
X175982150Y-75541604D01*
X175944221Y-75510476D01*
X175909524Y-75475779D01*
X175878396Y-75437850D01*
X175851136Y-75397051D01*
X175828005Y-75353778D01*
X175809228Y-75308445D01*
X175794984Y-75261490D01*
X175785412Y-75213365D01*
X175780602Y-75164534D01*
X175780602Y-75140000D01*
X175780000Y-75140000D01*
X175780000Y-74640000D01*
X175780602Y-74640000D01*
X175780602Y-74615466D01*
X175785412Y-74566635D01*
X175794984Y-74518510D01*
X175809228Y-74471555D01*
X175828005Y-74426222D01*
X175851136Y-74382949D01*
X175878396Y-74342150D01*
X175909524Y-74304221D01*
X175944221Y-74269524D01*
X175982150Y-74238396D01*
X176022949Y-74211136D01*
X176066222Y-74188005D01*
X176111555Y-74169228D01*
X176158510Y-74154984D01*
X176206635Y-74145412D01*
X176255466Y-74140602D01*
X176280000Y-74140602D01*
X176280000Y-74140000D01*
X176780000Y-74140000D01*
X176780000Y-75640000D01*
G37*
G36*
X177580000Y-74140602D02*
G01*
X177604534Y-74140602D01*
X177653365Y-74145412D01*
X177701490Y-74154984D01*
X177748445Y-74169228D01*
X177793778Y-74188005D01*
X177837051Y-74211136D01*
X177877850Y-74238396D01*
X177915779Y-74269524D01*
X177950476Y-74304221D01*
X177981604Y-74342150D01*
X178008864Y-74382949D01*
X178031995Y-74426222D01*
X178050772Y-74471555D01*
X178065016Y-74518510D01*
X178074588Y-74566635D01*
X178079398Y-74615466D01*
X178079398Y-74640000D01*
X178080000Y-74640000D01*
X178080000Y-75140000D01*
X178079398Y-75140000D01*
X178079398Y-75164534D01*
X178074588Y-75213365D01*
X178065016Y-75261490D01*
X178050772Y-75308445D01*
X178031995Y-75353778D01*
X178008864Y-75397051D01*
X177981604Y-75437850D01*
X177950476Y-75475779D01*
X177915779Y-75510476D01*
X177877850Y-75541604D01*
X177837051Y-75568864D01*
X177793778Y-75591995D01*
X177748445Y-75610772D01*
X177701490Y-75625016D01*
X177653365Y-75634588D01*
X177604534Y-75639398D01*
X177580000Y-75639398D01*
X177580000Y-75640000D01*
X177080000Y-75640000D01*
X177080000Y-74140000D01*
X177580000Y-74140000D01*
X177580000Y-74140602D01*
G37*
G04 #@! TD*
G04 #@! TO.C,JP7*
G36*
X167000000Y-78750000D02*
G01*
X167500000Y-78750000D01*
X167500000Y-78750602D01*
X167524534Y-78750602D01*
X167573365Y-78755412D01*
X167621490Y-78764984D01*
X167668445Y-78779228D01*
X167713778Y-78798005D01*
X167757051Y-78821136D01*
X167797850Y-78848396D01*
X167835779Y-78879524D01*
X167870476Y-78914221D01*
X167901604Y-78952150D01*
X167928864Y-78992949D01*
X167951995Y-79036222D01*
X167970772Y-79081555D01*
X167985016Y-79128510D01*
X167994588Y-79176635D01*
X167999398Y-79225466D01*
X167999398Y-79250000D01*
X168000000Y-79250000D01*
X168000000Y-79750000D01*
X167999398Y-79750000D01*
X167999398Y-79774534D01*
X167994588Y-79823365D01*
X167985016Y-79871490D01*
X167970772Y-79918445D01*
X167951995Y-79963778D01*
X167928864Y-80007051D01*
X167901604Y-80047850D01*
X167870476Y-80085779D01*
X167835779Y-80120476D01*
X167797850Y-80151604D01*
X167757051Y-80178864D01*
X167713778Y-80201995D01*
X167668445Y-80220772D01*
X167621490Y-80235016D01*
X167573365Y-80244588D01*
X167524534Y-80249398D01*
X167500000Y-80249398D01*
X167500000Y-80250000D01*
X167000000Y-80250000D01*
X167000000Y-78750000D01*
G37*
G36*
X166200000Y-80249398D02*
G01*
X166175466Y-80249398D01*
X166126635Y-80244588D01*
X166078510Y-80235016D01*
X166031555Y-80220772D01*
X165986222Y-80201995D01*
X165942949Y-80178864D01*
X165902150Y-80151604D01*
X165864221Y-80120476D01*
X165829524Y-80085779D01*
X165798396Y-80047850D01*
X165771136Y-80007051D01*
X165748005Y-79963778D01*
X165729228Y-79918445D01*
X165714984Y-79871490D01*
X165705412Y-79823365D01*
X165700602Y-79774534D01*
X165700602Y-79750000D01*
X165700000Y-79750000D01*
X165700000Y-79250000D01*
X165700602Y-79250000D01*
X165700602Y-79225466D01*
X165705412Y-79176635D01*
X165714984Y-79128510D01*
X165729228Y-79081555D01*
X165748005Y-79036222D01*
X165771136Y-78992949D01*
X165798396Y-78952150D01*
X165829524Y-78914221D01*
X165864221Y-78879524D01*
X165902150Y-78848396D01*
X165942949Y-78821136D01*
X165986222Y-78798005D01*
X166031555Y-78779228D01*
X166078510Y-78764984D01*
X166126635Y-78755412D01*
X166175466Y-78750602D01*
X166200000Y-78750602D01*
X166200000Y-78750000D01*
X166700000Y-78750000D01*
X166700000Y-80250000D01*
X166200000Y-80250000D01*
X166200000Y-80249398D01*
G37*
G04 #@! TD*
G04 #@! TO.C,R1*
G36*
G01*
X162549999Y-134400000D02*
X163450001Y-134400000D01*
G75*
G02*
X163700000Y-134649999I0J-249999D01*
G01*
X163700000Y-135350001D01*
G75*
G02*
X163450001Y-135600000I-249999J0D01*
G01*
X162549999Y-135600000D01*
G75*
G02*
X162300000Y-135350001I0J249999D01*
G01*
X162300000Y-134649999D01*
G75*
G02*
X162549999Y-134400000I249999J0D01*
G01*
G37*
G36*
G01*
X162549999Y-136400000D02*
X163450001Y-136400000D01*
G75*
G02*
X163700000Y-136649999I0J-249999D01*
G01*
X163700000Y-137350001D01*
G75*
G02*
X163450001Y-137600000I-249999J0D01*
G01*
X162549999Y-137600000D01*
G75*
G02*
X162300000Y-137350001I0J249999D01*
G01*
X162300000Y-136649999D01*
G75*
G02*
X162549999Y-136400000I249999J0D01*
G01*
G37*
G04 #@! TD*
G04 #@! TO.C,R2*
G36*
G01*
X115130000Y-114740001D02*
X115130000Y-113839999D01*
G75*
G02*
X115379999Y-113590000I249999J0D01*
G01*
X116080001Y-113590000D01*
G75*
G02*
X116330000Y-113839999I0J-249999D01*
G01*
X116330000Y-114740001D01*
G75*
G02*
X116080001Y-114990000I-249999J0D01*
G01*
X115379999Y-114990000D01*
G75*
G02*
X115130000Y-114740001I0J249999D01*
G01*
G37*
G36*
G01*
X117130000Y-114740001D02*
X117130000Y-113839999D01*
G75*
G02*
X117379999Y-113590000I249999J0D01*
G01*
X118080001Y-113590000D01*
G75*
G02*
X118330000Y-113839999I0J-249999D01*
G01*
X118330000Y-114740001D01*
G75*
G02*
X118080001Y-114990000I-249999J0D01*
G01*
X117379999Y-114990000D01*
G75*
G02*
X117130000Y-114740001I0J249999D01*
G01*
G37*
G04 #@! TD*
G04 #@! TO.C,R4*
G36*
G01*
X153159999Y-81570000D02*
X154060001Y-81570000D01*
G75*
G02*
X154310000Y-81819999I0J-249999D01*
G01*
X154310000Y-82520001D01*
G75*
G02*
X154060001Y-82770000I-249999J0D01*
G01*
X153159999Y-82770000D01*
G75*
G02*
X152910000Y-82520001I0J249999D01*
G01*
X152910000Y-81819999D01*
G75*
G02*
X153159999Y-81570000I249999J0D01*
G01*
G37*
G36*
G01*
X153159999Y-83570000D02*
X154060001Y-83570000D01*
G75*
G02*
X154310000Y-83819999I0J-249999D01*
G01*
X154310000Y-84520001D01*
G75*
G02*
X154060001Y-84770000I-249999J0D01*
G01*
X153159999Y-84770000D01*
G75*
G02*
X152910000Y-84520001I0J249999D01*
G01*
X152910000Y-83819999D01*
G75*
G02*
X153159999Y-83570000I249999J0D01*
G01*
G37*
G04 #@! TD*
G04 #@! TO.C,R5*
G36*
G01*
X146600000Y-73549999D02*
X146600000Y-74450001D01*
G75*
G02*
X146350001Y-74700000I-249999J0D01*
G01*
X145649999Y-74700000D01*
G75*
G02*
X145400000Y-74450001I0J249999D01*
G01*
X145400000Y-73549999D01*
G75*
G02*
X145649999Y-73300000I249999J0D01*
G01*
X146350001Y-73300000D01*
G75*
G02*
X146600000Y-73549999I0J-249999D01*
G01*
G37*
G36*
G01*
X148600000Y-73549999D02*
X148600000Y-74450001D01*
G75*
G02*
X148350001Y-74700000I-249999J0D01*
G01*
X147649999Y-74700000D01*
G75*
G02*
X147400000Y-74450001I0J249999D01*
G01*
X147400000Y-73549999D01*
G75*
G02*
X147649999Y-73300000I249999J0D01*
G01*
X148350001Y-73300000D01*
G75*
G02*
X148600000Y-73549999I0J-249999D01*
G01*
G37*
G04 #@! TD*
G04 #@! TO.C,R6*
G36*
G01*
X136450001Y-85625000D02*
X135549999Y-85625000D01*
G75*
G02*
X135300000Y-85375001I0J249999D01*
G01*
X135300000Y-84674999D01*
G75*
G02*
X135549999Y-84425000I249999J0D01*
G01*
X136450001Y-84425000D01*
G75*
G02*
X136700000Y-84674999I0J-249999D01*
G01*
X136700000Y-85375001D01*
G75*
G02*
X136450001Y-85625000I-249999J0D01*
G01*
G37*
G36*
G01*
X136450001Y-87625000D02*
X135549999Y-87625000D01*
G75*
G02*
X135300000Y-87375001I0J249999D01*
G01*
X135300000Y-86674999D01*
G75*
G02*
X135549999Y-86425000I249999J0D01*
G01*
X136450001Y-86425000D01*
G75*
G02*
X136700000Y-86674999I0J-249999D01*
G01*
X136700000Y-87375001D01*
G75*
G02*
X136450001Y-87625000I-249999J0D01*
G01*
G37*
G04 #@! TD*
G04 #@! TO.C,R7*
G36*
G01*
X175940000Y-40180001D02*
X175940000Y-39279999D01*
G75*
G02*
X176189999Y-39030000I249999J0D01*
G01*
X176890001Y-39030000D01*
G75*
G02*
X177140000Y-39279999I0J-249999D01*
G01*
X177140000Y-40180001D01*
G75*
G02*
X176890001Y-40430000I-249999J0D01*
G01*
X176189999Y-40430000D01*
G75*
G02*
X175940000Y-40180001I0J249999D01*
G01*
G37*
G36*
G01*
X177940000Y-40180001D02*
X177940000Y-39279999D01*
G75*
G02*
X178189999Y-39030000I249999J0D01*
G01*
X178890001Y-39030000D01*
G75*
G02*
X179140000Y-39279999I0J-249999D01*
G01*
X179140000Y-40180001D01*
G75*
G02*
X178890001Y-40430000I-249999J0D01*
G01*
X178189999Y-40430000D01*
G75*
G02*
X177940000Y-40180001I0J249999D01*
G01*
G37*
G04 #@! TD*
G04 #@! TO.C,R8*
G36*
G01*
X133120000Y-115550001D02*
X133120000Y-114649999D01*
G75*
G02*
X133369999Y-114400000I249999J0D01*
G01*
X134070001Y-114400000D01*
G75*
G02*
X134320000Y-114649999I0J-249999D01*
G01*
X134320000Y-115550001D01*
G75*
G02*
X134070001Y-115800000I-249999J0D01*
G01*
X133369999Y-115800000D01*
G75*
G02*
X133120000Y-115550001I0J249999D01*
G01*
G37*
G36*
G01*
X131120000Y-115550001D02*
X131120000Y-114649999D01*
G75*
G02*
X131369999Y-114400000I249999J0D01*
G01*
X132070001Y-114400000D01*
G75*
G02*
X132320000Y-114649999I0J-249999D01*
G01*
X132320000Y-115550001D01*
G75*
G02*
X132070001Y-115800000I-249999J0D01*
G01*
X131369999Y-115800000D01*
G75*
G02*
X131120000Y-115550001I0J249999D01*
G01*
G37*
G04 #@! TD*
G04 #@! TO.C,R9*
G36*
G01*
X176500000Y-71999999D02*
X176500000Y-72900001D01*
G75*
G02*
X176250001Y-73150000I-249999J0D01*
G01*
X175549999Y-73150000D01*
G75*
G02*
X175300000Y-72900001I0J249999D01*
G01*
X175300000Y-71999999D01*
G75*
G02*
X175549999Y-71750000I249999J0D01*
G01*
X176250001Y-71750000D01*
G75*
G02*
X176500000Y-71999999I0J-249999D01*
G01*
G37*
G36*
G01*
X178500000Y-71999999D02*
X178500000Y-72900001D01*
G75*
G02*
X178250001Y-73150000I-249999J0D01*
G01*
X177549999Y-73150000D01*
G75*
G02*
X177300000Y-72900001I0J249999D01*
G01*
X177300000Y-71999999D01*
G75*
G02*
X177549999Y-71750000I249999J0D01*
G01*
X178250001Y-71750000D01*
G75*
G02*
X178500000Y-71999999I0J-249999D01*
G01*
G37*
G04 #@! TD*
G04 #@! TO.C,R14*
G36*
G01*
X121900000Y-103450001D02*
X121900000Y-102549999D01*
G75*
G02*
X122149999Y-102300000I249999J0D01*
G01*
X122850001Y-102300000D01*
G75*
G02*
X123100000Y-102549999I0J-249999D01*
G01*
X123100000Y-103450001D01*
G75*
G02*
X122850001Y-103700000I-249999J0D01*
G01*
X122149999Y-103700000D01*
G75*
G02*
X121900000Y-103450001I0J249999D01*
G01*
G37*
G36*
G01*
X119900000Y-103450001D02*
X119900000Y-102549999D01*
G75*
G02*
X120149999Y-102300000I249999J0D01*
G01*
X120850001Y-102300000D01*
G75*
G02*
X121100000Y-102549999I0J-249999D01*
G01*
X121100000Y-103450001D01*
G75*
G02*
X120850001Y-103700000I-249999J0D01*
G01*
X120149999Y-103700000D01*
G75*
G02*
X119900000Y-103450001I0J249999D01*
G01*
G37*
G04 #@! TD*
G04 #@! TO.C,R15*
G36*
G01*
X134350000Y-105359999D02*
X134350000Y-106260001D01*
G75*
G02*
X134100001Y-106510000I-249999J0D01*
G01*
X133399999Y-106510000D01*
G75*
G02*
X133150000Y-106260001I0J249999D01*
G01*
X133150000Y-105359999D01*
G75*
G02*
X133399999Y-105110000I249999J0D01*
G01*
X134100001Y-105110000D01*
G75*
G02*
X134350000Y-105359999I0J-249999D01*
G01*
G37*
G36*
G01*
X132350000Y-105359999D02*
X132350000Y-106260001D01*
G75*
G02*
X132100001Y-106510000I-249999J0D01*
G01*
X131399999Y-106510000D01*
G75*
G02*
X131150000Y-106260001I0J249999D01*
G01*
X131150000Y-105359999D01*
G75*
G02*
X131399999Y-105110000I249999J0D01*
G01*
X132100001Y-105110000D01*
G75*
G02*
X132350000Y-105359999I0J-249999D01*
G01*
G37*
G04 #@! TD*
D24*
G04 #@! TO.C,TP2*
X115020000Y-118990000D03*
G04 #@! TD*
D11*
G04 #@! TO.C,X1*
X136470000Y-54210000D03*
D12*
X144090000Y-54210000D03*
X144090000Y-69450000D03*
X136470000Y-69450000D03*
G04 #@! TD*
D31*
G04 #@! TO.C,JP2*
G36*
X130750000Y-52850000D02*
G01*
X130750000Y-52350000D01*
X130750602Y-52350000D01*
X130750602Y-52325466D01*
X130755412Y-52276635D01*
X130764984Y-52228510D01*
X130779228Y-52181555D01*
X130798005Y-52136222D01*
X130821136Y-52092949D01*
X130848396Y-52052150D01*
X130879524Y-52014221D01*
X130914221Y-51979524D01*
X130952150Y-51948396D01*
X130992949Y-51921136D01*
X131036222Y-51898005D01*
X131081555Y-51879228D01*
X131128510Y-51864984D01*
X131176635Y-51855412D01*
X131225466Y-51850602D01*
X131250000Y-51850602D01*
X131250000Y-51850000D01*
X131750000Y-51850000D01*
X131750000Y-51850602D01*
X131774534Y-51850602D01*
X131823365Y-51855412D01*
X131871490Y-51864984D01*
X131918445Y-51879228D01*
X131963778Y-51898005D01*
X132007051Y-51921136D01*
X132047850Y-51948396D01*
X132085779Y-51979524D01*
X132120476Y-52014221D01*
X132151604Y-52052150D01*
X132178864Y-52092949D01*
X132201995Y-52136222D01*
X132220772Y-52181555D01*
X132235016Y-52228510D01*
X132244588Y-52276635D01*
X132249398Y-52325466D01*
X132249398Y-52350000D01*
X132250000Y-52350000D01*
X132250000Y-52850000D01*
X130750000Y-52850000D01*
G37*
G36*
X132249398Y-53650000D02*
G01*
X132249398Y-53674534D01*
X132244588Y-53723365D01*
X132235016Y-53771490D01*
X132220772Y-53818445D01*
X132201995Y-53863778D01*
X132178864Y-53907051D01*
X132151604Y-53947850D01*
X132120476Y-53985779D01*
X132085779Y-54020476D01*
X132047850Y-54051604D01*
X132007051Y-54078864D01*
X131963778Y-54101995D01*
X131918445Y-54120772D01*
X131871490Y-54135016D01*
X131823365Y-54144588D01*
X131774534Y-54149398D01*
X131750000Y-54149398D01*
X131750000Y-54150000D01*
X131250000Y-54150000D01*
X131250000Y-54149398D01*
X131225466Y-54149398D01*
X131176635Y-54144588D01*
X131128510Y-54135016D01*
X131081555Y-54120772D01*
X131036222Y-54101995D01*
X130992949Y-54078864D01*
X130952150Y-54051604D01*
X130914221Y-54020476D01*
X130879524Y-53985779D01*
X130848396Y-53947850D01*
X130821136Y-53907051D01*
X130798005Y-53863778D01*
X130779228Y-53818445D01*
X130764984Y-53771490D01*
X130755412Y-53723365D01*
X130750602Y-53674534D01*
X130750602Y-53650000D01*
X130750000Y-53650000D01*
X130750000Y-53150000D01*
X132250000Y-53150000D01*
X132250000Y-53650000D01*
X132249398Y-53650000D01*
G37*
G04 #@! TD*
G04 #@! TO.C,R3*
G36*
G01*
X184600000Y-150549999D02*
X184600000Y-151450001D01*
G75*
G02*
X184350001Y-151700000I-249999J0D01*
G01*
X183649999Y-151700000D01*
G75*
G02*
X183400000Y-151450001I0J249999D01*
G01*
X183400000Y-150549999D01*
G75*
G02*
X183649999Y-150300000I249999J0D01*
G01*
X184350001Y-150300000D01*
G75*
G02*
X184600000Y-150549999I0J-249999D01*
G01*
G37*
G36*
G01*
X182600000Y-150549999D02*
X182600000Y-151450001D01*
G75*
G02*
X182350001Y-151700000I-249999J0D01*
G01*
X181649999Y-151700000D01*
G75*
G02*
X181400000Y-151450001I0J249999D01*
G01*
X181400000Y-150549999D01*
G75*
G02*
X181649999Y-150300000I249999J0D01*
G01*
X182350001Y-150300000D01*
G75*
G02*
X182600000Y-150549999I0J-249999D01*
G01*
G37*
G04 #@! TD*
G04 #@! TO.C,C35*
G36*
G01*
X173837500Y-95137500D02*
X173837500Y-94662500D01*
G75*
G02*
X174075000Y-94425000I237500J0D01*
G01*
X174675000Y-94425000D01*
G75*
G02*
X174912500Y-94662500I0J-237500D01*
G01*
X174912500Y-95137500D01*
G75*
G02*
X174675000Y-95375000I-237500J0D01*
G01*
X174075000Y-95375000D01*
G75*
G02*
X173837500Y-95137500I0J237500D01*
G01*
G37*
G36*
G01*
X175562500Y-95137500D02*
X175562500Y-94662500D01*
G75*
G02*
X175800000Y-94425000I237500J0D01*
G01*
X176400000Y-94425000D01*
G75*
G02*
X176637500Y-94662500I0J-237500D01*
G01*
X176637500Y-95137500D01*
G75*
G02*
X176400000Y-95375000I-237500J0D01*
G01*
X175800000Y-95375000D01*
G75*
G02*
X175562500Y-95137500I0J237500D01*
G01*
G37*
G04 #@! TD*
G04 #@! TO.C,JP1*
G36*
X174950000Y-93150000D02*
G01*
X174450000Y-93150000D01*
X174450000Y-93149398D01*
X174425466Y-93149398D01*
X174376635Y-93144588D01*
X174328510Y-93135016D01*
X174281555Y-93120772D01*
X174236222Y-93101995D01*
X174192949Y-93078864D01*
X174152150Y-93051604D01*
X174114221Y-93020476D01*
X174079524Y-92985779D01*
X174048396Y-92947850D01*
X174021136Y-92907051D01*
X173998005Y-92863778D01*
X173979228Y-92818445D01*
X173964984Y-92771490D01*
X173955412Y-92723365D01*
X173950602Y-92674534D01*
X173950602Y-92650000D01*
X173950000Y-92650000D01*
X173950000Y-92150000D01*
X173950602Y-92150000D01*
X173950602Y-92125466D01*
X173955412Y-92076635D01*
X173964984Y-92028510D01*
X173979228Y-91981555D01*
X173998005Y-91936222D01*
X174021136Y-91892949D01*
X174048396Y-91852150D01*
X174079524Y-91814221D01*
X174114221Y-91779524D01*
X174152150Y-91748396D01*
X174192949Y-91721136D01*
X174236222Y-91698005D01*
X174281555Y-91679228D01*
X174328510Y-91664984D01*
X174376635Y-91655412D01*
X174425466Y-91650602D01*
X174450000Y-91650602D01*
X174450000Y-91650000D01*
X174950000Y-91650000D01*
X174950000Y-93150000D01*
G37*
G36*
X175750000Y-91650602D02*
G01*
X175774534Y-91650602D01*
X175823365Y-91655412D01*
X175871490Y-91664984D01*
X175918445Y-91679228D01*
X175963778Y-91698005D01*
X176007051Y-91721136D01*
X176047850Y-91748396D01*
X176085779Y-91779524D01*
X176120476Y-91814221D01*
X176151604Y-91852150D01*
X176178864Y-91892949D01*
X176201995Y-91936222D01*
X176220772Y-91981555D01*
X176235016Y-92028510D01*
X176244588Y-92076635D01*
X176249398Y-92125466D01*
X176249398Y-92150000D01*
X176250000Y-92150000D01*
X176250000Y-92650000D01*
X176249398Y-92650000D01*
X176249398Y-92674534D01*
X176244588Y-92723365D01*
X176235016Y-92771490D01*
X176220772Y-92818445D01*
X176201995Y-92863778D01*
X176178864Y-92907051D01*
X176151604Y-92947850D01*
X176120476Y-92985779D01*
X176085779Y-93020476D01*
X176047850Y-93051604D01*
X176007051Y-93078864D01*
X175963778Y-93101995D01*
X175918445Y-93120772D01*
X175871490Y-93135016D01*
X175823365Y-93144588D01*
X175774534Y-93149398D01*
X175750000Y-93149398D01*
X175750000Y-93150000D01*
X175250000Y-93150000D01*
X175250000Y-91650000D01*
X175750000Y-91650000D01*
X175750000Y-91650602D01*
G37*
G04 #@! TD*
G04 #@! TO.C,R10*
G36*
G01*
X171700000Y-97949999D02*
X171700000Y-98850001D01*
G75*
G02*
X171450001Y-99100000I-249999J0D01*
G01*
X170749999Y-99100000D01*
G75*
G02*
X170500000Y-98850001I0J249999D01*
G01*
X170500000Y-97949999D01*
G75*
G02*
X170749999Y-97700000I249999J0D01*
G01*
X171450001Y-97700000D01*
G75*
G02*
X171700000Y-97949999I0J-249999D01*
G01*
G37*
G36*
G01*
X169700000Y-97949999D02*
X169700000Y-98850001D01*
G75*
G02*
X169450001Y-99100000I-249999J0D01*
G01*
X168749999Y-99100000D01*
G75*
G02*
X168500000Y-98850001I0J249999D01*
G01*
X168500000Y-97949999D01*
G75*
G02*
X168749999Y-97700000I249999J0D01*
G01*
X169450001Y-97700000D01*
G75*
G02*
X169700000Y-97949999I0J-249999D01*
G01*
G37*
G04 #@! TD*
D32*
G04 #@! TO.C,U4*
X169350000Y-94900000D03*
X169350000Y-95900000D03*
X170850000Y-94900000D03*
X169350000Y-95400000D03*
X170850000Y-95900000D03*
X170850000Y-95400000D03*
G04 #@! TD*
D33*
G04 #@! TO.C,Y1*
X163400000Y-89800000D03*
X168280000Y-89800000D03*
G04 #@! TD*
G04 #@! TO.C,C7*
G36*
G01*
X179175000Y-61765000D02*
X179175000Y-62715000D01*
G75*
G02*
X178925000Y-62965000I-250000J0D01*
G01*
X178250000Y-62965000D01*
G75*
G02*
X178000000Y-62715000I0J250000D01*
G01*
X178000000Y-61765000D01*
G75*
G02*
X178250000Y-61515000I250000J0D01*
G01*
X178925000Y-61515000D01*
G75*
G02*
X179175000Y-61765000I0J-250000D01*
G01*
G37*
G36*
G01*
X177100000Y-61765000D02*
X177100000Y-62715000D01*
G75*
G02*
X176850000Y-62965000I-250000J0D01*
G01*
X176175000Y-62965000D01*
G75*
G02*
X175925000Y-62715000I0J250000D01*
G01*
X175925000Y-61765000D01*
G75*
G02*
X176175000Y-61515000I250000J0D01*
G01*
X176850000Y-61515000D01*
G75*
G02*
X177100000Y-61765000I0J-250000D01*
G01*
G37*
G04 #@! TD*
G04 #@! TO.C,C10*
G36*
G01*
X171500000Y-72687500D02*
X171500000Y-72212500D01*
G75*
G02*
X171737500Y-71975000I237500J0D01*
G01*
X172337500Y-71975000D01*
G75*
G02*
X172575000Y-72212500I0J-237500D01*
G01*
X172575000Y-72687500D01*
G75*
G02*
X172337500Y-72925000I-237500J0D01*
G01*
X171737500Y-72925000D01*
G75*
G02*
X171500000Y-72687500I0J237500D01*
G01*
G37*
G36*
G01*
X173225000Y-72687500D02*
X173225000Y-72212500D01*
G75*
G02*
X173462500Y-71975000I237500J0D01*
G01*
X174062500Y-71975000D01*
G75*
G02*
X174300000Y-72212500I0J-237500D01*
G01*
X174300000Y-72687500D01*
G75*
G02*
X174062500Y-72925000I-237500J0D01*
G01*
X173462500Y-72925000D01*
G75*
G02*
X173225000Y-72687500I0J237500D01*
G01*
G37*
G04 #@! TD*
G04 #@! TO.C,C33*
G36*
G01*
X167345000Y-99815000D02*
X167035000Y-99815000D01*
G75*
G02*
X166880000Y-99660000I0J155000D01*
G01*
X166880000Y-99235000D01*
G75*
G02*
X167035000Y-99080000I155000J0D01*
G01*
X167345000Y-99080000D01*
G75*
G02*
X167500000Y-99235000I0J-155000D01*
G01*
X167500000Y-99660000D01*
G75*
G02*
X167345000Y-99815000I-155000J0D01*
G01*
G37*
G36*
G01*
X167345000Y-98680000D02*
X167035000Y-98680000D01*
G75*
G02*
X166880000Y-98525000I0J155000D01*
G01*
X166880000Y-98100000D01*
G75*
G02*
X167035000Y-97945000I155000J0D01*
G01*
X167345000Y-97945000D01*
G75*
G02*
X167500000Y-98100000I0J-155000D01*
G01*
X167500000Y-98525000D01*
G75*
G02*
X167345000Y-98680000I-155000J0D01*
G01*
G37*
G04 #@! TD*
G04 #@! TO.C,C34*
G36*
G01*
X173255000Y-98750000D02*
X172945000Y-98750000D01*
G75*
G02*
X172790000Y-98595000I0J155000D01*
G01*
X172790000Y-98170000D01*
G75*
G02*
X172945000Y-98015000I155000J0D01*
G01*
X173255000Y-98015000D01*
G75*
G02*
X173410000Y-98170000I0J-155000D01*
G01*
X173410000Y-98595000D01*
G75*
G02*
X173255000Y-98750000I-155000J0D01*
G01*
G37*
G36*
G01*
X173255000Y-99885000D02*
X172945000Y-99885000D01*
G75*
G02*
X172790000Y-99730000I0J155000D01*
G01*
X172790000Y-99305000D01*
G75*
G02*
X172945000Y-99150000I155000J0D01*
G01*
X173255000Y-99150000D01*
G75*
G02*
X173410000Y-99305000I0J-155000D01*
G01*
X173410000Y-99730000D01*
G75*
G02*
X173255000Y-99885000I-155000J0D01*
G01*
G37*
G04 #@! TD*
D34*
X171773000Y-94973000D02*
X170627000Y-94973000D01*
X170627000Y-94827000D01*
X171773000Y-94827000D01*
X171773000Y-94973000D01*
D31*
G36*
X171773000Y-94973000D02*
G01*
X170627000Y-94973000D01*
X170627000Y-94827000D01*
X171773000Y-94827000D01*
X171773000Y-94973000D01*
G37*
D34*
X171773000Y-95473000D02*
X170627000Y-95473000D01*
X170627000Y-95327000D01*
X171773000Y-95327000D01*
X171773000Y-95473000D01*
D31*
G36*
X171773000Y-95473000D02*
G01*
X170627000Y-95473000D01*
X170627000Y-95327000D01*
X171773000Y-95327000D01*
X171773000Y-95473000D01*
G37*
D34*
X171773000Y-95973000D02*
X170627000Y-95973000D01*
X170627000Y-95827000D01*
X171773000Y-95827000D01*
X171773000Y-95973000D01*
D31*
G36*
X171773000Y-95973000D02*
G01*
X170627000Y-95973000D01*
X170627000Y-95827000D01*
X171773000Y-95827000D01*
X171773000Y-95973000D01*
G37*
D34*
X169573000Y-95973000D02*
X168427000Y-95973000D01*
X168427000Y-95827000D01*
X169573000Y-95827000D01*
X169573000Y-95973000D01*
D31*
G36*
X169573000Y-95973000D02*
G01*
X168427000Y-95973000D01*
X168427000Y-95827000D01*
X169573000Y-95827000D01*
X169573000Y-95973000D01*
G37*
D34*
X169573000Y-95473000D02*
X168427000Y-95473000D01*
X168427000Y-95327000D01*
X169573000Y-95327000D01*
X169573000Y-95473000D01*
D31*
G36*
X169573000Y-95473000D02*
G01*
X168427000Y-95473000D01*
X168427000Y-95327000D01*
X169573000Y-95327000D01*
X169573000Y-95473000D01*
G37*
D34*
X169573000Y-94973000D02*
X168427000Y-94973000D01*
X168427000Y-94827000D01*
X169573000Y-94827000D01*
X169573000Y-94973000D01*
D31*
G36*
X169573000Y-94973000D02*
G01*
X168427000Y-94973000D01*
X168427000Y-94827000D01*
X169573000Y-94827000D01*
X169573000Y-94973000D01*
G37*
G36*
X171901103Y-95599000D02*
G01*
X171901285Y-95600581D01*
X171898491Y-95609792D01*
X171898425Y-95609976D01*
X171896632Y-95614306D01*
X171891929Y-95637957D01*
X171891931Y-95662063D01*
X171896637Y-95685713D01*
X171898431Y-95690045D01*
X171898497Y-95690229D01*
X171901285Y-95699419D01*
X171900831Y-95701367D01*
X171899371Y-95702000D01*
X170500000Y-95702000D01*
X170498268Y-95701000D01*
X170498000Y-95700000D01*
X170498000Y-95600000D01*
X170499000Y-95598268D01*
X170500000Y-95598000D01*
X171899371Y-95598000D01*
X171901103Y-95599000D01*
G37*
G36*
X169701732Y-95599000D02*
G01*
X169702000Y-95600000D01*
X169702000Y-95700000D01*
X169701000Y-95701732D01*
X169700000Y-95702000D01*
X168300629Y-95702000D01*
X168298897Y-95701000D01*
X168298715Y-95699419D01*
X168301509Y-95690208D01*
X168301575Y-95690024D01*
X168303368Y-95685694D01*
X168308071Y-95662043D01*
X168308069Y-95637937D01*
X168303363Y-95614287D01*
X168301569Y-95609955D01*
X168301503Y-95609771D01*
X168298715Y-95600581D01*
X168299169Y-95598633D01*
X168300629Y-95598000D01*
X169700000Y-95598000D01*
X169701732Y-95599000D01*
G37*
G36*
X171901103Y-95099000D02*
G01*
X171901285Y-95100581D01*
X171898491Y-95109792D01*
X171898425Y-95109976D01*
X171896632Y-95114306D01*
X171891929Y-95137957D01*
X171891931Y-95162063D01*
X171896637Y-95185713D01*
X171898431Y-95190045D01*
X171898497Y-95190229D01*
X171901285Y-95199419D01*
X171900831Y-95201367D01*
X171899371Y-95202000D01*
X170500000Y-95202000D01*
X170498268Y-95201000D01*
X170498000Y-95200000D01*
X170498000Y-95100000D01*
X170499000Y-95098268D01*
X170500000Y-95098000D01*
X171899371Y-95098000D01*
X171901103Y-95099000D01*
G37*
G36*
X169701732Y-95099000D02*
G01*
X169702000Y-95100000D01*
X169702000Y-95200000D01*
X169701000Y-95201732D01*
X169700000Y-95202000D01*
X168300629Y-95202000D01*
X168298897Y-95201000D01*
X168298715Y-95199419D01*
X168301509Y-95190208D01*
X168301575Y-95190024D01*
X168303368Y-95185694D01*
X168308071Y-95162043D01*
X168308069Y-95137937D01*
X168303363Y-95114287D01*
X168301569Y-95109955D01*
X168301503Y-95109771D01*
X168298715Y-95100581D01*
X168299169Y-95098633D01*
X168300629Y-95098000D01*
X169700000Y-95098000D01*
X169701732Y-95099000D01*
G37*
G36*
X149501732Y-83149000D02*
G01*
X149502000Y-83150000D01*
X149502000Y-83350000D01*
X149501000Y-83351732D01*
X149500000Y-83352000D01*
X146500000Y-83352000D01*
X146498268Y-83351000D01*
X146498000Y-83350000D01*
X146498000Y-83150000D01*
X146499000Y-83148268D01*
X146500000Y-83148000D01*
X149500000Y-83148000D01*
X149501732Y-83149000D01*
G37*
G36*
X141501732Y-83149000D02*
G01*
X141502000Y-83150000D01*
X141502000Y-83350000D01*
X141501000Y-83351732D01*
X141500000Y-83352000D01*
X138500000Y-83352000D01*
X138498268Y-83351000D01*
X138498000Y-83350000D01*
X138498000Y-83150000D01*
X138499000Y-83148268D01*
X138500000Y-83148000D01*
X141500000Y-83148000D01*
X141501732Y-83149000D01*
G37*
G36*
X141501732Y-82499000D02*
G01*
X141502000Y-82500000D01*
X141502000Y-82700000D01*
X141501000Y-82701732D01*
X141500000Y-82702000D01*
X138500000Y-82702000D01*
X138498268Y-82701000D01*
X138498000Y-82700000D01*
X138498000Y-82500000D01*
X138499000Y-82498268D01*
X138500000Y-82498000D01*
X141500000Y-82498000D01*
X141501732Y-82499000D01*
G37*
G36*
X149501732Y-82499000D02*
G01*
X149502000Y-82500000D01*
X149502000Y-82700000D01*
X149501000Y-82701732D01*
X149500000Y-82702000D01*
X146500000Y-82702000D01*
X146498268Y-82701000D01*
X146498000Y-82700000D01*
X146498000Y-82500000D01*
X146499000Y-82498268D01*
X146500000Y-82498000D01*
X149500000Y-82498000D01*
X149501732Y-82499000D01*
G37*
G36*
X149501732Y-81849000D02*
G01*
X149502000Y-81850000D01*
X149502000Y-82050000D01*
X149501000Y-82051732D01*
X149500000Y-82052000D01*
X146500000Y-82052000D01*
X146498268Y-82051000D01*
X146498000Y-82050000D01*
X146498000Y-81850000D01*
X146499000Y-81848268D01*
X146500000Y-81848000D01*
X149500000Y-81848000D01*
X149501732Y-81849000D01*
G37*
G36*
X141501732Y-81849000D02*
G01*
X141502000Y-81850000D01*
X141502000Y-82050000D01*
X141501000Y-82051732D01*
X141500000Y-82052000D01*
X138500000Y-82052000D01*
X138498268Y-82051000D01*
X138498000Y-82050000D01*
X138498000Y-81850000D01*
X138499000Y-81848268D01*
X138500000Y-81848000D01*
X141500000Y-81848000D01*
X141501732Y-81849000D01*
G37*
G36*
X141501732Y-81199000D02*
G01*
X141502000Y-81200000D01*
X141502000Y-81400000D01*
X141501000Y-81401732D01*
X141500000Y-81402000D01*
X138500000Y-81402000D01*
X138498268Y-81401000D01*
X138498000Y-81400000D01*
X138498000Y-81200000D01*
X138499000Y-81198268D01*
X138500000Y-81198000D01*
X141500000Y-81198000D01*
X141501732Y-81199000D01*
G37*
G36*
X149501732Y-81199000D02*
G01*
X149502000Y-81200000D01*
X149502000Y-81400000D01*
X149501000Y-81401732D01*
X149500000Y-81402000D01*
X146500000Y-81402000D01*
X146498268Y-81401000D01*
X146498000Y-81400000D01*
X146498000Y-81200000D01*
X146499000Y-81198268D01*
X146500000Y-81198000D01*
X149500000Y-81198000D01*
X149501732Y-81199000D01*
G37*
G36*
X141501732Y-80549000D02*
G01*
X141502000Y-80550000D01*
X141502000Y-80750000D01*
X141501000Y-80751732D01*
X141500000Y-80752000D01*
X138500000Y-80752000D01*
X138498268Y-80751000D01*
X138498000Y-80750000D01*
X138498000Y-80550000D01*
X138499000Y-80548268D01*
X138500000Y-80548000D01*
X141500000Y-80548000D01*
X141501732Y-80549000D01*
G37*
G36*
X149501732Y-80549000D02*
G01*
X149502000Y-80550000D01*
X149502000Y-80750000D01*
X149501000Y-80751732D01*
X149500000Y-80752000D01*
X146500000Y-80752000D01*
X146498268Y-80751000D01*
X146498000Y-80750000D01*
X146498000Y-80550000D01*
X146499000Y-80548268D01*
X146500000Y-80548000D01*
X149500000Y-80548000D01*
X149501732Y-80549000D01*
G37*
G36*
X141501732Y-79899000D02*
G01*
X141502000Y-79900000D01*
X141502000Y-80100000D01*
X141501000Y-80101732D01*
X141500000Y-80102000D01*
X138500000Y-80102000D01*
X138498268Y-80101000D01*
X138498000Y-80100000D01*
X138498000Y-79900000D01*
X138499000Y-79898268D01*
X138500000Y-79898000D01*
X141500000Y-79898000D01*
X141501732Y-79899000D01*
G37*
G36*
X149501732Y-79899000D02*
G01*
X149502000Y-79900000D01*
X149502000Y-80100000D01*
X149501000Y-80101732D01*
X149500000Y-80102000D01*
X146500000Y-80102000D01*
X146498268Y-80101000D01*
X146498000Y-80100000D01*
X146498000Y-79900000D01*
X146499000Y-79898268D01*
X146500000Y-79898000D01*
X149500000Y-79898000D01*
X149501732Y-79899000D01*
G37*
G36*
X141501732Y-79249000D02*
G01*
X141502000Y-79250000D01*
X141502000Y-79450000D01*
X141501000Y-79451732D01*
X141500000Y-79452000D01*
X138500000Y-79452000D01*
X138498268Y-79451000D01*
X138498000Y-79450000D01*
X138498000Y-79250000D01*
X138499000Y-79248268D01*
X138500000Y-79248000D01*
X141500000Y-79248000D01*
X141501732Y-79249000D01*
G37*
G36*
X149501732Y-79249000D02*
G01*
X149502000Y-79250000D01*
X149502000Y-79450000D01*
X149501000Y-79451732D01*
X149500000Y-79452000D01*
X146500000Y-79452000D01*
X146498268Y-79451000D01*
X146498000Y-79450000D01*
X146498000Y-79250000D01*
X146499000Y-79248268D01*
X146500000Y-79248000D01*
X149500000Y-79248000D01*
X149501732Y-79249000D01*
G37*
G36*
X141501732Y-78599000D02*
G01*
X141502000Y-78600000D01*
X141502000Y-78800000D01*
X141501000Y-78801732D01*
X141500000Y-78802000D01*
X138500000Y-78802000D01*
X138498268Y-78801000D01*
X138498000Y-78800000D01*
X138498000Y-78600000D01*
X138499000Y-78598268D01*
X138500000Y-78598000D01*
X141500000Y-78598000D01*
X141501732Y-78599000D01*
G37*
G36*
X149501732Y-78599000D02*
G01*
X149502000Y-78600000D01*
X149502000Y-78800000D01*
X149501000Y-78801732D01*
X149500000Y-78802000D01*
X146500000Y-78802000D01*
X146498268Y-78801000D01*
X146498000Y-78800000D01*
X146498000Y-78600000D01*
X146499000Y-78598268D01*
X146500000Y-78598000D01*
X149500000Y-78598000D01*
X149501732Y-78599000D01*
G37*
G36*
X149501732Y-77949000D02*
G01*
X149502000Y-77950000D01*
X149502000Y-78150000D01*
X149501000Y-78151732D01*
X149500000Y-78152000D01*
X146500000Y-78152000D01*
X146498268Y-78151000D01*
X146498000Y-78150000D01*
X146498000Y-77950000D01*
X146499000Y-77948268D01*
X146500000Y-77948000D01*
X149500000Y-77948000D01*
X149501732Y-77949000D01*
G37*
G36*
X141501732Y-77949000D02*
G01*
X141502000Y-77950000D01*
X141502000Y-78150000D01*
X141501000Y-78151732D01*
X141500000Y-78152000D01*
X138500000Y-78152000D01*
X138498268Y-78151000D01*
X138498000Y-78150000D01*
X138498000Y-77950000D01*
X138499000Y-77948268D01*
X138500000Y-77948000D01*
X141500000Y-77948000D01*
X141501732Y-77949000D01*
G37*
G36*
X141501732Y-77299000D02*
G01*
X141502000Y-77300000D01*
X141502000Y-77500000D01*
X141501000Y-77501732D01*
X141500000Y-77502000D01*
X138500000Y-77502000D01*
X138498268Y-77501000D01*
X138498000Y-77500000D01*
X138498000Y-77300000D01*
X138499000Y-77298268D01*
X138500000Y-77298000D01*
X141500000Y-77298000D01*
X141501732Y-77299000D01*
G37*
G36*
X149501732Y-77299000D02*
G01*
X149502000Y-77300000D01*
X149502000Y-77500000D01*
X149501000Y-77501732D01*
X149500000Y-77502000D01*
X146500000Y-77502000D01*
X146498268Y-77501000D01*
X146498000Y-77500000D01*
X146498000Y-77300000D01*
X146499000Y-77298268D01*
X146500000Y-77298000D01*
X149500000Y-77298000D01*
X149501732Y-77299000D01*
G37*
G36*
X149501732Y-76649000D02*
G01*
X149502000Y-76650000D01*
X149502000Y-76850000D01*
X149501000Y-76851732D01*
X149500000Y-76852000D01*
X146500000Y-76852000D01*
X146498268Y-76851000D01*
X146498000Y-76850000D01*
X146498000Y-76650000D01*
X146499000Y-76648268D01*
X146500000Y-76648000D01*
X149500000Y-76648000D01*
X149501732Y-76649000D01*
G37*
G36*
X141501732Y-76649000D02*
G01*
X141502000Y-76650000D01*
X141502000Y-76850000D01*
X141501000Y-76851732D01*
X141500000Y-76852000D01*
X138500000Y-76852000D01*
X138498268Y-76851000D01*
X138498000Y-76850000D01*
X138498000Y-76650000D01*
X138499000Y-76648268D01*
X138500000Y-76648000D01*
X141500000Y-76648000D01*
X141501732Y-76649000D01*
G37*
M02*
