M48
; DRILL file {KiCad 5.1.9+dfsg1-1} date Sat Jun 11 23:01:35 2022
; FORMAT={-:-/ absolute / metric / decimal}
; #@! TF.CreationDate,2022-06-11T23:01:35-07:00
; #@! TF.GenerationSoftware,Kicad,Pcbnew,5.1.9+dfsg1-1
FMAT,2
METRIC
T1C0.400
T2C0.600
T3C0.800
T4C0.900
T5C1.000
T6C1.170
T7C1.200
T8C1.500
T9C4.300
T10C1.600
T11C3.560
%
G90
G05
T1
X110.71Y-44.97
X110.75Y-49.25
X112.17Y-134.77
X113.86Y-114.01
X115.02Y-118.99
X115.1Y-157.13
X117.95Y-116.56
X131.5Y-58.25
X135.5Y-78.5
X136.5Y-156.75
X136.858Y-80.582
X137.55Y-89.28
X137.55Y-94.05
X139.965Y-47.767
X140.32Y-88.21
X140.425Y-46.797
X140.895Y-45.85
X141.365Y-84.4
X146.25Y-45.75
X147.727Y-85.613
X147.75Y-159.75
X149.25Y-49.75
X151.41Y-80.07
X153.11Y-49.35
X153.25Y-45.75
X153.501Y-79.251
X154.16Y-110.72
X155.5Y-49.5
X155.62Y-119.57
X155.9Y-126.71
X158.0Y-113.22
X158.02Y-120.35
X159.22Y-58.83
X159.26Y-57.73
X159.347Y-56.734
X162.6Y-121.6
X162.75Y-53.5
X163.0Y-59.5
X163.8Y-110.4
X164.5Y-149.5
X165.5Y-142.75
X168.3Y-117.92
X170.5Y-137.5
X170.93Y-118.77
X171.14Y-127.7
X172.0Y-113.75
X172.01Y-111.995
X172.25Y-148.97
X173.023Y-111.982
X174.57Y-110.38
X175.503Y-124.786
X175.546Y-125.854
X176.5Y-129.5
X177.0Y-113.0
X178.0Y-119.25
X179.03Y-142.5
X179.03Y-152.87
X179.68Y-111.84
X180.25Y-126.5
X180.75Y-119.25
X182.1Y-48.85
X183.25Y-119.25
X184.0Y-36.0
X184.0Y-38.0
X186.0Y-118.5
X186.0Y-126.5
X186.34Y-47.61
T2
X105.775Y-35.0
X105.775Y-157.0
X106.72Y-32.72
X106.72Y-37.28
X106.72Y-154.72
X106.72Y-159.28
X109.0Y-31.775
X109.0Y-38.225
X109.0Y-153.775
X109.0Y-160.225
X111.28Y-32.72
X111.28Y-37.28
X111.28Y-154.72
X111.28Y-159.28
X112.225Y-35.0
X112.225Y-157.0
X183.775Y-35.0
X183.775Y-157.0
X184.72Y-32.72
X184.72Y-37.28
X184.72Y-154.72
X184.72Y-159.28
X187.0Y-31.775
X187.0Y-38.225
X187.0Y-153.775
X187.0Y-160.225
X189.28Y-32.72
X189.28Y-37.28
X189.28Y-154.72
X189.28Y-159.28
X190.225Y-35.0
X190.225Y-157.0
T3
X120.97Y-106.6
X120.97Y-109.14
X120.97Y-111.68
X120.97Y-114.22
X128.59Y-106.6
X128.59Y-109.14
X128.59Y-111.68
X128.59Y-114.22
X136.47Y-54.21
X136.47Y-69.45
X144.09Y-54.21
X144.09Y-69.45
X153.0Y-115.76
X153.0Y-131.0
X155.54Y-115.76
X155.54Y-131.0
X158.08Y-115.76
X158.08Y-131.0
X160.62Y-115.76
X160.62Y-131.0
X163.16Y-115.76
X163.16Y-131.0
X163.4Y-89.8
X164.7Y-74.0
X165.7Y-115.76
X165.7Y-131.0
X165.91Y-59.93
X165.91Y-62.47
X165.91Y-65.01
X165.91Y-67.55
X168.02Y-52.18
X168.24Y-115.76
X168.24Y-131.0
X168.28Y-89.8
X168.5Y-74.0
X170.78Y-115.76
X170.78Y-131.0
X171.82Y-52.18
X173.32Y-115.76
X173.32Y-131.0
X173.53Y-59.93
X173.53Y-62.47
X173.53Y-65.01
X173.53Y-67.55
X175.86Y-115.76
X175.86Y-131.0
X176.5Y-55.5
X178.4Y-115.76
X178.4Y-131.0
X180.3Y-55.5
X180.94Y-115.76
X180.94Y-131.0
X183.48Y-115.76
X183.48Y-131.0
X186.02Y-115.76
X186.02Y-131.0
X188.56Y-115.76
X188.56Y-131.0
T4
X144.0Y-156.0
X148.0Y-156.0
X152.0Y-156.0
T5
X116.46Y-33.0
X119.0Y-33.0
X134.0Y-44.0
X136.54Y-44.0
X139.08Y-44.0
X141.478Y-131.816
X141.62Y-44.0
X144.16Y-44.0
X146.558Y-131.826
X146.7Y-44.0
X149.24Y-44.0
X151.78Y-44.0
X154.32Y-44.0
X156.86Y-44.0
X159.4Y-44.0
X161.94Y-44.0
X167.42Y-145.99
X172.5Y-146.0
X175.8Y-122.5
X176.46Y-34.0
X178.34Y-122.5
X179.0Y-34.0
X180.88Y-122.5
X183.42Y-122.5
X185.96Y-122.5
X188.5Y-122.5
T6
X120.84Y-136.05
X120.84Y-149.64
T7
X142.0Y-154.25
X142.0Y-160.25
X154.0Y-154.25
X154.0Y-160.25
T8
X118.47Y-139.81
X118.47Y-146.69
X149.53Y-139.81
X149.53Y-146.69
T9
X109.0Y-35.0
X109.0Y-157.0
X187.0Y-35.0
X187.0Y-157.0
T10
X123.6Y-33.3
X128.6Y-38.3
X133.6Y-33.3
X162.4Y-33.3
X167.4Y-38.3
X172.4Y-33.3
T11
X147.0Y-143.01
T5
X123.6Y-38.05G85X123.6Y-38.55
G05
X126.1Y-38.05G85X126.1Y-38.55
G05
X128.85Y-33.3G85X128.35Y-33.3
G05
X131.1Y-38.05G85X131.1Y-38.55
G05
X133.6Y-38.05G85X133.6Y-38.55
G05
X162.4Y-38.05G85X162.4Y-38.55
G05
X164.9Y-38.05G85X164.9Y-38.55
G05
X167.65Y-33.3G85X167.15Y-33.3
G05
X169.9Y-38.05G85X169.9Y-38.55
G05
X172.4Y-38.05G85X172.4Y-38.55
G05
T0
M30
